<svg xmlns="http://www.w3.org/2000/svg" viewBox="0 0 169 44"><defs><style>.cls-1{fill:#f05032;stroke:#707070;stroke-miterlimit:10;}.cls-2{fill:#fff;}</style></defs><title>bt11_hover</title><g id="Capa_2" data-name="Capa 2"><g id="CONTENIDO"><rect class="cls-1" x="0.5" y="0.5" width="168" height="43"/><path class="cls-2" d="M15.75,18.31V9H17l4.89,7.31V9h1.18v9.31H21.82L16.94,11v7.31Z"/><path class="cls-2" d="M29.41,17.48a4.26,4.26,0,0,1-1.22.76,3.55,3.55,0,0,1-1.26.22,2.45,2.45,0,0,1-1.71-.54,1.79,1.79,0,0,1-.6-1.39,1.84,1.84,0,0,1,.23-.9,1.86,1.86,0,0,1,.59-.66,2.78,2.78,0,0,1,.82-.37,8.44,8.44,0,0,1,1-.17,10.45,10.45,0,0,0,2-.39c0-.16,0-.26,0-.3a1.26,1.26,0,0,0-.32-1,1.91,1.91,0,0,0-1.3-.39,2,2,0,0,0-1.19.28,1.73,1.73,0,0,0-.57,1l-1.12-.15a2.77,2.77,0,0,1,.5-1.16,2.19,2.19,0,0,1,1-.68,4.48,4.48,0,0,1,1.53-.24,4.06,4.06,0,0,1,1.4.2,1.84,1.84,0,0,1,.79.51,1.8,1.8,0,0,1,.36.78A6.4,6.4,0,0,1,30.47,14v1.52a16.19,16.19,0,0,0,.07,2,2.56,2.56,0,0,0,.29.81H29.64A2.44,2.44,0,0,1,29.41,17.48Zm-.1-2.55a8.31,8.31,0,0,1-1.87.43,4.37,4.37,0,0,0-1,.23A1,1,0,0,0,26,16a1,1,0,0,0,.19,1.3,1.49,1.49,0,0,0,1,.3,2.35,2.35,0,0,0,1.17-.29,1.78,1.78,0,0,0,.76-.79,2.76,2.76,0,0,0,.18-1.14Z"/><path class="cls-2" d="M34.11,18.31l-2.56-6.74h1.21l1.45,4q.23.65.43,1.36.15-.53.43-1.28l1.5-4.11h1.17l-2.55,6.74Z"/><path class="cls-2" d="M43.35,16.14l1.18.15a2.88,2.88,0,0,1-1,1.61,3.5,3.5,0,0,1-4.27-.34A3.56,3.56,0,0,1,38.36,15a3.72,3.72,0,0,1,.88-2.64,3,3,0,0,1,2.27-.94,2.89,2.89,0,0,1,2.21.92,3.66,3.66,0,0,1,.86,2.59c0,.07,0,.17,0,.3h-5a2.59,2.59,0,0,0,.63,1.7,1.87,1.87,0,0,0,1.41.59,1.75,1.75,0,0,0,1.07-.33A2.19,2.19,0,0,0,43.35,16.14ZM39.6,14.29h3.76A2.28,2.28,0,0,0,42.94,13a1.75,1.75,0,0,0-1.42-.66,1.81,1.81,0,0,0-1.32.53A2.08,2.08,0,0,0,39.6,14.29Z"/><path class="cls-2" d="M45.76,18.87l1.11.17a1.06,1.06,0,0,0,.39.75,1.9,1.9,0,0,0,1.16.32,2,2,0,0,0,1.23-.32,1.56,1.56,0,0,0,.58-.89,7.29,7.29,0,0,0,.08-1.47,2.35,2.35,0,0,1-1.87.88,2.55,2.55,0,0,1-2.15-1,3.86,3.86,0,0,1-.76-2.41,4.48,4.48,0,0,1,.35-1.78,2.79,2.79,0,0,1,1-1.26,2.74,2.74,0,0,1,1.56-.44,2.42,2.42,0,0,1,2,1v-.81h1.05v5.83a5.53,5.53,0,0,1-.32,2.23,2.35,2.35,0,0,1-1,1,3.52,3.52,0,0,1-1.71.38,3.23,3.23,0,0,1-1.95-.54A1.84,1.84,0,0,1,45.76,18.87Zm.95-4a2.92,2.92,0,0,0,.53,1.94,1.74,1.74,0,0,0,2.64,0,2.83,2.83,0,0,0,.53-1.9A2.76,2.76,0,0,0,49.86,13a1.7,1.7,0,0,0-1.32-.63,1.65,1.65,0,0,0-1.29.62A2.75,2.75,0,0,0,46.71,14.82Z"/><path class="cls-2" d="M57.6,17.48a4.26,4.26,0,0,1-1.22.76,3.55,3.55,0,0,1-1.26.22,2.45,2.45,0,0,1-1.71-.54,1.79,1.79,0,0,1-.6-1.39,1.84,1.84,0,0,1,.23-.9,1.86,1.86,0,0,1,.59-.66,2.78,2.78,0,0,1,.82-.37,8.44,8.44,0,0,1,1-.17,10.45,10.45,0,0,0,2-.39c0-.16,0-.26,0-.3a1.26,1.26,0,0,0-.32-1,1.91,1.91,0,0,0-1.3-.39,2,2,0,0,0-1.19.28,1.73,1.73,0,0,0-.57,1L53,13.49a2.77,2.77,0,0,1,.5-1.16,2.19,2.19,0,0,1,1-.68,4.48,4.48,0,0,1,1.53-.24,4.06,4.06,0,0,1,1.4.2,1.84,1.84,0,0,1,.79.51,1.8,1.8,0,0,1,.36.78A6.4,6.4,0,0,1,58.66,14v1.52a16.19,16.19,0,0,0,.07,2,2.56,2.56,0,0,0,.29.81H57.83A2.44,2.44,0,0,1,57.6,17.48Zm-.1-2.55a8.31,8.31,0,0,1-1.87.43,4.37,4.37,0,0,0-1,.23,1,1,0,0,0-.45.37,1,1,0,0,0,.19,1.3,1.49,1.49,0,0,0,1,.3,2.35,2.35,0,0,0,1.17-.29,1.78,1.78,0,0,0,.76-.79,2.76,2.76,0,0,0,.18-1.14Z"/><path class="cls-2" d="M64.83,15.84,66,16A2.91,2.91,0,0,1,65,17.8a2.74,2.74,0,0,1-1.86.66,2.9,2.9,0,0,1-2.23-.9A3.67,3.67,0,0,1,60.08,15a4.71,4.71,0,0,1,.36-1.91,2.53,2.53,0,0,1,1.1-1.23,3.27,3.27,0,0,1,1.61-.41A2.8,2.8,0,0,1,65,12a2.55,2.55,0,0,1,.89,1.58l-1.11.17a1.84,1.84,0,0,0-.56-1,1.45,1.45,0,0,0-1-.34,1.77,1.77,0,0,0-1.4.62,2.94,2.94,0,0,0-.54,2,3,3,0,0,0,.52,2,1.69,1.69,0,0,0,1.36.62,1.6,1.6,0,0,0,1.12-.41A2,2,0,0,0,64.83,15.84Z"/><path class="cls-2" d="M66.94,10.32V9h1.14v1.31Zm0,8V11.57h1.14v6.74Z"/><path class="cls-2" d="M69.39,14.94a3.47,3.47,0,0,1,1-2.77,3.14,3.14,0,0,1,2.12-.75,3,3,0,0,1,2.27.91,3.47,3.47,0,0,1,.88,2.52,4.47,4.47,0,0,1-.39,2A2.76,2.76,0,0,1,74.18,18a3.3,3.3,0,0,1-1.63.41,3,3,0,0,1-2.29-.91A3.63,3.63,0,0,1,69.39,14.94Zm1.17,0a2.87,2.87,0,0,0,.57,1.94,1.88,1.88,0,0,0,2.84,0,2.94,2.94,0,0,0,.57-2A2.79,2.79,0,0,0,74,13a1.88,1.88,0,0,0-2.83,0A2.86,2.86,0,0,0,70.57,14.94Zm1.35-4.21L72.77,9h1.5l-1.4,1.78Z"/><path class="cls-2" d="M77.05,18.31V11.57h1v1a2.42,2.42,0,0,1,2.15-1.11,2.82,2.82,0,0,1,1.12.22,1.77,1.77,0,0,1,.76.57,2.21,2.21,0,0,1,.36.84,6.58,6.58,0,0,1,.06,1.11v4.15H81.39v-4.1a3.05,3.05,0,0,0-.13-1,1.09,1.09,0,0,0-.47-.55,1.5,1.5,0,0,0-.8-.21,1.85,1.85,0,0,0-1.26.46,2.29,2.29,0,0,0-.53,1.76v3.68Z"/><path class="cls-2" d="M92.29,17.48a4.26,4.26,0,0,1-1.22.76,3.55,3.55,0,0,1-1.26.22,2.45,2.45,0,0,1-1.71-.54,1.79,1.79,0,0,1-.6-1.39,1.84,1.84,0,0,1,.23-.9,1.86,1.86,0,0,1,.59-.66,2.78,2.78,0,0,1,.82-.37,8.44,8.44,0,0,1,1-.17,10.45,10.45,0,0,0,2-.39c0-.16,0-.26,0-.3a1.26,1.26,0,0,0-.32-1,1.91,1.91,0,0,0-1.3-.39,2,2,0,0,0-1.19.28,1.73,1.73,0,0,0-.57,1l-1.12-.15a2.77,2.77,0,0,1,.5-1.16,2.19,2.19,0,0,1,1-.68,4.48,4.48,0,0,1,1.53-.24,4.06,4.06,0,0,1,1.4.2,1.84,1.84,0,0,1,.79.51,1.8,1.8,0,0,1,.36.78A6.4,6.4,0,0,1,93.35,14v1.52a16.19,16.19,0,0,0,.07,2,2.56,2.56,0,0,0,.29.81H92.52A2.44,2.44,0,0,1,92.29,17.48Zm-.1-2.55a8.31,8.31,0,0,1-1.87.43,4.37,4.37,0,0,0-1,.23,1,1,0,0,0-.45.37,1,1,0,0,0,.19,1.3,1.49,1.49,0,0,0,1,.3,2.35,2.35,0,0,0,1.17-.29,1.78,1.78,0,0,0,.76-.79,2.76,2.76,0,0,0,.18-1.14Z"/><path class="cls-2" d="M101.23,17.29l.17,1a4.19,4.19,0,0,1-.86.1,2,2,0,0,1-1-.2,1.1,1.1,0,0,1-.48-.52,4.1,4.1,0,0,1-.14-1.35V12.46h-.84v-.89h.84V9.9l1.14-.69v2.36h1.15v.89h-1.15V16.4a2,2,0,0,0,.06.63.48.48,0,0,0,.2.22.76.76,0,0,0,.39.08A3.63,3.63,0,0,0,101.23,17.29Z"/><path class="cls-2" d="M102.33,18.31V11.57h1v1a2.78,2.78,0,0,1,.73-.95,1.27,1.27,0,0,1,.73-.23,2.23,2.23,0,0,1,1.17.37l-.39,1.06a1.64,1.64,0,0,0-.84-.25,1.09,1.09,0,0,0-.67.23,1.21,1.21,0,0,0-.42.63,4.45,4.45,0,0,0-.19,1.33v3.53Z"/><path class="cls-2" d="M111.07,17.48a4.26,4.26,0,0,1-1.22.76,3.55,3.55,0,0,1-1.26.22,2.45,2.45,0,0,1-1.71-.54,1.79,1.79,0,0,1-.6-1.39,1.84,1.84,0,0,1,.23-.9,1.86,1.86,0,0,1,.59-.66,2.78,2.78,0,0,1,.82-.37,8.44,8.44,0,0,1,1-.17,10.45,10.45,0,0,0,2-.39c0-.16,0-.26,0-.3a1.26,1.26,0,0,0-.32-1,1.91,1.91,0,0,0-1.3-.39,2,2,0,0,0-1.19.28,1.73,1.73,0,0,0-.57,1l-1.12-.15a2.77,2.77,0,0,1,.5-1.16,2.19,2.19,0,0,1,1-.68,4.48,4.48,0,0,1,1.53-.24,4.06,4.06,0,0,1,1.4.2,1.84,1.84,0,0,1,.79.51,1.8,1.8,0,0,1,.36.78,6.4,6.4,0,0,1,.06,1.05v1.52a16.19,16.19,0,0,0,.07,2,2.56,2.56,0,0,0,.29.81H111.3A2.44,2.44,0,0,1,111.07,17.48Zm-.1-2.55a8.31,8.31,0,0,1-1.87.43,4.37,4.37,0,0,0-1,.23,1,1,0,0,0-.45.37,1,1,0,0,0,.19,1.3,1.49,1.49,0,0,0,1,.3,2.35,2.35,0,0,0,1.17-.29,1.78,1.78,0,0,0,.76-.79,2.76,2.76,0,0,0,.18-1.14Z"/><path class="cls-2" d="M115.78,18.31l-2.56-6.74h1.21l1.45,4q.23.65.43,1.36.15-.53.43-1.28l1.5-4.11h1.17l-2.55,6.74Z"/><path class="cls-2" d="M125,16.14l1.18.15a2.88,2.88,0,0,1-1,1.61,3.5,3.5,0,0,1-4.27-.34A3.56,3.56,0,0,1,120,15a3.72,3.72,0,0,1,.88-2.64,3,3,0,0,1,2.27-.94,2.89,2.89,0,0,1,2.21.92,3.66,3.66,0,0,1,.86,2.59c0,.07,0,.17,0,.3h-5a2.59,2.59,0,0,0,.63,1.7,1.87,1.87,0,0,0,1.41.59,1.75,1.75,0,0,0,1.07-.33A2.19,2.19,0,0,0,125,16.14Zm-3.75-1.85H125A2.28,2.28,0,0,0,124.6,13a1.75,1.75,0,0,0-1.42-.66,1.81,1.81,0,0,0-1.32.53A2.08,2.08,0,0,0,121.27,14.29Zm1.23-3.56L123.34,9h1.5l-1.4,1.78Z"/><path class="cls-2" d="M127.18,16.29l1.13-.18a1.58,1.58,0,0,0,.53,1,1.84,1.84,0,0,0,1.22.36,1.79,1.79,0,0,0,1.17-.32,1,1,0,0,0,.38-.75.7.7,0,0,0-.34-.61,5,5,0,0,0-1.17-.39,10.65,10.65,0,0,1-1.74-.55,1.67,1.67,0,0,1-1-1.55,1.74,1.74,0,0,1,.21-.83,1.85,1.85,0,0,1,.56-.64,2.34,2.34,0,0,1,.73-.33,3.43,3.43,0,0,1,1-.14,3.9,3.9,0,0,1,1.39.23,1.9,1.9,0,0,1,.89.62,2.42,2.42,0,0,1,.39,1l-1.12.15a1.22,1.22,0,0,0-.44-.81,1.62,1.62,0,0,0-1-.29,1.87,1.87,0,0,0-1.12.26.76.76,0,0,0-.34.61.63.63,0,0,0,.14.4,1,1,0,0,0,.44.3l1,.29a14,14,0,0,1,1.69.53,1.71,1.71,0,0,1,.75.6,1.67,1.67,0,0,1,.27,1,1.92,1.92,0,0,1-.33,1.08,2.15,2.15,0,0,1-1,.78,3.49,3.49,0,0,1-1.42.28,3.17,3.17,0,0,1-2-.55A2.54,2.54,0,0,1,127.18,16.29Z"/><path class="cls-2" d="M142.12,18.31v-.85a2.1,2.1,0,0,1-1.88,1,2.64,2.64,0,0,1-1.48-.44,2.93,2.93,0,0,1-1-1.24,4.29,4.29,0,0,1-.37-1.83,4.79,4.79,0,0,1,.34-1.83,2.66,2.66,0,0,1,1-1.26,2.71,2.71,0,0,1,1.5-.44,2.25,2.25,0,0,1,1.08.26,2.29,2.29,0,0,1,.77.67V9h1.14v9.31Zm-3.61-3.36a2.93,2.93,0,0,0,.54,1.94,1.65,1.65,0,0,0,1.29.64,1.62,1.62,0,0,0,1.27-.61,2.82,2.82,0,0,0,.52-1.87,3.17,3.17,0,0,0-.53-2,1.64,1.64,0,0,0-1.31-.65A1.58,1.58,0,0,0,139,13,3.07,3.07,0,0,0,138.51,14.94Z"/><path class="cls-2" d="M149.59,16.14l1.18.15a2.88,2.88,0,0,1-1,1.61,3.5,3.5,0,0,1-4.27-.34A3.56,3.56,0,0,1,144.6,15a3.72,3.72,0,0,1,.88-2.64,3,3,0,0,1,2.27-.94,2.89,2.89,0,0,1,2.21.92,3.66,3.66,0,0,1,.86,2.59c0,.07,0,.17,0,.3h-5a2.59,2.59,0,0,0,.63,1.7,1.87,1.87,0,0,0,1.41.59,1.75,1.75,0,0,0,1.07-.33A2.19,2.19,0,0,0,149.59,16.14Zm-3.75-1.85h3.76a2.28,2.28,0,0,0-.43-1.28,1.75,1.75,0,0,0-1.42-.66,1.81,1.81,0,0,0-1.32.53A2.08,2.08,0,0,0,145.84,14.29Z"/><path class="cls-2" d="M152.18,18.31V9h1.14v9.31Z"/><path class="cls-2" d="M27.91,33.91V24.6h1.14v3.34a2.55,2.55,0,0,1,2-.93,2.74,2.74,0,0,1,1.3.29,1.73,1.73,0,0,1,.79.82,3.75,3.75,0,0,1,.24,1.51v4.27H32.26V29.64a1.77,1.77,0,0,0-.37-1.25A1.38,1.38,0,0,0,30.84,28a1.85,1.85,0,0,0-1,.26,1.49,1.49,0,0,0-.64.71,3.28,3.28,0,0,0-.19,1.24v3.69Z"/><path class="cls-2" d="M35.15,25.92V24.6h1.14v1.31Zm0,8V27.17h1.14v6.74Z"/><path class="cls-2" d="M37.58,31.9l1.13-.18a1.58,1.58,0,0,0,.53,1,1.85,1.85,0,0,0,1.22.36,1.79,1.79,0,0,0,1.17-.32A1,1,0,0,0,42,32a.69.69,0,0,0-.34-.61,5,5,0,0,0-1.17-.39,10.65,10.65,0,0,1-1.74-.55,1.66,1.66,0,0,1-1-1.54,1.74,1.74,0,0,1,.21-.84,1.84,1.84,0,0,1,.56-.64,2.36,2.36,0,0,1,.73-.33,3.46,3.46,0,0,1,1-.14,3.9,3.9,0,0,1,1.39.23,1.91,1.91,0,0,1,.89.62,2.42,2.42,0,0,1,.39,1l-1.12.15a1.22,1.22,0,0,0-.44-.81,1.61,1.61,0,0,0-1-.29,1.87,1.87,0,0,0-1.12.26.75.75,0,0,0-.34.61.63.63,0,0,0,.14.4,1,1,0,0,0,.44.3l1,.29a14,14,0,0,1,1.69.53,1.72,1.72,0,0,1,.75.6,1.68,1.68,0,0,1,.27,1A1.92,1.92,0,0,1,42.84,33a2.14,2.14,0,0,1-1,.78,3.47,3.47,0,0,1-1.42.28,3.16,3.16,0,0,1-2-.55A2.53,2.53,0,0,1,37.58,31.9Z"/><path class="cls-2" d="M47,32.89l.17,1a4.19,4.19,0,0,1-.86.1,2,2,0,0,1-1-.2,1.11,1.11,0,0,1-.48-.52,4.11,4.11,0,0,1-.14-1.35V28.05H43.9v-.89h.84V25.5l1.14-.69v2.35H47v.89H45.88V32a2,2,0,0,0,.06.63.47.47,0,0,0,.2.22.76.76,0,0,0,.39.08A3.6,3.6,0,0,0,47,32.89Z"/><path class="cls-2" d="M47.72,30.54a3.47,3.47,0,0,1,1-2.77A3.13,3.13,0,0,1,50.88,27a3,3,0,0,1,2.27.91A3.46,3.46,0,0,1,54,30.44a4.46,4.46,0,0,1-.39,2,2.76,2.76,0,0,1-1.14,1.16,3.31,3.31,0,0,1-1.63.41,3,3,0,0,1-2.29-.91A3.63,3.63,0,0,1,47.72,30.54Zm1.17,0a2.87,2.87,0,0,0,.57,1.94,1.88,1.88,0,0,0,2.84,0,2.94,2.94,0,0,0,.57-2,2.79,2.79,0,0,0-.57-1.9,1.88,1.88,0,0,0-2.83,0A2.85,2.85,0,0,0,48.89,30.54Z"/><path class="cls-2" d="M55.36,33.91V27.17h1v1a2.78,2.78,0,0,1,.73-.95,1.27,1.27,0,0,1,.73-.23,2.22,2.22,0,0,1,1.17.37l-.39,1.06a1.63,1.63,0,0,0-.84-.25,1.09,1.09,0,0,0-.67.22,1.22,1.22,0,0,0-.42.63,4.46,4.46,0,0,0-.19,1.33v3.53Z"/><path class="cls-2" d="M59.71,25.92V24.6h1.14v1.31Zm0,8V27.17h1.14v6.74Z"/><path class="cls-2" d="M67,33.08a4.26,4.26,0,0,1-1.22.76,3.53,3.53,0,0,1-1.26.22,2.45,2.45,0,0,1-1.71-.54,1.79,1.79,0,0,1-.6-1.39,1.84,1.84,0,0,1,.23-.9,1.88,1.88,0,0,1,.59-.66,2.81,2.81,0,0,1,.82-.37,8.06,8.06,0,0,1,1-.17,10.44,10.44,0,0,0,2-.39c0-.16,0-.26,0-.3a1.26,1.26,0,0,0-.32-1,1.91,1.91,0,0,0-1.3-.39,2,2,0,0,0-1.19.28,1.73,1.73,0,0,0-.57,1l-1.12-.15a2.77,2.77,0,0,1,.5-1.16,2.19,2.19,0,0,1,1-.68A4.51,4.51,0,0,1,65.44,27a4.06,4.06,0,0,1,1.4.2,1.85,1.85,0,0,1,.79.51,1.8,1.8,0,0,1,.36.78,6.42,6.42,0,0,1,.06,1.05v1.52a16.19,16.19,0,0,0,.07,2,2.56,2.56,0,0,0,.29.81H67.22A2.44,2.44,0,0,1,67,33.08Zm-.1-2.55A8.37,8.37,0,0,1,65,31a4.27,4.27,0,0,0-1,.23,1,1,0,0,0-.45.37,1,1,0,0,0,.19,1.3,1.49,1.49,0,0,0,1,.3A2.36,2.36,0,0,0,66,32.88a1.78,1.78,0,0,0,.76-.79,2.75,2.75,0,0,0,.18-1.14Z"/><path class="cls-2" d="M69.8,33.91V24.6h1.14v9.31Z"/><path class="cls-2" d="M80.7,33.91v-.85a2.1,2.1,0,0,1-1.88,1,2.64,2.64,0,0,1-1.48-.45,2.92,2.92,0,0,1-1-1.24,4.3,4.3,0,0,1-.37-1.83,4.78,4.78,0,0,1,.34-1.83,2.65,2.65,0,0,1,1-1.26,2.7,2.7,0,0,1,1.5-.44,2.24,2.24,0,0,1,1.08.26,2.27,2.27,0,0,1,.77.67V24.6h1.14v9.31Zm-3.61-3.37a2.93,2.93,0,0,0,.54,1.94,1.65,1.65,0,0,0,1.29.64,1.62,1.62,0,0,0,1.27-.61,2.82,2.82,0,0,0,.52-1.87,3.17,3.17,0,0,0-.53-2A1.64,1.64,0,0,0,78.87,28a1.58,1.58,0,0,0-1.27.62A3.07,3.07,0,0,0,77.08,30.54Z"/><path class="cls-2" d="M88.17,31.74l1.18.15a2.88,2.88,0,0,1-1,1.61A3.5,3.5,0,0,1,84,33.15a3.55,3.55,0,0,1-.87-2.55A3.73,3.73,0,0,1,84,28,3,3,0,0,1,86.32,27a2.88,2.88,0,0,1,2.21.92,3.66,3.66,0,0,1,.86,2.59c0,.07,0,.17,0,.3h-5a2.59,2.59,0,0,0,.63,1.7,1.87,1.87,0,0,0,1.41.59,1.75,1.75,0,0,0,1.07-.33A2.2,2.2,0,0,0,88.17,31.74Zm-3.75-1.85h3.76a2.28,2.28,0,0,0-.43-1.28A1.75,1.75,0,0,0,86.33,28a1.81,1.81,0,0,0-1.32.53A2.08,2.08,0,0,0,84.42,29.89Z"/><path class="cls-2" d="M98.79,31.44l1.12.15A2.91,2.91,0,0,1,99,33.4a2.74,2.74,0,0,1-1.86.66,2.9,2.9,0,0,1-2.23-.9A3.67,3.67,0,0,1,94,30.56a4.7,4.7,0,0,1,.36-1.91,2.53,2.53,0,0,1,1.1-1.23A3.26,3.26,0,0,1,97.12,27a2.79,2.79,0,0,1,1.8.56,2.54,2.54,0,0,1,.89,1.58l-1.11.17a1.84,1.84,0,0,0-.56-1,1.45,1.45,0,0,0-1-.34,1.77,1.77,0,0,0-1.4.62,2.94,2.94,0,0,0-.54,2,3,3,0,0,0,.52,2,1.69,1.69,0,0,0,1.36.62,1.6,1.6,0,0,0,1.12-.41A2,2,0,0,0,98.79,31.44Z"/><path class="cls-2" d="M105.29,33.08a4.26,4.26,0,0,1-1.22.76,3.53,3.53,0,0,1-1.26.22,2.45,2.45,0,0,1-1.71-.54,1.79,1.79,0,0,1-.6-1.39,1.84,1.84,0,0,1,.23-.9,1.88,1.88,0,0,1,.59-.66,2.81,2.81,0,0,1,.82-.37,8.06,8.06,0,0,1,1-.17,10.44,10.44,0,0,0,2-.39c0-.16,0-.26,0-.3a1.26,1.26,0,0,0-.32-1,1.91,1.91,0,0,0-1.3-.39,2,2,0,0,0-1.19.28,1.73,1.73,0,0,0-.57,1l-1.12-.15a2.77,2.77,0,0,1,.5-1.16,2.19,2.19,0,0,1,1-.68,4.51,4.51,0,0,1,1.53-.24,4.06,4.06,0,0,1,1.4.2,1.85,1.85,0,0,1,.79.51,1.8,1.8,0,0,1,.36.78,6.42,6.42,0,0,1,.06,1.05v1.52a16.19,16.19,0,0,0,.07,2,2.56,2.56,0,0,0,.29.81h-1.19A2.44,2.44,0,0,1,105.29,33.08Zm-.1-2.55a8.37,8.37,0,0,1-1.87.43,4.27,4.27,0,0,0-1,.23,1,1,0,0,0-.45.37,1,1,0,0,0,.19,1.3,1.49,1.49,0,0,0,1,.3,2.36,2.36,0,0,0,1.17-.29,1.78,1.78,0,0,0,.76-.79,2.75,2.75,0,0,0,.18-1.14Z"/><path class="cls-2" d="M108.13,33.91V27.17h1v.95a2.4,2.4,0,0,1,.84-.8,2.37,2.37,0,0,1,1.2-.3,2.21,2.21,0,0,1,1.23.31,1.66,1.66,0,0,1,.68.87A2.42,2.42,0,0,1,115.18,27a2,2,0,0,1,1.54.56,2.37,2.37,0,0,1,.54,1.71v4.63h-1.14V29.66a3.12,3.12,0,0,0-.11-1,1,1,0,0,0-.4-.49,1.26,1.26,0,0,0-.69-.18,1.6,1.6,0,0,0-1.18.47,2.08,2.08,0,0,0-.47,1.51v3.92h-1.14V29.53a1.92,1.92,0,0,0-.28-1.14,1.06,1.06,0,0,0-.91-.38,1.66,1.66,0,0,0-.89.25,1.45,1.45,0,0,0-.59.74,4.17,4.17,0,0,0-.18,1.41v3.5Z"/><path class="cls-2" d="M120,33.91h-1.06V24.6h1.14v3.32a2.26,2.26,0,0,1,1.85-.91,2.82,2.82,0,0,1,1.18.25,2.4,2.4,0,0,1,.91.7,3.41,3.41,0,0,1,.56,1.1,4.54,4.54,0,0,1,.2,1.37,3.85,3.85,0,0,1-.86,2.68,2.68,2.68,0,0,1-2.06.95,2.15,2.15,0,0,1-1.87-1Zm0-3.42a3.49,3.49,0,0,0,.33,1.75,1.63,1.63,0,0,0,2.75.23,3,3,0,0,0,.55-1.94,3,3,0,0,0-.52-1.95,1.59,1.59,0,0,0-1.27-.63,1.64,1.64,0,0,0-1.29.65A2.86,2.86,0,0,0,120,30.49Z"/><path class="cls-2" d="M126.19,25.92V24.6h1.14v1.31Zm0,8V27.17h1.14v6.74Z"/><path class="cls-2" d="M128.65,30.54a3.47,3.47,0,0,1,1-2.77,3.13,3.13,0,0,1,2.12-.75,3,3,0,0,1,2.27.91,3.46,3.46,0,0,1,.88,2.52,4.46,4.46,0,0,1-.39,2,2.76,2.76,0,0,1-1.14,1.16,3.31,3.31,0,0,1-1.63.41,3,3,0,0,1-2.29-.91A3.63,3.63,0,0,1,128.65,30.54Zm1.17,0a2.87,2.87,0,0,0,.57,1.94,1.88,1.88,0,0,0,2.84,0,2.94,2.94,0,0,0,.57-2,2.79,2.79,0,0,0-.57-1.9,1.88,1.88,0,0,0-2.83,0A2.85,2.85,0,0,0,129.82,30.54Z"/><path class="cls-2" d="M135.85,31.9l1.13-.18a1.58,1.58,0,0,0,.53,1,1.85,1.85,0,0,0,1.22.36,1.79,1.79,0,0,0,1.17-.32,1,1,0,0,0,.38-.75.69.69,0,0,0-.34-.61,5,5,0,0,0-1.17-.39A10.65,10.65,0,0,1,137,30.5,1.66,1.66,0,0,1,136,29a1.74,1.74,0,0,1,.21-.84,1.84,1.84,0,0,1,.56-.64,2.36,2.36,0,0,1,.73-.33,3.46,3.46,0,0,1,1-.14,3.9,3.9,0,0,1,1.39.23,1.91,1.91,0,0,1,.89.62,2.42,2.42,0,0,1,.39,1l-1.12.15a1.22,1.22,0,0,0-.44-.81,1.61,1.61,0,0,0-1-.29,1.87,1.87,0,0,0-1.12.26.75.75,0,0,0-.34.61.63.63,0,0,0,.14.4,1,1,0,0,0,.44.3l1,.29a14,14,0,0,1,1.69.53,1.72,1.72,0,0,1,.75.6,1.68,1.68,0,0,1,.27,1,1.92,1.92,0,0,1-.33,1.08,2.14,2.14,0,0,1-1,.78,3.47,3.47,0,0,1-1.42.28,3.16,3.16,0,0,1-2-.55A2.53,2.53,0,0,1,135.85,31.9Z"/></g></g></svg>