<svg xmlns="http://www.w3.org/2000/svg" viewBox="0 0 169 44"><defs><style>.cls-1{fill:#424142;stroke:#707070;stroke-miterlimit:10;}.cls-2{fill:#fff;}</style></defs><title>bt12</title><g id="Capa_2" data-name="Capa 2"><g id="CONTENIDO"><rect class="cls-1" x="0.5" y="0.5" width="168" height="43"/><path class="cls-2" d="M48.62,9h1.23v5.38a6.35,6.35,0,0,1-.32,2.23,2.73,2.73,0,0,1-1.15,1.34,4.06,4.06,0,0,1-2.17.52A4.46,4.46,0,0,1,44.07,18a2.57,2.57,0,0,1-1.19-1.3,6.22,6.22,0,0,1-.36-2.33V9h1.23v5.37A5.24,5.24,0,0,0,44,16.16a1.71,1.71,0,0,0,.77.89,2.69,2.69,0,0,0,1.34.31A2.57,2.57,0,0,0,48,16.74a3.55,3.55,0,0,0,.58-2.37Z"/><path class="cls-2" d="M51.3,16.29l1.13-.18a1.58,1.58,0,0,0,.53,1,1.84,1.84,0,0,0,1.22.36,1.79,1.79,0,0,0,1.17-.32,1,1,0,0,0,.38-.75.7.7,0,0,0-.34-.61,5,5,0,0,0-1.17-.39,10.65,10.65,0,0,1-1.74-.55,1.67,1.67,0,0,1-1-1.55,1.74,1.74,0,0,1,.21-.83,1.85,1.85,0,0,1,.56-.64,2.34,2.34,0,0,1,.73-.33,3.43,3.43,0,0,1,1-.14,3.9,3.9,0,0,1,1.39.23,1.9,1.9,0,0,1,.89.62,2.42,2.42,0,0,1,.39,1l-1.12.15a1.22,1.22,0,0,0-.44-.81,1.62,1.62,0,0,0-1-.29,1.87,1.87,0,0,0-1.12.26.76.76,0,0,0-.34.61.63.63,0,0,0,.14.4,1,1,0,0,0,.44.3l1,.29a14,14,0,0,1,1.69.53,1.71,1.71,0,0,1,.75.6,1.67,1.67,0,0,1,.27,1,1.92,1.92,0,0,1-.33,1.08,2.15,2.15,0,0,1-1,.78,3.49,3.49,0,0,1-1.42.28,3.17,3.17,0,0,1-2-.55A2.54,2.54,0,0,1,51.3,16.29Z"/><path class="cls-2" d="M57.83,14.94a3.47,3.47,0,0,1,1-2.77A3.14,3.14,0,0,1,61,11.41a3,3,0,0,1,2.27.91,3.47,3.47,0,0,1,.88,2.52,4.47,4.47,0,0,1-.39,2A2.76,2.76,0,0,1,62.62,18a3.3,3.3,0,0,1-1.63.41,3,3,0,0,1-2.29-.91A3.63,3.63,0,0,1,57.83,14.94Zm1.17,0a2.87,2.87,0,0,0,.57,1.94,1.88,1.88,0,0,0,2.84,0,2.94,2.94,0,0,0,.57-2A2.79,2.79,0,0,0,62.4,13a1.88,1.88,0,0,0-2.83,0A2.86,2.86,0,0,0,59,14.94Z"/><path class="cls-2" d="M73.47,18.31v-.85a2.1,2.1,0,0,1-1.88,1A2.64,2.64,0,0,1,70.1,18a2.93,2.93,0,0,1-1-1.24,4.29,4.29,0,0,1-.37-1.83A4.79,4.79,0,0,1,69,13.11a2.66,2.66,0,0,1,1-1.26,2.71,2.71,0,0,1,1.5-.44,2.25,2.25,0,0,1,1.08.26,2.29,2.29,0,0,1,.77.67V9h1.14v9.31Zm-3.61-3.36a2.93,2.93,0,0,0,.54,1.94,1.65,1.65,0,0,0,1.29.64A1.62,1.62,0,0,0,73,16.91,2.82,2.82,0,0,0,73.49,15,3.17,3.17,0,0,0,73,13a1.64,1.64,0,0,0-1.31-.65,1.58,1.58,0,0,0-1.27.62A3.07,3.07,0,0,0,69.86,14.94Z"/><path class="cls-2" d="M80.94,16.14l1.18.15a2.88,2.88,0,0,1-1,1.61,3.5,3.5,0,0,1-4.27-.34A3.56,3.56,0,0,1,75.95,15a3.72,3.72,0,0,1,.88-2.64,3,3,0,0,1,2.27-.94,2.89,2.89,0,0,1,2.21.92,3.66,3.66,0,0,1,.86,2.59c0,.07,0,.17,0,.3h-5a2.59,2.59,0,0,0,.63,1.7,1.87,1.87,0,0,0,1.41.59,1.75,1.75,0,0,0,1.07-.33A2.19,2.19,0,0,0,80.94,16.14Zm-3.75-1.85H81A2.28,2.28,0,0,0,80.52,13a1.75,1.75,0,0,0-1.42-.66,1.81,1.81,0,0,0-1.32.53A2.08,2.08,0,0,0,77.19,14.29Z"/><path class="cls-2" d="M91.67,14.66V13.57h3.94V17a7,7,0,0,1-1.87,1.09,5.56,5.56,0,0,1-2,.37,5.28,5.28,0,0,1-2.49-.59,3.88,3.88,0,0,1-1.69-1.7A5.35,5.35,0,0,1,87,13.7a5.76,5.76,0,0,1,.57-2.54,3.78,3.78,0,0,1,1.63-1.75,5.12,5.12,0,0,1,2.46-.57,4.87,4.87,0,0,1,1.82.33,3,3,0,0,1,1.28.91,4.06,4.06,0,0,1,.71,1.52l-1.11.3a3.44,3.44,0,0,0-.52-1.12,2.14,2.14,0,0,0-.89-.65,3.26,3.26,0,0,0-1.28-.25,3.77,3.77,0,0,0-1.46.26,2.72,2.72,0,0,0-1,.68,3.25,3.25,0,0,0-.59.92,4.89,4.89,0,0,0-.36,1.87,4.55,4.55,0,0,0,.43,2.08,2.75,2.75,0,0,0,1.25,1.24,3.86,3.86,0,0,0,1.74.41A4.13,4.13,0,0,0,93.25,17a4.07,4.07,0,0,0,1.16-.66V14.66Z"/><path class="cls-2" d="M97.29,10.32V9h1.14v1.31Zm0,8V11.57h1.14v6.74Z"/><path class="cls-2" d="M102.66,17.29l.17,1a4.19,4.19,0,0,1-.86.1,2,2,0,0,1-1-.2,1.1,1.1,0,0,1-.48-.52,4.1,4.1,0,0,1-.14-1.35V12.46h-.84v-.89h.84V9.9l1.14-.69v2.36h1.15v.89h-1.15V16.4a2,2,0,0,0,.06.63.48.48,0,0,0,.2.22.76.76,0,0,0,.39.08A3.63,3.63,0,0,0,102.66,17.29Z"/><path class="cls-2" d="M111.79,15.84l1.12.15A2.91,2.91,0,0,1,112,17.8a2.74,2.74,0,0,1-1.86.66,2.9,2.9,0,0,1-2.23-.9A3.67,3.67,0,0,1,107,15a4.71,4.71,0,0,1,.36-1.91,2.53,2.53,0,0,1,1.1-1.23,3.27,3.27,0,0,1,1.61-.41,2.8,2.8,0,0,1,1.8.56,2.55,2.55,0,0,1,.89,1.58l-1.11.17a1.84,1.84,0,0,0-.56-1,1.45,1.45,0,0,0-1-.34,1.77,1.77,0,0,0-1.4.62,2.94,2.94,0,0,0-.54,2,3,3,0,0,0,.52,2,1.69,1.69,0,0,0,1.36.62,1.6,1.6,0,0,0,1.12-.41A2,2,0,0,0,111.79,15.84Z"/><path class="cls-2" d="M113.46,14.94a3.47,3.47,0,0,1,1-2.77,3.14,3.14,0,0,1,2.12-.75,3,3,0,0,1,2.27.91,3.47,3.47,0,0,1,.88,2.52,4.47,4.47,0,0,1-.39,2A2.76,2.76,0,0,1,118.25,18a3.3,3.3,0,0,1-1.63.41,3,3,0,0,1-2.29-.91A3.63,3.63,0,0,1,113.46,14.94Zm1.17,0a2.87,2.87,0,0,0,.57,1.94,1.88,1.88,0,0,0,2.84,0,2.94,2.94,0,0,0,.57-2A2.79,2.79,0,0,0,118,13a1.88,1.88,0,0,0-2.83,0A2.86,2.86,0,0,0,114.64,14.94Z"/><path class="cls-2" d="M121.12,18.31V11.57h1v1a2.42,2.42,0,0,1,2.15-1.11,2.82,2.82,0,0,1,1.12.22,1.77,1.77,0,0,1,.76.57,2.21,2.21,0,0,1,.36.84,6.58,6.58,0,0,1,.06,1.11v4.15h-1.14v-4.1a3.05,3.05,0,0,0-.13-1,1.09,1.09,0,0,0-.47-.55,1.5,1.5,0,0,0-.8-.21,1.85,1.85,0,0,0-1.26.46,2.29,2.29,0,0,0-.53,1.76v3.68Z"/><path class="cls-2" d="M26.46,33.91V27.17h1v1a2.78,2.78,0,0,1,.73-.95,1.27,1.27,0,0,1,.73-.23,2.22,2.22,0,0,1,1.17.37l-.39,1.06a1.63,1.63,0,0,0-.84-.25,1.09,1.09,0,0,0-.67.22,1.22,1.22,0,0,0-.42.63,4.46,4.46,0,0,0-.19,1.33v3.53Z"/><path class="cls-2" d="M35.42,31.74l1.18.15a2.88,2.88,0,0,1-1,1.61,3.5,3.5,0,0,1-4.27-.34,3.55,3.55,0,0,1-.87-2.55A3.73,3.73,0,0,1,31.3,28,3,3,0,0,1,33.57,27a2.88,2.88,0,0,1,2.21.92,3.66,3.66,0,0,1,.86,2.59c0,.07,0,.17,0,.3h-5a2.59,2.59,0,0,0,.63,1.7,1.87,1.87,0,0,0,1.41.59,1.75,1.75,0,0,0,1.07-.33A2.2,2.2,0,0,0,35.42,31.74Zm-3.75-1.85h3.76A2.28,2.28,0,0,0,35,28.61,1.75,1.75,0,0,0,33.58,28a1.81,1.81,0,0,0-1.32.53A2.08,2.08,0,0,0,31.67,29.89Z"/><path class="cls-2" d="M38,36.49V27.17h1V28a2.56,2.56,0,0,1,.83-.77A2.28,2.28,0,0,1,41,27a2.66,2.66,0,0,1,1.52.45,2.72,2.72,0,0,1,1,1.25,4.57,4.57,0,0,1,.34,1.77,4.5,4.5,0,0,1-.37,1.86,2.82,2.82,0,0,1-2.57,1.71,2.15,2.15,0,0,1-1-.24,2.31,2.31,0,0,1-.75-.61v3.28Zm1-5.92a2.93,2.93,0,0,0,.53,1.92,1.62,1.62,0,0,0,1.28.62,1.65,1.65,0,0,0,1.3-.64,3.06,3.06,0,0,0,.54-2,3,3,0,0,0-.53-1.93,1.6,1.6,0,0,0-1.27-.64,1.65,1.65,0,0,0-1.29.68A3.05,3.05,0,0,0,39.07,30.58Z"/><path class="cls-2" d="M44.84,30.54a3.47,3.47,0,0,1,1-2.77A3.13,3.13,0,0,1,48,27a3,3,0,0,1,2.27.91,3.46,3.46,0,0,1,.88,2.52,4.46,4.46,0,0,1-.39,2,2.76,2.76,0,0,1-1.14,1.16,3.31,3.31,0,0,1-1.63.41,3,3,0,0,1-2.29-.91A3.63,3.63,0,0,1,44.84,30.54Zm1.17,0a2.87,2.87,0,0,0,.57,1.94,1.88,1.88,0,0,0,2.84,0,2.94,2.94,0,0,0,.57-2,2.79,2.79,0,0,0-.57-1.9,1.88,1.88,0,0,0-2.83,0A2.85,2.85,0,0,0,46,30.54Z"/><path class="cls-2" d="M52,31.9l1.13-.18a1.58,1.58,0,0,0,.53,1,1.85,1.85,0,0,0,1.22.36,1.79,1.79,0,0,0,1.17-.32,1,1,0,0,0,.38-.75.69.69,0,0,0-.34-.61A5,5,0,0,0,55,31.05a10.65,10.65,0,0,1-1.74-.55,1.66,1.66,0,0,1-1-1.54,1.74,1.74,0,0,1,.21-.84,1.84,1.84,0,0,1,.56-.64,2.36,2.36,0,0,1,.73-.33,3.46,3.46,0,0,1,1-.14,3.9,3.9,0,0,1,1.39.23,1.91,1.91,0,0,1,.89.62,2.42,2.42,0,0,1,.39,1l-1.12.15a1.22,1.22,0,0,0-.44-.81,1.61,1.61,0,0,0-1-.29,1.87,1.87,0,0,0-1.12.26.75.75,0,0,0-.34.61.63.63,0,0,0,.14.4,1,1,0,0,0,.44.3l1,.29a14,14,0,0,1,1.69.53,1.72,1.72,0,0,1,.75.6,1.68,1.68,0,0,1,.27,1A1.92,1.92,0,0,1,57.3,33a2.14,2.14,0,0,1-1,.78,3.47,3.47,0,0,1-1.42.28,3.16,3.16,0,0,1-2-.55A2.53,2.53,0,0,1,52,31.9Z"/><path class="cls-2" d="M59,25.92V24.6h1.14v1.31Zm0,8V27.17h1.14v6.74Z"/><path class="cls-2" d="M64.38,32.89l.17,1a4.19,4.19,0,0,1-.86.1,2,2,0,0,1-1-.2,1.11,1.11,0,0,1-.48-.52,4.11,4.11,0,0,1-.14-1.35V28.05h-.84v-.89h.84V25.5l1.14-.69v2.35h1.15v.89H63.23V32a2,2,0,0,0,.06.63.47.47,0,0,0,.2.22.76.76,0,0,0,.39.08A3.6,3.6,0,0,0,64.38,32.89Z"/><path class="cls-2" d="M65.07,30.54a3.47,3.47,0,0,1,1-2.77A3.13,3.13,0,0,1,68.23,27a3,3,0,0,1,2.27.91,3.46,3.46,0,0,1,.88,2.52,4.46,4.46,0,0,1-.39,2,2.76,2.76,0,0,1-1.14,1.16,3.31,3.31,0,0,1-1.63.41,3,3,0,0,1-2.29-.91A3.63,3.63,0,0,1,65.07,30.54Zm1.17,0a2.87,2.87,0,0,0,.57,1.94,1.88,1.88,0,0,0,2.84,0,2.94,2.94,0,0,0,.57-2,2.79,2.79,0,0,0-.57-1.9,1.88,1.88,0,0,0-2.83,0A2.85,2.85,0,0,0,66.24,30.54Z"/><path class="cls-2" d="M72.71,33.91V27.17h1v1a2.78,2.78,0,0,1,.73-.95A1.27,1.27,0,0,1,75.2,27a2.22,2.22,0,0,1,1.17.37L76,28.44a1.63,1.63,0,0,0-.84-.25,1.09,1.09,0,0,0-.67.22A1.22,1.22,0,0,0,74,29a4.46,4.46,0,0,0-.19,1.33v3.53Z"/><path class="cls-2" d="M77.06,25.92V24.6H78.2v1.31Zm0,8V27.17H78.2v6.74Z"/><path class="cls-2" d="M79.52,30.54a3.47,3.47,0,0,1,1-2.77A3.13,3.13,0,0,1,82.68,27a3,3,0,0,1,2.27.91,3.46,3.46,0,0,1,.88,2.52,4.46,4.46,0,0,1-.39,2,2.76,2.76,0,0,1-1.14,1.16,3.31,3.31,0,0,1-1.63.41,3,3,0,0,1-2.29-.91A3.63,3.63,0,0,1,79.52,30.54Zm1.17,0a2.87,2.87,0,0,0,.57,1.94,1.88,1.88,0,0,0,2.84,0,2.94,2.94,0,0,0,.57-2,2.79,2.79,0,0,0-.57-1.9,1.88,1.88,0,0,0-2.83,0A2.85,2.85,0,0,0,80.69,30.54Z"/><path class="cls-2" d="M86.71,31.9l1.13-.18a1.58,1.58,0,0,0,.53,1,1.85,1.85,0,0,0,1.22.36,1.79,1.79,0,0,0,1.17-.32,1,1,0,0,0,.38-.75.69.69,0,0,0-.34-.61,5,5,0,0,0-1.17-.39,10.65,10.65,0,0,1-1.74-.55,1.66,1.66,0,0,1-1-1.54,1.74,1.74,0,0,1,.21-.84,1.84,1.84,0,0,1,.56-.64,2.36,2.36,0,0,1,.73-.33,3.46,3.46,0,0,1,1-.14,3.9,3.9,0,0,1,1.39.23,1.91,1.91,0,0,1,.89.62,2.42,2.42,0,0,1,.39,1l-1.12.15a1.22,1.22,0,0,0-.44-.81,1.61,1.61,0,0,0-1-.29,1.87,1.87,0,0,0-1.12.26.75.75,0,0,0-.34.61.63.63,0,0,0,.14.4,1,1,0,0,0,.44.3l1,.29a14,14,0,0,1,1.69.53,1.72,1.72,0,0,1,.75.6,1.68,1.68,0,0,1,.27,1A1.92,1.92,0,0,1,92,33a2.14,2.14,0,0,1-1,.78,3.47,3.47,0,0,1-1.42.28,3.16,3.16,0,0,1-2-.55A2.53,2.53,0,0,1,86.71,31.9Z"/><path class="cls-2" d="M97.27,33.91V27.17h1v1a2.78,2.78,0,0,1,.73-.95,1.27,1.27,0,0,1,.73-.23,2.22,2.22,0,0,1,1.17.37l-.39,1.06a1.63,1.63,0,0,0-.84-.25,1.09,1.09,0,0,0-.67.22,1.22,1.22,0,0,0-.42.63,4.46,4.46,0,0,0-.19,1.33v3.53Z"/><path class="cls-2" d="M106.23,31.74l1.18.15a2.88,2.88,0,0,1-1,1.61,3.5,3.5,0,0,1-4.27-.34,3.55,3.55,0,0,1-.87-2.55,3.73,3.73,0,0,1,.88-2.64,3,3,0,0,1,2.27-.94,2.88,2.88,0,0,1,2.21.92,3.66,3.66,0,0,1,.86,2.59c0,.07,0,.17,0,.3h-5a2.59,2.59,0,0,0,.63,1.7,1.87,1.87,0,0,0,1.41.59,1.75,1.75,0,0,0,1.07-.33A2.2,2.2,0,0,0,106.23,31.74Zm-3.75-1.85h3.76a2.28,2.28,0,0,0-.43-1.28,1.75,1.75,0,0,0-1.42-.66,1.81,1.81,0,0,0-1.32.53A2.08,2.08,0,0,0,102.48,29.89Z"/><path class="cls-2" d="M108.84,33.91V27.17h1v.95a2.4,2.4,0,0,1,.84-.8,2.37,2.37,0,0,1,1.2-.3,2.21,2.21,0,0,1,1.23.31,1.66,1.66,0,0,1,.68.87A2.42,2.42,0,0,1,115.89,27a2,2,0,0,1,1.54.56,2.37,2.37,0,0,1,.54,1.71v4.63h-1.14V29.66a3.12,3.12,0,0,0-.11-1,1,1,0,0,0-.4-.49,1.26,1.26,0,0,0-.69-.18,1.6,1.6,0,0,0-1.18.47A2.08,2.08,0,0,0,114,30v3.92h-1.14V29.53a1.92,1.92,0,0,0-.28-1.14,1.06,1.06,0,0,0-.91-.38,1.66,1.66,0,0,0-.89.25,1.45,1.45,0,0,0-.59.74,4.17,4.17,0,0,0-.18,1.41v3.5Z"/><path class="cls-2" d="M119.25,30.54a3.47,3.47,0,0,1,1-2.77,3.13,3.13,0,0,1,2.12-.75,3,3,0,0,1,2.27.91,3.46,3.46,0,0,1,.88,2.52,4.46,4.46,0,0,1-.39,2A2.76,2.76,0,0,1,124,33.65a3.31,3.31,0,0,1-1.63.41,3,3,0,0,1-2.29-.91A3.63,3.63,0,0,1,119.25,30.54Zm1.17,0a2.87,2.87,0,0,0,.57,1.94,1.88,1.88,0,0,0,2.84,0,2.94,2.94,0,0,0,.57-2,2.79,2.79,0,0,0-.57-1.9,1.88,1.88,0,0,0-2.83,0A2.85,2.85,0,0,0,120.42,30.54Z"/><path class="cls-2" d="M129.39,32.89l.17,1a4.19,4.19,0,0,1-.86.1,2,2,0,0,1-1-.2,1.11,1.11,0,0,1-.48-.52,4.11,4.11,0,0,1-.14-1.35V28.05h-.84v-.89h.84V25.5l1.14-.69v2.35h1.15v.89h-1.15V32a2,2,0,0,0,.06.63.47.47,0,0,0,.2.22.76.76,0,0,0,.39.08A3.6,3.6,0,0,0,129.39,32.89Z"/><path class="cls-2" d="M130.09,30.54a3.47,3.47,0,0,1,1-2.77,3.13,3.13,0,0,1,2.12-.75,3,3,0,0,1,2.27.91,3.46,3.46,0,0,1,.88,2.52,4.46,4.46,0,0,1-.39,2,2.76,2.76,0,0,1-1.14,1.16,3.31,3.31,0,0,1-1.63.41,3,3,0,0,1-2.29-.91A3.63,3.63,0,0,1,130.09,30.54Zm1.17,0a2.87,2.87,0,0,0,.57,1.94,1.88,1.88,0,0,0,2.84,0,2.94,2.94,0,0,0,.57-2,2.79,2.79,0,0,0-.57-1.9,1.88,1.88,0,0,0-2.83,0A2.85,2.85,0,0,0,131.26,30.54Z"/><path class="cls-2" d="M137.29,31.9l1.13-.18a1.58,1.58,0,0,0,.53,1,1.85,1.85,0,0,0,1.22.36,1.79,1.79,0,0,0,1.17-.32,1,1,0,0,0,.38-.75.69.69,0,0,0-.34-.61,5,5,0,0,0-1.17-.39,10.65,10.65,0,0,1-1.74-.55,1.66,1.66,0,0,1-1-1.54,1.74,1.74,0,0,1,.21-.84,1.84,1.84,0,0,1,.56-.64,2.36,2.36,0,0,1,.73-.33,3.46,3.46,0,0,1,1-.14,3.9,3.9,0,0,1,1.39.23,1.91,1.91,0,0,1,.89.62,2.42,2.42,0,0,1,.39,1l-1.12.15a1.22,1.22,0,0,0-.44-.81,1.61,1.61,0,0,0-1-.29,1.87,1.87,0,0,0-1.12.26.75.75,0,0,0-.34.61.63.63,0,0,0,.14.4,1,1,0,0,0,.44.3l1,.29a14,14,0,0,1,1.69.53,1.72,1.72,0,0,1,.75.6,1.68,1.68,0,0,1,.27,1,1.92,1.92,0,0,1-.33,1.08,2.14,2.14,0,0,1-1,.78,3.47,3.47,0,0,1-1.42.28,3.16,3.16,0,0,1-2-.55A2.53,2.53,0,0,1,137.29,31.9Z"/></g></g></svg>