<svg xmlns="http://www.w3.org/2000/svg" viewBox="0 0 232 44"><defs><style>.cls-1{fill:#f05032;}.cls-2{fill:#707070;}.cls-3{fill:#424142;}.cls-4{fill:#fff;}</style></defs><title>bt1_hover</title><g id="Capa_2" data-name="Capa 2"><g id="TEXTO_MENU" data-name="TEXTO MENU"><rect id="_Rectángulo_" data-name="&lt;Rectángulo&gt;" class="cls-1" width="232" height="44"/><rect class="cls-2" y="43.25" width="232" height="0.75"/><path class="cls-3" d="M50.39,28.26V17.53h1.42V28.26Z"/><path class="cls-3" d="M54.14,28.26V20.49h1.19v1.11a2.8,2.8,0,0,1,2.48-1.28,3.24,3.24,0,0,1,1.29.25,2,2,0,0,1,.88.66,2.54,2.54,0,0,1,.41,1,7.56,7.56,0,0,1,.07,1.28v4.78H59.15V23.53A3.56,3.56,0,0,0,59,22.33a1.27,1.27,0,0,0-.55-.64,1.74,1.74,0,0,0-.92-.24,2.13,2.13,0,0,0-1.45.54,2.63,2.63,0,0,0-.61,2v4.25Z"/><path class="cls-3" d="M65.37,27.09l.19,1.16a4.89,4.89,0,0,1-1,.12,2.26,2.26,0,0,1-1.11-.23,1.27,1.27,0,0,1-.56-.6A4.71,4.71,0,0,1,62.73,26V21.51h-1v-1h1V18.56L64,17.77v2.72h1.33v1H64v4.55a2.28,2.28,0,0,0,.07.72.55.55,0,0,0,.23.26.88.88,0,0,0,.45.09A4.27,4.27,0,0,0,65.37,27.09Z"/><path class="cls-3" d="M66.64,28.26V20.49h1.19v1.18a3.23,3.23,0,0,1,.84-1.09,1.47,1.47,0,0,1,.85-.26,2.57,2.57,0,0,1,1.35.42L70.41,22a1.89,1.89,0,0,0-1-.29,1.26,1.26,0,0,0-.78.26,1.41,1.41,0,0,0-.49.72A5.14,5.14,0,0,0,68,24.19v4.07Z"/><path class="cls-3" d="M71.16,24.38a4,4,0,0,1,1.2-3.2,3.62,3.62,0,0,1,2.45-.86,3.49,3.49,0,0,1,2.62,1.05,4,4,0,0,1,1,2.9A5.14,5.14,0,0,1,78,26.63,3.19,3.19,0,0,1,76.69,28a3.82,3.82,0,0,1-1.88.48,3.5,3.5,0,0,1-2.64-1A4.18,4.18,0,0,1,71.16,24.38Zm1.35,0a3.31,3.31,0,0,0,.65,2.24,2.17,2.17,0,0,0,3.27,0,3.39,3.39,0,0,0,.65-2.28,3.22,3.22,0,0,0-.66-2.19,2.17,2.17,0,0,0-3.27,0A3.3,3.3,0,0,0,72.51,24.38Z"/><path class="cls-3" d="M85,28.26v-1a2.42,2.42,0,0,1-2.18,1.16,3.05,3.05,0,0,1-1.71-.51,3.37,3.37,0,0,1-1.21-1.43,4.94,4.94,0,0,1-.43-2.11,5.53,5.53,0,0,1,.39-2.11,3.06,3.06,0,0,1,1.16-1.45,3.11,3.11,0,0,1,1.74-.51A2.6,2.6,0,0,1,85,21.38V17.53h1.31V28.26Zm-4.17-3.88a3.38,3.38,0,0,0,.63,2.23,1.9,1.9,0,0,0,1.49.74,1.86,1.86,0,0,0,1.47-.71,3.26,3.26,0,0,0,.6-2.16,3.66,3.66,0,0,0-.62-2.34,1.89,1.89,0,0,0-1.52-.75,1.83,1.83,0,0,0-1.47.72A3.54,3.54,0,0,0,80.87,24.38Z"/><path class="cls-3" d="M93.43,28.26V27.12A2.85,2.85,0,0,1,91,28.44a3.14,3.14,0,0,1-1.29-.26,2.11,2.11,0,0,1-.89-.66,2.48,2.48,0,0,1-.41-1,6.69,6.69,0,0,1-.08-1.23V20.49h1.32V24.8a7.69,7.69,0,0,0,.08,1.39,1.38,1.38,0,0,0,.53.82,1.64,1.64,0,0,0,1,.3,2.17,2.17,0,0,0,1.11-.3,1.69,1.69,0,0,0,.74-.83,4.16,4.16,0,0,0,.22-1.52V20.49h1.32v7.78Z"/><path class="cls-3" d="M101.75,25.42l1.3.17a3.37,3.37,0,0,1-1.09,2.1,3.17,3.17,0,0,1-2.15.76,3.34,3.34,0,0,1-2.57-1,4.23,4.23,0,0,1-1-3,5.42,5.42,0,0,1,.42-2.21A2.91,2.91,0,0,1,98,20.78a3.76,3.76,0,0,1,1.86-.47,3.23,3.23,0,0,1,2.07.64,2.94,2.94,0,0,1,1,1.82l-1.28.2a2.13,2.13,0,0,0-.65-1.18,1.68,1.68,0,0,0-1.12-.4,2,2,0,0,0-1.62.71,3.39,3.39,0,0,0-.62,2.26,3.51,3.51,0,0,0,.6,2.28,2,2,0,0,0,1.57.71,1.85,1.85,0,0,0,1.3-.48A2.36,2.36,0,0,0,101.75,25.42Z"/><path class="cls-3" d="M109.25,25.42l1.3.17a3.37,3.37,0,0,1-1.09,2.1,3.17,3.17,0,0,1-2.15.76,3.34,3.34,0,0,1-2.57-1,4.23,4.23,0,0,1-1-3,5.42,5.42,0,0,1,.42-2.21,2.91,2.91,0,0,1,1.27-1.42,3.76,3.76,0,0,1,1.86-.47,3.23,3.23,0,0,1,2.07.64,2.94,2.94,0,0,1,1,1.82l-1.28.2a2.13,2.13,0,0,0-.65-1.18,1.68,1.68,0,0,0-1.12-.4,2,2,0,0,0-1.62.71,3.39,3.39,0,0,0-.62,2.26,3.51,3.51,0,0,0,.6,2.28,2,2,0,0,0,1.57.71,1.85,1.85,0,0,0,1.3-.48A2.36,2.36,0,0,0,109.25,25.42Z"/><path class="cls-3" d="M111.68,19V17.53H113V19Zm0,9.22V20.49H113v7.78Z"/><path class="cls-3" d="M114.52,24.38a4,4,0,0,1,1.2-3.2,3.62,3.62,0,0,1,2.45-.86,3.49,3.49,0,0,1,2.62,1.05,4,4,0,0,1,1,2.9,5.14,5.14,0,0,1-.45,2.36A3.19,3.19,0,0,1,120,28a3.82,3.82,0,0,1-1.88.48,3.5,3.5,0,0,1-2.64-1A4.18,4.18,0,0,1,114.52,24.38Zm1.35,0a3.31,3.31,0,0,0,.65,2.24,2.17,2.17,0,0,0,3.27,0,3.39,3.39,0,0,0,.65-2.28,3.22,3.22,0,0,0-.66-2.19,2.17,2.17,0,0,0-3.27,0A3.3,3.3,0,0,0,115.87,24.38Zm1.56-4.86,1-2.05h1.73l-1.61,2.05Z"/><path class="cls-3" d="M123.35,28.26V20.49h1.19v1.11A2.8,2.8,0,0,1,127,20.31a3.24,3.24,0,0,1,1.29.25,2,2,0,0,1,.88.66,2.54,2.54,0,0,1,.41,1,7.56,7.56,0,0,1,.07,1.28v4.78h-1.32V23.53a3.56,3.56,0,0,0-.15-1.21,1.27,1.27,0,0,0-.55-.64,1.74,1.74,0,0,0-.92-.24,2.13,2.13,0,0,0-1.45.54,2.63,2.63,0,0,0-.61,2v4.25Z"/><g id="_Grupo_" data-name="&lt;Grupo&gt;"><path id="_Trazado_" data-name="&lt;Trazado&gt;" class="cls-3" d="M35.37,13.1A12.58,12.58,0,1,0,33.83,32.2l4.1,1.26-1.26-4.1A12.55,12.55,0,0,0,35.37,13.1Z"/><path id="_Trazado_compuesto_" data-name="&lt;Trazado compuesto&gt;" class="cls-4" d="M35.65,12.82a13,13,0,0,0-18.4,0A13,13,0,0,0,13.47,22a12.82,12.82,0,0,0,3.82,9.18A13,13,0,0,0,26.47,35a12.81,12.81,0,0,0,7.43-2.36l4.63,1.42-1.42-4.63A12.9,12.9,0,0,0,35.65,12.82Zm1.67,20-3.58-1.1-.16.12A12.17,12.17,0,1,1,26.47,9.82a12.18,12.18,0,0,1,9.87,19.3l-.12.16Z"/><path id="_Trazado_compuesto_2" data-name="&lt;Trazado compuesto&gt;" class="cls-4" d="M26.47,32.85h0a5.7,5.7,0,0,1-.85,0L25.7,32c.24,0,.53,0,.77,0Zm.85,0L27.25,32a5.4,5.4,0,0,0,.77-.08l.12.81A5.36,5.36,0,0,1,27.33,32.81Zm-2.56-.08a6.65,6.65,0,0,1-.85-.16l.2-.77c.24,0,.53.12.77.16ZM29,32.56l-.16-.81a6,6,0,0,0,.77-.2l.24.77Zm-5.89-.24c-.29-.08-.53-.2-.81-.28l.32-.73c.24.08.49.2.73.28ZM30.62,32l-.32-.73A6,6,0,0,0,31,31l.37.73C31.15,31.79,30.9,31.91,30.62,32Zm-9.1-.37c-.24-.12-.49-.28-.73-.41l.41-.69a3.53,3.53,0,0,0,.69.37Zm10.6-.41-.41-.69a6.54,6.54,0,0,0,.65-.45l.49.65Zm-12-.49a4.31,4.31,0,0,1-.65-.53l.53-.61.61.49Zm13.4-.53L33,29.64a7,7,0,0,0,.57-.53l.61.57,0,0A3.83,3.83,0,0,1,33.5,30.25Zm-14.7-.57h0c-.24-.24-.41-.45-.61-.65l.61-.53a7.06,7.06,0,0,0,.53.57Zm16-.65-.65-.53.49-.61.65.49C35.08,28.58,34.92,28.82,34.76,29ZM17.7,28.38c-.16-.24-.33-.49-.49-.69l.69-.41a6.62,6.62,0,0,0,.45.65Zm18-.73L35,27.24a5.22,5.22,0,0,0,.37-.69l.73.37A5.46,5.46,0,0,1,35.73,27.65ZM16.8,27c-.12-.24-.24-.53-.37-.77l.73-.32a5.34,5.34,0,0,0,.33.73Zm19.7-.82-.77-.32c.08-.24.2-.49.29-.73l.77.24A6.22,6.22,0,0,1,36.51,26.14Zm-20.35-.77c-.08-.28-.16-.53-.24-.81l.77-.2a6.15,6.15,0,0,0,.2.77ZM37,24.52l-.81-.2c0-.24.12-.53.16-.77l.81.12C37.16,23.95,37.08,24.23,37,24.52Zm-21.29-.81a5.87,5.87,0,0,1-.08-.85l.81-.08c0,.24,0,.53.08.77Zm21.54-.9-.81-.08c0-.24,0-.53,0-.77l.81,0V22A6.23,6.23,0,0,1,37.28,22.81ZM15.58,22h0a5.68,5.68,0,0,1,0-.85l.81.08c0,.24,0,.53,0,.77Zm20.88-.81c0-.24,0-.53-.08-.77l.81-.12a5.88,5.88,0,0,1,.08.85Zm-19.95-.73-.81-.12a6.89,6.89,0,0,1,.16-.85l.77.2A5.7,5.7,0,0,1,16.52,20.46Zm19.7-.82c-.08-.24-.12-.53-.2-.77l.77-.24c.08.28.16.53.24.81Zm-19.34-.73-.77-.24c.08-.28.2-.53.28-.81l.73.32A4.7,4.7,0,0,1,16.88,18.91Zm18.85-.77a5.94,5.94,0,0,0-.32-.73l.73-.37c.12.24.24.53.37.77ZM17.5,17.45l-.73-.37c.12-.24.29-.49.41-.73l.69.41A7.08,7.08,0,0,0,17.5,17.45ZM35,16.72a6.54,6.54,0,0,0-.45-.65l.65-.49c.16.24.32.45.49.69Zm-16.7-.61-.65-.49a4.3,4.3,0,0,1,.53-.65l.61.53C18.63,15.66,18.47,15.91,18.31,16.11Zm15.8-.65a6.44,6.44,0,0,0-.53-.57l.28-.28.28-.28h0a8.14,8.14,0,0,1,.57.61Zm-14.75-.56-.29-.28-.28-.28a8.25,8.25,0,0,1,.61-.57l.53.61A7.39,7.39,0,0,0,19.37,14.89ZM33,14.36l-.61-.49.49-.65a4.11,4.11,0,0,1,.65.53Zm-12.43-.48-.49-.65c.24-.16.45-.33.69-.49l.41.69C21,13.59,20.75,13.71,20.54,13.88Zm11.17-.45a3.58,3.58,0,0,0-.69-.37l.37-.73c.24.12.49.28.73.41Zm-9.83-.37-.37-.73.77-.37.32.73Zm8.41-.37c-.24-.08-.49-.2-.73-.28l.24-.77c.28.08.53.2.81.28Zm-6.95-.24-.24-.77.81-.24.2.81A4.38,4.38,0,0,0,23.35,12.45Zm5.44-.25c-.24,0-.53-.12-.77-.16l.12-.81a6.62,6.62,0,0,1,.85.16Zm-3.9-.12-.12-.81a5.81,5.81,0,0,1,.85-.08l.08.81A4.78,4.78,0,0,0,24.89,12.09ZM27.25,12c-.24,0-.53,0-.77,0v-.81h0a5.78,5.78,0,0,1,.85,0Z"/><path id="_Trazado_2" data-name="&lt;Trazado&gt;" class="cls-1" d="M32.32,27.89a8.3,8.3,0,1,1,0-11.74A8.29,8.29,0,0,1,32.32,27.89Z"/><g id="_Grupo_2" data-name="&lt;Grupo&gt;"><rect id="_Trazado_3" data-name="&lt;Trazado&gt;" class="cls-3" x="25.13" y="20.05" width="2.64" height="7.56"/><path id="_Trazado_4" data-name="&lt;Trazado&gt;" class="cls-3" d="M26.47,18.79h0a1.35,1.35,0,0,1-1.34-1.34h0a1.35,1.35,0,0,1,1.34-1.34h0a1.35,1.35,0,0,1,1.34,1.34h0A1.39,1.39,0,0,1,26.47,18.79Z"/></g><g id="_Grupo_3" data-name="&lt;Grupo&gt;"><path id="_Trazado_compuesto_3" data-name="&lt;Trazado compuesto&gt;" class="cls-4" d="M26.47,19.2a1.75,1.75,0,1,1,1.75-1.75A1.78,1.78,0,0,1,26.47,19.2Zm0-2.64a.93.93,0,1,0,.93.93A1,1,0,0,0,26.47,16.56Z"/><path id="_Trazado_compuesto_4" data-name="&lt;Trazado compuesto&gt;" class="cls-4" d="M28.18,27.2V19.64H24v.81h.77V28H29.4V27.2Zm-.82,0H25.54V20.46h1.83Z"/></g></g><polygon id="_Trazado_5" data-name="&lt;Trazado&gt;" class="cls-4" points="223.5 26.5 215.71 22 223.5 17.5 223.5 26.5"/></g></g></svg>