<svg xmlns="http://www.w3.org/2000/svg" viewBox="0 0 232 44"><defs><style>.cls-1{fill:#f05032;}.cls-2{fill:#707070;}.cls-3{fill:#353535;}.cls-4{fill:#424142;}.cls-5,.cls-6{fill:#fff;}.cls-6{stroke:#f05032;stroke-miterlimit:10;stroke-width:0.75px;}</style></defs><title>bt2_hover</title><g id="Capa_2" data-name="Capa 2"><g id="TEXTO_MENU" data-name="TEXTO MENU"><rect id="_Rectángulo_" data-name="&lt;Rectángulo&gt;" class="cls-1" width="232" height="44"/><rect class="cls-2" y="43.25" width="232" height="0.75"/><rect class="cls-3" width="232" height="0.75"/><path class="cls-4" d="M55.17,24.05V22.79h4.55v4A8,8,0,0,1,57.56,28a6.4,6.4,0,0,1-2.29.42,6.09,6.09,0,0,1-2.87-.68,4.47,4.47,0,0,1-2-2,6.17,6.17,0,0,1-.66-2.86A6.64,6.64,0,0,1,50.44,20a4.36,4.36,0,0,1,1.89-2,5.91,5.91,0,0,1,2.83-.66,5.63,5.63,0,0,1,2.11.38,3.5,3.5,0,0,1,1.48,1.05,4.66,4.66,0,0,1,.81,1.76l-1.28.35a4,4,0,0,0-.6-1.29,2.47,2.47,0,0,0-1-.75,3.77,3.77,0,0,0-1.48-.28,4.37,4.37,0,0,0-1.68.3,3.15,3.15,0,0,0-1.15.78,3.72,3.72,0,0,0-.68,1.06,5.62,5.62,0,0,0-.41,2.16,5.24,5.24,0,0,0,.49,2.4,3.16,3.16,0,0,0,1.44,1.44,4.46,4.46,0,0,0,2,.47,4.76,4.76,0,0,0,1.8-.36,4.64,4.64,0,0,0,1.33-.76v-2Z"/><path class="cls-4" d="M67,25.76l1.36.17a3.32,3.32,0,0,1-1.19,1.85,4,4,0,0,1-4.93-.39,4.11,4.11,0,0,1-1-2.95,4.3,4.3,0,0,1,1-3,3.42,3.42,0,0,1,2.62-1.08,3.33,3.33,0,0,1,2.55,1.06,4.22,4.22,0,0,1,1,3q0,.12,0,.35h-5.8a3,3,0,0,0,.73,2,2.16,2.16,0,0,0,1.63.68A2,2,0,0,0,66.16,27,2.53,2.53,0,0,0,67,25.76Zm-4.33-2.13H67a2.64,2.64,0,0,0-.5-1.47,2,2,0,0,0-1.63-.76,2.09,2.09,0,0,0-1.53.61A2.4,2.4,0,0,0,62.64,23.63Z"/><path class="cls-4" d="M70,28.26V20.49h1.19v1.11a2.8,2.8,0,0,1,2.48-1.28,3.24,3.24,0,0,1,1.29.25,2,2,0,0,1,.88.66,2.54,2.54,0,0,1,.41,1,7.56,7.56,0,0,1,.07,1.28v4.78H75V23.53a3.56,3.56,0,0,0-.15-1.21,1.27,1.27,0,0,0-.55-.64,1.74,1.74,0,0,0-.92-.24,2.13,2.13,0,0,0-1.45.54,2.63,2.63,0,0,0-.61,2v4.25Z"/><path class="cls-4" d="M83.65,25.76l1.36.17a3.32,3.32,0,0,1-1.19,1.85,4,4,0,0,1-4.93-.39,4.11,4.11,0,0,1-1-2.95,4.3,4.3,0,0,1,1-3,3.42,3.42,0,0,1,2.62-1.08,3.33,3.33,0,0,1,2.55,1.06,4.22,4.22,0,0,1,1,3q0,.12,0,.35h-5.8a3,3,0,0,0,.73,2,2.16,2.16,0,0,0,1.63.68A2,2,0,0,0,82.84,27,2.53,2.53,0,0,0,83.65,25.76Zm-4.33-2.13h4.34a2.64,2.64,0,0,0-.5-1.47,2,2,0,0,0-1.63-.76A2.09,2.09,0,0,0,80,22,2.4,2.4,0,0,0,79.33,23.63Z"/><path class="cls-4" d="M86.66,28.26V20.49h1.19v1.18a3.23,3.23,0,0,1,.84-1.09,1.47,1.47,0,0,1,.85-.26,2.57,2.57,0,0,1,1.35.42L90.43,22a1.89,1.89,0,0,0-1-.29,1.26,1.26,0,0,0-.78.26,1.41,1.41,0,0,0-.49.72A5.14,5.14,0,0,0,88,24.19v4.07Z"/><path class="cls-4" d="M96.74,27.31a4.91,4.91,0,0,1-1.41.88,4.07,4.07,0,0,1-1.45.26,2.83,2.83,0,0,1-2-.63,2.07,2.07,0,0,1-.69-1.6,2.13,2.13,0,0,1,.26-1,2.15,2.15,0,0,1,.68-.76,3.19,3.19,0,0,1,.95-.43,9.4,9.4,0,0,1,1.17-.2,12.05,12.05,0,0,0,2.35-.45c0-.18,0-.29,0-.34a1.46,1.46,0,0,0-.37-1.14,2.21,2.21,0,0,0-1.5-.45,2.33,2.33,0,0,0-1.37.33,2,2,0,0,0-.66,1.15l-1.29-.18A3.2,3.2,0,0,1,92,21.37a2.54,2.54,0,0,1,1.16-.78A5.21,5.21,0,0,1,95,20.31a4.67,4.67,0,0,1,1.62.23,2.14,2.14,0,0,1,.92.59,2.08,2.08,0,0,1,.41.9A7.42,7.42,0,0,1,98,23.25V25A18.53,18.53,0,0,0,98,27.33a2.92,2.92,0,0,0,.33.93H97A2.79,2.79,0,0,1,96.74,27.31Zm-.11-2.94a9.67,9.67,0,0,1-2.15.5,5,5,0,0,0-1.15.26,1.15,1.15,0,0,0-.52.43A1.17,1.17,0,0,0,93,27.06a1.72,1.72,0,0,0,1.17.35,2.71,2.71,0,0,0,1.35-.33,2,2,0,0,0,.87-.91,3.18,3.18,0,0,0,.21-1.32Z"/><path class="cls-4" d="M100,28.26V17.53h1.32V28.26Z"/><path class="cls-4" d="M103.35,19V17.53h1.32V19Zm0,9.22V20.49h1.32v7.78Z"/><path class="cls-4" d="M111.72,28.26v-1a2.42,2.42,0,0,1-2.18,1.16,3.05,3.05,0,0,1-1.71-.51,3.37,3.37,0,0,1-1.21-1.43,4.94,4.94,0,0,1-.43-2.11,5.53,5.53,0,0,1,.39-2.11,3.06,3.06,0,0,1,1.16-1.45,3.11,3.11,0,0,1,1.74-.51,2.6,2.6,0,0,1,2.15,1.07V17.53h1.31V28.26Zm-4.17-3.88a3.38,3.38,0,0,0,.63,2.23,1.9,1.9,0,0,0,1.49.74,1.86,1.86,0,0,0,1.47-.71,3.26,3.26,0,0,0,.6-2.16,3.66,3.66,0,0,0-.62-2.34,1.89,1.89,0,0,0-1.52-.75,1.83,1.83,0,0,0-1.47.72A3.54,3.54,0,0,0,107.55,24.38Z"/><path class="cls-4" d="M120.09,27.31a4.91,4.91,0,0,1-1.41.88,4.07,4.07,0,0,1-1.45.26,2.83,2.83,0,0,1-2-.63,2.07,2.07,0,0,1-.69-1.6,2.13,2.13,0,0,1,.26-1,2.15,2.15,0,0,1,.68-.76,3.19,3.19,0,0,1,.95-.43,9.4,9.4,0,0,1,1.17-.2,12.05,12.05,0,0,0,2.35-.45c0-.18,0-.29,0-.34a1.46,1.46,0,0,0-.37-1.14,2.21,2.21,0,0,0-1.5-.45,2.33,2.33,0,0,0-1.37.33,2,2,0,0,0-.66,1.15l-1.29-.18a3.2,3.2,0,0,1,.58-1.34,2.54,2.54,0,0,1,1.16-.78,5.21,5.21,0,0,1,1.77-.27,4.67,4.67,0,0,1,1.62.23,2.14,2.14,0,0,1,.92.59,2.08,2.08,0,0,1,.41.9,7.42,7.42,0,0,1,.07,1.22V25a18.53,18.53,0,0,0,.08,2.33,2.92,2.92,0,0,0,.33.93h-1.38A2.79,2.79,0,0,1,120.09,27.31ZM120,24.36a9.67,9.67,0,0,1-2.15.5,5,5,0,0,0-1.15.26,1.15,1.15,0,0,0-.52.43,1.17,1.17,0,0,0,.22,1.51,1.72,1.72,0,0,0,1.17.35,2.71,2.71,0,0,0,1.35-.33,2,2,0,0,0,.87-.91,3.18,3.18,0,0,0,.21-1.32Z"/><path class="cls-4" d="M128.4,28.26v-1a2.42,2.42,0,0,1-2.18,1.16,3.05,3.05,0,0,1-1.71-.51,3.37,3.37,0,0,1-1.21-1.43,4.94,4.94,0,0,1-.43-2.11,5.53,5.53,0,0,1,.39-2.11,3.06,3.06,0,0,1,1.16-1.45,3.11,3.11,0,0,1,1.74-.51,2.6,2.6,0,0,1,2.15,1.07V17.53h1.31V28.26Zm-4.17-3.88a3.38,3.38,0,0,0,.63,2.23,1.9,1.9,0,0,0,1.49.74,1.86,1.86,0,0,0,1.47-.71,3.26,3.26,0,0,0,.6-2.16,3.66,3.66,0,0,0-.62-2.34,1.89,1.89,0,0,0-1.52-.75,1.83,1.83,0,0,0-1.47.72A3.54,3.54,0,0,0,124.24,24.38Z"/><path class="cls-4" d="M137,25.76l1.36.17a3.32,3.32,0,0,1-1.19,1.85,4,4,0,0,1-4.93-.39,4.11,4.11,0,0,1-1-2.95,4.3,4.3,0,0,1,1-3,3.42,3.42,0,0,1,2.62-1.08,3.33,3.33,0,0,1,2.55,1.06,4.22,4.22,0,0,1,1,3q0,.12,0,.35h-5.8a3,3,0,0,0,.73,2,2.16,2.16,0,0,0,1.63.68,2,2,0,0,0,1.24-.38A2.53,2.53,0,0,0,137,25.76Zm-4.33-2.13H137a2.64,2.64,0,0,0-.5-1.47,2,2,0,0,0-1.63-.76,2.09,2.09,0,0,0-1.53.61A2.4,2.4,0,0,0,132.7,23.63Z"/><path class="cls-4" d="M139.52,25.94l1.3-.21a1.82,1.82,0,0,0,.61,1.2,2.13,2.13,0,0,0,1.4.42,2.06,2.06,0,0,0,1.35-.37,1.1,1.1,0,0,0,.44-.87.8.8,0,0,0-.39-.7,5.71,5.71,0,0,0-1.35-.45,12.22,12.22,0,0,1-2-.63,1.92,1.92,0,0,1-1.14-1.78,2,2,0,0,1,.24-1,2.14,2.14,0,0,1,.65-.74,2.72,2.72,0,0,1,.84-.38,4,4,0,0,1,1.14-.16,4.5,4.5,0,0,1,1.61.26,2.19,2.19,0,0,1,1,.71,2.79,2.79,0,0,1,.45,1.21l-1.29.18a1.41,1.41,0,0,0-.51-.94,1.86,1.86,0,0,0-1.19-.34,2.15,2.15,0,0,0-1.3.3.87.87,0,0,0-.39.7.73.73,0,0,0,.16.46,1.16,1.16,0,0,0,.51.35q.2.07,1.16.34a16.31,16.31,0,0,1,2,.61,2,2,0,0,1,.87.69A1.93,1.93,0,0,1,146,26a2.22,2.22,0,0,1-.38,1.24,2.49,2.49,0,0,1-1.11.9,4,4,0,0,1-1.64.32,3.66,3.66,0,0,1-2.31-.63A2.93,2.93,0,0,1,139.52,25.94Z"/><polygon id="_Trazado_" data-name="&lt;Trazado&gt;" class="cls-5" points="223.5 26.5 215.71 22 223.5 17.5 223.5 26.5"/><path class="cls-6" d="M38.82,20.86,27.62,9.65a1.65,1.65,0,0,0-2.34,0L23,12l3,3a2,2,0,0,1,2.49,2.5l2.84,2.84a2,2,0,1,1-1.18,1.11l-2.65-2.65v7a2,2,0,1,1-1.62-.06v-7a1.94,1.94,0,0,1-.64-.43A2,2,0,0,1,24.72,16l-2.91-2.91-7.68,7.68a1.65,1.65,0,0,0,0,2.34l11.21,11.2a1.65,1.65,0,0,0,2.34,0L38.82,23.2A1.65,1.65,0,0,0,38.82,20.86Z"/></g></g></svg>