<svg xmlns="http://www.w3.org/2000/svg" viewBox="0 0 232 44"><defs><style>.cls-1{fill:#707070;}.cls-2{fill:#353535;}.cls-3{fill:#fff;}.cls-4{fill:#424142;}.cls-5{fill:#f05032;}</style></defs><title>bt3</title><g id="Capa_2" data-name="Capa 2"><g id="TEXTO_MENU" data-name="TEXTO MENU"><rect class="cls-1" y="43.25" width="232" height="0.75"/><rect class="cls-2" width="232" height="0.75"/><path class="cls-3" d="M57.81,24.5l1.42.36a4.78,4.78,0,0,1-1.61,2.67,4.43,4.43,0,0,1-2.84.92A5.1,5.1,0,0,1,52,27.74a4.41,4.41,0,0,1-1.66-2,7.31,7.31,0,0,1-.57-2.88,6.33,6.33,0,0,1,.64-2.93A4.4,4.4,0,0,1,52.2,18a5.33,5.33,0,0,1,2.6-.65,4.4,4.4,0,0,1,2.71.82A4.26,4.26,0,0,1,59,20.47l-1.4.33a3.32,3.32,0,0,0-1.08-1.71,2.89,2.89,0,0,0-1.79-.53,3.47,3.47,0,0,0-2.07.59,3.13,3.13,0,0,0-1.17,1.59,6.42,6.42,0,0,0-.34,2.06,6.54,6.54,0,0,0,.4,2.39,3,3,0,0,0,1.24,1.53,3.48,3.48,0,0,0,1.82.51,3.06,3.06,0,0,0,2-.69A3.52,3.52,0,0,0,57.81,24.5Z"/><path class="cls-3" d="M60.32,24.38a4,4,0,0,1,1.2-3.2A3.62,3.62,0,0,1,64,20.31a3.49,3.49,0,0,1,2.62,1.05,4,4,0,0,1,1,2.9,5.14,5.14,0,0,1-.45,2.36A3.19,3.19,0,0,1,65.85,28a3.82,3.82,0,0,1-1.88.48,3.5,3.5,0,0,1-2.64-1A4.18,4.18,0,0,1,60.32,24.38Zm1.35,0a3.31,3.31,0,0,0,.65,2.24,2.17,2.17,0,0,0,3.27,0,3.39,3.39,0,0,0,.65-2.28,3.22,3.22,0,0,0-.66-2.19,2.17,2.17,0,0,0-3.27,0A3.3,3.3,0,0,0,61.67,24.38Z"/><path class="cls-3" d="M69.15,28.26V20.49h1.19v1.11a2.8,2.8,0,0,1,2.48-1.28,3.24,3.24,0,0,1,1.29.25,2,2,0,0,1,.88.66,2.54,2.54,0,0,1,.41,1,7.56,7.56,0,0,1,.07,1.28v4.78H74.15V23.53A3.56,3.56,0,0,0,74,22.33a1.27,1.27,0,0,0-.55-.64,1.74,1.74,0,0,0-.92-.24,2.13,2.13,0,0,0-1.45.54,2.63,2.63,0,0,0-.61,2v4.25Z"/><path class="cls-3" d="M82.57,25.42l1.3.17a3.37,3.37,0,0,1-1.09,2.1,3.17,3.17,0,0,1-2.15.76,3.34,3.34,0,0,1-2.57-1,4.23,4.23,0,0,1-1-3,5.42,5.42,0,0,1,.42-2.21,2.91,2.91,0,0,1,1.27-1.42,3.76,3.76,0,0,1,1.86-.47,3.23,3.23,0,0,1,2.07.64,2.94,2.94,0,0,1,1,1.82l-1.28.2a2.13,2.13,0,0,0-.65-1.18,1.68,1.68,0,0,0-1.12-.4,2,2,0,0,0-1.62.71,3.39,3.39,0,0,0-.62,2.26,3.51,3.51,0,0,0,.6,2.28,2,2,0,0,0,1.57.71,1.85,1.85,0,0,0,1.3-.48A2.36,2.36,0,0,0,82.57,25.42Z"/><path class="cls-3" d="M90.32,25.76l1.36.17a3.32,3.32,0,0,1-1.19,1.85,4,4,0,0,1-4.93-.39,4.11,4.11,0,0,1-1-2.95,4.3,4.3,0,0,1,1-3,3.42,3.42,0,0,1,2.62-1.08,3.33,3.33,0,0,1,2.55,1.06,4.22,4.22,0,0,1,1,3q0,.12,0,.35h-5.8a3,3,0,0,0,.73,2,2.16,2.16,0,0,0,1.63.68A2,2,0,0,0,89.51,27,2.53,2.53,0,0,0,90.32,25.76ZM86,23.63h4.34a2.64,2.64,0,0,0-.5-1.47,2,2,0,0,0-1.63-.76,2.09,2.09,0,0,0-1.53.61A2.4,2.4,0,0,0,86,23.63Z"/><path class="cls-3" d="M93.34,31.25V20.49h1.2v1a3,3,0,0,1,1-.89,2.63,2.63,0,0,1,1.3-.3,3.07,3.07,0,0,1,1.76.51,3.15,3.15,0,0,1,1.15,1.45,5.29,5.29,0,0,1,.39,2,5.21,5.21,0,0,1-.43,2.15,3.24,3.24,0,0,1-1.25,1.46,3.2,3.2,0,0,1-1.72.51,2.48,2.48,0,0,1-1.18-.28,2.69,2.69,0,0,1-.86-.7v3.79Zm1.19-6.83a3.38,3.38,0,0,0,.61,2.22,1.86,1.86,0,0,0,1.47.72,1.9,1.9,0,0,0,1.5-.74,3.52,3.52,0,0,0,.63-2.3,3.44,3.44,0,0,0-.61-2.23,1.84,1.84,0,0,0-1.46-.74,1.9,1.9,0,0,0-1.49.79A3.52,3.52,0,0,0,94.53,24.42Z"/><path class="cls-3" d="M104.56,27.09l.19,1.16a4.89,4.89,0,0,1-1,.12,2.26,2.26,0,0,1-1.11-.23,1.27,1.27,0,0,1-.56-.6,4.71,4.71,0,0,1-.16-1.56V21.51h-1v-1h1V18.56l1.31-.79v2.72h1.33v1h-1.33v4.55a2.28,2.28,0,0,0,.07.72.55.55,0,0,0,.23.26.88.88,0,0,0,.45.09A4.27,4.27,0,0,0,104.56,27.09Z"/><path class="cls-3" d="M105.36,24.38a4,4,0,0,1,1.2-3.2,3.62,3.62,0,0,1,2.45-.86,3.49,3.49,0,0,1,2.62,1.05,4,4,0,0,1,1,2.9,5.14,5.14,0,0,1-.45,2.36A3.19,3.19,0,0,1,110.88,28a3.82,3.82,0,0,1-1.88.48,3.5,3.5,0,0,1-2.64-1A4.18,4.18,0,0,1,105.36,24.38Zm1.35,0a3.31,3.31,0,0,0,.65,2.24,2.17,2.17,0,0,0,3.27,0,3.39,3.39,0,0,0,.65-2.28,3.22,3.22,0,0,0-.66-2.19,2.17,2.17,0,0,0-3.27,0A3.3,3.3,0,0,0,106.71,24.38Z"/><path class="cls-3" d="M113.66,25.94l1.3-.21a1.82,1.82,0,0,0,.61,1.2,2.13,2.13,0,0,0,1.4.42,2.06,2.06,0,0,0,1.35-.37,1.1,1.1,0,0,0,.44-.87.8.8,0,0,0-.39-.7A5.71,5.71,0,0,0,117,25a12.22,12.22,0,0,1-2-.63,1.92,1.92,0,0,1-1.14-1.78,2,2,0,0,1,.24-1,2.14,2.14,0,0,1,.65-.74,2.72,2.72,0,0,1,.84-.38,4,4,0,0,1,1.14-.16,4.5,4.5,0,0,1,1.61.26,2.19,2.19,0,0,1,1,.71,2.79,2.79,0,0,1,.45,1.21l-1.29.18a1.41,1.41,0,0,0-.51-.94,1.86,1.86,0,0,0-1.19-.34,2.15,2.15,0,0,0-1.3.3.87.87,0,0,0-.39.7.73.73,0,0,0,.16.46,1.16,1.16,0,0,0,.51.35q.2.07,1.16.34a16.31,16.31,0,0,1,2,.61,2,2,0,0,1,.87.69,1.93,1.93,0,0,1,.31,1.13,2.22,2.22,0,0,1-.38,1.24,2.49,2.49,0,0,1-1.11.9,4,4,0,0,1-1.64.32,3.66,3.66,0,0,1-2.31-.63A2.93,2.93,0,0,1,113.66,25.94Z"/><path class="cls-3" d="M127.07,28.26h-1.22V17.53h1.32v3.83a2.61,2.61,0,0,1,2.13-1,3.27,3.27,0,0,1,1.36.29,2.79,2.79,0,0,1,1.05.81,4,4,0,0,1,.65,1.26,5.21,5.21,0,0,1,.23,1.58,4.44,4.44,0,0,1-1,3.09,3.09,3.09,0,0,1-2.37,1.09,2.48,2.48,0,0,1-2.16-1.15Zm0-3.95a4,4,0,0,0,.38,2,1.88,1.88,0,0,0,3.18.27,3.41,3.41,0,0,0,.63-2.24,3.47,3.47,0,0,0-.6-2.25,1.84,1.84,0,0,0-1.46-.73,1.9,1.9,0,0,0-1.49.75A3.3,3.3,0,0,0,127.06,24.32Z"/><path class="cls-3" d="M139.27,27.31a4.91,4.91,0,0,1-1.41.88,4.07,4.07,0,0,1-1.45.26,2.83,2.83,0,0,1-2-.63,2.07,2.07,0,0,1-.69-1.6,2.13,2.13,0,0,1,.26-1,2.15,2.15,0,0,1,.68-.76,3.19,3.19,0,0,1,.95-.43,9.4,9.4,0,0,1,1.17-.2,12.05,12.05,0,0,0,2.35-.45c0-.18,0-.29,0-.34a1.46,1.46,0,0,0-.37-1.14,2.21,2.21,0,0,0-1.5-.45,2.33,2.33,0,0,0-1.37.33,2,2,0,0,0-.66,1.15L134,22.71a3.2,3.2,0,0,1,.58-1.34,2.54,2.54,0,0,1,1.16-.78,5.21,5.21,0,0,1,1.77-.27,4.67,4.67,0,0,1,1.62.23,2.14,2.14,0,0,1,.92.59,2.08,2.08,0,0,1,.41.9,7.42,7.42,0,0,1,.07,1.22V25a18.53,18.53,0,0,0,.08,2.33,2.92,2.92,0,0,0,.33.93h-1.38A2.79,2.79,0,0,1,139.27,27.31Zm-.11-2.94a9.67,9.67,0,0,1-2.15.5,5,5,0,0,0-1.15.26,1.15,1.15,0,0,0-.52.43,1.17,1.17,0,0,0,.22,1.51,1.72,1.72,0,0,0,1.17.35,2.71,2.71,0,0,0,1.35-.33,2,2,0,0,0,.87-.91,3.18,3.18,0,0,0,.21-1.32Zm-2.56-4.84,1-2.05h1.73l-1.61,2.05Z"/><path class="cls-3" d="M142,25.94l1.3-.21a1.82,1.82,0,0,0,.61,1.2,2.13,2.13,0,0,0,1.4.42,2.06,2.06,0,0,0,1.35-.37,1.1,1.1,0,0,0,.44-.87.8.8,0,0,0-.39-.7,5.71,5.71,0,0,0-1.35-.45,12.22,12.22,0,0,1-2-.63,1.92,1.92,0,0,1-1.14-1.78,2,2,0,0,1,.24-1,2.14,2.14,0,0,1,.65-.74,2.72,2.72,0,0,1,.84-.38,4,4,0,0,1,1.14-.16,4.5,4.5,0,0,1,1.61.26,2.19,2.19,0,0,1,1,.71,2.79,2.79,0,0,1,.45,1.21l-1.29.18a1.41,1.41,0,0,0-.51-.94,1.86,1.86,0,0,0-1.19-.34,2.15,2.15,0,0,0-1.3.3.87.87,0,0,0-.39.7.73.73,0,0,0,.16.46,1.16,1.16,0,0,0,.51.35q.2.07,1.16.34a16.31,16.31,0,0,1,2,.61,2,2,0,0,1,.87.69,1.93,1.93,0,0,1,.31,1.13,2.22,2.22,0,0,1-.38,1.24,2.49,2.49,0,0,1-1.11.9,4,4,0,0,1-1.64.32,3.66,3.66,0,0,1-2.31-.63A2.93,2.93,0,0,1,142,25.94Z"/><path class="cls-3" d="M150,19V17.53h1.32V19Zm0,9.22V20.49h1.32v7.78Z"/><path class="cls-3" d="M158.45,25.42l1.3.17a3.37,3.37,0,0,1-1.09,2.1,3.17,3.17,0,0,1-2.15.76,3.34,3.34,0,0,1-2.57-1,4.23,4.23,0,0,1-1-3,5.42,5.42,0,0,1,.42-2.21,2.91,2.91,0,0,1,1.27-1.42,3.76,3.76,0,0,1,1.86-.47,3.23,3.23,0,0,1,2.07.64,2.94,2.94,0,0,1,1,1.82l-1.28.2a2.13,2.13,0,0,0-.65-1.18,1.68,1.68,0,0,0-1.12-.4,2,2,0,0,0-1.62.71,3.39,3.39,0,0,0-.62,2.26,3.51,3.51,0,0,0,.6,2.28,2,2,0,0,0,1.57.71,1.85,1.85,0,0,0,1.3-.48A2.36,2.36,0,0,0,158.45,25.42Z"/><path class="cls-3" d="M160.38,24.38a4,4,0,0,1,1.2-3.2,3.62,3.62,0,0,1,2.45-.86,3.49,3.49,0,0,1,2.62,1.05,4,4,0,0,1,1,2.9,5.14,5.14,0,0,1-.45,2.36A3.19,3.19,0,0,1,165.91,28a3.82,3.82,0,0,1-1.88.48,3.5,3.5,0,0,1-2.64-1A4.18,4.18,0,0,1,160.38,24.38Zm1.35,0a3.31,3.31,0,0,0,.65,2.24,2.17,2.17,0,0,0,3.27,0,3.39,3.39,0,0,0,.65-2.28,3.22,3.22,0,0,0-.66-2.19,2.17,2.17,0,0,0-3.27,0A3.3,3.3,0,0,0,161.74,24.38Z"/><path class="cls-3" d="M168.69,25.94l1.3-.21a1.82,1.82,0,0,0,.61,1.2,2.13,2.13,0,0,0,1.4.42,2.06,2.06,0,0,0,1.35-.37,1.1,1.1,0,0,0,.44-.87.8.8,0,0,0-.39-.7,5.71,5.71,0,0,0-1.35-.45,12.22,12.22,0,0,1-2-.63,1.92,1.92,0,0,1-1.14-1.78,2,2,0,0,1,.24-1,2.14,2.14,0,0,1,.65-.74,2.72,2.72,0,0,1,.84-.38,4,4,0,0,1,1.14-.16,4.5,4.5,0,0,1,1.61.26,2.19,2.19,0,0,1,1,.71,2.79,2.79,0,0,1,.45,1.21l-1.29.18a1.41,1.41,0,0,0-.51-.94,1.86,1.86,0,0,0-1.19-.34,2.15,2.15,0,0,0-1.3.3.87.87,0,0,0-.39.7.73.73,0,0,0,.16.46,1.16,1.16,0,0,0,.51.35q.2.07,1.16.34a16.31,16.31,0,0,1,2,.61,2,2,0,0,1,.87.69,1.93,1.93,0,0,1,.31,1.13,2.22,2.22,0,0,1-.38,1.24,2.49,2.49,0,0,1-1.11.9,4,4,0,0,1-1.64.32,3.66,3.66,0,0,1-2.31-.63A2.93,2.93,0,0,1,168.69,25.94Z"/><g id="_Grupo_" data-name="&lt;Grupo&gt;"><polygon id="_Trazado_" data-name="&lt;Trazado&gt;" class="cls-3" points="39.48 35 25.83 35 25.83 34.19 38.66 34.19 38.66 9.81 24.73 9.81 24.73 9 39.48 9 39.48 35"/><path id="_Trazado_2" data-name="&lt;Trazado&gt;" class="cls-4" d="M25.46,18.67a2.91,2.91,0,0,0-2.93-2.93H16.85a2.91,2.91,0,0,0-2.92,2.93v7.84h1.83V34.6h7.88V26.51h1.83Z"/><path id="_Trazado_3" data-name="&lt;Trazado&gt;" class="cls-5" d="M17.34,33V24.88H15.51V18.67a1.28,1.28,0,0,1,1.3-1.3h5.73a1.28,1.28,0,0,1,1.3,1.3v6.22H22V33Z"/><path id="_Trazado_compuesto_" data-name="&lt;Trazado compuesto&gt;" class="cls-3" d="M22.53,15.34H16.81a3.35,3.35,0,0,0-3.33,3.33v8.25H15.3V35H24V26.92h1.83V18.67A3.28,3.28,0,0,0,22.53,15.34ZM25.05,26.1H23.23v8.08H16.12V26.1H14.29V18.67a2.53,2.53,0,0,1,2.52-2.52h5.73a2.53,2.53,0,0,1,2.52,2.52V26.1Z"/><circle id="_Trazado_4" data-name="&lt;Trazado&gt;" class="cls-4" cx="19.65" cy="11.8" r="2.4"/><path id="_Trazado_compuesto_2" data-name="&lt;Trazado compuesto&gt;" class="cls-3" d="M19.65,14.61a2.8,2.8,0,1,1,2.8-2.8A2.81,2.81,0,0,1,19.65,14.61Zm0-4.8a2,2,0,1,0,2,2A2,2,0,0,0,19.65,9.81Z"/><rect id="_Trazado_5" data-name="&lt;Trazado&gt;" class="cls-4" x="16.85" y="19.4" width="0.81" height="0.81"/><rect id="_Trazado_6" data-name="&lt;Trazado&gt;" class="cls-4" x="19.25" y="19.4" width="0.81" height="0.81"/><rect id="_Trazado_7" data-name="&lt;Trazado&gt;" class="cls-4" x="21.68" y="19.4" width="0.81" height="0.81"/><polygon id="_Trazado_8" data-name="&lt;Trazado&gt;" class="cls-3" points="34.85 14.44 33.47 13.02 34.03 12.45 34.85 13.27 36.88 11.28 37.45 11.84 34.85 14.44"/><polygon id="_Trazado_9" data-name="&lt;Trazado&gt;" class="cls-3" points="34.85 19.07 33.47 17.65 34.03 17.08 34.85 17.94 36.88 15.91 37.45 16.47 34.85 19.07"/><polygon id="_Trazado_10" data-name="&lt;Trazado&gt;" class="cls-3" points="34.85 28.38 33.47 26.96 34.03 26.39 34.85 27.24 36.88 25.21 37.45 25.78 34.85 28.38"/><polygon id="_Trazado_11" data-name="&lt;Trazado&gt;" class="cls-3" points="34.85 33.01 33.47 31.63 34.03 31.06 34.85 31.87 36.88 29.84 37.45 30.41 34.85 33.01"/><polygon id="_Trazado_12" data-name="&lt;Trazado&gt;" class="cls-3" points="34.85 23.75 33.47 22.32 34.03 21.76 34.85 22.57 36.88 20.54 37.45 21.15 34.85 23.75"/><rect id="_Trazado_13" data-name="&lt;Trazado&gt;" class="cls-3" x="27.45" y="12.7" width="3.74" height="0.81"/><rect id="_Trazado_14" data-name="&lt;Trazado&gt;" class="cls-3" x="27.45" y="17.33" width="3.74" height="0.81"/><rect id="_Trazado_15" data-name="&lt;Trazado&gt;" class="cls-3" x="27.45" y="21.96" width="3.74" height="0.81"/><rect id="_Trazado_16" data-name="&lt;Trazado&gt;" class="cls-3" x="27.45" y="26.63" width="3.74" height="0.81"/><rect id="_Trazado_17" data-name="&lt;Trazado&gt;" class="cls-3" x="27.45" y="31.26" width="3.74" height="0.81"/><rect id="_Rectángulo_" data-name="&lt;Rectángulo&gt;" class="cls-4" x="19.09" y="27.44" width="1.13" height="6.75"/></g></g></g></svg>