<svg xmlns="http://www.w3.org/2000/svg" viewBox="0 0 232 44"><defs><style>.cls-1{fill:#f05032;}.cls-2{fill:#424142;}.cls-3{fill:#fff;}.cls-4{fill:#4fbf9f;}.cls-5{fill:#fdbf5e;}.cls-6{fill:#193651;}.cls-7{fill:#707070;}.cls-8{fill:#353535;}</style></defs><title>bt4_hover</title><g id="Capa_2" data-name="Capa 2"><g id="TEXTO_MENU" data-name="TEXTO MENU"><rect id="_Rectángulo_" data-name="&lt;Rectángulo&gt;" class="cls-1" width="232" height="44"/><path class="cls-2" d="M50.39,28.27V17.53h1.42V28.27Z"/><path class="cls-2" d="M54.14,28.27V20.49h1.19v1.11a2.8,2.8,0,0,1,2.48-1.28,3.24,3.24,0,0,1,1.29.25,2,2,0,0,1,.88.66,2.55,2.55,0,0,1,.41,1,7.54,7.54,0,0,1,.07,1.28v4.78H59.15V23.53A3.56,3.56,0,0,0,59,22.33a1.27,1.27,0,0,0-.55-.64,1.73,1.73,0,0,0-.92-.24,2.13,2.13,0,0,0-1.45.53,2.64,2.64,0,0,0-.61,2v4.25Z"/><path class="cls-2" d="M62,25.94l1.3-.21a1.82,1.82,0,0,0,.61,1.2,2.13,2.13,0,0,0,1.4.42A2.06,2.06,0,0,0,66.63,27a1.11,1.11,0,0,0,.44-.87.8.8,0,0,0-.39-.7A5.73,5.73,0,0,0,65.33,25a12.22,12.22,0,0,1-2-.63,1.92,1.92,0,0,1-1.14-1.78,2,2,0,0,1,.24-1,2.13,2.13,0,0,1,.65-.74,2.72,2.72,0,0,1,.84-.38A4,4,0,0,1,65,20.31a4.5,4.5,0,0,1,1.61.26,2.19,2.19,0,0,1,1,.71,2.79,2.79,0,0,1,.45,1.21l-1.29.18a1.41,1.41,0,0,0-.51-.94,1.86,1.86,0,0,0-1.19-.34,2.16,2.16,0,0,0-1.3.3.87.87,0,0,0-.39.7.73.73,0,0,0,.16.46,1.16,1.16,0,0,0,.51.35q.2.07,1.16.34a16.31,16.31,0,0,1,2,.61,2,2,0,0,1,.87.69A1.93,1.93,0,0,1,68.42,26,2.22,2.22,0,0,1,68,27.22a2.49,2.49,0,0,1-1.11.9,4,4,0,0,1-1.64.32A3.66,3.66,0,0,1,63,27.81,2.93,2.93,0,0,1,62,25.94Z"/><path class="cls-2" d="M72.87,27.09l.19,1.17a4.89,4.89,0,0,1-1,.12,2.25,2.25,0,0,1-1.11-.23,1.27,1.27,0,0,1-.56-.6A4.72,4.72,0,0,1,70.23,26V21.51h-1v-1h1V18.56l1.31-.79v2.72h1.33v1H71.54v4.55a2.28,2.28,0,0,0,.07.73.54.54,0,0,0,.23.26.88.88,0,0,0,.45.1A4.3,4.3,0,0,0,72.87,27.09Z"/><path class="cls-2" d="M79.23,27.31a4.91,4.91,0,0,1-1.41.88,4.07,4.07,0,0,1-1.45.26,2.83,2.83,0,0,1-2-.63,2.07,2.07,0,0,1-.69-1.6,2.13,2.13,0,0,1,.26-1,2.15,2.15,0,0,1,.68-.76A3.2,3.2,0,0,1,75.6,24a9.44,9.44,0,0,1,1.17-.2,12.05,12.05,0,0,0,2.35-.45c0-.18,0-.3,0-.34a1.45,1.45,0,0,0-.37-1.13,2.21,2.21,0,0,0-1.5-.45,2.33,2.33,0,0,0-1.37.33,2,2,0,0,0-.66,1.15l-1.29-.18a3.19,3.19,0,0,1,.58-1.34,2.54,2.54,0,0,1,1.16-.78,5.21,5.21,0,0,1,1.77-.27,4.67,4.67,0,0,1,1.62.23,2.13,2.13,0,0,1,.92.59,2.07,2.07,0,0,1,.41.9,7.42,7.42,0,0,1,.07,1.22V25a18.56,18.56,0,0,0,.08,2.33,2.92,2.92,0,0,0,.33.93H79.49A2.8,2.8,0,0,1,79.23,27.31Zm-.11-2.94a9.67,9.67,0,0,1-2.15.5,5,5,0,0,0-1.15.26,1.15,1.15,0,0,0-.52.43,1.16,1.16,0,0,0,.22,1.5,1.72,1.72,0,0,0,1.17.35A2.71,2.71,0,0,0,78,27.07a2.05,2.05,0,0,0,.87-.91,3.18,3.18,0,0,0,.21-1.32Z"/><path class="cls-2" d="M82.47,28.27V17.53h1.32V28.27Z"/><path class="cls-2" d="M90.9,27.31a4.91,4.91,0,0,1-1.41.88,4.07,4.07,0,0,1-1.45.26,2.83,2.83,0,0,1-2-.63,2.07,2.07,0,0,1-.69-1.6,2.13,2.13,0,0,1,.26-1,2.15,2.15,0,0,1,.68-.76,3.2,3.2,0,0,1,.95-.43,9.44,9.44,0,0,1,1.17-.2,12.05,12.05,0,0,0,2.35-.45c0-.18,0-.3,0-.34a1.45,1.45,0,0,0-.37-1.13,2.21,2.21,0,0,0-1.5-.45,2.33,2.33,0,0,0-1.37.33,2,2,0,0,0-.66,1.15l-1.29-.18a3.19,3.19,0,0,1,.58-1.34,2.54,2.54,0,0,1,1.16-.78,5.21,5.21,0,0,1,1.77-.27,4.67,4.67,0,0,1,1.62.23,2.13,2.13,0,0,1,.92.59,2.07,2.07,0,0,1,.41.9,7.42,7.42,0,0,1,.07,1.22V25a18.56,18.56,0,0,0,.08,2.33,2.92,2.92,0,0,0,.33.93H91.17A2.8,2.8,0,0,1,90.9,27.31Zm-.11-2.94a9.67,9.67,0,0,1-2.15.5,5,5,0,0,0-1.15.26,1.15,1.15,0,0,0-.52.43,1.16,1.16,0,0,0,.22,1.5,1.72,1.72,0,0,0,1.17.35,2.71,2.71,0,0,0,1.35-.33,2.05,2.05,0,0,0,.87-.91,3.18,3.18,0,0,0,.21-1.32Z"/><path class="cls-2" d="M99.25,25.42l1.3.17a3.37,3.37,0,0,1-1.09,2.1,3.17,3.17,0,0,1-2.15.76,3.34,3.34,0,0,1-2.57-1,4.23,4.23,0,0,1-1-3,5.41,5.41,0,0,1,.42-2.2,2.91,2.91,0,0,1,1.27-1.42,3.76,3.76,0,0,1,1.86-.47,3.23,3.23,0,0,1,2.07.64,2.94,2.94,0,0,1,1,1.82l-1.28.2a2.13,2.13,0,0,0-.65-1.18,1.68,1.68,0,0,0-1.12-.4,2,2,0,0,0-1.62.71,3.39,3.39,0,0,0-.62,2.26,3.5,3.5,0,0,0,.6,2.28,2,2,0,0,0,1.57.71,1.85,1.85,0,0,0,1.3-.48A2.36,2.36,0,0,0,99.25,25.42Z"/><path class="cls-2" d="M101.68,19V17.53H103V19Zm0,9.22V20.49H103v7.78Z"/><path class="cls-2" d="M104.51,24.38a4,4,0,0,1,1.2-3.2,3.62,3.62,0,0,1,2.45-.86,3.49,3.49,0,0,1,2.62,1.05,4,4,0,0,1,1,2.9,5.14,5.14,0,0,1-.45,2.36A3.19,3.19,0,0,1,110,28a3.82,3.82,0,0,1-1.88.48,3.5,3.5,0,0,1-2.64-1A4.18,4.18,0,0,1,104.51,24.38Zm1.35,0a3.32,3.32,0,0,0,.65,2.24,2.17,2.17,0,0,0,3.27,0,3.39,3.39,0,0,0,.65-2.28,3.21,3.21,0,0,0-.66-2.19,2.17,2.17,0,0,0-3.27,0A3.3,3.3,0,0,0,105.87,24.38Zm1.56-4.86,1-2.05h1.73l-1.61,2.05Z"/><path class="cls-2" d="M113.35,28.27V20.49h1.19v1.11A2.8,2.8,0,0,1,117,20.31a3.24,3.24,0,0,1,1.29.25,2,2,0,0,1,.88.66,2.55,2.55,0,0,1,.41,1,7.54,7.54,0,0,1,.07,1.28v4.78h-1.32V23.53a3.56,3.56,0,0,0-.15-1.21,1.27,1.27,0,0,0-.55-.64,1.73,1.73,0,0,0-.92-.24,2.13,2.13,0,0,0-1.45.53,2.64,2.64,0,0,0-.61,2v4.25Z"/><path class="cls-2" d="M130.9,28.27v-1a2.42,2.42,0,0,1-2.18,1.16,3.05,3.05,0,0,1-1.71-.51,3.37,3.37,0,0,1-1.21-1.43,4.94,4.94,0,0,1-.43-2.11,5.53,5.53,0,0,1,.39-2.11,3.06,3.06,0,0,1,1.16-1.45,3.11,3.11,0,0,1,1.74-.5,2.6,2.6,0,0,1,2.15,1.07V17.53h1.31V28.27Zm-4.17-3.88a3.38,3.38,0,0,0,.63,2.23,1.9,1.9,0,0,0,1.49.74,1.86,1.86,0,0,0,1.47-.71,3.26,3.26,0,0,0,.6-2.16,3.66,3.66,0,0,0-.62-2.34,1.89,1.89,0,0,0-1.52-.75,1.83,1.83,0,0,0-1.47.72A3.54,3.54,0,0,0,126.73,24.38Z"/><path class="cls-2" d="M139.52,25.76l1.36.17a3.33,3.33,0,0,1-1.19,1.85,4,4,0,0,1-4.93-.39,4.11,4.11,0,0,1-1-2.95,4.3,4.3,0,0,1,1-3,3.42,3.42,0,0,1,2.62-1.08,3.32,3.32,0,0,1,2.55,1.06,4.22,4.22,0,0,1,1,3q0,.12,0,.35h-5.8a3,3,0,0,0,.73,2,2.16,2.16,0,0,0,1.63.68,2,2,0,0,0,1.24-.38A2.53,2.53,0,0,0,139.52,25.76Zm-4.33-2.13h4.34a2.63,2.63,0,0,0-.5-1.47,2,2,0,0,0-1.63-.76,2.09,2.09,0,0,0-1.53.61A2.4,2.4,0,0,0,135.19,23.63Z"/><path class="cls-2" d="M151.9,24.05V22.79h4.55v4A8,8,0,0,1,154.29,28a6.42,6.42,0,0,1-2.29.42,6.1,6.1,0,0,1-2.87-.68,4.48,4.48,0,0,1-2-2,6.17,6.17,0,0,1-.66-2.86,6.64,6.64,0,0,1,.66-2.93,4.36,4.36,0,0,1,1.89-2,5.91,5.91,0,0,1,2.83-.66,5.61,5.61,0,0,1,2.11.38,3.49,3.49,0,0,1,1.48,1.05,4.66,4.66,0,0,1,.81,1.76l-1.28.35a4,4,0,0,0-.6-1.29,2.47,2.47,0,0,0-1-.75,3.77,3.77,0,0,0-1.48-.28,4.37,4.37,0,0,0-1.68.3,3.15,3.15,0,0,0-1.15.78,3.72,3.72,0,0,0-.68,1.06,5.62,5.62,0,0,0-.41,2.16,5.24,5.24,0,0,0,.49,2.4,3.16,3.16,0,0,0,1.44,1.44,4.46,4.46,0,0,0,2,.47,4.76,4.76,0,0,0,1.8-.36,4.64,4.64,0,0,0,1.33-.76v-2Z"/><path class="cls-2" d="M158.38,19V17.53h1.32V19Zm0,9.22V20.49h1.32v7.78Z"/><path class="cls-2" d="M164.59,27.09l.19,1.17a4.89,4.89,0,0,1-1,.12,2.25,2.25,0,0,1-1.11-.23,1.27,1.27,0,0,1-.56-.6,4.72,4.72,0,0,1-.16-1.56V21.51h-1v-1h1V18.56l1.31-.79v2.72h1.33v1h-1.33v4.55a2.28,2.28,0,0,0,.07.73.54.54,0,0,0,.23.26.88.88,0,0,0,.45.1A4.3,4.3,0,0,0,164.59,27.09Z"/><polygon id="_Trazado_" data-name="&lt;Trazado&gt;" class="cls-3" points="223.5 26.5 215.71 22 223.5 17.5 223.5 26.5"/><g id="_Grupo_" data-name="&lt;Grupo&gt;"><path id="_Trazado_compuesto_" data-name="&lt;Trazado compuesto&gt;" class="cls-3" d="M32.09,23.08V20.94l-1.29-.33a4.82,4.82,0,0,0-.25-.79l.83-1.25L29.9,17.08l-1.25.79a4.27,4.27,0,0,0-.79-.46l-.32-1.57H25.41l-.33,1.57a5.7,5.7,0,0,0-.79.39L23,17.05l-1.49,1.5.79,1.26c-.14.23-.48.52-.57.8l-1.68.33v2.14l1.68.33a6.16,6.16,0,0,0,.45.79l-.73,1.25L23,26.94l1.27-.79a4,4,0,0,0,.8.3l.33,1.41h2.14l.33-1.41a5.12,5.12,0,0,0,.79-.31l1.25.8,1.49-1.48-.79-1.25c.14-.23.09-.51.18-.79Zm-5.63,1A2.11,2.11,0,1,1,28.56,22,2.11,2.11,0,0,1,26.45,24.13Z"/><path id="_Trazado_2" data-name="&lt;Trazado&gt;" class="cls-2" d="M37.63,10.44v5.25H35.12a1.48,1.48,0,0,1-.47-.09l-2-1.07a1.43,1.43,0,0,0-.42-.09H29.13A1.13,1.13,0,0,1,28,13.32a1.12,1.12,0,0,1,.32-.77L23.45,14.2a1,1,0,0,1-1.3-.56,1.07,1.07,0,0,1,.47-1.39l6.74-3.58a2,2,0,0,1,1.44-.14l5.71,1.91h1.12Z"/><rect id="SVGCleanerId_2" data-name="SVGCleanerId 2" class="cls-4" x="37.63" y="9.79" width="3.25" height="6.69"/><rect id="SVGCleanerId_3" data-name="SVGCleanerId 3" class="cls-5" x="12.07" y="27.54" width="3.25" height="6.69"/><path id="SVGCleanerId_4" data-name="SVGCleanerId 4" class="cls-6" d="M33.54,31.31,33,30.57l.7-.56.6.7C34.05,30.89,33.82,31.12,33.54,31.31ZM35,30l-.69-.65c.18-.23.42-.42.6-.65l.74.56A5,5,0,0,1,35,30Zm1.21-1.49L35.4,28a6.75,6.75,0,0,0,.47-.74l.79.47A5.84,5.84,0,0,1,36.19,28.52Zm.93-1.72-.84-.37a5.9,5.9,0,0,0,.33-.84l.88.33A5.37,5.37,0,0,1,37.12,26.8ZM37.77,25l-.88-.23a4.8,4.8,0,0,0,.18-.88L38,24A5.83,5.83,0,0,1,37.77,25Zm.33-1.91L37.17,23a5.35,5.35,0,0,0,0-.88h.92A7.28,7.28,0,0,1,38.1,23.08Zm-.88-1.86a6.24,6.24,0,0,0-.09-.88l.93-.14a6.62,6.62,0,0,1,.09,1Z"/><path id="SVGCleanerId_5" data-name="SVGCleanerId 5" class="cls-6" d="M14.95,23.82a7.47,7.47,0,0,1-.14-1l.93,0c0,.28,0,.6.09.88Zm.75-1.91h-.93a6.54,6.54,0,0,1,0-1l.93.09A6.26,6.26,0,0,1,15.7,21.92Zm.18-1.76L15,20c0-.33.14-.65.18-.93l.88.23C16,19.55,15.92,19.83,15.88,20.15Zm.46-1.72-.88-.33a4.91,4.91,0,0,1,.38-.88l.84.37A6.6,6.6,0,0,0,16.34,18.43Zm.7-1.63-.79-.47a8.45,8.45,0,0,1,.51-.84l.79.51C17.37,16.3,17.23,16.53,17,16.81Zm1-1.49-.74-.56A9,9,0,0,1,18,14l.7.65A4,4,0,0,0,18.06,15.32ZM19.27,14l-.6-.7a8.05,8.05,0,0,1,.74-.6l.56.74Z"/><g id="_Grupo_2" data-name="&lt;Grupo&gt;"><rect id="SVGCleanerId_2-2" data-name="SVGCleanerId 2" class="cls-1" x="37.63" y="9.79" width="3.25" height="6.69"/></g><g id="_Grupo_3" data-name="&lt;Grupo&gt;"><rect id="SVGCleanerId_3-2" data-name="SVGCleanerId 3" class="cls-1" x="12.07" y="27.54" width="3.25" height="6.69"/></g><g id="_Grupo_4" data-name="&lt;Grupo&gt;"><path id="SVGCleanerId_4-2" data-name="SVGCleanerId 4" class="cls-3" d="M33.54,31.31,33,30.57l.7-.56.6.7C34.05,30.89,33.82,31.12,33.54,31.31ZM35,30l-.69-.65c.18-.23.42-.42.6-.65l.74.56A5,5,0,0,1,35,30Zm1.21-1.49L35.4,28a6.75,6.75,0,0,0,.47-.74l.79.47A5.84,5.84,0,0,1,36.19,28.52Zm.93-1.72-.84-.37a5.9,5.9,0,0,0,.33-.84l.88.33A5.37,5.37,0,0,1,37.12,26.8ZM37.77,25l-.88-.23a4.8,4.8,0,0,0,.18-.88L38,24A5.83,5.83,0,0,1,37.77,25Zm.33-1.91L37.17,23a5.35,5.35,0,0,0,0-.88h.92A7.28,7.28,0,0,1,38.1,23.08Zm-.88-1.86a6.24,6.24,0,0,0-.09-.88l.93-.14a6.62,6.62,0,0,1,.09,1Z"/></g><g id="_Grupo_5" data-name="&lt;Grupo&gt;"><path id="SVGCleanerId_5-2" data-name="SVGCleanerId 5" class="cls-3" d="M14.95,23.82a7.47,7.47,0,0,1-.14-1l.93,0c0,.28,0,.6.09.88Zm.75-1.91h-.93a6.54,6.54,0,0,1,0-1l.93.09A6.26,6.26,0,0,1,15.7,21.92Zm.18-1.76L15,20c0-.33.14-.65.18-.93l.88.23C16,19.55,15.92,19.83,15.88,20.15Zm.46-1.72-.88-.33a4.91,4.91,0,0,1,.38-.88l.84.37A6.6,6.6,0,0,0,16.34,18.43Zm.7-1.63-.79-.47a8.45,8.45,0,0,1,.51-.84l.79.51C17.37,16.3,17.23,16.53,17,16.81Zm1-1.49-.74-.56A9,9,0,0,1,18,14l.7.65A4,4,0,0,0,18.06,15.32ZM19.27,14l-.6-.7a8.05,8.05,0,0,1,.74-.6l.56.74Z"/></g><path id="_Trazado_compuesto_2" data-name="&lt;Trazado compuesto&gt;" class="cls-3" d="M37.16,9.32V10h-.6L30.94,8.11a2.3,2.3,0,0,0-1.76.14l-6.79,3.53a1.48,1.48,0,0,0-.65,2,1.56,1.56,0,0,0,1.86.79l3.9-1.35s.7,1.67,1.58,1.67H32.2a.41.41,0,0,1,.23,0l2,1.07,0,0a1.38,1.38,0,0,0,.6.09h2.14V17h4.17V9.32Zm0,5.91H35.07a.56.56,0,0,1-.28,0l-2-1.07h-.09a2.19,2.19,0,0,0-.56-.09H29.08a.65.65,0,1,1,0-1.3h2.51a1.33,1.33,0,0,0,1.3-1.3H32a.4.4,0,0,1-.37.37H29a1.44,1.44,0,0,0-.88.28l-4.87,1.68a.63.63,0,0,1-.74-.33.62.62,0,0,1,.28-.79L29.54,9A1.42,1.42,0,0,1,30.61,9l5.81,2h.74v4.32Zm3.26.79H38.1V10.25h2.32Z"/><path id="_Trazado_3" data-name="&lt;Trazado&gt;" class="cls-2" d="M30.34,31.77l-6.74,3.58a2,2,0,0,1-1.44.14l-5.71-1.91H15.32V28.33h2.51a1.48,1.48,0,0,1,.47.09l2,1.07a1.44,1.44,0,0,0,.42.09h3.12a1.13,1.13,0,0,1,1.12,1.12,1.12,1.12,0,0,1-.32.77l4.87-1.65a1,1,0,0,1,1.3.56A1.07,1.07,0,0,1,30.34,31.77Z"/><path id="_Trazado_compuesto_3" data-name="&lt;Trazado compuesto&gt;" class="cls-3" d="M31.22,30.24a1.56,1.56,0,0,0-1.86-.79l-3.9,1.35V30.7a1.56,1.56,0,0,0-1.58-1.58H20.76a.41.41,0,0,1-.23,0l-2-1,0,0a1.37,1.37,0,0,0-.6-.09H15.78v-.84H11.6V34.7h4.18V34h.6L22,35.91a1.81,1.81,0,0,0,.7.09,2.18,2.18,0,0,0,1.07-.28l6.78-3.48A1.51,1.51,0,0,0,31.22,30.24ZM12.53,28h2.32v5.76H12.53ZM30.1,31.4,23.36,35a1.42,1.42,0,0,1-1.07.09l-5.81-2h-.69V28.8h2.09a.56.56,0,0,1,.28,0l2,1.07,0,0a2.21,2.21,0,0,0,.56.09h3.12a.64.64,0,0,1,.65.65.73.73,0,0,1-.18.47l-.51.18H21.33a1.33,1.33,0,0,0-1.3,1.3H21a.4.4,0,0,1,.37-.37h2.56a1.44,1.44,0,0,0,.88-.28l4.88-1.68a.63.63,0,0,1,.74.33A.58.58,0,0,1,30.1,31.4Z"/><path id="_Trazado_compuesto_4" data-name="&lt;Trazado compuesto&gt;" class="cls-2" d="M30.16,22.88,30,22.6l1.07-.28v-.65L30,21.4l0-.28a3,3,0,0,0-.42-1.07l-.12-.23.71-1.12-.46-.47-1.11.69-.23-.14a4.57,4.57,0,0,0-1.07-.47l-.28-.13-.28-1.34h-.65l-.28,1.34-.28.09a3.19,3.19,0,0,0-1.07.49l-.23.15-1.12-.69-.47.47.7,1.12-.14.23a4.6,4.6,0,0,0-.47,1.07l-.25.28-1.46.28v.65l1.46.28.15.28A3.24,3.24,0,0,0,23.21,24l.17.23L22.7,25.3l.47.47,1.12-.69.24.14a4.55,4.55,0,0,0,1.07.47l.28,0,.28,1.19h.65l.28-1.19.28,0a3.09,3.09,0,0,0,1.07-.45l.23-.13,1.12.7.47-.46-.7-1.12.14-.23A4.59,4.59,0,0,0,30.16,22.88Zm-3.71.58A1.52,1.52,0,1,1,28,21.95,1.52,1.52,0,0,1,26.45,23.47Z"/><path id="_Trazado_compuesto_5" data-name="&lt;Trazado compuesto&gt;" class="cls-3" d="M26.48,24.24A2.23,2.23,0,0,1,24.25,22a2.26,2.26,0,0,1,2.23-2.23,2.23,2.23,0,1,1,0,4.46Zm0-3.53a1.3,1.3,0,1,0,1.3,1.3A1.27,1.27,0,0,0,26.48,20.71Z"/></g><rect class="cls-7" y="43.25" width="232" height="0.75"/><rect class="cls-8" width="232" height="0.75"/></g></g></svg>