<svg xmlns="http://www.w3.org/2000/svg" viewBox="0 0 232 44"><defs><style>.cls-1{fill:#f05032;}.cls-2{fill:#424142;}.cls-3{fill:#fff;}.cls-4{fill:#707070;}.cls-5{fill:#353535;}</style></defs><title>bt5_hover</title><g id="Capa_2" data-name="Capa 2"><g id="TEXTO_MENU" data-name="TEXTO MENU"><rect id="_Rectángulo_" data-name="&lt;Rectángulo&gt;" class="cls-1" width="232" height="44"/><path class="cls-2" d="M50.15,28.26V17.53H54.2a9.8,9.8,0,0,1,1.63.1,3.24,3.24,0,0,1,1.33.5,2.64,2.64,0,0,1,.86,1A3.5,3.5,0,0,1,57.47,23a4.18,4.18,0,0,1-3.15.95H51.57v4.37Zm1.42-5.63h2.78a2.94,2.94,0,0,0,2-.51,1.83,1.83,0,0,0,.58-1.44,1.94,1.94,0,0,0-.34-1.15,1.6,1.6,0,0,0-.9-.63,6.14,6.14,0,0,0-1.33-.09H51.57Z"/><path class="cls-2" d="M60,28.26V20.49h1.19v1.18A3.22,3.22,0,0,1,62,20.58a1.47,1.47,0,0,1,.85-.26,2.57,2.57,0,0,1,1.35.42L63.74,22a1.89,1.89,0,0,0-1-.29,1.26,1.26,0,0,0-.78.26,1.41,1.41,0,0,0-.49.72,5.13,5.13,0,0,0-.22,1.54v4.07Z"/><path class="cls-2" d="M65,19V17.53H66.3V19Zm0,9.22V20.49H66.3v7.78Z"/><path class="cls-2" d="M68.31,28.26V20.49h1.18v1.09a2.78,2.78,0,0,1,1-.92,2.73,2.73,0,0,1,1.38-.35,2.56,2.56,0,0,1,1.42.36,1.92,1.92,0,0,1,.78,1,2.79,2.79,0,0,1,2.4-1.36,2.37,2.37,0,0,1,1.78.64,2.74,2.74,0,0,1,.62,2v5.34H77.54v-4.9a3.61,3.61,0,0,0-.13-1.14,1.11,1.11,0,0,0-.46-.56,1.45,1.45,0,0,0-.79-.21,1.84,1.84,0,0,0-1.36.54,2.4,2.4,0,0,0-.54,1.75v4.52H72.93V23.21a2.22,2.22,0,0,0-.32-1.32,1.22,1.22,0,0,0-1.05-.44,1.92,1.92,0,0,0-1,.29,1.66,1.66,0,0,0-.68.86,4.82,4.82,0,0,0-.21,1.63v4Z"/><path class="cls-2" d="M86.13,25.76l1.36.17a3.33,3.33,0,0,1-1.19,1.85,4,4,0,0,1-4.93-.39,4.11,4.11,0,0,1-1-2.95,4.3,4.3,0,0,1,1-3A3.42,3.42,0,0,1,84,20.31a3.32,3.32,0,0,1,2.55,1.06,4.22,4.22,0,0,1,1,3q0,.12,0,.35h-5.8a3,3,0,0,0,.73,2,2.16,2.16,0,0,0,1.63.68A2,2,0,0,0,85.32,27,2.52,2.52,0,0,0,86.13,25.76ZM81.8,23.63h4.34a2.63,2.63,0,0,0-.5-1.47A2,2,0,0,0,84,21.4a2.09,2.09,0,0,0-1.53.61A2.4,2.4,0,0,0,81.8,23.63Z"/><path class="cls-2" d="M89.13,28.26V20.49h1.19v1.18a3.22,3.22,0,0,1,.84-1.09,1.47,1.47,0,0,1,.85-.26,2.57,2.57,0,0,1,1.35.42L92.9,22a1.89,1.89,0,0,0-1-.29,1.26,1.26,0,0,0-.78.26,1.41,1.41,0,0,0-.49.72,5.13,5.13,0,0,0-.22,1.54v4.07Z"/><path class="cls-2" d="M93.65,24.38a4,4,0,0,1,1.2-3.2,3.62,3.62,0,0,1,2.45-.86,3.49,3.49,0,0,1,2.62,1.05,4,4,0,0,1,1,2.9,5.14,5.14,0,0,1-.45,2.36A3.19,3.19,0,0,1,99.18,28a3.82,3.82,0,0,1-1.88.48,3.5,3.5,0,0,1-2.64-1A4.18,4.18,0,0,1,93.65,24.38Zm1.35,0a3.32,3.32,0,0,0,.65,2.24,2.17,2.17,0,0,0,3.27,0,3.39,3.39,0,0,0,.65-2.28,3.22,3.22,0,0,0-.66-2.19,2.17,2.17,0,0,0-3.27,0A3.3,3.3,0,0,0,95,24.38Z"/><path class="cls-2" d="M102,25.94l1.3-.21a1.82,1.82,0,0,0,.61,1.2,2.13,2.13,0,0,0,1.4.42,2.06,2.06,0,0,0,1.35-.37,1.11,1.11,0,0,0,.44-.87.8.8,0,0,0-.39-.7,5.68,5.68,0,0,0-1.35-.45,12.1,12.1,0,0,1-2-.63,1.94,1.94,0,0,1-.85-.74,2,2,0,0,1-.29-1,2,2,0,0,1,.24-1,2.14,2.14,0,0,1,.65-.74,2.75,2.75,0,0,1,.84-.38,4,4,0,0,1,1.14-.16,4.5,4.5,0,0,1,1.61.26,2.19,2.19,0,0,1,1,.71,2.8,2.8,0,0,1,.45,1.21l-1.29.18a1.41,1.41,0,0,0-.51-.94,1.86,1.86,0,0,0-1.19-.34,2.16,2.16,0,0,0-1.3.3.87.87,0,0,0-.39.7.73.73,0,0,0,.16.46,1.18,1.18,0,0,0,.51.35q.2.07,1.16.34a16.49,16.49,0,0,1,2,.61,2,2,0,0,1,.87.69,1.93,1.93,0,0,1,.31,1.13,2.22,2.22,0,0,1-.38,1.24,2.49,2.49,0,0,1-1.11.9,4,4,0,0,1-1.64.32,3.66,3.66,0,0,1-2.31-.63A2.93,2.93,0,0,1,102,25.94Z"/><path class="cls-2" d="M114.15,31.25V20.49h1.2v1a3,3,0,0,1,1-.89,2.62,2.62,0,0,1,1.3-.3,3.07,3.07,0,0,1,1.76.51,3.15,3.15,0,0,1,1.15,1.45,5.28,5.28,0,0,1,.39,2,5.22,5.22,0,0,1-.43,2.15,3.25,3.25,0,0,1-3,2,2.48,2.48,0,0,1-1.18-.28,2.69,2.69,0,0,1-.86-.7v3.79Zm1.19-6.83a3.38,3.38,0,0,0,.61,2.22,1.86,1.86,0,0,0,1.47.72,1.9,1.9,0,0,0,1.5-.74,3.53,3.53,0,0,0,.63-2.3,3.44,3.44,0,0,0-.61-2.23,1.84,1.84,0,0,0-1.46-.74,1.9,1.9,0,0,0-1.49.79A3.52,3.52,0,0,0,115.35,24.42Z"/><path class="cls-2" d="M127.57,27.31a4.91,4.91,0,0,1-1.41.88,4.07,4.07,0,0,1-1.45.26,2.83,2.83,0,0,1-2-.62,2.07,2.07,0,0,1-.69-1.6,2.17,2.17,0,0,1,.94-1.8,3.17,3.17,0,0,1,.95-.43,9.59,9.59,0,0,1,1.17-.2,12.06,12.06,0,0,0,2.35-.45c0-.18,0-.3,0-.34a1.46,1.46,0,0,0-.37-1.14,2.21,2.21,0,0,0-1.5-.45,2.33,2.33,0,0,0-1.37.33,2,2,0,0,0-.66,1.15l-1.29-.18a3.19,3.19,0,0,1,.58-1.34,2.54,2.54,0,0,1,1.16-.79,5.23,5.23,0,0,1,1.77-.27,4.67,4.67,0,0,1,1.62.23,2.13,2.13,0,0,1,.92.59,2.07,2.07,0,0,1,.41.9,7.42,7.42,0,0,1,.07,1.22V25a18.53,18.53,0,0,0,.08,2.33,2.91,2.91,0,0,0,.33.93h-1.38A2.79,2.79,0,0,1,127.57,27.31Zm-.11-2.94a9.67,9.67,0,0,1-2.15.5,5,5,0,0,0-1.15.26,1.15,1.15,0,0,0-.52.43,1.16,1.16,0,0,0,.22,1.5,1.72,1.72,0,0,0,1.17.35,2.71,2.71,0,0,0,1.35-.33,2.06,2.06,0,0,0,.87-.91,3.18,3.18,0,0,0,.21-1.32Z"/><path class="cls-2" d="M130.31,25.94l1.3-.21a1.82,1.82,0,0,0,.61,1.2,2.13,2.13,0,0,0,1.4.42A2.06,2.06,0,0,0,135,27a1.11,1.11,0,0,0,.44-.87.8.8,0,0,0-.39-.7,5.68,5.68,0,0,0-1.35-.45,12.1,12.1,0,0,1-2-.63,1.94,1.94,0,0,1-.85-.74,2,2,0,0,1-.29-1,2,2,0,0,1,.24-1,2.14,2.14,0,0,1,.65-.74,2.75,2.75,0,0,1,.84-.38,4,4,0,0,1,1.14-.16,4.5,4.5,0,0,1,1.61.26,2.19,2.19,0,0,1,1,.71,2.8,2.8,0,0,1,.45,1.21l-1.29.18a1.41,1.41,0,0,0-.51-.94,1.86,1.86,0,0,0-1.19-.34,2.16,2.16,0,0,0-1.3.3.87.87,0,0,0-.39.7.73.73,0,0,0,.16.46,1.18,1.18,0,0,0,.51.35q.2.07,1.16.34a16.49,16.49,0,0,1,2,.61,2,2,0,0,1,.87.69,1.93,1.93,0,0,1,.31,1.13,2.22,2.22,0,0,1-.38,1.24,2.49,2.49,0,0,1-1.11.9,4,4,0,0,1-1.64.32,3.66,3.66,0,0,1-2.31-.63A2.93,2.93,0,0,1,130.31,25.94Z"/><path class="cls-2" d="M137.85,24.38a4,4,0,0,1,1.2-3.2,3.62,3.62,0,0,1,2.45-.86,3.49,3.49,0,0,1,2.62,1.05,4,4,0,0,1,1,2.9,5.14,5.14,0,0,1-.45,2.36A3.19,3.19,0,0,1,143.37,28a3.82,3.82,0,0,1-1.88.48,3.5,3.5,0,0,1-2.64-1A4.18,4.18,0,0,1,137.85,24.38Zm1.35,0a3.32,3.32,0,0,0,.65,2.24,2.17,2.17,0,0,0,3.27,0,3.39,3.39,0,0,0,.65-2.28,3.22,3.22,0,0,0-.66-2.19,2.17,2.17,0,0,0-3.27,0A3.3,3.3,0,0,0,139.2,24.38Z"/><path class="cls-2" d="M146.15,25.94l1.3-.21a1.82,1.82,0,0,0,.61,1.2,2.13,2.13,0,0,0,1.4.42,2.06,2.06,0,0,0,1.35-.37,1.11,1.11,0,0,0,.44-.87.8.8,0,0,0-.39-.7,5.68,5.68,0,0,0-1.35-.45,12.1,12.1,0,0,1-2-.63,1.94,1.94,0,0,1-.85-.74,2,2,0,0,1-.29-1,2,2,0,0,1,.24-1,2.14,2.14,0,0,1,.65-.74,2.75,2.75,0,0,1,.84-.38,4,4,0,0,1,1.14-.16,4.5,4.5,0,0,1,1.61.26,2.19,2.19,0,0,1,1,.71,2.8,2.8,0,0,1,.45,1.21l-1.29.18a1.41,1.41,0,0,0-.51-.94,1.86,1.86,0,0,0-1.19-.34,2.16,2.16,0,0,0-1.3.3.87.87,0,0,0-.39.7.73.73,0,0,0,.16.46,1.18,1.18,0,0,0,.51.35q.2.07,1.16.34a16.49,16.49,0,0,1,2,.61,2,2,0,0,1,.87.69,1.93,1.93,0,0,1,.31,1.13,2.22,2.22,0,0,1-.38,1.24,2.49,2.49,0,0,1-1.11.9,4,4,0,0,1-1.64.32,3.66,3.66,0,0,1-2.31-.63A2.93,2.93,0,0,1,146.15,25.94Z"/><path class="cls-2" d="M163.42,25.42l1.3.17a3.37,3.37,0,0,1-1.09,2.1,3.17,3.17,0,0,1-2.15.76,3.34,3.34,0,0,1-2.57-1,4.23,4.23,0,0,1-1-3,5.42,5.42,0,0,1,.42-2.21,2.91,2.91,0,0,1,1.27-1.42,3.75,3.75,0,0,1,1.86-.47,3.22,3.22,0,0,1,2.07.64,2.94,2.94,0,0,1,1,1.82l-1.28.2a2.13,2.13,0,0,0-.65-1.18,1.68,1.68,0,0,0-1.12-.39,2,2,0,0,0-1.62.71,3.39,3.39,0,0,0-.62,2.26,3.51,3.51,0,0,0,.6,2.28,2,2,0,0,0,1.57.71,1.85,1.85,0,0,0,1.3-.48A2.36,2.36,0,0,0,163.42,25.42Z"/><path class="cls-2" d="M165.36,24.38a4,4,0,0,1,1.2-3.2,3.62,3.62,0,0,1,2.45-.86,3.49,3.49,0,0,1,2.62,1.05,4,4,0,0,1,1,2.9,5.14,5.14,0,0,1-.45,2.36A3.19,3.19,0,0,1,170.88,28a3.82,3.82,0,0,1-1.88.48,3.5,3.5,0,0,1-2.64-1A4.18,4.18,0,0,1,165.36,24.38Zm1.35,0a3.32,3.32,0,0,0,.65,2.24,2.17,2.17,0,0,0,3.27,0,3.39,3.39,0,0,0,.65-2.28,3.22,3.22,0,0,0-.66-2.19,2.17,2.17,0,0,0-3.27,0A3.3,3.3,0,0,0,166.71,24.38Z"/><path class="cls-2" d="M174.19,28.26V20.49h1.19v1.11a2.8,2.8,0,0,1,2.48-1.28,3.25,3.25,0,0,1,1.29.25,2,2,0,0,1,.88.66,2.55,2.55,0,0,1,.41,1,7.56,7.56,0,0,1,.07,1.28v4.78h-1.32V23.53a3.55,3.55,0,0,0-.15-1.21,1.27,1.27,0,0,0-.55-.64,1.73,1.73,0,0,0-.92-.24,2.13,2.13,0,0,0-1.45.53,2.63,2.63,0,0,0-.61,2v4.25Z"/><path class="cls-2" d="M191.89,24.05V22.79h4.55v4A8,8,0,0,1,194.28,28a6.4,6.4,0,0,1-2.29.42,6.09,6.09,0,0,1-2.87-.68,4.47,4.47,0,0,1-2-2,6.17,6.17,0,0,1-.66-2.86,6.64,6.64,0,0,1,.66-2.93A4.36,4.36,0,0,1,189,18a5.91,5.91,0,0,1,2.83-.66,5.63,5.63,0,0,1,2.11.38,3.5,3.5,0,0,1,1.48,1.05,4.66,4.66,0,0,1,.81,1.76l-1.28.35a4,4,0,0,0-.6-1.29,2.46,2.46,0,0,0-1-.75,3.77,3.77,0,0,0-1.48-.28,4.37,4.37,0,0,0-1.68.3,3.17,3.17,0,0,0-1.15.78,3.72,3.72,0,0,0-.68,1.06,5.62,5.62,0,0,0-.41,2.16,5.24,5.24,0,0,0,.49,2.4,3.16,3.16,0,0,0,1.44,1.44,4.46,4.46,0,0,0,2,.47,4.78,4.78,0,0,0,1.8-.36,4.66,4.66,0,0,0,1.33-.76v-2Z"/><path class="cls-2" d="M198.37,19V17.53h1.32V19Zm0,9.22V20.49h1.32v7.78Z"/><path class="cls-2" d="M204.58,27.09l.19,1.17a4.89,4.89,0,0,1-1,.12,2.25,2.25,0,0,1-1.11-.23,1.27,1.27,0,0,1-.56-.6,4.72,4.72,0,0,1-.16-1.56V21.51h-1v-1h1V18.56l1.31-.79v2.72h1.33v1h-1.33v4.55a2.28,2.28,0,0,0,.07.73.54.54,0,0,0,.23.26.88.88,0,0,0,.45.1A4.3,4.3,0,0,0,204.58,27.09Z"/><polygon id="_Trazado_" data-name="&lt;Trazado&gt;" class="cls-3" points="223.5 26.5 215.71 22 223.5 17.5 223.5 26.5"/><g id="_Grupo_" data-name="&lt;Grupo&gt;"><polyline id="_Trazado_2" data-name="&lt;Trazado&gt;" class="cls-1" points="39.27 35 39.27 26.09 32.87 26.09 32.87 28.89 26.48 28.89 26.48 31.49 20.08 31.49 20.08 32.98 13.68 32.98 13.68 35"/><path id="SVGCleanerId_0" data-name="SVGCleanerId 0" class="cls-3" d="M35.06,16.8a1,1,0,0,0-1.16-.45l-2.52.7-1.4-2L28,14a3,3,0,0,0-2.89,0l-2.27,1.28a.92.92,0,0,0-.29.29L21.12,18a1,1,0,0,0,.29,1.32,1,1,0,0,0,1.24-.25l1.24-1.65a2.8,2.8,0,0,1,1.53-1h0l-.79,3.8-.45,2.23-.45,1.94-3.09,3.59a1.31,1.31,0,0,0-.08,1.65,1.23,1.23,0,0,0,1.9,0L26,25.51l.58-2a.92.92,0,0,1,1-.7,1,1,0,0,1,.82,1.07L28.05,26A1.3,1.3,0,0,0,29,27.53a1.21,1.21,0,0,0,1.48-1L31,23.74h0a2.73,2.73,0,0,0-1.69-3.18l-.45-.16.58-2.72,1.16,1.61,3.88-1.07A1,1,0,0,0,35.06,16.8Z"/><circle id="_Trazado_3" data-name="&lt;Trazado&gt;" class="cls-3" cx="29.9" cy="11.31" r="1.9"/><path id="SVGCleanerId_1" data-name="SVGCleanerId 1" class="cls-3" d="M29.9,13.62a2.31,2.31,0,1,1,2.31-2.31A2.31,2.31,0,0,1,29.9,13.62Zm0-3.8a1.48,1.48,0,1,0,1.48,1.48A1.48,1.48,0,0,0,29.9,9.82Z"/><g id="_Grupo_2" data-name="&lt;Grupo&gt;"><rect id="_Trazado_4" data-name="&lt;Trazado&gt;" class="cls-3" x="31.68" y="32.52" width="0.82" height="0.82"/><rect id="_Trazado_5" data-name="&lt;Trazado&gt;" class="cls-3" x="29.07" y="32.52" width="0.82" height="0.82"/><rect id="_Trazado_6" data-name="&lt;Trazado&gt;" class="cls-3" x="34.24" y="32.52" width="0.82" height="0.82"/><rect id="_Trazado_7" data-name="&lt;Trazado&gt;" class="cls-3" x="36.8" y="32.52" width="0.82" height="0.82"/></g><g id="_Grupo_3" data-name="&lt;Grupo&gt;"><path id="SVGCleanerId_0-2" data-name="SVGCleanerId 0" class="cls-2" d="M35.06,16.8a1,1,0,0,0-1.16-.45l-2.52.7-1.4-2L28,14a3,3,0,0,0-2.89,0l-2.27,1.28a.92.92,0,0,0-.29.29L21.12,18a1,1,0,0,0,.29,1.32,1,1,0,0,0,1.24-.25l1.24-1.65a2.8,2.8,0,0,1,1.53-1h0l-.79,3.8-.45,2.23-.45,1.94-3.09,3.59a1.31,1.31,0,0,0-.08,1.65,1.23,1.23,0,0,0,1.9,0L26,25.51l.58-2a.92.92,0,0,1,1-.7,1,1,0,0,1,.82,1.07L28.05,26A1.3,1.3,0,0,0,29,27.53a1.21,1.21,0,0,0,1.48-1L31,23.74h0a2.73,2.73,0,0,0-1.69-3.18l-.45-.16.58-2.72,1.16,1.61,3.88-1.07A1,1,0,0,0,35.06,16.8Z"/></g><circle id="_Trazado_8" data-name="&lt;Trazado&gt;" class="cls-2" cx="29.9" cy="11.31" r="1.9"/><g id="_Grupo_4" data-name="&lt;Grupo&gt;"><path id="SVGCleanerId_1-2" data-name="SVGCleanerId 1" class="cls-3" d="M29.9,13.62a2.31,2.31,0,1,1,2.31-2.31A2.31,2.31,0,0,1,29.9,13.62Zm0-3.8a1.48,1.48,0,1,0,1.48,1.48A1.48,1.48,0,0,0,29.9,9.82Z"/></g><g id="_Grupo_5" data-name="&lt;Grupo&gt;"><path id="_Trazado_compuesto_" data-name="&lt;Trazado compuesto&gt;" class="cls-3" d="M21.48,30.5a1.6,1.6,0,0,1-1.28-.62,1.68,1.68,0,0,1,.08-2.14l3-3.51.41-1.86,1.07-5.24a2.74,2.74,0,0,0-.62.58l-1.24,1.65a1.39,1.39,0,0,1-1.77.33,1.22,1.22,0,0,1-.58-.82,1.41,1.41,0,0,1,.16-1.07l1.48-2.48a1.11,1.11,0,0,1,.45-.41L25,13.63a3.36,3.36,0,0,1,3.3,0l2,1.16L31.6,16.6,33.83,16a1.52,1.52,0,0,1,1.65.62,1.45,1.45,0,0,1,.08,1.24,1.38,1.38,0,0,1-.91.82l-4.17,1.16-.91-1.11-.33,1.48.13,0a3.08,3.08,0,0,1,1.94,3.63l-.54,2.81A1.63,1.63,0,0,1,29.17,28a1.1,1.1,0,0,1-.37,0A1.67,1.67,0,0,1,27.56,26l.37-2.15a.51.51,0,0,0-.08-.41.43.43,0,0,0-.37-.21.57.57,0,0,0-.58.41l-.62,2.06-3.6,4.16A1.45,1.45,0,0,1,21.48,30.5ZM25.9,15.85l-1.36,6.69L24,24.6,20.9,28.27a.85.85,0,1,0,1.23,1.16l3.47-4,.54-1.9a1.44,1.44,0,0,1,1.45-1,1.3,1.3,0,0,1,.91.54,1.32,1.32,0,0,1,.25,1l-.37,2.11a.86.86,0,0,0,.62,1,.82.82,0,0,0,1-.66l.54-2.81a2.29,2.29,0,0,0-1.45-2.72l-.79-.29.87-4,1.53,2.11,3.63-1a.51.51,0,0,0,.37-.33.61.61,0,0,0,0-.54.63.63,0,0,0-.7-.25l-2.75.78L29.7,15.4l-1.86-1a2.62,2.62,0,0,0-2.48,0l-2.27,1.28s-.12.08-.12.13l-1.48,2.48a.82.82,0,0,0-.08.45.54.54,0,0,0,.21.29.56.56,0,0,0,.7-.13l1.24-1.65A3.57,3.57,0,0,1,25.29,16Z"/><polygon id="_Trazado_9" data-name="&lt;Trazado&gt;" class="cls-3" points="39.68 35 38.86 35 38.86 26.5 33.29 26.5 33.29 29.31 26.89 29.31 26.89 31.91 20.49 31.91 20.49 33.39 14.09 33.39 14.09 35 13.27 35 13.27 32.57 19.67 32.57 19.67 31.08 26.06 31.08 26.06 28.48 32.46 28.48 32.46 25.67 39.68 25.67 39.68 35"/></g></g><rect class="cls-4" y="43.25" width="232" height="0.75"/><rect class="cls-5" width="232" height="0.75"/></g></g></svg>