<svg xmlns="http://www.w3.org/2000/svg" viewBox="0 0 232 44"><defs><style>.cls-1{fill:#f05032;}.cls-2,.cls-4,.cls-5{fill:#424142;}.cls-3,.cls-6{fill:#fff;}.cls-4,.cls-5,.cls-6{fill-rule:evenodd;}.cls-5{stroke:#fff;stroke-miterlimit:10;stroke-width:0.75px;}.cls-7{fill:#353535;}</style></defs><title>bt6_hover</title><g id="Capa_2" data-name="Capa 2"><g id="TEXTO_MENU" data-name="TEXTO MENU"><rect id="_Rectángulo_" data-name="&lt;Rectángulo&gt;" class="cls-1" width="232" height="44"/><path class="cls-2" d="M57.19,17.53h1.42v6.2a7.34,7.34,0,0,1-.37,2.57,3.13,3.13,0,0,1-1.32,1.55,4.68,4.68,0,0,1-2.51.6,5.16,5.16,0,0,1-2.47-.52,3,3,0,0,1-1.37-1.5,7.17,7.17,0,0,1-.41-2.69v-6.2h1.42v6.2a6,6,0,0,0,.26,2.06,2,2,0,0,0,.89,1,3.1,3.1,0,0,0,1.55.36,3,3,0,0,0,2.23-.71,4.09,4.09,0,0,0,.67-2.73Z"/><path class="cls-2" d="M60.28,25.94l1.3-.21a1.82,1.82,0,0,0,.61,1.2,2.13,2.13,0,0,0,1.4.42A2.06,2.06,0,0,0,64.95,27a1.1,1.1,0,0,0,.44-.87.8.8,0,0,0-.39-.7A5.71,5.71,0,0,0,63.65,25a12.22,12.22,0,0,1-2-.63,1.92,1.92,0,0,1-1.14-1.78,2,2,0,0,1,.24-1,2.14,2.14,0,0,1,.65-.74,2.72,2.72,0,0,1,.84-.38,4,4,0,0,1,1.14-.16,4.5,4.5,0,0,1,1.61.26,2.19,2.19,0,0,1,1,.71,2.79,2.79,0,0,1,.45,1.21l-1.29.18a1.41,1.41,0,0,0-.51-.94,1.86,1.86,0,0,0-1.19-.34,2.15,2.15,0,0,0-1.3.3.87.87,0,0,0-.39.7.73.73,0,0,0,.16.46,1.16,1.16,0,0,0,.51.35q.2.07,1.16.34a16.31,16.31,0,0,1,2,.61,2,2,0,0,1,.87.69A1.93,1.93,0,0,1,66.74,26a2.22,2.22,0,0,1-.38,1.24,2.49,2.49,0,0,1-1.11.9,4,4,0,0,1-1.64.32,3.66,3.66,0,0,1-2.31-.63A2.93,2.93,0,0,1,60.28,25.94Z"/><path class="cls-2" d="M67.82,24.38a4,4,0,0,1,1.2-3.2,3.62,3.62,0,0,1,2.45-.86,3.49,3.49,0,0,1,2.62,1.05,4,4,0,0,1,1,2.9,5.14,5.14,0,0,1-.45,2.36A3.19,3.19,0,0,1,73.35,28a3.82,3.82,0,0,1-1.88.48,3.5,3.5,0,0,1-2.64-1A4.18,4.18,0,0,1,67.82,24.38Zm1.35,0a3.31,3.31,0,0,0,.65,2.24,2.17,2.17,0,0,0,3.27,0,3.39,3.39,0,0,0,.65-2.28,3.22,3.22,0,0,0-.66-2.19,2.17,2.17,0,0,0-3.27,0A3.3,3.3,0,0,0,69.17,24.38Z"/><path class="cls-2" d="M85.87,28.26v-1a2.42,2.42,0,0,1-2.18,1.16A3.05,3.05,0,0,1,82,27.93a3.37,3.37,0,0,1-1.21-1.43,4.94,4.94,0,0,1-.43-2.11,5.53,5.53,0,0,1,.39-2.11,3.06,3.06,0,0,1,1.16-1.45,3.11,3.11,0,0,1,1.74-.51,2.6,2.6,0,0,1,2.15,1.07V17.53h1.31V28.26ZM81.7,24.38a3.38,3.38,0,0,0,.63,2.23,1.9,1.9,0,0,0,1.49.74,1.86,1.86,0,0,0,1.47-.71,3.26,3.26,0,0,0,.6-2.16,3.66,3.66,0,0,0-.62-2.34,1.89,1.89,0,0,0-1.52-.75,1.83,1.83,0,0,0-1.47.72A3.54,3.54,0,0,0,81.7,24.38Z"/><path class="cls-2" d="M94.49,25.76l1.36.17a3.32,3.32,0,0,1-1.19,1.85,4,4,0,0,1-4.93-.39,4.11,4.11,0,0,1-1-2.95,4.3,4.3,0,0,1,1-3,3.42,3.42,0,0,1,2.62-1.08,3.33,3.33,0,0,1,2.55,1.06,4.22,4.22,0,0,1,1,3q0,.12,0,.35h-5.8a3,3,0,0,0,.73,2,2.16,2.16,0,0,0,1.63.68A2,2,0,0,0,93.67,27,2.53,2.53,0,0,0,94.49,25.76Zm-4.33-2.13H94.5a2.64,2.64,0,0,0-.5-1.47,2,2,0,0,0-1.63-.76,2.09,2.09,0,0,0-1.53.61A2.4,2.4,0,0,0,90.16,23.63Z"/><path class="cls-2" d="M106.86,24.05V22.79h4.55v4A8,8,0,0,1,109.25,28a6.4,6.4,0,0,1-2.29.42,6.09,6.09,0,0,1-2.87-.68,4.47,4.47,0,0,1-2-2,6.17,6.17,0,0,1-.66-2.86,6.64,6.64,0,0,1,.66-2.93A4.36,4.36,0,0,1,104,18a5.91,5.91,0,0,1,2.83-.66,5.63,5.63,0,0,1,2.11.38,3.5,3.5,0,0,1,1.48,1.05,4.66,4.66,0,0,1,.81,1.76l-1.28.35a4,4,0,0,0-.6-1.29,2.47,2.47,0,0,0-1-.75,3.77,3.77,0,0,0-1.48-.28,4.37,4.37,0,0,0-1.68.3,3.15,3.15,0,0,0-1.15.78,3.72,3.72,0,0,0-.68,1.06,5.62,5.62,0,0,0-.41,2.16,5.24,5.24,0,0,0,.49,2.4,3.16,3.16,0,0,0,1.44,1.44,4.46,4.46,0,0,0,2,.47,4.76,4.76,0,0,0,1.8-.36,4.64,4.64,0,0,0,1.33-.76v-2Z"/><path class="cls-2" d="M113.35,19V17.53h1.32V19Zm0,9.22V20.49h1.32v7.78Z"/><path class="cls-2" d="M119.55,27.09l.19,1.16a4.89,4.89,0,0,1-1,.12,2.26,2.26,0,0,1-1.11-.23,1.27,1.27,0,0,1-.56-.6,4.71,4.71,0,0,1-.16-1.56V21.51h-1v-1h1V18.56l1.31-.79v2.72h1.33v1h-1.33v4.55a2.28,2.28,0,0,0,.07.72.55.55,0,0,0,.23.26.88.88,0,0,0,.45.09A4.27,4.27,0,0,0,119.55,27.09Z"/><path class="cls-2" d="M130.33,25.76l1.36.17a3.32,3.32,0,0,1-1.19,1.85,4,4,0,0,1-4.93-.39,4.11,4.11,0,0,1-1-2.95,4.3,4.3,0,0,1,1-3,3.42,3.42,0,0,1,2.62-1.08,3.33,3.33,0,0,1,2.55,1.06,4.22,4.22,0,0,1,1,3q0,.12,0,.35h-5.8a3,3,0,0,0,.73,2,2.16,2.16,0,0,0,1.63.68,2,2,0,0,0,1.24-.38A2.53,2.53,0,0,0,130.33,25.76ZM126,23.63h4.34a2.64,2.64,0,0,0-.5-1.47,2,2,0,0,0-1.63-.76,2.09,2.09,0,0,0-1.53.61A2.4,2.4,0,0,0,126,23.63Z"/><path class="cls-2" d="M133.35,28.26V20.49h1.19v1.11A2.8,2.8,0,0,1,137,20.31a3.24,3.24,0,0,1,1.29.25,2,2,0,0,1,.88.66,2.54,2.54,0,0,1,.41,1,7.56,7.56,0,0,1,.07,1.28v4.78h-1.32V23.53a3.56,3.56,0,0,0-.15-1.21,1.27,1.27,0,0,0-.55-.64,1.74,1.74,0,0,0-.92-.24,2.13,2.13,0,0,0-1.45.54,2.63,2.63,0,0,0-.61,2v4.25Z"/><path class="cls-2" d="M146,28.26V17.53h1.46L153.11,26V17.53h1.36V28.26H153l-5.64-8.44v8.44Z"/><path class="cls-2" d="M162,25.76l1.36.17a3.32,3.32,0,0,1-1.19,1.85,4,4,0,0,1-4.93-.39,4.11,4.11,0,0,1-1-2.95,4.3,4.3,0,0,1,1-3,3.42,3.42,0,0,1,2.62-1.08,3.33,3.33,0,0,1,2.55,1.06,4.22,4.22,0,0,1,1,3q0,.12,0,.35h-5.8a3,3,0,0,0,.73,2,2.16,2.16,0,0,0,1.63.68A2,2,0,0,0,161.2,27,2.53,2.53,0,0,0,162,25.76Zm-4.33-2.13H162a2.64,2.64,0,0,0-.5-1.47,2,2,0,0,0-1.63-.76,2.09,2.09,0,0,0-1.53.61A2.4,2.4,0,0,0,157.69,23.63Z"/><path class="cls-2" d="M167.91,27.09l.19,1.16a4.89,4.89,0,0,1-1,.12,2.26,2.26,0,0,1-1.11-.23,1.27,1.27,0,0,1-.56-.6,4.71,4.71,0,0,1-.16-1.56V21.51h-1v-1h1V18.56l1.31-.79v2.72h1.33v1h-1.33v4.55a2.28,2.28,0,0,0,.07.72.55.55,0,0,0,.23.26.88.88,0,0,0,.45.09A4.27,4.27,0,0,0,167.91,27.09Z"/><path class="cls-2" d="M170.42,28.26h-1.22V17.53h1.32v3.83a2.61,2.61,0,0,1,2.13-1,3.27,3.27,0,0,1,1.36.29,2.79,2.79,0,0,1,1.05.81,4,4,0,0,1,.65,1.26,5.21,5.21,0,0,1,.23,1.58,4.44,4.44,0,0,1-1,3.09,3.09,3.09,0,0,1-2.37,1.09,2.48,2.48,0,0,1-2.16-1.15Zm0-3.95a4,4,0,0,0,.38,2,1.88,1.88,0,0,0,3.18.27,3.41,3.41,0,0,0,.63-2.24,3.47,3.47,0,0,0-.6-2.25,1.84,1.84,0,0,0-1.46-.73,1.9,1.9,0,0,0-1.49.75A3.3,3.3,0,0,0,170.4,24.32Z"/><path class="cls-2" d="M182.87,25.76l1.36.17A3.32,3.32,0,0,1,183,27.78a4,4,0,0,1-4.93-.39,4.11,4.11,0,0,1-1-2.95,4.3,4.3,0,0,1,1-3,3.42,3.42,0,0,1,2.62-1.08,3.33,3.33,0,0,1,2.55,1.06,4.22,4.22,0,0,1,1,3q0,.12,0,.35h-5.8a3,3,0,0,0,.73,2,2.16,2.16,0,0,0,1.63.68,2,2,0,0,0,1.24-.38A2.53,2.53,0,0,0,182.87,25.76Zm-4.33-2.13h4.34a2.64,2.64,0,0,0-.5-1.47,2,2,0,0,0-1.63-.76,2.09,2.09,0,0,0-1.53.61A2.4,2.4,0,0,0,178.54,23.63Z"/><path class="cls-2" d="M191,27.31a4.91,4.91,0,0,1-1.41.88,4.07,4.07,0,0,1-1.45.26,2.83,2.83,0,0,1-2-.63,2.07,2.07,0,0,1-.69-1.6,2.13,2.13,0,0,1,.26-1,2.15,2.15,0,0,1,.68-.76,3.19,3.19,0,0,1,.95-.43,9.4,9.4,0,0,1,1.17-.2,12.05,12.05,0,0,0,2.35-.45c0-.18,0-.29,0-.34a1.46,1.46,0,0,0-.37-1.14,2.21,2.21,0,0,0-1.5-.45,2.33,2.33,0,0,0-1.37.33,2,2,0,0,0-.66,1.15l-1.29-.18a3.2,3.2,0,0,1,.58-1.34,2.54,2.54,0,0,1,1.16-.78,5.21,5.21,0,0,1,1.77-.27,4.67,4.67,0,0,1,1.62.23,2.14,2.14,0,0,1,.92.59,2.08,2.08,0,0,1,.41.9,7.42,7.42,0,0,1,.07,1.22V25a18.53,18.53,0,0,0,.08,2.33,2.92,2.92,0,0,0,.33.93h-1.38A2.79,2.79,0,0,1,191,27.31Zm-.11-2.94a9.67,9.67,0,0,1-2.15.5,5,5,0,0,0-1.15.26,1.15,1.15,0,0,0-.52.43,1.17,1.17,0,0,0,.22,1.51,1.72,1.72,0,0,0,1.17.35,2.71,2.71,0,0,0,1.35-.33,2,2,0,0,0,.87-.91,3.18,3.18,0,0,0,.21-1.32Z"/><path class="cls-2" d="M194.23,28.26V20.49h1.19v1.11a2.8,2.8,0,0,1,2.48-1.28,3.24,3.24,0,0,1,1.29.25,2,2,0,0,1,.88.66,2.54,2.54,0,0,1,.41,1,7.56,7.56,0,0,1,.07,1.28v4.78h-1.32V23.53a3.56,3.56,0,0,0-.15-1.21,1.27,1.27,0,0,0-.55-.64,1.74,1.74,0,0,0-.92-.24,2.13,2.13,0,0,0-1.45.54,2.63,2.63,0,0,0-.61,2v4.25Z"/><path class="cls-2" d="M202,25.94l1.3-.21a1.82,1.82,0,0,0,.61,1.2,2.13,2.13,0,0,0,1.4.42,2.06,2.06,0,0,0,1.35-.37,1.1,1.1,0,0,0,.44-.87.8.8,0,0,0-.39-.7,5.71,5.71,0,0,0-1.35-.45,12.22,12.22,0,0,1-2-.63,1.92,1.92,0,0,1-1.14-1.78,2,2,0,0,1,.24-1,2.14,2.14,0,0,1,.65-.74,2.72,2.72,0,0,1,.84-.38,4,4,0,0,1,1.14-.16,4.5,4.5,0,0,1,1.61.26,2.19,2.19,0,0,1,1,.71,2.79,2.79,0,0,1,.45,1.21l-1.29.18a1.41,1.41,0,0,0-.51-.94,1.86,1.86,0,0,0-1.19-.34,2.15,2.15,0,0,0-1.3.3.87.87,0,0,0-.39.7.73.73,0,0,0,.16.46,1.16,1.16,0,0,0,.51.35q.2.07,1.16.34a16.31,16.31,0,0,1,2,.61,2,2,0,0,1,.87.69A1.93,1.93,0,0,1,208.5,26a2.22,2.22,0,0,1-.38,1.24,2.49,2.49,0,0,1-1.11.9,4,4,0,0,1-1.64.32,3.66,3.66,0,0,1-2.31-.63A2.93,2.93,0,0,1,202,25.94Z"/><polygon id="_Trazado_" data-name="&lt;Trazado&gt;" class="cls-3" points="223.5 26.5 215.71 22 223.5 17.5 223.5 26.5"/><path id="_Trazado_2" data-name="&lt;Trazado&gt;" class="cls-4" d="M37.68,10.68H30a1.09,1.09,0,0,0,.18-.54,1.15,1.15,0,0,0-2.29,0,1.1,1.1,0,0,0,.18.54H20.43a1.16,1.16,0,0,0-.76.32,3.06,3.06,0,0,1,1.84,1.48H36.74v9.64H22.26v2H26.7l-1.21,10a.46.46,0,0,0,.4.63l.45.09a.64.64,0,0,0,.72-.45l1.3-10.22h1.39L31,34.35a.64.64,0,0,0,.72.45l.45-.09a.49.49,0,0,0,.4-.63l-1.21-10h6.28a1,1,0,0,0,1-1V11.71a1,1,0,0,0-1-1Z"/><path id="_Trazado_3" data-name="&lt;Trazado&gt;" class="cls-5" d="M16.57,14h0a2.33,2.33,0,0,1,2.33-2.37,2.35,2.35,0,1,1,0,4.71A2.32,2.32,0,0,1,16.57,14Z"/><path id="_Trazado_4" data-name="&lt;Trazado&gt;" class="cls-5" d="M17.33,16.91h0s.09,0,.13,0a5.61,5.61,0,0,1,2.87,0s.13,0,.18.09a1.43,1.43,0,0,0,1.12.14c1.3-.4,1.7-1.75,2.06-2.46a1.45,1.45,0,0,1,.45-.45l.22-.09a1.23,1.23,0,0,1,.58.09.94.94,0,0,1,.45,1.26,10.55,10.55,0,0,1-.58,1.07l-.23.32c-.72,1-1,1.61-2.38,2.06a2.53,2.53,0,0,1-.81.14c0,5-.13,9.86-.13,14.84a1.14,1.14,0,0,1-1.12,1.12A1.11,1.11,0,0,1,19,33.81V26.1h-.18v7.71a1.07,1.07,0,0,1-1.08,1.12,1.11,1.11,0,0,1-1.12-1.12V25s-.13.09-.18.13a1,1,0,0,1-.45.14.91.91,0,0,1-.85-.49c-2.65-4.89,1-7.13,2.15-7.84Z"/><path id="_Trazado_5" data-name="&lt;Trazado&gt;" class="cls-6" d="M33.51,14.81h1.79V16.6H33.87l-1.79,1.61v1.17H30.29V18.26c-.49-.45-1.17-1-1.7-1.48h-1.3L24.1,19.33v1.25H22.31V18.8h1.61l3.23-2.51V15H28.9v1.3c.49.36,1,.85,1.52,1.25h1.52c.49-.45,1.12-1,1.57-1.43Z"/><rect class="cls-7" width="232" height="0.75"/></g></g></svg>