<svg xmlns="http://www.w3.org/2000/svg" viewBox="0 0 169 44"><defs><style>.cls-1{fill:#f05032;stroke:#707070;stroke-miterlimit:10;}.cls-2{fill:#fff;}</style></defs><title>bt7_hover</title><g id="Capa_2" data-name="Capa 2"><g id="CONTENIDO"><rect class="cls-1" x="0.5" y="0.5" width="168" height="43"/><path class="cls-2" d="M55.65,15l1.23.31a4.14,4.14,0,0,1-1.39,2.31,3.84,3.84,0,0,1-2.46.8,4.42,4.42,0,0,1-2.45-.61,3.82,3.82,0,0,1-1.43-1.77,6.33,6.33,0,0,1-.49-2.5A5.49,5.49,0,0,1,49.21,11a3.8,3.8,0,0,1,1.58-1.64A4.61,4.61,0,0,1,53,8.84a3.81,3.81,0,0,1,2.35.71,3.69,3.69,0,0,1,1.33,2l-1.21.29a2.88,2.88,0,0,0-.94-1.48A2.5,2.5,0,0,0,53,9.9a3,3,0,0,0-1.79.51,2.71,2.71,0,0,0-1,1.38,5.56,5.56,0,0,0-.29,1.79,5.69,5.69,0,0,0,.35,2.07A2.58,2.58,0,0,0,51.35,17a3,3,0,0,0,1.58.44,2.65,2.65,0,0,0,1.75-.6A3.06,3.06,0,0,0,55.65,15Z"/><path class="cls-2" d="M58.24,18.31V11.57h1v1a2.78,2.78,0,0,1,.73-.95,1.27,1.27,0,0,1,.73-.23,2.23,2.23,0,0,1,1.17.37l-.39,1.06a1.64,1.64,0,0,0-.84-.25,1.09,1.09,0,0,0-.67.23,1.21,1.21,0,0,0-.42.63,4.45,4.45,0,0,0-.19,1.33v3.53Z"/><path class="cls-2" d="M67.2,16.14l1.18.15a2.88,2.88,0,0,1-1,1.61,3.5,3.5,0,0,1-4.27-.34A3.56,3.56,0,0,1,62.2,15a3.72,3.72,0,0,1,.88-2.64,3,3,0,0,1,2.27-.94,2.89,2.89,0,0,1,2.21.92,3.66,3.66,0,0,1,.86,2.59c0,.07,0,.17,0,.3h-5a2.59,2.59,0,0,0,.63,1.7,1.87,1.87,0,0,0,1.41.59,1.75,1.75,0,0,0,1.07-.33A2.19,2.19,0,0,0,67.2,16.14Zm-3.75-1.85h3.76A2.28,2.28,0,0,0,66.78,13a1.75,1.75,0,0,0-1.42-.66,1.81,1.81,0,0,0-1.32.53A2.08,2.08,0,0,0,63.45,14.29Z"/><path class="cls-2" d="M74.21,17.48a4.26,4.26,0,0,1-1.22.76,3.55,3.55,0,0,1-1.26.22A2.45,2.45,0,0,1,70,17.92a1.79,1.79,0,0,1-.6-1.39,1.84,1.84,0,0,1,.23-.9,1.86,1.86,0,0,1,.59-.66,2.78,2.78,0,0,1,.82-.37,8.44,8.44,0,0,1,1-.17,10.45,10.45,0,0,0,2-.39c0-.16,0-.26,0-.3a1.26,1.26,0,0,0-.32-1,1.91,1.91,0,0,0-1.3-.39,2,2,0,0,0-1.19.28,1.73,1.73,0,0,0-.57,1l-1.12-.15a2.77,2.77,0,0,1,.5-1.16,2.19,2.19,0,0,1,1-.68,4.48,4.48,0,0,1,1.53-.24,4.06,4.06,0,0,1,1.4.2,1.84,1.84,0,0,1,.79.51,1.8,1.8,0,0,1,.36.78A6.4,6.4,0,0,1,75.27,14v1.52a16.19,16.19,0,0,0,.07,2,2.56,2.56,0,0,0,.29.81H74.44A2.44,2.44,0,0,1,74.21,17.48Zm-.1-2.55a8.31,8.31,0,0,1-1.87.43,4.37,4.37,0,0,0-1,.23,1,1,0,0,0-.45.37,1,1,0,0,0,.19,1.3,1.49,1.49,0,0,0,1,.3,2.35,2.35,0,0,0,1.17-.29,1.78,1.78,0,0,0,.76-.79,2.76,2.76,0,0,0,.18-1.14Z"/><path class="cls-2" d="M81.44,15.84l1.12.15a2.91,2.91,0,0,1-.94,1.82,2.74,2.74,0,0,1-1.86.66,2.9,2.9,0,0,1-2.23-.9A3.67,3.67,0,0,1,76.69,15a4.71,4.71,0,0,1,.36-1.91,2.53,2.53,0,0,1,1.1-1.23,3.27,3.27,0,0,1,1.61-.41,2.8,2.8,0,0,1,1.8.56,2.55,2.55,0,0,1,.89,1.58l-1.11.17a1.84,1.84,0,0,0-.56-1,1.45,1.45,0,0,0-1-.34,1.77,1.77,0,0,0-1.4.62,2.94,2.94,0,0,0-.54,2,3,3,0,0,0,.52,2,1.69,1.69,0,0,0,1.36.62,1.6,1.6,0,0,0,1.12-.41A2,2,0,0,0,81.44,15.84Z"/><path class="cls-2" d="M83.55,10.32V9h1.14v1.31Zm0,8V11.57h1.14v6.74Z"/><path class="cls-2" d="M86,14.94a3.47,3.47,0,0,1,1-2.77,3.14,3.14,0,0,1,2.12-.75,3,3,0,0,1,2.27.91,3.47,3.47,0,0,1,.88,2.52,4.47,4.47,0,0,1-.39,2A2.76,2.76,0,0,1,90.79,18a3.3,3.3,0,0,1-1.63.41,3,3,0,0,1-2.29-.91A3.63,3.63,0,0,1,86,14.94Zm1.17,0a2.87,2.87,0,0,0,.57,1.94,1.88,1.88,0,0,0,2.84,0,2.94,2.94,0,0,0,.57-2A2.79,2.79,0,0,0,90.58,13a1.88,1.88,0,0,0-2.83,0A2.86,2.86,0,0,0,87.18,14.94Zm1.35-4.21L89.38,9h1.5l-1.4,1.78Z"/><path class="cls-2" d="M93.66,18.31V11.57h1v1a2.42,2.42,0,0,1,2.15-1.11,2.82,2.82,0,0,1,1.12.22,1.77,1.77,0,0,1,.76.57,2.21,2.21,0,0,1,.36.84,6.58,6.58,0,0,1,.06,1.11v4.15H98v-4.1a3.05,3.05,0,0,0-.13-1,1.09,1.09,0,0,0-.47-.55,1.5,1.5,0,0,0-.8-.21,1.85,1.85,0,0,0-1.26.46,2.29,2.29,0,0,0-.53,1.76v3.68Z"/><path class="cls-2" d="M108.88,18.31v-.85a2.1,2.1,0,0,1-1.88,1,2.64,2.64,0,0,1-1.48-.44,2.93,2.93,0,0,1-1-1.24,4.29,4.29,0,0,1-.37-1.83,4.79,4.79,0,0,1,.34-1.83,2.66,2.66,0,0,1,1-1.26,2.71,2.71,0,0,1,1.5-.44,2.25,2.25,0,0,1,1.08.26,2.29,2.29,0,0,1,.77.67V9h1.14v9.31Zm-3.61-3.36a2.93,2.93,0,0,0,.54,1.94,1.65,1.65,0,0,0,1.29.64,1.62,1.62,0,0,0,1.27-.61A2.82,2.82,0,0,0,108.9,15a3.17,3.17,0,0,0-.53-2,1.64,1.64,0,0,0-1.31-.65,1.58,1.58,0,0,0-1.27.62A3.07,3.07,0,0,0,105.27,14.94Z"/><path class="cls-2" d="M116.35,16.14l1.18.15a2.88,2.88,0,0,1-1,1.61,3.5,3.5,0,0,1-4.27-.34,3.56,3.56,0,0,1-.87-2.55,3.72,3.72,0,0,1,.88-2.64,3,3,0,0,1,2.27-.94,2.89,2.89,0,0,1,2.21.92,3.66,3.66,0,0,1,.86,2.59c0,.07,0,.17,0,.3h-5a2.59,2.59,0,0,0,.63,1.7,1.87,1.87,0,0,0,1.41.59,1.75,1.75,0,0,0,1.07-.33A2.19,2.19,0,0,0,116.35,16.14Zm-3.75-1.85h3.76a2.28,2.28,0,0,0-.43-1.28,1.75,1.75,0,0,0-1.42-.66,1.81,1.81,0,0,0-1.32.53A2.08,2.08,0,0,0,112.6,14.29Z"/><path class="cls-2" d="M118.94,18.31V9h1.14v9.31Z"/><path class="cls-2" d="M39.82,33.91V27.17h1v1a2.78,2.78,0,0,1,.73-.95,1.27,1.27,0,0,1,.73-.23,2.22,2.22,0,0,1,1.17.37l-.39,1.06a1.63,1.63,0,0,0-.84-.25,1.09,1.09,0,0,0-.67.22,1.22,1.22,0,0,0-.42.63A4.46,4.46,0,0,0,41,30.38v3.53Z"/><path class="cls-2" d="M48.78,31.74l1.18.15a2.88,2.88,0,0,1-1,1.61,3.5,3.5,0,0,1-4.27-.34,3.55,3.55,0,0,1-.87-2.55A3.73,3.73,0,0,1,44.66,28,3,3,0,0,1,46.93,27a2.88,2.88,0,0,1,2.21.92A3.66,3.66,0,0,1,50,30.52c0,.07,0,.17,0,.3H45a2.59,2.59,0,0,0,.63,1.7,1.87,1.87,0,0,0,1.41.59,1.75,1.75,0,0,0,1.07-.33A2.2,2.2,0,0,0,48.78,31.74ZM45,29.89h3.76a2.28,2.28,0,0,0-.43-1.28A1.75,1.75,0,0,0,46.94,28a1.81,1.81,0,0,0-1.32.53A2.08,2.08,0,0,0,45,29.89Z"/><path class="cls-2" d="M51.39,36.49V27.17h1V28a2.56,2.56,0,0,1,.83-.77A2.28,2.28,0,0,1,54.39,27a2.66,2.66,0,0,1,1.52.45,2.72,2.72,0,0,1,1,1.25,4.57,4.57,0,0,1,.34,1.77,4.5,4.5,0,0,1-.37,1.86,2.82,2.82,0,0,1-2.57,1.71,2.15,2.15,0,0,1-1-.24,2.31,2.31,0,0,1-.75-.61v3.28Zm1-5.92A2.93,2.93,0,0,0,53,32.5a1.62,1.62,0,0,0,1.28.62,1.65,1.65,0,0,0,1.3-.64,3.06,3.06,0,0,0,.54-2,3,3,0,0,0-.53-1.93,1.6,1.6,0,0,0-1.27-.64,1.65,1.65,0,0,0-1.29.68A3.05,3.05,0,0,0,52.43,30.58Z"/><path class="cls-2" d="M58.2,30.54a3.47,3.47,0,0,1,1-2.77A3.13,3.13,0,0,1,61.36,27a3,3,0,0,1,2.27.91,3.46,3.46,0,0,1,.88,2.52,4.46,4.46,0,0,1-.39,2A2.76,2.76,0,0,1,63,33.65a3.31,3.31,0,0,1-1.63.41,3,3,0,0,1-2.29-.91A3.63,3.63,0,0,1,58.2,30.54Zm1.17,0a2.87,2.87,0,0,0,.57,1.94,1.88,1.88,0,0,0,2.84,0,2.94,2.94,0,0,0,.57-2,2.79,2.79,0,0,0-.57-1.9,1.88,1.88,0,0,0-2.83,0A2.85,2.85,0,0,0,59.37,30.54Z"/><path class="cls-2" d="M65.4,31.9l1.13-.18a1.58,1.58,0,0,0,.53,1,1.85,1.85,0,0,0,1.22.36,1.79,1.79,0,0,0,1.17-.32,1,1,0,0,0,.38-.75.69.69,0,0,0-.34-.61,5,5,0,0,0-1.17-.39,10.65,10.65,0,0,1-1.74-.55,1.66,1.66,0,0,1-1-1.54,1.74,1.74,0,0,1,.21-.84,1.84,1.84,0,0,1,.56-.64,2.36,2.36,0,0,1,.73-.33,3.46,3.46,0,0,1,1-.14,3.9,3.9,0,0,1,1.39.23,1.91,1.91,0,0,1,.89.62,2.42,2.42,0,0,1,.39,1l-1.12.15a1.22,1.22,0,0,0-.44-.81,1.61,1.61,0,0,0-1-.29,1.87,1.87,0,0,0-1.12.26.75.75,0,0,0-.34.61.63.63,0,0,0,.14.4,1,1,0,0,0,.44.3l1,.29a14,14,0,0,1,1.69.53,1.72,1.72,0,0,1,.75.6,1.68,1.68,0,0,1,.27,1A1.92,1.92,0,0,1,70.66,33a2.14,2.14,0,0,1-1,.78,3.47,3.47,0,0,1-1.42.28,3.16,3.16,0,0,1-2-.55A2.53,2.53,0,0,1,65.4,31.9Z"/><path class="cls-2" d="M72.36,25.92V24.6H73.5v1.31Zm0,8V27.17H73.5v6.74Z"/><path class="cls-2" d="M77.74,32.89l.17,1A4.19,4.19,0,0,1,77,34a2,2,0,0,1-1-.2,1.11,1.11,0,0,1-.48-.52,4.11,4.11,0,0,1-.14-1.35V28.05h-.84v-.89h.84V25.5l1.14-.69v2.35h1.15v.89H76.59V32a2,2,0,0,0,.06.63.47.47,0,0,0,.2.22.76.76,0,0,0,.39.08A3.6,3.6,0,0,0,77.74,32.89Z"/><path class="cls-2" d="M78.43,30.54a3.47,3.47,0,0,1,1-2.77A3.13,3.13,0,0,1,81.59,27a3,3,0,0,1,2.27.91,3.46,3.46,0,0,1,.88,2.52,4.46,4.46,0,0,1-.39,2,2.76,2.76,0,0,1-1.14,1.16,3.31,3.31,0,0,1-1.63.41,3,3,0,0,1-2.29-.91A3.63,3.63,0,0,1,78.43,30.54Zm1.17,0a2.87,2.87,0,0,0,.57,1.94,1.88,1.88,0,0,0,2.84,0,2.94,2.94,0,0,0,.57-2A2.79,2.79,0,0,0,83,28.6a1.88,1.88,0,0,0-2.83,0A2.85,2.85,0,0,0,79.6,30.54Z"/><path class="cls-2" d="M86.07,33.91V27.17h1v1a2.78,2.78,0,0,1,.73-.95,1.27,1.27,0,0,1,.73-.23,2.22,2.22,0,0,1,1.17.37l-.39,1.06a1.63,1.63,0,0,0-.84-.25,1.09,1.09,0,0,0-.67.22,1.22,1.22,0,0,0-.42.63,4.46,4.46,0,0,0-.19,1.33v3.53Z"/><path class="cls-2" d="M90.42,25.92V24.6h1.14v1.31Zm0,8V27.17h1.14v6.74Z"/><path class="cls-2" d="M92.88,30.54a3.47,3.47,0,0,1,1-2.77A3.13,3.13,0,0,1,96,27a3,3,0,0,1,2.27.91,3.46,3.46,0,0,1,.88,2.52,4.46,4.46,0,0,1-.39,2,2.76,2.76,0,0,1-1.14,1.16,3.31,3.31,0,0,1-1.63.41,3,3,0,0,1-2.29-.91A3.63,3.63,0,0,1,92.88,30.54Zm1.17,0a2.87,2.87,0,0,0,.57,1.94,1.88,1.88,0,0,0,2.84,0,2.94,2.94,0,0,0,.57-2,2.79,2.79,0,0,0-.57-1.9,1.88,1.88,0,0,0-2.83,0A2.85,2.85,0,0,0,94.05,30.54Z"/><path class="cls-2" d="M104.12,33.91V24.6h1.14v9.31Z"/><path class="cls-2" d="M106.61,30.54a3.47,3.47,0,0,1,1-2.77,3.13,3.13,0,0,1,2.12-.75,3,3,0,0,1,2.27.91,3.46,3.46,0,0,1,.88,2.52,4.46,4.46,0,0,1-.39,2,2.76,2.76,0,0,1-1.14,1.16,3.31,3.31,0,0,1-1.63.41,3,3,0,0,1-2.29-.91A3.63,3.63,0,0,1,106.61,30.54Zm1.17,0a2.87,2.87,0,0,0,.57,1.94,1.88,1.88,0,0,0,2.84,0,2.94,2.94,0,0,0,.57-2,2.79,2.79,0,0,0-.57-1.9,1.88,1.88,0,0,0-2.83,0A2.85,2.85,0,0,0,107.78,30.54Z"/><path class="cls-2" d="M118.66,31.44l1.12.15a2.91,2.91,0,0,1-.94,1.82,2.74,2.74,0,0,1-1.86.66,2.9,2.9,0,0,1-2.23-.9,3.67,3.67,0,0,1-.84-2.59,4.7,4.7,0,0,1,.36-1.91,2.53,2.53,0,0,1,1.1-1.23A3.26,3.26,0,0,1,117,27a2.79,2.79,0,0,1,1.8.56,2.54,2.54,0,0,1,.89,1.58l-1.11.17a1.84,1.84,0,0,0-.56-1,1.45,1.45,0,0,0-1-.34,1.77,1.77,0,0,0-1.4.62,2.94,2.94,0,0,0-.54,2,3,3,0,0,0,.52,2,1.69,1.69,0,0,0,1.36.62,1.6,1.6,0,0,0,1.12-.41A2,2,0,0,0,118.66,31.44Z"/><path class="cls-2" d="M125.16,33.08a4.26,4.26,0,0,1-1.22.76,3.53,3.53,0,0,1-1.26.22,2.45,2.45,0,0,1-1.71-.54,1.79,1.79,0,0,1-.6-1.39,1.84,1.84,0,0,1,.23-.9,1.88,1.88,0,0,1,.59-.66,2.81,2.81,0,0,1,.82-.37,8.06,8.06,0,0,1,1-.17,10.44,10.44,0,0,0,2-.39c0-.16,0-.26,0-.3a1.26,1.26,0,0,0-.32-1,1.91,1.91,0,0,0-1.3-.39,2,2,0,0,0-1.19.28,1.73,1.73,0,0,0-.57,1l-1.12-.15a2.77,2.77,0,0,1,.5-1.16,2.19,2.19,0,0,1,1-.68,4.51,4.51,0,0,1,1.53-.24,4.06,4.06,0,0,1,1.4.2,1.85,1.85,0,0,1,.79.51,1.8,1.8,0,0,1,.36.78,6.42,6.42,0,0,1,.06,1.05v1.52a16.19,16.19,0,0,0,.07,2,2.56,2.56,0,0,0,.29.81h-1.19A2.44,2.44,0,0,1,125.16,33.08Zm-.1-2.55a8.37,8.37,0,0,1-1.87.43,4.27,4.27,0,0,0-1,.23,1,1,0,0,0-.45.37,1,1,0,0,0,.19,1.3,1.49,1.49,0,0,0,1,.3,2.36,2.36,0,0,0,1.17-.29,1.78,1.78,0,0,0,.76-.79,2.75,2.75,0,0,0,.18-1.14Z"/><path class="cls-2" d="M128,33.91V24.6h1.14v9.31Z"/></g></g></svg>