<svg xmlns="http://www.w3.org/2000/svg" viewBox="0 0 169 44"><defs><style>.cls-1{fill:#f05032;stroke:#707070;stroke-miterlimit:10;}.cls-2{fill:#fff;}</style></defs><title>bt8_hover</title><g id="Capa_2" data-name="Capa 2"><g id="CONTENIDO"><rect class="cls-1" x="0.5" y="0.5" width="168" height="43"/><path class="cls-2" d="M28.12,18.31,31.69,9H33l3.81,9.31h-1.4l-1.09-2.82H30.45l-1,2.82Zm2.69-3.82H34l-1-2.58q-.44-1.17-.66-1.93a11.73,11.73,0,0,1-.5,1.78Z"/><path class="cls-2" d="M42,18.31v-.85a2.1,2.1,0,0,1-1.88,1A2.64,2.64,0,0,1,38.67,18a2.93,2.93,0,0,1-1-1.24,4.29,4.29,0,0,1-.37-1.83,4.79,4.79,0,0,1,.34-1.83,2.66,2.66,0,0,1,1-1.26,2.71,2.71,0,0,1,1.5-.44,2.25,2.25,0,0,1,1.08.26,2.29,2.29,0,0,1,.77.67V9H43.1v9.31Zm-3.61-3.36A2.93,2.93,0,0,0,39,16.88a1.65,1.65,0,0,0,1.29.64,1.62,1.62,0,0,0,1.27-.61A2.82,2.82,0,0,0,42.06,15a3.17,3.17,0,0,0-.53-2,1.64,1.64,0,0,0-1.31-.65,1.58,1.58,0,0,0-1.27.62A3.07,3.07,0,0,0,38.43,14.94Z"/><path class="cls-2" d="M44.9,10.32V9H46v1.31Zm0,8V11.57H46v6.74Z"/><path class="cls-2" d="M52.18,15.84,53.3,16a2.91,2.91,0,0,1-.94,1.82,2.74,2.74,0,0,1-1.86.66,2.9,2.9,0,0,1-2.23-.9A3.67,3.67,0,0,1,47.43,15a4.71,4.71,0,0,1,.36-1.91,2.53,2.53,0,0,1,1.1-1.23,3.27,3.27,0,0,1,1.61-.41,2.8,2.8,0,0,1,1.8.56,2.55,2.55,0,0,1,.89,1.58l-1.11.17a1.84,1.84,0,0,0-.56-1,1.45,1.45,0,0,0-1-.34,1.77,1.77,0,0,0-1.4.62,2.94,2.94,0,0,0-.54,2,3,3,0,0,0,.52,2,1.69,1.69,0,0,0,1.36.62,1.6,1.6,0,0,0,1.12-.41A2,2,0,0,0,52.18,15.84Z"/><path class="cls-2" d="M54.29,10.32V9h1.14v1.31Zm0,8V11.57h1.14v6.74Z"/><path class="cls-2" d="M56.75,14.94a3.47,3.47,0,0,1,1-2.77,3.14,3.14,0,0,1,2.12-.75,3,3,0,0,1,2.27.91,3.47,3.47,0,0,1,.88,2.52,4.47,4.47,0,0,1-.39,2A2.76,2.76,0,0,1,61.54,18a3.3,3.3,0,0,1-1.63.41,3,3,0,0,1-2.29-.91A3.63,3.63,0,0,1,56.75,14.94Zm1.17,0a2.87,2.87,0,0,0,.57,1.94,1.88,1.88,0,0,0,2.84,0,2.94,2.94,0,0,0,.57-2A2.79,2.79,0,0,0,61.32,13a1.88,1.88,0,0,0-2.83,0A2.86,2.86,0,0,0,57.92,14.94Zm1.35-4.21L60.12,9h1.5l-1.4,1.78Z"/><path class="cls-2" d="M64.4,18.31V11.57h1v1a2.42,2.42,0,0,1,2.15-1.11,2.82,2.82,0,0,1,1.12.22,1.77,1.77,0,0,1,.76.57,2.21,2.21,0,0,1,.36.84,6.58,6.58,0,0,1,.06,1.11v4.15H68.74v-4.1a3.05,3.05,0,0,0-.13-1,1.09,1.09,0,0,0-.47-.55,1.5,1.5,0,0,0-.8-.21,1.85,1.85,0,0,0-1.26.46,2.29,2.29,0,0,0-.53,1.76v3.68Z"/><path class="cls-2" d="M79.62,18.31v-.85a2.1,2.1,0,0,1-1.88,1A2.64,2.64,0,0,1,76.25,18a2.93,2.93,0,0,1-1-1.24,4.29,4.29,0,0,1-.37-1.83,4.79,4.79,0,0,1,.34-1.83,2.66,2.66,0,0,1,1-1.26,2.71,2.71,0,0,1,1.5-.44,2.25,2.25,0,0,1,1.08.26,2.29,2.29,0,0,1,.77.67V9h1.14v9.31ZM76,14.94a2.93,2.93,0,0,0,.54,1.94,1.65,1.65,0,0,0,1.29.64,1.62,1.62,0,0,0,1.27-.61A2.82,2.82,0,0,0,79.64,15a3.17,3.17,0,0,0-.53-2,1.64,1.64,0,0,0-1.31-.65,1.58,1.58,0,0,0-1.27.62A3.07,3.07,0,0,0,76,14.94Z"/><path class="cls-2" d="M87.09,16.14l1.18.15a2.88,2.88,0,0,1-1,1.61A3.5,3.5,0,0,1,83,17.55,3.56,3.56,0,0,1,82.09,15,3.72,3.72,0,0,1,83,12.35a3,3,0,0,1,2.27-.94,2.89,2.89,0,0,1,2.21.92,3.66,3.66,0,0,1,.86,2.59c0,.07,0,.17,0,.3h-5a2.59,2.59,0,0,0,.63,1.7,1.87,1.87,0,0,0,1.41.59,1.75,1.75,0,0,0,1.07-.33A2.19,2.19,0,0,0,87.09,16.14Zm-3.75-1.85H87.1A2.28,2.28,0,0,0,86.67,13a1.75,1.75,0,0,0-1.42-.66,1.81,1.81,0,0,0-1.32.53A2.08,2.08,0,0,0,83.34,14.29Z"/><path class="cls-2" d="M97.71,17.48a4.26,4.26,0,0,1-1.22.76,3.55,3.55,0,0,1-1.26.22,2.45,2.45,0,0,1-1.71-.54,1.79,1.79,0,0,1-.6-1.39,1.84,1.84,0,0,1,.23-.9,1.86,1.86,0,0,1,.59-.66,2.78,2.78,0,0,1,.82-.37,8.44,8.44,0,0,1,1-.17,10.45,10.45,0,0,0,2-.39c0-.16,0-.26,0-.3a1.26,1.26,0,0,0-.32-1,1.91,1.91,0,0,0-1.3-.39,2,2,0,0,0-1.19.28,1.73,1.73,0,0,0-.57,1l-1.12-.15a2.77,2.77,0,0,1,.5-1.16,2.19,2.19,0,0,1,1-.68,4.48,4.48,0,0,1,1.53-.24,4.06,4.06,0,0,1,1.4.2,1.84,1.84,0,0,1,.79.51,1.8,1.8,0,0,1,.36.78A6.4,6.4,0,0,1,98.78,14v1.52a16.19,16.19,0,0,0,.07,2,2.56,2.56,0,0,0,.29.81H97.94A2.44,2.44,0,0,1,97.71,17.48Zm-.1-2.55a8.31,8.31,0,0,1-1.87.43,4.37,4.37,0,0,0-1,.23,1,1,0,0,0-.45.37,1,1,0,0,0,.19,1.3,1.49,1.49,0,0,0,1,.3,2.35,2.35,0,0,0,1.17-.29,1.78,1.78,0,0,0,.76-.79,2.76,2.76,0,0,0,.18-1.14Z"/><path class="cls-2" d="M100.53,18.31V11.57h1v1a2.78,2.78,0,0,1,.73-.95,1.27,1.27,0,0,1,.73-.23,2.23,2.23,0,0,1,1.17.37l-.39,1.06a1.64,1.64,0,0,0-.84-.25,1.09,1.09,0,0,0-.67.23,1.21,1.21,0,0,0-.42.63,4.45,4.45,0,0,0-.19,1.33v3.53Z"/><path class="cls-2" d="M109.27,15.84l1.12.15a2.91,2.91,0,0,1-.94,1.82,2.74,2.74,0,0,1-1.86.66,2.9,2.9,0,0,1-2.23-.9,3.67,3.67,0,0,1-.84-2.59,4.71,4.71,0,0,1,.36-1.91,2.53,2.53,0,0,1,1.1-1.23,3.27,3.27,0,0,1,1.61-.41,2.8,2.8,0,0,1,1.8.56,2.55,2.55,0,0,1,.89,1.58l-1.11.17a1.84,1.84,0,0,0-.56-1,1.45,1.45,0,0,0-1-.34,1.77,1.77,0,0,0-1.4.62,2.94,2.94,0,0,0-.54,2,3,3,0,0,0,.52,2,1.69,1.69,0,0,0,1.36.62,1.6,1.6,0,0,0,1.12-.41A2,2,0,0,0,109.27,15.84Z"/><path class="cls-2" d="M111.38,18.31V9h1.14v3.34a2.55,2.55,0,0,1,2-.93,2.73,2.73,0,0,1,1.3.29,1.73,1.73,0,0,1,.79.82,3.74,3.74,0,0,1,.24,1.51v4.27h-1.14V14a1.77,1.77,0,0,0-.37-1.25,1.38,1.38,0,0,0-1.05-.39,1.86,1.86,0,0,0-1,.26,1.49,1.49,0,0,0-.64.71,3.29,3.29,0,0,0-.19,1.24v3.69Z"/><path class="cls-2" d="M118.61,10.32V9h1.14v1.31Zm0,8V11.57h1.14v6.74Z"/><path class="cls-2" d="M123.37,18.31l-2.56-6.74H122l1.45,4q.23.65.43,1.36.15-.53.43-1.28l1.5-4.11H127l-2.55,6.74Z"/><path class="cls-2" d="M127.57,14.94a3.47,3.47,0,0,1,1-2.77,3.14,3.14,0,0,1,2.12-.75,3,3,0,0,1,2.27.91,3.47,3.47,0,0,1,.88,2.52,4.47,4.47,0,0,1-.39,2A2.76,2.76,0,0,1,132.36,18a3.3,3.3,0,0,1-1.63.41,3,3,0,0,1-2.29-.91A3.63,3.63,0,0,1,127.57,14.94Zm1.17,0a2.87,2.87,0,0,0,.57,1.94,1.88,1.88,0,0,0,2.84,0,2.94,2.94,0,0,0,.57-2,2.79,2.79,0,0,0-.57-1.89,1.88,1.88,0,0,0-2.83,0A2.86,2.86,0,0,0,128.74,14.94Z"/><path class="cls-2" d="M134.77,16.29l1.13-.18a1.58,1.58,0,0,0,.53,1,1.84,1.84,0,0,0,1.22.36,1.79,1.79,0,0,0,1.17-.32,1,1,0,0,0,.38-.75.7.7,0,0,0-.34-.61,5,5,0,0,0-1.17-.39,10.65,10.65,0,0,1-1.74-.55,1.67,1.67,0,0,1-1-1.55,1.74,1.74,0,0,1,.21-.83,1.85,1.85,0,0,1,.56-.64,2.34,2.34,0,0,1,.73-.33,3.43,3.43,0,0,1,1-.14,3.9,3.9,0,0,1,1.39.23,1.9,1.9,0,0,1,.89.62,2.42,2.42,0,0,1,.39,1l-1.12.15a1.22,1.22,0,0,0-.44-.81,1.62,1.62,0,0,0-1-.29,1.87,1.87,0,0,0-1.12.26.76.76,0,0,0-.34.61.63.63,0,0,0,.14.4,1,1,0,0,0,.44.3l1,.29a14,14,0,0,1,1.69.53,1.71,1.71,0,0,1,.75.6,1.67,1.67,0,0,1,.27,1A1.92,1.92,0,0,1,140,17.4a2.15,2.15,0,0,1-1,.78,3.49,3.49,0,0,1-1.42.28,3.17,3.17,0,0,1-2-.55A2.54,2.54,0,0,1,134.77,16.29Z"/><path class="cls-2" d="M19.24,36.49V27.17h1V28a2.56,2.56,0,0,1,.83-.77A2.28,2.28,0,0,1,22.24,27a2.66,2.66,0,0,1,1.52.45,2.72,2.72,0,0,1,1,1.25,4.57,4.57,0,0,1,.34,1.77,4.5,4.5,0,0,1-.37,1.86,2.82,2.82,0,0,1-2.57,1.71,2.15,2.15,0,0,1-1-.24,2.31,2.31,0,0,1-.75-.61v3.28Zm1-5.92a2.93,2.93,0,0,0,.53,1.92,1.62,1.62,0,0,0,1.28.62,1.65,1.65,0,0,0,1.3-.64,3.06,3.06,0,0,0,.54-2,3,3,0,0,0-.53-1.93,1.6,1.6,0,0,0-1.27-.64,1.65,1.65,0,0,0-1.29.68A3.05,3.05,0,0,0,20.28,30.58Z"/><path class="cls-2" d="M30.87,33.08a4.26,4.26,0,0,1-1.22.76,3.53,3.53,0,0,1-1.26.22,2.45,2.45,0,0,1-1.71-.54,1.79,1.79,0,0,1-.6-1.39,1.84,1.84,0,0,1,.23-.9,1.88,1.88,0,0,1,.59-.66,2.81,2.81,0,0,1,.82-.37,8.06,8.06,0,0,1,1-.17,10.44,10.44,0,0,0,2-.39c0-.16,0-.26,0-.3a1.26,1.26,0,0,0-.32-1,1.91,1.91,0,0,0-1.3-.39,2,2,0,0,0-1.19.28,1.73,1.73,0,0,0-.57,1l-1.12-.15a2.77,2.77,0,0,1,.5-1.16,2.19,2.19,0,0,1,1-.68A4.51,4.51,0,0,1,29.32,27a4.06,4.06,0,0,1,1.4.2,1.85,1.85,0,0,1,.79.51,1.8,1.8,0,0,1,.36.78,6.42,6.42,0,0,1,.06,1.05v1.52a16.19,16.19,0,0,0,.07,2,2.56,2.56,0,0,0,.29.81H31.1A2.44,2.44,0,0,1,30.87,33.08Zm-.1-2.55a8.37,8.37,0,0,1-1.87.43,4.27,4.27,0,0,0-1,.23,1,1,0,0,0-.45.37,1,1,0,0,0,.19,1.3,1.49,1.49,0,0,0,1,.3,2.36,2.36,0,0,0,1.17-.29,1.78,1.78,0,0,0,.76-.79,2.75,2.75,0,0,0,.18-1.14Z"/><path class="cls-2" d="M33.69,33.91V27.17h1v1a2.78,2.78,0,0,1,.73-.95,1.27,1.27,0,0,1,.73-.23,2.22,2.22,0,0,1,1.17.37L37,28.44a1.63,1.63,0,0,0-.84-.25,1.09,1.09,0,0,0-.67.22A1.22,1.22,0,0,0,35,29a4.46,4.46,0,0,0-.19,1.33v3.53Z"/><path class="cls-2" d="M42.43,33.08a4.26,4.26,0,0,1-1.22.76,3.53,3.53,0,0,1-1.26.22,2.45,2.45,0,0,1-1.71-.54,1.79,1.79,0,0,1-.6-1.39,1.84,1.84,0,0,1,.23-.9,1.88,1.88,0,0,1,.59-.66,2.81,2.81,0,0,1,.82-.37,8.06,8.06,0,0,1,1-.17,10.44,10.44,0,0,0,2-.39c0-.16,0-.26,0-.3a1.26,1.26,0,0,0-.32-1,1.91,1.91,0,0,0-1.3-.39,2,2,0,0,0-1.19.28,1.73,1.73,0,0,0-.57,1l-1.12-.15a2.77,2.77,0,0,1,.5-1.16,2.19,2.19,0,0,1,1-.68A4.51,4.51,0,0,1,40.88,27a4.06,4.06,0,0,1,1.4.2,1.85,1.85,0,0,1,.79.51,1.8,1.8,0,0,1,.36.78,6.42,6.42,0,0,1,.06,1.05v1.52a16.19,16.19,0,0,0,.07,2,2.56,2.56,0,0,0,.29.81H42.66A2.44,2.44,0,0,1,42.43,33.08Zm-.1-2.55a8.37,8.37,0,0,1-1.87.43,4.27,4.27,0,0,0-1,.23,1,1,0,0,0-.45.37,1,1,0,0,0,.19,1.3,1.49,1.49,0,0,0,1,.3,2.36,2.36,0,0,0,1.17-.29,1.78,1.78,0,0,0,.76-.79,2.75,2.75,0,0,0,.18-1.14Z"/><path class="cls-2" d="M53.27,31.44l1.12.15a2.91,2.91,0,0,1-.94,1.82,2.74,2.74,0,0,1-1.86.66,2.9,2.9,0,0,1-2.23-.9,3.67,3.67,0,0,1-.84-2.59,4.7,4.7,0,0,1,.36-1.91A2.53,2.53,0,0,1,50,27.42,3.26,3.26,0,0,1,51.6,27a2.79,2.79,0,0,1,1.8.56,2.54,2.54,0,0,1,.89,1.58l-1.11.17a1.84,1.84,0,0,0-.56-1,1.45,1.45,0,0,0-1-.34,1.77,1.77,0,0,0-1.4.62,2.94,2.94,0,0,0-.54,2,3,3,0,0,0,.52,2,1.69,1.69,0,0,0,1.36.62,1.6,1.6,0,0,0,1.12-.41A2,2,0,0,0,53.27,31.44Z"/><path class="cls-2" d="M54.95,30.54a3.47,3.47,0,0,1,1-2.77A3.13,3.13,0,0,1,58.11,27a3,3,0,0,1,2.27.91,3.46,3.46,0,0,1,.88,2.52,4.46,4.46,0,0,1-.39,2,2.76,2.76,0,0,1-1.14,1.16,3.31,3.31,0,0,1-1.63.41,3,3,0,0,1-2.29-.91A3.63,3.63,0,0,1,54.95,30.54Zm1.17,0a2.87,2.87,0,0,0,.57,1.94,1.88,1.88,0,0,0,2.84,0,2.94,2.94,0,0,0,.57-2,2.79,2.79,0,0,0-.57-1.9,1.88,1.88,0,0,0-2.83,0A2.85,2.85,0,0,0,56.12,30.54Z"/><path class="cls-2" d="M62.6,33.91V27.17h1v1A2.43,2.43,0,0,1,65.78,27a2.84,2.84,0,0,1,1.12.22,1.76,1.76,0,0,1,.76.58,2.21,2.21,0,0,1,.36.84,6.57,6.57,0,0,1,.06,1.11v4.15H66.94v-4.1a3,3,0,0,0-.13-1,1.09,1.09,0,0,0-.47-.55,1.5,1.5,0,0,0-.8-.21,1.85,1.85,0,0,0-1.26.46,2.29,2.29,0,0,0-.53,1.76v3.68Z"/><path class="cls-2" d="M72.33,32.89l.17,1a4.19,4.19,0,0,1-.86.1,2,2,0,0,1-1-.2,1.11,1.11,0,0,1-.48-.52A4.11,4.11,0,0,1,70,31.93V28.05h-.84v-.89H70V25.5l1.14-.69v2.35h1.15v.89H71.18V32a2,2,0,0,0,.06.63.47.47,0,0,0,.2.22.76.76,0,0,0,.39.08A3.6,3.6,0,0,0,72.33,32.89Z"/><path class="cls-2" d="M73.43,33.91V27.17h1v1a2.78,2.78,0,0,1,.73-.95,1.27,1.27,0,0,1,.73-.23,2.22,2.22,0,0,1,1.17.37l-.39,1.06a1.63,1.63,0,0,0-.84-.25,1.09,1.09,0,0,0-.67.22,1.22,1.22,0,0,0-.42.63,4.46,4.46,0,0,0-.19,1.33v3.53Z"/><path class="cls-2" d="M77.35,30.54a3.47,3.47,0,0,1,1-2.77A3.13,3.13,0,0,1,80.51,27a3,3,0,0,1,2.27.91,3.46,3.46,0,0,1,.88,2.52,4.46,4.46,0,0,1-.39,2,2.76,2.76,0,0,1-1.14,1.16,3.31,3.31,0,0,1-1.63.41,3,3,0,0,1-2.29-.91A3.63,3.63,0,0,1,77.35,30.54Zm1.17,0a2.87,2.87,0,0,0,.57,1.94,1.88,1.88,0,0,0,2.84,0,2.94,2.94,0,0,0,.57-2,2.79,2.79,0,0,0-.57-1.9,1.88,1.88,0,0,0-2.83,0A2.85,2.85,0,0,0,78.52,30.54Z"/><path class="cls-2" d="M85,33.91V24.6h1.14v9.31Z"/><path class="cls-2" d="M92.29,33.08a4.26,4.26,0,0,1-1.22.76,3.53,3.53,0,0,1-1.26.22,2.45,2.45,0,0,1-1.71-.54,1.79,1.79,0,0,1-.6-1.39,1.84,1.84,0,0,1,.23-.9,1.88,1.88,0,0,1,.59-.66,2.81,2.81,0,0,1,.82-.37,8.06,8.06,0,0,1,1-.17,10.44,10.44,0,0,0,2-.39c0-.16,0-.26,0-.3a1.26,1.26,0,0,0-.32-1,1.91,1.91,0,0,0-1.3-.39,2,2,0,0,0-1.19.28,1.73,1.73,0,0,0-.57,1l-1.12-.15a2.77,2.77,0,0,1,.5-1.16,2.19,2.19,0,0,1,1-.68A4.51,4.51,0,0,1,90.74,27a4.06,4.06,0,0,1,1.4.2,1.85,1.85,0,0,1,.79.51,1.8,1.8,0,0,1,.36.78,6.42,6.42,0,0,1,.06,1.05v1.52a16.19,16.19,0,0,0,.07,2,2.56,2.56,0,0,0,.29.81H92.52A2.44,2.44,0,0,1,92.29,33.08Zm-.1-2.55a8.37,8.37,0,0,1-1.87.43,4.27,4.27,0,0,0-1,.23,1,1,0,0,0-.45.37,1,1,0,0,0,.19,1.3,1.49,1.49,0,0,0,1,.3,2.36,2.36,0,0,0,1.17-.29,1.78,1.78,0,0,0,.76-.79,2.75,2.75,0,0,0,.18-1.14Z"/><path class="cls-2" d="M95.11,33.91V27.17h1v1a2.78,2.78,0,0,1,.73-.95A1.27,1.27,0,0,1,97.6,27a2.22,2.22,0,0,1,1.17.37l-.39,1.06a1.63,1.63,0,0,0-.84-.25,1.09,1.09,0,0,0-.67.22,1.22,1.22,0,0,0-.42.63,4.46,4.46,0,0,0-.19,1.33v3.53Z"/><path class="cls-2" d="M107.46,31.44l1.12.15a2.91,2.91,0,0,1-.94,1.82,2.74,2.74,0,0,1-1.86.66,2.9,2.9,0,0,1-2.23-.9,3.67,3.67,0,0,1-.84-2.59,4.7,4.7,0,0,1,.36-1.91,2.53,2.53,0,0,1,1.1-1.23,3.26,3.26,0,0,1,1.61-.41,2.79,2.79,0,0,1,1.8.56,2.54,2.54,0,0,1,.89,1.58l-1.11.17a1.84,1.84,0,0,0-.56-1,1.45,1.45,0,0,0-1-.34,1.77,1.77,0,0,0-1.4.62,2.94,2.94,0,0,0-.54,2,3,3,0,0,0,.52,2,1.69,1.69,0,0,0,1.36.62,1.6,1.6,0,0,0,1.12-.41A2,2,0,0,0,107.46,31.44Z"/><path class="cls-2" d="M114,33.08a4.26,4.26,0,0,1-1.22.76,3.53,3.53,0,0,1-1.26.22,2.45,2.45,0,0,1-1.71-.54,1.79,1.79,0,0,1-.6-1.39,1.84,1.84,0,0,1,.23-.9,1.88,1.88,0,0,1,.59-.66,2.81,2.81,0,0,1,.82-.37,8.06,8.06,0,0,1,1-.17,10.44,10.44,0,0,0,2-.39c0-.16,0-.26,0-.3a1.26,1.26,0,0,0-.32-1,1.91,1.91,0,0,0-1.3-.39,2,2,0,0,0-1.19.28,1.73,1.73,0,0,0-.57,1l-1.12-.15a2.77,2.77,0,0,1,.5-1.16,2.19,2.19,0,0,1,1-.68,4.51,4.51,0,0,1,1.53-.24,4.06,4.06,0,0,1,1.4.2,1.85,1.85,0,0,1,.79.51,1.8,1.8,0,0,1,.36.78,6.42,6.42,0,0,1,.06,1.05v1.52a16.19,16.19,0,0,0,.07,2,2.56,2.56,0,0,0,.29.81h-1.19A2.44,2.44,0,0,1,114,33.08Zm-.1-2.55A8.37,8.37,0,0,1,112,31a4.27,4.27,0,0,0-1,.23,1,1,0,0,0-.45.37,1,1,0,0,0,.19,1.3,1.49,1.49,0,0,0,1,.3,2.36,2.36,0,0,0,1.17-.29,1.78,1.78,0,0,0,.76-.79,2.75,2.75,0,0,0,.18-1.14Z"/><path class="cls-2" d="M116.79,33.91V27.17h1v.95a2.4,2.4,0,0,1,.84-.8,2.37,2.37,0,0,1,1.2-.3,2.21,2.21,0,0,1,1.23.31,1.66,1.66,0,0,1,.68.87A2.42,2.42,0,0,1,123.85,27a2,2,0,0,1,1.54.56,2.37,2.37,0,0,1,.54,1.71v4.63h-1.14V29.66a3.12,3.12,0,0,0-.11-1,1,1,0,0,0-.4-.49,1.26,1.26,0,0,0-.69-.18,1.6,1.6,0,0,0-1.18.47,2.08,2.08,0,0,0-.47,1.51v3.92H120.8V29.53a1.92,1.92,0,0,0-.28-1.14,1.06,1.06,0,0,0-.91-.38,1.66,1.66,0,0,0-.89.25,1.45,1.45,0,0,0-.59.74,4.17,4.17,0,0,0-.18,1.41v3.5Z"/><path class="cls-2" d="M128.68,33.91h-1.06V24.6h1.14v3.32a2.26,2.26,0,0,1,1.85-.91,2.82,2.82,0,0,1,1.18.25,2.4,2.4,0,0,1,.91.7,3.41,3.41,0,0,1,.56,1.1,4.54,4.54,0,0,1,.2,1.37,3.85,3.85,0,0,1-.86,2.68,2.68,2.68,0,0,1-2.06.95,2.15,2.15,0,0,1-1.87-1Zm0-3.42a3.49,3.49,0,0,0,.33,1.75,1.63,1.63,0,0,0,2.75.23,3,3,0,0,0,.55-1.94,3,3,0,0,0-.52-1.95A1.59,1.59,0,0,0,130.5,28a1.64,1.64,0,0,0-1.29.65A2.86,2.86,0,0,0,128.67,30.49Z"/><path class="cls-2" d="M134.86,25.92V24.6H136v1.31Zm0,8V27.17H136v6.74Z"/><path class="cls-2" d="M137.32,30.54a3.47,3.47,0,0,1,1-2.77,3.13,3.13,0,0,1,2.12-.75,3,3,0,0,1,2.27.91,3.46,3.46,0,0,1,.88,2.52,4.46,4.46,0,0,1-.39,2,2.76,2.76,0,0,1-1.14,1.16,3.31,3.31,0,0,1-1.63.41,3,3,0,0,1-2.29-.91A3.63,3.63,0,0,1,137.32,30.54Zm1.17,0a2.87,2.87,0,0,0,.57,1.94,1.88,1.88,0,0,0,2.84,0,2.94,2.94,0,0,0,.57-2,2.79,2.79,0,0,0-.57-1.9,1.88,1.88,0,0,0-2.83,0A2.85,2.85,0,0,0,138.49,30.54Z"/><path class="cls-2" d="M144.52,31.9l1.13-.18a1.58,1.58,0,0,0,.53,1,1.85,1.85,0,0,0,1.22.36,1.79,1.79,0,0,0,1.17-.32,1,1,0,0,0,.38-.75.69.69,0,0,0-.34-.61,5,5,0,0,0-1.17-.39,10.65,10.65,0,0,1-1.74-.55,1.66,1.66,0,0,1-1-1.54,1.74,1.74,0,0,1,.21-.84,1.84,1.84,0,0,1,.56-.64,2.36,2.36,0,0,1,.73-.33,3.46,3.46,0,0,1,1-.14,3.9,3.9,0,0,1,1.39.23,1.91,1.91,0,0,1,.89.62,2.42,2.42,0,0,1,.39,1l-1.12.15a1.22,1.22,0,0,0-.44-.81,1.61,1.61,0,0,0-1-.29,1.87,1.87,0,0,0-1.12.26.75.75,0,0,0-.34.61.63.63,0,0,0,.14.4,1,1,0,0,0,.44.3l1,.29a14,14,0,0,1,1.69.53,1.72,1.72,0,0,1,.75.6,1.68,1.68,0,0,1,.27,1,1.92,1.92,0,0,1-.33,1.08,2.14,2.14,0,0,1-1,.78,3.47,3.47,0,0,1-1.42.28,3.16,3.16,0,0,1-2-.55A2.53,2.53,0,0,1,144.52,31.9Z"/></g></g></svg>