<svg xmlns="http://www.w3.org/2000/svg" viewBox="0 0 169 44"><defs><style>.cls-1{fill:#f05032;stroke:#707070;stroke-miterlimit:10;}.cls-2{fill:#fff;}</style></defs><title>bt9_hover</title><g id="Capa_2" data-name="Capa 2"><g id="CONTENIDO"><rect class="cls-1" x="0.5" y="0.5" width="168" height="43"/><path class="cls-2" d="M19.81,18.31,23.38,9h1.33l3.81,9.31h-1.4L26,15.49H22.14l-1,2.82Zm2.69-3.82h3.15l-1-2.58Q24.23,10.74,24,10a11.73,11.73,0,0,1-.5,1.78Z"/><path class="cls-2" d="M29.36,20.89V11.57h1v.88a2.57,2.57,0,0,1,.83-.77,2.29,2.29,0,0,1,1.12-.26,2.67,2.67,0,0,1,1.52.44,2.73,2.73,0,0,1,1,1.25,4.57,4.57,0,0,1,.34,1.77,4.49,4.49,0,0,1-.37,1.86,2.82,2.82,0,0,1-2.57,1.71,2.16,2.16,0,0,1-1-.24,2.31,2.31,0,0,1-.75-.61v3.28Zm1-5.92a2.94,2.94,0,0,0,.53,1.92,1.62,1.62,0,0,0,1.28.62,1.65,1.65,0,0,0,1.3-.64,3.06,3.06,0,0,0,.54-2A3,3,0,0,0,33.51,13a1.6,1.6,0,0,0-1.27-.64A1.65,1.65,0,0,0,31,13,3.06,3.06,0,0,0,30.39,15Z"/><path class="cls-2" d="M36.56,18.31V9H37.7v9.31Z"/><path class="cls-2" d="M39.48,10.32V9h1.14v1.31Zm0,8V11.57h1.14v6.74Z"/><path class="cls-2" d="M46.76,15.84l1.12.15a2.91,2.91,0,0,1-.94,1.82,2.74,2.74,0,0,1-1.86.66,2.9,2.9,0,0,1-2.23-.9A3.67,3.67,0,0,1,42,15a4.71,4.71,0,0,1,.36-1.91,2.53,2.53,0,0,1,1.1-1.23,3.27,3.27,0,0,1,1.61-.41,2.8,2.8,0,0,1,1.8.56,2.55,2.55,0,0,1,.89,1.58l-1.11.17a1.84,1.84,0,0,0-.56-1,1.45,1.45,0,0,0-1-.34,1.77,1.77,0,0,0-1.4.62,2.94,2.94,0,0,0-.54,2,3,3,0,0,0,.52,2,1.69,1.69,0,0,0,1.36.62,1.6,1.6,0,0,0,1.12-.41A2,2,0,0,0,46.76,15.84Z"/><path class="cls-2" d="M53.26,17.48a4.26,4.26,0,0,1-1.22.76,3.55,3.55,0,0,1-1.26.22,2.45,2.45,0,0,1-1.71-.54,1.79,1.79,0,0,1-.6-1.39,1.84,1.84,0,0,1,.23-.9,1.86,1.86,0,0,1,.59-.66,2.78,2.78,0,0,1,.82-.37,8.44,8.44,0,0,1,1-.17,10.45,10.45,0,0,0,2-.39c0-.16,0-.26,0-.3a1.26,1.26,0,0,0-.32-1,1.91,1.91,0,0,0-1.3-.39,2,2,0,0,0-1.19.28,1.73,1.73,0,0,0-.57,1l-1.12-.15a2.77,2.77,0,0,1,.5-1.16,2.19,2.19,0,0,1,1-.68,4.48,4.48,0,0,1,1.53-.24,4.06,4.06,0,0,1,1.4.2,1.84,1.84,0,0,1,.79.51,1.8,1.8,0,0,1,.36.78A6.4,6.4,0,0,1,54.32,14v1.52a16.19,16.19,0,0,0,.07,2,2.56,2.56,0,0,0,.29.81H53.49A2.44,2.44,0,0,1,53.26,17.48Zm-.1-2.55a8.31,8.31,0,0,1-1.87.43,4.37,4.37,0,0,0-1,.23,1,1,0,0,0-.45.37,1,1,0,0,0,.19,1.3,1.49,1.49,0,0,0,1,.3,2.35,2.35,0,0,0,1.17-.29,1.78,1.78,0,0,0,.76-.79,2.76,2.76,0,0,0,.18-1.14Z"/><path class="cls-2" d="M60.49,15.84l1.12.15a2.91,2.91,0,0,1-.94,1.82,2.74,2.74,0,0,1-1.86.66,2.9,2.9,0,0,1-2.23-.9A3.67,3.67,0,0,1,55.74,15a4.71,4.71,0,0,1,.36-1.91,2.53,2.53,0,0,1,1.1-1.23,3.27,3.27,0,0,1,1.61-.41,2.8,2.8,0,0,1,1.8.56,2.55,2.55,0,0,1,.89,1.58l-1.11.17a1.84,1.84,0,0,0-.56-1,1.45,1.45,0,0,0-1-.34,1.77,1.77,0,0,0-1.4.62,2.94,2.94,0,0,0-.54,2,3,3,0,0,0,.52,2,1.69,1.69,0,0,0,1.36.62,1.6,1.6,0,0,0,1.12-.41A2,2,0,0,0,60.49,15.84Z"/><path class="cls-2" d="M62.6,10.32V9h1.14v1.31Zm0,8V11.57h1.14v6.74Z"/><path class="cls-2" d="M65.06,14.94a3.47,3.47,0,0,1,1-2.77,3.14,3.14,0,0,1,2.12-.75,3,3,0,0,1,2.27.91,3.47,3.47,0,0,1,.88,2.52,4.47,4.47,0,0,1-.39,2A2.76,2.76,0,0,1,69.85,18a3.3,3.3,0,0,1-1.63.41,3,3,0,0,1-2.29-.91A3.63,3.63,0,0,1,65.06,14.94Zm1.17,0a2.87,2.87,0,0,0,.57,1.94,1.88,1.88,0,0,0,2.84,0,2.94,2.94,0,0,0,.57-2A2.79,2.79,0,0,0,69.63,13a1.88,1.88,0,0,0-2.83,0A2.86,2.86,0,0,0,66.23,14.94Zm1.35-4.21L68.43,9h1.5l-1.4,1.78Z"/><path class="cls-2" d="M72.71,18.31V11.57h1v1a2.42,2.42,0,0,1,2.15-1.11,2.82,2.82,0,0,1,1.12.22,1.77,1.77,0,0,1,.76.57,2.21,2.21,0,0,1,.36.84,6.58,6.58,0,0,1,.06,1.11v4.15H77v-4.1a3.05,3.05,0,0,0-.13-1,1.09,1.09,0,0,0-.47-.55,1.5,1.5,0,0,0-.8-.21,1.85,1.85,0,0,0-1.26.46,2.29,2.29,0,0,0-.53,1.76v3.68Z"/><path class="cls-2" d="M87.93,18.31v-.85a2.1,2.1,0,0,1-1.88,1A2.64,2.64,0,0,1,84.56,18a2.93,2.93,0,0,1-1-1.24,4.29,4.29,0,0,1-.37-1.83,4.79,4.79,0,0,1,.34-1.83,2.66,2.66,0,0,1,1-1.26,2.71,2.71,0,0,1,1.5-.44,2.25,2.25,0,0,1,1.08.26,2.29,2.29,0,0,1,.77.67V9H89v9.31Zm-3.61-3.36a2.93,2.93,0,0,0,.54,1.94,1.65,1.65,0,0,0,1.29.64,1.62,1.62,0,0,0,1.27-.61A2.82,2.82,0,0,0,87.95,15a3.17,3.17,0,0,0-.53-2,1.64,1.64,0,0,0-1.31-.65,1.58,1.58,0,0,0-1.27.62A3.07,3.07,0,0,0,84.32,14.94Z"/><path class="cls-2" d="M95.4,16.14l1.18.15a2.88,2.88,0,0,1-1,1.61,3.5,3.5,0,0,1-4.27-.34A3.56,3.56,0,0,1,90.4,15a3.72,3.72,0,0,1,.88-2.64,3,3,0,0,1,2.27-.94,2.89,2.89,0,0,1,2.21.92,3.66,3.66,0,0,1,.86,2.59c0,.07,0,.17,0,.3h-5a2.59,2.59,0,0,0,.63,1.7,1.87,1.87,0,0,0,1.41.59,1.75,1.75,0,0,0,1.07-.33A2.19,2.19,0,0,0,95.4,16.14Zm-3.75-1.85h3.76A2.28,2.28,0,0,0,95,13a1.75,1.75,0,0,0-1.42-.66,1.81,1.81,0,0,0-1.32.53A2.08,2.08,0,0,0,91.65,14.29Z"/><path class="cls-2" d="M106,15.84l1.12.15a2.91,2.91,0,0,1-.94,1.82,2.74,2.74,0,0,1-1.86.66,2.9,2.9,0,0,1-2.23-.9,3.67,3.67,0,0,1-.84-2.59,4.71,4.71,0,0,1,.36-1.91,2.53,2.53,0,0,1,1.1-1.23,3.27,3.27,0,0,1,1.61-.41,2.8,2.8,0,0,1,1.8.56,2.55,2.55,0,0,1,.89,1.58l-1.11.17a1.84,1.84,0,0,0-.56-1,1.45,1.45,0,0,0-1-.34A1.77,1.77,0,0,0,103,13a2.94,2.94,0,0,0-.54,2,3,3,0,0,0,.52,2,1.69,1.69,0,0,0,1.36.62,1.6,1.6,0,0,0,1.12-.41A2,2,0,0,0,106,15.84Z"/><path class="cls-2" d="M112.53,17.48a4.26,4.26,0,0,1-1.22.76,3.55,3.55,0,0,1-1.26.22,2.45,2.45,0,0,1-1.71-.54,1.79,1.79,0,0,1-.6-1.39,1.84,1.84,0,0,1,.23-.9,1.86,1.86,0,0,1,.59-.66,2.78,2.78,0,0,1,.82-.37,8.44,8.44,0,0,1,1-.17,10.45,10.45,0,0,0,2-.39c0-.16,0-.26,0-.3a1.26,1.26,0,0,0-.32-1,1.91,1.91,0,0,0-1.3-.39,2,2,0,0,0-1.19.28,1.73,1.73,0,0,0-.57,1l-1.12-.15a2.77,2.77,0,0,1,.5-1.16,2.19,2.19,0,0,1,1-.68,4.48,4.48,0,0,1,1.53-.24,4.06,4.06,0,0,1,1.4.2,1.84,1.84,0,0,1,.79.51,1.8,1.8,0,0,1,.36.78,6.4,6.4,0,0,1,.06,1.05v1.52a16.19,16.19,0,0,0,.07,2,2.56,2.56,0,0,0,.29.81h-1.19A2.44,2.44,0,0,1,112.53,17.48Zm-.1-2.55a8.31,8.31,0,0,1-1.87.43,4.37,4.37,0,0,0-1,.23,1,1,0,0,0-.45.37,1,1,0,0,0,.19,1.3,1.49,1.49,0,0,0,1,.3,2.35,2.35,0,0,0,1.17-.29,1.78,1.78,0,0,0,.76-.79,2.76,2.76,0,0,0,.18-1.14Z"/><path class="cls-2" d="M115.36,18.31V11.57h1v.95a2.4,2.4,0,0,1,.84-.8,2.37,2.37,0,0,1,1.2-.3,2.22,2.22,0,0,1,1.23.31,1.67,1.67,0,0,1,.68.87,2.42,2.42,0,0,1,2.08-1.18A2.05,2.05,0,0,1,124,12a2.37,2.37,0,0,1,.54,1.71v4.63h-1.14V14.06a3.12,3.12,0,0,0-.11-1,1,1,0,0,0-.4-.49,1.26,1.26,0,0,0-.69-.18,1.6,1.6,0,0,0-1.18.47,2.08,2.08,0,0,0-.47,1.51v3.92h-1.14V13.93a1.92,1.92,0,0,0-.28-1.14,1.06,1.06,0,0,0-.91-.38,1.65,1.65,0,0,0-.89.25,1.44,1.44,0,0,0-.59.74,4.18,4.18,0,0,0-.18,1.41v3.5Z"/><path class="cls-2" d="M127.24,18.31h-1.06V9h1.14v3.32a2.26,2.26,0,0,1,1.85-.91,2.83,2.83,0,0,1,1.18.25,2.4,2.4,0,0,1,.91.7,3.41,3.41,0,0,1,.56,1.1,4.53,4.53,0,0,1,.2,1.37,3.85,3.85,0,0,1-.86,2.68,2.68,2.68,0,0,1-2.06.95,2.15,2.15,0,0,1-1.87-1Zm0-3.42a3.49,3.49,0,0,0,.33,1.75,1.63,1.63,0,0,0,2.75.23,3,3,0,0,0,.55-1.94,3,3,0,0,0-.52-1.95,1.59,1.59,0,0,0-1.27-.63,1.64,1.64,0,0,0-1.29.65A2.86,2.86,0,0,0,127.23,14.89Z"/><path class="cls-2" d="M133.42,10.32V9h1.14v1.31Zm0,8V11.57h1.14v6.74Z"/><path class="cls-2" d="M135.88,14.94a3.47,3.47,0,0,1,1-2.77,3.14,3.14,0,0,1,2.12-.75,3,3,0,0,1,2.27.91,3.47,3.47,0,0,1,.88,2.52,4.47,4.47,0,0,1-.39,2A2.76,2.76,0,0,1,140.67,18a3.3,3.3,0,0,1-1.63.41,3,3,0,0,1-2.29-.91A3.63,3.63,0,0,1,135.88,14.94Zm1.17,0a2.87,2.87,0,0,0,.57,1.94,1.88,1.88,0,0,0,2.84,0,2.94,2.94,0,0,0,.57-2,2.79,2.79,0,0,0-.57-1.89,1.88,1.88,0,0,0-2.83,0A2.86,2.86,0,0,0,137.05,14.94Z"/><path class="cls-2" d="M143.08,16.29l1.13-.18a1.58,1.58,0,0,0,.53,1,1.84,1.84,0,0,0,1.22.36,1.79,1.79,0,0,0,1.17-.32,1,1,0,0,0,.38-.75.7.7,0,0,0-.34-.61,5,5,0,0,0-1.17-.39,10.65,10.65,0,0,1-1.74-.55,1.67,1.67,0,0,1-1-1.55,1.74,1.74,0,0,1,.21-.83,1.85,1.85,0,0,1,.56-.64,2.34,2.34,0,0,1,.73-.33,3.43,3.43,0,0,1,1-.14,3.9,3.9,0,0,1,1.39.23,1.9,1.9,0,0,1,.89.62,2.42,2.42,0,0,1,.39,1l-1.12.15a1.22,1.22,0,0,0-.44-.81,1.62,1.62,0,0,0-1-.29,1.87,1.87,0,0,0-1.12.26.76.76,0,0,0-.34.61.63.63,0,0,0,.14.4,1,1,0,0,0,.44.3l1,.29a14,14,0,0,1,1.69.53,1.71,1.71,0,0,1,.75.6,1.67,1.67,0,0,1,.27,1,1.92,1.92,0,0,1-.33,1.08,2.15,2.15,0,0,1-1,.78,3.49,3.49,0,0,1-1.42.28,3.17,3.17,0,0,1-2-.55A2.54,2.54,0,0,1,143.08,16.29Z"/><path class="cls-2" d="M26.05,36.5l-.13-1.07a2.55,2.55,0,0,0,.65.1,1.26,1.26,0,0,0,.61-.13,1,1,0,0,0,.37-.36,5.65,5.65,0,0,0,.35-.85l.1-.28-2.56-6.75h1.23l1.4,3.9q.27.74.49,1.56A15.46,15.46,0,0,1,29,31.1l1.44-3.93h1.14L29.07,34a13.46,13.46,0,0,1-.64,1.53,2.27,2.27,0,0,1-.7.83,1.66,1.66,0,0,1-.94.26A2.27,2.27,0,0,1,26.05,36.5Z"/><path class="cls-2" d="M36.2,33.91V27.17h1v1a2.78,2.78,0,0,1,.73-.95,1.27,1.27,0,0,1,.73-.23,2.22,2.22,0,0,1,1.17.37l-.39,1.06a1.63,1.63,0,0,0-.84-.25,1.09,1.09,0,0,0-.67.22,1.22,1.22,0,0,0-.42.63,4.46,4.46,0,0,0-.19,1.33v3.53Z"/><path class="cls-2" d="M45.16,31.74l1.18.15a2.88,2.88,0,0,1-1,1.61A3.5,3.5,0,0,1,41,33.15a3.55,3.55,0,0,1-.87-2.55A3.73,3.73,0,0,1,41,28,3,3,0,0,1,43.31,27a2.88,2.88,0,0,1,2.21.92,3.66,3.66,0,0,1,.86,2.59c0,.07,0,.17,0,.3h-5a2.59,2.59,0,0,0,.63,1.7,1.87,1.87,0,0,0,1.41.59,1.75,1.75,0,0,0,1.07-.33A2.2,2.2,0,0,0,45.16,31.74Zm-3.75-1.85h3.76a2.28,2.28,0,0,0-.43-1.28A1.75,1.75,0,0,0,43.32,28a1.81,1.81,0,0,0-1.32.53A2.08,2.08,0,0,0,41.41,29.89Z"/><path class="cls-2" d="M49.64,33.91l-2.56-6.74h1.21l1.45,4q.23.65.43,1.36.15-.53.43-1.28l1.5-4.11h1.17l-2.55,6.74Z"/><path class="cls-2" d="M54.28,25.92V24.6h1.14v1.31Zm0,8V27.17h1.14v6.74Z"/><path class="cls-2" d="M56.7,31.9l1.13-.18a1.58,1.58,0,0,0,.53,1,1.85,1.85,0,0,0,1.22.36,1.79,1.79,0,0,0,1.17-.32,1,1,0,0,0,.38-.75.69.69,0,0,0-.34-.61,5,5,0,0,0-1.17-.39,10.65,10.65,0,0,1-1.74-.55,1.66,1.66,0,0,1-1-1.54,1.74,1.74,0,0,1,.21-.84,1.84,1.84,0,0,1,.56-.64,2.36,2.36,0,0,1,.73-.33,3.46,3.46,0,0,1,1-.14,3.9,3.9,0,0,1,1.39.23,1.91,1.91,0,0,1,.89.62,2.42,2.42,0,0,1,.39,1l-1.12.15a1.22,1.22,0,0,0-.44-.81,1.61,1.61,0,0,0-1-.29,1.87,1.87,0,0,0-1.12.26.75.75,0,0,0-.34.61.63.63,0,0,0,.14.4,1,1,0,0,0,.44.3l1,.29a14,14,0,0,1,1.69.53,1.72,1.72,0,0,1,.75.6,1.68,1.68,0,0,1,.27,1A1.92,1.92,0,0,1,62,33a2.14,2.14,0,0,1-1,.78,3.47,3.47,0,0,1-1.42.28,3.16,3.16,0,0,1-2-.55A2.53,2.53,0,0,1,56.7,31.9Z"/><path class="cls-2" d="M63.67,25.92V24.6h1.14v1.31Zm0,8V27.17h1.14v6.74Z"/><path class="cls-2" d="M66.12,30.54a3.47,3.47,0,0,1,1-2.77A3.13,3.13,0,0,1,69.28,27a3,3,0,0,1,2.27.91,3.46,3.46,0,0,1,.88,2.52,4.46,4.46,0,0,1-.39,2,2.76,2.76,0,0,1-1.14,1.16,3.31,3.31,0,0,1-1.63.41A3,3,0,0,1,67,33.15,3.63,3.63,0,0,1,66.12,30.54Zm1.17,0a2.87,2.87,0,0,0,.57,1.94,1.88,1.88,0,0,0,2.84,0,2.94,2.94,0,0,0,.57-2,2.79,2.79,0,0,0-.57-1.9,1.88,1.88,0,0,0-2.83,0A2.85,2.85,0,0,0,67.3,30.54Zm1.35-4.21.84-1.78H71l-1.4,1.78Z"/><path class="cls-2" d="M73.78,33.91V27.17h1v1A2.43,2.43,0,0,1,77,27a2.84,2.84,0,0,1,1.12.22,1.76,1.76,0,0,1,.76.58,2.21,2.21,0,0,1,.36.84,6.57,6.57,0,0,1,.06,1.11v4.15H78.11v-4.1a3,3,0,0,0-.13-1,1.09,1.09,0,0,0-.47-.55,1.5,1.5,0,0,0-.8-.21,1.85,1.85,0,0,0-1.26.46,2.29,2.29,0,0,0-.53,1.76v3.68Z"/><path class="cls-2" d="M89,33.91v-.85a2.1,2.1,0,0,1-1.88,1,2.64,2.64,0,0,1-1.48-.45,2.92,2.92,0,0,1-1-1.24,4.3,4.3,0,0,1-.37-1.83,4.78,4.78,0,0,1,.34-1.83,2.65,2.65,0,0,1,1-1.26,2.7,2.7,0,0,1,1.5-.44,2.24,2.24,0,0,1,1.08.26,2.27,2.27,0,0,1,.77.67V24.6h1.14v9.31Zm-3.61-3.37a2.93,2.93,0,0,0,.54,1.94,1.65,1.65,0,0,0,1.29.64,1.62,1.62,0,0,0,1.27-.61A2.82,2.82,0,0,0,89,30.64a3.17,3.17,0,0,0-.53-2A1.64,1.64,0,0,0,87.17,28a1.58,1.58,0,0,0-1.27.62A3.07,3.07,0,0,0,85.38,30.54Z"/><path class="cls-2" d="M96.47,31.74l1.18.15a2.88,2.88,0,0,1-1,1.61,3.5,3.5,0,0,1-4.27-.34,3.55,3.55,0,0,1-.87-2.55A3.73,3.73,0,0,1,92.35,28,3,3,0,0,1,94.62,27a2.88,2.88,0,0,1,2.21.92,3.66,3.66,0,0,1,.86,2.59c0,.07,0,.17,0,.3h-5a2.59,2.59,0,0,0,.63,1.7,1.87,1.87,0,0,0,1.41.59,1.75,1.75,0,0,0,1.07-.33A2.2,2.2,0,0,0,96.47,31.74Zm-3.75-1.85h3.76A2.28,2.28,0,0,0,96,28.61,1.75,1.75,0,0,0,94.63,28a1.81,1.81,0,0,0-1.32.53A2.08,2.08,0,0,0,92.71,29.89Z"/><path class="cls-2" d="M99.06,33.91V24.6h1.14v9.31Z"/><path class="cls-2" d="M110.2,31.74l1.18.15a2.88,2.88,0,0,1-1,1.61,3.5,3.5,0,0,1-4.27-.34,3.55,3.55,0,0,1-.87-2.55,3.73,3.73,0,0,1,.88-2.64,3,3,0,0,1,2.27-.94,2.88,2.88,0,0,1,2.21.92,3.66,3.66,0,0,1,.86,2.59c0,.07,0,.17,0,.3h-5a2.59,2.59,0,0,0,.63,1.7,1.87,1.87,0,0,0,1.41.59,1.75,1.75,0,0,0,1.07-.33A2.2,2.2,0,0,0,110.2,31.74Zm-3.75-1.85h3.76a2.28,2.28,0,0,0-.43-1.28,1.75,1.75,0,0,0-1.42-.66,1.81,1.81,0,0,0-1.32.53A2.08,2.08,0,0,0,106.45,29.89Z"/><path class="cls-2" d="M112.36,31.9l1.13-.18a1.58,1.58,0,0,0,.53,1,1.85,1.85,0,0,0,1.22.36,1.79,1.79,0,0,0,1.17-.32,1,1,0,0,0,.38-.75.69.69,0,0,0-.34-.61,5,5,0,0,0-1.17-.39,10.65,10.65,0,0,1-1.74-.55,1.66,1.66,0,0,1-1-1.54,1.74,1.74,0,0,1,.21-.84,1.84,1.84,0,0,1,.56-.64,2.36,2.36,0,0,1,.73-.33,3.46,3.46,0,0,1,1-.14,3.9,3.9,0,0,1,1.39.23,1.91,1.91,0,0,1,.89.62,2.42,2.42,0,0,1,.39,1l-1.12.15a1.22,1.22,0,0,0-.44-.81,1.61,1.61,0,0,0-1-.29,1.87,1.87,0,0,0-1.12.26.75.75,0,0,0-.34.61.63.63,0,0,0,.14.4,1,1,0,0,0,.44.3l1,.29a14,14,0,0,1,1.69.53,1.72,1.72,0,0,1,.75.6,1.68,1.68,0,0,1,.27,1,1.92,1.92,0,0,1-.33,1.08,2.14,2.14,0,0,1-1,.78,3.47,3.47,0,0,1-1.42.28,3.16,3.16,0,0,1-2-.55A2.53,2.53,0,0,1,112.36,31.9Z"/><path class="cls-2" d="M121.81,32.89l.17,1a4.19,4.19,0,0,1-.86.1,2,2,0,0,1-1-.2,1.11,1.11,0,0,1-.48-.52,4.11,4.11,0,0,1-.14-1.35V28.05h-.84v-.89h.84V25.5l1.14-.69v2.35h1.15v.89h-1.15V32a2,2,0,0,0,.06.63.47.47,0,0,0,.2.22.76.76,0,0,0,.39.08A3.6,3.6,0,0,0,121.81,32.89Z"/><path class="cls-2" d="M127.32,33.08a4.26,4.26,0,0,1-1.22.76,3.53,3.53,0,0,1-1.26.22,2.45,2.45,0,0,1-1.71-.54,1.79,1.79,0,0,1-.6-1.39,1.84,1.84,0,0,1,.23-.9,1.88,1.88,0,0,1,.59-.66,2.81,2.81,0,0,1,.82-.37,8.06,8.06,0,0,1,1-.17,10.44,10.44,0,0,0,2-.39c0-.16,0-.26,0-.3a1.26,1.26,0,0,0-.32-1,1.91,1.91,0,0,0-1.3-.39,2,2,0,0,0-1.19.28,1.73,1.73,0,0,0-.57,1l-1.12-.15a2.77,2.77,0,0,1,.5-1.16,2.19,2.19,0,0,1,1-.68,4.51,4.51,0,0,1,1.53-.24,4.06,4.06,0,0,1,1.4.2,1.85,1.85,0,0,1,.79.51,1.8,1.8,0,0,1,.36.78,6.42,6.42,0,0,1,.06,1.05v1.52a16.19,16.19,0,0,0,.07,2,2.56,2.56,0,0,0,.29.81h-1.19A2.44,2.44,0,0,1,127.32,33.08Zm-.1-2.55a8.37,8.37,0,0,1-1.87.43,4.27,4.27,0,0,0-1,.23,1,1,0,0,0-.45.37,1,1,0,0,0,.19,1.3,1.49,1.49,0,0,0,1,.3,2.36,2.36,0,0,0,1.17-.29,1.78,1.78,0,0,0,.76-.79,2.75,2.75,0,0,0,.18-1.14Z"/><path class="cls-2" d="M134.53,33.91v-.85a2.1,2.1,0,0,1-1.88,1,2.64,2.64,0,0,1-1.48-.45,2.92,2.92,0,0,1-1-1.24,4.3,4.3,0,0,1-.37-1.83,4.78,4.78,0,0,1,.34-1.83,2.65,2.65,0,0,1,1-1.26,2.7,2.7,0,0,1,1.5-.44,2.24,2.24,0,0,1,1.08.26,2.27,2.27,0,0,1,.77.67V24.6h1.14v9.31Zm-3.61-3.37a2.93,2.93,0,0,0,.54,1.94,1.65,1.65,0,0,0,1.29.64,1.62,1.62,0,0,0,1.27-.61,2.82,2.82,0,0,0,.52-1.87,3.17,3.17,0,0,0-.53-2A1.64,1.64,0,0,0,132.7,28a1.58,1.58,0,0,0-1.27.62A3.07,3.07,0,0,0,130.92,30.54Z"/><path class="cls-2" d="M137,30.54a3.47,3.47,0,0,1,1-2.77,3.13,3.13,0,0,1,2.12-.75,3,3,0,0,1,2.27.91,3.46,3.46,0,0,1,.88,2.52,4.46,4.46,0,0,1-.39,2,2.76,2.76,0,0,1-1.14,1.16,3.31,3.31,0,0,1-1.63.41,3,3,0,0,1-2.29-.91A3.63,3.63,0,0,1,137,30.54Zm1.17,0a2.87,2.87,0,0,0,.57,1.94,1.88,1.88,0,0,0,2.84,0,2.94,2.94,0,0,0,.57-2,2.79,2.79,0,0,0-.57-1.9,1.88,1.88,0,0,0-2.83,0A2.85,2.85,0,0,0,138.13,30.54Z"/></g></g></svg>