<?xml version="1.0" encoding="utf-8"?>
<!-- Generator: Adobe Illustrator 21.0.0, SVG Export Plug-In . SVG Version: 6.00 Build 0)  -->
<svg version="1.1" id="Capa_1" xmlns="http://www.w3.org/2000/svg" xmlns:xlink="http://www.w3.org/1999/xlink" x="0px" y="0px"
	 viewBox="0 0 154.9 74.3" style="enable-background:new 0 0 154.9 74.3;" xml:space="preserve">
<style type="text/css">
	.st0{fill:#F05032;}
	.st1{fill:#CC4432;}
	.st2{fill:#FFFFFF;}
</style>
<g>
	<rect id="XMLID_248_" x="0.1" class="st0" width="154.9" height="74.3"/>
	<rect id="XMLID_257_" x="-0.2" class="st1" width="155.2" height="48.2"/>
	<g id="XMLID_2_">
		<path id="XMLID_3_" class="st2" d="M52.4,62.4v-1.3h3.5v3.1c-0.3,0.3-0.8,0.6-1.4,0.9s-1.3,0.4-1.9,0.4c-0.8,0-1.5-0.2-2.2-0.5
			c-0.6-0.3-1.1-0.8-1.4-1.5s-0.5-1.3-0.5-2.1c0-0.8,0.2-1.5,0.5-2.2c0.3-0.6,0.8-1.1,1.5-1.5c0.5-0.3,1.1-0.4,1.9-0.4
			c1,0,1.7,0.2,2.3,0.6s0.9,1,1.1,1.7l-1.6,0.3c-0.1-0.4-0.3-0.7-0.6-0.9c-0.3-0.2-0.7-0.3-1.1-0.3c-0.7,0-1.2,0.2-1.7,0.7
			c-0.4,0.4-0.6,1.1-0.6,2s0.2,1.6,0.6,2.1s1,0.7,1.6,0.7c0.3,0,0.7-0.1,1-0.2s0.6-0.3,0.9-0.5v-1h-1.9L52.4,62.4L52.4,62.4z"/>
		<path id="XMLID_5_" class="st2" d="M57.4,65.3v-7.8H59V64h4v1.3H57.4z"/>
		<path id="XMLID_7_" class="st2" d="M63.7,61.4c0-0.8,0.1-1.5,0.4-2c0.2-0.4,0.4-0.8,0.7-1.1c0.3-0.3,0.6-0.6,1-0.7
			c0.5-0.2,1.1-0.3,1.7-0.3c1.2,0,2.1,0.4,2.8,1.1s1,1.7,1,3s-0.3,2.3-1,3s-1.6,1.1-2.8,1.1s-2.1-0.4-2.8-1.1
			C64.1,63.7,63.7,62.7,63.7,61.4z M65.4,61.4c0,0.9,0.2,1.6,0.6,2c0.4,0.5,0.9,0.7,1.6,0.7c0.6,0,1.2-0.2,1.6-0.7s0.6-1.1,0.6-2.1
			c0-0.9-0.2-1.6-0.6-2s-0.9-0.7-1.6-0.7s-1.2,0.2-1.6,0.7C65.6,59.8,65.4,60.5,65.4,61.4z"/>
		<path id="XMLID_11_" class="st2" d="M72.2,62.8l1.5-0.2c0.1,0.5,0.3,0.9,0.6,1.1s0.7,0.4,1.2,0.4s0.9-0.1,1.2-0.3
			c0.3-0.2,0.4-0.5,0.4-0.8c0-0.2-0.1-0.3-0.2-0.5s-0.3-0.2-0.6-0.3c-0.2-0.1-0.6-0.2-1.3-0.3c-0.9-0.2-1.5-0.5-1.8-0.8
			c-0.5-0.4-0.7-1-0.7-1.6c0-0.4,0.1-0.8,0.3-1.1c0.2-0.3,0.6-0.6,1-0.8c0.4-0.2,0.9-0.3,1.5-0.3c1,0,1.7,0.2,2.2,0.6s0.8,1,0.8,1.7
			l-1.6,0.1c-0.1-0.4-0.2-0.7-0.4-0.9c-0.2-0.2-0.6-0.3-1-0.3c-0.5,0-0.8,0.1-1.1,0.3c-0.2,0.1-0.3,0.3-0.3,0.5s0.1,0.3,0.2,0.5
			c0.2,0.2,0.7,0.3,1.5,0.5s1.3,0.4,1.7,0.6s0.7,0.5,0.9,0.8s0.3,0.8,0.3,1.3s-0.1,0.9-0.4,1.3S77.5,65,77,65.2s-1,0.3-1.7,0.3
			c-1,0-1.8-0.2-2.3-0.7S72.3,63.6,72.2,62.8z"/>
		<path id="XMLID_14_" class="st2" d="M87.1,65.3h-1.7l-0.7-1.8h-3.1L81,65.3h-1.7l3.1-7.9H84L87.1,65.3z M84.1,62.2L83,59.3
			l-1.1,2.9H84.1z"/>
		<path id="XMLID_17_" class="st2" d="M87.9,65.3v-7.9h3.3c0.8,0,1.5,0.1,1.8,0.2c0.4,0.1,0.7,0.4,0.9,0.8c0.2,0.4,0.3,0.8,0.3,1.2
			c0,0.6-0.2,1.1-0.5,1.5s-0.9,0.6-1.6,0.7c0.3,0.2,0.6,0.4,0.9,0.7c0.3,0.3,0.5,0.7,0.9,1.3l1,1.5H93l-1.1-1.7
			c-0.4-0.6-0.7-1-0.8-1.2s-0.3-0.3-0.5-0.3C90.4,62,90.2,62,89.8,62h-0.3v3.3H87.9z M89.6,60.8h1.2c0.8,0,1.2,0,1.4-0.1
			c0.2-0.1,0.3-0.2,0.4-0.3c0.1-0.1,0.2-0.4,0.2-0.6c0-0.3-0.1-0.5-0.2-0.6s-0.3-0.3-0.6-0.3c-0.1,0-0.5,0-1.2,0h-1.2V60.8z"/>
		<path id="XMLID_20_" class="st2" d="M95.8,65.3v-7.9h1.6v7.9H95.8z"/>
		<path id="XMLID_22_" class="st2" d="M98.6,61.4c0-0.8,0.1-1.5,0.4-2c0.2-0.4,0.4-0.8,0.7-1.1c0.3-0.3,0.6-0.6,1-0.7
			c0.5-0.2,1.1-0.3,1.7-0.3c1.2,0,2.1,0.4,2.8,1.1c0.7,0.7,1,1.7,1,3s-0.3,2.3-1,3s-1.6,1.1-2.8,1.1c-1.2,0-2.1-0.4-2.8-1.1
			C98.9,63.7,98.6,62.7,98.6,61.4z M100.2,61.4c0,0.9,0.2,1.6,0.6,2c0.4,0.5,0.9,0.7,1.6,0.7c0.6,0,1.2-0.2,1.6-0.7s0.6-1.1,0.6-2.1
			c0-0.9-0.2-1.6-0.6-2s-0.9-0.7-1.6-0.7s-1.2,0.2-1.6,0.7S100.2,60.5,100.2,61.4z"/>
	</g>
	<g id="XMLID_339_">
		<path id="XMLID_380_" class="st2" d="M91.6,39.7l-3.4-3.4c0.7-1.1,1.1-2.5,1.1-3.9c0-4-3.3-7.3-7.3-7.3s-7.3,3.3-7.3,7.3
			s3.3,7.3,7.3,7.3c1.4,0,2.8-0.4,3.9-1.1l3.4,3.4c0.3,0.3,0.7,0.5,1.1,0.5s0.8-0.2,1.1-0.5C92.2,41.3,92.2,40.3,91.6,39.7
			L91.6,39.7z M82.1,37.4c-2.8,0-5-2.2-5-5s2.2-5,5-5s5,2.2,5,5C87.1,35.1,84.8,37.4,82.1,37.4L82.1,37.4z"/>
		<path id="XMLID_377_" class="st2" d="M76.1,26.4h-8.6c-0.3,0-0.5,0.2-0.5,0.5v0.5c0,0.3,0.2,0.5,0.5,0.5h7.4
			C75.2,27.4,75.6,26.9,76.1,26.4L76.1,26.4z"/>
		<path id="XMLID_373_" class="st2" d="M71.1,11.2h6.8c0.9,0,1.6-0.7,1.6-1.6l0,0c0-0.9-0.7-1.6-1.6-1.6h-0.8
			c-0.4,0-0.8-0.4-0.8-0.8l0,0c0-1-0.8-1.8-1.8-1.8l0,0c-1,0-1.8,0.8-1.8,1.8l0,0c0,0.5-0.4,0.8-0.8,0.8h-0.8
			c-0.9,0-1.6,0.7-1.6,1.6l0,0C69.6,10.5,70.2,11.2,71.1,11.2L71.1,11.2z M74.6,6.5c0.4,0,0.8,0.4,0.8,0.8S75,8,74.6,8
			s-0.8-0.4-0.8-0.8C73.7,6.8,74.1,6.5,74.6,6.5L74.6,6.5z"/>
		<path id="XMLID_370_" class="st2" d="M67.4,31.1c-0.3,0-0.5,0.2-0.5,0.5v0.5c0,0.3,0.2,0.5,0.5,0.5h6.2c0-0.1,0-0.2,0-0.3
			c0-0.4,0-0.8,0.1-1.3L67.4,31.1L67.4,31.1z"/>
		<path id="XMLID_367_" class="st2" d="M82.1,23.3v-0.5c0-0.3-0.2-0.5-0.5-0.5H67.4c-0.3,0-0.5,0.2-0.5,0.5v0.5
			c0,0.3,0.2,0.5,0.5,0.5h14.2C81.9,23.8,82.1,23.5,82.1,23.3L82.1,23.3z"/>
		<path id="XMLID_364_" class="st2" d="M65.3,35.8v-21h18.4v9.3c0.9,0.2,1.8,0.5,2.6,1V11.7c0-1-0.8-1.8-1.8-1.8h-4
			c-0.1,1.4-1.2,2.4-2.6,2.4H71c-1.4,0-2.5-1.1-2.6-2.4h-4c-1,0-1.8,0.8-1.8,1.8v24.9c0,1,0.8,1.8,1.8,1.8h11.7
			c-0.8-0.7-1.4-1.6-1.9-2.6L65.3,35.8L65.3,35.8z"/>
		<path id="XMLID_360_" class="st2" d="M82.1,18c0-0.3-0.2-0.5-0.5-0.5H67.4c-0.3,0-0.5,0.2-0.5,0.5v0.5c0,0.3,0.2,0.5,0.5,0.5h14.2
			c0.3,0,0.5-0.2,0.5-0.5V18z"/>
	</g>
</g>
</svg>
