<?xml version="1.0" encoding="utf-8"?>
<!-- Generator: Adobe Illustrator 21.0.0, SVG Export Plug-In . SVG Version: 6.00 Build 0)  -->
<svg version="1.1" id="Capa_1" xmlns="http://www.w3.org/2000/svg" xmlns:xlink="http://www.w3.org/1999/xlink" x="0px" y="0px"
	 viewBox="0 0 154.9 74.3" style="enable-background:new 0 0 154.9 74.3;" xml:space="preserve">
<style type="text/css">
	.st0{fill:#F05032;}
	.st1{fill:#CC4432;}
	.st2{fill:#FFFFFF;}
</style>
<g>
	<rect id="XMLID_248_" x="0.1" class="st0" width="154.9" height="74.3"/>
	<rect id="XMLID_257_" x="-0.2" class="st1" width="155.2" height="48.2"/>
	<g id="XMLID_2_">
		<path id="XMLID_3_" class="st2" d="M18.6,57.5h2.9c0.7,0,1.2,0,1.5,0.2c0.5,0.1,0.9,0.4,1.2,0.7c0.3,0.3,0.6,0.8,0.8,1.3
			s0.3,1.1,0.3,1.9c0,0.6-0.1,1.2-0.2,1.7c-0.2,0.6-0.5,1-0.8,1.4c-0.3,0.3-0.6,0.5-1.1,0.6c-0.4,0.1-0.8,0.2-1.4,0.2h-3v-8
			L18.6,57.5L18.6,57.5z M20.1,58.8V64h1.2c0.4,0,0.8,0,1-0.1c0.3-0.1,0.5-0.2,0.6-0.3c0.1-0.1,0.3-0.4,0.4-0.8s0.2-0.8,0.2-1.4
			s-0.1-1.1-0.2-1.4c-0.1-0.3-0.3-0.6-0.5-0.8c-0.2-0.2-0.4-0.3-0.7-0.4c-0.2,0-0.7-0.1-1.3-0.1L20.1,58.8L20.1,58.8z"/>
		<path id="XMLID_6_" class="st2" d="M26.3,65.3v-7.9h5.8v1.3h-4.2v1.7h4v1.3h-4V64h4.4v1.3L26.3,65.3L26.3,65.3z"/>
		<path id="XMLID_8_" class="st2" d="M33.3,62.8l1.5-0.2c0.1,0.5,0.3,0.9,0.6,1.1s0.7,0.4,1.2,0.4s0.9-0.1,1.2-0.3
			c0.3-0.2,0.4-0.5,0.4-0.8c0-0.2-0.1-0.3-0.2-0.5s-0.3-0.2-0.6-0.3c-0.2-0.1-0.6-0.2-1.3-0.3c-0.9-0.2-1.5-0.5-1.8-0.8
			c-0.5-0.4-0.7-1-0.7-1.6c0-0.4,0.1-0.8,0.3-1.1c0.2-0.3,0.6-0.6,1-0.8c0.4-0.2,0.9-0.3,1.5-0.3c1,0,1.7,0.2,2.2,0.6s0.8,1,0.8,1.7
			l-1.6,0.1c-0.1-0.4-0.2-0.7-0.4-0.9c-0.2-0.2-0.6-0.3-1-0.3c-0.5,0-0.8,0.1-1.1,0.3c-0.2,0.1-0.3,0.3-0.3,0.5s0.1,0.3,0.2,0.5
			c0.2,0.2,0.7,0.3,1.5,0.5s1.3,0.4,1.7,0.6s0.7,0.5,0.9,0.8s0.3,0.8,0.3,1.3s-0.1,0.9-0.4,1.3c-0.3,0.4-0.6,0.7-1.1,0.9
			s-1,0.3-1.7,0.3c-1,0-1.8-0.2-2.3-0.7S33.6,63.6,33.3,62.8z"/>
		<path id="XMLID_11_" class="st2" d="M46.1,62.4l1.5,0.5c-0.2,0.9-0.6,1.5-1.2,1.9c-0.6,0.4-1.2,0.6-2.1,0.6c-1,0-1.9-0.4-2.6-1.1
			c-0.7-0.7-1-1.7-1-2.9c0-1.3,0.3-2.3,1-3.1c0.7-0.7,1.6-1.1,2.7-1.1c1,0,1.7,0.3,2.3,0.9c0.4,0.3,0.6,0.8,0.8,1.5L46.1,60
			c-0.1-0.4-0.3-0.7-0.6-1c-0.3-0.2-0.7-0.4-1.1-0.4c-0.6,0-1.1,0.2-1.4,0.6c-0.4,0.4-0.5,1.1-0.5,2c0,1,0.2,1.7,0.5,2.1
			s0.8,0.6,1.4,0.6c0.4,0,0.8-0.1,1.1-0.4C45.8,63.4,46.1,63,46.1,62.4z"/>
		<path id="XMLID_14_" class="st2" d="M56.2,65.3h-1.7l-0.7-1.8h-3.1l-0.8,1.8h-1.7l3.1-7.9H53L56.2,65.3z M53.2,62.2l-1.1-2.9
			L51,62.2H53.2z"/>
		<path id="XMLID_17_" class="st2" d="M57.1,65.3v-7.9h3.3c0.8,0,1.5,0.1,1.8,0.2c0.4,0.1,0.7,0.4,0.9,0.8s0.3,0.8,0.3,1.2
			c0,0.6-0.2,1.1-0.5,1.5s-0.9,0.6-1.6,0.7c0.3,0.2,0.6,0.4,0.9,0.7s0.5,0.7,0.9,1.3l1,1.5h-1.9l-1.1-1.7c-0.4-0.6-0.7-1-0.8-1.2
			s-0.3-0.3-0.5-0.3S59.4,62,59,62h-0.3v3.3H57.1z M58.6,60.8h1.2c0.8,0,1.2,0,1.4-0.1s0.3-0.2,0.4-0.3c0.1-0.1,0.2-0.4,0.2-0.6
			c0-0.3-0.1-0.5-0.2-0.6s-0.3-0.3-0.6-0.3c-0.1,0-0.5,0-1.2,0h-1.2C58.6,58.9,58.6,60.8,58.6,60.8z"/>
		<path id="XMLID_21_" class="st2" d="M68.6,62.4v-1.3H72v3.1c-0.3,0.3-0.8,0.6-1.4,0.9s-1.3,0.4-1.9,0.4c-0.8,0-1.5-0.2-2.2-0.5
			c-0.6-0.3-1.1-0.8-1.4-1.5s-0.5-1.3-0.5-2.1c0-0.8,0.2-1.5,0.5-2.2c0.3-0.6,0.8-1.1,1.5-1.5c0.5-0.3,1.1-0.4,1.9-0.4
			c1,0,1.7,0.2,2.3,0.6s0.9,1,1.1,1.7l-1.6,0.3c-0.1-0.4-0.3-0.7-0.6-0.9c-0.3-0.2-0.7-0.3-1.1-0.3c-0.7,0-1.2,0.2-1.7,0.7
			c-0.4,0.4-0.6,1.1-0.6,2s0.2,1.6,0.6,2.1s1,0.7,1.6,0.7c0.3,0,0.7-0.1,1-0.2s0.6-0.3,0.9-0.5v-1h-1.8V62.4L68.6,62.4z"/>
		<path id="XMLID_23_" class="st2" d="M80.6,65.3h-1.7l-0.7-1.8h-3.1l-0.6,1.8h-1.7l3.1-7.9h1.7L80.6,65.3z M77.7,62.2l-1.1-2.9
			l-1.1,2.9H77.7z"/>
		<path id="XMLID_26_" class="st2" d="M81.4,65.3v-7.9h3.3c0.8,0,1.5,0.1,1.8,0.2c0.4,0.1,0.7,0.4,0.9,0.8s0.3,0.8,0.3,1.2
			c0,0.6-0.2,1.1-0.5,1.5s-0.9,0.6-1.6,0.7c0.3,0.2,0.6,0.4,0.9,0.7c0.3,0.3,0.5,0.7,0.9,1.3l1,1.5h-1.9l-1.1-1.7
			c-0.4-0.6-0.7-1-0.8-1.2s-0.3-0.3-0.5-0.3C83.9,62,83.7,62,83.3,62H83v3.3H81.4z M83.1,60.8h1.2c0.8,0,1.2,0,1.4-0.1
			s0.3-0.2,0.4-0.3c0.1-0.1,0.2-0.4,0.2-0.6c0-0.3-0.1-0.5-0.2-0.6s-0.3-0.3-0.6-0.3c-0.1,0-0.5,0-1.2,0h-1.2
			C83.1,58.9,83.1,60.8,83.1,60.8z"/>
		<path id="XMLID_29_" class="st2" d="M92.1,61.4c0-0.8,0.1-1.5,0.4-2c0.2-0.4,0.4-0.8,0.7-1.1c0.3-0.3,0.6-0.6,1-0.7
			c0.5-0.2,1.1-0.3,1.7-0.3c1.2,0,2.1,0.4,2.8,1.1c0.7,0.7,1,1.7,1,3s-0.3,2.3-1,3s-1.6,1.1-2.8,1.1c-1.2,0-2.1-0.4-2.8-1.1
			C92.6,63.7,92.1,62.7,92.1,61.4z M93.8,61.4c0,0.9,0.2,1.6,0.6,2c0.4,0.5,0.9,0.7,1.6,0.7c0.6,0,1.2-0.2,1.6-0.7s0.6-1.1,0.6-2.1
			c0-0.9-0.2-1.6-0.6-2s-0.9-0.7-1.6-0.7s-1.2,0.2-1.6,0.7C93.9,59.8,93.8,60.5,93.8,61.4z"/>
		<path id="XMLID_32_" class="st2" d="M101.1,57.5h3.1c0.6,0,1.1,0,1.4,0.1s0.6,0.2,0.8,0.3c0.2,0.2,0.4,0.4,0.6,0.7
			c0.2,0.3,0.2,0.6,0.2,0.9c0,0.4-0.1,0.7-0.3,1s-0.5,0.5-0.8,0.7c0.5,0.1,0.8,0.4,1.1,0.7c0.3,0.3,0.4,0.7,0.4,1.2
			c0,0.4-0.1,0.7-0.3,1c-0.2,0.3-0.4,0.6-0.7,0.8c-0.3,0.2-0.6,0.3-1.1,0.4c-0.3,0-0.9,0-1.9,0.1h-2.7v-7.9L101.1,57.5L101.1,57.5z
			 M102.6,58.8v1.8h1c0.6,0,1,0,1.2,0c0.3,0,0.5-0.1,0.6-0.3c0.2-0.2,0.2-0.4,0.2-0.6s-0.1-0.4-0.2-0.6s-0.3-0.2-0.6-0.3
			c-0.2,0-0.6,0-1.4,0C103.4,58.8,102.6,58.8,102.6,58.8z M102.6,61.9V64h1.5c0.6,0,0.9,0,1.1,0s0.4-0.1,0.6-0.3
			c0.1-0.2,0.2-0.4,0.2-0.7c0-0.2-0.1-0.4-0.2-0.6s-0.3-0.3-0.5-0.4s-0.7-0.1-1.4-0.1H102.6z"/>
		<path id="XMLID_36_" class="st2" d="M111.8,57.5h1.6v5c0,0.7-0.1,1.2-0.2,1.5c-0.2,0.5-0.4,0.8-0.8,1.1c-0.4,0.3-0.9,0.4-1.6,0.4
			c-0.8,0-1.4-0.2-1.8-0.7c-0.4-0.4-0.6-1.1-0.6-1.9l1.5-0.2c0,0.5,0.1,0.8,0.2,1c0.2,0.3,0.4,0.4,0.8,0.4s0.6-0.1,0.8-0.3
			c0.1-0.2,0.2-0.6,0.2-1.3L111.8,57.5L111.8,57.5z"/>
		<path id="XMLID_38_" class="st2" d="M115.1,65.3v-7.9h5.8v1.3h-4.2v1.7h4v1.3h-4V64h4.4v1.3L115.1,65.3L115.1,65.3z"/>
		<path id="XMLID_40_" class="st2" d="M124.2,65.3v-6.5h-2.3v-1.3h6.3v1.3h-2.3v6.5H124.2z"/>
		<path id="XMLID_42_" class="st2" d="M128.6,61.4c0-0.8,0.1-1.5,0.4-2c0.2-0.4,0.4-0.8,0.7-1.1c0.3-0.3,0.6-0.6,1-0.7
			c0.5-0.2,1.1-0.3,1.7-0.3c1.2,0,2.1,0.4,2.8,1.1s1,1.7,1,3s-0.3,2.3-1,3s-1.6,1.1-2.8,1.1c-1.2,0-2.1-0.4-2.8-1.1
			S128.6,62.7,128.6,61.4z M130.2,61.4c0,0.9,0.2,1.6,0.6,2c0.4,0.5,0.9,0.7,1.6,0.7c0.6,0,1.2-0.2,1.6-0.7c0.4-0.5,0.6-1.1,0.6-2.1
			c0-0.9-0.2-1.6-0.6-2c-0.4-0.4-0.9-0.7-1.6-0.7s-1.2,0.2-1.6,0.7C130.4,59.8,130.2,60.5,130.2,61.4z"/>
	</g>
	<path id="XMLID_292_" class="st2" d="M88.6,29.5c-1.2,0-1.9,1-1.9,1.9v2.9H68.4v-2.9c0-1-1-1.9-2-1.9c-1.2,0-1.9,1-1.9,1.9v4.9
		c0,1.2,0.8,1.9,1.9,1.9h22.2c1,0,1.7-0.8,1.7-1.9v-4.9C90.3,30.5,89.6,29.5,88.6,29.5L88.6,29.5z M76.9,31.7c0.2,0.2,0.8,0.2,1.2,0
		l6.6-6.8c0.2-0.2,0.2-0.4,0.2-0.8c-0.2-0.2-0.4-0.4-0.6-0.4H81V11.4c0-1-0.6-1.6-1.4-1.6h-4.3c-1,0-1.6,0.6-1.6,1.6v12.3h-3.1
		c-0.4,0-0.6,0.2-0.8,0.4c0,0.4,0,0.6,0.2,0.8L76.9,31.7z"/>
</g>
</svg>
