<?xml version="1.0" encoding="utf-8"?>
<!-- Generator: Adobe Illustrator 21.0.0, SVG Export Plug-In . SVG Version: 6.00 Build 0)  -->
<svg version="1.1" id="Capa_1" xmlns="http://www.w3.org/2000/svg" xmlns:xlink="http://www.w3.org/1999/xlink" x="0px" y="0px"
	 viewBox="0 0 154.9 74.3" style="enable-background:new 0 0 154.9 74.3;" xml:space="preserve">
<style type="text/css">
	.st0{fill:#F05032;}
	.st1{fill:#CC4432;}
	.st2{fill:#FFFFFF;}
</style>
<g>
	<rect id="XMLID_248_" x="0.1" class="st0" width="154.9" height="74.3"/>
	<rect id="XMLID_257_" x="-0.2" class="st1" width="155.2" height="48.2"/>
	<g id="XMLID_2_">
		<path id="XMLID_3_" class="st2" d="M38.1,57.5h3.1c0.6,0,1.1,0,1.4,0.1s0.6,0.2,0.8,0.3c0.2,0.2,0.4,0.4,0.6,0.7
			c0.2,0.3,0.2,0.6,0.2,0.9c0,0.4-0.1,0.7-0.3,1s-0.5,0.5-0.8,0.7c0.5,0.1,0.8,0.4,1.1,0.7c0.3,0.3,0.4,0.7,0.4,1.2
			c0,0.4-0.1,0.7-0.3,1s-0.4,0.6-0.7,0.8c-0.3,0.2-0.6,0.3-1.1,0.4c-0.3,0-0.9,0-1.9,0.1h-2.7v-7.9L38.1,57.5L38.1,57.5z M39.8,58.8
			v1.8h1c0.6,0,1,0,1.2,0c0.3,0,0.5-0.1,0.6-0.3c0.2-0.2,0.2-0.4,0.2-0.6s-0.1-0.4-0.2-0.6c-0.1-0.2-0.3-0.2-0.6-0.3
			c-0.2,0-0.6,0-1.4,0H39.8z M39.8,61.9V64h1.5c0.6,0,0.9,0,1.1,0s0.4-0.1,0.6-0.3c0.1-0.2,0.2-0.4,0.2-0.7c0-0.2-0.1-0.4-0.2-0.6
			c-0.1-0.2-0.3-0.3-0.5-0.4s-0.7-0.1-1.4-0.1H39.8z"/>
		<path id="XMLID_7_" class="st2" d="M46.1,65.3v-7.9h1.6v7.9H46.1z"/>
		<path id="XMLID_9_" class="st2" d="M49.1,57.5h3.1c0.6,0,1.1,0,1.4,0.1s0.6,0.2,0.8,0.3c0.2,0.2,0.4,0.4,0.6,0.7
			c0.2,0.3,0.2,0.6,0.2,0.9c0,0.4-0.1,0.7-0.3,1s-0.5,0.5-0.8,0.7c0.5,0.1,0.8,0.4,1.1,0.7c0.3,0.3,0.4,0.7,0.4,1.2
			c0,0.4-0.1,0.7-0.3,1s-0.4,0.6-0.7,0.8c-0.3,0.2-0.6,0.3-1.1,0.4c-0.3,0-0.9,0-1.9,0.1h-2.7v-7.9L49.1,57.5L49.1,57.5z M50.7,58.8
			v1.8h1c0.6,0,1,0,1.2,0c0.3,0,0.5-0.1,0.6-0.3c0.2-0.2,0.2-0.4,0.2-0.6s-0.1-0.4-0.2-0.6s-0.3-0.2-0.6-0.3c-0.2,0-0.6,0-1.4,0
			H50.7z M50.7,61.9V64h1.5c0.6,0,0.9,0,1.1,0s0.4-0.1,0.6-0.3c0.1-0.2,0.2-0.4,0.2-0.7c0-0.2-0.1-0.4-0.2-0.6s-0.3-0.3-0.5-0.4
			s-0.7-0.1-1.4-0.1H50.7z"/>
		<path id="XMLID_15_" class="st2" d="M57.1,65.3v-7.8h1.6V64h4v1.3H57.1z"/>
		<path id="XMLID_17_" class="st2" d="M63.7,65.3v-7.9h1.6v7.9H63.7z"/>
		<path id="XMLID_20_" class="st2" d="M66.6,61.4c0-0.8,0.1-1.5,0.4-2c0.2-0.4,0.4-0.8,0.7-1.1c0.3-0.3,0.6-0.6,1-0.7
			c0.5-0.2,1.1-0.3,1.7-0.3c1.2,0,2.1,0.4,2.8,1.1s1,1.7,1,3s-0.3,2.3-1,3s-1.6,1.1-2.8,1.1s-2.1-0.4-2.8-1.1
			C66.8,63.7,66.6,62.7,66.6,61.4z M68.1,61.4c0,0.9,0.2,1.6,0.6,2c0.4,0.5,0.9,0.7,1.6,0.7c0.6,0,1.2-0.2,1.6-0.7s0.6-1.1,0.6-2.1
			c0-0.9-0.2-1.6-0.6-2s-0.9-0.7-1.6-0.7s-1.2,0.2-1.6,0.7S68.1,60.5,68.1,61.4z"/>
		<path id="XMLID_23_" class="st2" d="M79.1,62.4v-1.3h3.4v3.1c-0.3,0.3-0.8,0.6-1.4,0.9s-1.3,0.4-1.9,0.4c-0.8,0-1.5-0.2-2.2-0.5
			c-0.6-0.3-1.1-0.8-1.4-1.5s-0.5-1.3-0.5-2.1c0-0.8,0.2-1.5,0.5-2.2c0.3-0.6,0.8-1.1,1.5-1.5c0.5-0.3,1.1-0.4,1.9-0.4
			c1,0,1.7,0.2,2.3,0.6s0.9,1,1.1,1.7l-1.6,0.3c-0.1-0.4-0.3-0.7-0.6-0.9c-0.3-0.2-0.7-0.3-1.1-0.3c-0.7,0-1.2,0.2-1.7,0.7
			c-0.4,0.4-0.6,1.1-0.6,2s0.2,1.6,0.6,2.1s1,0.7,1.6,0.7c0.3,0,0.7-0.1,1-0.2s0.6-0.3,0.9-0.5v-1h-1.8V62.4L79.1,62.4z"/>
		<path id="XMLID_25_" class="st2" d="M83.9,65.3v-7.9h3.3c0.8,0,1.5,0.1,1.8,0.2c0.4,0.1,0.7,0.4,0.9,0.8s0.3,0.8,0.3,1.2
			c0,0.6-0.2,1.1-0.5,1.5s-0.9,0.6-1.6,0.7c0.3,0.2,0.6,0.4,0.9,0.7c0.3,0.3,0.5,0.7,0.9,1.3l1,1.5H89l-1.1-1.7
			c-0.4-0.6-0.7-1-0.8-1.2s-0.3-0.3-0.5-0.3C86.4,62,86.2,62,85.8,62h-0.3v3.3H83.9z M85.6,60.8h1.2c0.8,0,1.2,0,1.4-0.1
			s0.3-0.2,0.4-0.3c0.1-0.1,0.2-0.4,0.2-0.6c0-0.3-0.1-0.5-0.2-0.6s-0.3-0.3-0.6-0.3c-0.1,0-0.5,0-1.2,0h-1.2
			C85.6,58.9,85.6,60.8,85.6,60.8z"/>
		<path id="XMLID_28_" class="st2" d="M98.9,65.3h-1.7l-0.7-1.8h-3.1l-0.6,1.8h-1.7l3.1-7.9h1.7L98.9,65.3z M96.1,62.2L95,59.3
			l-1,2.9H96.1z"/>
		<path id="XMLID_31_" class="st2" d="M99.8,65.3v-7.9h5.4v1.3h-3.8v1.9h3.3V62h-3.3v3.3L99.8,65.3L99.8,65.3z"/>
		<path id="XMLID_33_" class="st2" d="M106.3,57l0.7-1.6h1.7l-1.5,1.6H106.3z M106.4,65.3v-7.9h1.6v7.9H106.4z"/>
		<path id="XMLID_36_" class="st2" d="M116.7,65.3h-1.8l-0.7-1.8h-3.1l-0.6,1.8h-1.7l3.1-7.9h1.7L116.7,65.3z M113.7,62.2l-1.1-2.9
			l-1.1,2.9H113.7z"/>
	</g>
	<g id="XMLID_74_">
		<path id="XMLID_407_" class="st2" d="M62.8,14.3l7,2.4c0.6,0.3,3.3,1.3,8.2,0c6.2-1.5,19.5-4.2,19.7-4.2L97.2,10c0,0,0,0-0.1,0
			L84.4,8.2c-1.4-0.2-3.7-0.1-5,0.1l-17,3.3c-2.2-0.1-4.3,1.2-5,3.5c-0.4,1.3-0.3,2.6,0.3,3.8c0.3,0.6,0.7,1.1,1.3,1.6
			c-0.8,0.6-1.4,1.4-1.7,2.4c-0.4,1.3-0.3,2.6,0.3,3.8c0.3,0.6,0.8,1.2,1.3,1.6c-0.8,0.6-1.3,1.4-1.7,2.4c-0.4,1.3-0.3,2.6,0.3,3.8
			c0.6,1.2,1.6,2.1,2.9,2.5l12.3,3.9c0.7,0.2,1.8,0.3,2.5,0.1l21.5-5c0,0-0.1-0.6-0.3-1.2c-0.2-0.7-0.8-1.1-1.5-1l-19.6,4.5
			c-0.7,0.2-1.8,0.1-2.5-0.1l-11.6-3.7c-0.6-0.2-1.1-0.6-1.4-1.2s-0.4-1.2-0.2-1.9c0.4-1.3,1.8-2,3.1-1.6c0,0,7.1,2.3,10,3.2
			c0.7,0.2,1.8,0.3,2.5,0.1l21.5-4.9c0,0-0.1-0.6-0.3-1.3c-0.2-0.7-0.8-1.1-1.5-1l-19.6,4.5c-0.7,0.2-1.8,0.1-2.5-0.1l-11.6-3.7
			c-0.6-0.2-1.1-0.6-1.4-1.2s-0.4-1.2-0.2-1.9c0.4-1.3,1.8-2,3.1-1.6c0,0,7.2,2.3,10.1,3.2c0.7,0.2,1.8,0.3,2.5,0.1l21.5-4.9
			c0,0-0.1-0.6-0.3-1.3c-0.2-0.7-0.8-1.1-1.5-1l-19.6,4.5c-0.7,0.2-1.8,0.1-2.5-0.1l-11.6-3.7c-0.6-0.2-1.1-0.6-1.4-1.2
			s-0.4-1.2-0.2-1.9C60.2,14.6,61.6,13.9,62.8,14.3L62.8,14.3z"/>
	</g>
</g>
</svg>
