<svg xmlns="http://www.w3.org/2000/svg" viewBox="0 0 184.43 178.67"><defs><style>.cls-1{fill:#3f3f3e;}.cls-2{fill:#f05032;}.cls-3{fill:#fff;stroke:#3f3f3e;stroke-miterlimit:10;stroke-width:2.76px;}.cls-4{fill:#424142;}.cls-5{fill:#b3b3b3;}</style></defs><title>g10</title><g id="Capa_2" data-name="Capa 2"><g id="CONTENIDO"><g id="_Grupo_" data-name="&lt;Grupo&gt;"><path id="_Trazado_" data-name="&lt;Trazado&gt;" class="cls-1" d="M91.84,56.87a28.44,28.44,0,1,1,17.7-50.7A28.38,28.38,0,0,1,116.84,42a1.87,1.87,0,1,1-3.28-1.79,24.37,24.37,0,0,0,2.15-5.38,24.72,24.72,0,1,0-23.88,18.3,1.87,1.87,0,1,1,0,3.73Z"/><path id="_Trazado_2" data-name="&lt;Trazado&gt;" class="cls-1" d="M91.84,48.47A20,20,0,1,1,111.11,34a1.87,1.87,0,0,1-3.59-1A16.31,16.31,0,1,0,91.84,44.74a1.86,1.86,0,1,1,0,3.73Z"/><path id="_Trazado_3" data-name="&lt;Trazado&gt;" class="cls-2" d="M101.62,28.43a9.77,9.77,0,1,1-9.77-9.77,9.77,9.77,0,0,1,9.77,9.77Z"/><path id="_Trazado_compuesto_" data-name="&lt;Trazado compuesto&gt;" class="cls-1" d="M91.84,40.07a11.64,11.64,0,1,1,9.12-4.4,11.66,11.66,0,0,1-9.12,4.4Zm0-19.55a7.91,7.91,0,1,0,4.91,1.71,7.87,7.87,0,0,0-4.91-1.71Z"/><path id="_Trazado_4" data-name="&lt;Trazado&gt;" class="cls-3" d="M104.06,62.46a4.79,4.79,0,0,0,4.79-4.79V45.4a6.47,6.47,0,0,0-6.47-6.47H95.82V29.33a3.79,3.79,0,0,0-3.6-3.82,3.73,3.73,0,0,0-3.87,3.73V46l-1-2a2.9,2.9,0,0,0-2.58-1.74,2.68,2.68,0,0,0-1.41.41,3.62,3.62,0,0,0-1.16,4.56s3.23,7.56,5.53,12.51a4.79,4.79,0,0,0,4.34,2.77Z"/></g><path d="M30.87,89.9l2.11.65a9,9,0,0,1-2.45,4.87A6.08,6.08,0,0,1,26.27,97a6.48,6.48,0,0,1-3.77-1.08,7.62,7.62,0,0,1-2.56-3.46,14.47,14.47,0,0,1-1-5.62,13.15,13.15,0,0,1,1-5.41,7.65,7.65,0,0,1,2.7-3.34A6.75,6.75,0,0,1,26.45,77a5.84,5.84,0,0,1,4,1.43,7.74,7.74,0,0,1,2.31,4.2l-2.06.59q-1.06-4-4.25-4a4.68,4.68,0,0,0-2.75.81,5.48,5.48,0,0,0-1.86,2.53,11.71,11.71,0,0,0-.69,4.35q0,4,1.4,6a4.34,4.34,0,0,0,3.73,2,4.1,4.1,0,0,0,3-1.22A6.6,6.6,0,0,0,30.87,89.9Z"/><path d="M35.27,96.69V77.32h1.94V96.69Z"/><path d="M40.26,80.06V77.32H42.2v2.73Zm0,16.63v-14H42.2v14Z"/><path d="M52.72,91.55l1.92.3A6.41,6.41,0,0,1,53,95.68,4.36,4.36,0,0,1,49.79,97a4.53,4.53,0,0,1-3.72-1.86,8.75,8.75,0,0,1-1.46-5.49,8.63,8.63,0,0,1,1.47-5.49,4.64,4.64,0,0,1,3.78-1.83,4.31,4.31,0,0,1,3,1.11,5.46,5.46,0,0,1,1.57,3.33l-1.89.34a4.11,4.11,0,0,0-1-2.12,2.22,2.22,0,0,0-1.65-.7,2.86,2.86,0,0,0-2.38,1.28,6.86,6.86,0,0,0-.94,4,7.35,7.35,0,0,0,.9,4.15,2.74,2.74,0,0,0,2.32,1.28,2.49,2.49,0,0,0,1.9-.85A4.64,4.64,0,0,0,52.72,91.55Z"/><path d="M62.45,102.06V82.66h1.8v1.82a4.58,4.58,0,0,1,1.46-1.64,3.42,3.42,0,0,1,1.85-.5,4,4,0,0,1,2.45.81,5.52,5.52,0,0,1,1.76,2.45,10.53,10.53,0,0,1,.67,4,8.84,8.84,0,0,1-1.5,5.51A4.37,4.37,0,0,1,67.42,97a3.23,3.23,0,0,1-1.68-.46,4.22,4.22,0,0,1-1.35-1.31v6.83Zm1.77-12.31a7,7,0,0,0,.91,4,2.48,2.48,0,0,0,4.38,0,7.25,7.25,0,0,0,.94-4.12,7.26,7.26,0,0,0-.91-4.07,2.41,2.41,0,0,0-4.35.1A7.36,7.36,0,0,0,64.23,89.75Z"/><path d="M82.28,95a7.29,7.29,0,0,1-2,1.53,5,5,0,0,1-2.19.52,3.85,3.85,0,0,1-2.87-1.08A4,4,0,0,1,74.12,93a4.49,4.49,0,0,1,.5-2.15A3.74,3.74,0,0,1,76,89.38a7.2,7.2,0,0,1,2.64-.78,14.74,14.74,0,0,0,3.49-.83v-.61a3.07,3.07,0,0,0-.52-2,2.79,2.79,0,0,0-2.23-.85,3.11,3.11,0,0,0-2,.56,3.69,3.69,0,0,0-1,2.12l-1.92-.32a5.33,5.33,0,0,1,1.66-3.29,5.48,5.48,0,0,1,3.57-1,5.12,5.12,0,0,1,2.84.68,2.93,2.93,0,0,1,1.3,1.68,12,12,0,0,1,.27,2.93v3.17A40.33,40.33,0,0,0,84.22,95a6.25,6.25,0,0,0,.5,1.68h-2A5.89,5.89,0,0,1,82.28,95Zm-.16-5.31a12.31,12.31,0,0,1-3.18.9,6,6,0,0,0-1.72.48,1.9,1.9,0,0,0-.76.77,2.35,2.35,0,0,0-.27,1.14,2.13,2.13,0,0,0,.62,1.6,2.37,2.37,0,0,0,1.72.6,3.46,3.46,0,0,0,1.9-.54,3.38,3.38,0,0,0,1.27-1.45,6.44,6.44,0,0,0,.42-2.64Z"/><path d="M87.13,96.69v-14h1.76v2.13a6,6,0,0,1,1.23-2,1.89,1.89,0,0,1,1.26-.48,3.33,3.33,0,0,1,2,.77l-.66,2.21a2.45,2.45,0,0,0-1.41-.52,1.72,1.72,0,0,0-1.14.44,2.34,2.34,0,0,0-.73,1.21,11,11,0,0,0-.37,2.89v7.34Z"/><path d="M102,95a7.29,7.29,0,0,1-2,1.53,5,5,0,0,1-2.19.52,3.85,3.85,0,0,1-2.87-1.08A4,4,0,0,1,93.84,93a4.49,4.49,0,0,1,.5-2.15,3.74,3.74,0,0,1,1.37-1.47,7.2,7.2,0,0,1,2.64-.78,14.74,14.74,0,0,0,3.49-.83v-.61a3.07,3.07,0,0,0-.52-2,2.79,2.79,0,0,0-2.23-.85,3.11,3.11,0,0,0-2,.56,3.69,3.69,0,0,0-1,2.12l-1.92-.32a5.33,5.33,0,0,1,1.66-3.29,5.48,5.48,0,0,1,3.57-1,5.12,5.12,0,0,1,2.84.68,2.93,2.93,0,0,1,1.3,1.68,12,12,0,0,1,.27,2.93v3.17a40.33,40.33,0,0,0,.13,4.19,6.25,6.25,0,0,0,.5,1.68h-2A5.89,5.89,0,0,1,102,95Zm-.16-5.31a12.31,12.31,0,0,1-3.18.9,6,6,0,0,0-1.72.48,1.9,1.9,0,0,0-.76.77,2.35,2.35,0,0,0-.27,1.14,2.13,2.13,0,0,0,.62,1.6,2.37,2.37,0,0,0,1.72.6,3.46,3.46,0,0,0,1.9-.54,3.38,3.38,0,0,0,1.27-1.45,6.44,6.44,0,0,0,.42-2.64Z"/><path d="M116.23,96.69l-4.38-14h2.06l2.48,8.4q.42,1.43.74,2.83.25-1.11.71-2.67l2.57-8.56h2l-4.38,14Z"/><path d="M132,92.17l2,.3a6.1,6.1,0,0,1-1.82,3.39A4.79,4.79,0,0,1,128.91,97a4.86,4.86,0,0,1-4-1.86,8.29,8.29,0,0,1-1.51-5.36A8.71,8.71,0,0,1,125,84.25a4.74,4.74,0,0,1,3.86-1.91,4.58,4.58,0,0,1,3.72,1.88A8.56,8.56,0,0,1,134,89.65v.63h-8.59a6.06,6.06,0,0,0,1.1,3.57,3,3,0,0,0,2.38,1.2Q131.12,95.05,132,92.17Zm-6.41-3.84H132a5.35,5.35,0,0,0-.78-2.72,2.84,2.84,0,0,0-4.62-.22A4.78,4.78,0,0,0,125.57,88.33Z"/><path d="M136.45,96.69v-14h1.76v2.13a6,6,0,0,1,1.23-2,1.89,1.89,0,0,1,1.26-.48,3.33,3.33,0,0,1,2,.77L142,85.32a2.45,2.45,0,0,0-1.41-.52,1.72,1.72,0,0,0-1.14.44,2.34,2.34,0,0,0-.73,1.21,11,11,0,0,0-.37,2.89v7.34Z"/><path d="M157.86,92.17l2,.3a6.1,6.1,0,0,1-1.82,3.39A4.79,4.79,0,0,1,154.8,97a4.86,4.86,0,0,1-4-1.86,8.29,8.29,0,0,1-1.51-5.36,8.71,8.71,0,0,1,1.53-5.54,4.74,4.74,0,0,1,3.86-1.91,4.58,4.58,0,0,1,3.72,1.88,8.56,8.56,0,0,1,1.49,5.43v.63h-8.59a6.06,6.06,0,0,0,1.1,3.57,3,3,0,0,0,2.38,1.2Q157,95.05,157.86,92.17Zm-6.41-3.84h6.42a5.35,5.35,0,0,0-.78-2.72,2.84,2.84,0,0,0-4.62-.22A4.78,4.78,0,0,0,151.46,88.33Z"/><path d="M162.28,96.69V77.32h1.94V96.69Z"/><path class="cls-4" d="M0,129.15V109.79H5.15a15.77,15.77,0,0,1,3.76.28A4.27,4.27,0,0,1,11.25,112a7,7,0,0,1,.92,3.78,7.14,7.14,0,0,1-.79,3.52,4.6,4.6,0,0,1-2,2,10.29,10.29,0,0,1-4.09.57H3.2v7.3Zm3.2-16.09v5.51H5a7.73,7.73,0,0,0,2.43-.25,2.16,2.16,0,0,0,1.05-.91,3.35,3.35,0,0,0,0-3.24,2.1,2.1,0,0,0-1-.89,9.61,9.61,0,0,0-2.63-.22Z"/><path class="cls-4" d="M14.81,129.15V109.79h6.75a9.41,9.41,0,0,1,3.7.52,4.1,4.1,0,0,1,1.82,1.81,6.27,6.27,0,0,1,.71,3.08,5.76,5.76,0,0,1-1.09,3.66,4.84,4.84,0,0,1-3.1,1.74,8,8,0,0,1,1.7,1.62,23,23,0,0,1,1.84,3.15l1.93,3.78H25.25l-2.32-4.21a27.63,27.63,0,0,0-1.7-2.86,2.51,2.51,0,0,0-1-.79,4.34,4.34,0,0,0-1.61-.22H18v8.08ZM18,118h2.38a11.94,11.94,0,0,0,2.77-.19,1.77,1.77,0,0,0,1-.77,2.85,2.85,0,0,0,.37-1.54,2.67,2.67,0,0,0-.37-1.49,1.89,1.89,0,0,0-1-.77,12.71,12.71,0,0,0-2.6-.15H18Z"/><path class="cls-4" d="M30.16,119.59a13.76,13.76,0,0,1,1-5.7,7.72,7.72,0,0,1,2.68-3.33,7.07,7.07,0,0,1,4-1.1,6.87,6.87,0,0,1,5.55,2.6q2.15,2.6,2.15,7.41t-2.27,7.6a6.65,6.65,0,0,1-5.42,2.42,6.71,6.71,0,0,1-5.44-2.39A11.39,11.39,0,0,1,30.16,119.59Zm3.3-.13a8.23,8.23,0,0,0,1.27,5,3.82,3.82,0,0,0,3.15,1.67A3.77,3.77,0,0,0,41,124.48a8.48,8.48,0,0,0,1.24-5.09,8.3,8.3,0,0,0-1.21-5,3.78,3.78,0,0,0-3.17-1.61,3.82,3.82,0,0,0-3.19,1.63A8.34,8.34,0,0,0,33.46,119.46Z"/><path class="cls-4" d="M58.24,122l3.1,1.2A8.7,8.7,0,0,1,58.93,128a6,6,0,0,1-4.16,1.5,6.16,6.16,0,0,1-5-2.39,11.56,11.56,0,0,1-2.22-7.45q0-5,2.23-7.75A6.34,6.34,0,0,1,55,109.46a6,6,0,0,1,4.47,1.82,7.91,7.91,0,0,1,1.88,3.84l-3.17.92a4.29,4.29,0,0,0-1.21-2.41,3,3,0,0,0-2.14-.84,3.4,3.4,0,0,0-2.87,1.53q-1.11,1.53-1.11,5.06t1.08,5.2a3.3,3.3,0,0,0,2.81,1.55,2.91,2.91,0,0,0,2.19-1A6.24,6.24,0,0,0,58.24,122Z"/><path class="cls-4" d="M64.09,129.15V109.79H75.87v3.28H67.29v4.29h8v3.26h-8v5.26h8.88v3.28Z"/><path class="cls-4" d="M78.86,109.79h5.85a8.68,8.68,0,0,1,3.35.5A5.6,5.6,0,0,1,90.13,112,8.59,8.59,0,0,1,91.62,115a17.09,17.09,0,0,1,.54,4.66,15,15,0,0,1-.57,4.37A8.75,8.75,0,0,1,90.16,127a5.57,5.57,0,0,1-2.1,1.63,7.87,7.87,0,0,1-3.17.55h-6Zm3.2,3.28v12.81h2.4a6.24,6.24,0,0,0,2.24-.29,2.7,2.7,0,0,0,1.14-.88,5,5,0,0,0,.73-1.85,15.45,15.45,0,0,0,.29-3.34,15.25,15.25,0,0,0-.3-3.39,4.5,4.5,0,0,0-.92-2,2.94,2.94,0,0,0-1.53-.94,12.6,12.6,0,0,0-2.6-.17Z"/><path class="cls-4" d="M94.79,129.15V109.79H98v19.37Z"/><path class="cls-4" d="M101,129.15V109.79h4.79L108.69,123l2.86-13.22h4.82v19.37h-3V113.9l-3.17,15.26h-3.08L104,113.9v15.26Z"/><path class="cls-4" d="M119.44,129.15V109.79h3.2v19.37Z"/><path class="cls-4" d="M125.71,129.15V109.79H137.5v3.28h-8.59v4.29h8v3.26h-8v5.26h8.88v3.28Z"/><path class="cls-4" d="M140.54,129.15V109.79h3.12l6.5,12.93V109.79h3v19.37h-3.22l-6.39-12.63v12.63Z"/><path class="cls-4" d="M160.08,129.15V113.06h-4.72v-3.28H168v3.28h-4.7v16.09Z"/><path class="cls-4" d="M169,119.59a13.76,13.76,0,0,1,1-5.7,7.72,7.72,0,0,1,2.68-3.33,7.07,7.07,0,0,1,4-1.1,6.87,6.87,0,0,1,5.55,2.6q2.15,2.6,2.15,7.41t-2.27,7.6a7.33,7.33,0,0,1-10.86,0A11.39,11.39,0,0,1,169,119.59Zm3.3-.13a8.23,8.23,0,0,0,1.27,5,3.82,3.82,0,0,0,3.15,1.67,3.77,3.77,0,0,0,3.14-1.66,8.48,8.48,0,0,0,1.24-5.09,8.3,8.3,0,0,0-1.21-5,3.78,3.78,0,0,0-3.17-1.61,3.82,3.82,0,0,0-3.19,1.63A8.34,8.34,0,0,0,172.33,119.46Z"/><path class="cls-5" d="M66.88,178.67V155.15h6.26a19.12,19.12,0,0,1,4.57.34,5.18,5.18,0,0,1,2.83,2.33,8.52,8.52,0,0,1,1.11,4.59,8.67,8.67,0,0,1-1,4.27,5.59,5.59,0,0,1-2.41,2.42,12.5,12.5,0,0,1-5,.7H70.77v8.87Zm3.88-19.54v6.69h2.15a9.4,9.4,0,0,0,3-.31,2.64,2.64,0,0,0,1.28-1.1,4.07,4.07,0,0,0,0-3.93,2.54,2.54,0,0,0-1.27-1.08,11.61,11.61,0,0,0-3.2-.27Z"/><path class="cls-5" d="M84.83,155.15h7.1a10.55,10.55,0,0,1,4.06.6,6.81,6.81,0,0,1,2.52,2,10.45,10.45,0,0,1,1.81,3.71,20.76,20.76,0,0,1,.66,5.66,18.2,18.2,0,0,1-.69,5.3A10.63,10.63,0,0,1,98.55,176,6.77,6.77,0,0,1,96,178a9.55,9.55,0,0,1-3.85.67H84.83Zm3.88,4v15.56h2.92a7.59,7.59,0,0,0,2.72-.35,3.29,3.29,0,0,0,1.38-1.07,6.11,6.11,0,0,0,.89-2.25A18.77,18.77,0,0,0,97,167a18.48,18.48,0,0,0-.36-4.12,5.46,5.46,0,0,0-1.12-2.37,3.57,3.57,0,0,0-1.85-1.14,15.42,15.42,0,0,0-3.16-.21Z"/><path class="cls-5" d="M104.32,178.67V155.15h13.22v4H108.2v5.57h8.08v4H108.2v10Z"/></g></g></svg>