<svg xmlns="http://www.w3.org/2000/svg" viewBox="0 0 401.21 273.41"><defs><style>.cls-1{isolation:isolate;}.cls-2{fill:#1e120d;opacity:0.2;mix-blend-mode:multiply;}.cls-10,.cls-15,.cls-17,.cls-2,.cls-3,.cls-30,.cls-31,.cls-32,.cls-4,.cls-41,.cls-5,.cls-7,.cls-8,.cls-9{fill-rule:evenodd;}.cls-3{fill:#198f34;}.cls-4{fill:#54a93b;}.cls-5{fill:#c78743;}.cls-6{fill:#9e692a;}.cls-19,.cls-7{fill:#969796;}.cls-10,.cls-11,.cls-12,.cls-8{fill:#333;}.cls-9{fill:#010001;}.cls-10,.cls-11,.cls-9{stroke:#010001;stroke-miterlimit:22.93;stroke-width:0.42px;}.cls-13{fill:gray;}.cls-14{fill:#68ae25;}.cls-15{fill:#656565;}.cls-16{fill:#f05032;}.cls-17{fill:#fff;opacity:0.15;}.cls-18{fill:#3bb6e4;}.cls-20{fill:#f8d5a4;}.cls-21,.cls-31{fill:#e66c4b;}.cls-22,.cls-23,.cls-24{fill:none;stroke:#aeadb3;stroke-linecap:round;stroke-linejoin:round;stroke-width:2.76px;}.cls-23{stroke-dasharray:2.92 7.31;}.cls-24{stroke-dasharray:2.92 7.31;}.cls-25,.cls-29{fill:#fffbe7;}.cls-25{opacity:0.6;mix-blend-mode:hard-light;}.cls-26{fill:#1d383c;}.cls-27{fill:#de2c48;}.cls-28{fill:#9b9ba1;}.cls-30{fill:#cc190e;}.cls-32{fill:#f2b5a1;}.cls-33{fill:#c7c549;}.cls-34{fill:#4c3617;stroke:#3d2314;stroke-miterlimit:10;stroke-width:0.9px;}.cls-35{fill:#575756;}.cls-36{fill:#f1b486;}.cls-37{fill:#ffc691;}.cls-38{fill:#281123;}.cls-39{fill:#282f39;}.cls-40{fill:#191e23;}.cls-41,.cls-42{fill:#cfd0d5;}</style></defs><title>g2</title><g class="cls-1"><g id="Capa_2" data-name="Capa 2"><g id="CONTENIDO"><g id="_Grupo_" data-name="&lt;Grupo&gt;"><polygon id="_Trazado_" data-name="&lt;Trazado&gt;" class="cls-2" points="380.43 250.24 16.1 250.24 9.22 251.96 380.43 251.96 380.43 250.24"/><polygon id="_Trazado_2" data-name="&lt;Trazado&gt;" class="cls-2" points="230.41 271.66 123.36 271.66 116.49 273.4 240.14 273.4 230.41 271.66"/><g id="_Grupo_2" data-name="&lt;Grupo&gt;"><path id="_Trazado_3" data-name="&lt;Trazado&gt;" class="cls-3" d="M378.22,115.46a2.25,2.25,0,0,1-2-4,3.36,3.36,0,0,1,2-.66c2.79.09,4.11.05,4.16.11s-.82,1.12-2.44,3.37a3.33,3.33,0,0,1-1.75,1.17Z"/><path id="_Trazado_4" data-name="&lt;Trazado&gt;" class="cls-3" d="M378.68,109.83a1.35,1.35,0,0,1,.16-2.67,2,2,0,0,1,1.23.24c1.43.87,2.13,1.24,2.14,1.29s-.76.34-2.27,1a2,2,0,0,1-1.26.1Z"/><path id="_Trazado_5" data-name="&lt;Trazado&gt;" class="cls-3" d="M372.75,120.06a1.89,1.89,0,0,0-1-3.61,2.83,2.83,0,0,0-1.62.68c-1.72,1.61-2.57,2.32-2.57,2.39s1.14.25,3.42.77a2.83,2.83,0,0,0,1.76-.23Z"/><path id="_Trazado_6" data-name="&lt;Trazado&gt;" class="cls-4" d="M374.31,125.47c0-1.1,0-2.61.08-4.23.28-10.61.69-26.65-10.51-27.52l.18-2.46c13.54,1.05,13.09,18.5,12.79,30,0,1.43-.07,2.76-.07,4.17Z"/><path id="_Trazado_7" data-name="&lt;Trazado&gt;" class="cls-4" d="M373.25,125.86c0-.71,0-1.65.08-2.65.27-6.38.67-16-10.48-16.56l.11-2.46c13.6.65,13.13,11.77,12.82,19.12,0,.89-.07,1.71-.07,2.56Z"/><path id="_Trazado_8" data-name="&lt;Trazado&gt;" class="cls-4" d="M376.78,125c0-.5,0-1-.07-1.62s-.07-1-.09-1.65h0c-.15-4.87.84-10.9,12.93-11.28l.08,2.46c-9.84.31-10.66,5-10.55,8.74h0c0,.47.05,1,.09,1.56s.08,1.27.08,1.77Z"/><path id="_Trazado_9" data-name="&lt;Trazado&gt;" class="cls-4" d="M375.43,126.05c0-1.21,0-2.37-.07-3.61-.3-10.05-.76-25.26,12.8-26.17l.16,2.46c-11.19.75-10.78,14.53-10.5,23.65,0,1.41.08,2.71.08,3.67Z"/><path id="_Trazado_10" data-name="&lt;Trazado&gt;" class="cls-5" d="M361.95,124.51h27c.58,0,1.15.39,1.06.84l-4.48,22.71a1,1,0,0,1-1.06.84h-18a1,1,0,0,1-1.06-.84l-4.52-22.71C360.79,124.89,361.36,124.51,361.95,124.51Z"/><path id="_Trazado_11" data-name="&lt;Trazado&gt;" class="cls-6" d="M360.65,122.77h29.88a.93.93,0,0,1,.93.93v3.35a.93.93,0,0,1-.93.93H360.65a.92.92,0,0,1-.92-.92V123.7A.92.92,0,0,1,360.65,122.77Z"/><path id="_Trazado_12" data-name="&lt;Trazado&gt;" class="cls-3" d="M363.14,100.88a4.79,4.79,0,0,1-.8,9.47,7.21,7.21,0,0,1-4.35-1c-5-3.21-7.48-4.6-7.51-4.77s2.74-1.15,8.16-3.51a7.13,7.13,0,0,1,4.49-.24Z"/><path id="_Trazado_13" data-name="&lt;Trazado&gt;" class="cls-3" d="M365.79,87.73a4.8,4.8,0,0,1-2.41,9.19,7.2,7.2,0,0,1-4.12-1.68c-4.39-4-6.58-5.82-6.58-6s2.89-.66,8.64-2.06a7.14,7.14,0,0,1,4.47.54Z"/><path id="_Trazado_14" data-name="&lt;Trazado&gt;" class="cls-3" d="M388,101.41a4.8,4.8,0,0,1-3.93-8.65,7.21,7.21,0,0,1,4.26-1.29c5.95.35,8.78.36,8.88.49s-1.83,2.34-5.41,7.05a7.15,7.15,0,0,1-3.81,2.4Z"/><path id="_Trazado_15" data-name="&lt;Trazado&gt;" class="cls-3" d="M388.47,116a4.8,4.8,0,0,1,1-9.44,7.21,7.21,0,0,1,4.33,1.06c4.93,3.34,7.36,4.79,7.38,5s-2.76,1.08-8.25,3.3a7.14,7.14,0,0,1-4.5.12Z"/><path id="_Trazado_16" data-name="&lt;Trazado&gt;" class="cls-3" d="M379.85,103.26a1.86,1.86,0,0,1,3.47-1.25,2.79,2.79,0,0,1,.37,1.69c-.32,2.29-.41,3.39-.47,3.42s-.85-.78-2.56-2.32a2.78,2.78,0,0,1-.81-1.55Z"/><path id="_Trazado_17" data-name="&lt;Trazado&gt;" class="cls-3" d="M380.78,97.94a2.22,2.22,0,0,1-4,1.75,3.33,3.33,0,0,1-.56-2c.21-2.75.24-4.06.3-4.1s1.07.86,3.22,2.56a3.31,3.31,0,0,1,1.08,1.78Z"/><path id="_Trazado_18" data-name="&lt;Trazado&gt;" class="cls-3" d="M373.28,95.15a2.22,2.22,0,0,1-2.47-3.63,3.34,3.34,0,0,1,1.84-.92c2.74-.31,4-.53,4.09-.48s-.65,1.21-1.91,3.64a3.3,3.3,0,0,1-1.55,1.39Z"/><path id="_Trazado_19" data-name="&lt;Trazado&gt;" class="cls-3" d="M370.06,98.83a1.88,1.88,0,0,1,2.37,2.87,2.82,2.82,0,0,1-1.48.92c-2.28.47-3.36.76-3.41.72s.45-1.07,1.33-3.22a2.79,2.79,0,0,1,1.19-1.3Z"/><path id="_Trazado_20" data-name="&lt;Trazado&gt;" class="cls-3" d="M367.55,109.8a3,3,0,0,1,3.79,4.59,4.52,4.52,0,0,1-2.37,1.48c-3.66.76-5.37,1.22-5.46,1.15s.72-1.71,2.12-5.15a4.47,4.47,0,0,1,1.91-2.07Z"/><path id="_Trazado_21" data-name="&lt;Trazado&gt;" class="cls-3" d="M380.65,118.43A2.42,2.42,0,0,1,384,115a3.63,3.63,0,0,1,1.39,1.77c.93,2.86,1.44,4.2,1.4,4.27s-1.44-.43-4.31-1.25a3.61,3.61,0,0,1-1.83-1.35Z"/><path id="_Trazado_22" data-name="&lt;Trazado&gt;" class="cls-3" d="M373.62,107.2a1.35,1.35,0,0,0-1.65-2.1,2,2,0,0,0-.87.9c-.68,1.53-1,2.24-1,2.28s.82-.15,2.46-.44a2,2,0,0,0,1.09-.64Z"/></g><g id="_Grupo_3" data-name="&lt;Grupo&gt;"><path id="_Trazado_23" data-name="&lt;Trazado&gt;" class="cls-7" d="M280,58.9H306.7a6.53,6.53,0,0,1,6.51,6.51v81.85a2.92,2.92,0,0,1-2.91,2.92H276.36a2.92,2.92,0,0,1-2.91-2.92V65.42A6.53,6.53,0,0,1,280,58.9Z"/><path id="_Trazado_24" data-name="&lt;Trazado&gt;" class="cls-8" d="M282.12,63.13h22.11a5.4,5.4,0,0,1,5.39,5.39v65a2.42,2.42,0,0,1-2.41,2.41H279.14a2.42,2.42,0,0,1-2.41-2.41v-65A5.4,5.4,0,0,1,282.12,63.13Z"/><path id="_Trazado_25" data-name="&lt;Trazado&gt;" class="cls-9" d="M293.17,96.69a12.06,12.06,0,1,0-12.05-12.06A12.08,12.08,0,0,0,293.17,96.69Z"/><path id="_Trazado_26" data-name="&lt;Trazado&gt;" class="cls-10" d="M293.17,92.09a7.46,7.46,0,1,0-7.46-7.46A7.48,7.48,0,0,0,293.17,92.09Z"/><path id="_Trazado_27" data-name="&lt;Trazado&gt;" class="cls-9" d="M293.33,124.71a8.45,8.45,0,1,0-8.46-8.45A8.47,8.47,0,0,0,293.33,124.71Z"/><circle id="_Trazado_28" data-name="&lt;Trazado&gt;" class="cls-11" cx="293.33" cy="116.26" r="4.54"/></g><g id="_Grupo_4" data-name="&lt;Grupo&gt;"><path id="_Trazado_29" data-name="&lt;Trazado&gt;" class="cls-7" d="M45.09,58.9H71.83a6.53,6.53,0,0,1,6.51,6.51v81.85a2.92,2.92,0,0,1-2.91,2.92H41.49a2.92,2.92,0,0,1-2.91-2.92V65.42A6.53,6.53,0,0,1,45.09,58.9Z"/><path id="_Trazado_30" data-name="&lt;Trazado&gt;" class="cls-8" d="M47.25,63.13H69.36a5.4,5.4,0,0,1,5.39,5.39v65a2.42,2.42,0,0,1-2.41,2.41H44.27a2.42,2.42,0,0,1-2.41-2.41v-65A5.4,5.4,0,0,1,47.25,63.13Z"/><circle id="_Trazado_31" data-name="&lt;Trazado&gt;" class="cls-12" cx="57.77" cy="142.42" r="4.76" transform="translate(-84.83 199.74) rotate(-89.82)"/><circle id="_Trazado_32" data-name="&lt;Trazado&gt;" class="cls-13" cx="57.77" cy="142.41" r="2.79" transform="translate(-84.82 199.75) rotate(-89.83)"/><circle id="_Trazado_33" data-name="&lt;Trazado&gt;" class="cls-14" cx="44.89" cy="143.04" r="1.31" transform="translate(-98.28 187.51) rotate(-89.83)"/><path id="_Trazado_34" data-name="&lt;Trazado&gt;" class="cls-9" d="M58.3,96.69A12.06,12.06,0,1,0,46.24,84.63,12.08,12.08,0,0,0,58.3,96.69Z"/><path id="_Trazado_35" data-name="&lt;Trazado&gt;" class="cls-10" d="M58.3,92.09a7.46,7.46,0,1,0-7.46-7.46A7.48,7.48,0,0,0,58.3,92.09Z"/><path id="_Trazado_36" data-name="&lt;Trazado&gt;" class="cls-9" d="M58.46,124.71A8.45,8.45,0,1,0,50,116.26,8.47,8.47,0,0,0,58.46,124.71Z"/><circle id="_Trazado_37" data-name="&lt;Trazado&gt;" class="cls-11" cx="58.46" cy="116.26" r="4.54"/><circle id="_Trazado_38" data-name="&lt;Trazado&gt;" class="cls-12" cx="69.69" cy="142.42" r="2.93" transform="matrix(0, -1, 1, 0, -72.93, 211.69)"/><circle id="_Trazado_39" data-name="&lt;Trazado&gt;" class="cls-13" cx="69.69" cy="142.41" r="1.72" transform="translate(-72.95 211.66) rotate(-89.82)"/></g><g id="_Grupo_5" data-name="&lt;Grupo&gt;"><path id="_Trazado_40" data-name="&lt;Trazado&gt;" class="cls-15" d="M161,120.42h31.87c-.36,9.13.76,19.94,6.7,26.24H154.25C160.19,140.36,161.3,129.55,161,120.42Z"/><rect id="_Trazado_41" data-name="&lt;Trazado&gt;" class="cls-12" x="86.03" y="13.02" width="180.52" height="116.85" rx="5.25" ry="5.25"/><rect id="_Trazado_42" data-name="&lt;Trazado&gt;" class="cls-16" x="91.33" y="18.83" width="168.79" height="95.93" rx="0.33" ry="0.33"/><path id="_Trazado_43" data-name="&lt;Trazado&gt;" class="cls-17" d="M91.68,18.83H259.78c3,0-25.47,26.66-80.1,59.5-43,25.87-88.59,37.21-88.35,36.1V19.15A.34.34,0,0,1,91.68,18.83Z"/><ellipse id="_Trazado_44" data-name="&lt;Trazado&gt;" class="cls-18" cx="98.67" cy="121.66" rx="2.4" ry="2.45"/><ellipse id="_Trazado_45" data-name="&lt;Trazado&gt;" class="cls-19" cx="107.96" cy="121.66" rx="2.4" ry="2.45"/><ellipse id="_Trazado_46" data-name="&lt;Trazado&gt;" class="cls-19" cx="117.15" cy="121.66" rx="2.4" ry="2.45"/><path id="_Trazado_47" data-name="&lt;Trazado&gt;" class="cls-8" d="M141.75,140.74h73.47a4.73,4.73,0,0,1,4.72,4.72v2.9a1.83,1.83,0,0,1-1.82,1.83H138.54a1.51,1.51,0,0,1-1.51-1.51v-3.22A4.74,4.74,0,0,1,141.75,140.74Z"/></g><g id="_Grupo_6" data-name="&lt;Grupo&gt;"><g id="_Grupo_7" data-name="&lt;Grupo&gt;"><rect id="_Trazado_48" data-name="&lt;Trazado&gt;" class="cls-20" x="-5.59" y="201.1" width="110.3" height="5.78" transform="translate(-150.92 141.72) rotate(-59.09)"/><rect id="_Trazado_49" data-name="&lt;Trazado&gt;" class="cls-20" x="107.51" y="148.84" width="5.78" height="110.3" transform="translate(-89.11 85.68) rotate(-30.91)"/></g><g id="_Grupo_8" data-name="&lt;Grupo&gt;"><rect id="_Trazado_50" data-name="&lt;Trazado&gt;" class="cls-20" x="230.5" y="201.1" width="110.3" height="5.78" transform="matrix(0.51, -0.86, 0.86, 0.51, -36.11, 344.28)"/><rect id="_Trazado_51" data-name="&lt;Trazado&gt;" class="cls-20" x="343.6" y="148.84" width="5.78" height="110.3" transform="translate(-55.58 206.98) rotate(-30.91)"/></g></g><path id="_Trazado_compuesto_" data-name="&lt;Trazado compuesto&gt;" class="cls-21" d="M16.51,133.28c0,5.72,3.19,10.37,7.13,10.37a5,5,0,0,0,1.26-.17v3.22a1.5,1.5,0,0,0,1.5,1.5H47.6a1.51,1.51,0,0,0,1.51-1.5V120.34a1.51,1.51,0,0,0-1.51-1.51H26.4a1.51,1.51,0,0,0-1.5,1.51v2.74a5,5,0,0,0-1.26-.17C19.7,122.91,16.51,127.55,16.51,133.28Zm2.31,0c0-3.87,2.16-7,4.82-7a3.43,3.43,0,0,1,1.26.25V140a3.43,3.43,0,0,1-1.26.25C21,140.29,18.81,137.15,18.81,133.28Z"/><g id="_Grupo_9" data-name="&lt;Grupo&gt;"><path class="cls-22" d="M55.2,202.15s.43.15,1.32.39"/><path class="cls-23" d="M63.71,203.85c7.25.91,19.37,1.44,37.18-.74"/><path class="cls-22" d="M104.52,202.63l1.37-.19"/></g><g id="_Grupo_10" data-name="&lt;Grupo&gt;"><path class="cls-22" d="M291.08,202.15s.43.15,1.32.39"/><path class="cls-24" d="M299.59,203.85c7.25.91,19.37,1.44,37.18-.74"/><path class="cls-22" d="M340.4,202.63l1.37-.19"/></g><polygon id="_Trazado_52" data-name="&lt;Trazado&gt;" class="cls-25" points="290.59 50.58 263.17 151.59 374.41 151.06 332.25 46.74 290.59 50.58"/><g id="_Grupo_11" data-name="&lt;Grupo&gt;"><polygon id="_Trazado_53" data-name="&lt;Trazado&gt;" class="cls-26" points="325.61 35.59 339.02 35.33 339.55 40.51 327.07 41.04 325.61 35.59"/><polygon id="_Trazado_54" data-name="&lt;Trazado&gt;" class="cls-26" points="348.04 37.32 381.23 86.03 378.04 90.68 343.13 40.64 348.04 37.32"/><path id="_Trazado_55" data-name="&lt;Trazado&gt;" class="cls-26" d="M374.72,88.56l-19.64,37.17a6.35,6.35,0,0,0,1.33,7.7l4.12-1.59L379.9,92Z"/><path id="_Trazado_56" data-name="&lt;Trazado&gt;" class="cls-27" d="M348.85,139.35a2,2,0,0,1-1.95,1.95h-3.71a2,2,0,0,1-1.95-1.95h0a2,2,0,0,1,1.95-1.95h3.71a2,2,0,0,1,1.95,1.95Z"/><circle id="_Trazado_57" data-name="&lt;Trazado&gt;" class="cls-28" cx="343.66" cy="37.19" r="5.51"/><circle id="_Trazado_58" data-name="&lt;Trazado&gt;" class="cls-28" cx="379.1" cy="87.63" r="5.51"/><circle id="_Trazado_59" data-name="&lt;Trazado&gt;" class="cls-28" cx="359.99" cy="135.92" r="6.4"/><path id="_Trazado_60" data-name="&lt;Trazado&gt;" class="cls-26" d="M329,148.54s21.71-22.27,44.73.37Z"/><circle id="_Trazado_61" data-name="&lt;Trazado&gt;" class="cls-29" cx="310.05" cy="49.13" r="5.04"/><path id="_Trazado_62" data-name="&lt;Trazado&gt;" class="cls-28" d="M332.23,47.09c0-.12,0-.23,0-.35,0-10.7-9.42-19.38-21-19.38s-21,8.68-21,19.38a18,18,0,0,0,.42,3.84Z"/></g><g id="_Grupo_12" data-name="&lt;Grupo&gt;"><path id="_Trazado_63" data-name="&lt;Trazado&gt;" class="cls-30" d="M340.85,119.18l-2.4.27c1.3-4.59,2.76-9.49,4.06-14.08.29-.54,2.09-.19,2.11.38Z"/><path id="_Trazado_64" data-name="&lt;Trazado&gt;" class="cls-31" d="M329.85,119h20.84a.44.44,0,0,1,.45.48l-4,29a.49.49,0,0,1-.45.48H333.74a.49.49,0,0,1-.45-.48l-3.89-29A.44.44,0,0,1,329.85,119Z"/><path id="_Trazado_65" data-name="&lt;Trazado&gt;" class="cls-32" d="M329.32,118.09h21.61a1.1,1.1,0,0,1,1.09,1.1v.75a.34.34,0,0,1-.34.34H328.57a.34.34,0,0,1-.34-.34v-.75A1.1,1.1,0,0,1,329.32,118.09Z"/><rect id="_Trazado_66" data-name="&lt;Trazado&gt;" class="cls-33" x="337.85" y="117.15" width="4.64" height="1.29" rx="0.52" ry="0.52"/><polygon id="_Trazado_67" data-name="&lt;Trazado&gt;" class="cls-32" points="330.65 128.83 332.08 138.69 348.4 138.69 349.7 128.83 330.65 128.83"/></g><rect id="_Trazado_68" data-name="&lt;Trazado&gt;" class="cls-20" y="147.96" width="396.05" height="7.71"/><g id="_Grupo_13" data-name="&lt;Grupo&gt;"><g id="_Grupo_14" data-name="&lt;Grupo&gt;"><g id="_Grupo_15" data-name="&lt;Grupo&gt;"><g id="_Grupo_16" data-name="&lt;Grupo&gt;"><path id="_Trazado_69" data-name="&lt;Trazado&gt;" class="cls-34" d="M141.34,160.33s-15.82,3.36-17.9,8.15-1.76,17.26.64,24,19.66,48.59,20,52.43c0,0,4.8,1,5.91,1.12,0,0-15.82,7-16.46,13.27s31.49,4.48,35.65-3c0,0-2.56-7.83-4.48-10.23,0,0,1.44-2.24,1.12-3.2s-8.79-27-9.91-32.61-5.91-17.1-3-19.5,22.7-2.88,22.7-2.88h.71s19.82.48,22.7,2.88-1.92,13.91-3,19.5-9.59,31.65-9.91,32.61,1.12,3.2,1.12,3.2c-1.92,2.4-4.48,10.23-4.48,10.23,4.16,7.51,36.28,9.27,35.65,3S201.83,246,201.83,246c1.12-.16,5.91-1.12,5.91-1.12.32-3.84,17.58-45.72,20-52.43s2.72-19.18.64-24-17.9-8.15-17.9-8.15S203.07,167,177.18,167,141.34,160.33,141.34,160.33Z"/></g><path id="_Trazado_70" data-name="&lt;Trazado&gt;" class="cls-35" d="M150,246s-15.82,7-16.46,13.27,31.49,4.48,35.65-3c0,0-2.56-7.83-4.48-10.23C164.68,246,162.95,248,150,246Z"/><path id="_Trazado_71" data-name="&lt;Trazado&gt;" class="cls-35" d="M201.83,246c-12,1.76-14.71,0-14.71,0-1.92,2.4-4.48,10.23-4.48,10.23,4.16,7.51,36.28,9.27,35.65,3S201.83,246,201.83,246Z"/></g><g id="_Grupo_17" data-name="&lt;Grupo&gt;"><g id="_Grupo_18" data-name="&lt;Grupo&gt;"><path id="_Trazado_72" data-name="&lt;Trazado&gt;" class="cls-36" d="M185.93,56.47h0a78.08,78.08,0,0,1-.32-8.35c5.75-4.24,7.75-14.23,7.75-14.23s2.72-3.52,2.88-5.75a3.06,3.06,0,0,0-1.44-3c.43-13.19-4.07-21.06-9.52-23.53C182.94.5,178.47,0,175.9,0s-7,.5-9.38,1.57C161.08,4,156.57,11.91,157,25.1a3.06,3.06,0,0,0-1.44,3c.16,2.24,2.88,5.75,2.88,5.75s2,10,7.75,14.23a78.08,78.08,0,0,1-.32,8.35h0A39.61,39.61,0,0,0,185.93,56.47Z"/></g><g id="_Grupo_19" data-name="&lt;Grupo&gt;"><path id="_Trazado_73" data-name="&lt;Trazado&gt;" class="cls-37" d="M194.8,25.1c.43-13.19-4.07-21.06-9.52-23.53C182.94.5,178.47,0,175.9,0s-7,.5-9.38,1.57C161.08,4,156.57,11.91,157,25.1a3.06,3.06,0,0,0-1.44,3c.16,2.24,2.88,5.75,2.88,5.75s2,10,7.75,14.23c0,0,0,2.5-.06,4.83,2.33,1.08,5.28,1.86,10.22,1.86,4.1,0,7.9-1.13,9.29-2.52-.05-2.12,0-4.17,0-4.17,5.75-4.24,7.75-14.23,7.75-14.23s2.72-3.52,2.88-5.75A3.06,3.06,0,0,0,194.8,25.1Z"/></g><path id="_Trazado_74" data-name="&lt;Trazado&gt;" class="cls-38" d="M194.8,25.1c.43-13.19-4.07-21.06-9.52-23.53C182.94.5,178.47,0,175.9,0s-7,.5-9.38,1.57C161.08,4,156.57,11.91,157,25.1c0,0,.07,2.24.19,3.48s1.25,5.31,1.25,5.31,2,10,7.75,14.23a16.07,16.07,0,0,0,9.3,3.36c5.27,0,10.11-3.36,10.11-3.36,5.75-4.24,7.75-14.23,7.75-14.23s1-4,1.08-5S194.8,25.1,194.8,25.1Z"/></g><g id="_Grupo_20" data-name="&lt;Grupo&gt;"><path id="_Trazado_75" data-name="&lt;Trazado&gt;" class="cls-39" d="M243.18,138.13c-1.2-4.44-26.08-63.09-31.36-70s-21-8.39-21-8.39c0-1.56-4.92-3.24-4.92-3.24h0a39.61,39.61,0,0,1-20.05,0h0A21.64,21.64,0,0,0,163,57.74c-1.06.58-2,1.28-2,2,0,0-15.7,1.44-21,8.39s-30.5,65.6-31.7,70,1.46,8.65,5.51,9.11c5.27.6,15.23,1.6,19.3-1A31.34,31.34,0,0,0,136.6,143c1-1,2-2.11,3.1-3.26,2.83-3,5.77-33.08,6.43-34.1h0s-.25,3.08-.62,7.36l-.19,2.23-.21,2.38c-.47,5.28-1,11.23-1.53,15.46-.11,1-.22,1.86-.33,2.63a49.15,49.15,0,0,1-1.51,6.52c-.64,2.27-1.34,4.58-1.84,6.81-1,4.46-1.2,8.57,1.44,11.29h0s9.94,6.65,35.84,6.65,33.29-6.65,33.29-6.65h0c3-3.06,2.34-7.88,1-13-.44-1.7-1-3.42-1.43-5.12a49.15,49.15,0,0,1-1.51-6.52c-.1-.76-.22-1.65-.33-2.63s-.23-2-.35-3.17c-.08-.75-.16-1.53-.24-2.33s-.16-1.62-.24-2.45c-.16-1.66-.32-3.36-.47-5-.08-.83-.15-1.66-.22-2.47-.15-1.62-.28-3.18-.4-4.61-.37-4.28-.62-7.36-.62-7.36h0c.91,1.4,5.64,33.73,9.19,37.36a31.42,31.42,0,0,0,3.51,3.27c4.08,2.56,14,1.56,19.3,1a6.26,6.26,0,0,0,3.84-1.92,7.16,7.16,0,0,0,1.89-4A8.06,8.06,0,0,0,243.18,138.13Z"/><path id="_Trazado_76" data-name="&lt;Trazado&gt;" class="cls-40" d="M190.84,59.7c0-1.56-4.92-3.24-4.92-3.24a39.61,39.61,0,0,1-20.05,0S161,58.14,161,59.7c0,0,4.23,1.68,15,1.68S190.84,59.7,190.84,59.7Z"/></g></g></g><g id="_Grupo_21" data-name="&lt;Grupo&gt;"><path id="_Trazado_77" data-name="&lt;Trazado&gt;" class="cls-41" d="M173.75,229.48v12.94c-31.79.7-51.2,9.77-52.05,10.17a3.8,3.8,0,0,0-2.17,3.42v3.45a7.39,7.39,0,1,0,7.6,0v-.93c5.69-2.26,22.4-8,46.62-8.52v9.45a7.39,7.39,0,1,0,7.6,0V250c24.12.56,40.89,6.27,46.62,8.52v.93a7.39,7.39,0,1,0,7.58,0V256a3.8,3.8,0,0,0-2.15-3.42c-.84-.4-20.26-9.47-52.06-10.17v-13Z"/><rect id="_Trazado_78" data-name="&lt;Trazado&gt;" class="cls-42" x="167.77" y="192.68" width="19.64" height="44.98"/><rect id="_Trazado_79" data-name="&lt;Trazado&gt;" class="cls-42" x="165.93" y="160.16" width="22.09" height="30.23"/><path id="_Trazado_80" data-name="&lt;Trazado&gt;" class="cls-8" d="M154.3,59.26h49.12a17.2,17.2,0,0,1,17.15,17.15v87.86a8.16,8.16,0,0,1-8.14,8.14H140.35a8.75,8.75,0,0,1-8.72-8.72V81.93A22.74,22.74,0,0,1,154.3,59.26Z"/><path id="_Trazado_81" data-name="&lt;Trazado&gt;" class="cls-41" d="M118.6,167.5c0,4.49,0,7.18.07,9.81,0,3.8.09,7.52.09,9.16,0,1.4.48,2.14,1.47,2.44,2.36.7,6.42.52,12.12-.08l.82,8c-6.68.71-11.65.86-15.22-.2-4.94-1.46-7.3-4.57-7.3-10.2,0-4.12,0-6.57-.06-9.06,0-3.91-.1-7.9-.1-9.9Z"/><path id="_Trazado_82" data-name="&lt;Trazado&gt;" class="cls-41" d="M232.64,167.5c0,4.49,0,7.18-.07,9.81,0,3.8-.09,7.52-.09,9.16,0,1.4-.48,2.14-1.47,2.44-2.36.7-6.42.52-12.12-.08l-.82,8c6.68.71,11.65.86,15.22-.2,4.94-1.46,7.3-4.57,7.3-10.2,0-4.12,0-6.57.06-9.06,0-3.91.1-7.9.1-9.9Z"/><rect id="_Trazado_83" data-name="&lt;Trazado&gt;" class="cls-12" x="103.62" y="160.37" width="23.76" height="9.19" rx="2.53" ry="2.53"/><path id="_Trazado_84" data-name="&lt;Trazado&gt;" class="cls-12" d="M227.8,160.37h18.69a2.54,2.54,0,0,1,2.54,2.54V167a2.53,2.53,0,0,1-2.53,2.53H227.8a2.53,2.53,0,0,1-2.53-2.53v-4.12A2.53,2.53,0,0,1,227.8,160.37Z"/><path id="_Trazado_85" data-name="&lt;Trazado&gt;" class="cls-8" d="M133.59,184.93H219a7.58,7.58,0,0,1,7.56,7.56h0a7.58,7.58,0,0,1-7.56,7.56H133.59a7.58,7.58,0,0,1-7.56-7.56h0A7.58,7.58,0,0,1,133.59,184.93Z"/></g></g></g></g></g></svg>