<svg xmlns="http://www.w3.org/2000/svg" xmlns:xlink="http://www.w3.org/1999/xlink" viewBox="0 0 517.27 889.06"><defs><style>.cls-1,.cls-29{fill:none;}.cls-2{fill:#cecece;}.cls-3{clip-path:url(#clip-path);}.cls-4{fill:#f9af86;}.cls-5{fill:#171318;}.cls-6{fill:#232025;}.cls-7{fill:#403f41;}.cls-8{fill:#cac9c8;}.cls-9{fill:#ffbd99;}.cls-10{fill:#2a272c;}.cls-11{fill:#231f25;}.cls-12{fill:#140f15;}.cls-13{fill:#e2e0df;}.cls-14{fill:#f05032;}.cls-15{fill:#201b21;}.cls-16{fill:#bf3826;}.cls-17{fill:#db875a;}.cls-18{fill:#1b161d;}.cls-19{fill:#3d3b3f;}.cls-20{fill:#2b262d;}.cls-21{fill:#e8c3aa;stroke:#e0aa86;stroke-width:0.48px;}.cls-21,.cls-29{stroke-miterlimit:10;}.cls-22{fill:#f9b693;}.cls-23{fill:#eaa283;}.cls-24{fill:#fff;}.cls-25{fill:#5098d8;}.cls-26{fill:#1d1d1b;}.cls-27{fill:#49342a;}.cls-28{fill:#5e4334;}.cls-29{stroke:#d19879;}</style><clipPath id="clip-path" transform="translate(-9.35 -6.54)"><rect class="cls-1" width="504.85" height="554.32"/></clipPath></defs><title>g3</title><g id="Capa_2" data-name="Capa 2"><g id="CONTENIDO"><path class="cls-2" d="M140.34,273.71a.73.73,0,0,1-.43-.14l-15.31-11a.73.73,0,0,1-.17-1,19.53,19.53,0,0,1,9.33-7,.73.73,0,0,1,.93.44L141,272.74a.73.73,0,0,1-.69,1Zm-14.28-11.89,12.8,9.2-5.29-14.86A18.05,18.05,0,0,0,126.06,261.82Z" transform="translate(-9.35 -6.54)"/><path class="cls-2" d="M140.34,292.57a19.58,19.58,0,0,1-15.91-31,.73.73,0,0,1,1-.17l15.31,11a.73.73,0,0,1,.3.59v18.86A.73.73,0,0,1,140.34,292.57ZM125.21,263a18.12,18.12,0,0,0,14.4,28.08V273.36Z" transform="translate(-9.35 -6.54)"/><path class="cls-2" d="M159.2,273.71H140.34a.73.73,0,0,1-.69-.49l-6.33-17.76a.73.73,0,0,1,.44-.93A19.59,19.59,0,0,1,159.93,273,.73.73,0,0,1,159.2,273.71Zm-18.34-1.46h17.59a18.13,18.13,0,0,0-23.5-16.58Z" transform="translate(-9.35 -6.54)"/><path class="cls-2" d="M140.34,292.57a.73.73,0,0,1-.73-.73V273a.73.73,0,0,1,.73-.73H159.2a.73.73,0,0,1,.73.73A19.61,19.61,0,0,1,140.34,292.57Zm.73-18.86v17.38a18.15,18.15,0,0,0,17.38-17.38Z" transform="translate(-9.35 -6.54)"/><path class="cls-2" d="M138.31,268l-.16,0a.73.73,0,0,1-.53-.47l-1.2-3.37a.73.73,0,0,1,.17-.76l8.92-8.92a.73.73,0,0,1,.74-.18,19.52,19.52,0,0,1,3.34,1.41.73.73,0,0,1,.17,1.16L138.83,267.8A.73.73,0,0,1,138.31,268Zm-.35-3.91.66,1.84,9.39-9.39a18,18,0,0,0-1.78-.72Z" transform="translate(-9.35 -6.54)"/><path class="cls-2" d="M137.11,264.65l-.16,0a.73.73,0,0,1-.53-.47l-1.2-3.37a.73.73,0,0,1,.17-.76l6.33-6.33a.73.73,0,0,1,.59-.21,19.57,19.57,0,0,1,3.93.81.73.73,0,0,1,.3,1.21l-8.92,8.92A.73.73,0,0,1,137.11,264.65Zm-.36-3.91.66,1.84,7.21-7.22a18.1,18.1,0,0,0-2.11-.38Z" transform="translate(-9.35 -6.54)"/><path class="cls-2" d="M135.91,261.28l-.16,0a.73.73,0,0,1-.53-.47l-1.2-3.37a.73.73,0,0,1,.17-.76l2.85-2.85a.73.73,0,0,1,.41-.21,19.64,19.64,0,0,1,4.86-.12.73.73,0,0,1,.44,1.24l-6.33,6.33A.73.73,0,0,1,135.91,261.28Zm-.36-3.91.66,1.84,4.36-4.36a18.32,18.32,0,0,0-2.66.17Z" transform="translate(-9.35 -6.54)"/><path class="cls-2" d="M139.51,271.38l-.16,0a.73.73,0,0,1-.53-.47l-1.2-3.37a.73.73,0,0,1,.17-.76l10.93-10.93a.73.73,0,0,1,.86-.13,19.69,19.69,0,0,1,2.86,1.88.73.73,0,0,1,.06,1.09L140,271.16A.73.73,0,0,1,139.51,271.38Zm-.36-3.91.66,1.84,11.07-11.07c-.49-.35-1-.68-1.52-1Z" transform="translate(-9.35 -6.54)"/><path class="cls-2" d="M134.71,257.92l-.16,0a.73.73,0,0,1-.53-.47l-.7-2a.73.73,0,0,1,.44-.93,19.62,19.62,0,0,1,3.69-.92.73.73,0,0,1,.62,1.24l-2.85,2.85A.73.73,0,0,1,134.71,257.92Zm.24-2.24.06.18.28-.28Z" transform="translate(-9.35 -6.54)"/><path class="cls-2" d="M159.2,273.71h-3.76a.73.73,0,0,1-.52-1.25l3.44-3.44a.73.73,0,0,1,1.24.38,19.69,19.69,0,0,1,.33,3.58A.73.73,0,0,1,159.2,273.71Zm-2-1.46h1.25q0-.58-.09-1.16Z" transform="translate(-9.35 -6.54)"/><path class="cls-2" d="M150.87,273.71H146.3a.73.73,0,0,1-.52-1.25l10-10a.73.73,0,0,1,1.14.13,19.54,19.54,0,0,1,1.6,3.14.73.73,0,0,1-.16.79l-7,7A.73.73,0,0,1,150.87,273.71Zm-2.8-1.46h2.5l6.43-6.43a18.09,18.09,0,0,0-.82-1.67Z" transform="translate(-9.35 -6.54)"/><path class="cls-2" d="M141.74,273.71h-1.4a.73.73,0,0,1-.69-.49l-.83-2.33a.73.73,0,0,1,.17-.76l12.49-12.49a.73.73,0,0,1,1-.06,19.79,19.79,0,0,1,2.45,2.29.73.73,0,0,1,0,1L142.26,273.5A.73.73,0,0,1,141.74,273.71Zm-.88-1.46h.58l11.9-11.9c-.41-.42-.84-.82-1.29-1.2l-11.69,11.69Z" transform="translate(-9.35 -6.54)"/><path class="cls-2" d="M155.43,273.71h-4.56a.73.73,0,0,1-.52-1.25l7-7a.73.73,0,0,1,1.2.25,19.42,19.42,0,0,1,1.06,3.68.73.73,0,0,1-.2.65L156,273.5A.73.73,0,0,1,155.43,273.71Zm-2.8-1.46h2.5l3-3a18,18,0,0,0-.53-2Z" transform="translate(-9.35 -6.54)"/><path class="cls-2" d="M146.3,273.71h-4.56a.73.73,0,0,1-.52-1.25l12.61-12.61a.72.72,0,0,1,.54-.21.73.73,0,0,1,.52.24,19.72,19.72,0,0,1,2,2.7.73.73,0,0,1-.1.91l-10,10A.73.73,0,0,1,146.3,273.71Zm-2.8-1.46H146l9.38-9.38c-.33-.5-.69-1-1.07-1.43Z" transform="translate(-9.35 -6.54)"/><path class="cls-2" d="M450,129.5h-7.31v-13H450ZM444.12,128h4.38V118h-4.38Z" transform="translate(-9.35 -6.54)"/><path class="cls-2" d="M459.7,129.5h-7.3V110.84h7.3ZM453.85,128h4.38V112.3h-4.38Z" transform="translate(-9.35 -6.54)"/><path class="cls-2" d="M469.43,129.5h-7.31V105.31h7.31ZM463.59,128H468V106.77h-4.38Z" transform="translate(-9.35 -6.54)"/><path class="cls-2" d="M479.17,129.5h-7.3V99.69h7.3ZM473.33,128h4.38V101.15h-4.38Z" transform="translate(-9.35 -6.54)"/><path class="cls-2" d="M448.27,107.4a49.72,49.72,0,0,1-5.21-.28.73.73,0,0,1,0-1.45c.21,0,20.55-2.24,24.41-13.05L464,91.51a.73.73,0,0,1-.11-1.35l10.81-5.49a.73.73,0,0,1,1,.45L479,96.28a.73.73,0,0,1-1,.88l-3.16-1.37C473.11,98.14,465.25,107.4,448.27,107.4Zm17.88-16.75,2.46.79a.73.73,0,0,1,.48.9c-1.46,5.15-6.43,9.34-14.37,12.12-1.73.6-3.41,1.08-4.93,1.45,17.12-.61,24.09-11.31,24.16-11.42a.73.73,0,0,1,.91-.28l2.29,1-2.56-8.82Z" transform="translate(-9.35 -6.54)"/><path class="cls-2" d="M65.86,144.4h-4.7a.73.73,0,0,1-.71-.55l-.77-3a11.36,11.36,0,0,1-1.12-.46L55.89,142a.73.73,0,0,1-.89-.11l-3.32-3.32a.73.73,0,0,1-.11-.89L53.15,135a11.46,11.46,0,0,1-.46-1.12l-3-.77a.73.73,0,0,1-.55-.71v-4.7a.73.73,0,0,1,.55-.71l3-.77a11.41,11.41,0,0,1,.46-1.12l-1.59-2.68a.73.73,0,0,1,.11-.89L55,118.17a.73.73,0,0,1,.89-.11l2.68,1.59a11.39,11.39,0,0,1,1.12-.46l.77-3a.73.73,0,0,1,.71-.55h4.7a.73.73,0,0,1,.71.55l.77,3a11.44,11.44,0,0,1,1.12.46l2.68-1.59a.73.73,0,0,1,.89.11l3.32,3.32a.73.73,0,0,1,.11.89l-1.59,2.68a11.44,11.44,0,0,1,.46,1.12l3,.77a.73.73,0,0,1,.55.71v4.7a.73.73,0,0,1-.55.71l-3,.77a11.49,11.49,0,0,1-.46,1.12l1.59,2.68a.73.73,0,0,1-.11.89L72,141.85a.73.73,0,0,1-.89.11l-2.68-1.59a11.41,11.41,0,0,1-1.12.46l-.77,3A.73.73,0,0,1,65.86,144.4Zm-4.13-1.46h3.56l.73-2.85a.73.73,0,0,1,.49-.52,9.92,9.92,0,0,0,1.64-.68.73.73,0,0,1,.71,0l2.54,1.5,2.52-2.52-1.5-2.54a.73.73,0,0,1,0-.71,10,10,0,0,0,.68-1.64.73.73,0,0,1,.52-.49l2.85-.73v-3.56l-2.85-.73a.73.73,0,0,1-.52-.49,9.9,9.9,0,0,0-.68-1.64.73.73,0,0,1,0-.71l1.5-2.54-2.52-2.52-2.54,1.5a.73.73,0,0,1-.71,0,9.92,9.92,0,0,0-1.64-.68.73.73,0,0,1-.49-.52l-.73-2.85H61.73L61,119.93a.73.73,0,0,1-.49.52,10,10,0,0,0-1.63.68.73.73,0,0,1-.71,0l-2.54-1.5-2.52,2.52,1.5,2.54a.73.73,0,0,1,0,.71A9.9,9.9,0,0,0,54,127a.73.73,0,0,1-.52.49l-2.85.73v3.56l2.85.73A.73.73,0,0,1,54,133a10,10,0,0,0,.68,1.64.73.73,0,0,1,0,.71l-1.5,2.54,2.52,2.52,2.54-1.5a.73.73,0,0,1,.71,0,10,10,0,0,0,1.63.68.73.73,0,0,1,.49.52Zm1.78-4.21A8.71,8.71,0,1,1,72.23,130,8.72,8.72,0,0,1,63.51,138.73Zm0-16A7.25,7.25,0,1,0,70.76,130,7.26,7.26,0,0,0,63.51,122.76Z" transform="translate(-9.35 -6.54)"/><path class="cls-2" d="M84,131.39a.73.73,0,0,1-.24,0l-3.38-1.2a.73.73,0,0,1-.48-.75l.2-2.28q-.29-.24-.56-.51l-2.25.44a.73.73,0,0,1-.8-.4l-1.55-3.24a.73.73,0,0,1,.19-.88l1.76-1.47c0-.25,0-.51,0-.76L74.93,119a.73.73,0,0,1-.28-.85l1.2-3.38a.73.73,0,0,1,.75-.48l2.28.2c.16-.19.33-.38.51-.56l-.44-2.25a.73.73,0,0,1,.4-.8l3.24-1.55a.73.73,0,0,1,.88.19l1.47,1.76c.25,0,.51,0,.76,0l1.27-1.9a.73.73,0,0,1,.85-.28l3.38,1.2a.73.73,0,0,1,.48.75l-.2,2.28q.29.24.56.51l2.25-.44a.73.73,0,0,1,.8.4L96.64,117a.73.73,0,0,1-.19.88l-1.76,1.47c0,.25,0,.51,0,.76l1.9,1.27a.73.73,0,0,1,.28.85l-1.2,3.38a.74.74,0,0,1-.75.48l-2.28-.2c-.16.19-.33.38-.51.56l.44,2.25a.73.73,0,0,1-.4.8L89,131.07a.73.73,0,0,1-.88-.19l-1.47-1.76c-.25,0-.51,0-.76,0l-1.27,1.9A.73.73,0,0,1,84,131.39ZM81.39,129l2.31.82L84.88,128a.74.74,0,0,1,.63-.32,7.34,7.34,0,0,0,1.32-.07.72.72,0,0,1,.66.25l1.36,1.63,2.22-1.06-.41-2.08a.73.73,0,0,1,.22-.68,7.5,7.5,0,0,0,.89-1,.73.73,0,0,1,.65-.29l2.11.19.82-2.31-1.76-1.18a.73.73,0,0,1-.32-.63,7.39,7.39,0,0,0-.07-1.32.73.73,0,0,1,.25-.67l1.63-1.36L94,114.92l-2.08.41a.73.73,0,0,1-.68-.22,7.48,7.48,0,0,0-1-.89.73.73,0,0,1-.29-.65l.19-2.11-2.31-.82-1.18,1.76a.74.74,0,0,1-.63.32,7.5,7.5,0,0,0-1.32.07.73.73,0,0,1-.66-.25l-1.36-1.63L80.49,112l.41,2.08a.73.73,0,0,1-.22.68,7.44,7.44,0,0,0-.89,1,.72.72,0,0,1-.65.29L77,115.82l-.82,2.31L78,119.31a.73.73,0,0,1,.32.63,7.46,7.46,0,0,0,.07,1.32.73.73,0,0,1-.26.66l-1.63,1.36,1.06,2.22,2.08-.41a.73.73,0,0,1,.68.22,7.48,7.48,0,0,0,1,.89.73.73,0,0,1,.29.65Zm4.4-1.91a6.83,6.83,0,1,1,6.44-4.56A6.81,6.81,0,0,1,85.78,127Zm0-12.21a5.37,5.37,0,1,0,1.79.31A5.38,5.38,0,0,0,85.78,114.84Z" transform="translate(-9.35 -6.54)"/><path class="cls-2" d="M229.58,137.31a18.77,18.77,0,1,1,18.77-18.77A18.79,18.79,0,0,1,229.58,137.31Zm0-36.08a17.31,17.31,0,1,0,17.31,17.31A17.33,17.33,0,0,0,229.58,101.22Z" transform="translate(-9.35 -6.54)"/><path class="cls-2" d="M229.58,134.66a16.12,16.12,0,1,1,16.12-16.12A16.14,16.14,0,0,1,229.58,134.66Zm0-30.78a14.66,14.66,0,1,0,14.66,14.66A14.68,14.68,0,0,0,229.58,103.87Z" transform="translate(-9.35 -6.54)"/><path class="cls-2" d="M230.64,132.34H228.1a.73.73,0,0,1-.73-.73v-2.29a20.32,20.32,0,0,1-2.56-.57c-1-.3-2-.61-3-.93a.73.73,0,0,1-.45-1l2-4.69a.73.73,0,0,1,.9-.41l2,.68q.55.19,1.12.33v-2.38l-.67-.16a11.26,11.26,0,0,1-1.31-.39,8.08,8.08,0,0,1-1.26-.59,4.78,4.78,0,0,1-1.17-.95,5.33,5.33,0,0,1-1.43-3.69,6.54,6.54,0,0,1,.81-3.14,7.23,7.23,0,0,1,2.1-2.43,6.78,6.78,0,0,1,1.73-.9,9.61,9.61,0,0,1,1.2-.34v-2.32a.73.73,0,0,1,.73-.73h2.54a.73.73,0,0,1,.73.73v2.36a12.47,12.47,0,0,1,2.27.66c.89.35,1.78.73,2.64,1.12a.73.73,0,0,1,.32,1.06q-.58.92-1.14,1.84c-.38.63-.79,1.26-1.22,1.87a.73.73,0,0,1-.84.27c-.54-.19-1.07-.4-1.57-.63l-.47-.19v1.58a17,17,0,0,1,1.91.63,8.84,8.84,0,0,1,2.28,1.31,6.64,6.64,0,0,1,1.67,2,5.69,5.69,0,0,1,.67,2.78,7.29,7.29,0,0,1-.36,2.23,9.22,9.22,0,0,1-.92,2,5.74,5.74,0,0,1-1.2,1.35,7.1,7.1,0,0,1-1.44.91,8.79,8.79,0,0,1-1.6.57c-.33.08-.67.15-1,.21v2.21A.73.73,0,0,1,230.64,132.34Zm-1.81-1.46h1.08v-2.12a.73.73,0,0,1,.66-.73,9.45,9.45,0,0,0,1.44-.25,7.29,7.29,0,0,0,1.33-.48,5.63,5.63,0,0,0,1.15-.72,4.26,4.26,0,0,0,.88-1,7.72,7.72,0,0,0,.76-1.68,5.82,5.82,0,0,0,.29-1.78,4.25,4.25,0,0,0-.48-2.08,5.18,5.18,0,0,0-1.31-1.55,7.37,7.37,0,0,0-1.9-1.09,15.31,15.31,0,0,0-2.26-.7.73.73,0,0,1-.57-.71v-3.15a.73.73,0,0,1,.91-.71,9.48,9.48,0,0,1,1.63.57c.3.14.6.26.92.38.3-.44.58-.89.85-1.33l.71-1.15c-.6-.26-1.21-.52-1.81-.76a11,11,0,0,0-2.56-.68.73.73,0,0,1-.63-.72v-2.25h-1.08v2.2a.73.73,0,0,1-.63.72,8.1,8.1,0,0,0-1.54.38,5.32,5.32,0,0,0-1.35.71,5.78,5.78,0,0,0-1.68,1.94,5,5,0,0,0-.63,2.45,3.86,3.86,0,0,0,1.05,2.71,3.35,3.35,0,0,0,.81.66,6.63,6.63,0,0,0,1,.48,9.84,9.84,0,0,0,1.14.34l1.24.29a.73.73,0,0,1,.56.71v3.88a.73.73,0,0,1-.88.72,18.13,18.13,0,0,1-2.17-.59l-1.39-.47-1.4,3.33,2.23.68a18.91,18.91,0,0,0,3,.61.73.73,0,0,1,.64.73Zm1.81-6.42a.73.73,0,0,1-.73-.73v-3.27a.73.73,0,0,1,1-.68,3.91,3.91,0,0,1,1.2.75,2.06,2.06,0,0,1,.71,1.57,2.1,2.1,0,0,1-.69,1.59,3.37,3.37,0,0,1-1.26.74A.74.74,0,0,1,230.64,124.45Zm-2.54-8.32a.73.73,0,0,1-.29-.06,2.6,2.6,0,0,1-.9-.63,1.76,1.76,0,0,1-.45-1.21,2.12,2.12,0,0,1,1.34-2,.73.73,0,0,1,1,.67v2.54a.73.73,0,0,1-.73.73Z" transform="translate(-9.35 -6.54)"/><path class="cls-2" d="M184.22,444.67h-.1a.73.73,0,0,1-.63-.72.77.77,0,0,1,0-.1l.06-.42a.73.73,0,0,1,1.46.11.7.7,0,0,1,0,.11l-.06.42A.73.73,0,0,1,184.22,444.67Z" transform="translate(-9.35 -6.54)"/><path class="cls-2" d="M184.34,443.86h-.11a.73.73,0,0,1-.62-.72.77.77,0,0,1,0-.11l.07-.42a.73.73,0,1,1,1.44.24l-.07.41A.73.73,0,0,1,184.34,443.86Z" transform="translate(-9.35 -6.54)"/><path class="cls-2" d="M184.11,445.5H184a.73.73,0,0,1-.64-.73.79.79,0,0,1,0-.09l.05-.43a.73.73,0,0,1,1.46.1.74.74,0,0,1,0,.1l-.05.41A.73.73,0,0,1,184.11,445.5Z" transform="translate(-9.35 -6.54)"/><path class="cls-2" d="M184,446.34h-.08a.73.73,0,0,1-.66-.73s0-.05,0-.08l0-.43a.73.73,0,0,1,1.45.17l0,.41A.73.73,0,0,1,184,446.34Z" transform="translate(-9.35 -6.54)"/><path class="cls-2" d="M184.76,441.61l-.16,0a.73.73,0,0,1-.56-.87l.09-.43a.73.73,0,0,1,1.44.16.72.72,0,0,1,0,.16l-.09.42A.73.73,0,0,1,184.76,441.61Z" transform="translate(-9.35 -6.54)"/><path class="cls-2" d="M183.92,447.21h-.07a.73.73,0,0,1-.66-.73s0,0,0-.07l0-.43a.73.73,0,0,1,1.46.14h0l0,.41A.73.73,0,0,1,183.92,447.21Z" transform="translate(-9.35 -6.54)"/><path class="cls-2" d="M184.61,442.33h-.14a.73.73,0,0,1-.59-.72.72.72,0,0,1,0-.14L184,441a.73.73,0,1,1,1.43.3l-.08.4A.73.73,0,0,1,184.61,442.33Z" transform="translate(-9.35 -6.54)"/><path class="cls-2" d="M184.47,443.07h-.12a.72.72,0,0,1-.6-.83l.72.13-.72-.13.07-.4h0a.73.73,0,1,1,1.44.27l-.07.38h0A.75.75,0,0,1,184.47,443.07Z" transform="translate(-9.35 -6.54)"/><path class="cls-2" d="M184.05,459.59a.73.73,0,0,1-.73-.65l0-.43s0-.05,0-.08a.73.73,0,0,1,1.46-.08l0,.41a.73.73,0,0,1-.64.81Z" transform="translate(-9.35 -6.54)"/><path class="cls-2" d="M184,458.72a.73.73,0,0,1-.73-.66l0-.43a.73.73,0,0,1,1.46-.13l0,.42s0,0,0,.07a.73.73,0,0,1-.66.73Z" transform="translate(-9.35 -6.54)"/><path class="cls-2" d="M184.16,460.44a.73.73,0,0,1-.72-.63v0l-.05-.41a.73.73,0,0,1,1.45-.18h0l.05.41a.76.76,0,0,1,0,.1.73.73,0,0,1-.64.72Z" transform="translate(-9.35 -6.54)"/><path class="cls-2" d="M184.4,462.06a.73.73,0,0,1-.72-.61l-.07-.42a.73.73,0,0,1,1.45-.23l.07.41a.74.74,0,0,1,0,.12.73.73,0,0,1-.61.72Z" transform="translate(-9.35 -6.54)"/><path class="cls-2" d="M184.27,461.26a.73.73,0,0,1-.72-.62l-.06-.42a.77.77,0,0,1,0-.1.73.73,0,0,1,1.46-.1l.06.42a.7.7,0,0,1,0,.11.73.73,0,0,1-.62.72Z" transform="translate(-9.35 -6.54)"/><path class="cls-2" d="M183.81,456.93a.73.73,0,0,1-.73-.68l0-.42s0,0,0,0a.73.73,0,0,1,1.46,0l0,.4s0,0,0,0a.73.73,0,0,1-.68.73Z" transform="translate(-9.35 -6.54)"/><path class="cls-2" d="M183.88,457.84a.73.73,0,0,1-.73-.67h0l0-.43a.73.73,0,0,1,1.46-.11l0,.3a.73.73,0,0,1-.71.91Z" transform="translate(-9.35 -6.54)"/><path class="cls-2" d="M183.79,449h0a.73.73,0,0,1-.69-.73s0,0,0,0l0-.42a.74.74,0,0,1,.78-.68.73.73,0,0,1,.68.73s0,0,0,0l0,.41A.73.73,0,0,1,183.79,449Z" transform="translate(-9.35 -6.54)"/><path class="cls-2" d="M183.85,448.09h-.06a.73.73,0,0,1-.67-.78v0l0-.41a.73.73,0,0,1,1.46.06s0,0,0,.06l0,.42A.73.73,0,0,1,183.85,448.09Z" transform="translate(-9.35 -6.54)"/><path class="cls-2" d="M184.85,464.33a.73.73,0,0,1-.71-.57l-.09-.43a.73.73,0,1,1,1.43-.31l.09.42a.72.72,0,0,1,0,.16.73.73,0,0,1-.57.71Z" transform="translate(-9.35 -6.54)"/><path class="cls-2" d="M184.54,462.84a.73.73,0,0,1-.72-.6l-.07-.41a.74.74,0,0,1,.59-.86.72.72,0,0,1,.85.59l.07.4a.73.73,0,0,1-.58.85Z" transform="translate(-9.35 -6.54)"/><path class="cls-2" d="M184.69,463.6A.73.73,0,0,1,184,463l-.08-.42a.72.72,0,0,1,0-.14.73.73,0,0,1,1.45-.14l.08.4a.73.73,0,0,1-.57.86Z" transform="translate(-9.35 -6.54)"/><path class="cls-2" d="M189.52,472c-2.05,0-3.79-2.36-5-6.83v0c-.1-.37-.2-.75-.29-1.15a.73.73,0,0,1,1.42-.33h0q.08.32.16.64c1.49-.16,3.5-4.8,3.5-12.27s-2-12.11-3.5-12.27l-.16.64h0a.73.73,0,0,1-1.42-.33c.09-.39.19-.78.29-1.15v0c1.24-4.47,3-6.83,5-6.83,4.27,0,6.58,10.3,6.58,20S193.8,472,189.52,472Zm-3.35-6.3c1.12,3.55,2.44,4.84,3.35,4.84,2.42,0,5.12-7.61,5.12-18.53s-2.7-18.53-5.12-18.53c-.91,0-2.23,1.29-3.35,4.84,3,.66,4.56,7.36,4.56,13.68S189.14,465,186.18,465.71Z" transform="translate(-9.35 -6.54)"/><path class="cls-2" d="M183.85,457.42a.73.73,0,0,1-.73-.68l0-.5s0,0,0,0a.73.73,0,0,1,1.46,0l0,.48s0,0,0,.06a.73.73,0,0,1-.68.73Z" transform="translate(-9.35 -6.54)"/><path class="cls-2" d="M184.75,463.9a.73.73,0,0,1-.71-.58L184,463a.73.73,0,1,1,1.43-.3l.06.3a.75.75,0,0,1,0,.15.73.73,0,0,1-.58.71Z" transform="translate(-9.35 -6.54)"/><path class="cls-2" d="M184.33,461.65a.73.73,0,0,1-.72-.62h0l-.06-.39a.73.73,0,0,1,1.45-.22l0,.26a.73.73,0,0,1-.69,1Z" transform="translate(-9.35 -6.54)"/><path class="cls-2" d="M184,446.79h-.07a.73.73,0,0,1-.66-.73s0,0,0-.07,0-.3,0-.46a.73.73,0,0,1,1.46.08.77.77,0,0,1,0,.08l0,.44A.73.73,0,0,1,184,446.79Z" transform="translate(-9.35 -6.54)"/><path class="cls-2" d="M183.88,447.67h-.06a.73.73,0,0,1-.67-.73s0,0,0-.06l0-.47a.73.73,0,0,1,1.46.13l0,.46A.73.73,0,0,1,183.88,447.67Z" transform="translate(-9.35 -6.54)"/><path class="cls-2" d="M183.81,448.58h0a.73.73,0,0,1-.68-.73s0,0,0,0l0-.5a.73.73,0,0,1,1.46.05s0,0,0,.06l0,.48A.73.73,0,0,1,183.81,448.58Z" transform="translate(-9.35 -6.54)"/><path class="cls-2" d="M183.92,458.3a.73.73,0,0,1-.73-.67l0-.47s0,0,0-.06a.73.73,0,0,1,1.46-.06l0,.46s0,0,0,.07a.73.73,0,0,1-.67.73Z" transform="translate(-9.35 -6.54)"/><path class="cls-2" d="M184.21,460.84a.73.73,0,0,1-.72-.63l-.06-.41a.75.75,0,0,1,0-.1.73.73,0,0,1,1.46-.09l.05.4a.81.81,0,0,1,0,.1.73.73,0,0,1-.63.72Z" transform="translate(-9.35 -6.54)"/><path class="cls-2" d="M184.1,460a.73.73,0,0,1-.72-.64c0-.14,0-.29-.05-.43a.71.71,0,0,1,0-.08.73.73,0,0,1,1.46-.08l.05.42a.75.75,0,0,1,0,.09.73.73,0,0,1-.64.72Z" transform="translate(-9.35 -6.54)"/><path class="cls-2" d="M184,459.17a.73.73,0,0,1-.73-.65l0-.46s0,0,0-.07a.73.73,0,0,1,1.46-.07l0,.44a.77.77,0,0,1,0,.08.73.73,0,0,1-.65.73Z" transform="translate(-9.35 -6.54)"/><path class="cls-2" d="M183.8,456.52a.74.74,0,0,1-.26,0,.73.73,0,0,1-.43-.41h0a.73.73,0,0,1,0-.21h0l0-.29a.73.73,0,0,1,.69-.77.72.72,0,0,1,.77.68v.18a.74.74,0,0,1,0,.16A.73.73,0,0,1,183.8,456.52Z" transform="translate(-9.35 -6.54)"/><path class="cls-2" d="M184.9,464.55a.73.73,0,0,1-.71-.56l-.05-.23a.73.73,0,1,1,1.43-.32l.05.22a.73.73,0,0,1-.54.88Z" transform="translate(-9.35 -6.54)"/><path class="cls-2" d="M184.85,441.18l-.16,0a.73.73,0,0,1-.57-.71.74.74,0,0,1,0-.16l.05-.23a.73.73,0,0,1,1.42.34l-.05.22A.73.73,0,0,1,184.85,441.18Z" transform="translate(-9.35 -6.54)"/><path class="cls-2" d="M184.28,444.25h-.11a.73.73,0,0,1-.61-.83l.06-.39a.73.73,0,0,1,1.45.11.76.76,0,0,1,0,.12l-.06.38A.73.73,0,0,1,184.28,444.25Z" transform="translate(-9.35 -6.54)"/><path class="cls-2" d="M184.4,443.45h-.12a.73.73,0,0,1-.6-.84l.06-.34a.75.75,0,0,1,.85-.61.71.71,0,0,1,.6.83l-.06.36A.73.73,0,0,1,184.4,443.45Z" transform="translate(-9.35 -6.54)"/><path class="cls-2" d="M184.48,462.43a.73.73,0,0,1-.49-.19.69.69,0,0,1-.24-.42h0v0h0l-.06-.35a.73.73,0,1,1,1.44-.25l0,.24a.73.73,0,0,1-.69,1Z" transform="translate(-9.35 -6.54)"/><path class="cls-2" d="M184.69,441.91l-.15,0A.73.73,0,0,1,184,441l.07-.31a.73.73,0,0,1,1.45.15.75.75,0,0,1,0,.15l-.06.3A.73.73,0,0,1,184.69,441.91Z" transform="translate(-9.35 -6.54)"/><path class="cls-2" d="M184.61,463.18a.73.73,0,0,1-.72-.59l-.07-.35a.71.71,0,0,1,0-.13.73.73,0,0,1,1.45-.13l.07.33a.72.72,0,0,1,0,.14.73.73,0,0,1-.59.72Z" transform="translate(-9.35 -6.54)"/><path class="cls-2" d="M184.54,442.67h-.13a.73.73,0,0,1-.6-.72.71.71,0,0,1,0-.13l.07-.35a.73.73,0,0,1,1.45.14.72.72,0,0,1,0,.14l-.07.33A.73.73,0,0,1,184.54,442.67Z" transform="translate(-9.35 -6.54)"/><path class="cls-2" d="M183.77,449.29h0a.73.73,0,0,1-.69-.77l0-.3h0a.72.72,0,0,1,.78-.68.73.73,0,0,1,.68.78h0l0,.29A.73.73,0,0,1,183.77,449.29Z" transform="translate(-9.35 -6.54)"/><path class="cls-2" d="M184.06,445.92H184a.73.73,0,0,1-.65-.73.71.71,0,0,1,0-.08c0-.15,0-.29.05-.43a.73.73,0,0,1,1.46.09.75.75,0,0,1,0,.09l-.05.42A.73.73,0,0,1,184.06,445.92Z" transform="translate(-9.35 -6.54)"/><path class="cls-2" d="M184.16,445.07h-.1a.73.73,0,0,1-.63-.72.75.75,0,0,1,0-.1l.06-.41a.73.73,0,0,1,1.46.1.82.82,0,0,1,0,.1l-.05.4A.73.73,0,0,1,184.16,445.07Z" transform="translate(-9.35 -6.54)"/><path class="cls-2" d="M185.69,465.76a2.26,2.26,0,0,1-.75-.13.73.73,0,0,1-.46-.5c-.1-.37-.2-.75-.29-1.15l-.37-1.74-.07-.4-.31-2-.05-.43-.05-.43-.29-3.42a.73.73,0,0,1,.62-.76,13.41,13.41,0,0,1,2-.16h1.5a7.55,7.55,0,0,0,0-5.16h-1.5a13.43,13.43,0,0,1-2-.16.73.73,0,0,1-.62-.76l.24-3,0-.43.05-.43.05-.43.31-2,.73.07-.72-.13.07-.4.37-1.74c.09-.39.19-.78.29-1.15a.73.73,0,0,1,.46-.5,2.25,2.25,0,0,1,.75-.13c3.28,0,5,7.08,5,13.74S189,465.76,185.69,465.76Zm-1.15-9.64.29,3.07.35,2.36.08.42.35,1.67q.08.33.16.65c1.49-.16,3.51-4.8,3.51-12.27s-2-12.11-3.51-12.27l-.16.65-.35,1.67-.07.38v.06l-.4,2.76-.24,2.65c.39,0,.77.06,1.14.06h1.69a.73.73,0,0,1,.32.07c1.34.4,1.41,3.35,1.41,4s-.07,3.61-1.44,4a.69.69,0,0,1-.29.07h-1.69C185.31,456.07,184.93,456.09,184.54,456.12Z" transform="translate(-9.35 -6.54)"/><path class="cls-2" d="M187.37,456c-1.65,0-1.73-3.35-1.73-4s.08-4,1.73-4,1.73,3.35,1.73,4S189,456,187.37,456Zm0-6.15a8.7,8.7,0,0,0,0,4.27,8.7,8.7,0,0,0,0-4.27Z" transform="translate(-9.35 -6.54)"/><path class="cls-2" d="M183.72,455a.73.73,0,0,1-.73-.7v-.41a.73.73,0,0,1,1.46,0v.4a.73.73,0,0,1-.7.73Z" transform="translate(-9.35 -6.54)"/><path class="cls-2" d="M183.76,456a.73.73,0,0,1-.73-.69l.73,0-.73,0,0-.41a.73.73,0,0,1,1.46-.06l0,.4a.73.73,0,0,1-.69.77Z" transform="translate(-9.35 -6.54)"/><path class="cls-2" d="M183.74,449.92h0a.73.73,0,0,1-.7-.76v0l0-.38a.73.73,0,0,1,1.46.08h0l0,.4A.73.73,0,0,1,183.74,449.92Z" transform="translate(-9.35 -6.54)"/><path class="cls-2" d="M183.7,450.85h0a.73.73,0,0,1-.71-.73v-.41a.73.73,0,0,1,1.46,0v.4A.73.73,0,0,1,183.7,450.85Z" transform="translate(-9.35 -6.54)"/><path class="cls-2" d="M183.69,454a.73.73,0,0,1-.73-.71V453h0a.73.73,0,0,1,.72-.73h0a.73.73,0,0,1,.73.72v.33a.73.73,0,0,1-.72.73Z" transform="translate(-9.35 -6.54)"/><path class="cls-2" d="M183.68,451.8h0a.73.73,0,0,1-.72-.73h0v-.32a.73.73,0,0,1,.73-.71h0a.73.73,0,0,1,.72.73v.33A.73.73,0,0,1,183.68,451.8Z" transform="translate(-9.35 -6.54)"/><path class="cls-2" d="M183.67,452.76a.73.73,0,0,1-.73-.73q0-.49,0-1a.73.73,0,0,1,.73-.72h0a.73.73,0,0,1,.72.73h0q0,.47,0,.95A.73.73,0,0,1,183.67,452.76Z" transform="translate(-9.35 -6.54)"/><path class="cls-2" d="M183.72,450.47h0a.73.73,0,0,1-.7-.76v-.09h0c0-.15,0-.3,0-.45a.72.72,0,0,1,.76-.7.73.73,0,0,1,.7.73v.15h0v.33h0v.09A.73.73,0,0,1,183.72,450.47Z" transform="translate(-9.35 -6.54)"/><path class="cls-2" d="M183.76,449.51h0a.73.73,0,0,1-.7-.76h0l.73,0-.73,0v-.22a.72.72,0,0,1,.77-.69.73.73,0,0,1,.69.76h0v.2A.73.73,0,0,1,183.76,449.51Z" transform="translate(-9.35 -6.54)"/><path class="cls-2" d="M183.77,456.22a.73.73,0,0,1-.73-.69v-.23a.73.73,0,1,1,1.46-.07v.21a.73.73,0,0,1-.69.77Z" transform="translate(-9.35 -6.54)"/><path class="cls-2" d="M183.69,451.48h0a.73.73,0,0,1-.72-.73v-.12c0-.18,0-.35,0-.53a.73.73,0,0,1,1.46,0v0c0,.17,0,.34,0,.52v.1A.73.73,0,0,1,183.69,451.48Z" transform="translate(-9.35 -6.54)"/><path class="cls-2" d="M183.68,453.71A.73.73,0,0,1,183,453q0-.48,0-1a.73.73,0,0,1,1.46,0q0,.48,0,.95h0a.73.73,0,0,1-.72.73Z" transform="translate(-9.35 -6.54)"/><path class="cls-2" d="M183.7,454.66A.73.73,0,0,1,183,454c0-.18,0-.35,0-.53v-.12a.73.73,0,0,1,.72-.73h0a.73.73,0,0,1,.73.72v.1c0,.17,0,.35,0,.52v0a.73.73,0,0,1-.71.73Z" transform="translate(-9.35 -6.54)"/><path class="cls-2" d="M183.74,455.59a.73.73,0,0,1-.73-.7c0-.16,0-.31,0-.47v-.12a.73.73,0,0,1,.71-.73h0a.73.73,0,0,1,.73.7v.09c0,.15,0,.3,0,.45v0a.73.73,0,0,1-.7.73Z" transform="translate(-9.35 -6.54)"/><path class="cls-2" d="M183.77,456.22a.73.73,0,0,1-.73-.69l0-.63c0-.16,0-.31,0-.47l0-.48c0-.18,0-.35,0-.53V453c0-.32,0-.65,0-1s0-.65,0-1v-.43c0-.18,0-.35,0-.53l0-.48c0-.16,0-.31,0-.47l0-.63a.73.73,0,0,1,.84-.68,11.94,11.94,0,0,0,1.8.14h1.69a.73.73,0,0,1,.73.73.77.77,0,0,1-.54.73,7.55,7.55,0,0,0,0,5.16.73.73,0,0,1,.54.71.75.75,0,0,1-.73.76h-1.69a12,12,0,0,0-1.8.14Zm.69-6.83v.29l0,.47c0,.17,0,.34,0,.52v.42c0,.31,0,.63,0,.95s0,.63,0,.95v.42c0,.17,0,.35,0,.52l0,.47v.29c.41,0,.82-.06,1.22-.06H186a10.06,10.06,0,0,1,0-5.16h-.29C185.28,449.44,184.87,449.42,184.46,449.38Z" transform="translate(-9.35 -6.54)"/><path class="cls-2" d="M157,462.63H144.75a5.77,5.77,0,0,1-5.77-5.77v-9.69a5.77,5.77,0,0,1,5.77-5.77H157a.73.73,0,0,1,.73.73V461.9A.73.73,0,0,1,157,462.63Zm-12.21-19.76a4.31,4.31,0,0,0-4.3,4.3v9.69a4.31,4.31,0,0,0,4.3,4.3h11.48v-18.3Z" transform="translate(-9.35 -6.54)"/><path class="cls-2" d="M180.47,468.25a.73.73,0,0,1-.29-.06l-4.72-2a60.15,60.15,0,0,0-18.57-4.72.73.73,0,0,1-.67-.73V443.33a.73.73,0,0,1,.67-.73,60.16,60.16,0,0,0,18.57-4.72l4.72-2a.73.73,0,0,1,1,.91c-.19.55-.36,1.1-.51,1.65l0,.07-.06.22c-.08.3-.15.59-.22.88l-.45,2.2-.44,3-.22,2.29q0,.26,0,.52l-.08,1.41c0,.16,0,.32,0,.49l0,.5c0,.18,0,.37,0,.55V451q0,.5,0,1t0,1v.45c0,.19,0,.37,0,.55l0,.5c0,.16,0,.32,0,.49l.08,1.4c0,.18,0,.35,0,.52l.39,3.61.59,3.33.13.57q.1.44.21.86l.06.24,0,.07c.15.56.33,1.12.51,1.65a.73.73,0,0,1-.69,1Zm-22.78-8.2A61.76,61.76,0,0,1,176,464.83l3.26,1.4,0-.13,0-.08-.08-.31c-.08-.31-.16-.61-.23-.92l-.39-1.86-.47-3.06-.28-2.81c0-.18,0-.35,0-.53l-.08-1.44c0-.16,0-.33,0-.5l0-.51c0-.19,0-.38,0-.57v-.45q0-.52,0-1t0-1v-.46c0-.19,0-.38,0-.57l0-.51c0-.17,0-.33,0-.5l.08-1.42c0-.19,0-.37,0-.54l.34-3.27.67-3.86.14-.6c.07-.31.15-.6.22-.9l.09-.33,0-.08,0-.13-3.26,1.4A61.77,61.77,0,0,1,157.69,444Z" transform="translate(-9.35 -6.54)"/><path class="cls-2" d="M188.4,471.65a.73.73,0,0,1-.29-.06l-7.92-3.39a.73.73,0,0,1-.4-.43c-.19-.54-.36-1.1-.52-1.67l0-.08-.08-.31c-.08-.31-.16-.61-.23-.92l-.47-2.28-.45-3.1-.22-2.35c0-.18,0-.35,0-.53l-.08-1.44c0-.16,0-.33,0-.5l0-.5c0-.19,0-.38,0-.57v-.46q0-.52,0-1t0-1v-.46c0-.19,0-.38,0-.56l0-.51c0-.17,0-.33,0-.5l.08-1.42c0-.19,0-.37,0-.54l.34-3.27.67-3.86.14-.6c.07-.31.15-.6.22-.9l.09-.33,0-.08c.16-.56.33-1.12.52-1.67a.73.73,0,0,1,.4-.43l7.92-3.39a.73.73,0,0,1,.68,1.29,3.22,3.22,0,0,0-.69.64,13.55,13.55,0,0,0-2.2,4.92l0,.06,0,.1c-.08.31-.16.61-.24.93l-.35,1.67-.07.38v.06l-.4,2.76-.31,3.95q0,.23,0,.45l0,.47c0,.17,0,.34,0,.52v.42c0,.31,0,.63,0,.95s0,.63,0,.95v.42c0,.17,0,.35,0,.52l0,.47c0,.15,0,.3,0,.45l.27,3.53.45,3.19.08.42.35,1.67c.07.32.15.63.23.93l0,.11,0,.06a13.55,13.55,0,0,0,2.2,4.92,3.23,3.23,0,0,0,.69.64.73.73,0,0,1-.4,1.35ZM181.06,467l4.92,2.11a19.35,19.35,0,0,1-1.47-3.88l0-.08,0-.18c-.08-.31-.17-.63-.24-1l-.37-1.74-.07-.4-.31-2-.05-.43-.05-.43-.3-3.64,0-.41c0-.15,0-.31,0-.47l0-.48c0-.18,0-.35,0-.53V453c0-.32,0-.65,0-1s0-.65,0-1v-.43c0-.18,0-.35,0-.53l0-.48c0-.16,0-.31,0-.47l.23-3.16.09-.88.05-.43.05-.43.31-2,.73.07-.72-.13.07-.4.37-1.74c.08-.33.16-.65.25-1l0-.18,0-.08A19.35,19.35,0,0,1,186,435l-4.92,2.11c-.15.45-.29.9-.41,1.35l0,.07-.06.22c-.08.3-.15.59-.22.88l-.45,2.2-.44,3-.22,2.29q0,.26,0,.52l-.08,1.41c0,.16,0,.33,0,.49l0,.5c0,.18,0,.37,0,.55V451q0,.5,0,1t0,1v.45c0,.19,0,.37,0,.55l0,.5c0,.16,0,.33,0,.49l.08,1.4c0,.18,0,.35,0,.52l.39,3.61.59,3.33.13.57q.1.44.21.86l.06.24,0,.07C180.77,466.08,180.91,466.54,181.06,467Z" transform="translate(-9.35 -6.54)"/><path class="cls-2" d="M157,462.63H144.75a5.77,5.77,0,0,1-5.77-5.77v-9.69a5.77,5.77,0,0,1,5.77-5.77H157a.73.73,0,0,1,.73.73V461.9A.73.73,0,0,1,157,462.63Zm-12.21-19.76a4.31,4.31,0,0,0-4.3,4.3v9.69a4.31,4.31,0,0,0,4.3,4.3h11.48v-18.3Z" transform="translate(-9.35 -6.54)"/><path class="cls-2" d="M159.27,474.16h-6.1a.73.73,0,0,1-.51-.21,20,20,0,0,1-5-12,.73.73,0,0,1,.73-.8h6.45a.73.73,0,0,1,.73.72c0,.06.17,6,4,8a.73.73,0,0,1,.39.65v2.9A.73.73,0,0,1,159.27,474.16Zm-5.78-1.46h5V471c-3.44-2.08-4.2-6.56-4.36-8.32h-4.95A19.2,19.2,0,0,0,153.49,472.69Z" transform="translate(-9.35 -6.54)"/><path class="cls-2" d="M214.54,172.23h-.08c-.29,0-7.1-.8-10.77-6.26a.73.73,0,0,1,.61-1.14h5.51a.73.73,0,0,1,.68.47,10.37,10.37,0,0,0,4.39,5.56.73.73,0,0,1-.35,1.37Zm-8.75-5.94a13.85,13.85,0,0,0,5.78,3.73,13.48,13.48,0,0,1-2.25-3.73Z" transform="translate(-9.35 -6.54)"/><path class="cls-2" d="M198.12,168.93H184.7a3.51,3.51,0,0,1-3.51-3.51v-7.67a3.51,3.51,0,0,1,3.51-3.51h13.42a3.51,3.51,0,0,1,3.51,3.51v7.67A3.51,3.51,0,0,1,198.12,168.93ZM184.7,155.71a2,2,0,0,0-2,2v7.67a2,2,0,0,0,2,2h13.42a2,2,0,0,0,2-2v-7.67a2,2,0,0,0-2-2Z" transform="translate(-9.35 -6.54)"/><path class="cls-2" d="M211.15,166.28H200.89a.73.73,0,0,1-.73-.77v-7.76a2,2,0,0,0-2-2h-6.71a.73.73,0,0,1-.73-.73v-2.17a4.12,4.12,0,0,1,4.11-4.11h16.36a4.12,4.12,0,0,1,4.11,4.11v9.35A4.12,4.12,0,0,1,211.15,166.28Zm-9.52-1.46h9.52a2.65,2.65,0,0,0,2.65-2.65v-9.35a2.65,2.65,0,0,0-2.65-2.65H194.8a2.65,2.65,0,0,0-2.65,2.65v1.43h6a3.51,3.51,0,0,1,3.51,3.51Z" transform="translate(-9.35 -6.54)"/><path class="cls-2" d="M181.93,173.81a.73.73,0,0,1-.35-1.37,8.39,8.39,0,0,0,3.54-4.49.73.73,0,0,1,.68-.47h4.52a.73.73,0,0,1,.61,1.14c-3,4.53-8.69,5.17-8.93,5.2Zm4.37-4.88a11.48,11.48,0,0,1-1.52,2.63,11.13,11.13,0,0,0,4-2.63Z" transform="translate(-9.35 -6.54)"/><path class="cls-2" d="M98.5,282.65h-.08c-.29,0-7.1-.8-10.77-6.26a.73.73,0,0,1,.61-1.14h5.51a.73.73,0,0,1,.68.47,10.37,10.37,0,0,0,4.39,5.56.73.73,0,0,1-.35,1.37Zm-8.75-5.94a13.85,13.85,0,0,0,5.78,3.73,13.48,13.48,0,0,1-2.25-3.73Z" transform="translate(-9.35 -6.54)"/><path class="cls-2" d="M82.08,279.36H68.66a3.51,3.51,0,0,1-3.51-3.51v-7.67a3.51,3.51,0,0,1,3.51-3.51H82.08a3.51,3.51,0,0,1,3.51,3.51v7.67A3.51,3.51,0,0,1,82.08,279.36ZM68.66,266.13a2,2,0,0,0-2,2v7.67a2,2,0,0,0,2,2H82.08a2,2,0,0,0,2-2v-7.67a2,2,0,0,0-2-2Z" transform="translate(-9.35 -6.54)"/><path class="cls-2" d="M95.11,276.7H84.85a.73.73,0,0,1-.73-.77v-7.76a2,2,0,0,0-2-2H75.37a.73.73,0,0,1-.73-.73v-2.17a4.12,4.12,0,0,1,4.11-4.11H95.11a4.12,4.12,0,0,1,4.11,4.11v9.35A4.12,4.12,0,0,1,95.11,276.7Zm-9.52-1.46h9.52a2.65,2.65,0,0,0,2.65-2.65v-9.35a2.65,2.65,0,0,0-2.65-2.65H78.76a2.65,2.65,0,0,0-2.65,2.65v1.43h6a3.51,3.51,0,0,1,3.51,3.51Z" transform="translate(-9.35 -6.54)"/><path class="cls-2" d="M65.89,284.23a.73.73,0,0,1-.35-1.37,8.39,8.39,0,0,0,3.54-4.49.73.73,0,0,1,.68-.47h4.52a.73.73,0,0,1,.61,1.14c-3,4.53-8.69,5.17-8.93,5.2Zm4.37-4.88A11.48,11.48,0,0,1,68.74,282a11.13,11.13,0,0,0,4-2.63Z" transform="translate(-9.35 -6.54)"/><path class="cls-2" d="M107.76,193.09a1,1,0,0,1,.7,1,1,1,0,0,0,0-1.9A1,1,0,0,1,107.76,193.09Z" transform="translate(-9.35 -6.54)"/><path class="cls-2" d="M107.45,193.87h-5.89a.73.73,0,0,1-.57-1.19l.09-.1a.73.73,0,0,1,.57-.27h5.8a1.7,1.7,0,0,1,.53.09.73.73,0,0,1,0,1.39A1.71,1.71,0,0,1,107.45,193.87Z" transform="translate(-9.35 -6.54)"/><path class="cls-2" d="M95.14,193.87H89.25a1.72,1.72,0,0,1-.53-.09.73.73,0,0,1,0-1.39,1.71,1.71,0,0,1,.53-.09h5.8a.73.73,0,0,1,.57.27l.09.1a.73.73,0,0,1-.57,1.19Z" transform="translate(-9.35 -6.54)"/><path class="cls-2" d="M107.45,214H89.25a1.74,1.74,0,0,1-1.73-1.73V194a1.73,1.73,0,0,1,1.21-1.65.73.73,0,0,1,.44,0l.08,0h5.89a.73.73,0,0,1,.56.26,3.92,3.92,0,0,1,.43,4.57,1.47,1.47,0,0,0-.21.81,2.23,2.23,0,0,0,2.31,1.82h.13a2.21,2.21,0,0,0,2.44-1.87,1.48,1.48,0,0,0-.19-.71,4.06,4.06,0,0,1,.4-4.6.74.74,0,0,1,.57-.27h5.89l.08,0a.73.73,0,0,1,.45,0,1.73,1.73,0,0,1,1.21,1.65v5.45a2.6,2.6,0,0,0,2.81.12,3,3,0,0,1,3.63.62,4.23,4.23,0,0,1,1.11,3.1,3.65,3.65,0,0,1-3.22,3.71h-.11a3,3,0,0,1-1.5-.42,2.46,2.46,0,0,0-2.73.17v5.45A1.74,1.74,0,0,1,107.45,214ZM89,193.86A.26.26,0,0,0,89,194v18.21a.27.27,0,0,0,.27.27h18.21a.27.27,0,0,0,.27-.27v-5.8a.73.73,0,0,1,.27-.57l.11-.09a4.08,4.08,0,0,1,2.6-1,3.87,3.87,0,0,1,2,.54,1.48,1.48,0,0,0,.76.21h.05a2.24,2.24,0,0,0,1.82-2.31,2.76,2.76,0,0,0-.71-2,1.62,1.62,0,0,0-1.16-.53,1.47,1.47,0,0,0-.71.19,4.27,4.27,0,0,1-2,.54,4,4,0,0,1-2.56-.93l-.11-.09a.73.73,0,0,1-.27-.57V194a.26.26,0,0,0-.07-.18h-5.72a2.6,2.6,0,0,0-.05,2.71,2.92,2.92,0,0,1,.37,1.42c0,1.89-1.86,3.42-4.08,3.33a3.65,3.65,0,0,1-3.71-3.23,3,3,0,0,1,.41-1.61,2.42,2.42,0,0,0-.1-2.62H89Z" transform="translate(-9.35 -6.54)"/><path class="cls-2" d="M127.66,214H109.46a1.74,1.74,0,0,1-1.73-1.73v-5.8a.73.73,0,0,1,.27-.57l.11-.09a4.08,4.08,0,0,1,2.6-1,3.87,3.87,0,0,1,2,.54,1.48,1.48,0,0,0,.76.21h.05a2.24,2.24,0,0,0,1.82-2.31,2.76,2.76,0,0,0-.71-2,1.62,1.62,0,0,0-1.16-.53,1.47,1.47,0,0,0-.71.19,4.27,4.27,0,0,1-2,.54,4,4,0,0,1-2.56-.93l-.11-.09a.73.73,0,0,1-.27-.57V194a1.73,1.73,0,0,1,1.21-1.65.73.73,0,0,1,.44,0l.08,0h5.45a2.59,2.59,0,0,0,.12-2.81,2.92,2.92,0,0,1-.37-1.42c0-1.89,1.84-3.42,4.08-3.33a3.65,3.65,0,0,1,3.71,3.22,3,3,0,0,1-.41,1.61,2.43,2.43,0,0,0,.17,2.73h5.45l.08,0a.73.73,0,0,1,.44,0A1.73,1.73,0,0,1,129.4,194v18.21A1.74,1.74,0,0,1,127.66,214Zm-18.48-7.18v5.45a.27.27,0,0,0,.27.27h18.21a.27.27,0,0,0,.27-.27V194a.26.26,0,0,0-.07-.18h-6a.73.73,0,0,1-.57-.27l-.09-.11a3.92,3.92,0,0,1-.42-4.56,1.47,1.47,0,0,0,.21-.81,2.23,2.23,0,0,0-2.31-1.82c-1.42-.06-2.56.8-2.56,1.87a1.47,1.47,0,0,0,.19.71,4.06,4.06,0,0,1-.4,4.6l-.09.11a.73.73,0,0,1-.57.27h-6a.26.26,0,0,0-.07.18v5.45a2.6,2.6,0,0,0,2.81.12,3,3,0,0,1,3.63.62,4.23,4.23,0,0,1,1.11,3.1,3.65,3.65,0,0,1-3.22,3.71h-.11a3,3,0,0,1-1.5-.42A2.46,2.46,0,0,0,109.19,206.8Z" transform="translate(-9.35 -6.54)"/><path class="cls-2" d="M98.35,201.33h-.18a3.65,3.65,0,0,1-3.71-3.23,3,3,0,0,1,.41-1.61,2.43,2.43,0,0,0-.17-2.73H89.25l-.08,0a.74.74,0,0,1-.45,0,1.73,1.73,0,0,1-1.21-1.65V173.93a1.74,1.74,0,0,1,1.73-1.73h18.21a1.74,1.74,0,0,1,1.73,1.73v5.8a.73.73,0,0,1-.27.57l-.11.09a4.08,4.08,0,0,1-2.6,1,3.87,3.87,0,0,1-2-.54,1.48,1.48,0,0,0-.76-.21h-.05a2.24,2.24,0,0,0-1.82,2.31,2.76,2.76,0,0,0,.71,2,1.62,1.62,0,0,0,1.16.53,1.48,1.48,0,0,0,.71-.19,4.27,4.27,0,0,1,2-.54,4,4,0,0,1,2.56.93l.11.09a.73.73,0,0,1,.27.57v5.8a1.73,1.73,0,0,1-1.21,1.65.73.73,0,0,1-.45,0l-.08,0H102a2.59,2.59,0,0,0-.12,2.81,2.92,2.92,0,0,1,.37,1.42A3.65,3.65,0,0,1,98.35,201.33Zm-9.1-9h5.8a.73.73,0,0,1,.57.27l.09.1a3.92,3.92,0,0,1,.43,4.56,1.47,1.47,0,0,0-.21.81,2.23,2.23,0,0,0,2.31,1.82c1.39.05,2.56-.81,2.56-1.87a1.48,1.48,0,0,0-.19-.71,4.06,4.06,0,0,1,.4-4.6l.09-.11a.73.73,0,0,1,.57-.27h6a.26.26,0,0,0,.07-.18v-5.45a2.6,2.6,0,0,0-2.81-.12,3,3,0,0,1-3.63-.62,4.23,4.23,0,0,1-1.11-3.1,3.65,3.65,0,0,1,3.22-3.71h.11a3,3,0,0,1,1.5.42,2.46,2.46,0,0,0,2.73-.17v-5.45a.27.27,0,0,0-.27-.27H89.25a.27.27,0,0,0-.27.27v18.21a.26.26,0,0,0,.07.18Z" transform="translate(-9.35 -6.54)"/><path class="cls-2" d="M123.25,186.49a1.73,1.73,0,0,1-1.42-.74l-3.1-4.48h0a2.58,2.58,0,0,0-2.35,1.5,2.93,2.93,0,0,1-1,1.11,3,3,0,0,1-1.71.52,4.09,4.09,0,0,1-3.36-2,3.66,3.66,0,0,1,.54-4.89,3,3,0,0,1,1.56-.57,2.43,2.43,0,0,0,2.15-1.69l-3.1-4.48a1.73,1.73,0,0,1,.44-2.41l15-10.35a1.73,1.73,0,0,1,2.41.44l10.35,15a1.73,1.73,0,0,1-.06,2,.73.73,0,0,1-.37.25l-.08,0-4.77,3.3a.73.73,0,0,1-.62.1l-.13,0a3.92,3.92,0,0,1-2.94-3.51,1.48,1.48,0,0,0-.29-.79,1.75,1.75,0,0,0-1.44-.63,2.83,2.83,0,0,0-1.49.45,2.77,2.77,0,0,0-1.27,1.73,1.62,1.62,0,0,0,.22,1.26,1.48,1.48,0,0,0,.56.48,4.06,4.06,0,0,1,2.29,4v.14a.73.73,0,0,1-.31.54l-4.77,3.3-.06.06a.73.73,0,0,1-.37.25A1.74,1.74,0,0,1,123.25,186.49Zm-4.55-6.69h.49a.73.73,0,0,1,.54.31l3.3,4.77a.26.26,0,0,0,.16.11l.16-.12,4.48-3.1a2.59,2.59,0,0,0-1.5-2.38,2.92,2.92,0,0,1-1.11-1,3.07,3.07,0,0,1-.45-2.38,4.38,4.38,0,0,1,4.19-3.36,3.19,3.19,0,0,1,2.61,1.22,3,3,0,0,1,.57,1.56,2.43,2.43,0,0,0,1.69,2.15l4.48-3.1.17-.1a.26.26,0,0,0,0-.19l-10.35-15a.27.27,0,0,0-.22-.12.26.26,0,0,0-.15,0l-15,10.35a.27.27,0,0,0-.07.38l3.3,4.78a.73.73,0,0,1,.1.62l0,.13a3.92,3.92,0,0,1-3.51,2.94,1.48,1.48,0,0,0-.79.29,2.24,2.24,0,0,0-.18,2.93,2.66,2.66,0,0,0,2.12,1.31,1.51,1.51,0,0,0,.87-.26,1.48,1.48,0,0,0,.48-.56A4,4,0,0,1,118.69,179.8Z" transform="translate(-9.35 -6.54)"/><path class="cls-2" d="M96.88,385H48.74a.73.73,0,0,1-.73-.73V319.74a.73.73,0,0,1,.73-.73h17a.73.73,0,0,1,.73.73V323a.73.73,0,0,1-.73.73H55.59v50.81H90V323.73H79.89a.73.73,0,0,1-.73-.73v-3.26a.73.73,0,0,1,.73-.73h17a.73.73,0,0,1,.73.73v64.51A.73.73,0,0,1,96.88,385Zm-47.41-1.46H96.15v-63H80.62v1.8H90.76a.73.73,0,0,1,.73.73v52.28a.73.73,0,0,1-.73.73H54.85a.73.73,0,0,1-.73-.73V323a.73.73,0,0,1,.73-.73H65v-1.8H49.47Z" transform="translate(-9.35 -6.54)"/><path class="cls-2" d="M90.76,376H54.85a.73.73,0,0,1-.73-.73V323a.73.73,0,0,1,.73-.73H65.72a.73.73,0,0,1,.73.73v1.14H79.16V323a.73.73,0,0,1,.73-.73H90.76a.73.73,0,0,1,.73.73v52.28A.73.73,0,0,1,90.76,376Zm-35.18-1.46H90V323.73H80.62v1.14a.73.73,0,0,1-.73.73H65.72a.73.73,0,0,1-.73-.73v-1.14H55.59Z" transform="translate(-9.35 -6.54)"/><path class="cls-2" d="M79.89,325.6H65.72a.73.73,0,0,1-.73-.73v-6.63a.73.73,0,0,1,.73-.73H79.89a.73.73,0,0,1,.73.73v6.63A.73.73,0,0,1,79.89,325.6Zm-13.44-1.46H79.16V319H66.46Z" transform="translate(-9.35 -6.54)"/><path class="cls-2" d="M77.07,319H68.55a.73.73,0,0,1-.66-.43l-1.12-2.45a.73.73,0,0,1,.66-1H78.19a.73.73,0,0,1,.67,1l-1.12,2.45A.73.73,0,0,1,77.07,319ZM69,317.51H76.6l.45-1H68.57Z" transform="translate(-9.35 -6.54)"/><path class="cls-2" d="M64.15,342.11h-5.4a.73.73,0,0,1-.73-.73V336a.73.73,0,0,1,.73-.73h5.4a.73.73,0,0,1,.73.73v5.4A.73.73,0,0,1,64.15,342.11Zm-4.67-1.46h3.94v-3.94H59.47Z" transform="translate(-9.35 -6.54)"/><path class="cls-2" d="M61.44,340.24a.73.73,0,0,1-.58-.29l-1.14-1.49a.73.73,0,1,1,1.16-.89l.5.66L65,332.6a.73.73,0,0,1,1.23.79l-4.16,6.52a.73.73,0,0,1-.59.34Z" transform="translate(-9.35 -6.54)"/><path class="cls-2" d="M86.88,342.11H67.51a.73.73,0,1,1,0-1.46H86.88a.73.73,0,1,1,0,1.46Z" transform="translate(-9.35 -6.54)"/><path class="cls-2" d="M64.15,354.45h-5.4a.73.73,0,0,1-.73-.73v-5.4a.73.73,0,0,1,.73-.73h5.4a.73.73,0,0,1,.73.73v5.4A.73.73,0,0,1,64.15,354.45ZM59.47,353h3.94V349H59.47Z" transform="translate(-9.35 -6.54)"/><path class="cls-2" d="M61.44,352.58a.73.73,0,0,1-.58-.29l-1.14-1.5a.73.73,0,1,1,1.16-.89l.5.66,3.6-5.64a.73.73,0,1,1,1.23.79l-4.16,6.52a.73.73,0,0,1-.59.34Z" transform="translate(-9.35 -6.54)"/><path class="cls-2" d="M86.88,354.45H67.51a.73.73,0,1,1,0-1.46H86.88a.73.73,0,1,1,0,1.46Z" transform="translate(-9.35 -6.54)"/><path class="cls-2" d="M64.15,366.78h-5.4A.73.73,0,0,1,58,366v-5.4a.73.73,0,0,1,.73-.73h5.4a.73.73,0,0,1,.73.73V366A.73.73,0,0,1,64.15,366.78Zm-4.67-1.46h3.94v-3.94H59.47Z" transform="translate(-9.35 -6.54)"/><path class="cls-2" d="M61.44,364.91a.73.73,0,0,1-.58-.29l-1.14-1.5a.73.73,0,1,1,1.16-.89l.5.66,3.6-5.64a.73.73,0,1,1,1.23.79l-4.16,6.52a.73.73,0,0,1-.59.34Z" transform="translate(-9.35 -6.54)"/><path class="cls-2" d="M86.88,366.78H67.51a.73.73,0,1,1,0-1.46H86.88a.73.73,0,1,1,0,1.46Z" transform="translate(-9.35 -6.54)"/><path class="cls-2" d="M141,128.31a15.14,15.14,0,1,1,10.7-4.43A15,15,0,0,1,141,128.31Zm0-28.81a13.67,13.67,0,1,0,9.67,4A13.59,13.59,0,0,0,141,99.5Z" transform="translate(-9.35 -6.54)"/><path class="cls-2" d="M141,125.07a11.9,11.9,0,1,1,8.41-3.48A11.82,11.82,0,0,1,141,125.07Zm0-22.33a10.43,10.43,0,1,0,7.38,3.06A10.37,10.37,0,0,0,141,102.74Z" transform="translate(-9.35 -6.54)"/><path class="cls-2" d="M134.6,120.26a.73.73,0,0,1-.52-.21,9.73,9.73,0,0,1-1.63-2.16.73.73,0,1,1,1.28-.71,8.29,8.29,0,0,0,1.39,1.84.73.73,0,0,1-.52,1.25Z" transform="translate(-9.35 -6.54)"/><path class="cls-2" d="M132.21,116a.73.73,0,0,1-.71-.56,9.66,9.66,0,0,1,2.58-9.15.73.73,0,0,1,1,1,8.21,8.21,0,0,0-2.19,7.77.73.73,0,0,1-.54.88Z" transform="translate(-9.35 -6.54)"/><path class="cls-2" d="M153.61,130.51a.73.73,0,0,1-.52-.21l-4.36-4.36a.73.73,0,0,1,0-1l3.95-3.95a.73.73,0,0,1,1,0l4.36,4.36a.73.73,0,0,1,0,1l-3.95,3.95A.73.73,0,0,1,153.61,130.51Zm-3.33-5.09,3.33,3.33,2.91-2.91-3.33-3.33Z" transform="translate(-9.35 -6.54)"/><path class="cls-2" d="M167.37,142.39a2.78,2.78,0,0,1-2-.82l-11.78-11.78a.73.73,0,0,1,0-1l2.93-2.93a.73.73,0,0,1,1,0l11.78,11.78a2.8,2.8,0,0,1-2,4.78Zm-12.21-13.12,11.26,11.26a1.37,1.37,0,0,0,1.89,0,1.34,1.34,0,0,0,0-1.89L157,127.38Z" transform="translate(-9.35 -6.54)"/><path class="cls-2" d="M75.36,467.26h-4.7a.73.73,0,0,1-.71-.55l-.77-3a11.36,11.36,0,0,1-1.12-.46l-2.68,1.59a.73.73,0,0,1-.89-.11l-3.32-3.32a.73.73,0,0,1-.11-.89l1.59-2.68a11.47,11.47,0,0,1-.46-1.12l-3-.77a.73.73,0,0,1-.55-.71v-4.7a.73.73,0,0,1,.55-.71l3-.77a11.42,11.42,0,0,1,.46-1.12l-1.59-2.68a.73.73,0,0,1,.11-.89L64.5,441a.73.73,0,0,1,.89-.11l2.68,1.59a11.39,11.39,0,0,1,1.12-.46l.77-3a.73.73,0,0,1,.71-.55h4.7a.73.73,0,0,1,.71.55l.77,3a11.44,11.44,0,0,1,1.12.46l2.68-1.59a.73.73,0,0,1,.89.11l3.32,3.32a.73.73,0,0,1,.11.89l-1.59,2.68a11.44,11.44,0,0,1,.46,1.12l3,.77a.73.73,0,0,1,.55.71v4.7a.73.73,0,0,1-.55.71l-3,.77a11.49,11.49,0,0,1-.46,1.12L85,460.5a.73.73,0,0,1-.11.89l-3.32,3.32a.73.73,0,0,1-.89.11L78,463.23a11.41,11.41,0,0,1-1.12.46l-.77,3A.73.73,0,0,1,75.36,467.26Zm-4.13-1.46h3.56l.73-2.85a.73.73,0,0,1,.49-.52,9.92,9.92,0,0,0,1.64-.68.73.73,0,0,1,.71,0l2.54,1.5,2.52-2.52-1.5-2.54a.73.73,0,0,1,0-.71,10,10,0,0,0,.68-1.64.73.73,0,0,1,.52-.49l2.85-.73v-3.56l-2.85-.73a.73.73,0,0,1-.52-.49,9.9,9.9,0,0,0-.68-1.64.73.73,0,0,1,0-.71l1.5-2.54-2.52-2.52L78.36,444a.73.73,0,0,1-.71,0,9.92,9.92,0,0,0-1.64-.68.73.73,0,0,1-.49-.52l-.73-2.85H71.23l-.73,2.85a.73.73,0,0,1-.49.52,10,10,0,0,0-1.63.68.73.73,0,0,1-.71,0l-2.54-1.5L62.61,445l1.5,2.54a.73.73,0,0,1,0,.71,9.9,9.9,0,0,0-.68,1.64.73.73,0,0,1-.52.49l-2.85.73v3.56l2.85.73a.73.73,0,0,1,.52.49,10,10,0,0,0,.68,1.64.73.73,0,0,1,0,.71l-1.5,2.54,2.52,2.52,2.54-1.5a.73.73,0,0,1,.71,0,10,10,0,0,0,1.63.68.73.73,0,0,1,.49.52ZM73,461.58a8.71,8.71,0,1,1,8.71-8.71A8.72,8.72,0,0,1,73,461.58Zm0-16a7.25,7.25,0,1,0,7.25,7.25A7.26,7.26,0,0,0,73,445.62Z" transform="translate(-9.35 -6.54)"/><path class="cls-2" d="M93.49,454.24a.73.73,0,0,1-.24,0L89.87,453a.73.73,0,0,1-.48-.75l.2-2.28q-.29-.24-.56-.51l-2.25.44a.73.73,0,0,1-.8-.4l-1.55-3.24a.73.73,0,0,1,.19-.88l1.76-1.47c0-.25,0-.51,0-.76l-1.9-1.27a.73.73,0,0,1-.28-.85l1.2-3.38a.73.73,0,0,1,.75-.48l2.28.2c.16-.19.33-.38.51-.56l-.44-2.25a.73.73,0,0,1,.4-.8l3.24-1.55a.73.73,0,0,1,.88.19l1.47,1.76c.25,0,.51,0,.76,0l1.27-1.9a.73.73,0,0,1,.85-.28l3.38,1.2a.73.73,0,0,1,.48.75l-.2,2.28q.29.24.56.51l2.25-.44a.73.73,0,0,1,.8.4l1.55,3.24a.73.73,0,0,1-.19.88l-1.76,1.47c0,.25,0,.51,0,.76l1.9,1.27a.73.73,0,0,1,.28.85l-1.2,3.38a.74.74,0,0,1-.75.48l-2.28-.2c-.16.19-.33.38-.51.56l.44,2.25a.73.73,0,0,1-.4.8l-3.24,1.55a.73.73,0,0,1-.88-.19L96.13,452c-.25,0-.51,0-.76,0l-1.27,1.9A.73.73,0,0,1,93.49,454.24Zm-2.61-2.43,2.31.82,1.18-1.76a.74.74,0,0,1,.63-.32,7.34,7.34,0,0,0,1.32-.07.72.72,0,0,1,.66.25l1.36,1.63,2.22-1.06-.41-2.08a.73.73,0,0,1,.22-.68,7.5,7.5,0,0,0,.89-1,.73.73,0,0,1,.65-.29l2.11.19.82-2.31L103.09,444a.73.73,0,0,1-.32-.63,7.4,7.4,0,0,0-.07-1.32.73.73,0,0,1,.25-.67l1.63-1.36-1.06-2.22-2.08.41a.73.73,0,0,1-.68-.22,7.47,7.47,0,0,0-1-.89.73.73,0,0,1-.29-.65l.19-2.11-2.31-.82-1.18,1.76a.74.74,0,0,1-.63.32,7.5,7.5,0,0,0-1.32.07.73.73,0,0,1-.66-.25l-1.36-1.63L90,434.84l.41,2.08a.73.73,0,0,1-.22.68,7.43,7.43,0,0,0-.89,1,.73.73,0,0,1-.65.29l-2.11-.19L85.72,441l1.76,1.18a.73.73,0,0,1,.32.63,7.46,7.46,0,0,0,.07,1.32.73.73,0,0,1-.26.66L86,446.15l1.06,2.22,2.08-.41a.73.73,0,0,1,.68.22,7.47,7.47,0,0,0,1,.89.73.73,0,0,1,.29.65Zm4.4-1.91a6.83,6.83,0,1,1,6.44-4.56A6.81,6.81,0,0,1,95.28,449.9Zm0-12.21a5.37,5.37,0,1,0,1.79.31A5.38,5.38,0,0,0,95.28,437.7Z" transform="translate(-9.35 -6.54)"/><path class="cls-2" d="M190.79,234.89H157.08a.73.73,0,0,1-.73-.73V189a.73.73,0,0,1,.73-.73h33.71a.73.73,0,0,1,.73.73v45.19A.73.73,0,0,1,190.79,234.89Zm-33-1.46h32.24V189.71H157.82Z" transform="translate(-9.35 -6.54)"/><path class="cls-2" d="M160.35,197.25a2.06,2.06,0,1,1,2.06-2.06A2.06,2.06,0,0,1,160.35,197.25Zm0-2.65a.59.59,0,1,0,.59.59A.59.59,0,0,0,160.35,194.6Z" transform="translate(-9.35 -6.54)"/><path class="cls-2" d="M160.35,203.8a2.06,2.06,0,1,1,2.06-2.06A2.06,2.06,0,0,1,160.35,203.8Zm0-2.65a.59.59,0,1,0,.59.59A.59.59,0,0,0,160.35,201.15Z" transform="translate(-9.35 -6.54)"/><path class="cls-2" d="M160.35,210.35a2.06,2.06,0,1,1,2.06-2.06A2.06,2.06,0,0,1,160.35,210.35Zm0-2.65a.59.59,0,1,0,.59.59A.59.59,0,0,0,160.35,207.7Z" transform="translate(-9.35 -6.54)"/><path class="cls-2" d="M160.35,216.9a2.06,2.06,0,1,1,2.06-2.06A2.06,2.06,0,0,1,160.35,216.9Zm0-2.65a.59.59,0,1,0,.59.59A.59.59,0,0,0,160.35,214.25Z" transform="translate(-9.35 -6.54)"/><path class="cls-2" d="M160.35,223.45a2.06,2.06,0,1,1,2.06-2.06A2.06,2.06,0,0,1,160.35,223.45Zm0-2.65a.59.59,0,1,0,.59.59A.59.59,0,0,0,160.35,220.8Z" transform="translate(-9.35 -6.54)"/><path class="cls-2" d="M160.35,230a2.06,2.06,0,1,1,2.06-2.06A2.06,2.06,0,0,1,160.35,230Zm0-2.65a.59.59,0,1,0,.59.59A.59.59,0,0,0,160.35,227.35Z" transform="translate(-9.35 -6.54)"/><path class="cls-2" d="M160.35,228.68h-4.48a.73.73,0,1,1,0-1.46h4.48a.73.73,0,0,1,0,1.46Z" transform="translate(-9.35 -6.54)"/><path class="cls-2" d="M160.35,222.13h-4.48a.73.73,0,1,1,0-1.46h4.48a.73.73,0,0,1,0,1.46Z" transform="translate(-9.35 -6.54)"/><path class="cls-2" d="M160.35,215.58h-4.48a.73.73,0,1,1,0-1.46h4.48a.73.73,0,0,1,0,1.46Z" transform="translate(-9.35 -6.54)"/><path class="cls-2" d="M160.35,209h-4.48a.73.73,0,1,1,0-1.46h4.48a.73.73,0,0,1,0,1.46Z" transform="translate(-9.35 -6.54)"/><path class="cls-2" d="M160.35,202.47h-4.48a.73.73,0,1,1,0-1.46h4.48a.73.73,0,1,1,0,1.46Z" transform="translate(-9.35 -6.54)"/><path class="cls-2" d="M160.35,195.92h-4.48a.73.73,0,1,1,0-1.46h4.48a.73.73,0,1,1,0,1.46Z" transform="translate(-9.35 -6.54)"/><path class="cls-2" d="M186,234.89h-2.14a.73.73,0,0,1-.73-.73V189a.73.73,0,0,1,.73-.73H186a.73.73,0,0,1,.73.73v45.19A.73.73,0,0,1,186,234.89Zm-1.41-1.46h.68V189.71h-.68Z" transform="translate(-9.35 -6.54)"/><path class="cls-2" d="M190.79,207.17a.73.73,0,0,1-.73-.73v-5.1a.73.73,0,0,1,1-.69l2.17.75a.73.73,0,0,1,.49.69v3.59a.73.73,0,0,1-.49.69l-2.17.75A.73.73,0,0,1,190.79,207.17Zm.73-4.8v3l.71-.25v-2.55Z" transform="translate(-9.35 -6.54)"/><path class="cls-2" d="M190.79,212.9a.73.73,0,0,1-.73-.73v-5.1a.73.73,0,0,1,1-.69l2.17.75a.73.73,0,0,1,.49.69v3.59a.73.73,0,0,1-.49.69l-2.17.75A.73.73,0,0,1,190.79,212.9Zm.73-4.8v3l.71-.25v-2.55Z" transform="translate(-9.35 -6.54)"/><path class="cls-2" d="M190.79,226a.73.73,0,0,1-.73-.73v-5.1a.73.73,0,0,1,1-.69l2.17.75a.73.73,0,0,1,.49.69v3.59a.73.73,0,0,1-.49.69L191,226A.73.73,0,0,1,190.79,226Zm.73-4.8v3l.71-.25v-2.55Z" transform="translate(-9.35 -6.54)"/><path class="cls-2" d="M380.56,144.4h-4.7a.73.73,0,0,1-.71-.55l-.77-3a11.36,11.36,0,0,1-1.12-.46L370.59,142a.73.73,0,0,1-.89-.11l-3.32-3.32a.73.73,0,0,1-.11-.89l1.59-2.68a11.46,11.46,0,0,1-.46-1.12l-3-.77a.73.73,0,0,1-.55-.71v-4.7a.73.73,0,0,1,.55-.71l3-.77a11.41,11.41,0,0,1,.46-1.12l-1.59-2.68a.73.73,0,0,1,.11-.89l3.32-3.32a.73.73,0,0,1,.89-.11l2.68,1.59a11.39,11.39,0,0,1,1.12-.46l.77-3a.73.73,0,0,1,.71-.55h4.7a.73.73,0,0,1,.71.55l.77,3a11.43,11.43,0,0,1,1.12.46l2.68-1.59a.73.73,0,0,1,.89.11l3.32,3.32a.73.73,0,0,1,.11.89l-1.59,2.68a11.44,11.44,0,0,1,.46,1.12l3,.77a.73.73,0,0,1,.55.71v4.7a.73.73,0,0,1-.55.71l-3,.77a11.49,11.49,0,0,1-.46,1.12l1.59,2.68a.73.73,0,0,1-.11.89l-3.32,3.32a.73.73,0,0,1-.89.11l-2.68-1.59a11.4,11.4,0,0,1-1.12.46l-.77,3A.73.73,0,0,1,380.56,144.4Zm-4.13-1.46H380l.73-2.85a.73.73,0,0,1,.49-.52,9.92,9.92,0,0,0,1.64-.68.73.73,0,0,1,.71,0l2.54,1.5,2.52-2.52-1.5-2.54a.73.73,0,0,1,0-.71,10,10,0,0,0,.68-1.64.73.73,0,0,1,.52-.49l2.85-.73v-3.56l-2.85-.73a.73.73,0,0,1-.52-.49,9.9,9.9,0,0,0-.68-1.64.73.73,0,0,1,0-.71l1.5-2.54-2.52-2.52-2.54,1.5a.73.73,0,0,1-.71,0,9.92,9.92,0,0,0-1.64-.68.73.73,0,0,1-.49-.52l-.73-2.85h-3.56l-.73,2.85a.73.73,0,0,1-.49.52,10,10,0,0,0-1.63.68.73.73,0,0,1-.71,0l-2.54-1.5-2.52,2.52,1.5,2.54a.73.73,0,0,1,0,.71,9.9,9.9,0,0,0-.68,1.64.73.73,0,0,1-.52.49l-2.85.73v3.56l2.85.73a.73.73,0,0,1,.52.49,10,10,0,0,0,.68,1.64.73.73,0,0,1,0,.71l-1.5,2.54,2.52,2.52,2.54-1.5a.73.73,0,0,1,.71,0,10,10,0,0,0,1.63.68.73.73,0,0,1,.49.52Zm1.78-4.21a8.71,8.71,0,1,1,8.71-8.71A8.72,8.72,0,0,1,378.22,138.73Zm0-16a7.25,7.25,0,1,0,7.25,7.25A7.26,7.26,0,0,0,378.22,122.76Z" transform="translate(-9.35 -6.54)"/><path class="cls-2" d="M398.7,131.39a.73.73,0,0,1-.24,0l-3.38-1.2a.73.73,0,0,1-.48-.75l.2-2.28q-.29-.24-.56-.51L392,127a.73.73,0,0,1-.8-.4l-1.55-3.24a.73.73,0,0,1,.19-.88l1.76-1.47c0-.25,0-.51,0-.76l-1.9-1.27a.73.73,0,0,1-.28-.85l1.2-3.38a.73.73,0,0,1,.75-.48l2.28.2c.16-.19.33-.38.51-.56l-.44-2.25a.73.73,0,0,1,.4-.8l3.24-1.55a.73.73,0,0,1,.88.19l1.47,1.76c.25,0,.51,0,.76,0l1.27-1.9a.73.73,0,0,1,.85-.28l3.38,1.2a.73.73,0,0,1,.48.75l-.2,2.28q.29.24.56.51l2.25-.44a.73.73,0,0,1,.8.4l1.55,3.24a.73.73,0,0,1-.19.88l-1.76,1.47c0,.25,0,.51,0,.76l1.9,1.27a.73.73,0,0,1,.28.85l-1.2,3.38a.74.74,0,0,1-.75.48l-2.28-.2c-.16.19-.33.38-.51.56l.44,2.25a.73.73,0,0,1-.4.8l-3.24,1.55a.73.73,0,0,1-.88-.19l-1.47-1.76c-.25,0-.51,0-.76,0l-1.27,1.9A.73.73,0,0,1,398.7,131.39ZM396.09,129l2.31.82,1.18-1.76a.74.74,0,0,1,.63-.32,7.34,7.34,0,0,0,1.32-.07.72.72,0,0,1,.66.25l1.36,1.63,2.22-1.06-.41-2.08a.73.73,0,0,1,.22-.68,7.5,7.5,0,0,0,.89-1,.73.73,0,0,1,.65-.29l2.11.19.82-2.31-1.76-1.18a.73.73,0,0,1-.32-.63,7.39,7.39,0,0,0-.07-1.32.73.73,0,0,1,.25-.67l1.63-1.36-1.06-2.22-2.08.41a.73.73,0,0,1-.68-.22,7.48,7.48,0,0,0-1-.89.73.73,0,0,1-.29-.65l.19-2.11-2.31-.82-1.18,1.76a.74.74,0,0,1-.63.32,7.5,7.5,0,0,0-1.32.07.73.73,0,0,1-.66-.25l-1.36-1.63L395.2,112l.41,2.08a.73.73,0,0,1-.22.68,7.44,7.44,0,0,0-.89,1,.72.72,0,0,1-.65.29l-2.11-.19-.82,2.31,1.76,1.18a.73.73,0,0,1,.32.63,7.46,7.46,0,0,0,.07,1.32.73.73,0,0,1-.26.66l-1.63,1.36,1.06,2.22,2.08-.41a.73.73,0,0,1,.68.22,7.48,7.48,0,0,0,1,.89.73.73,0,0,1,.29.65Zm4.4-1.91a6.83,6.83,0,1,1,6.44-4.56A6.81,6.81,0,0,1,400.49,127Zm0-12.21a5.37,5.37,0,1,0,1.79.31A5.38,5.38,0,0,0,400.49,114.84Z" transform="translate(-9.35 -6.54)"/><path class="cls-2" d="M452.73,176.5h-.08c-.29,0-7.1-.8-10.77-6.26a.73.73,0,0,1,.61-1.14H448a.73.73,0,0,1,.68.47,10.37,10.37,0,0,0,4.39,5.56.73.73,0,0,1-.35,1.37ZM444,170.55a13.85,13.85,0,0,0,5.78,3.73,13.48,13.48,0,0,1-2.25-3.73Z" transform="translate(-9.35 -6.54)"/><path class="cls-2" d="M436.31,173.21H422.89a3.51,3.51,0,0,1-3.51-3.51V162a3.51,3.51,0,0,1,3.51-3.51h13.42a3.51,3.51,0,0,1,3.51,3.51v7.67A3.51,3.51,0,0,1,436.31,173.21ZM422.89,160a2,2,0,0,0-2,2v7.67a2,2,0,0,0,2,2h13.42a2,2,0,0,0,2-2V162a2,2,0,0,0-2-2Z" transform="translate(-9.35 -6.54)"/><path class="cls-2" d="M449.34,170.55H439.08a.73.73,0,0,1-.73-.77V162a2,2,0,0,0-2-2H429.6a.73.73,0,0,1-.73-.73v-2.17A4.12,4.12,0,0,1,433,153h16.36a4.12,4.12,0,0,1,4.11,4.11v9.35A4.12,4.12,0,0,1,449.34,170.55Zm-9.52-1.46h9.52a2.65,2.65,0,0,0,2.65-2.65v-9.35a2.65,2.65,0,0,0-2.65-2.65H433a2.65,2.65,0,0,0-2.65,2.65v1.43h6a3.51,3.51,0,0,1,3.51,3.51Z" transform="translate(-9.35 -6.54)"/><path class="cls-2" d="M420.12,178.08a.73.73,0,0,1-.35-1.37,8.39,8.39,0,0,0,3.54-4.49.73.73,0,0,1,.68-.47h4.52a.73.73,0,0,1,.61,1.14c-3,4.53-8.69,5.17-8.93,5.2Zm4.37-4.88a11.48,11.48,0,0,1-1.52,2.63,11.13,11.13,0,0,0,4-2.63Z" transform="translate(-9.35 -6.54)"/><path class="cls-2" d="M468.92,463.51a.73.73,0,1,0,1.4,0,.73.73,0,1,0-1.4,0Z" transform="translate(-9.35 -6.54)"/><path class="cls-2" d="M468.62,464.29h-5.89a.73.73,0,0,1-.57-1.19l.09-.1a.73.73,0,0,1,.57-.27h5.8a1.7,1.7,0,0,1,.53.09.73.73,0,0,1,0,1.39A1.71,1.71,0,0,1,468.62,464.29Z" transform="translate(-9.35 -6.54)"/><path class="cls-2" d="M456.3,464.29h-5.89a1.72,1.72,0,0,1-.53-.09.73.73,0,0,1,0-1.39,1.71,1.71,0,0,1,.53-.09h5.8a.73.73,0,0,1,.57.27l.09.1a.73.73,0,0,1-.57,1.19Z" transform="translate(-9.35 -6.54)"/><path class="cls-2" d="M468.62,484.4H450.41a1.74,1.74,0,0,1-1.73-1.73V464.46a1.73,1.73,0,0,1,1.21-1.65.73.73,0,0,1,.44,0l.08,0h5.89a.73.73,0,0,1,.56.26,3.92,3.92,0,0,1,.43,4.57,1.47,1.47,0,0,0-.21.81,2.23,2.23,0,0,0,2.31,1.82h.13a2.21,2.21,0,0,0,2.44-1.87,1.48,1.48,0,0,0-.19-.71,4.06,4.06,0,0,1,.4-4.6.74.74,0,0,1,.57-.27h5.89l.08,0a.73.73,0,0,1,.45,0,1.73,1.73,0,0,1,1.21,1.65v5.45a2.6,2.6,0,0,0,2.81.12,3,3,0,0,1,3.63.62,4.23,4.23,0,0,1,1.11,3.1,3.65,3.65,0,0,1-3.22,3.71h-.11a3,3,0,0,1-1.5-.42,2.46,2.46,0,0,0-2.73.17v5.45A1.74,1.74,0,0,1,468.62,484.4Zm-18.41-20.12a.26.26,0,0,0-.07.18v18.21a.27.27,0,0,0,.27.27h18.21a.27.27,0,0,0,.27-.27v-5.8a.73.73,0,0,1,.27-.57l.11-.09a4.08,4.08,0,0,1,2.6-1,3.87,3.87,0,0,1,2,.54,1.48,1.48,0,0,0,.76.21h.05a2.24,2.24,0,0,0,1.82-2.31,2.76,2.76,0,0,0-.71-2,1.62,1.62,0,0,0-1.16-.53,1.47,1.47,0,0,0-.71.19,4.27,4.27,0,0,1-2,.54,4,4,0,0,1-2.56-.93l-.11-.09a.73.73,0,0,1-.27-.57v-5.8a.26.26,0,0,0-.07-.18h-5.72A2.6,2.6,0,0,0,463,467a2.92,2.92,0,0,1,.37,1.42c0,1.89-1.86,3.42-4.08,3.33a3.65,3.65,0,0,1-3.71-3.23,3,3,0,0,1,.41-1.61,2.42,2.42,0,0,0-.1-2.62h-5.72Z" transform="translate(-9.35 -6.54)"/><path class="cls-2" d="M488.83,484.4H470.62a1.74,1.74,0,0,1-1.73-1.73v-5.8a.73.73,0,0,1,.27-.57l.11-.09a4.08,4.08,0,0,1,2.6-1,3.87,3.87,0,0,1,2,.54,1.48,1.48,0,0,0,.76.21h.05a2.24,2.24,0,0,0,1.82-2.31,2.76,2.76,0,0,0-.71-2,1.62,1.62,0,0,0-1.16-.53,1.47,1.47,0,0,0-.71.19,4.27,4.27,0,0,1-2,.54,4,4,0,0,1-2.56-.93l-.11-.09a.73.73,0,0,1-.27-.57v-5.8a1.73,1.73,0,0,1,1.21-1.65.73.73,0,0,1,.44,0l.08,0h5.45a2.59,2.59,0,0,0,.12-2.81,2.92,2.92,0,0,1-.37-1.42c0-1.89,1.84-3.42,4.08-3.33a3.65,3.65,0,0,1,3.71,3.22,3,3,0,0,1-.41,1.61,2.43,2.43,0,0,0,.17,2.73h5.45l.08,0a.73.73,0,0,1,.44,0,1.73,1.73,0,0,1,1.21,1.65v18.21A1.74,1.74,0,0,1,488.83,484.4Zm-18.48-7.18v5.45a.27.27,0,0,0,.27.27h18.21a.27.27,0,0,0,.27-.27V464.46a.26.26,0,0,0-.07-.18h-6a.73.73,0,0,1-.57-.27l-.09-.11a3.92,3.92,0,0,1-.42-4.56,1.47,1.47,0,0,0,.21-.81,2.23,2.23,0,0,0-2.31-1.82c-1.42-.06-2.56.8-2.56,1.87a1.48,1.48,0,0,0,.19.71,4.06,4.06,0,0,1-.4,4.6L477,464a.73.73,0,0,1-.57.27h-6a.26.26,0,0,0-.07.18v5.45a2.6,2.6,0,0,0,2.81.12,3,3,0,0,1,3.63.62,4.23,4.23,0,0,1,1.11,3.1,3.65,3.65,0,0,1-3.22,3.71h-.11a3,3,0,0,1-1.5-.42A2.46,2.46,0,0,0,470.35,477.22Z" transform="translate(-9.35 -6.54)"/><path class="cls-2" d="M459.51,471.75h-.18a3.65,3.65,0,0,1-3.71-3.23,3,3,0,0,1,.41-1.61,2.43,2.43,0,0,0-.17-2.73h-5.45l-.08,0a.74.74,0,0,1-.45,0,1.73,1.73,0,0,1-1.21-1.65V444.35a1.74,1.74,0,0,1,1.73-1.73h18.21a1.74,1.74,0,0,1,1.73,1.73v5.8a.73.73,0,0,1-.27.57l-.11.09a4.08,4.08,0,0,1-2.6,1,3.87,3.87,0,0,1-2-.54,1.48,1.48,0,0,0-.76-.21h-.05a2.24,2.24,0,0,0-1.82,2.31,2.76,2.76,0,0,0,.71,2,1.62,1.62,0,0,0,1.16.53,1.48,1.48,0,0,0,.71-.19,4.27,4.27,0,0,1,2-.54,4,4,0,0,1,2.56.93l.11.09a.73.73,0,0,1,.27.57v5.8a1.73,1.73,0,0,1-1.21,1.65.73.73,0,0,1-.45,0l-.08,0h-5.45A2.59,2.59,0,0,0,463,467a2.92,2.92,0,0,1,.37,1.42A3.65,3.65,0,0,1,459.51,471.75Zm-9.1-9h5.8a.73.73,0,0,1,.57.27l.09.1a3.92,3.92,0,0,1,.43,4.56,1.47,1.47,0,0,0-.21.81,2.23,2.23,0,0,0,2.31,1.82c1.39.05,2.56-.81,2.56-1.87a1.48,1.48,0,0,0-.19-.71,4.06,4.06,0,0,1,.4-4.6l.09-.11a.73.73,0,0,1,.57-.27h6a.26.26,0,0,0,.07-.18v-5.45a2.6,2.6,0,0,0-2.81-.12,3,3,0,0,1-3.63-.62,4.23,4.23,0,0,1-1.11-3.1,3.65,3.65,0,0,1,3.22-3.71h.11a3,3,0,0,1,1.5.42,2.46,2.46,0,0,0,2.73-.17v-5.45a.27.27,0,0,0-.27-.27H450.41a.27.27,0,0,0-.27.27v18.21a.26.26,0,0,0,.07.18Z" transform="translate(-9.35 -6.54)"/><path class="cls-2" d="M484.41,456.91a1.73,1.73,0,0,1-1.42-.74l-3.1-4.48h0a2.58,2.58,0,0,0-2.35,1.5,2.93,2.93,0,0,1-1,1.11,3,3,0,0,1-1.71.52,4.09,4.09,0,0,1-3.36-2,3.66,3.66,0,0,1,.54-4.89,3,3,0,0,1,1.56-.57,2.43,2.43,0,0,0,2.15-1.69l-3.1-4.48a1.73,1.73,0,0,1,.44-2.41l15-10.35a1.73,1.73,0,0,1,2.41.44l10.35,15a1.73,1.73,0,0,1-.06,2,.73.73,0,0,1-.37.25l-.08,0-4.77,3.3a.73.73,0,0,1-.62.1l-.13,0a3.92,3.92,0,0,1-2.94-3.51,1.48,1.48,0,0,0-.29-.79,1.75,1.75,0,0,0-1.44-.63,2.83,2.83,0,0,0-1.49.45,2.77,2.77,0,0,0-1.27,1.73,1.62,1.62,0,0,0,.22,1.26,1.48,1.48,0,0,0,.56.48,4.06,4.06,0,0,1,2.29,4v.14a.73.73,0,0,1-.31.54l-4.77,3.3-.06.06a.73.73,0,0,1-.37.25A1.74,1.74,0,0,1,484.41,456.91Zm-4.55-6.69h.49a.73.73,0,0,1,.54.31l3.3,4.77a.26.26,0,0,0,.16.11l.16-.12,4.48-3.1a2.59,2.59,0,0,0-1.5-2.38,2.92,2.92,0,0,1-1.11-1,3.07,3.07,0,0,1-.45-2.38,4.38,4.38,0,0,1,4.19-3.36,3.19,3.19,0,0,1,2.61,1.22,3,3,0,0,1,.57,1.56,2.43,2.43,0,0,0,1.69,2.15l4.48-3.1.17-.1a.26.26,0,0,0,0-.19l-10.35-15a.27.27,0,0,0-.22-.12.26.26,0,0,0-.15,0l-15,10.35a.27.27,0,0,0-.07.38l3.3,4.78a.73.73,0,0,1,.1.62l0,.13a3.92,3.92,0,0,1-3.51,2.94,1.48,1.48,0,0,0-.79.29,2.24,2.24,0,0,0-.18,2.93,2.66,2.66,0,0,0,2.12,1.31,1.51,1.51,0,0,0,.87-.26,1.48,1.48,0,0,0,.48-.56A4,4,0,0,1,479.86,450.22Z" transform="translate(-9.35 -6.54)"/><path class="cls-2" d="M525.89,319.45H477.74a.73.73,0,0,1-.73-.73V254.21a.73.73,0,0,1,.73-.73h17a.73.73,0,0,1,.73.73v3.26a.73.73,0,0,1-.73.73H484.59V309H519V258.2H508.9a.73.73,0,0,1-.73-.73v-3.26a.73.73,0,0,1,.73-.73h17a.73.73,0,0,1,.73.73v64.51A.73.73,0,0,1,525.89,319.45ZM478.48,318h46.68v-63H509.63v1.8h10.14a.73.73,0,0,1,.73.73v52.28a.73.73,0,0,1-.73.73H483.86a.73.73,0,0,1-.73-.73V257.47a.73.73,0,0,1,.73-.73H494v-1.8H478.48Z" transform="translate(-9.35 -6.54)"/><path class="cls-2" d="M519.77,310.48H483.86a.73.73,0,0,1-.73-.73V257.47a.73.73,0,0,1,.73-.73h10.87a.73.73,0,0,1,.73.73v1.14h12.71v-1.14a.73.73,0,0,1,.73-.73h10.87a.73.73,0,0,1,.73.73v52.28A.73.73,0,0,1,519.77,310.48ZM484.59,309H519V258.2h-9.41v1.14a.73.73,0,0,1-.73.73H494.73a.73.73,0,0,1-.73-.73V258.2h-9.41Z" transform="translate(-9.35 -6.54)"/><path class="cls-2" d="M508.9,260.07H494.73a.73.73,0,0,1-.73-.73v-6.63a.73.73,0,0,1,.73-.73H508.9a.73.73,0,0,1,.73.73v6.63A.73.73,0,0,1,508.9,260.07Zm-13.44-1.46h12.71v-5.16H495.46Z" transform="translate(-9.35 -6.54)"/><path class="cls-2" d="M506.08,253.45h-8.52a.73.73,0,0,1-.66-.43l-1.12-2.45a.73.73,0,0,1,.66-1H507.2a.73.73,0,0,1,.67,1L506.74,253A.73.73,0,0,1,506.08,253.45ZM498,252h7.58l.45-1h-8.48Z" transform="translate(-9.35 -6.54)"/><path class="cls-2" d="M493.15,276.59h-5.4a.73.73,0,0,1-.73-.73v-5.4a.73.73,0,0,1,.73-.73h5.4a.73.73,0,0,1,.73.73v5.4A.73.73,0,0,1,493.15,276.59Zm-4.67-1.46h3.94v-3.94h-3.94Z" transform="translate(-9.35 -6.54)"/><path class="cls-2" d="M490.45,274.72a.73.73,0,0,1-.58-.29l-1.14-1.5a.73.73,0,1,1,1.16-.89l.5.66,3.6-5.64a.73.73,0,1,1,1.23.79l-4.16,6.52a.73.73,0,0,1-.59.34Z" transform="translate(-9.35 -6.54)"/><path class="cls-2" d="M515.88,276.59H496.51a.73.73,0,1,1,0-1.46h19.37a.73.73,0,0,1,0,1.46Z" transform="translate(-9.35 -6.54)"/><path class="cls-2" d="M493.15,288.92h-5.4a.73.73,0,0,1-.73-.73v-5.4a.73.73,0,0,1,.73-.73h5.4a.73.73,0,0,1,.73.73v5.4A.73.73,0,0,1,493.15,288.92Zm-4.67-1.46h3.94v-3.94h-3.94Z" transform="translate(-9.35 -6.54)"/><path class="cls-2" d="M490.45,287.05a.73.73,0,0,1-.58-.29l-1.14-1.5a.73.73,0,1,1,1.16-.89l.5.66,3.6-5.64a.73.73,0,1,1,1.23.79l-4.16,6.52a.73.73,0,0,1-.59.34Z" transform="translate(-9.35 -6.54)"/><path class="cls-2" d="M515.88,288.92H496.51a.73.73,0,0,1,0-1.46h19.37a.73.73,0,0,1,0,1.46Z" transform="translate(-9.35 -6.54)"/><path class="cls-2" d="M493.15,301.25h-5.4a.73.73,0,0,1-.73-.73v-5.4a.73.73,0,0,1,.73-.73h5.4a.73.73,0,0,1,.73.73v5.4A.73.73,0,0,1,493.15,301.25Zm-4.67-1.46h3.94v-3.94h-3.94Z" transform="translate(-9.35 -6.54)"/><path class="cls-2" d="M490.45,299.38a.73.73,0,0,1-.58-.29l-1.14-1.49a.73.73,0,1,1,1.16-.89l.5.66,3.6-5.64a.73.73,0,1,1,1.23.79L491.07,299a.73.73,0,0,1-.59.34Z" transform="translate(-9.35 -6.54)"/><path class="cls-2" d="M515.88,301.25H496.51a.73.73,0,0,1,0-1.46h19.37a.73.73,0,0,1,0,1.46Z" transform="translate(-9.35 -6.54)"/><path class="cls-2" d="M504.54,394.6H434.47a.73.73,0,0,1-.73-.73v-51a.73.73,0,0,1,.73-.73h70.07a.73.73,0,0,1,.73.73v51A.73.73,0,0,1,504.54,394.6Zm-69.34-1.46h68.61v-49.5H435.2Z" transform="translate(-9.35 -6.54)"/><path class="cls-2" d="M500.47,390.52H438.55a.73.73,0,0,1-.73-.73V347a.73.73,0,0,1,.73-.73h61.92a.73.73,0,0,1,.73.73v42.81A.73.73,0,0,1,500.47,390.52Zm-61.19-1.46h60.46V347.71H439.28Z" transform="translate(-9.35 -6.54)"/><path class="cls-2" d="M478.6,405H460.42a.73.73,0,0,1-.7-.93l3-10.4a.73.73,0,0,1,.7-.53h12.21a.73.73,0,0,1,.7.53L479.26,404a.73.73,0,0,1-.66,1Zm-17.2-1.46h16.22l-2.56-8.93H464Z" transform="translate(-9.35 -6.54)"/><path class="cls-2" d="M480.71,408.18h-22.4a.73.73,0,0,1-.61-1.14l2.16-3.18a.73.73,0,0,1,.61-.32h18.08a.73.73,0,0,1,.61.32l2.1,3.1a.73.73,0,0,1-.54,1.23Zm-21-1.46h19.64L478.16,405H460.85Z" transform="translate(-9.35 -6.54)"/><path class="cls-2" d="M495.34,368.35h-.06a.73.73,0,0,1-.53-.3l-1.88-2.63-.63.63a.73.73,0,0,1-1.21-.29l-1.49-4.61a.73.73,0,0,1,.92-.92l4.61,1.49a.73.73,0,0,1,.29,1.21l-.63.63,2.63,1.88a.73.73,0,0,1,.09,1.11l-1.6,1.6A.73.73,0,0,1,495.34,368.35Zm-.86-3.19,1,1.33.38-.38ZM491.36,362l.68,2.11.39-.39a.73.73,0,0,0,.65-.65l.39-.39Z" transform="translate(-9.35 -6.54)"/><path class="cls-2" d="M451.72,385.7A.73.73,0,0,1,451,385v-29.9a.73.73,0,1,1,1.46,0V385A.73.73,0,0,1,451.72,385.7Z" transform="translate(-9.35 -6.54)"/><path class="cls-2" d="M458.84,385.7a.73.73,0,0,1-.73-.73v-29.9a.73.73,0,1,1,1.46,0V385A.73.73,0,0,1,458.84,385.7Z" transform="translate(-9.35 -6.54)"/><path class="cls-2" d="M465.95,385.7a.73.73,0,0,1-.73-.73v-29.9a.73.73,0,1,1,1.46,0V385A.73.73,0,0,1,465.95,385.7Z" transform="translate(-9.35 -6.54)"/><path class="cls-2" d="M473.06,385.7a.73.73,0,0,1-.73-.73v-29.9a.73.73,0,1,1,1.46,0V385A.73.73,0,0,1,473.06,385.7Z" transform="translate(-9.35 -6.54)"/><path class="cls-2" d="M480.18,385.7a.73.73,0,0,1-.73-.73v-29.9a.73.73,0,0,1,1.46,0V385A.73.73,0,0,1,480.18,385.7Z" transform="translate(-9.35 -6.54)"/><path class="cls-2" d="M487.29,385.7a.73.73,0,0,1-.73-.73v-29.9a.73.73,0,0,1,1.46,0V385A.73.73,0,0,1,487.29,385.7Z" transform="translate(-9.35 -6.54)"/><path class="cls-2" d="M451.72,381a.73.73,0,0,1-.49-1.28l7.11-6.37a.73.73,0,0,1,.74-.14l6.69,2.44,6.79-6.43a.73.73,0,0,1,.77-.15l6.55,2.52,6.79-11a.73.73,0,0,1,1.24.77l-7.11,11.49a.73.73,0,0,1-.88.3l-6.68-2.58L466.45,377a.73.73,0,0,1-.75.16l-6.7-2.44-6.79,6.08A.73.73,0,0,1,451.72,381Z" transform="translate(-9.35 -6.54)"/><circle class="cls-2" cx="442.33" cy="373.61" r="1.26"/><circle class="cls-2" cx="449.48" cy="367.61" r="1.26"/><circle class="cls-2" cx="456.6" cy="369.83" r="1.26"/><circle class="cls-2" cx="463.71" cy="363.31" r="1.26"/><circle class="cls-2" cx="470.83" cy="365.9" r="1.26"/><circle class="cls-2" cx="477.94" cy="354.42" r="1.26"/><path class="cls-2" d="M490.18,385.7H448.83a.73.73,0,0,1,0-1.46h41.35a.73.73,0,0,1,0,1.46Z" transform="translate(-9.35 -6.54)"/><path class="cls-2" d="M483.37,238.9H449.67a.73.73,0,0,1-.73-.73V193a.73.73,0,0,1,.73-.73h33.71a.73.73,0,0,1,.73.73v45.19A.73.73,0,0,1,483.37,238.9Zm-33-1.46h32.24V193.71H450.4Z" transform="translate(-9.35 -6.54)"/><path class="cls-2" d="M452.93,201.25A2.06,2.06,0,1,1,455,199.2,2.06,2.06,0,0,1,452.93,201.25Zm0-2.65a.59.59,0,1,0,.59.59A.59.59,0,0,0,452.93,198.6Z" transform="translate(-9.35 -6.54)"/><path class="cls-2" d="M452.93,207.8a2.06,2.06,0,1,1,2.06-2.06A2.06,2.06,0,0,1,452.93,207.8Zm0-2.65a.59.59,0,1,0,.59.59A.59.59,0,0,0,452.93,205.15Z" transform="translate(-9.35 -6.54)"/><path class="cls-2" d="M452.93,214.36A2.06,2.06,0,1,1,455,212.3,2.06,2.06,0,0,1,452.93,214.36Zm0-2.65a.59.59,0,1,0,.59.59A.59.59,0,0,0,452.93,211.71Z" transform="translate(-9.35 -6.54)"/><path class="cls-2" d="M452.93,220.91a2.06,2.06,0,1,1,2.06-2.06A2.06,2.06,0,0,1,452.93,220.91Zm0-2.65a.59.59,0,1,0,.59.59A.59.59,0,0,0,452.93,218.26Z" transform="translate(-9.35 -6.54)"/><path class="cls-2" d="M452.93,227.46A2.06,2.06,0,1,1,455,225.4,2.06,2.06,0,0,1,452.93,227.46Zm0-2.65a.59.59,0,1,0,.59.59A.59.59,0,0,0,452.93,224.81Z" transform="translate(-9.35 -6.54)"/><path class="cls-2" d="M452.93,234A2.06,2.06,0,1,1,455,232,2.06,2.06,0,0,1,452.93,234Zm0-2.65a.59.59,0,1,0,.59.59A.59.59,0,0,0,452.93,231.36Z" transform="translate(-9.35 -6.54)"/><path class="cls-2" d="M452.93,232.69h-4.48a.73.73,0,0,1,0-1.46h4.48a.73.73,0,1,1,0,1.46Z" transform="translate(-9.35 -6.54)"/><path class="cls-2" d="M452.93,226.13h-4.48a.73.73,0,1,1,0-1.46h4.48a.73.73,0,1,1,0,1.46Z" transform="translate(-9.35 -6.54)"/><path class="cls-2" d="M452.93,219.58h-4.48a.73.73,0,1,1,0-1.46h4.48a.73.73,0,1,1,0,1.46Z" transform="translate(-9.35 -6.54)"/><path class="cls-2" d="M452.93,213h-4.48a.73.73,0,1,1,0-1.46h4.48a.73.73,0,1,1,0,1.46Z" transform="translate(-9.35 -6.54)"/><path class="cls-2" d="M452.93,206.48h-4.48a.73.73,0,1,1,0-1.46h4.48a.73.73,0,1,1,0,1.46Z" transform="translate(-9.35 -6.54)"/><path class="cls-2" d="M452.93,199.93h-4.48a.73.73,0,1,1,0-1.46h4.48a.73.73,0,1,1,0,1.46Z" transform="translate(-9.35 -6.54)"/><path class="cls-2" d="M478.62,238.9h-2.14a.73.73,0,0,1-.73-.73V193a.73.73,0,0,1,.73-.73h2.14a.73.73,0,0,1,.73.73v45.19A.73.73,0,0,1,478.62,238.9Zm-1.41-1.46h.68V193.71h-.68Z" transform="translate(-9.35 -6.54)"/><path class="cls-2" d="M483.37,211.18a.73.73,0,0,1-.73-.73v-5.1a.73.73,0,0,1,1-.69l2.17.75a.73.73,0,0,1,.49.69v3.59a.73.73,0,0,1-.49.69l-2.17.75A.73.73,0,0,1,483.37,211.18Zm.73-4.8v3l.71-.25v-2.55Z" transform="translate(-9.35 -6.54)"/><path class="cls-2" d="M483.37,216.9a.73.73,0,0,1-.73-.73v-5.1a.73.73,0,0,1,1-.69l2.17.75a.73.73,0,0,1,.49.69v3.59a.73.73,0,0,1-.49.69l-2.17.75A.73.73,0,0,1,483.37,216.9Zm.73-4.8v3l.71-.25v-2.55Z" transform="translate(-9.35 -6.54)"/><path class="cls-2" d="M483.37,230a.73.73,0,0,1-.73-.73v-5.1a.73.73,0,0,1,1-.69l2.17.75a.73.73,0,0,1,.49.69v3.59a.73.73,0,0,1-.49.69l-2.17.75A.73.73,0,0,1,483.37,230Zm.73-4.8v3l.71-.25v-2.55Z" transform="translate(-9.35 -6.54)"/><path class="cls-2" d="M194.24,410H135.5a2.08,2.08,0,0,1-2.07-2.07v-32.1a2.08,2.08,0,0,1,2.07-2.07h58.74a2.08,2.08,0,0,1,2.08,2.07V408A2.08,2.08,0,0,1,194.24,410ZM135.5,375.25a.61.61,0,0,0-.61.61V408a.61.61,0,0,0,.61.61h58.74a.61.61,0,0,0,.61-.61v-32.1a.61.61,0,0,0-.61-.61Z" transform="translate(-9.35 -6.54)"/><path class="cls-2" d="M186.62,406H138.23a.73.73,0,0,1-.73-.73V378.59a.73.73,0,0,1,.73-.73h48.38a.73.73,0,0,1,.73.73v26.64A.73.73,0,0,1,186.62,406ZM139,404.5h46.92V379.32H139Z" transform="translate(-9.35 -6.54)"/><path class="cls-2" d="M190.59,396.21a2.16,2.16,0,0,1-2.16-2.16v-4.28a2.16,2.16,0,1,1,4.32,0v4.28A2.16,2.16,0,0,1,190.59,396.21Zm0-7.13a.7.7,0,0,0-.7.7v4.28a.7.7,0,0,0,1.39,0v-4.28A.7.7,0,0,0,190.59,389.08Z" transform="translate(-9.35 -6.54)"/><path class="cls-2" d="M151.39,401.81H144.7a.73.73,0,0,1-.62-1.12l6.69-10.84a.73.73,0,0,1,1.24,0l2.51,4.07a.73.73,0,0,1,.06.64l-2.51,6.78A.73.73,0,0,1,151.39,401.81ZM146,400.35h4.87l2.21-6-1.7-2.75Z" transform="translate(-9.35 -6.54)"/><path class="cls-2" d="M158.08,401.81h-6.69a.73.73,0,0,1-.69-1l6.69-18.07a.73.73,0,0,1,1.37,0l4.86,13.11a.73.73,0,0,1-.16.77l-4.86,5A.73.73,0,0,1,158.08,401.81Zm-5.64-1.46h5.34l4.32-4.4-4-10.83Z" transform="translate(-9.35 -6.54)"/><path class="cls-2" d="M164.78,401.81h-6.69a.73.73,0,0,1-.52-1.24l6.69-6.83a.75.75,0,0,1,1,0l2.26,2.31a.73.73,0,0,1,.13.84l-2.26,4.52A.73.73,0,0,1,164.78,401.81Zm-5-1.46h4.5l1.83-3.65-1.38-1.4Z" transform="translate(-9.35 -6.54)"/><path class="cls-2" d="M178.17,401.81H164.78a.73.73,0,0,1-.65-1.06l6.69-13.36a.73.73,0,0,1,1.31,0l6.69,13.36a.73.73,0,0,1-.65,1.06ZM166,400.35h11l-5.51-11Z" transform="translate(-9.35 -6.54)"/><path class="cls-2" d="M180.69,401.81a.73.73,0,0,1-.73-.73V383a.73.73,0,1,1,1.46,0v18.07A.73.73,0,0,1,180.69,401.81Z" transform="translate(-9.35 -6.54)"/><path class="cls-2" d="M182.14,383.48h-2.9a.73.73,0,0,1,0-1.46h2.9a.73.73,0,0,1,0,1.46Z" transform="translate(-9.35 -6.54)"/><path class="cls-2" d="M182.14,401.81H142.71a.73.73,0,1,1,0-1.46h39.43a.73.73,0,1,1,0,1.46Z" transform="translate(-9.35 -6.54)"/><path class="cls-2" d="M104,125.69h-1.85a.62.62,0,1,1,0-1.24H104a.62.62,0,1,1,0,1.24Z" transform="translate(-9.35 -6.54)"/><path class="cls-2" d="M119,125.69h-3.76a.62.62,0,1,1,0-1.24H119a.62.62,0,1,1,0,1.24Zm-7.53,0h-3.76a.62.62,0,1,1,0-1.24h3.76a.62.62,0,1,1,0,1.24Z" transform="translate(-9.35 -6.54)"/><path class="cls-2" d="M124.66,125.69h-1.85a.62.62,0,1,1,0-1.24h1.85a.62.62,0,1,1,0,1.24Z" transform="translate(-9.35 -6.54)"/><path class="cls-2" d="M144.42,134.81a.62.62,0,0,1-.62-.62v-1.85a.62.62,0,0,1,1.24,0v1.85A.62.62,0,0,1,144.42,134.81Z" transform="translate(-9.35 -6.54)"/><path class="cls-2" d="M144.42,208.13a.62.62,0,0,1-.62-.62v-3.67a.62.62,0,0,1,1.24,0v3.67A.62.62,0,0,1,144.42,208.13Zm0-7.33a.62.62,0,0,1-.62-.62v-3.67a.62.62,0,0,1,1.24,0v3.67A.62.62,0,0,1,144.42,200.8Zm0-7.33a.62.62,0,0,1-.62-.62v-3.67a.62.62,0,0,1,1.24,0v3.67A.62.62,0,0,1,144.42,193.46Zm0-7.33a.62.62,0,0,1-.62-.62v-3.67a.62.62,0,0,1,1.24,0v3.67A.62.62,0,0,1,144.42,186.13Zm0-7.33a.62.62,0,0,1-.62-.62v-3.67a.62.62,0,0,1,1.24,0v3.67A.62.62,0,0,1,144.42,178.8Zm0-7.33a.62.62,0,0,1-.62-.62v-3.67a.62.62,0,0,1,1.24,0v3.67A.62.62,0,0,1,144.42,171.47Zm0-7.33a.62.62,0,0,1-.62-.62v-3.67a.62.62,0,1,1,1.24,0v3.67A.62.62,0,0,1,144.42,164.14Zm0-7.33a.62.62,0,0,1-.62-.62v-3.67a.62.62,0,0,1,1.24,0v3.67A.62.62,0,0,1,144.42,156.8Zm0-7.33a.62.62,0,0,1-.62-.62v-3.67a.62.62,0,0,1,1.24,0v3.67A.62.62,0,0,1,144.42,149.47Zm0-7.33a.62.62,0,0,1-.62-.62v-3.67a.62.62,0,0,1,1.24,0v3.67A.62.62,0,0,1,144.42,142.14Z" transform="translate(-9.35 -6.54)"/><path class="cls-2" d="M146.28,213.65h-1.85a.62.62,0,0,1-.62-.62v-1.85a.62.62,0,0,1,1.24,0v1.24h1.24a.62.62,0,0,1,0,1.24Z" transform="translate(-9.35 -6.54)"/><path class="cls-2" d="M151.54,213.65h-1.85a.62.62,0,0,1,0-1.24h1.85a.62.62,0,0,1,0,1.24Z" transform="translate(-9.35 -6.54)"/><path class="cls-2" d="M377.23,148.51a.62.62,0,0,1-.62-.62V146a.62.62,0,1,1,1.24,0v1.85A.62.62,0,0,1,377.23,148.51Z" transform="translate(-9.35 -6.54)"/><path class="cls-2" d="M377.23,221.83a.62.62,0,0,1-.62-.62v-3.67a.62.62,0,1,1,1.24,0v3.67A.62.62,0,0,1,377.23,221.83Zm0-7.33a.62.62,0,0,1-.62-.62v-3.67a.62.62,0,0,1,1.24,0v3.67A.62.62,0,0,1,377.23,214.49Zm0-7.33a.62.62,0,0,1-.62-.62v-3.67a.62.62,0,1,1,1.24,0v3.67A.62.62,0,0,1,377.23,207.16Zm0-7.33a.62.62,0,0,1-.62-.62v-3.67a.62.62,0,1,1,1.24,0v3.67A.62.62,0,0,1,377.23,199.83Zm0-7.33a.62.62,0,0,1-.62-.62v-3.67a.62.62,0,1,1,1.24,0v3.67A.62.62,0,0,1,377.23,192.5Zm0-7.33a.62.62,0,0,1-.62-.62v-3.67a.62.62,0,1,1,1.24,0v3.67A.62.62,0,0,1,377.23,185.17Zm0-7.33a.62.62,0,0,1-.62-.62v-3.67a.62.62,0,1,1,1.24,0v3.67A.62.62,0,0,1,377.23,177.83Zm0-7.33a.62.62,0,0,1-.62-.62v-3.67a.62.62,0,0,1,1.24,0v3.67A.62.62,0,0,1,377.23,170.5Zm0-7.33a.62.62,0,0,1-.62-.62v-3.67a.62.62,0,1,1,1.24,0v3.67A.62.62,0,0,1,377.23,163.17Zm0-7.33a.62.62,0,0,1-.62-.62v-3.67a.62.62,0,1,1,1.24,0v3.67A.62.62,0,0,1,377.23,155.84Z" transform="translate(-9.35 -6.54)"/><path class="cls-2" d="M379.08,227.35h-1.85a.62.62,0,0,1-.62-.62v-1.85a.62.62,0,0,1,1.24,0v1.24h1.24a.62.62,0,1,1,0,1.24Z" transform="translate(-9.35 -6.54)"/><path class="cls-2" d="M384.34,227.35h-1.85a.62.62,0,1,1,0-1.24h1.85a.62.62,0,0,1,0,1.24Z" transform="translate(-9.35 -6.54)"/><path class="cls-2" d="M173.41,240.62a.62.62,0,0,1-.62-.62v-1.85a.62.62,0,0,1,1.24,0V240A.62.62,0,0,1,173.41,240.62Z" transform="translate(-9.35 -6.54)"/><path class="cls-2" d="M173.41,245.71h-1.85a.62.62,0,1,1,0-1.24h1.24v-1.24a.62.62,0,0,1,1.24,0v1.85A.62.62,0,0,1,173.41,245.71Z" transform="translate(-9.35 -6.54)"/><path class="cls-2" d="M167.45,245.71h-4.11a.62.62,0,0,1,0-1.24h4.11a.62.62,0,0,1,0,1.24Zm-8.21,0h-4.11a.62.62,0,1,1,0-1.24h4.11a.62.62,0,1,1,0,1.24Zm-8.21,0h-4.11a.62.62,0,0,1,0-1.24H151a.62.62,0,0,1,0,1.24Z" transform="translate(-9.35 -6.54)"/><path class="cls-2" d="M141,247.56a.62.62,0,0,1-.62-.62v-1.85a.62.62,0,0,1,.62-.62h1.85a.62.62,0,1,1,0,1.24h-1.24v1.24A.62.62,0,0,1,141,247.56Z" transform="translate(-9.35 -6.54)"/><path class="cls-2" d="M141,250.06a.62.62,0,0,1-.62-.62v-1.85a.62.62,0,1,1,1.24,0v1.85A.62.62,0,0,1,141,250.06Z" transform="translate(-9.35 -6.54)"/><path class="cls-2" d="M161.17,413.7a.62.62,0,0,1-.62-.62v-1.85a.62.62,0,1,1,1.24,0v1.85A.62.62,0,0,1,161.17,413.7Z" transform="translate(-9.35 -6.54)"/><path class="cls-2" d="M161.17,427.31a.62.62,0,0,1-.62-.62v-3.4a.62.62,0,1,1,1.24,0v3.4A.62.62,0,0,1,161.17,427.31Zm0-6.8a.62.62,0,0,1-.62-.62v-3.4a.62.62,0,1,1,1.24,0v3.4A.62.62,0,0,1,161.17,420.5Z" transform="translate(-9.35 -6.54)"/><path class="cls-2" d="M161.17,432.56a.62.62,0,0,1-.62-.62v-1.85a.62.62,0,1,1,1.24,0v1.85A.62.62,0,0,1,161.17,432.56Z" transform="translate(-9.35 -6.54)"/><path class="cls-2" d="M270.87,155.44a.62.62,0,0,1-.62-.62v-1.24H267a.62.62,0,1,1,0-1.24h3.85a.62.62,0,0,1,.62.62v1.85A.62.62,0,0,1,270.87,155.44Z" transform="translate(-9.35 -6.54)"/><path class="cls-2" d="M263,153.59h-4a.62.62,0,1,1,0-1.24h4a.62.62,0,0,1,0,1.24Zm-8,0h-4a.62.62,0,1,1,0-1.24h4a.62.62,0,1,1,0,1.24Zm-8,0h-4a.62.62,0,1,1,0-1.24h4a.62.62,0,1,1,0,1.24Zm-8,0h-4a.62.62,0,1,1,0-1.24h4a.62.62,0,1,1,0,1.24Zm-8,0h-4a.62.62,0,1,1,0-1.24h4a.62.62,0,0,1,0,1.24Z" transform="translate(-9.35 -6.54)"/><path class="cls-2" d="M223.12,153.59h-1.85a.62.62,0,1,1,0-1.24h1.85a.62.62,0,1,1,0,1.24Z" transform="translate(-9.35 -6.54)"/><path class="cls-2" d="M247.45,394.68a.62.62,0,0,1-.62-.62v-1.24H243.6a.62.62,0,0,1,0-1.24h3.85a.62.62,0,0,1,.62.62v1.85A.62.62,0,0,1,247.45,394.68Z" transform="translate(-9.35 -6.54)"/><path class="cls-2" d="M239.61,392.83h-4a.62.62,0,1,1,0-1.24h4a.62.62,0,0,1,0,1.24Zm-8,0h-4a.62.62,0,1,1,0-1.24h4a.62.62,0,0,1,0,1.24Zm-8,0h-4a.62.62,0,0,1,0-1.24h4a.62.62,0,0,1,0,1.24Zm-8,0h-4a.62.62,0,0,1,0-1.24h4a.62.62,0,0,1,0,1.24Zm-8,0h-4a.62.62,0,1,1,0-1.24h4a.62.62,0,0,1,0,1.24Z" transform="translate(-9.35 -6.54)"/><path class="cls-2" d="M199.7,392.83h-1.85a.62.62,0,1,1,0-1.24h1.85a.62.62,0,0,1,0,1.24Z" transform="translate(-9.35 -6.54)"/><path class="cls-2" d="M198.29,142.37a.62.62,0,0,1-.62-.62V139.9a.62.62,0,1,1,1.24,0v1.85A.62.62,0,0,1,198.29,142.37Z" transform="translate(-9.35 -6.54)"/><path class="cls-2" d="M198.29,137a.62.62,0,0,1-.62-.62v-3.57a.62.62,0,0,1,1.24,0v3.57A.62.62,0,0,1,198.29,137Zm0-7.13a.62.62,0,0,1-.62-.62v-3.57a.62.62,0,0,1,1.24,0v3.57A.62.62,0,0,1,198.29,129.82Z" transform="translate(-9.35 -6.54)"/><path class="cls-2" d="M198.29,122.68a.62.62,0,0,1-.62-.62v-1.85a.62.62,0,0,1,.62-.62h1.85a.62.62,0,1,1,0,1.24h-1.24v1.24A.62.62,0,0,1,198.29,122.68Z" transform="translate(-9.35 -6.54)"/><path class="cls-2" d="M206.12,120.83h-1.85a.62.62,0,0,1,0-1.24h1.85a.62.62,0,1,1,0,1.24Z" transform="translate(-9.35 -6.54)"/><path class="cls-2" d="M350,123.36h-1.85a.62.62,0,1,1,0-1.24H350a.62.62,0,1,1,0,1.24Z" transform="translate(-9.35 -6.54)"/><path class="cls-2" d="M355.3,123.36h-2.63a.62.62,0,1,1,0-1.24h2.63a.62.62,0,0,1,0,1.24Z" transform="translate(-9.35 -6.54)"/><path class="cls-2" d="M359.78,123.36h-1.85a.62.62,0,0,1,0-1.24h1.85a.62.62,0,1,1,0,1.24Z" transform="translate(-9.35 -6.54)"/><path class="cls-2" d="M500,341.07a.62.62,0,0,1-.62-.62V338.6a.62.62,0,1,1,1.24,0v1.85A.62.62,0,0,1,500,341.07Z" transform="translate(-9.35 -6.54)"/><path class="cls-2" d="M500,334.41a.62.62,0,0,1-.62-.62v-1.24h-1.24a.62.62,0,0,1,0-1.24H500a.62.62,0,0,1,.62.62v1.85A.62.62,0,0,1,500,334.41Z" transform="translate(-9.35 -6.54)"/><path class="cls-2" d="M494.18,332.56h-4a.62.62,0,1,1,0-1.24h4a.62.62,0,0,1,0,1.24Zm-7.91,0h-4a.62.62,0,0,1,0-1.24h4a.62.62,0,1,1,0,1.24Zm-7.91,0h-4a.62.62,0,1,1,0-1.24h4a.62.62,0,0,1,0,1.24Z" transform="translate(-9.35 -6.54)"/><path class="cls-2" d="M470.45,332.56H468.6a.62.62,0,0,1-.62-.62v-1.85a.62.62,0,0,1,1.24,0v1.24h1.24a.62.62,0,1,1,0,1.24Z" transform="translate(-9.35 -6.54)"/><path class="cls-2" d="M468.6,326.83a.62.62,0,0,1-.62-.62v-3.87a.62.62,0,0,1,1.24,0v3.87A.62.62,0,0,1,468.6,326.83Zm0-7.74a.62.62,0,0,1-.62-.62V314.6a.62.62,0,0,1,1.24,0v3.87A.62.62,0,0,1,468.6,319.09Zm0-7.74a.62.62,0,0,1-.62-.62v-3.87a.62.62,0,0,1,1.24,0v3.87A.62.62,0,0,1,468.6,311.35Zm0-7.74A.62.62,0,0,1,468,303v-3.87a.62.62,0,0,1,1.24,0V303A.62.62,0,0,1,468.6,303.6Zm0-7.74a.62.62,0,0,1-.62-.62v-3.87a.62.62,0,0,1,1.24,0v3.87A.62.62,0,0,1,468.6,295.86Zm0-7.74a.62.62,0,0,1-.62-.62v-3.87a.62.62,0,0,1,1.24,0v3.87A.62.62,0,0,1,468.6,288.11Z" transform="translate(-9.35 -6.54)"/><path class="cls-2" d="M468.6,280.37a.62.62,0,0,1-.62-.62V277.9a.62.62,0,0,1,.62-.62h1.85a.62.62,0,1,1,0,1.24h-1.24v1.24A.62.62,0,0,1,468.6,280.37Z" transform="translate(-9.35 -6.54)"/><path class="cls-2" d="M474.28,278.51h-1.85a.62.62,0,1,1,0-1.24h1.85a.62.62,0,0,1,0,1.24Z" transform="translate(-9.35 -6.54)"/><path class="cls-2" d="M68.91,153.6a.62.62,0,0,1-.62-.62v-1.85a.62.62,0,0,1,1.24,0V153A.62.62,0,0,1,68.91,153.6Z" transform="translate(-9.35 -6.54)"/><path class="cls-2" d="M68.91,187.71a.62.62,0,0,1-.62-.62v-3.41a.62.62,0,0,1,1.24,0v3.41A.62.62,0,0,1,68.91,187.71Zm0-6.82a.62.62,0,0,1-.62-.62v-3.41a.62.62,0,0,1,1.24,0v3.41A.62.62,0,0,1,68.91,180.89Zm0-6.82a.62.62,0,0,1-.62-.62V170a.62.62,0,0,1,1.24,0v3.41A.62.62,0,0,1,68.91,174.07Zm0-6.82a.62.62,0,0,1-.62-.62v-3.41a.62.62,0,0,1,1.24,0v3.41A.62.62,0,0,1,68.91,167.25Zm0-6.82a.62.62,0,0,1-.62-.62V156.4a.62.62,0,0,1,1.24,0v3.41A.62.62,0,0,1,68.91,160.42Z" transform="translate(-9.35 -6.54)"/><path class="cls-2" d="M70.76,193H68.91a.62.62,0,0,1-.62-.62V190.5a.62.62,0,0,1,1.24,0v1.24h1.24a.62.62,0,1,1,0,1.24Z" transform="translate(-9.35 -6.54)"/><path class="cls-2" d="M76.1,193H73.43a.62.62,0,0,1,0-1.24H76.1a.62.62,0,1,1,0,1.24Z" transform="translate(-9.35 -6.54)"/><path class="cls-2" d="M80.62,193H78.77a.62.62,0,1,1,0-1.24h1.85a.62.62,0,1,1,0,1.24Z" transform="translate(-9.35 -6.54)"/><path class="cls-2" d="M107.76,220.35a.62.62,0,0,1-.62-.62v-1.85a.62.62,0,0,1,1.24,0v1.85A.62.62,0,0,1,107.76,220.35Z" transform="translate(-9.35 -6.54)"/><path class="cls-2" d="M107.76,262.18a.62.62,0,0,1-.62-.62v-3.49a.62.62,0,0,1,1.24,0v3.49A.62.62,0,0,1,107.76,262.18Zm0-7a.62.62,0,0,1-.62-.62V251.1a.62.62,0,0,1,1.24,0v3.49A.62.62,0,0,1,107.76,255.21Zm0-7a.62.62,0,0,1-.62-.62v-3.49a.62.62,0,0,1,1.24,0v3.49A.62.62,0,0,1,107.76,248.24Zm0-7a.62.62,0,0,1-.62-.62v-3.49a.62.62,0,0,1,1.24,0v3.49A.62.62,0,0,1,107.76,241.26Zm0-7a.62.62,0,0,1-.62-.62v-3.49a.62.62,0,0,1,1.24,0v3.49A.62.62,0,0,1,107.76,234.29Zm0-7a.62.62,0,0,1-.62-.62v-3.49a.62.62,0,0,1,1.24,0v3.49A.62.62,0,0,1,107.76,227.32Z" transform="translate(-9.35 -6.54)"/><path class="cls-2" d="M107.76,267.52H105.9a.62.62,0,0,1,0-1.24h1.24V265a.62.62,0,1,1,1.24,0v1.85A.62.62,0,0,1,107.76,267.52Z" transform="translate(-9.35 -6.54)"/><path class="cls-2" d="M102.69,267.52h-1.85a.62.62,0,0,1,0-1.24h1.85a.62.62,0,0,1,0,1.24Z" transform="translate(-9.35 -6.54)"/><path class="cls-2" d="M74.61,391.06a.62.62,0,0,1-.62-.62v-1.85a.62.62,0,1,1,1.24,0v1.85A.62.62,0,0,1,74.61,391.06Z" transform="translate(-9.35 -6.54)"/><path class="cls-2" d="M74.61,422.44a.62.62,0,0,1-.62-.62V417.9a.62.62,0,0,1,1.24,0v3.92A.62.62,0,0,1,74.61,422.44Zm0-7.84A.62.62,0,0,1,74,414v-3.92a.62.62,0,0,1,1.24,0V414A.62.62,0,0,1,74.61,414.59Zm0-7.84a.62.62,0,0,1-.62-.62v-3.92a.62.62,0,0,1,1.24,0v3.92A.62.62,0,0,1,74.61,406.75Zm0-7.84a.62.62,0,0,1-.62-.62v-3.92a.62.62,0,0,1,1.24,0v3.92A.62.62,0,0,1,74.61,398.91Z" transform="translate(-9.35 -6.54)"/><path class="cls-2" d="M74.61,428.21a.62.62,0,0,1-.62-.62v-1.85a.62.62,0,0,1,1.24,0v1.85A.62.62,0,0,1,74.61,428.21Z" transform="translate(-9.35 -6.54)"/><path class="cls-2" d="M109.94,452.4h-1.85a.62.62,0,0,1,0-1.24h1.85a.62.62,0,0,1,0,1.24Z" transform="translate(-9.35 -6.54)"/><path class="cls-2" d="M127,452.4h-4.26a.62.62,0,0,1,0-1.24H127a.62.62,0,0,1,0,1.24Zm-8.51,0H114.2a.62.62,0,0,1,0-1.24h4.26a.62.62,0,0,1,0,1.24Z" transform="translate(-9.35 -6.54)"/><path class="cls-2" d="M133.08,452.4h-1.85a.62.62,0,1,1,0-1.24h1.85a.62.62,0,0,1,0,1.24Z" transform="translate(-9.35 -6.54)"/><path class="cls-2" d="M447,463.41h-1.85a.62.62,0,0,1,0-1.24H447a.62.62,0,0,1,0,1.24Z" transform="translate(-9.35 -6.54)"/><path class="cls-2" d="M441.3,463.41h-3.82a.62.62,0,0,1,0-1.24h3.82a.62.62,0,1,1,0,1.24Zm-7.64,0h-3.82a.62.62,0,0,1,0-1.24h3.82a.62.62,0,1,1,0,1.24Zm-7.64,0h-3.82a.62.62,0,0,1,0-1.24H426a.62.62,0,0,1,0,1.24Zm-7.64,0h-3.82a.62.62,0,0,1,0-1.24h3.82a.62.62,0,0,1,0,1.24Zm-7.64,0h-3.82a.62.62,0,0,1,0-1.24h3.82a.62.62,0,0,1,0,1.24Zm-7.64,0h-3.82a.62.62,0,0,1,0-1.24h3.82a.62.62,0,0,1,0,1.24Zm-7.64,0h-3.82a.62.62,0,0,1,0-1.24h3.82a.62.62,0,0,1,0,1.24Zm-7.64,0H384a.62.62,0,0,1,0-1.24h3.82a.62.62,0,0,1,0,1.24Z" transform="translate(-9.35 -6.54)"/><path class="cls-2" d="M380.17,463.41h-1.85a.62.62,0,0,1-.62-.62v-1.85a.62.62,0,0,1,1.24,0v1.24h1.24a.62.62,0,1,1,0,1.24Z" transform="translate(-9.35 -6.54)"/><path class="cls-2" d="M378.31,457.18a.62.62,0,0,1-.62-.62v-1.85a.62.62,0,0,1,1.24,0v1.85A.62.62,0,0,1,378.31,457.18Z" transform="translate(-9.35 -6.54)"/><path class="cls-2" d="M469.2,439.1a.62.62,0,0,1-.62-.62v-1.85a.62.62,0,0,1,1.24,0v1.85A.62.62,0,0,1,469.2,439.1Z" transform="translate(-9.35 -6.54)"/><path class="cls-2" d="M469.2,433.94a.62.62,0,0,1-.62-.62V430a.62.62,0,0,1,1.24,0v3.3A.62.62,0,0,1,469.2,433.94Zm0-6.61a.62.62,0,0,1-.62-.62v-3.3a.62.62,0,0,1,1.24,0v3.3A.62.62,0,0,1,469.2,427.33Zm0-6.61a.62.62,0,0,1-.62-.62v-3.3a.62.62,0,0,1,1.24,0v3.3A.62.62,0,0,1,469.2,420.72Z" transform="translate(-9.35 -6.54)"/><path class="cls-2" d="M469.2,414.11a.62.62,0,0,1-.62-.62v-1.85a.62.62,0,0,1,1.24,0v1.85A.62.62,0,0,1,469.2,414.11Z" transform="translate(-9.35 -6.54)"/><path class="cls-2" d="M501.2,250.06a.62.62,0,0,1-.62-.62v-1.85a.62.62,0,1,1,1.24,0v1.85A.62.62,0,0,1,501.2,250.06Z" transform="translate(-9.35 -6.54)"/><path class="cls-2" d="M501.2,244.6a.62.62,0,0,1-.62-.62v-3.6a.62.62,0,1,1,1.24,0V244A.62.62,0,0,1,501.2,244.6Zm0-7.2a.62.62,0,0,1-.62-.62v-3.6a.62.62,0,1,1,1.24,0v3.6A.62.62,0,0,1,501.2,237.39Zm0-7.2a.62.62,0,0,1-.62-.62V226a.62.62,0,1,1,1.24,0v3.6A.62.62,0,0,1,501.2,230.19Zm0-7.2a.62.62,0,0,1-.62-.62v-3.6a.62.62,0,1,1,1.24,0v3.6A.62.62,0,0,1,501.2,223Z" transform="translate(-9.35 -6.54)"/><path class="cls-2" d="M501.2,215.78a.62.62,0,0,1-.62-.62v-1.24h-1.24a.62.62,0,0,1,0-1.24h1.85a.62.62,0,0,1,.62.62v1.85A.62.62,0,0,1,501.2,215.78Z" transform="translate(-9.35 -6.54)"/><path class="cls-2" d="M497.15,213.93H495a.62.62,0,1,1,0-1.24h2.19a.62.62,0,1,1,0,1.24Z" transform="translate(-9.35 -6.54)"/><path class="cls-2" d="M492.77,213.93h-1.85a.62.62,0,1,1,0-1.24h1.85a.62.62,0,0,1,0,1.24Z" transform="translate(-9.35 -6.54)"/><path class="cls-2" d="M467.21,187.93a.62.62,0,0,1-.62-.62v-1.85a.62.62,0,1,1,1.24,0v1.85A.62.62,0,0,1,467.21,187.93Z" transform="translate(-9.35 -6.54)"/><path class="cls-2" d="M467.21,182.32a.62.62,0,0,1-.62-.62v-3.76a.62.62,0,1,1,1.24,0v3.76A.62.62,0,0,1,467.21,182.32Zm0-7.51a.62.62,0,0,1-.62-.62v-3.76a.62.62,0,1,1,1.24,0v3.76A.62.62,0,0,1,467.21,174.8Z" transform="translate(-9.35 -6.54)"/><path class="cls-2" d="M467.21,167.29a.62.62,0,0,1-.62-.62v-1.24h-1.24a.62.62,0,0,1,0-1.24h1.85a.62.62,0,0,1,.62.62v1.85A.62.62,0,0,1,467.21,167.29Z" transform="translate(-9.35 -6.54)"/><path class="cls-2" d="M463.38,165.44h-2a.62.62,0,0,1,0-1.24h2a.62.62,0,0,1,0,1.24Z" transform="translate(-9.35 -6.54)"/><path class="cls-2" d="M459.43,165.44h-1.85a.62.62,0,0,1,0-1.24h1.85a.62.62,0,0,1,0,1.24Z" transform="translate(-9.35 -6.54)"/><path class="cls-2" d="M424.32,151.75a.62.62,0,0,1-.62-.62v-1.85a.62.62,0,0,1,1.24,0v1.85A.62.62,0,0,1,424.32,151.75Z" transform="translate(-9.35 -6.54)"/><path class="cls-2" d="M424.32,146.37a.62.62,0,0,1-.62-.62v-3.53a.62.62,0,1,1,1.24,0v3.53A.62.62,0,0,1,424.32,146.37Zm0-7.05a.62.62,0,0,1-.62-.62v-3.53a.62.62,0,0,1,1.24,0v3.53A.62.62,0,0,1,424.32,139.32Zm0-7.05a.62.62,0,0,1-.62-.62v-3.53a.62.62,0,1,1,1.24,0v3.53A.62.62,0,0,1,424.32,132.26Z" transform="translate(-9.35 -6.54)"/><path class="cls-2" d="M424.32,125.21a.62.62,0,0,1-.62-.62v-1.85a.62.62,0,0,1,.62-.62h1.85a.62.62,0,1,1,0,1.24h-1.24v1.24A.62.62,0,0,1,424.32,125.21Z" transform="translate(-9.35 -6.54)"/><path class="cls-2" d="M432.7,123.36h-3.26a.62.62,0,0,1,0-1.24h3.26a.62.62,0,1,1,0,1.24Z" transform="translate(-9.35 -6.54)"/><path class="cls-2" d="M437.82,123.36H436a.62.62,0,0,1,0-1.24h1.85a.62.62,0,1,1,0,1.24Z" transform="translate(-9.35 -6.54)"/><path class="cls-2" d="M229.45,452.4h-.25a.62.62,0,0,1,0-1.24h.25a.62.62,0,0,1,0,1.24Zm-4,0h-3.71a.62.62,0,0,1,0-1.24h3.71a.62.62,0,1,1,0,1.24Zm-7.42,0h-3.71a.62.62,0,0,1,0-1.24h3.71a.62.62,0,0,1,0,1.24Zm-7.42,0h-3.71a.62.62,0,1,1,0-1.24h3.71a.62.62,0,0,1,0,1.24Zm-7.42,0h-3.71a.62.62,0,1,1,0-1.24h3.71a.62.62,0,1,1,0,1.24Z" transform="translate(-9.35 -6.54)"/><g class="cls-3"><path class="cls-4" d="M54.11,256.28C48,251.12,38.2,248.73,27.94,240.7c-10.1-7.91-15.19-4.79-15.19-4.79s-5.72,2.15-2.31,5C25,253.22,39.7,264,39.7,264l16.64-3.72S57.74,259.32,54.11,256.28Z" transform="translate(-9.35 -6.54)"/><path class="cls-5" d="M365.92,833.93s-18,33.8-.69,49.71c23.36,21.52,71.18,11.27,75.32-9.28,3.58-17.76-10.37-46.4-10.37-46.4s-24.18,9.28-35.93,8S365.92,833.93,365.92,833.93Z" transform="translate(-9.35 -6.54)"/><path class="cls-6" d="M365.23,883.65a21.5,21.5,0,0,1-4.47-5.84c5.23,4.68,15.45,10.11,35.22,11.31,24.76,1.51,37.57-6.08,43.83-12.31C432.56,895.68,387.65,904.29,365.23,883.65Z" transform="translate(-9.35 -6.54)"/><path class="cls-7" d="M433.82,873.7s-11.4,9.95-33.68,9.95-34.21-9.45-34.21-9.45,19.18,6.47,35.24,6S433.82,873.7,433.82,873.7Z" transform="translate(-9.35 -6.54)"/><path class="cls-5" d="M227,812.06a172.27,172.27,0,0,1-21.69,16c-14.56,9.21-32.56,16.15-39.12,27.74-9.06,16,20.73,24.86,49.4,21.21,31.52-4,76.36-25.19,79.82-34.47a27.61,27.61,0,0,0,.69-17.23Z" transform="translate(-9.35 -6.54)"/><path class="cls-6" d="M164.61,860.83c4.82,7,18.29,15.31,52.74,11.22,34-4,70.59-28.67,79.5-35a27.66,27.66,0,0,1-1.41,5.48C292,851.83,247.14,873,215.62,877,190.11,880.26,163.74,873.6,164.61,860.83Z" transform="translate(-9.35 -6.54)"/><path class="cls-7" d="M217.7,863.76s-19.7,6-35.76,1.49-15.72-9.45-15.72-9.45l3.54-4.48s3.57,7.16,13.74,9.94C196.19,864.75,217.7,863.76,217.7,863.76Z" transform="translate(-9.35 -6.54)"/><path class="cls-8" d="M351.07,181.85s-1.9-1.16-11.05-1.16-44.92,0-45.26,1.49,3.11,12.43,6.91,16.9,19.7,7.79,27.47,4.31S351.58,182.68,351.07,181.85Z" transform="translate(-9.35 -6.54)"/><path class="cls-9" d="M296.81,170.85s-1.79,22.49,2.71,32.58,14.08,13,25.73,5.77S347.36,189,347.36,189l.57-16.89S310.32,180.23,296.81,170.85Z" transform="translate(-9.35 -6.54)"/><path class="cls-10" d="M408.08,513.78l26,313.7s-4.4,12.92-38.44,12.43c-13.82-.2-30.4-4-30.4-4S327.49,557.05,320,552.74c-8.86-5.1-12.66,69.3-16.27,143-3.43,70.06-6.91,139.49-6.91,139.49S269.41,819.66,252.94,817c-18.66-3-31.36-.74-31.36-.74L233.1,522,237,460s47.39-16.45,55.68-16.45,73.25,11.93,73.25,11.93S403.93,460.75,408.08,513.78Z" transform="translate(-9.35 -6.54)"/><path class="cls-11" d="M306,529.44c13.47-14.91,28.81,29.08,38.14,86.75,8.19,50.65,22,188,25.22,220.64a53.13,53.13,0,0,1-7.08-2.39S327.49,557.05,320,552.74c-8.86-5.1-12.66,69.3-16.27,143-3.43,70.06-6.91,139.49-6.91,139.49a61,61,0,0,0-14.34-7.54C285.08,779.37,294,542.77,306,529.44Z" transform="translate(-9.35 -6.54)"/><path class="cls-11" d="M233.1,522,237,460s47.39-16.45,55.68-16.45,109.73,6.36,109.73,6.36,5.48,4.36,9.63,57.39l.34,10.89c-4.1,4.08-8.9,18.73-49.91,23.47-35.32,4.08-47.68,2.65-47.68,2.65s-4.84-.67-8.29-19.89-5.53-35.8-5.53-35.8-1.38,55-9,57c-6.86,1.79-44.11.88-59.28-13.67Z" transform="translate(-9.35 -6.54)"/><path class="cls-12" d="M103.64,282s-12.51,1.93-22,16.23-8.8,29.17-4.67,29.63,18.75-6.31,24.37-19.41S106.11,280.37,103.64,282Z" transform="translate(-9.35 -6.54)"/><path class="cls-13" d="M358.07,192.77s-4.73-12-7.52-11.09c-1.16.38-5.7,6.79-11.92,12.76-8.77,8.4-22,17.35-24.53,15.91-2.21-1.23-8.89-6.87-13-13.92s-5.54-15.5-6.43-14.7c-1.78,1.6-6.52,9.09-6.52,9.09s-5.78,28,1,62S309,321.78,309,321.78s17.2-48.88,26.66-73.46C345,224.15,342.14,225.18,358.07,192.77Z" transform="translate(-9.35 -6.54)"/><path class="cls-8" d="M342,226.3s-21.53-17.91-23.29-17-3.21,2.89-5.23,1.16-2.67-2.74-4.07-2.45-22,16.9-22,16.9l.57,3.67,22-16.9s3,4.07,6.13,2.84a24.15,24.15,0,0,1,5.92-1.48l19.17,15.85,1.48-2.94Z" transform="translate(-9.35 -6.54)"/><path class="cls-14" d="M308,223c.65,1.35-9.95,54.7-9.95,54.7l11.39,40,13.88-42-3.75-52.41Z" transform="translate(-9.35 -6.54)"/><path class="cls-10" d="M76.06,327.32c4.39,2.85,82.57,53.46,102.07,53.09,20.07-.38,57.57-48.57,57.57-48.57-.56,4.75-2,35.26-3.82,70-2.83,54.54-4.23,120.39-4.23,120.39s5.6,6.26,18.59,11,44.91,11.24,46.68.93,7.36-72,7.36-72,8.39,53.8,11.6,67.38,15.7,12.75,40.68,10.21,47.92-12,47.92-12-1.38-61.05.69-61,9.67,57,9.67,57l4.61-4a96.5,96.5,0,0,0-.77-18.26c-1.38-10.32-8.67-79.15-8.67-79.15s61.64-50.79,65.16-63-27.84-128.16-32.35-137.92-11.26-13.05-21.37-13.63c-4.37-.25-28.71-3.32-42.1-8,0,0-.45-1.73-1.12-2-9.23-3.19-16.56-5.7-16.56-5.7s-19.37,41.25-26.26,60.33-21.85,64-21.85,64-15.27-49.88-19.76-70.58c-4.26-19.61-2-54.77-.91-55.4s-56.2,7.05-63.22,10.15-13.57,23.95-17,33.46-36,82.8-36,82.8-14.43-2.77-22.59-6.67-45.9-28.37-45.9-28.37,3.11,26.06-11.09,37.23C80.82,328.72,76.91,327.77,76.06,327.32Zm323-1.14,6.22,13.26-6.22,8.61Z" transform="translate(-9.35 -6.54)"/><path class="cls-15" d="M76.06,327.32c.7.37,3.55,1.07,11.5-4.22,23.22,13.32,73,41.45,82.46,43.4,12.46,2.55,57.77-32.28,61.09-48.21s14.59-71.71,14.59-71.71-3.84,35.16-4.38,53.06a187,187,0,0,1-3.57,31.54L235.86,334c-8,9.41-40.25,46-57.73,46.37C158.63,380.78,80.45,330.18,76.06,327.32Z" transform="translate(-9.35 -6.54)"/><path class="cls-11" d="M307.19,324.86s-3.46,59-3.46,77.55-1.39,55.68-1.39,55.68-.46-54.36.93-71.59S307.19,324.86,307.19,324.86Z" transform="translate(-9.35 -6.54)"/><path class="cls-11" d="M385.27,438.86s-9.67,6-29.71,6a175.3,175.3,0,0,1-36.63-4S366.62,440.85,385.27,438.86Z" transform="translate(-9.35 -6.54)"/><path class="cls-11" d="M280.93,440.19s-22.8,3.32-33.17,2-15.2-5.31-15.2-5.31v-6.63S256,442.85,280.93,440.19Z" transform="translate(-9.35 -6.54)"/><path class="cls-11" d="M425.41,225s-13.32,13.38-16.49,23.11S400,272.39,400,272.39s3.8-24.33,8.24-30.41S425.41,225,425.41,225Z" transform="translate(-9.35 -6.54)"/><path class="cls-11" d="M275,197.09l-9.35,32.72,9.51-1.21-10.78,7.91s7.61,20.68,15.22,35.89,24.1,44.4,24.1,44.4-23.46-35.28-29.17-48.05-12.34-32.9-12.34-32.9l5.71-4.25-5.64.08Z" transform="translate(-9.35 -6.54)"/><path class="cls-11" d="M375.34,199.84l-5.53,34.79-14.51-.5,11.92,10.19s-27.21,31.57-37.58,47-18.4,29.58-18.4,29.58,14.51-23.86,25.39-35.29,33.69-41.76,33.69-41.76l-6.22-6,9.59-.75Z" transform="translate(-9.35 -6.54)"/><path class="cls-11" d="M399.09,348.06V326.18l6.22,13.26Zm-1.39-68.27s0,61.65,1.39,82.19S406,422.29,406,422.29L421.43,409s-12,4.67-12.66-.63-6.22-30.49-4.15-36.45,17.54-17.23,17.54-17.23L448.85,358l-18.66-8.62,18-8s-24.88,4.64-29-6S397.71,279.78,397.71,279.78Z" transform="translate(-9.35 -6.54)"/><path class="cls-14" d="M310,211.72a15.12,15.12,0,0,1,6.44-1.22c.91.1,5.31,3.08,7.91,4.88-.54,1.73-3,9.23-5.76,9.73-3.13.57-9,1.71-10-.64-.79-1.92-4.28-5.93-4.93-8C305.11,215.14,308.29,212.46,310,211.72Z" transform="translate(-9.35 -6.54)"/><polygon class="cls-16" points="310.51 217.92 298.68 217.16 298.21 220.19 310.51 220.79 310.51 217.92"/><path class="cls-4" d="M48.11,248.06c-2.58-3.53-4.71-8.91-1.47-11.11s11.57,7.4,15.31,9a94.5,94.5,0,0,1,14.73,8.14c6.43,4.19,16.66,24.46,16.66,24.46l6.19,7.3s1.87,9.63-1.65,15-12.09,11-12.09,11-16.86-2.45-22.3-4.49-14.38-7.28-18.07-12-3.18-11.58-3.18-11.58a6.51,6.51,0,0,1-5.79-2.91c-2.32-3.33,2.1-7.25,2.1-7.25a4.65,4.65,0,0,1-4.47-3.52c-1.2-3.69,4.36-8,4.36-8s9.3-1.59,13.89-2.14-4.21-11.91-4.21-11.91h0" transform="translate(-9.35 -6.54)"/><path class="cls-17" d="M94.6,280.12s-2.85,15.41-7.51,21.13-12.77,8.7-12.77,8.7l7.32,1.74s9.85-6,12.69-12.68,3.38-15.16,3.38-15.16Z" transform="translate(-9.35 -6.54)"/><path class="cls-13" d="M104.06,282.29s-7.12-4.16-8.33-2.76-.44,14.43-6.94,22.85-13.14,9-12.46,10.89,11.79,9.32,11.79,9.32,11.32-6.64,14.8-18.78A45.44,45.44,0,0,0,104.06,282.29Z" transform="translate(-9.35 -6.54)"/><path class="cls-17" d="M48.11,248.06c-2.58-3.53-4.71-8.91-1.47-11.11a1.83,1.83,0,0,1,.62-.26c-.62,2.13-1.06,5,.23,6.7a108.26,108.26,0,0,0,8.36,9.82c1.34,1.19,5,3.91,4.88,6.63s-2.11,9.06.92,12.31a48.27,48.27,0,0,1,6.17,7.73c1.88,1.84,6.08,5.79,9.45,7.59a27.9,27.9,0,0,0,9.18,2.86s-7.69.24-11.91-1.43a32.59,32.59,0,0,1-4.19-2c.43,1.7.46,3-.85,3.73-2.2,1.17-9.09.66-11.43,2.52s-3.67,6.09-3.67,6.09l.92-5.53a9.54,9.54,0,0,0-4.29-.38c-2.55.31-3.3,0-3.3,0s.55-1.2,5.62-2,10.33-1.94,11.49-2.08,2.63-3.26.77-4.83a22,22,0,0,0-8.78-4.13c-2.64-.35-12.39,2.41-12.39,2.41s6.33-3.71,10.54-4a24.13,24.13,0,0,1,7.13.49,12.82,12.82,0,0,0-2-4.28c-1.43-1.86-1.37-3.22-5.17-3.44S41.51,273,41.51,273s-.61-1.06,4-2.06,10.77-2.21,10.77-2.21a4.15,4.15,0,0,0,0-3.84A6.69,6.69,0,0,0,51,261c-2.17-.42-10.43,1.27-10.43,1.27a46.37,46.37,0,0,1,8.14-2.57c3.68-.68,5.79-.71,5.06-2.65a11.36,11.36,0,0,0-3.19-4.58Z" transform="translate(-9.35 -6.54)"/><path class="cls-18" d="M306.49,330.53c.14-2.54-1.21-4.67-3-4.77s-3.38,1.91-3.51,4.45,1.22,4.68,3,4.76S306.36,333.08,306.49,330.53Z" transform="translate(-9.35 -6.54)"/><path class="cls-19" d="M305.44,330.48c.14-2.54-1.22-4.68-3-4.77s-3.37,1.91-3.51,4.45,1.22,4.68,3,4.77S305.31,333,305.44,330.48Z" transform="translate(-9.35 -6.54)"/><path class="cls-20" d="M304,330.41c.07-1.42-.68-2.61-1.69-2.67s-1.89,1.07-2,2.49.69,2.62,1.69,2.67S303.93,331.84,304,330.41Z" transform="translate(-9.35 -6.54)"/><path class="cls-18" d="M302.17,388c.14-2.54-1.21-4.67-3-4.76s-3.38,1.9-3.51,4.45,1.22,4.67,3,4.77S302,390.5,302.17,388Z" transform="translate(-9.35 -6.54)"/><path class="cls-19" d="M301.12,387.9c.14-2.54-1.22-4.67-3-4.76s-3.37,1.91-3.51,4.45,1.22,4.67,3,4.76S301,390.45,301.12,387.9Z" transform="translate(-9.35 -6.54)"/><path class="cls-20" d="M299.69,387.83c.07-1.42-.68-2.61-1.69-2.66s-1.89,1.07-2,2.49.69,2.62,1.69,2.67S299.61,389.25,299.69,387.83Z" transform="translate(-9.35 -6.54)"/><path class="cls-18" d="M301,441.33c-.25-2.53-1.91-4.46-3.71-4.3s-3.05,2.36-2.8,4.89,1.91,4.47,3.71,4.3S301.22,443.88,301,441.33Z" transform="translate(-9.35 -6.54)"/><path class="cls-19" d="M299.92,441.43c-.25-2.53-1.91-4.46-3.71-4.3s-3.05,2.36-2.8,4.89,1.9,4.47,3.7,4.3S300.17,444,299.92,441.43Z" transform="translate(-9.35 -6.54)"/><path class="cls-20" d="M298.49,441.56c-.14-1.42-1.07-2.5-2.08-2.4s-1.71,1.31-1.57,2.74,1.07,2.5,2.07,2.41S298.63,443,298.49,441.56Z" transform="translate(-9.35 -6.54)"/><g id="_Grupo_" data-name="&lt;Grupo&gt;"><g id="_Grupo_2" data-name="&lt;Grupo&gt;"><g id="_Grupo_3" data-name="&lt;Grupo&gt;"><path id="_Trazado_" data-name="&lt;Trazado&gt;" class="cls-21" d="M315.63,26.47" transform="translate(-9.35 -6.54)"/><path id="cara" class="cls-9" d="M373.6,89.63c-12,0-11.6,17.47-11.6,17.47-4.14-13.38-3.45-28-3.45-28,3.3-35.27-7.84-42-7.84-42-9-9.84-35.79-1.56-35.79-1.56h-.57s-27.28-6.39-35.59,4c0,0-10.66,7.46-4.9,42.41,0,0,1.7,14.49-1.49,28.13,0,0-.85-17.48-12.79-16.62,0,0-15.77,9,0,31.12,0,0,2.79,1.07,2.89,9,0,0-.33,13.64,7.34,6.82l5.54,22.59s1.92,14.07,15.13,16.41c0,0,11.93,6,15.56,9.8,0,0,3.34,7.58,13.11,7.75h.06l.67,0c10.95-.13,14-8.7,14-8.7,3.35-4.08,14.84-10.86,14.84-10.86,13-3.26,14-17.42,14-17.42l4-22.92c8.13,6.27,6.85-7.31,6.85-7.31-.45-7.87,2.26-9.13,2.26-9.13C390,97.46,373.6,89.63,373.6,89.63Z" transform="translate(-9.35 -6.54)"/><path id="Sombra_cara" data-name="Sombra cara" class="cls-22" d="M350.71,37.18a11.93,11.93,0,0,0-3.26-2.46l-17.8-2a86.43,86.43,0,0,0-14.73,2.93h-.57s-27.28-6.39-35.59,4c0,0-10.66,7.46-4.9,42.41,0,0,1.7,14.49-1.49,28.13,0,0-.85-17.48-12.79-16.62,0,0-15.77,9,0,31.12,0,0,2.79,1.07,2.89,9,0,0-.33,13.64,7.34,6.82l5.54,22.59s1.92,14.07,15.13,16.41c0,0,11.93,6,15.56,9.8,0,0,3.34,7.58,13.11,7.75h.06l.67,0c10.95-.13,14-8.7,14-8.7-16.73,4.5-25-5.07-25-5.07-5.4-4.55-23.59-13.07-23.59-13.07-6-12.5-8.13-51.15-8.13-51.15-2.45-21.6,15.59-43.95,15.59-43.95-9-4.45-5.74-13.45-5.74-13.45,3.14,0,7.42-6,7.42-6,8.58-7.1,18.58,5,18.58,5C324,46.82,334.74,50,334.74,50c13.93-3.41,18.11,14.27,18.11,14.27l6.29.33C358.64,41.95,350.71,37.18,350.71,37.18Z" transform="translate(-9.35 -6.54)"/><path id="_Trazado_2" data-name="&lt;Trazado&gt;" class="cls-23" d="M262.13,105.49s0,8.52,3.62,11.85c0,0,4.07,1.24,3,5.37,0,0-.09,16.11-4.84,0C263.91,122.71,259.79,114,262.13,105.49Z" transform="translate(-9.35 -6.54)"/><path id="_Trazado_3" data-name="&lt;Trazado&gt;" class="cls-23" d="M372.86,101.5s0,8.52-3.62,11.85c0,0-4.07,1.24-3,5.37,0,0,.09,16.11,4.84,0C371.09,118.73,375.21,110,372.86,101.5Z" transform="translate(-9.35 -6.54)"/><g id="ojo_der" data-name="ojo der"><path id="_Trazado_4" data-name="&lt;Trazado&gt;" class="cls-24" d="M323.62,99.56s10.23-6,22.27,2.56a14.28,14.28,0,0,1-1.5,5c-1.54,3-4.64,6.46-10.86,7.2C333.53,114.26,324.47,115.44,323.62,99.56Z" transform="translate(-9.35 -6.54)"/><circle id="_Elipse_" data-name="&lt;Elipse&gt;" class="cls-25" cx="326.12" cy="96.34" r="5.35"/><circle id="_Elipse_2" data-name="&lt;Elipse&gt;" class="cls-26" cx="326.12" cy="97.36" r="3.17"/><circle id="_Elipse_3" data-name="&lt;Elipse&gt;" class="cls-24" cx="323.69" cy="95.65" r="1.58"/><circle id="_Elipse_4" data-name="&lt;Elipse&gt;" class="cls-24" cx="321.54" cy="93.88" r="0.45"/><path id="_Trazado_5" data-name="&lt;Trazado&gt;" class="cls-27" d="M322,98.21l.53,2.25s9.49-6.25,25.88,3.1v-3S334.52,93.1,322,98.21Z" transform="translate(-9.35 -6.54)"/><path id="_Trazado_6" data-name="&lt;Trazado&gt;" class="cls-27" d="M322.87,85.59l3.3-10s2.88-5.33,8.69,1.28l11,10.66s2.77,6.61-2.5,2.88C343.38,90.39,329.16,80.26,322.87,85.59Z" transform="translate(-9.35 -6.54)"/></g><g id="ojo_izq" data-name="ojo izq"><path id="_Trazado_7" data-name="&lt;Trazado&gt;" class="cls-24" d="M305.11,99s-10.23-6-22.27,2.56a14.28,14.28,0,0,0,1.5,5c1.54,3,4.64,6.46,10.86,7.2C295.2,113.68,304.26,114.85,305.11,99Z" transform="translate(-9.35 -6.54)"/><circle id="_Elipse_5" data-name="&lt;Elipse&gt;" class="cls-25" cx="284.99" cy="96.3" r="5.35"/><circle id="_Elipse_6" data-name="&lt;Elipse&gt;" class="cls-26" cx="285.09" cy="97.41" r="3.17"/><circle id="_Elipse_7" data-name="&lt;Elipse&gt;" class="cls-24" cx="282.65" cy="95.71" r="1.58"/><circle id="_Elipse_8" data-name="&lt;Elipse&gt;" class="cls-24" cx="280.5" cy="93.94" r="0.45"/><path id="_Trazado_8" data-name="&lt;Trazado&gt;" class="cls-27" d="M306.78,97.74l-.52,2.41s-9.24-6.69-25.18,3.32v-3.21S294.55,92.28,306.78,97.74Z" transform="translate(-9.35 -6.54)"/><path id="_Trazado_9" data-name="&lt;Trazado&gt;" class="cls-27" d="M304.35,89.31V81.8s-1.21-8.5-21.24,7c0,0-5.54,6.41,2,3.25C285.14,92.06,300.23,86.5,304.35,89.31Z" transform="translate(-9.35 -6.54)"/></g><path id="cabello" class="cls-28" d="M359.74,34.78c-7-17-30.69-16.2-30.69-16.2-10.44-7.46-24.58-9.31-24.58-9.31-7.67-4.37-12.2-2.2-12.2-2.2,1.71,3.3.39,5-.27,6-10,5.11-12.55,12.15-12.55,12.15-20.19,10.23-12.2,29.41-12.2,29.41-8.31,11.93,1.49,26.64,1.49,26.64l1.06,18.91a24.54,24.54,0,0,1,1.78,5.08l-1.14,9.48,2.13-.73a40.92,40.92,0,0,1,0-4.67A76,76,0,0,0,274,98.71a43.23,43.23,0,0,1,9.82-19.24s-11.3-12.51-6.71-24c0,0,5,1.28,17.28-5.11,0,0,14-2.34,18.58,4.48,0,0,3.15-10,18.87-10.23,0,0,16.35-4,20.62,7.67,0,0,5.31,8.94-5.54,22.69,0,0,11.36,14.56,13.67,26.94l1.25,7.91-.2-3.85c.11.39.21.77.33,1.16A30.58,30.58,0,0,1,363.11,99c.25-9.28.25-12.83.25-12.83C379.78,46.93,359.74,34.78,359.74,34.78Z" transform="translate(-9.35 -6.54)"/><path id="mechon1" class="cls-27" d="M292,14.18s-15.23,8-10.12,20.18c0,0,2.42,13.64,26,11.51,0,0,6.57.57,5.13,9,0,0,2.84-6,.21-11.65,0,0-20.07-8.81-15.61-18,0,0,4.92-14.78-5.33-18A6.79,6.79,0,0,1,292,14.18Z" transform="translate(-9.35 -6.54)"/><path id="mechon2" class="cls-27" d="M268.22,35.47s-3.45,13.09,8.94,20c0,0-11.16,1.3-2.52,24.79,0,0-5.76,4.93-.68,19.59l-1.4,9.48,0,4.67-2.13.73,1.14-9.48-1.78-5.08-1.06-18.91s-8.88-14.92-1.49-26.64C267.25,54.6,262.8,42,268.22,35.47Z" transform="translate(-9.35 -6.54)"/><path id="mechon3" class="cls-27" d="M304.35,9.92s14.33,1.85,24.7,8.67c0,0,15.74,11.65,3.25,25.15,0,0,3.64-14.78-8.69-16.91s-.75-.36-.75-.36S310.76,28.11,304.35,9.92Z" transform="translate(-9.35 -6.54)"/><path id="mechon4" class="cls-27" d="M359.74,35.47S365.85,43,358.18,53c0,0,9.27,8.38,1.93,25.29a19.88,19.88,0,0,1-1.37,15.49l2.92,12.2L363.11,99l.25-12.83S378.92,48.38,359.74,35.47Z" transform="translate(-9.35 -6.54)"/></g></g></g></g><g id="_Grupo_4" data-name="&lt;Grupo&gt;"><path id="nariz" class="cls-29" d="M309.33,96.62s7.09,22.6-8.15,30.74c0,0-4.2,11.3,11.82,12.88,0,0,4.73.53,11-5.26" transform="translate(-9.35 -6.54)"/><path id="boca" class="cls-29" d="M289.09,145s11.82,18.39,44.14,11" transform="translate(-9.35 -6.54)"/><line id="boca1" class="cls-29" x1="276.06" y1="139.61" x2="281.88" y2="137.93"/><path id="boca2" class="cls-29" d="M332.51,154.43a7.91,7.91,0,0,0,4,4.73" transform="translate(-9.35 -6.54)"/><path id="quijada" class="cls-29" d="M303.35,161.91s13.1,6.11,24.83,0" transform="translate(-9.35 -6.54)"/></g></g></g></svg>