<svg xmlns="http://www.w3.org/2000/svg" viewBox="0 0 414.17 214.63"><defs><style>.cls-1{fill:none;stroke:#8b8b8b;stroke-width:1.47px;}.cls-1,.cls-2,.cls-4{stroke-miterlimit:10;}.cls-2{fill:#f05032;stroke:#e04834;}.cls-2,.cls-4{stroke-width:1.84px;}.cls-3{fill:#fff;}.cls-4{fill:#6b6b6b;stroke:#606060;}</style></defs><title>g4</title><g id="Capa_2" data-name="Capa 2"><g id="CONTENIDO"><polyline class="cls-1" points="108.33 77.64 226.91 14.17 341.08 77.64"/><polyline class="cls-1" points="49.77 143.7 108.7 78.01 167.62 143.7"/><polyline class="cls-1" points="13.68 200.11 49.77 143.7 85.13 200.11"/><polyline class="cls-1" points="131.53 200.11 167.62 143.7 202.97 200.11"/><circle class="cls-2" cx="108.33" cy="78" r="13.61"/><path class="cls-3" d="M110.12,84.2H108v-8a7.31,7.31,0,0,1-2.74,1.61V75.88a6.12,6.12,0,0,0,1.8-1,3.91,3.91,0,0,0,1.34-1.77h1.72Z"/><circle class="cls-4" cx="49.78" cy="143.69" r="13.61"/><path class="cls-3" d="M46.06,146.95l2.05-.25a1.94,1.94,0,0,0,.53,1.2,1.49,1.49,0,0,0,2.15-.08,1.93,1.93,0,0,0,.45-1.34,1.8,1.8,0,0,0-.43-1.27,1.37,1.37,0,0,0-1-.47,3.7,3.7,0,0,0-1,.16l.23-1.73a1.86,1.86,0,0,0,1.31-.37,1.33,1.33,0,0,0,.45-1.05,1.14,1.14,0,0,0-1.22-1.22,1.28,1.28,0,0,0-.93.38,1.77,1.77,0,0,0-.47,1.1l-2-.33a4.37,4.37,0,0,1,.62-1.61,2.78,2.78,0,0,1,1.15-.94,3.85,3.85,0,0,1,1.65-.34,3.29,3.29,0,0,1,2.51,1,2.52,2.52,0,0,1-.82,4.17,2.58,2.58,0,0,1,1.52.91,2.65,2.65,0,0,1,.57,1.71A3.33,3.33,0,0,1,52.35,149a4,4,0,0,1-5.14.16A3.4,3.4,0,0,1,46.06,146.95Z"/><circle class="cls-4" cx="166.89" cy="143.69" r="13.61"/><path class="cls-3" d="M167.41,149.89v-2.23h-4.53V145.8l4.8-7h1.78v7h1.37v1.87h-1.37v2.23Zm0-4.09V142l-2.55,3.78Z"/><circle class="cls-2" cx="14.53" cy="200.1" r="13.61"/><circle class="cls-2" cx="85.03" cy="200.1" r="13.61"/><path class="cls-3" d="M10.88,197.35v-2h7.26v1.54a11.42,11.42,0,0,0-1.83,2.54A14.81,14.81,0,0,0,14.9,203a13,13,0,0,0-.48,3.33h-2a14.22,14.22,0,0,1,.95-4.68,15.59,15.59,0,0,1,2.39-4.27Z"/><path class="cls-3" d="M83.41,200.32A2.38,2.38,0,0,1,81.84,198a2.68,2.68,0,0,1,.86-2,4.13,4.13,0,0,1,4.91,0,2.67,2.67,0,0,1,.87,2,2.42,2.42,0,0,1-.4,1.37,2.54,2.54,0,0,1-1.13.92,3,3,0,0,1,1.4,1.08,2.86,2.86,0,0,1,.48,1.64,3.34,3.34,0,0,1-1,2.49,3.56,3.56,0,0,1-2.6,1,3.93,3.93,0,0,1-2.51-.79,3.09,3.09,0,0,1-1.19-2.57,3.18,3.18,0,0,1,.45-1.65A2.87,2.87,0,0,1,83.41,200.32Zm.24,2.61a2,2,0,0,0,.45,1.37,1.46,1.46,0,0,0,1.12.49,1.41,1.41,0,0,0,1.09-.47,2,2,0,0,0,.43-1.36,1.77,1.77,0,0,0-.44-1.25,1.45,1.45,0,0,0-1.11-.47,1.33,1.33,0,0,0-1.16.54A2,2,0,0,0,83.65,202.93Zm.2-4.74a1.33,1.33,0,0,0,.36,1,1.3,1.3,0,0,0,1,.35,1.31,1.31,0,0,0,1-.36,1.33,1.33,0,0,0,.36-1,1.23,1.23,0,0,0-1.31-1.31,1.32,1.32,0,0,0-1,.36A1.3,1.3,0,0,0,83.85,198.19Z"/><circle class="cls-2" cx="131.64" cy="200.1" r="13.61"/><circle class="cls-2" cx="202.14" cy="200.1" r="13.61"/><path class="cls-3" d="M128,203.74l2.05-.23a1.49,1.49,0,0,0,.39.93,1.17,1.17,0,0,0,.84.3,1.37,1.37,0,0,0,1.12-.6,5.15,5.15,0,0,0,.59-2.51,2.53,2.53,0,0,1-2,.93,3,3,0,0,1-2.25-1,3.68,3.68,0,0,1-.95-2.62,3.73,3.73,0,0,1,1-2.72,3.62,3.62,0,0,1,5.31.27,6.73,6.73,0,0,1,1.08,4.29,6.82,6.82,0,0,1-1.12,4.38,3.64,3.64,0,0,1-2.93,1.34,3.1,3.1,0,0,1-2.1-.69A3.33,3.33,0,0,1,128,203.74Zm4.8-4.64a2.42,2.42,0,0,0-.47-1.59,1.39,1.39,0,0,0-1.09-.57,1.22,1.22,0,0,0-1,.46,2.37,2.37,0,0,0-.39,1.52,2.42,2.42,0,0,0,.42,1.57,1.35,1.35,0,0,0,2.09,0A2.11,2.11,0,0,0,132.84,199.1Z"/><path class="cls-3" d="M198.36,206.3h-2.12v-8a7.31,7.31,0,0,1-2.74,1.61V198a6.12,6.12,0,0,0,1.8-1,3.91,3.91,0,0,0,1.34-1.77h1.72Z"/><path class="cls-3" d="M205.12,195.18a3,3,0,0,1,2.52,1.15,9.94,9.94,0,0,1,0,9,3,3,0,0,1-2.51,1.13,3.17,3.17,0,0,1-2.61-1.24q-1-1.24-1-4.43a7.31,7.31,0,0,1,1.09-4.5A3,3,0,0,1,205.12,195.18Zm0,1.76a1.06,1.06,0,0,0-.69.25,1.64,1.64,0,0,0-.47.88,18,18,0,0,0,0,5.45,1.88,1.88,0,0,0,.49,1,1.09,1.09,0,0,0,1.37,0,1.65,1.65,0,0,0,.47-.88,18,18,0,0,0,0-5.44,1.91,1.91,0,0,0-.49-1A1,1,0,0,0,205.12,196.94Z"/><polyline class="cls-1" points="282.52 143.7 341.45 78.01 400.37 143.7"/><line class="cls-1" x1="246.43" y1="200.11" x2="282.52" y2="143.7"/><circle class="cls-2" cx="341.08" cy="78" r="13.61"/><path class="cls-3" d="M344.61,82.23v2h-7.44a5.12,5.12,0,0,1,.73-2.12,14.1,14.1,0,0,1,2.39-2.65A14.94,14.94,0,0,0,342,77.61a2.34,2.34,0,0,0,.44-1.3,1.48,1.48,0,0,0-.38-1.09,1.62,1.62,0,0,0-2.11,0,2.06,2.06,0,0,0-.45,1.33l-2.11-.21a3.47,3.47,0,0,1,1.19-2.52,4,4,0,0,1,2.49-.76,3.6,3.6,0,0,1,2.58.88,2.9,2.9,0,0,1,.94,2.2,3.83,3.83,0,0,1-.27,1.42,5.75,5.75,0,0,1-.85,1.42,13.45,13.45,0,0,1-1.39,1.41q-1,.92-1.27,1.22a3.6,3.6,0,0,0-.43.59Z"/><circle class="cls-4" cx="282.53" cy="143.69" r="13.61"/><path class="cls-3" d="M278.91,147l2.11-.22a1.81,1.81,0,0,0,.54,1.14,1.45,1.45,0,0,0,1,.42,1.43,1.43,0,0,0,1.12-.54,2.46,2.46,0,0,0,.46-1.63,2.24,2.24,0,0,0-.46-1.53,1.53,1.53,0,0,0-1.19-.51,2.16,2.16,0,0,0-1.64.81l-1.72-.25,1.09-5.76h5.61v2h-4l-.33,1.88a3.24,3.24,0,0,1,3.84.67,3.7,3.7,0,0,1,1,2.67,4,4,0,0,1-.79,2.44,3.51,3.51,0,0,1-3,1.47,3.72,3.72,0,0,1-2.5-.82A3.39,3.39,0,0,1,278.91,147Z"/><circle class="cls-4" cx="399.64" cy="143.69" r="13.61"/><path class="cls-3" d="M403.19,141.53l-2.05.23a1.5,1.5,0,0,0-.39-.94,1.14,1.14,0,0,0-.82-.3,1.39,1.39,0,0,0-1.14.6,5.08,5.08,0,0,0-.59,2.52,2.48,2.48,0,0,1,2-.94,3,3,0,0,1,2.28,1,3.67,3.67,0,0,1,.95,2.61,3.75,3.75,0,0,1-1,2.73,3.63,3.63,0,0,1-5.32-.28A6.7,6.7,0,0,1,396,144.5a6.83,6.83,0,0,1,1.12-4.39,3.63,3.63,0,0,1,2.92-1.34,3.11,3.11,0,0,1,2.09.71A3.31,3.31,0,0,1,403.19,141.53Zm-4.81,4.63a2.41,2.41,0,0,0,.47,1.6,1.4,1.4,0,0,0,1.09.56,1.24,1.24,0,0,0,1-.46,2.32,2.32,0,0,0,.39-1.51,2.43,2.43,0,0,0-.42-1.58,1.36,1.36,0,0,0-2.09,0A2.08,2.08,0,0,0,398.37,146.16Z"/><circle class="cls-2" cx="247.28" cy="200.1" r="13.61"/><path class="cls-3" d="M245.19,206.3h-2.12v-8a7.31,7.31,0,0,1-2.74,1.61V198a6.12,6.12,0,0,0,1.8-1,3.91,3.91,0,0,0,1.34-1.77h1.72Z"/><path class="cls-3" d="M252.94,206.3h-2.12v-8a7.31,7.31,0,0,1-2.74,1.61V198a6.12,6.12,0,0,0,1.8-1,3.91,3.91,0,0,0,1.34-1.77h1.72Z"/><circle class="cls-4" cx="224.44" cy="14.53" r="13.61"/><path class="cls-3" d="M224.39,9.61a3,3,0,0,1,2.52,1.15A7.33,7.33,0,0,1,228,15.26a7.35,7.35,0,0,1-1.09,4.52,3,3,0,0,1-2.51,1.13,3.17,3.17,0,0,1-2.61-1.24q-1-1.24-1-4.43a7.31,7.31,0,0,1,1.09-4.5A3,3,0,0,1,224.39,9.61Zm0,1.76a1.06,1.06,0,0,0-.69.25,1.64,1.64,0,0,0-.47.88,12.14,12.14,0,0,0-.22,2.77,12,12,0,0,0,.2,2.68,1.88,1.88,0,0,0,.49,1,1.09,1.09,0,0,0,1.37,0,1.65,1.65,0,0,0,.47-.88,12.08,12.08,0,0,0,.22-2.76,12.05,12.05,0,0,0-.2-2.68,1.91,1.91,0,0,0-.49-1A1,1,0,0,0,224.39,11.37Z"/></g></g></svg>