<svg xmlns="http://www.w3.org/2000/svg" viewBox="0 0 739.37 175.25"><defs><style>.cls-1{fill:#919191;}.cls-2{fill:#f05032;stroke:#e04834;}.cls-2,.cls-3,.cls-4{stroke-miterlimit:10;}.cls-2,.cls-3{stroke-width:2.5px;}.cls-3{fill:#6b6b6b;stroke:#606060;}.cls-4{fill:none;stroke:#8b8b8b;stroke-linecap:round;stroke-width:2px;}.cls-5{fill:#8b8b8b;}.cls-6{fill:#fff;}</style></defs><title>g5</title><g id="Capa_2" data-name="Capa 2"><g id="CONTENIDO"><path class="cls-1" d="M128.9,164.11l3.57-9.31h1.33l3.81,9.31h-1.4l-1.09-2.82h-3.89l-1,2.82Zm2.69-3.82h3.15l-1-2.58q-.44-1.17-.66-1.93a11.72,11.72,0,0,1-.5,1.78Zm.77-6.06.84-1.78h1.5l-1.4,1.78Z"/><path class="cls-1" d="M138.44,164.11v-6.74h1v1a2.78,2.78,0,0,1,.73-.95,1.27,1.27,0,0,1,.73-.23,2.23,2.23,0,0,1,1.17.37l-.39,1.06a1.63,1.63,0,0,0-.84-.25,1.09,1.09,0,0,0-.67.23,1.21,1.21,0,0,0-.42.63,4.45,4.45,0,0,0-.19,1.33v3.53Z"/><path class="cls-1" d="M143.83,164.11h-1.06v-9.31h1.14v3.32a2.26,2.26,0,0,1,1.85-.91,2.82,2.82,0,0,1,1.18.25,2.41,2.41,0,0,1,.91.7,3.42,3.42,0,0,1,.56,1.1,4.53,4.53,0,0,1,.2,1.37,3.85,3.85,0,0,1-.86,2.68,2.68,2.68,0,0,1-2.06.95,2.15,2.15,0,0,1-1.87-1Zm0-3.42a3.49,3.49,0,0,0,.33,1.75,1.63,1.63,0,0,0,2.75.23,3,3,0,0,0,.55-1.94,3,3,0,0,0-.52-1.95,1.59,1.59,0,0,0-1.27-.63,1.64,1.64,0,0,0-1.29.65A2.86,2.86,0,0,0,143.82,160.69Z"/><path class="cls-1" d="M149.58,160.74a3.47,3.47,0,0,1,1-2.77,3.14,3.14,0,0,1,2.12-.75,3,3,0,0,1,2.27.91,3.47,3.47,0,0,1,.88,2.52,4.46,4.46,0,0,1-.39,2,2.77,2.77,0,0,1-1.14,1.16,3.31,3.31,0,0,1-1.63.41,3,3,0,0,1-2.29-.91A3.63,3.63,0,0,1,149.58,160.74Zm1.17,0a2.87,2.87,0,0,0,.57,1.94,1.88,1.88,0,0,0,2.84,0,2.94,2.94,0,0,0,.57-2,2.79,2.79,0,0,0-.57-1.9,1.88,1.88,0,0,0-2.83,0A2.86,2.86,0,0,0,150.76,160.74Z"/><path class="cls-1" d="M157.21,164.11v-9.31h1.14v9.31Z"/><path class="cls-1" d="M166.23,163.09l.17,1a4.22,4.22,0,0,1-.86.1,2,2,0,0,1-1-.2,1.1,1.1,0,0,1-.48-.52,4.1,4.1,0,0,1-.14-1.35v-3.88h-.84v-.89h.84V155.7l1.14-.69v2.35h1.15v.89h-1.15v3.94a2,2,0,0,0,.06.63.48.48,0,0,0,.2.22.76.76,0,0,0,.39.08A3.69,3.69,0,0,0,166.23,163.09Z"/><path class="cls-1" d="M167.69,156.53l.84-1.78H170l-1.4,1.78Zm.06,7.58v-6.74h1.14v6.74Z"/><path class="cls-1" d="M171,166.69v-9.32h1v.88a2.57,2.57,0,0,1,.83-.77,2.29,2.29,0,0,1,1.12-.26,2.66,2.66,0,0,1,1.52.44,2.73,2.73,0,0,1,1,1.25,4.57,4.57,0,0,1,.34,1.77,4.5,4.5,0,0,1-.37,1.86,2.82,2.82,0,0,1-2.57,1.71,2.15,2.15,0,0,1-1-.24,2.32,2.32,0,0,1-.75-.61v3.28Zm1-5.92a2.94,2.94,0,0,0,.53,1.92,1.62,1.62,0,0,0,1.28.62,1.65,1.65,0,0,0,1.3-.64,3.06,3.06,0,0,0,.54-2,3,3,0,0,0-.53-1.93,1.6,1.6,0,0,0-1.27-.64,1.65,1.65,0,0,0-1.29.68A3.06,3.06,0,0,0,172,160.78Z"/><path class="cls-1" d="M178.2,156.12v-1.31h1.14v1.31Zm0,8v-6.74h1.14v6.74Z"/><path class="cls-1" d="M185.48,161.64l1.12.15a2.91,2.91,0,0,1-.94,1.82,2.74,2.74,0,0,1-1.86.66,2.9,2.9,0,0,1-2.23-.9,3.67,3.67,0,0,1-.84-2.59,4.71,4.71,0,0,1,.36-1.91,2.53,2.53,0,0,1,1.1-1.23,3.27,3.27,0,0,1,1.61-.41,2.8,2.8,0,0,1,1.8.56,2.55,2.55,0,0,1,.89,1.58l-1.11.17a1.84,1.84,0,0,0-.56-1,1.45,1.45,0,0,0-1-.34,1.77,1.77,0,0,0-1.4.62,2.94,2.94,0,0,0-.54,2,3,3,0,0,0,.52,2,1.69,1.69,0,0,0,1.36.62,1.6,1.6,0,0,0,1.12-.41A2,2,0,0,0,185.48,161.64Z"/><path class="cls-1" d="M187.16,160.74a3.47,3.47,0,0,1,1-2.77,3.14,3.14,0,0,1,2.12-.75,3,3,0,0,1,2.27.91,3.47,3.47,0,0,1,.88,2.52,4.46,4.46,0,0,1-.39,2,2.77,2.77,0,0,1-1.14,1.16,3.31,3.31,0,0,1-1.63.41,3,3,0,0,1-2.29-.91A3.63,3.63,0,0,1,187.16,160.74Zm1.17,0a2.87,2.87,0,0,0,.57,1.94,1.88,1.88,0,0,0,2.84,0,2.94,2.94,0,0,0,.57-2,2.79,2.79,0,0,0-.57-1.9,1.88,1.88,0,0,0-2.83,0A2.86,2.86,0,0,0,188.33,160.74Z"/><path class="cls-1" d="M202.82,161.64l1.12.15a2.91,2.91,0,0,1-.94,1.82,2.74,2.74,0,0,1-1.86.66,2.9,2.9,0,0,1-2.23-.9,3.67,3.67,0,0,1-.84-2.59,4.71,4.71,0,0,1,.36-1.91,2.53,2.53,0,0,1,1.1-1.23,3.27,3.27,0,0,1,1.61-.41,2.8,2.8,0,0,1,1.8.56,2.55,2.55,0,0,1,.89,1.58l-1.11.17a1.84,1.84,0,0,0-.56-1,1.45,1.45,0,0,0-1-.34,1.77,1.77,0,0,0-1.4.62,2.94,2.94,0,0,0-.54,2,3,3,0,0,0,.52,2,1.69,1.69,0,0,0,1.36.62,1.6,1.6,0,0,0,1.12-.41A2,2,0,0,0,202.82,161.64Z"/><path class="cls-1" d="M204.5,160.74a3.47,3.47,0,0,1,1-2.77,3.14,3.14,0,0,1,2.12-.75,3,3,0,0,1,2.27.91,3.47,3.47,0,0,1,.88,2.52,4.46,4.46,0,0,1-.39,2,2.77,2.77,0,0,1-1.14,1.16,3.31,3.31,0,0,1-1.63.41,3,3,0,0,1-2.29-.91A3.63,3.63,0,0,1,204.5,160.74Zm1.17,0a2.87,2.87,0,0,0,.57,1.94,1.88,1.88,0,0,0,2.84,0,2.94,2.94,0,0,0,.57-2,2.79,2.79,0,0,0-.57-1.9,1.88,1.88,0,0,0-2.83,0A2.86,2.86,0,0,0,205.67,160.74Z"/><path class="cls-1" d="M212.15,164.11v-6.74h1v1a2.43,2.43,0,0,1,2.15-1.11,2.82,2.82,0,0,1,1.12.22,1.76,1.76,0,0,1,.76.57,2.21,2.21,0,0,1,.36.84,6.58,6.58,0,0,1,.06,1.11v4.15h-1.14V160a3,3,0,0,0-.13-1,1.09,1.09,0,0,0-.47-.55,1.51,1.51,0,0,0-.8-.21,1.85,1.85,0,0,0-1.26.46,2.29,2.29,0,0,0-.53,1.76v3.68Z"/><path class="cls-1" d="M227.5,160.46v-1.09h3.94v3.45a7,7,0,0,1-1.87,1.09,5.56,5.56,0,0,1-2,.36,5.28,5.28,0,0,1-2.49-.59,3.88,3.88,0,0,1-1.69-1.7,5.35,5.35,0,0,1-.57-2.48,5.76,5.76,0,0,1,.57-2.54,3.78,3.78,0,0,1,1.63-1.75,5.12,5.12,0,0,1,2.46-.57,4.87,4.87,0,0,1,1.82.33,3,3,0,0,1,1.28.91,4,4,0,0,1,.71,1.52l-1.11.3a3.44,3.44,0,0,0-.52-1.12,2.13,2.13,0,0,0-.89-.65,3.26,3.26,0,0,0-1.28-.24A3.77,3.77,0,0,0,226,156a2.72,2.72,0,0,0-1,.68,3.24,3.24,0,0,0-.59.92,4.88,4.88,0,0,0-.36,1.87,4.55,4.55,0,0,0,.43,2.08,2.75,2.75,0,0,0,1.25,1.24,3.86,3.86,0,0,0,1.74.41,4.13,4.13,0,0,0,1.56-.31,4,4,0,0,0,1.16-.66v-1.73Z"/><path class="cls-1" d="M233.11,156.12v-1.31h1.14v1.31Zm0,8v-6.74h1.14v6.74Z"/><path class="cls-1" d="M238.49,163.09l.17,1a4.22,4.22,0,0,1-.86.1,2,2,0,0,1-1-.2,1.1,1.1,0,0,1-.48-.52,4.1,4.1,0,0,1-.14-1.35v-3.88h-.84v-.89h.84V155.7l1.14-.69v2.35h1.15v.89h-1.15v3.94a2,2,0,0,0,.06.63.48.48,0,0,0,.2.22.76.76,0,0,0,.39.08A3.69,3.69,0,0,0,238.49,163.09Z"/><path class="cls-1" d="M239.93,164.11v-1.3h1.3v1.3Z"/><circle class="cls-2" cx="19.72" cy="85.79" r="18.47"/><circle class="cls-2" cx="115.44" cy="85.79" r="18.47"/><circle class="cls-2" cx="228" cy="85.79" r="18.47"/><circle class="cls-2" cx="352.79" cy="85.79" r="18.47"/><circle class="cls-2" cx="464.13" cy="85.79" r="18.47"/><circle class="cls-2" cx="612.17" cy="85.79" r="18.47"/><circle class="cls-3" cx="185.18" cy="19.72" r="18.47"/><circle class="cls-3" cx="294.07" cy="19.72" r="18.47"/><circle class="cls-3" cx="412.74" cy="155.53" r="18.47"/><circle class="cls-3" cx="521.63" cy="155.53" r="18.47"/><line class="cls-4" x1="42.09" y1="86.01" x2="83.9" y2="86.01"/><polygon class="cls-5" points="79.97 91.19 82.17 86.01 79.97 80.82 92.26 86.01 79.97 91.19"/><line class="cls-4" x1="132.03" y1="71.32" x2="164.03" y2="39.31"/><polygon class="cls-5" points="164.92 45.76 162.81 40.54 157.59 38.43 169.94 33.4 164.92 45.76"/><line class="cls-4" x1="309.43" y1="35.85" x2="334.33" y2="62.74"/><polygon class="cls-5" points="327.85 63.38 333.15 61.47 335.46 56.33 340.01 68.87 327.85 63.38"/><line class="cls-4" x1="368.16" y1="105.59" x2="393.05" y2="132.48"/><polygon class="cls-5" points="386.58 133.12 391.88 131.21 394.19 126.07 398.73 138.61 386.58 133.12"/><line class="cls-4" x1="207.88" y1="20.55" x2="264.36" y2="20.55"/><polygon class="cls-5" points="260.43 25.74 262.63 20.55 260.43 15.37 272.72 20.55 260.43 25.74"/><line class="cls-4" x1="436.67" y1="155.13" x2="493.15" y2="155.13"/><polygon class="cls-5" points="489.22 160.32 491.42 155.13 489.22 149.95 501.51 155.13 489.22 160.32"/><line class="cls-4" x1="374.27" y1="86.62" x2="433.2" y2="86.62"/><polygon class="cls-5" points="429.27 91.8 431.47 86.62 429.27 81.44 441.56 86.62 429.27 91.8"/><line class="cls-4" x1="486.83" y1="86.62" x2="582.47" y2="86.62"/><polygon class="cls-5" points="578.53 91.8 580.74 86.62 578.53 81.44 590.82 86.62 578.53 91.8"/><line class="cls-4" x1="136.91" y1="86.62" x2="198.3" y2="86.62"/><polygon class="cls-5" points="194.36 91.8 196.57 86.62 194.36 81.44 206.65 86.62 194.36 91.8"/><line class="cls-4" x1="250.7" y1="86.62" x2="321.87" y2="86.62"/><polygon class="cls-5" points="317.93 91.8 320.14 86.62 317.93 81.44 330.22 86.62 317.93 91.8"/><path d="M649.17,89.14V78.76h4.41A7.55,7.55,0,0,1,656,79a2.38,2.38,0,0,1,1.21,1,3,3,0,0,1,.45,1.64A2.77,2.77,0,0,1,657,83.6a3.3,3.3,0,0,1-2.05,1,4.9,4.9,0,0,1,1.12.87,11.83,11.83,0,0,1,1.19,1.69l1.27,2H656l-1.51-2.26a14.68,14.68,0,0,0-1.1-1.53,1.61,1.61,0,0,0-.63-.43,3.46,3.46,0,0,0-1.06-.12h-.42v4.33Zm2.1-6h1.55a8,8,0,0,0,1.88-.13,1.13,1.13,0,0,0,.59-.44,1.36,1.36,0,0,0,.21-.78,1.24,1.24,0,0,0-.28-.85,1.28,1.28,0,0,0-.79-.41q-.25,0-1.53,0h-1.63Z"/><path d="M661.1,83.91l-1.8-.33a2.81,2.81,0,0,1,1-1.61,3.84,3.84,0,0,1,2.21-.52,4.76,4.76,0,0,1,2,.31,2,2,0,0,1,.92.8,4.09,4.09,0,0,1,.27,1.78l0,2.32a8.1,8.1,0,0,0,.09,1.46,4.3,4.3,0,0,0,.36,1h-2q-.08-.2-.19-.59l-.07-.23a3.57,3.57,0,0,1-1.09.74,3.12,3.12,0,0,1-1.24.25,2.56,2.56,0,0,1-1.83-.63,2.1,2.1,0,0,1-.67-1.59,2.14,2.14,0,0,1,.3-1.14,2,2,0,0,1,.85-.76,6.65,6.65,0,0,1,1.58-.46,10.87,10.87,0,0,0,1.93-.49V84a1,1,0,0,0-.28-.82,1.69,1.69,0,0,0-1.07-.24,1.43,1.43,0,0,0-.83.21A1.45,1.45,0,0,0,661.1,83.91Zm2.66,1.61a12.33,12.33,0,0,1-1.21.3,3.65,3.65,0,0,0-1.08.35.83.83,0,0,0-.39.7,1,1,0,0,0,.31.72,1.09,1.09,0,0,0,.79.3,1.73,1.73,0,0,0,1-.35,1.25,1.25,0,0,0,.47-.66,3.89,3.89,0,0,0,.08-1Z"/><path d="M667.53,81.62h1.83v1a3,3,0,0,1,2.34-1.2,2.52,2.52,0,0,1,1.25.3,2.28,2.28,0,0,1,.87.9,3.46,3.46,0,0,1,1.07-.9,2.62,2.62,0,0,1,1.22-.3,2.73,2.73,0,0,1,1.4.34,2.06,2.06,0,0,1,.86,1,4.29,4.29,0,0,1,.21,1.56v4.81h-2v-4.3a3.18,3.18,0,0,0-.21-1.44.94.94,0,0,0-.85-.42,1.35,1.35,0,0,0-.79.25,1.41,1.41,0,0,0-.53.75,5.38,5.38,0,0,0-.16,1.55v3.61h-2V85A5.69,5.69,0,0,0,672,83.6a.9.9,0,0,0-.33-.47A1,1,0,0,0,671,83a1.45,1.45,0,0,0-.83.25,1.36,1.36,0,0,0-.53.71,5.31,5.31,0,0,0-.16,1.55v3.65h-2Z"/><path d="M682.06,83.91l-1.8-.33a2.81,2.81,0,0,1,1-1.61,3.84,3.84,0,0,1,2.21-.52,4.76,4.76,0,0,1,2,.31,2,2,0,0,1,.92.8,4.09,4.09,0,0,1,.27,1.78l0,2.32a8.1,8.1,0,0,0,.09,1.46,4.3,4.3,0,0,0,.36,1h-2q-.08-.2-.19-.59l-.07-.23a3.57,3.57,0,0,1-1.09.74,3.12,3.12,0,0,1-1.24.25,2.56,2.56,0,0,1-1.83-.63,2.1,2.1,0,0,1-.67-1.59,2.14,2.14,0,0,1,.3-1.14,2,2,0,0,1,.85-.76,6.65,6.65,0,0,1,1.58-.46,10.87,10.87,0,0,0,1.93-.49V84a1,1,0,0,0-.28-.82,1.69,1.69,0,0,0-1.07-.24,1.43,1.43,0,0,0-.83.21A1.45,1.45,0,0,0,682.06,83.91Zm2.66,1.61a12.33,12.33,0,0,1-1.21.3,3.65,3.65,0,0,0-1.08.35.83.83,0,0,0-.39.7,1,1,0,0,0,.31.72,1.09,1.09,0,0,0,.79.3,1.73,1.73,0,0,0,1-.35,1.25,1.25,0,0,0,.47-.66,3.89,3.89,0,0,0,.08-1Z"/><path d="M692.52,81.62h1.83v1a3,3,0,0,1,2.34-1.2,2.52,2.52,0,0,1,1.25.3,2.28,2.28,0,0,1,.87.9,3.46,3.46,0,0,1,1.07-.9,2.62,2.62,0,0,1,1.22-.3,2.73,2.73,0,0,1,1.4.34,2.06,2.06,0,0,1,.86,1,4.29,4.29,0,0,1,.21,1.56v4.81h-2v-4.3a3.18,3.18,0,0,0-.21-1.44.94.94,0,0,0-.85-.42,1.35,1.35,0,0,0-.79.25,1.41,1.41,0,0,0-.53.75,5.38,5.38,0,0,0-.16,1.55v3.61h-2V85A5.69,5.69,0,0,0,697,83.6a.9.9,0,0,0-.33-.47A1,1,0,0,0,696,83a1.45,1.45,0,0,0-.83.25,1.36,1.36,0,0,0-.53.71,5.31,5.31,0,0,0-.16,1.55v3.65h-2Z"/><path d="M707,83.91l-1.8-.33a2.81,2.81,0,0,1,1-1.61,3.84,3.84,0,0,1,2.21-.52,4.76,4.76,0,0,1,2,.31,2,2,0,0,1,.92.8,4.09,4.09,0,0,1,.27,1.78l0,2.32a8.1,8.1,0,0,0,.09,1.46,4.3,4.3,0,0,0,.36,1h-2q-.08-.2-.19-.59l-.07-.23a3.57,3.57,0,0,1-1.09.74,3.12,3.12,0,0,1-1.24.25,2.56,2.56,0,0,1-1.83-.63,2.1,2.1,0,0,1-.67-1.59,2.14,2.14,0,0,1,.3-1.14,2,2,0,0,1,.85-.76,6.65,6.65,0,0,1,1.58-.46,10.87,10.87,0,0,0,1.93-.49V84a1,1,0,0,0-.28-.82,1.69,1.69,0,0,0-1.07-.24,1.43,1.43,0,0,0-.83.21A1.45,1.45,0,0,0,707,83.91Zm2.66,1.61a12.33,12.33,0,0,1-1.21.3,3.65,3.65,0,0,0-1.08.35.83.83,0,0,0-.39.7,1,1,0,0,0,.31.72,1.09,1.09,0,0,0,.79.3,1.73,1.73,0,0,0,1-.35,1.25,1.25,0,0,0,.47-.66,3.89,3.89,0,0,0,.08-1Z"/><path d="M712.92,87l2-.3a1.47,1.47,0,0,0,.52.88,1.75,1.75,0,0,0,1.09.3,2,2,0,0,0,1.16-.28.63.63,0,0,0,.26-.53.52.52,0,0,0-.14-.38,1.58,1.58,0,0,0-.67-.26,10.75,10.75,0,0,1-3.05-1,1.94,1.94,0,0,1-.89-1.69,2.08,2.08,0,0,1,.77-1.64,3.6,3.6,0,0,1,2.39-.67,4.17,4.17,0,0,1,2.29.5,2.57,2.57,0,0,1,1,1.49l-1.88.35a1.16,1.16,0,0,0-.46-.67,1.67,1.67,0,0,0-1-.23,2.16,2.16,0,0,0-1.13.22.47.47,0,0,0-.23.4.44.44,0,0,0,.2.36,7.49,7.49,0,0,0,1.86.56,5.53,5.53,0,0,1,2.22.89,1.84,1.84,0,0,1,.62,1.48,2.27,2.27,0,0,1-.86,1.78,3.83,3.83,0,0,1-2.56.74,4.19,4.19,0,0,1-2.43-.62A2.87,2.87,0,0,1,712.92,87Z"/><path d="M725.13,81.62V83.2h-1.36v3a7.63,7.63,0,0,0,0,1.07.44.44,0,0,0,.18.25.56.56,0,0,0,.34.1,2.57,2.57,0,0,0,.8-.19L725.3,89a4,4,0,0,1-1.57.3,2.49,2.49,0,0,1-1-.18,1.41,1.41,0,0,1-.63-.47,1.84,1.84,0,0,1-.28-.77,9.74,9.74,0,0,1-.06-1.4V83.2h-.91V81.62h.91V80.12l2-1.16v2.65Z"/><path d="M730.87,86.74l2,.33a3.25,3.25,0,0,1-1.21,1.66,3.55,3.55,0,0,1-2.06.57,3.37,3.37,0,0,1-2.9-1.28,4.31,4.31,0,0,1-.74-2.59,4.15,4.15,0,0,1,1-2.93,3.22,3.22,0,0,1,2.47-1.06A3.34,3.34,0,0,1,732,82.56,4.9,4.9,0,0,1,733,86h-5a2,2,0,0,0,.48,1.38,1.51,1.51,0,0,0,1.15.49,1.22,1.22,0,0,0,.79-.25A1.58,1.58,0,0,0,730.87,86.74Zm.11-2a1.91,1.91,0,0,0-.45-1.31,1.44,1.44,0,0,0-2.11,0,1.83,1.83,0,0,0-.42,1.29Z"/><path d="M736.48,89.14h-2V81.62h1.85v1.07a3.21,3.21,0,0,1,.85-1,1.57,1.57,0,0,1,.86-.24,2.52,2.52,0,0,1,1.31.38l-.62,1.73a1.74,1.74,0,0,0-.93-.33,1.1,1.1,0,0,0-.71.23,1.58,1.58,0,0,0-.46.83,11.87,11.87,0,0,0-.17,2.52Z"/><path d="M333.17,23.14V12.76h4.41A7.55,7.55,0,0,1,340,13a2.38,2.38,0,0,1,1.21,1,3,3,0,0,1,.45,1.64A2.77,2.77,0,0,1,341,17.6a3.3,3.3,0,0,1-2.05,1,4.9,4.9,0,0,1,1.12.87,11.83,11.83,0,0,1,1.19,1.69l1.27,2H340l-1.51-2.26a14.68,14.68,0,0,0-1.1-1.53,1.61,1.61,0,0,0-.63-.43,3.46,3.46,0,0,0-1.06-.12h-.42v4.33Zm2.1-6h1.55a8,8,0,0,0,1.88-.13,1.13,1.13,0,0,0,.59-.44,1.36,1.36,0,0,0,.21-.78,1.24,1.24,0,0,0-.28-.85,1.28,1.28,0,0,0-.79-.41q-.25,0-1.53,0h-1.63Z"/><path d="M345.1,17.91l-1.8-.33a2.81,2.81,0,0,1,1-1.61,3.84,3.84,0,0,1,2.21-.52,4.76,4.76,0,0,1,2,.31,2,2,0,0,1,.92.8,4.09,4.09,0,0,1,.27,1.78l0,2.32a8.1,8.1,0,0,0,.09,1.46,4.3,4.3,0,0,0,.36,1h-2q-.08-.2-.19-.59l-.07-.23a3.57,3.57,0,0,1-1.09.74,3.12,3.12,0,0,1-1.24.25,2.56,2.56,0,0,1-1.83-.63,2.1,2.1,0,0,1-.67-1.59,2.14,2.14,0,0,1,.3-1.14,2,2,0,0,1,.85-.76,6.65,6.65,0,0,1,1.58-.46,10.87,10.87,0,0,0,1.93-.49V18a1,1,0,0,0-.28-.82,1.69,1.69,0,0,0-1.07-.24,1.43,1.43,0,0,0-.83.21A1.45,1.45,0,0,0,345.1,17.91Zm2.66,1.61a12.33,12.33,0,0,1-1.21.3,3.65,3.65,0,0,0-1.08.35.83.83,0,0,0-.39.7,1,1,0,0,0,.31.72,1.09,1.09,0,0,0,.79.3,1.73,1.73,0,0,0,1-.35,1.25,1.25,0,0,0,.47-.66,3.89,3.89,0,0,0,.08-1Z"/><path d="M351.53,15.62h1.83v1a3,3,0,0,1,2.34-1.2,2.52,2.52,0,0,1,1.25.3,2.28,2.28,0,0,1,.87.9,3.46,3.46,0,0,1,1.07-.9,2.62,2.62,0,0,1,1.22-.3,2.73,2.73,0,0,1,1.4.34,2.06,2.06,0,0,1,.86,1,4.29,4.29,0,0,1,.21,1.56v4.81h-2v-4.3a3.18,3.18,0,0,0-.21-1.44.94.94,0,0,0-.85-.42,1.35,1.35,0,0,0-.79.25,1.41,1.41,0,0,0-.53.75,5.38,5.38,0,0,0-.16,1.55v3.61h-2V19A5.69,5.69,0,0,0,356,17.6a.9.9,0,0,0-.33-.47A1,1,0,0,0,355,17a1.45,1.45,0,0,0-.83.25,1.36,1.36,0,0,0-.53.71,5.31,5.31,0,0,0-.16,1.55v3.65h-2Z"/><path d="M366.06,17.91l-1.8-.33a2.81,2.81,0,0,1,1-1.61,3.84,3.84,0,0,1,2.21-.52,4.76,4.76,0,0,1,2,.31,2,2,0,0,1,.92.8,4.09,4.09,0,0,1,.27,1.78l0,2.32a8.1,8.1,0,0,0,.09,1.46,4.3,4.3,0,0,0,.36,1h-2q-.08-.2-.19-.59l-.07-.23a3.57,3.57,0,0,1-1.09.74,3.12,3.12,0,0,1-1.24.25,2.56,2.56,0,0,1-1.83-.63,2.1,2.1,0,0,1-.67-1.59,2.14,2.14,0,0,1,.3-1.14,2,2,0,0,1,.85-.76,6.65,6.65,0,0,1,1.58-.46,10.87,10.87,0,0,0,1.93-.49V18a1,1,0,0,0-.28-.82,1.69,1.69,0,0,0-1.07-.24,1.43,1.43,0,0,0-.83.21A1.45,1.45,0,0,0,366.06,17.91Zm2.66,1.61a12.33,12.33,0,0,1-1.21.3,3.65,3.65,0,0,0-1.08.35.83.83,0,0,0-.39.7,1,1,0,0,0,.31.72,1.09,1.09,0,0,0,.79.3,1.73,1.73,0,0,0,1-.35,1.25,1.25,0,0,0,.47-.66,3.89,3.89,0,0,0,.08-1Z"/><path d="M378.15,17.91l-1.8-.33a2.81,2.81,0,0,1,1-1.61,3.84,3.84,0,0,1,2.21-.52,4.76,4.76,0,0,1,2,.31,2,2,0,0,1,.92.8,4.09,4.09,0,0,1,.27,1.78l0,2.32a8.1,8.1,0,0,0,.09,1.46,4.3,4.3,0,0,0,.36,1h-2q-.08-.2-.19-.59l-.07-.23a3.57,3.57,0,0,1-1.09.74,3.12,3.12,0,0,1-1.24.25,2.56,2.56,0,0,1-1.83-.63,2.1,2.1,0,0,1-.67-1.59,2.14,2.14,0,0,1,.3-1.14,2,2,0,0,1,.85-.76,6.65,6.65,0,0,1,1.58-.46,10.87,10.87,0,0,0,1.93-.49V18a1,1,0,0,0-.28-.82,1.69,1.69,0,0,0-1.07-.24,1.43,1.43,0,0,0-.83.21A1.45,1.45,0,0,0,378.15,17.91Zm2.66,1.61a12.33,12.33,0,0,1-1.21.3,3.65,3.65,0,0,0-1.08.35.83.83,0,0,0-.39.7,1,1,0,0,0,.31.72,1.09,1.09,0,0,0,.79.3,1.73,1.73,0,0,0,1-.35,1.25,1.25,0,0,0,.47-.66,3.89,3.89,0,0,0,.08-1Z"/><path d="M391.57,23.14h-2V19.3a6,6,0,0,0-.13-1.58,1.11,1.11,0,0,0-.42-.56,1.18,1.18,0,0,0-.69-.2,1.6,1.6,0,0,0-.93.28,1.43,1.43,0,0,0-.56.75,6.48,6.48,0,0,0-.15,1.73v3.41h-2V15.62h1.85v1.1a3.08,3.08,0,0,1,3.68-1,2,2,0,0,1,.82.6,2.2,2.2,0,0,1,.39.84,6.21,6.21,0,0,1,.11,1.34Z"/><path d="M397,15.62V17.2h-1.36v3a7.63,7.63,0,0,0,0,1.07.44.44,0,0,0,.18.25.56.56,0,0,0,.34.1,2.57,2.57,0,0,0,.8-.19L397.2,23a4,4,0,0,1-1.57.3,2.49,2.49,0,0,1-1-.18,1.41,1.41,0,0,1-.63-.47,1.84,1.84,0,0,1-.28-.77,9.74,9.74,0,0,1-.06-1.4V17.2h-.91V15.62h.91V14.12l2-1.16v2.65Z"/><path d="M398.42,14.6V12.76h2V14.6Zm0,8.54V15.62h2v7.52Z"/><path d="M402.26,23.63l2.27.28a.78.78,0,0,0,.26.55,1.49,1.49,0,0,0,.89.21,2.32,2.32,0,0,0,1.17-.23,1,1,0,0,0,.4-.5,3,3,0,0,0,.09-.91v-1.1a2.69,2.69,0,0,1-2.25,1.22,2.77,2.77,0,0,1-2.4-1.28,4.36,4.36,0,0,1-.69-2.52,4.14,4.14,0,0,1,.91-2.89,2.93,2.93,0,0,1,2.26-1,2.75,2.75,0,0,1,2.3,1.23V15.62h1.86v6.75a6.71,6.71,0,0,1-.22,2,2.46,2.46,0,0,1-.62,1,2.72,2.72,0,0,1-1.06.59,5.57,5.57,0,0,1-1.67.21,4.33,4.33,0,0,1-2.71-.66,2.05,2.05,0,0,1-.8-1.66C402.25,23.81,402.25,23.73,402.26,23.63ZM404,19.22A2.71,2.71,0,0,0,404.5,21a1.43,1.43,0,0,0,1.14.56,1.58,1.58,0,0,0,1.23-.57,2.48,2.48,0,0,0,.5-1.69,2.63,2.63,0,0,0-.48-1.73,1.53,1.53,0,0,0-1.22-.57,1.47,1.47,0,0,0-1.18.56A2.6,2.6,0,0,0,404,19.22Z"/><path d="M416.25,23.14V22a2.9,2.9,0,0,1-1.08.95,3,3,0,0,1-1.41.35A2.75,2.75,0,0,1,412.4,23a2,2,0,0,1-.87-.93,4.16,4.16,0,0,1-.27-1.66V15.62h2v3.46a9.59,9.59,0,0,0,.11,1.94,1.06,1.06,0,0,0,.4.57,1.23,1.23,0,0,0,.74.21,1.57,1.57,0,0,0,.91-.28,1.42,1.42,0,0,0,.55-.69,8,8,0,0,0,.15-2V15.62h2v7.52Z"/><path d="M421.64,17.91l-1.8-.33a2.81,2.81,0,0,1,1-1.61,3.84,3.84,0,0,1,2.21-.52,4.76,4.76,0,0,1,2,.31,2,2,0,0,1,.92.8,4.09,4.09,0,0,1,.27,1.78l0,2.32a8.1,8.1,0,0,0,.09,1.46,4.3,4.3,0,0,0,.36,1h-2q-.08-.2-.19-.59l-.07-.23a3.57,3.57,0,0,1-1.09.74,3.12,3.12,0,0,1-1.24.25,2.56,2.56,0,0,1-1.83-.63,2.1,2.1,0,0,1-.67-1.59,2.14,2.14,0,0,1,.3-1.14,2,2,0,0,1,.85-.76,6.65,6.65,0,0,1,1.58-.46,10.87,10.87,0,0,0,1.93-.49V18a1,1,0,0,0-.28-.82A1.69,1.69,0,0,0,423,17a1.43,1.43,0,0,0-.83.21A1.45,1.45,0,0,0,421.64,17.91Zm2.66,1.61a12.33,12.33,0,0,1-1.21.3,3.65,3.65,0,0,0-1.08.35.83.83,0,0,0-.39.7,1,1,0,0,0,.31.72,1.09,1.09,0,0,0,.79.3,1.73,1.73,0,0,0,1-.35,1.25,1.25,0,0,0,.47-.66,3.89,3.89,0,0,0,.08-1Z"/><path d="M560,160.14V149.76h4.41a7.55,7.55,0,0,1,2.42.28,2.38,2.38,0,0,1,1.21,1,3,3,0,0,1,.45,1.64,2.77,2.77,0,0,1-.69,1.93,3.3,3.3,0,0,1-2.05,1,4.9,4.9,0,0,1,1.12.87,11.83,11.83,0,0,1,1.19,1.69l1.27,2h-2.51l-1.51-2.26a14.68,14.68,0,0,0-1.1-1.53,1.61,1.61,0,0,0-.63-.43,3.46,3.46,0,0,0-1.06-.12h-.42v4.33Zm2.1-6h1.55a8,8,0,0,0,1.88-.13,1.13,1.13,0,0,0,.59-.44,1.36,1.36,0,0,0,.21-.78A1.24,1.24,0,0,0,566,152a1.28,1.28,0,0,0-.79-.41q-.25,0-1.53,0h-1.63Z"/><path d="M571.89,154.91l-1.8-.33a2.81,2.81,0,0,1,1-1.61,3.84,3.84,0,0,1,2.21-.52,4.76,4.76,0,0,1,2,.31,2,2,0,0,1,.92.8,4.09,4.09,0,0,1,.27,1.78l0,2.32a8.1,8.1,0,0,0,.09,1.46,4.3,4.3,0,0,0,.36,1h-2q-.08-.2-.19-.59l-.07-.23a3.57,3.57,0,0,1-1.09.74,3.12,3.12,0,0,1-1.24.25,2.56,2.56,0,0,1-1.83-.63,2.1,2.1,0,0,1-.67-1.59,2.14,2.14,0,0,1,.3-1.14,2,2,0,0,1,.85-.76,6.65,6.65,0,0,1,1.58-.46,10.87,10.87,0,0,0,1.93-.49V155a1,1,0,0,0-.28-.82,1.69,1.69,0,0,0-1.07-.24,1.43,1.43,0,0,0-.83.21A1.45,1.45,0,0,0,571.89,154.91Zm2.66,1.61a12.33,12.33,0,0,1-1.21.3,3.65,3.65,0,0,0-1.08.35.83.83,0,0,0-.39.7,1,1,0,0,0,.31.72,1.09,1.09,0,0,0,.79.3,1.73,1.73,0,0,0,1-.35,1.25,1.25,0,0,0,.47-.66,3.89,3.89,0,0,0,.08-1Z"/><path d="M578.32,152.62h1.83v1a3,3,0,0,1,2.34-1.2,2.52,2.52,0,0,1,1.25.3,2.28,2.28,0,0,1,.87.9,3.46,3.46,0,0,1,1.07-.9,2.62,2.62,0,0,1,1.22-.3,2.73,2.73,0,0,1,1.4.34,2.06,2.06,0,0,1,.86,1,4.29,4.29,0,0,1,.21,1.56v4.81h-2v-4.3a3.18,3.18,0,0,0-.21-1.44.94.94,0,0,0-.85-.42,1.35,1.35,0,0,0-.79.25,1.41,1.41,0,0,0-.53.75,5.38,5.38,0,0,0-.16,1.55v3.61h-2V156a5.69,5.69,0,0,0-.11-1.42.9.9,0,0,0-.33-.47,1,1,0,0,0-.61-.16,1.45,1.45,0,0,0-.83.25,1.36,1.36,0,0,0-.53.71,5.31,5.31,0,0,0-.16,1.55v3.65h-2Z"/><path d="M592.85,154.91l-1.8-.33a2.81,2.81,0,0,1,1-1.61,3.84,3.84,0,0,1,2.21-.52,4.76,4.76,0,0,1,2,.31,2,2,0,0,1,.92.8,4.09,4.09,0,0,1,.27,1.78l0,2.32a8.1,8.1,0,0,0,.09,1.46,4.3,4.3,0,0,0,.36,1h-2q-.08-.2-.19-.59l-.07-.23a3.57,3.57,0,0,1-1.09.74,3.12,3.12,0,0,1-1.24.25,2.56,2.56,0,0,1-1.83-.63,2.1,2.1,0,0,1-.67-1.59,2.14,2.14,0,0,1,.3-1.14,2,2,0,0,1,.85-.76,6.65,6.65,0,0,1,1.58-.46,10.87,10.87,0,0,0,1.93-.49V155a1,1,0,0,0-.28-.82,1.69,1.69,0,0,0-1.07-.24,1.43,1.43,0,0,0-.83.21A1.45,1.45,0,0,0,592.85,154.91Zm2.66,1.61a12.33,12.33,0,0,1-1.21.3,3.65,3.65,0,0,0-1.08.35.83.83,0,0,0-.39.7,1,1,0,0,0,.31.72,1.09,1.09,0,0,0,.79.3,1.73,1.73,0,0,0,1-.35,1.25,1.25,0,0,0,.47-.66,3.89,3.89,0,0,0,.08-1Z"/><path d="M607.81,157.74l2,.33a3.25,3.25,0,0,1-1.21,1.66,3.55,3.55,0,0,1-2.06.57,3.37,3.37,0,0,1-2.9-1.28,4.31,4.31,0,0,1-.74-2.59,4.15,4.15,0,0,1,1-2.93,3.22,3.22,0,0,1,2.47-1.06,3.34,3.34,0,0,1,2.65,1.11,4.9,4.9,0,0,1,.93,3.4h-5a2,2,0,0,0,.48,1.38,1.51,1.51,0,0,0,1.15.49,1.22,1.22,0,0,0,.79-.25A1.58,1.58,0,0,0,607.81,157.74Zm.11-2a1.91,1.91,0,0,0-.45-1.31,1.44,1.44,0,0,0-2.11,0,1.83,1.83,0,0,0-.42,1.29Z"/><path d="M610.82,158l2-.3a1.47,1.47,0,0,0,.52.88,1.75,1.75,0,0,0,1.09.3,2,2,0,0,0,1.16-.28.63.63,0,0,0,.26-.53.52.52,0,0,0-.14-.38,1.58,1.58,0,0,0-.67-.26,10.75,10.75,0,0,1-3.05-1,1.94,1.94,0,0,1-.89-1.69,2.08,2.08,0,0,1,.77-1.64,3.6,3.6,0,0,1,2.39-.67,4.17,4.17,0,0,1,2.29.5,2.57,2.57,0,0,1,1,1.49l-1.88.35a1.16,1.16,0,0,0-.46-.67,1.67,1.67,0,0,0-1-.23,2.16,2.16,0,0,0-1.13.22.47.47,0,0,0-.23.4.44.44,0,0,0,.2.36,7.49,7.49,0,0,0,1.86.56,5.53,5.53,0,0,1,2.22.89,1.84,1.84,0,0,1,.62,1.48,2.27,2.27,0,0,1-.86,1.78,3.83,3.83,0,0,1-2.56.74,4.19,4.19,0,0,1-2.43-.62A2.87,2.87,0,0,1,610.82,158Z"/><path d="M623,152.62v1.59h-1.36v3a7.63,7.63,0,0,0,0,1.07.44.44,0,0,0,.18.25.56.56,0,0,0,.34.1,2.57,2.57,0,0,0,.8-.19l.17,1.54a4,4,0,0,1-1.57.3,2.49,2.49,0,0,1-1-.18,1.41,1.41,0,0,1-.63-.47,1.84,1.84,0,0,1-.28-.77,9.74,9.74,0,0,1-.06-1.4V154.2h-.91v-1.59h.91v-1.49l2-1.16v2.65Z"/><path d="M625.9,154.91l-1.8-.33a2.81,2.81,0,0,1,1-1.61,3.84,3.84,0,0,1,2.21-.52,4.76,4.76,0,0,1,2,.31,2,2,0,0,1,.92.8,4.09,4.09,0,0,1,.27,1.78l0,2.32a8.1,8.1,0,0,0,.09,1.46,4.3,4.3,0,0,0,.36,1h-2q-.08-.2-.19-.59l-.07-.23a3.57,3.57,0,0,1-1.09.74,3.12,3.12,0,0,1-1.24.25,2.56,2.56,0,0,1-1.83-.63,2.1,2.1,0,0,1-.67-1.59,2.14,2.14,0,0,1,.3-1.14,2,2,0,0,1,.85-.76,6.65,6.65,0,0,1,1.58-.46,10.87,10.87,0,0,0,1.93-.49V155a1,1,0,0,0-.28-.82,1.69,1.69,0,0,0-1.07-.24,1.43,1.43,0,0,0-.83.21A1.45,1.45,0,0,0,625.9,154.91Zm2.66,1.61a12.33,12.33,0,0,1-1.21.3,3.65,3.65,0,0,0-1.08.35.83.83,0,0,0-.39.7,1,1,0,0,0,.31.72,1.09,1.09,0,0,0,.79.3,1.73,1.73,0,0,0,1-.35,1.25,1.25,0,0,0,.47-.66,3.89,3.89,0,0,0,.08-1Z"/><path d="M632.39,160.14V149.76h2v3.74a2.81,2.81,0,0,1,2.18-1,2.93,2.93,0,0,1,2.27,1,4.12,4.12,0,0,1,.9,2.86,4.35,4.35,0,0,1-.92,3,2.86,2.86,0,0,1-2.23,1,2.75,2.75,0,0,1-1.27-.32,3,3,0,0,1-1.08-1v1.1Zm2-3.92a3.2,3.2,0,0,0,.37,1.73,1.57,1.57,0,0,0,1.37.79,1.41,1.41,0,0,0,1.12-.56,2.77,2.77,0,0,0,.46-1.77,2.93,2.93,0,0,0-.47-1.86A1.48,1.48,0,0,0,636,154a1.5,1.5,0,0,0-1.19.56A2.55,2.55,0,0,0,634.37,156.21Z"/><path d="M641.34,160.14V149.76h2v10.38Z"/><path d="M649.72,157.74l2,.33a3.25,3.25,0,0,1-1.21,1.66,3.55,3.55,0,0,1-2.06.57,3.37,3.37,0,0,1-2.9-1.28,4.31,4.31,0,0,1-.74-2.59,4.15,4.15,0,0,1,1-2.93,3.22,3.22,0,0,1,2.47-1.06,3.34,3.34,0,0,1,2.65,1.11,4.9,4.9,0,0,1,.93,3.4h-5a2,2,0,0,0,.48,1.38,1.51,1.51,0,0,0,1.15.49,1.22,1.22,0,0,0,.79-.25A1.58,1.58,0,0,0,649.72,157.74Zm.11-2a1.91,1.91,0,0,0-.45-1.31,1.44,1.44,0,0,0-2.11,0,1.83,1.83,0,0,0-.42,1.29Z"/><path class="cls-6" d="M22.15,94.2H19.26V83.34a9.93,9.93,0,0,1-3.72,2.18V82.91A8.31,8.31,0,0,0,18,81.51a5.31,5.31,0,0,0,1.82-2.4h2.34Z"/><path class="cls-6" d="M120.51,91.53V94.2h-10.1a6.93,6.93,0,0,1,1-2.88,19.07,19.07,0,0,1,3.24-3.6A20.44,20.44,0,0,0,117,85.26a3.17,3.17,0,0,0,.59-1.76A2,2,0,0,0,117.1,82a2.2,2.2,0,0,0-2.87,0,2.79,2.79,0,0,0-.62,1.8l-2.87-.29a4.71,4.71,0,0,1,1.61-3.41,5.41,5.41,0,0,1,3.38-1,4.89,4.89,0,0,1,3.5,1.2,3.94,3.94,0,0,1,1.27,3,5.18,5.18,0,0,1-.36,1.93A7.84,7.84,0,0,1,119,87.15a18.46,18.46,0,0,1-1.89,1.92q-1.36,1.25-1.73,1.66a5,5,0,0,0-.59.8Z"/><path class="cls-6" d="M228.42,94.2v-3h-6.15V88.66l6.52-9.55h2.42v9.54h1.87v2.53h-1.87v3Zm0-5.56V83.51L225,88.65Z"/><path class="cls-6" d="M179.67,23.21l2.79-.34a2.64,2.64,0,0,0,.72,1.63,2,2,0,0,0,2.92-.11,2.63,2.63,0,0,0,.61-1.83,2.45,2.45,0,0,0-.58-1.72,1.86,1.86,0,0,0-1.42-.64,5,5,0,0,0-1.32.22l.32-2.35a2.53,2.53,0,0,0,1.79-.51,1.81,1.81,0,0,0,.62-1.43,1.55,1.55,0,0,0-1.65-1.66,1.73,1.73,0,0,0-1.26.51,2.4,2.4,0,0,0-.64,1.5L179.89,16a5.93,5.93,0,0,1,.84-2.18,3.77,3.77,0,0,1,1.56-1.28,5.23,5.23,0,0,1,2.24-.47,4.47,4.47,0,0,1,3.4,1.35,3.43,3.43,0,0,1-1.11,5.66,3.5,3.5,0,0,1,2.07,1.24,3.6,3.6,0,0,1,.77,2.33,4.52,4.52,0,0,1-1.45,3.37,5.4,5.4,0,0,1-7,.22A4.62,4.62,0,0,1,179.67,23.21Z"/><path class="cls-6" d="M288.82,23.34l2.87-.3a2.46,2.46,0,0,0,.73,1.54,2,2,0,0,0,1.39.57,1.94,1.94,0,0,0,1.53-.73,3.34,3.34,0,0,0,.63-2.21,3,3,0,0,0-.62-2.08,2.07,2.07,0,0,0-1.62-.69,2.94,2.94,0,0,0-2.23,1.1l-2.34-.34,1.48-7.82h7.62v2.7h-5.43l-.45,2.55a4.41,4.41,0,0,1,5.22.91,5,5,0,0,1,1.33,3.62,5.43,5.43,0,0,1-1.08,3.31,4.77,4.77,0,0,1-4.07,2,5.05,5.05,0,0,1-3.39-1.12A4.6,4.6,0,0,1,288.82,23.34Z"/><path class="cls-6" d="M406.77,152.05v-2.68h9.85v2.09a15.5,15.5,0,0,0-2.48,3.45,20.11,20.11,0,0,0-1.92,4.77,17.67,17.67,0,0,0-.65,4.52h-2.78a19.3,19.3,0,0,1,1.29-6.36,21.17,21.17,0,0,1,3.25-5.79Z"/><path class="cls-6" d="M516.84,160.73l2.79-.31a2,2,0,0,0,.53,1.26,1.58,1.58,0,0,0,1.14.41,1.86,1.86,0,0,0,1.52-.82,7,7,0,0,0,.8-3.4,3.44,3.44,0,0,1-2.72,1.26,4.06,4.06,0,0,1-3.06-1.37,5,5,0,0,1-1.29-3.56,5.07,5.07,0,0,1,1.36-3.69,4.92,4.92,0,0,1,7.21.37q1.47,1.77,1.47,5.82t-1.53,5.95a5,5,0,0,1-4,1.83,4.21,4.21,0,0,1-2.85-.94A4.53,4.53,0,0,1,516.84,160.73Zm6.52-6.3a3.28,3.28,0,0,0-.64-2.16,1.89,1.89,0,0,0-1.48-.77,1.66,1.66,0,0,0-1.33.63,3.22,3.22,0,0,0-.53,2.07,3.28,3.28,0,0,0,.57,2.14,1.84,1.84,0,0,0,2.84,0A2.87,2.87,0,0,0,523.36,154.43Z"/><path class="cls-6" d="M355.54,82.85l-2.79.31a2,2,0,0,0-.53-1.27,1.56,1.56,0,0,0-1.12-.41,1.89,1.89,0,0,0-1.54.82,6.9,6.9,0,0,0-.79,3.41,3.37,3.37,0,0,1,2.68-1.27,4.09,4.09,0,0,1,3.09,1.37,5,5,0,0,1,1.29,3.55,5.09,5.09,0,0,1-1.35,3.7,4.93,4.93,0,0,1-7.22-.37q-1.47-1.77-1.47-5.8t1.53-6a4.93,4.93,0,0,1,4-1.83,4.21,4.21,0,0,1,2.83,1A4.49,4.49,0,0,1,355.54,82.85ZM349,89.14a3.27,3.27,0,0,0,.65,2.17,1.9,1.9,0,0,0,1.48.76,1.68,1.68,0,0,0,1.33-.63,3.16,3.16,0,0,0,.53-2.05,3.31,3.31,0,0,0-.57-2.15,1.85,1.85,0,0,0-2.84,0A2.83,2.83,0,0,0,349,89.14Z"/><path class="cls-6" d="M461.25,86.09A3.23,3.23,0,0,1,459.11,83a3.64,3.64,0,0,1,1.17-2.78,5.61,5.61,0,0,1,6.67,0A3.62,3.62,0,0,1,468.14,83a3.29,3.29,0,0,1-.54,1.86,3.45,3.45,0,0,1-1.53,1.25,4,4,0,0,1,1.9,1.47,3.88,3.88,0,0,1,.65,2.23,4.53,4.53,0,0,1-1.33,3.38,4.83,4.83,0,0,1-3.53,1.3,5.34,5.34,0,0,1-3.41-1.08,4.2,4.2,0,0,1-1.61-3.49,4.31,4.31,0,0,1,.6-2.24A3.9,3.9,0,0,1,461.25,86.09Zm.33,3.54a2.64,2.64,0,0,0,.61,1.86,2,2,0,0,0,1.52.67,1.91,1.91,0,0,0,1.48-.64,2.65,2.65,0,0,0,.58-1.85,2.4,2.4,0,0,0-.59-1.7,2,2,0,0,0-1.51-.64,1.8,1.8,0,0,0-1.57.73A2.67,2.67,0,0,0,461.57,89.63Zm.27-6.44a1.8,1.8,0,0,0,.49,1.34,1.76,1.76,0,0,0,1.3.48,1.78,1.78,0,0,0,1.31-.49,1.81,1.81,0,0,0,.49-1.35,1.67,1.67,0,0,0-1.77-1.78,1.79,1.79,0,0,0-1.32.49A1.76,1.76,0,0,0,461.84,83.19Z"/><path class="cls-6" d="M608.31,94.2h-2.88V83.34a9.93,9.93,0,0,1-3.72,2.18V82.91a8.31,8.31,0,0,0,2.45-1.4,5.31,5.31,0,0,0,1.82-2.4h2.34Z"/><path class="cls-6" d="M617.48,79.11a4.11,4.11,0,0,1,3.42,1.56q1.46,1.85,1.47,6.12t-1.48,6.13a4.1,4.1,0,0,1-3.4,1.54,4.3,4.3,0,0,1-3.54-1.69q-1.34-1.69-1.34-6t1.48-6.11A4.1,4.1,0,0,1,617.48,79.11Zm0,2.39a1.44,1.44,0,0,0-.93.33,2.23,2.23,0,0,0-.64,1.19,16.48,16.48,0,0,0-.3,3.76,16.36,16.36,0,0,0,.27,3.64,2.55,2.55,0,0,0,.67,1.32,1.47,1.47,0,0,0,1.86,0,2.24,2.24,0,0,0,.64-1.19,16.4,16.4,0,0,0,.3-3.75,16.36,16.36,0,0,0-.27-3.64,2.59,2.59,0,0,0-.67-1.32A1.42,1.42,0,0,0,617.48,81.5Z"/></g></g></svg>