<svg xmlns="http://www.w3.org/2000/svg" viewBox="0 0 421.23 288.08"><defs><style>.cls-1{fill:#aaa;}.cls-1,.cls-2,.cls-4,.cls-5,.cls-6{stroke:#3f3f3e;}.cls-1,.cls-5{stroke-linecap:round;stroke-linejoin:round;}.cls-1,.cls-2,.cls-4,.cls-5,.cls-6,.cls-7{stroke-width:2.77px;}.cls-2,.cls-3{fill:#fff;}.cls-2,.cls-4,.cls-6,.cls-7{stroke-miterlimit:10;}.cls-4,.cls-6,.cls-7{fill:none;}.cls-5{fill:#777;}.cls-6{stroke-dasharray:2.77;}.cls-7{stroke:#f05032;}.cls-8{fill:#424142;}.cls-9{fill:#f05032;}</style></defs><title>g6</title><g id="Capa_2" data-name="Capa 2"><g id="CONTENIDO"><g id="_Grupo_" data-name="&lt;Grupo&gt;"><path id="_Trazado_compuesto_" data-name="&lt;Trazado compuesto&gt;" class="cls-1" d="M164.58,149.42a3.63,3.63,0,0,0,3.62-3.63v-9.9a3.64,3.64,0,0,0-3.62-3.64h-8.64a5.16,5.16,0,0,1-4.65-3.48l-5-12.07a5.13,5.13,0,0,1,.82-5.75l6.09-6.09a3.63,3.63,0,0,0,0-5.13l-7-7a3.63,3.63,0,0,0-5.12,0L135,98.8a5.13,5.13,0,0,1-5.75.82l-12.07-5A5.2,5.2,0,0,1,113.69,90V81.36a3.63,3.63,0,0,0-3.63-3.63h-9.9a3.64,3.64,0,0,0-3.64,3.63V90a5.18,5.18,0,0,1-3.46,4.67L81,99.62a5.12,5.12,0,0,1-5.75-.82l-6.09-6.09a3.64,3.64,0,0,0-5.14,0l-7,7a3.63,3.63,0,0,0,0,5.13l6.09,6.09a5.15,5.15,0,0,1,.83,5.75l-5,12.07a5.21,5.21,0,0,1-4.67,3.48H45.64A3.66,3.66,0,0,0,42,135.89v9.9a3.65,3.65,0,0,0,3.64,3.63h8.63a5.19,5.19,0,0,1,4.67,3.48l5,12.07a5.14,5.14,0,0,1-.82,5.74l-6.1,6.1a3.64,3.64,0,0,0,0,5.14l7,7a3.66,3.66,0,0,0,5.15,0l6.09-6.1A5.15,5.15,0,0,1,81,182l12.08,5a5.15,5.15,0,0,1,3.46,4.66v8.64a3.65,3.65,0,0,0,3.64,3.64h9.9a3.64,3.64,0,0,0,3.63-3.64v-8.64a5.17,5.17,0,0,1,3.49-4.66l12.07-5a5.16,5.16,0,0,1,5.75.82l6.09,6.1a3.62,3.62,0,0,0,5.12,0l7-7a3.64,3.64,0,0,0,0-5.14l-6.09-6.1a5.11,5.11,0,0,1-.82-5.74l5-12.07a5.15,5.15,0,0,1,4.65-3.48Zm-59.47,20.38a29,29,0,1,1,29-29A29,29,0,0,1,105.11,169.79Z"/><path id="_Trazado_compuesto_2" data-name="&lt;Trazado compuesto&gt;" class="cls-2" d="M302.44,270.61V154.71c0-3.59-4-7.32-7.62-7.32H120.7c-3.59,0-7.93,3.73-7.93,7.32v115.9ZM123.84,159.85H291.36V262.31H123.84Z"/><g id="_Grupo_2" data-name="&lt;Grupo&gt;"><path class="cls-3" d="M311.11,272.69H91.92c-3.29,0-4.25,2.59-2.13,5.76l1.51,2.27a14.5,14.5,0,0,0,10.76,5.76H313.5a14.5,14.5,0,0,0,10.76-5.76l1.51-2.27c2.11-3.17.72-5.76-3.08-5.76Z"/><path class="cls-4" d="M311.11,272.69H91.92c-3.29,0-4.25,2.59-2.13,5.76l1.51,2.27a14.5,14.5,0,0,0,10.76,5.76H313.5a14.5,14.5,0,0,0,10.76-5.76l1.51-2.27c2.11-3.17.72-5.76-3.08-5.76Z"/></g><path id="_Trazado_" data-name="&lt;Trazado&gt;" class="cls-1" d="M51.93,7.61H8.69a7.31,7.31,0,0,0-7.31,7.31V42.85a7.31,7.31,0,0,0,7.31,7.31h3V60.92s1.06,3.45,3.72-.53c1.55-2.32,4.49-6.85,6.68-10.23H51.93a7.31,7.31,0,0,0,7.31-7.31V14.91A7.31,7.31,0,0,0,51.93,7.61Z"/><path id="_Trazado_2" data-name="&lt;Trazado&gt;" class="cls-2" d="M80.85,22.81H37.61a7.31,7.31,0,0,0-7.31,7.31V58.05a7.31,7.31,0,0,0,7.31,7.31H67.42c2.19,3.38,5.13,7.91,6.68,10.23,2.66,4,3.72.54,3.72.54V65.36h3a7.31,7.31,0,0,0,7.31-7.31V30.11A7.31,7.31,0,0,0,80.85,22.81Z"/><path id="_Trazado_3" data-name="&lt;Trazado&gt;" class="cls-2" d="M401.9,7H351.61a8.5,8.5,0,0,0-8.5,8.5V48a8.5,8.5,0,0,0,8.5,8.5h34.67c2.55,3.93,6,9.2,7.77,11.9,3.09,4.64,4.33.62,4.33.62V56.46h3.51a8.5,8.5,0,0,0,8.5-8.5V15.47A8.5,8.5,0,0,0,401.9,7Z"/><circle id="_Trazado_4" data-name="&lt;Trazado&gt;" class="cls-2" cx="44.33" cy="44.08" r="4.59"/><circle id="_Trazado_5" data-name="&lt;Trazado&gt;" class="cls-2" cx="59.23" cy="44.08" r="4.59"/><circle id="_Trazado_6" data-name="&lt;Trazado&gt;" class="cls-2" cx="74.13" cy="44.08" r="4.58"/><g id="_Grupo_3" data-name="&lt;Grupo&gt;"><path id="_Trazado_7" data-name="&lt;Trazado&gt;" class="cls-2" d="M211.64,66.84a27.64,27.64,0,0,0-17.72,48.86l4.4-9.18A18.53,18.53,0,0,1,210.2,74.92l-7.68,16L219,98.83l7.68-16a18.53,18.53,0,0,1-17.17,29.06L205,121.29a27.64,27.64,0,1,0,6.68-54.45Z"/><path id="_Trazado_8" data-name="&lt;Trazado&gt;" class="cls-5" d="M228.18,101.44a18.54,18.54,0,0,0-1.54-18.64l-7.68,16L202.52,91l7.68-16a18.53,18.53,0,0,0-11.88,31.59l-4.4,9.18a27.54,27.54,0,0,0,11,5.59l4.52-9.43A18.54,18.54,0,0,0,228.18,101.44Z"/></g><path id="_Trazado_9" data-name="&lt;Trazado&gt;" class="cls-6" d="M185.35,85.89h-9.94c-9.56,0-8.83,8.83-8.83,8.83v7.38l0,1.4v7.38s.72,8.83-8.83,8.83H148"/><path id="_Trazado_10" data-name="&lt;Trazado&gt;" class="cls-6" d="M232.83,111.58v9.94c0,9.55,8.83,8.83,8.83,8.83H249l1.4,0h7.38s8.83-.72,8.83,8.83v9.7"/><path id="_Trazado_11" data-name="&lt;Trazado&gt;" class="cls-6" d="M113.73,224.17H91.56c-9.56,0-8.83,8.83-8.83,8.83v7.38l0,1.4v7.38s.72,8.83-8.83,8.83H51.7"/><path id="_Trazado_12" data-name="&lt;Trazado&gt;" class="cls-6" d="M372.09,58V83.59c0,9.55,8.83,8.83,8.83,8.83h7.38l4.73.1h7.38s8.83-.72,8.83,8.83v20.05s.72,8.83-8.83,8.83H358.76"/><path id="_Trazado_13" data-name="&lt;Trazado&gt;" class="cls-6" d="M39.23,66.29V91.9c0,9.55-8.83,8.83-8.83,8.83H23l-4.73.1H10.89s-8.83-.72-8.83,8.83v47.75s-.72,8.83,8.83,8.83H62.77"/><g id="_Grupo_4" data-name="&lt;Grupo&gt;"><circle id="_Trazado_14" data-name="&lt;Trazado&gt;" class="cls-7" cx="138.41" cy="71.44" r="3.34"/><circle id="_Trazado_15" data-name="&lt;Trazado&gt;" class="cls-7" cx="163.34" cy="71.44" r="3.34"/><circle id="_Trazado_16" data-name="&lt;Trazado&gt;" class="cls-7" cx="290.22" cy="8.06" r="3.34"/><circle id="_Trazado_17" data-name="&lt;Trazado&gt;" class="cls-7" cx="315.16" cy="8.06" r="3.34"/><circle id="_Trazado_18" data-name="&lt;Trazado&gt;" class="cls-7" cx="36.25" cy="283.35" r="3.34"/><circle id="_Trazado_19" data-name="&lt;Trazado&gt;" class="cls-7" cx="61.18" cy="283.35" r="3.34"/><circle id="_Trazado_20" data-name="&lt;Trazado&gt;" class="cls-7" cx="4.73" cy="196.45" r="3.34"/><circle id="_Trazado_21" data-name="&lt;Trazado&gt;" class="cls-7" cx="29.66" cy="196.45" r="3.34"/><circle id="_Trazado_22" data-name="&lt;Trazado&gt;" class="cls-7" cx="416.5" cy="147.59" r="3.34"/><circle id="_Trazado_23" data-name="&lt;Trazado&gt;" class="cls-7" cx="416.5" cy="172.52" r="3.34"/><circle id="_Trazado_24" data-name="&lt;Trazado&gt;" class="cls-7" cx="98.63" cy="4.73" r="3.34"/><circle id="_Trazado_25" data-name="&lt;Trazado&gt;" class="cls-7" cx="329.61" cy="223.72" r="3.34"/><circle id="_Trazado_26" data-name="&lt;Trazado&gt;" class="cls-7" cx="329.61" cy="248.65" r="3.34"/></g><rect id="_Trazado_27" data-name="&lt;Trazado&gt;" class="cls-8" x="124.26" y="160.82" width="167.04" height="102.68"/><polygon id="_Trazado_28" data-name="&lt;Trazado&gt;" class="cls-2" points="350.76 174.32 350.76 174.32 266.67 174.32 266.67 174.32 266.67 75.26 266.67 75.26 350.76 75.26 350.76 75.26 350.76 174.32"/><g id="_Grupo_5" data-name="&lt;Grupo&gt;"><path id="_Trazado_compuesto_3" data-name="&lt;Trazado compuesto&gt;" class="cls-2" d="M344.59,180.18H273.35a12.48,12.48,0,0,1-12.47-12.47V81a12.48,12.48,0,0,1,12.47-12.47h71.25A12.49,12.49,0,0,1,357.07,81v86.69A12.48,12.48,0,0,1,344.59,180.18ZM273.35,75.68A5.35,5.35,0,0,0,268,81v86.69a5.35,5.35,0,0,0,5.35,5.34h71.25a5.36,5.36,0,0,0,5.35-5.34V81a5.36,5.36,0,0,0-5.35-5.34Z"/></g><g id="_Grupo_6" data-name="&lt;Grupo&gt;"><rect id="_Trazado_29" data-name="&lt;Trazado&gt;" class="cls-2" x="283" y="92.9" width="11.88" height="13.06"/></g><g id="_Grupo_7" data-name="&lt;Grupo&gt;"><rect id="_Trazado_30" data-name="&lt;Trazado&gt;" class="cls-2" x="302.44" y="96.91" width="32.51" height="9.06"/></g><g id="_Grupo_8" data-name="&lt;Grupo&gt;"><rect id="_Trazado_31" data-name="&lt;Trazado&gt;" class="cls-2" x="283" y="111.3" width="11.88" height="13.06"/></g><g id="_Grupo_9" data-name="&lt;Grupo&gt;"><rect id="_Trazado_32" data-name="&lt;Trazado&gt;" class="cls-2" x="302.44" y="115.31" width="32.51" height="9.06"/></g><g id="_Grupo_10" data-name="&lt;Grupo&gt;"><rect id="_Trazado_33" data-name="&lt;Trazado&gt;" class="cls-2" x="283" y="129.7" width="11.88" height="13.06"/></g><g id="_Grupo_11" data-name="&lt;Grupo&gt;"><rect id="_Trazado_34" data-name="&lt;Trazado&gt;" class="cls-2" x="302.44" y="133.72" width="32.51" height="9.05"/></g><path id="_Trazado_35" data-name="&lt;Trazado&gt;" class="cls-9" d="M336.73,151.68h25.83a8.9,8.9,0,0,1,8.9,8.9v25.83a8.91,8.91,0,0,1-8.91,8.91H336.73a8.91,8.91,0,0,1-8.91-8.91V160.58A8.9,8.9,0,0,1,336.73,151.68Z"/><path id="_Trazado_compuesto_4" data-name="&lt;Trazado compuesto&gt;" class="cls-2" d="M362.56,198.88H336.73a12.48,12.48,0,0,1-12.47-12.46V160.59a12.48,12.48,0,0,1,12.47-12.47h25.83A12.48,12.48,0,0,1,375,160.59v25.83A12.48,12.48,0,0,1,362.56,198.88Zm-25.83-43.64a5.36,5.36,0,0,0-5.35,5.35v25.83a5.35,5.35,0,0,0,5.35,5.34h25.83a5.35,5.35,0,0,0,5.34-5.34V160.59a5.35,5.35,0,0,0-5.34-5.35Z"/><g id="_Grupo_12" data-name="&lt;Grupo&gt;"><path id="_Trazado_36" data-name="&lt;Trazado&gt;" class="cls-9" d="M14,221.35H39.8a8.91,8.91,0,0,1,8.91,8.91v25.83A8.91,8.91,0,0,1,39.8,265H14a8.91,8.91,0,0,1-8.91-8.91V230.26A8.9,8.9,0,0,1,14,221.35Z"/><path id="_Trazado_compuesto_5" data-name="&lt;Trazado compuesto&gt;" class="cls-2" d="M39.8,268.55H14A12.48,12.48,0,0,1,1.51,256.09V230.26A12.48,12.48,0,0,1,14,217.79H39.8a12.48,12.48,0,0,1,12.47,12.47v25.83A12.48,12.48,0,0,1,39.8,268.55ZM14,224.91a5.36,5.36,0,0,0-5.35,5.35v25.83A5.35,5.35,0,0,0,14,261.43H39.8a5.35,5.35,0,0,0,5.35-5.34V230.26a5.36,5.36,0,0,0-5.35-5.35Z"/></g></g><path class="cls-3" d="M227.94,207a7.14,7.14,0,0,1,1.67,4.55c0,5-3.92,7.93-9.59,7.93a14.32,14.32,0,0,1-3.56-.4L215,221.49l4.41.27c7.79.5,12.38.72,12.38,6.71,0,5.18-4.55,8.11-12.38,8.11-8.15,0-11.26-2.07-11.26-5.63,0-2,.9-3.11,2.48-4.59a3,3,0,0,1-2-3,4,4,0,0,1,1.31-2.75c.81-.85,1.71-1.71,2.79-2.7a7.19,7.19,0,0,1-3.87-6.76c0-5.18,3.42-8.74,10.31-8.74a15.45,15.45,0,0,1,4.14.45h8.78v3.83Zm-13.33,20.54a4,4,0,0,0-1.17,2.39c0,1.8,2.3,2.34,5.45,2.34,2.61,0,6.17-.18,6.17-2.61,0-1.44-1.71-1.53-3.87-1.67Zm5-20.67c-2.48,0-4.32,1.22-4.32,4.14,0,2.21,1.22,3.74,4.19,3.74,2.52,0,4.23-1.48,4.23-3.83C223.66,208.3,222.13,206.9,219.57,206.9Z"/><path class="cls-3" d="M234.2,225.92v-3.56l2.3-.31c.63-.09.72-.23.72-.9V207.9c0-.49-.13-.81-.59-.95l-2.43-.86.5-3.65H244v18.69c0,.72,0,.81.72.9l2.3.31v3.56ZM240,198.85A3.7,3.7,0,0,1,236,194.8c0-2.56,1.49-4,4.05-4s4.1,1.4,4.1,4S242.62,198.85,240,198.85Z"/><path class="cls-3" d="M264.84,224.17a18,18,0,0,1-7.34,1.8c-5.36,0-7.39-2.16-7.39-7.25v-11.8c0-.27,0-.45-.36-.45H246.6v-4c4-.45,5.54-2.43,6-7.34h4.28v6.4c0,.31,0,.45.36.45h6.35v4.5h-6.71v10.76c0,2.66.63,3.69,3.06,3.69a10.72,10.72,0,0,0,3.65-.72Z"/><path class="cls-9" d="M198.12,212.35l-20.59-20.59a3,3,0,0,0-4.29,0L169,196l5.42,5.42a3.61,3.61,0,0,1,4.57,4.6l5.23,5.23a3.61,3.61,0,1,1-2.16,2l-4.88-4.88v12.83a3.61,3.61,0,1,1-3-.11V208.23a3.57,3.57,0,0,1-1.18-.79,3.61,3.61,0,0,1-.78-4l-5.35-5.35-14.12,14.12a3,3,0,0,0,0,4.3l20.59,20.59a3,3,0,0,0,4.3,0l20.5-20.49A3,3,0,0,0,198.12,212.35Z"/></g></g></svg>