<svg xmlns="http://www.w3.org/2000/svg" xmlns:xlink="http://www.w3.org/1999/xlink" viewBox="0 0 372.91 870.65"><defs><style>.cls-1,.cls-11,.cls-28,.cls-30,.cls-38,.cls-39,.cls-4,.cls-40,.cls-44{fill:none;}.cls-2{clip-path:url(#clip-path);}.cls-3{fill:#f1b486;}.cls-4,.cls-7{stroke:#231f20;}.cls-11,.cls-28,.cls-30,.cls-4{stroke-linecap:round;}.cls-11,.cls-28,.cls-30,.cls-38,.cls-39,.cls-4,.cls-40{stroke-linejoin:round;}.cls-11,.cls-13,.cls-14,.cls-28,.cls-30,.cls-4,.cls-44,.cls-5,.cls-6,.cls-7,.cls-9{stroke-width:1.46px;}.cls-5{fill:#2d304f;}.cls-30,.cls-5{stroke:#52586d;}.cls-13,.cls-14,.cls-15,.cls-44,.cls-48,.cls-49,.cls-5,.cls-6,.cls-7,.cls-9{stroke-miterlimit:10;}.cls-6{fill:#f05032;stroke:#d1422f;}.cls-7{fill:#58595b;}.cls-8{fill:#383133;}.cls-9{fill:#4c3617;}.cls-11,.cls-44,.cls-9{stroke:#3d2314;}.cls-10{fill:#3d2314;}.cls-12{fill:#3c2415;}.cls-13,.cls-15,.cls-37,.cls-48,.cls-49{fill:#ffc691;}.cls-13,.cls-15,.cls-28,.cls-48,.cls-49{stroke:#f1b486;}.cls-14,.cls-31{fill:#603913;}.cls-14{stroke:#3c2415;}.cls-15{stroke-width:1.51px;}.cls-16{fill:#e2ac7f;}.cls-17,.cls-41{fill:#fff;}.cls-18{fill:#178ec3;}.cls-19{fill:#001523;}.cls-20{fill:#591e1e;}.cls-21{fill:#af3c3d;}.cls-22{fill:#f3573f;}.cls-23{fill:#ef967b;}.cls-24{fill:#f4d5ce;}.cls-25{fill:#ba7261;}.cls-26{fill:#e6aba3;opacity:0.7;}.cls-27{fill:#96aa00;}.cls-29{fill:#373b5b;}.cls-32{fill:#231f20;}.cls-33{fill:#7f532e;}.cls-34{fill:#272a3f;}.cls-35{fill:#d39c76;}.cls-36{fill:url(#Sfumatura_senza_nome_113);}.cls-38,.cls-39,.cls-40{stroke:#272a3f;stroke-width:1.8px;}.cls-39{stroke-dasharray:1.41 1.41;}.cls-40{stroke-dasharray:1.47 1.47;}.cls-41{fill-rule:evenodd;}.cls-42{fill:#808285;}.cls-43{fill:#414042;}.cls-45{fill:#52586d;}.cls-46{fill:url(#Degradado_sin_nombre_30);}.cls-47{fill:url(#Degradado_sin_nombre_52);}.cls-48{stroke-width:1.75px;}.cls-49{stroke-width:1.81px;}</style><clipPath id="clip-path" transform="translate(0 -5.43)"><rect class="cls-1" x="23.65" width="313.76" height="560"/></clipPath><linearGradient id="Sfumatura_senza_nome_113" x1="3072.69" y1="185.41" x2="3072.69" y2="268.6" gradientTransform="matrix(-1, 0, 0, 1, 3315.39, 0)" gradientUnits="userSpaceOnUse"><stop offset="0.02" stop-color="#180403"/><stop offset="0.5" stop-color="#3f1611"/><stop offset="1" stop-color="#63261d"/></linearGradient><linearGradient id="Degradado_sin_nombre_30" x1="17.04" y1="316.3" x2="347.07" y2="316.3" gradientUnits="userSpaceOnUse"><stop offset="0" stop-color="#ccc"/><stop offset="0.6" stop-color="#fff"/><stop offset="1" stop-color="#ccc"/></linearGradient><linearGradient id="Degradado_sin_nombre_52" x1="17.04" y1="321.73" x2="347.07" y2="321.73" gradientUnits="userSpaceOnUse"><stop offset="0" stop-color="#ededed"/><stop offset="0.51" stop-color="#fff"/><stop offset="1" stop-color="#ededed"/></linearGradient></defs><title>g8</title><g id="Capa_2" data-name="Capa 2"><g id="CONTENIDO"><g class="cls-2"><path class="cls-3" d="M121.82,254.5c-1.46,0-13-1.73-13-1.73s-3.64-.5-6-.87-4.3-.17-5.58-.32-4.22-.42-5.76-.67a27.92,27.92,0,0,0-1.68,3.17l1-.41s12.32,0,16.67,5.5,10,12.65,10,12.65,3.11-6.41,3.19-6.66S124.69,255.82,121.82,254.5Z" transform="translate(0 -5.43)"/><path class="cls-4" d="M25.69,856.13s10.19-2.86,21.72,6.16c0,0,3.93,3.46,5.06,6.59" transform="translate(0 -5.43)"/><path class="cls-5" d="M91.34,248.77a8.76,8.76,0,0,1-1.54,3.82c-1.21,1.43,9.1,1,12.83,1.21s21.76,3.64,22.42,3.91c.55-.55.35-3.24.85-4.18C126.12,253.07,95.4,247.47,91.34,248.77Z" transform="translate(0 -5.43)"/><ellipse class="cls-6" cx="234.86" cy="176.45" rx="3.98" ry="3.78"/><ellipse class="cls-6" cx="219.11" cy="182.28" rx="3.98" ry="3.78"/><path class="cls-7" d="M188,806.16s.6,11.92-.48,17.1-4.58,14.81-4.09,19.51,1.69,9.4,9.39,11.92a36.73,36.73,0,0,1,14.33,8.79c1.33,1.45,11.8,12.53,27.82,11s29.63-7.95,30.47-14-6.62-8.91-12.65-11-14.93-8.19-18.19-11.8-6.86-13.49-8.43-21.8-2-13.25-2.53-13.37S187.86,798.81,188,806.16Z" transform="translate(0 -5.43)"/><path class="cls-8" d="M183.75,840.2c0-.26,2.58-8.82,2.7-9.79s1.77-7.1,1.84-7.65.8-6.12.49-8.87.52-5.45.08-6.91,3.23-1.47,3.23-1.47,1.16,9.79.37,12.3-.67,9.91-2.39,13.7-2.6,12.24-2.69,13.76a5.54,5.54,0,0,1-.79,2.57S183.64,842.61,183.75,840.2Z" transform="translate(0 -5.43)"/><path class="cls-7" d="M121.08,792.63s-7.85,18.21-7.35,23.55,2.34,14.2,2.34,14.2,6.85,7.35,6.18,14.7-5.85,12.57-11.86,12.8-9.69-1.23-11.69,0-8.19,13.43-20,15.93S45.74,876,35.21,871s-15.37-10.69-7.18-17,21.72-7.35,29.4-12.53,19.71-16.71,20.88-20.71,7.8-19.07,8.19-23.39A64,64,0,0,1,89,786.45S117.74,788.12,121.08,792.63Z" transform="translate(0 -5.43)"/><path class="cls-9" d="M256.42,394.44s16.28,35.48,15.83,60.16-4.87,102.73-5.32,131-3,52.21-2.6,60.19-7.37,16.83-7.92,26.57-9.41,32.93-9,41.71c0,0,.89,32.41-3.1,37.21s-7.09,8.91-8,15.93-.89,11.72-1.77,16.23-6.2,16-8.86,19.79-14.62,9.28-20.82,5.19c0,0-15.94,2.23-19.93-3.8s-4-16.67-4.87-23.31-4.43-5.88,0-15.34,13.29-20.53,10.63-25-11-5.32-12.81-14.62,9.27-40.75,7.94-51.82,1.33-30.12.88-34.55c0,0,1.33-72.63,1.33-82.38s4-35.43,4-40.08-3.1-17.32-3.1-17.32-3.23,30.32-5.6,37.22-1.49,19.74-3.26,28.15-7.35,19.93-7,27S173,608.61,171.28,613s-11.07,13.27-9.74,19.48a138.63,138.63,0,0,1,2.22,21.71c0,4.43-5.32,15.94-5.32,19.49s2.21,11.51,0,14.62-12.4,12.4-14.17,23.47-2.21,19.49-4,26.13c0,0-7.09,14.07-7.09,20.54s1.77,15.33,0,21.53.44,9.68-7.09,12.59-14.17,3.8-20.37-2c0,0-12.4,5.25-19.93,2s-9.74.7-7.53-11.71,7.53-21.36,7.53-22.42-6.2-25.85-5.32-42.24,8-23.47,8-27.9c0,0,1.3-20.82,2.64-43.85a511.81,511.81,0,0,0,0-53.59c-.41-5.3,3.56-50.39,3.56-58.41s9.8-52.66,11.54-61.56,7.63-29.75,7.63-29.75l14.95-46.73,13.81-1.15,74.75,6.21,39.08-5.06" transform="translate(0 -5.43)"/><path class="cls-10" d="M91.08,589s6.08,1.62,6.54-5.5,3.21-28,3.44-37.19,2.46-42,5.14-51,9.44-36,10.42-38.34,8.82-4.36,14.83-14-5.18-34.64-5.87-35.09-18.39,58.41-18.39,58.41-11.86,56.29-12.32,57S93,562.87,93,562.87,88.21,585.11,91.08,589Z" transform="translate(0 -5.43)"/><path class="cls-1" d="M139.88,318.6" transform="translate(0 -5.43)"/><path class="cls-1" d="M192.74,450.06s4.8-24.69,2.31-43.48" transform="translate(0 -5.43)"/><path class="cls-11" d="M220.56,464.82s-41.63,7.76-71.54-5.68c0,0,9.84,16.28,42,13.06l3.21-2.27s12.3,17,27.07,17.22c0,0-12.86-3.1-27.07-7.76" transform="translate(0 -5.43)"/><path class="cls-12" d="M183.39,192c9.71,10.87,30.57-22.85,36.83-24.76A39.16,39.16,0,0,1,233.36,166s11.88-3.88,21-16.92,1.58-62.7-.06-64.88S220.5,60.79,220.5,60.79s-46.3-7.62-47.11-7.35S135,73.31,135,73.31l-1.63,54.46L143,149s18.64,24.92,32.56,29.28C183.14,182.94,173.68,181.16,183.39,192Z" transform="translate(0 -5.43)"/><path class="cls-13" d="M172.49,150c-.15.32-1.82,36.57-2,38.4-.17,1.39-16.4,3.47-17.88,3.72s-2.47,14.09-2.47,14.09l19.56,32.14,30.13,1.48s22.76-14.84,23-15.58,7.3-20.27,8.1-21-10.26-9.22-18.09-14.16l-3-38.67S175.7,143.19,172.49,150Z" transform="translate(0 -5.43)"/><path class="cls-3" d="M226.48,215.32c2.06-5.54,4.41-11.69,4.85-12.1.8-.74-10.71-9.22-18.54-14.16l-2.57-38.67s-8.79-1.86-17.86-2.8c-2.34.2-4,.33-4.12.29-.38-.09-8.75.44-14.05.79a3.26,3.26,0,0,0-1.25,1.3c0,.1-.4,3.57-.84,8.38,0,0,13.36,6.13,18.65,6.27s14.86-3.37,15.84-3,1.55,24.47,2.24,27.4-1.67,11.69-2.09,12.94-8,16.55-10.74,18.5c-2.52,1.78-6.1,7.59-6.69,8.57l1.07,5.48a15.17,15.17,0,0,0,1.7,4.86l8.14.4s7.49-4.88,13.93-9.19a127.55,127.55,0,0,0,8.73-10.54Z" transform="translate(0 -5.43)"/><path class="cls-12" d="M131.3,101.48c-1.59.26-3.19.51-4.79.66,0,.32-.1.65-.15,1C119,154.8,161.16,184.52,179.81,173c-10.58-11.69-33.46-39.47-37.21-67.93C140.68,104.7,133.44,101.12,131.3,101.48Z" transform="translate(0 -5.43)"/><path class="cls-14" d="M125.64,110.53s-1.27-8.81-.56-13.43c1.36-8.88,5.55-17,8.59-20.87,4.63-5.86,16.42-5,16.42-5s-1.26,6.61-6.44,10.23-18.12,23.4-.94,47.73C136.26,127.64,126.67,120.46,125.64,110.53Z" transform="translate(0 -5.43)"/><path class="cls-13" d="M149.6,116.66s-3.65,2.7-5.7,1.68S140,110.6,137.76,108s-7.75-9.5-5.85-12.72,7.18-9.41,9.8-5.36S151.94,108.7,152.08,110,149.6,116.66,149.6,116.66Z" transform="translate(0 -5.43)"/><path class="cls-3" d="M141.81,106.8a14.44,14.44,0,0,0-3.17-5c-1.9-1.61-5.32-5.41-1.64-7a2.54,2.54,0,0,1,2.22,1.46" transform="translate(0 -5.43)"/><path class="cls-13" d="M236.6,116.66s3.65,2.7,5.7,1.68,3.95-7.75,6.14-10.38,7.75-9.5,5.85-12.72-7.18-9.41-9.8-5.36S234.26,108.7,234.11,110,236.6,116.66,236.6,116.66Z" transform="translate(0 -5.43)"/><path class="cls-3" d="M244.39,106.8a14.44,14.44,0,0,1,3.17-5c1.9-1.61,5.32-5.41,1.64-7A2.54,2.54,0,0,0,247,96.27" transform="translate(0 -5.43)"/><path class="cls-15" d="M236.49,62.25C235.94,48,224.08,34.1,224.08,34.1c-4.49-3.16-9.84-3.94-15.31-3.37-5-.57-10.41.43-15.52,2.14-8.45-2.83-17.66-3.75-24.72,1.23,0,0-29.28,38-27,53.75,2.34,38.1,31.28,71,51.48,70,18.68,0,51.88-36.61,51.88-70C245.85,81.59,241.75,71.78,236.49,62.25Z" transform="translate(0 -5.43)"/><path class="cls-3" d="M160.53,62.93s4.87,8.72,11.25,10.89,16.91,1.21,21.37,1.33,23.94,4.93,26.72,4.87c5.83-.13,6-1.76,13.55,0s10.25,13.11,11.16,6.32-3.66-37.6-3.66-37.6S196.75,39.31,194.58,37s-37.67,7.24-38.14,8.6S154.85,52.82,160.53,62.93Z" transform="translate(0 -5.43)"/><path class="cls-16" d="M181.07,88.15S179,80.84,167.84,81s-11.71,5.23-12.13,5.73,7.42-3.72,10.35-3.59,14.89,5.76,14.89,5.76Z" transform="translate(0 -5.43)"/><path class="cls-12" d="M183.54,82.36c.38-.62-1.12-9.64-16.06-10.08,0,0-5.06-.53-13.06,4.59l1.5.61s7.89-4,13.76-2.92,11.43,6.91,12.36,7.82S182.74,83.63,183.54,82.36Z" transform="translate(0 -5.43)"/><path class="cls-17" d="M180.89,88.87s-1,10.65-11.33,10.52S156.83,90.61,156.79,87s11.27-4.44,16.49-1.59A40,40,0,0,0,180.89,88.87Z" transform="translate(0 -5.43)"/><path class="cls-18" d="M175.08,89.16a6,6,0,0,1-4.78,6.63c-3.19.56-6.18-1.24-6.67-4s.16-5,3.35-5.6C171.77,85.27,174.32,87.51,175.08,89.16Z" transform="translate(0 -5.43)"/><path class="cls-12" d="M151.79,88.14s3.37,1.09,5.17.63c0,0-.78-2.67,1.15-3.48s9.81-1.55,13.66,0,7.33,4.15,9.12,3.6l1.29-.23a43.19,43.19,0,0,1-4.68-2.34,25.05,25.05,0,0,0-13.3-3.95c-6.33.06-9,4-9,4A3.68,3.68,0,0,1,151.79,88.14Z" transform="translate(0 -5.43)"/><ellipse class="cls-19" cx="168.84" cy="90.26" rx="2.76" ry="3.37" transform="translate(-1.77 -2.03) rotate(-1.15)"/><ellipse class="cls-17" cx="172.47" cy="90.77" rx="0.95" ry="1.39" transform="translate(-1.76 -2) rotate(-1.13)"/><ellipse class="cls-17" cx="166.22" cy="91.4" rx="1.71" ry="2.2" transform="translate(-1.78 -2.12) rotate(-1.13)"/><path class="cls-16" d="M204.18,88.15s2.51-7.18,13.62-6.43,11.39,5.89,11.79,6.41S222.4,84,219.47,84s-15.19,4.9-15.19,4.9Z" transform="translate(0 -5.43)"/><path class="cls-12" d="M204,79.74c-.23-.69,3.3-9.13,17.95-6.13,0,0,5,.65,11.65,7.47l-1.6.25s-6.76-5.73-12.72-6-12.72,4.1-13.83,4.77S204.43,81.16,204,79.74Z" transform="translate(0 -5.43)"/><path class="cls-17" d="M204.33,88.88S204.73,99.57,215,100,228.25,92,228.49,88.36s-11-5.07-16.37-2.52A40.07,40.07,0,0,1,204.33,88.88Z" transform="translate(0 -5.43)"/><path class="cls-18" d="M210.22,89.13a6,6,0,0,0,4.4,6.89c3.15.74,6.24-.89,6.89-3.64s.13-5-3-5.78C213.63,85.8,211.07,87.53,210.22,89.13Z" transform="translate(0 -5.43)"/><path class="cls-12" d="M233.42,89.79s-3.42.89-5.2.34c0,0,.93-2.62-1-3.54s-9.71-2.11-13.63-.78-7.55,3.73-9.31,3.08l-1.28-.3a43.68,43.68,0,0,0,4.8-2.07,25,25,0,0,1,13.5-3.19c6.31.42,8.72,4.47,8.72,4.47A3.68,3.68,0,0,0,233.42,89.79Z" transform="translate(0 -5.43)"/><ellipse class="cls-19" cx="216.38" cy="90.59" rx="3.37" ry="2.76" transform="translate(109.53 293.99) rotate(-85.62)"/><ellipse class="cls-17" cx="212.73" cy="90.89" rx="1.4" ry="0.94" transform="translate(105.84 290.62) rotate(-85.61)"/><ellipse class="cls-17" cx="218.94" cy="91.88" rx="2.19" ry="1.71" transform="translate(110.65 297.75) rotate(-85.63)"/><polygon class="cls-3" points="185.57 120.51 188.37 118.39 191.23 119.08 189.6 120.51 185.57 120.51"/><polygon class="cls-3" points="195.67 118.87 198.88 119.76 198.51 120.78 195.67 120.78 195.67 118.87"/><path id="_Trazado_" data-name="&lt;Trazado&gt;" class="cls-20" d="M208.77,130.07a3.2,3.2,0,0,1-.21.39v.05a4.64,4.64,0,0,1-.68,1,.49.49,0,0,1-.2.28c-.28.33-.55.72-.82,1.11A14.83,14.83,0,0,1,205,135a15.41,15.41,0,0,1-11.1,4.4,10,10,0,0,1-1.84-.17,8.53,8.53,0,0,1-1.23.11,15.36,15.36,0,0,1-11-4.34,23,23,0,0,1-1.91-2.11c-.28-.39-.55-.78-.82-1.11a.48.48,0,0,1-.2-.28,4.48,4.48,0,0,1-.68-1v-.05a2.85,2.85,0,0,1-.2-.39c.07,0,.07,0,.13.05h.07c.48.11,1.57.34,3.13.61h.14c.68.11,1.5.28,2.32.39,1.57.28,3.2.56,4.77.73a32.49,32.49,0,0,0,4.16.39c.61,0,1.29,0,2-.05v.05a12,12,0,0,0,1.36.05c1.23-.05,2.93-.22,4.7-.44,1.44-.17,2.86-.45,4.23-.67.82-.11,1.63-.28,2.32-.39h.13c1.57-.28,2.66-.5,3.14-.61h.07C208.7,130.07,208.7,130.07,208.77,130.07Z" transform="translate(0 -5.43)"/><path id="_Trazado_2" data-name="&lt;Trazado&gt;" class="cls-21" d="M205,135a15.41,15.41,0,0,1-11.1,4.4,10,10,0,0,1-1.84-.17,8.53,8.53,0,0,1-1.23.11,15.36,15.36,0,0,1-11-4.34,15.75,15.75,0,0,1,6.74-3.17l1-.17a19.06,19.06,0,0,1,4.5-.34v-.05a22.86,22.86,0,0,1,5.25.28,14.39,14.39,0,0,1,1.49.28A15.5,15.5,0,0,1,205,135Z" transform="translate(0 -5.43)"/><path id="_Trazado_3" data-name="&lt;Trazado&gt;" class="cls-17" d="M205.41,130.74h-.13c-2.31.11-6,.28-9.27.28-1.22,0-2.37-.05-3.35-.1v-.07h-.41c-1,.05-2.25.11-3.54.11-3.27,0-6.95-.16-9.27-.28h-.14l-2.32-.17a2.49,2.49,0,0,0,.82.34c2.24.91,8.78,3.42,14.26,3.4h0c5.58.22,12.53-2.39,14.85-3.34a2.48,2.48,0,0,0,.81-.34Z" transform="translate(0 -5.43)"/><path id="_Trazado_4" data-name="&lt;Trazado&gt;" class="cls-22" d="M208.68,129.74c-1.29,0-5.18-2.07-11-2.35a4,4,0,0,0-2,.7,6.61,6.61,0,0,1-6.6,0,4.31,4.31,0,0,0-2.12-.73c-5.79.28-9.68,2.35-11,2.35-.21,0-.35,0-.41-.05a.16.16,0,0,0,.07.11,1.24,1.24,0,0,1,.28.28c.07,0,.07,0,.14.05h.07a1.4,1.4,0,0,0,.82.45,2.49,2.49,0,0,0,.82.34,15.51,15.51,0,0,0,4,.22c2,0,4-.17,5.32.28a18.57,18.57,0,0,0,5,.61h0a20.81,20.81,0,0,0,5.58-.55c1.29-.45,3.27-.28,5.32-.28a15.49,15.49,0,0,0,4-.22,2.48,2.48,0,0,0,.81-.34,1.39,1.39,0,0,0,.82-.45h.07c.06-.05.06-.05.14-.05a1.31,1.31,0,0,1,.27-.28.16.16,0,0,0,.07-.11C209,129.74,208.89,129.74,208.68,129.74Z" transform="translate(0 -5.43)"/><path id="_Trazado_5" data-name="&lt;Trazado&gt;" class="cls-23" d="M209.09,129.69a.16.16,0,0,1-.07.11h0l-.26.27c0,.11-1.57,2.34-1.57,2.34h0l-.35.49c-2.52,2.9-10.69,5.77-14.78,5.73-3.78,0-11-2.63-13.8-5.39-.17-.21-2.18-2.71-2.19-3.24l-.45-.39,0,.05a.17.17,0,0,1,0-.05c-.34-.28,3.59,12.59,14.52,12.75a43.19,43.19,0,0,0,4.45.06C207.11,140.87,209.43,129.4,209.09,129.69Z" transform="translate(0 -5.43)"/><path class="cls-23" d="M182,130.21a28.73,28.73,0,0,1,5.33-1.13,5.75,5.75,0,0,1,3.07,1.07,11.66,11.66,0,0,0-3.31-.66C185.86,129.64,181.9,130.6,182,130.21Z" transform="translate(0 -5.43)"/><path class="cls-23" d="M195.27,130s1.14-.94,1.73-.85a15.78,15.78,0,0,1,3.92.78s-2.43-.2-3.44-.18c-.64,0-1.2.62-1.65.55S194.94,130.24,195.27,130Z" transform="translate(0 -5.43)"/><path class="cls-24" d="M194,139.75a23.65,23.65,0,0,0,4.67-1c1-.53,1.17.32.75.5s-3.33,1.53-4.87,1.33S193,140,194,139.75Z" transform="translate(0 -5.43)"/><path class="cls-25" d="M183.5,140.46s5.61,1.91,8.21,1.92c3,0,4.62,0,9.29-1.94a14.83,14.83,0,0,1-9.39,2.35C185.66,142.48,183.5,140.46,183.5,140.46Z" transform="translate(0 -5.43)"/><path class="cls-26" d="M195.42,117.78s1.23-1.81,2.79-1.52.85.7,0,.75S195.57,118.08,195.42,117.78Z" transform="translate(0 -5.43)"/><path class="cls-26" d="M188.94,118s-1.23-1.81-2.79-1.52-.85.7,0,.75S188.79,118.28,188.94,118Z" transform="translate(0 -5.43)"/><circle class="cls-27" cx="144.9" cy="110.28" r="1.36"/><circle class="cls-27" cx="241.12" cy="110.32" r="1.33"/><path class="cls-14" d="M258.73,55.76c-6.61-20.34-7.4-5-18.22-26.9S196.1.72,178,11c-10.21,3.49-10.52,7.68-12.88,8.43-46.42,14.72-39.86,70.93-39.62,76.81.71-.14,6.87-12.66,7.53-12.75a33.72,33.72,0,0,1,7.64-.36c12.88-3.78,16.68-21.94,19.44-33.48,2.81-11.73,18.71-3.52,18.71-3.52s12.48-11.71,13.56-11.44,39.54,24,39.54,24,9.83,9.63,17.73,44.48S211.78,171,214.5,172.86a16.16,16.16,0,0,0,5.17,2.45c24.24-.27,41.54-18,44-48,1.25-15.25.12-17.23,0-31.14C263.55,82.77,263.66,70.93,258.73,55.76Z" transform="translate(0 -5.43)"/><path class="cls-14" d="M177.2,27s-13.89,10.62-11.71,27.51S177.2,73.31,177.2,73.31h12.53s-9-22.06,0-34c0,0-3.81,27.14,8.44,36.45l21.24,2.77S203.06,62.3,205,48c0,0,14.69,41.06,43.57,39.18,0,0,4.09-34.28-19.33-46" transform="translate(0 -5.43)"/><path class="cls-28" d="M190.36,92.52l-1.86,17s-7,1.29-7.24,4.18" transform="translate(0 -5.43)"/><path class="cls-28" d="M203.68,113.67s3.63,3.45.22,4.91-3.76-2.71-5.71-3.08-3.17,3.17-6.46,2.93-3.75-4.38-7.21-1.88c0,0-2.65.42-2.65-.85" transform="translate(0 -5.43)"/><path class="cls-10" d="M124.89,407.8s36.27,10.39,50,9.83,37.81-2.54,49.76-4.54,25-5.27,27.74-6.51a83.08,83.08,0,0,0,7.43-4.17s-7-15.21-8.5-15.21H177.47s-34.56,7.47-35.2,7.25-12.12.09-13.12.95S124.89,407.8,124.89,407.8Z" transform="translate(0 -5.43)"/><path class="cls-28" d="M181.73,147.86s13.78-2.44,16.22,0,1.73,3.29,1.73,3.29" transform="translate(0 -5.43)"/><path class="cls-5" d="M91.42,235.46c-.07.3-4.18,12.22-1.72,12.75,8.29,1.76,33.27,2.88,34,6.31a147.79,147.79,0,0,0,12.6,45.54s5.49,62-19.06,86.24c0,0,20.67,25.58,80.43,20.05s63.31-13.92,65.25-19.73a104.44,104.44,0,0,1-29.07-50.48c-7.43-31.56,16.47-45.45,15.5-59.34-.17-2.49-.4-4.7-.65-6.67.84,0,19.07-2.4,24.93-2.24,6.78,1.94-.7-63.45-30.42-61.51L225,197s-11.28,36.86-35.86,36.86-35.39-43.54-35.39-43.54-20.37,0-37.19,7.54C101.62,204.5,91.42,235.46,91.42,235.46Z" transform="translate(0 -5.43)"/><path class="cls-29" d="M123.29,252.45c5.4,39.93,8.19,30.16,13,47.61,1.59,5.72,1.42,13.49,1.17,20.25a162.82,162.82,0,0,1-2.8,24.49c.22-1.29,2.56-18.2,13.6-29.94,6.78-7.21,18.64-10.13,30-13.17-15.27,4.86-38.74.31-40-5.33-17.78-38.14-3.88-60.79-3.88-60.79-3.23,1.73-9.37,13-9.37,13Z" transform="translate(0 -5.43)"/><path class="cls-4" d="M85.66,794.3s9.35,6.85,14.2,7.35-12.53.67-15,0,14.2,6.11,15,8.23-13.32-.24-17-1.15,15.85,6.94,19.36,12.46c0,0-17.31-7.72-21.6-6.7,0,0,17.26,9.9,19.43,16.4,0,0-18.26-11-22.58-10.37,0,0,14.22,10.86,14.39,14.37,0,0-16.87-9.19-20.38-8.18,0,0,13.87,13.07,14.37,16.81s-17.54-10.63-22.72-10c0,0,14.32,10.36,14.34,13.7,0,0-16.68-6.85-20.36-8,0,0,14,12,13.7,15s-11.19-13-24.56-9.52c0,0,15.54,8,17.21,13.6s-11.69-13-25.06-9.1" transform="translate(0 -5.43)"/><path class="cls-4" d="M230.53,809.89c-.72-.48-20.72-7-30.23,6,0,0,20.32-.27,26.66,3.54,0,0-25.58-.41-29.31,7.54,0,0,37.86-3.56,32.4-2.65-.72.12-22.52,2.53-26.86,10.6,0,0,23.12-7.95,28.3-5.78,0,0-26.62,7.71-28.78,15.06,0,0,27.82-11.08,32.28-8.79,0,0-23,6-24.57,13.13,0,0,21.08-11.08,26-9.76s0-.72,0-.72-22,12.29-21.32,18.07c0,0,17.95-13.61,28.3-13.13" transform="translate(0 -5.43)"/><path class="cls-4" d="M248.14,847.44c-.5.39-17.36,9.9-18.56,22.42" transform="translate(0 -5.43)"/><path d="M244.14,248.62l22.35-2.75.69,4.92-23,3.15S241.24,249,244.14,248.62Z" transform="translate(0 -5.43)"/><path class="cls-1" d="M204.71,505.73a19.83,19.83,0,0,0,1.2-1.79C205.21,505,204.71,505.73,204.71,505.73Z" transform="translate(0 -5.43)"/><path class="cls-30" d="M243.22,237.72s-1.44,8.49.47,15.19c.48,1.67,4.29,10.07,5,17.22" transform="translate(0 -5.43)"/><path class="cls-29" d="M243.13,291.54a27.43,27.43,0,0,1-12.77,7.82c-6.23,1.73-14.75.48-18,0a14.55,14.55,0,0,1,9.51,11.33c1.56,9,12.63,52.08,16.19,58.4s13.05,27,13.05,27a45.46,45.46,0,0,0,6.85-3.59c2.72-1.72,4.29-5.71,4.29-5.71s-19.59-16.65-28.38-50.69c-2.91-11.26-1.83-15-.48-21.12C235.2,306.83,240.81,295.3,243.13,291.54Z" transform="translate(0 -5.43)"/><path class="cls-31" d="M127,76.16s-.93,7.25-1.24,12.73a65.67,65.67,0,0,0,0,9s9.81-12.31,10.1-13.68,7.45-6.55,9.09-7.1,4.84-1.52,6.09-4.18,1.58-6.73,1-6.92-15.49.4-15.49.4L129.83,74Z" transform="translate(0 -5.43)"/><path class="cls-8" d="M111.93,790.11s1.15,9.07,0,13-4.61,10.71-3,14.34a39.78,39.78,0,0,1,3.48,10.38,28.21,28.21,0,0,0,4.18,10.21,24.35,24.35,0,0,1,3.28,10.78c0,2.94,2.92-.92,1.6-7.29-.94-4.55-4.86-9.91-6.1-10.82-.46-3.21-2.1-12.63-2.26-15.44s5.2-17.34,6-20.38S112.26,785.17,111.93,790.11Z" transform="translate(0 -5.43)"/><path class="cls-10" d="M194.06,798.88c-2.44-14.15-4.47-14.15.21-28.78s12.48-28.3,8.09-36.1-11.22-19-8.78-26.83,6.34-26.83,6.34-32.19-4.88-20.37-5.37-32.38,2.8-42.23-2-53c0,0,3-40.93,3.18-55.1s-1.21-28.9,0-34.22,4.13-13.34,4.13-13.34-2.93-4.66-1.7-6c.92-1,5.55,1,8,1.41-6.64-4.18-9.27-10.2-12-11.55-1.51,1-10,6.23-12.78,7.05,0,0,7.82,7.88,6.54,14s-14.27,32.48-13.14,42.7-1.29,21.69-3.25,32.05-11.47,20.12-12.57,31.34-18.6,22-14,39,10.6,24.88,7.11,32.2-10.36,12.19-11.56,20c0,0-20.79,43.42-18.31,58.05s2.4,21,0,26.83-5.95,15.25-5.68,18.05c.09.94,3.57,1.25,8.16,1l1.32-.49c7.53-2.91,5.31-6.39,7.09-12.59s0-15.06,0-21.53,7.09-20.54,7.09-20.54c1.77-6.64,2.22-15.06,4-26.13s12-20.37,14.17-23.47,0-11.07,0-14.62,5.32-15.06,5.32-19.49a138.63,138.63,0,0,0-2.22-21.71c-1.33-6.21,8-15.05,9.74-19.48s2.21-13.29,1.86-20.37,5.23-18.6,7-27,.89-21.26,3.26-28.15,5.6-37.22,5.6-37.22,3.1,12.67,3.1,17.32-4,30.34-4,40.08-1.33,82.38-1.33,82.38c.44,4.43-2.22,23.47-.89,34.55s-9.74,42.52-7.94,51.82S188.12,736.6,190.78,741s-6.2,15.5-10.63,25-.88,8.7,0,15.34.89,17.27,4.87,23.31a7.54,7.54,0,0,0,3.45,2.64C192.35,806.9,195,804.62,194.06,798.88Z" transform="translate(0 -5.43)"/><path class="cls-10" d="M88.05,690.41c1.47-.1,17.21-1.58,21.37-12,0,0,3.27-8.61-3.56-2.38s-17.22,9.48-17.22,9.48Z" transform="translate(0 -5.43)"/><path class="cls-10" d="M102.2,766.93S87.39,771.47,83,765.19l.88-2.07,2-4.65A31.66,31.66,0,0,0,102.2,766.93Z" transform="translate(0 -5.43)"/><path class="cls-10" d="M79.69,777.64c-.18.3-3.66,8.15,2.4,10s10,2.46,11.57,1.68,4.2-2.82,5.87-3.72,3.72-2,5.58-.6,5,1.14,7,2.34,4.85,2.57,6.89,2.51a6.59,6.59,0,0,1,4.08,1.32c0,.18-1.31,4-4.61,3.84s-10.57-2.29-11.67-3.45l-1.1-1.16a41,41,0,0,1-9.59,3c-5,.8-9.85-1.29-11.33-1.48s-6.22-1.61-6.22-1.61a7.2,7.2,0,0,1-.88-5.23C78.32,782.14,79.69,777.64,79.69,777.64Z" transform="translate(0 -5.43)"/><path class="cls-10" d="M188.47,807.29s12.31,3.14,16.47,1.16c0,0,8.43,3.12,16-1.46a19.28,19.28,0,0,0,8-9.3c.36-.72,4.9-11.41,4.9-11.41s-6.45,11.47-16.72,15.53-12.66,2.27-16.13,1.55-9.56-.36-10.51-1S186.36,805.37,188.47,807.29Z" transform="translate(0 -5.43)"/><path class="cls-10" d="M264.07,649.16s-3.85,14.94-7.07,17.3S242,672,242,672s11-5.62,12.9-8.53S263.8,652.51,264.07,649.16Z" transform="translate(0 -5.43)"/><path class="cls-32" d="M97.94,855.21s13.28-.16,17-2.41,7.1-6,7.18-6.57-1.75,8-6.48,10.1-12.81,1.45-13.84,1.09-3.15.23-4.53,2-5.87,7.47-8.57,9.41-8.86,5.45-15.59,5.88c-4.68.3-18.36.43-19.67.32s.16-2-.56-3.48c0,0,11.57,1.53,20.23-1.29s15.26-5.07,18.56-8.45S97.94,855.21,97.94,855.21Z" transform="translate(0 -5.43)"/><path class="cls-32" d="M183.57,843.81s.7,4.8,2.43,6.53,5.39,4.6,6.75,4.7,7.88,2.34,9.07,3.61,5,4.64,6.48,6a56.3,56.3,0,0,0,7.87,5.79,41,41,0,0,0,7.7,3.12c2.24.51,4,.81,4.71.87s-2.52-1.77-4.11-3-10.58-4.54-14.5-9-5.3-4.64-9.3-6.28-9.15-3.94-11.53-6.79-4.63-7.27-4.92-9.61S183.39,842.57,183.57,843.81Z" transform="translate(0 -5.43)"/><path class="cls-33" d="M149.5,31.42s0,13.63-2.79,19.68-4.94,8.42-10.58,15-8.95,20.45-8.95,20.45c-.39-8.79,5.72-25.36,10.42-31.66S149.5,31.42,149.5,31.42Z" transform="translate(0 -5.43)"/><path class="cls-33" d="M184.39,24.68S176.7,27.16,174.22,34h0s4.11-5.39,10.51-3.13,11.71,5.68,13.44,4.33-2.27,4.14-1.73,7.8c0,0,2.78-5.78,7.88-6.37,0,0,9.85,34,33.64,42.84,0,0-28.5-22.81-27.88-40.09.07-1.87,10.92-11.59,19.95-5.81,0,0-15.26-14-19.95-10.69S201.75,29,197,27,184.39,24.68,184.39,24.68Z" transform="translate(0 -5.43)"/><path class="cls-33" d="M253.52,128c-.24-1.22-1.46,27.71-18.66,39.06,0,0,15.37-2.87,18.66-14.61S254.61,133.54,253.52,128Z" transform="translate(0 -5.43)"/><path class="cls-34" d="M224.6,200.48s5.67,6.69,10.26,7.34S249,209.24,249.74,213c0,2-1.61,3.2-1.78,4.81a14.77,14.77,0,0,1-5.57,2.11,6.14,6.14,0,0,0,1.74,1c.43,0,9,2.33,10.47-1.31s0-10.31-1.38-11.65-5.62-7.72-7.41-8-9-1.61-9.86-2.18a56.1,56.1,0,0,0-5.78-2.21s-4.21.91-4.38,1.33S224.6,200.48,224.6,200.48Z" transform="translate(0 -5.43)"/><polygon class="cls-35" points="221.57 188.75 223.45 193.69 224.48 190.84 221.57 188.75"/><path class="cls-14" d="M217.87,188.7c0,.3,13.5,16,23.27,17.37,12,1.72,11.59,9.36,9.88,11s4,1.34,5.59-1.12,1-11.32-1.79-13.33-7.17-7.07-12.11-8.45-8.37-6.22-9.71-6.44S217.87,188.7,217.87,188.7Z" transform="translate(0 -5.43)"/><path class="cls-12" d="M217.32,160.95s16.46,6.14,18.66,12.58-4.81,11.34.82,15,25.78,12.11,26.49,26c1.24,8.76-7.8,13.18-7.8,13.18l-7-2.58a14,14,0,0,0,3-1.09c-5.44.14-10.41-3.47-10.41-3.47s12.85-.35,14.42-8.28a10.18,10.18,0,0,0-2-6.3,20.93,20.93,0,0,0-6-5.52c-8.18-4.66-21.62-8.1-30.36-10.91s-4.65-11.89-4.65-11.89l-.27-3.28-.53-11Z" transform="translate(0 -5.43)"/><path class="cls-31" d="M257.24,225.73s6.66-5.67,4.73-13.29-9-13.3-17.83-16.35c0,0,12.67,6.32,13.32,14.82s-11.39,10.46-11.39,10.46l6,1.31s6.44-3.27,6.87-9.15c0,0,1.5,7-6.23,11.55Z" transform="translate(0 -5.43)"/><path class="cls-36" d="M241.24,220.19c6.34,0,17.16-3.12,13.7-11.78-2.08-5.19-8.1-8.22-12.51-11-5.48-3.5-10.43-7.3-14.37-12.59-3.74-5-5.5-10.55-6.31-16.71,0-.19.3-.24.33,0,1,6.36,2.77,12,6.76,17.13,4.54,5.82,10.35,9.62,16.44,13.55,4,2.59,9.25,5.75,10.44,10.81,1,4.29-1.49,7.61-5.25,9.25a23.37,23.37,0,0,1-8.59,1.8,18.12,18.12,0,0,0,3.66,2.23,22.38,22.38,0,0,0,6.34,1,.2.2,0,0,1,.05.38l-1.77.49-1.32.37c-.68.17-.1,0,.39.19,1.4.43,2.73,1.13,4.15,1.55a7.62,7.62,0,0,0,2.4.63c1.07-.13,2.73-1.7,3.5-2.39a12.44,12.44,0,0,0,2.6-3.25,12.68,12.68,0,0,0,1.42-7.23c-1.21-13.71-16.22-18.35-25.54-25.27-5.13-3.81-9.67-9.07-10.36-15.72,0-.07.11-.07.12,0,1.65,14.78,18.7,19,28.3,27.15,6.47,5.47,11.25,16,4.82,23.44-1.09,1.25-3.43,3.63-5.14,3.59a12.07,12.07,0,0,1-3-.83,24.61,24.61,0,0,1-4.24-1.75.19.19,0,0,1,0-.35l2.44-.68a19.31,19.31,0,0,1-5.29-.92,23.68,23.68,0,0,1-4.29-2.62A.2.2,0,0,1,241.24,220.19Z" transform="translate(0 -5.43)"/><path class="cls-6" d="M211,179.85s12.61-9.25,24.53-6.38c0,0,6,3.65,3.31,8.33,0,0-21.8-.67-22.72,8C216.09,189.83,208,188.1,211,179.85Z" transform="translate(0 -5.43)"/><path class="cls-37" d="M177.86,179c.18.06-6.84-.59-6.84-.59l1-19.23,4.38,2.79s7.6,10.91,7.42,11S177.86,179,177.86,179Z" transform="translate(0 -5.43)"/><line class="cls-13" x1="172" y1="152.96" x2="171.02" y2="174.12"/><path class="cls-31" d="M128.05,134.26s9.26.33,16.52,6.33,14.93,24.76,22,21.2c0,0-1.3,6-16.54-7.39S138.23,136.45,128.05,134.26Z" transform="translate(0 -5.43)"/><path class="cls-5" d="M274.21,268a8.76,8.76,0,0,0,1.54,3.82c1.21,1.43-9.1,1-12.83,1.21a110.76,110.76,0,0,0-12.79,1.82c-.55-.55-.35-3.24-.85-4.18C249.06,270.23,270.15,266.72,274.21,268Z" transform="translate(0 -5.43)"/><path class="cls-38" d="M204.92,258.95l0-.73.71.15" transform="translate(0 -5.43)"/><path class="cls-39" d="M207.05,258.63c5.25,1,19.14,3.05,27.2.14" transform="translate(0 -5.43)"/><path class="cls-38" d="M234.91,258.51l.67-.3a2.06,2.06,0,0,1,.58.44" transform="translate(0 -5.43)"/><path class="cls-40" d="M236.94,259.89c3,6.59.84,28.9-14.34,29.85-16.62,1-18.61-12.63-17.73-30" transform="translate(0 -5.43)"/><polygon class="cls-41" points="214.56 267.16 220.83 267.16 217.15 273.55 216.37 272.82 218.71 268.76 218.77 268.64 218.8 268.53 218.79 268.4 218.75 268.34 218.69 268.28 218.57 268.22 218.41 268.19 214.56 268.19 214.56 267.16 214.56 267.16"/><ellipse class="cls-17" cx="221.42" cy="262.73" rx="1.47" ry="1.48"/><polygon class="cls-41" points="221.38 268.23 217.93 274.1 218.85 274.55 221.11 270.74 221.18 270.65 221.28 270.6 221.4 270.57 221.54 270.6 221.63 270.66 221.7 270.74 223.97 274.55 224.91 274.06 221.38 268.23 221.38 268.23"/><polygon class="cls-41" points="221.91 267.15 228.25 267.15 228.25 268.16 224.38 268.16 224.25 268.2 224.14 268.25 224.05 268.35 224.01 268.47 224.01 268.58 224.04 268.7 226.43 272.81 225.68 273.52 221.91 267.15 221.91 267.15"/><path class="cls-41" d="M216.08,271.44h0a.42.42,0,0,0,0,.05.18.18,0,0,0,.13.17,1.11,1.11,0,0,0,.4.06.92.92,0,0,0,.32,0c.08,0,.12-.07.12-.12s-.15-.15-.46-.2h-.17a2.85,2.85,0,0,1-1-.26.47.47,0,0,1-.15-.16.43.43,0,0,1-.05-.21.48.48,0,0,1,.34-.44,2.54,2.54,0,0,1,1-.15,2.44,2.44,0,0,1,1,.14.46.46,0,0,1,.31.44v0H217a.16.16,0,0,0-.12-.15,1,1,0,0,0-.36-.05.86.86,0,0,0-.29,0c-.07,0-.1.06-.1.11s.18.15.53.21l.16,0,.54.11a1.45,1.45,0,0,1,.28.11.54.54,0,0,1,.2.18.43.43,0,0,1,.07.24c0,.2-.12.35-.37.46a2.77,2.77,0,0,1-1.07.16,2.36,2.36,0,0,1-1-.15.52.52,0,0,1-.31-.5v0Zm2.24.65v-2h2.33v.42h-1.45v.31h1.34v.42h-1.34v.38h1.51v.43Zm2.75,0v-2h1.11l1.18,1.31v-1.31h.84v2H223l-1.15-1.32v1.32Zm5.39-.78-.42-.71-.44.71Zm-1.33.78h-.88l1.35-2h1l1.29,2h-1l-.2-.35h-1.36Z" transform="translate(0 -5.43)"/><path class="cls-42" d="M266.43,224.44c-.44-.73-7.29,1.4-6.61,3.27s5.43,13.24,6.61,23.07,0,11.36,3.05,10.68,5.74-1.53,5.74-1.53a108,108,0,0,0-2-15.82C271.91,237.63,269.74,229.95,266.43,224.44Z" transform="translate(0 -5.43)"/><path class="cls-17" d="M262.32,229.25s4.26,10.24,5.18,17.14S269,260.22,269,260.22s-.24.49,1,0,5.1-1.46,5.1-1.46-1.08-11.3-2.27-16.2a67.35,67.35,0,0,0-5.39-16.2c-.9-1.64-5.55,2-5.55,2A1.15,1.15,0,0,0,262.32,229.25Z" transform="translate(0 -5.43)"/><path class="cls-43" d="M264.1,230.12l.53,1.5s3.21-1.48,3.93-1.36l-.73-1.63Z" transform="translate(0 -5.43)"/><path class="cls-43" d="M265.36,233.55l.43,1.43s1.8-.57,2.4-.72l-.69-1.41Z" transform="translate(0 -5.43)"/><path class="cls-43" d="M266.78,237.41l.72,2.2s4.38-.87,4.32-1.2c0-.17-.77-2.33-.77-2.33Z" transform="translate(0 -5.43)"/><polygon class="cls-43" points="269.56 244.89 269.86 246.95 274.4 246.48 274.14 244.47 269.56 244.89"/><path class="cls-43" d="M270.42,255.84l.23,2.06,4.43-.7-.29-2A39.6,39.6,0,0,1,270.42,255.84Z" transform="translate(0 -5.43)"/><path class="cls-44" d="M114.61,460.49s24.95-.95,32.73-31.92" transform="translate(0 -5.43)"/><path class="cls-44" d="M272.26,455.75s-24.92-1.58-31.91-32.74" transform="translate(0 -5.43)"/><path class="cls-45" d="M96.08,234.31c.43-.28,8.91-25.16,16.24-29.61s22.71-10.18,30.48-11,10.78-1.24,10.78-1.24l-.92-2.18s-28.26,2.25-37.46,8.83S100,215.19,92.53,232.36C92.53,232.36,91.91,237,96.08,234.31Z" transform="translate(0 -5.43)"/><path class="cls-1" d="M136.92,329.85" transform="translate(0 -5.43)"/></g><rect class="cls-46" x="17.04" y="194.43" width="330.03" height="243.76"/><path class="cls-47" d="M339.34,207.58v228.3H24.77V207.58H339.34m7.73-7.73H17V443.61h330V199.86Z" transform="translate(0 -5.43)"/><path id="_Trazado_6" data-name="&lt;Trazado&gt;" class="cls-48" d="M1.64,312.55c4-10.53,15.75-5,21.5-4.92,6.42,1.3,12,1.36,18.66,3,4.62,1.45.23,10.81-10.44,7.89a72.42,72.42,0,0,0-18.13-2.82s9.39.7,13.11,2.42,17.21,2.92,18.53,5.37-10.91,7.16-18.77,4a93.09,93.09,0,0,1-13.45-3.31s7.63,3.7,12.46,4.76C30.25,330,43,331.2,43.49,335s-11.65,2.92-18.58,1.87C21,336.21,17,336,17,336s5.49,1.81,8.42,2.87,14,2.69,15,6-17,.95-18.34,1.49C11.36,344.49-2.56,343.42,1.64,312.55Z" transform="translate(0 -5.43)"/><path id="_Trazado_7" data-name="&lt;Trazado&gt;" class="cls-49" d="M371.21,303.88c-4.13-10.89-16.3-5.15-22.25-5.09-6.65,1.34-12.43,1.41-19.31,3.07-4.78,1.5-.24,11.19,10.81,8.16a75,75,0,0,1,18.77-2.92s-9.72.72-13.57,2.51-17.81,3-19.18,5.56,11.29,7.41,19.42,4.13a96.35,96.35,0,0,0,13.92-3.42s-7.9,3.83-12.89,4.93c-5.33,1.17-18.53,2.39-19,6.27s12.05,3,19.23,1.93c4.09-.63,8.16-.85,8.16-.85s-5.68,1.87-8.72,3S332,333.91,331,337.31s17.62,1,19,1.55C361.16,336.95,375.56,335.84,371.21,303.88Z" transform="translate(0 -5.43)"/></g></g></svg>