<svg xmlns="http://www.w3.org/2000/svg" viewBox="0 0 383.03 159.98"><defs><style>.cls-1{fill:#29363e;}.cls-2{fill:#f05032;}</style></defs><title>logo_git</title><g id="Capa_2" data-name="Capa 2"><g id="FONDO_MENU_-_PORTADA" data-name="FONDO MENU - PORTADA"><path class="cls-1" d="M257.95,54.91a24.21,24.21,0,0,1,5.65,15.42c0,16.94-13.28,26.87-32.51,26.87A48.55,48.55,0,0,1,219,95.83l-5,8.09,15,.91c26.41,1.68,42,2.45,42,22.74,0,17.56-15.41,27.48-42,27.48-27.63,0-38.16-7-38.16-19.08,0-6.87,3.05-10.53,8.4-15.57a10.17,10.17,0,0,1-6.72-10.07c0-3.36,1.68-6.41,4.43-9.32s5.8-5.8,9.46-9.16c-7.48-3.66-13.13-11.6-13.13-22.9,0-17.55,11.6-29.61,35-29.61a52.37,52.37,0,0,1,14,1.53H272v13Zm-45.18,69.62c-2,2.44-4,5-4,8.09,0,6.1,7.78,7.94,18.47,7.94,8.85,0,20.91-.62,20.91-8.85,0-4.89-5.8-5.2-13.13-5.66Zm16.79-70.08c-8.4,0-14.65,4.12-14.65,14,0,7.48,4.12,12.67,14.2,12.67,8.54,0,14.35-5,14.35-13C243.45,59.19,238.25,54.45,229.55,54.45Z"/><path class="cls-1" d="M279.15,118.91V106.86l7.79-1.07c2.14-.31,2.44-.76,2.44-3.06V57.86c0-1.68-.46-2.75-2-3.2l-8.24-2.9,1.68-12.36h31.6v63.35c0,2.45.15,2.75,2.44,3.06l7.79,1.07v12.05Zm19.7-91.74c-8.7,0-13.74-5-13.74-13.75S290.15,0,298.85,0c8.85,0,13.89,4.74,13.89,13.43S307.7,27.18,298.85,27.18Z"/><path class="cls-1" d="M383,113c-6.57,3.2-16.18,6.1-24.89,6.1-18.17,0-25-7.32-25-24.58v-40c0-.91,0-1.53-1.22-1.53H321.2V39.41c13.44-1.53,18.78-8.25,20.46-24.89h14.5V36.21c0,1.06,0,1.53,1.22,1.53H378.9V53H356.16V89.48c0,9,2.14,12.52,10.38,12.52a36.34,36.34,0,0,0,12.37-2.44Z"/><path class="cls-2" d="M156.85,72.94,87,3.14a10.29,10.29,0,0,0-14.56,0L58,17.64,76.38,36A12.23,12.23,0,0,1,91.86,51.61l17.72,17.72a12.23,12.23,0,1,1-7.34,6.91L85.72,59.71V103.2a12.23,12.23,0,1,1-10.07-.36V58.95a12.11,12.11,0,0,1-4-2.67A12.25,12.25,0,0,1,69,42.88L50.87,24.76,3,72.61A10.3,10.3,0,0,0,3,87.18L72.81,157a10.3,10.3,0,0,0,14.56,0L156.85,87.5A10.3,10.3,0,0,0,156.85,72.94Z"/></g></g></svg>