<svg xmlns="http://www.w3.org/2000/svg" xmlns:xlink="http://www.w3.org/1999/xlink" viewBox="0 0 232 188.08"><defs><style>.cls-1{fill:#f05032;}.cls-2{fill:#424142;}.cls-3{fill:url(#Degradado_sin_nombre_12);}.cls-4{fill:#fff;}</style><linearGradient id="Degradado_sin_nombre_12" x1="48.17" y1="102.55" x2="104.72" y2="102.55" gradientUnits="userSpaceOnUse"><stop offset="0" stop-color="#ebebeb"/><stop offset="0.53" stop-color="#fff"/><stop offset="1" stop-color="#d1d1d1"/></linearGradient></defs><title>logo_menu</title><g id="Capa_2" data-name="Capa 2"><g id="FONDO_MENU_-_PORTADA" data-name="FONDO MENU - PORTADA"><path class="cls-1" d="M149.18,176,232,93.19V0H0V85.35L90.67,176A41.49,41.49,0,0,0,149.18,176Z"/><path class="cls-2" d="M139.42,93.66a8.56,8.56,0,0,1,2,5.46c0,6-4.7,9.5-11.5,9.5a17.18,17.18,0,0,1-4.27-.49L123.87,111l5.29.32c9.34.6,14.85.87,14.85,8,0,6.21-5.45,9.72-14.85,9.72-9.77,0-13.5-2.48-13.5-6.75,0-2.43,1.08-3.72,3-5.51a3.6,3.6,0,0,1-2.38-3.56,4.84,4.84,0,0,1,1.57-3.3c1-1,2.05-2.05,3.35-3.24a8.63,8.63,0,0,1-4.64-8.1c0-6.21,4.1-10.47,12.37-10.47a18.53,18.53,0,0,1,5,.54h10.53v4.59Zm-16,24.63a4.79,4.79,0,0,0-1.4,2.86c0,2.16,2.75,2.81,6.53,2.81,3.13,0,7.4-.22,7.4-3.13,0-1.73-2.05-1.84-4.65-2Zm5.94-24.79c-3,0-5.18,1.46-5.18,5,0,2.65,1.46,4.48,5,4.48,3,0,5.08-1.78,5.08-4.59C134.29,95.17,132.46,93.49,129.38,93.49Z"/><path class="cls-2" d="M146.92,116.3V112l2.76-.38c.76-.11.86-.27.86-1.08V94.7c0-.59-.16-1-.7-1.13l-2.92-1,.59-4.37H158.7v22.41c0,.87.05,1,.86,1.08l2.75.38v4.26Zm7-32.45c-3.08,0-4.86-1.78-4.86-4.86s1.78-4.75,4.86-4.75,4.91,1.68,4.91,4.75S157,83.84,153.89,83.84Z"/><path class="cls-2" d="M183.67,114.21a21.6,21.6,0,0,1-8.8,2.16c-6.43,0-8.86-2.59-8.86-8.7V93.52c0-.32,0-.54-.43-.54H161.8V88.17c4.75-.54,6.64-2.92,7.24-8.8h5.13V87c0,.38,0,.54.43.54h7.61V93h-8v12.91c0,3.19.76,4.43,3.67,4.43a12.86,12.86,0,0,0,4.37-.86Z"/><path class="cls-3" d="M103.66,100,79,75.34a3.64,3.64,0,0,0-5.15,0l-5.13,5.13,6.5,6.5a4.33,4.33,0,0,1,5.48,5.51l6.27,6.27a4.33,4.33,0,1,1-2.6,2.44l-5.85-5.85v15.38a4.33,4.33,0,1,1-3.56-.13V95.08a4.29,4.29,0,0,1-1.42-.95,4.33,4.33,0,0,1-.93-4.74L66.17,83,49.23,99.92a3.64,3.64,0,0,0,0,5.15l24.69,24.69a3.64,3.64,0,0,0,5.15,0l24.58-24.58A3.64,3.64,0,0,0,103.66,100Z"/><path class="cls-4" d="M61.74,24.46l2.51,13.4,2.49-13.4h1.58l-2.88,15.4H62.9L60,24.46Z"/><path class="cls-4" d="M75.11,31.28v1.54H71.35V38.3H76v1.56H69.63V24.46H76V26H71.35v5.26Z"/><path class="cls-4" d="M81,24.46c2.42,0,3.43,1.23,3.43,3.52v1.25c0,1.69-.59,2.75-1.91,3.17,1.41.42,1.94,1.56,1.94,3.21V38a3.86,3.86,0,0,0,.31,1.85H83A4,4,0,0,1,82.72,38V35.57c0-1.74-.81-2.29-2.24-2.29H79.27v6.58H77.55V24.46Zm-.44,7.26c1.36,0,2.18-.44,2.18-2.11V28.13c0-1.39-.51-2.11-1.78-2.11H79.27v5.7Z"/><path class="cls-4" d="M92.89,28.15v.42H91.26v-.51c0-1.39-.53-2.2-1.76-2.2s-1.76.81-1.76,2.18c0,3.45,5.17,3.78,5.17,8.12,0,2.33-1.12,3.85-3.48,3.85S86,38.49,86,36.16v-.88h1.61v1c0,1.39.57,2.2,1.8,2.2s1.8-.81,1.8-2.2c0-3.43-5.15-3.76-5.15-8.1,0-2.38,1.1-3.85,3.41-3.85S92.89,25.82,92.89,28.15Z"/><path class="cls-4" d="M96.12,24.46v15.4H94.41V24.46Z"/><path class="cls-4" d="M97.75,28.18c0-2.35,1.17-3.87,3.52-3.87s3.54,1.52,3.54,3.87v8c0,2.33-1.17,3.87-3.54,3.87s-3.52-1.54-3.52-3.87Zm1.69,8.05c0,1.41.59,2.22,1.83,2.22s1.83-.81,1.83-2.22V28.09c0-1.39-.57-2.22-1.83-2.22s-1.83.84-1.83,2.22Z"/><path class="cls-4" d="M108,39.86h-1.54V24.46h2.18l3.56,11.13V24.46h1.52v15.4H111.9L108,27.41Z"/><path class="cls-4" d="M117.17,36.76l-.59,3.1H115l2.95-15.4h2.49l2.95,15.4h-1.72l-.59-3.1Zm.22-1.47h3.43l-1.74-8.89Z"/><path class="cls-4" d="M130.4,39.84h-1.65l-2.55-12.26V39.86h-1.5V24.46h2.4l2.53,12.3,2.44-12.3h2.4v15.4h-1.63V27.47Z"/><path class="cls-4" d="M137.94,24.46v15.4h-1.72V24.46Z"/><path class="cls-4" d="M145.18,31.28v1.54h-3.76V38.3H146v1.56H139.7V24.46H146V26h-4.62v5.26Z"/><path class="cls-4" d="M149.14,39.86H147.6V24.46h2.18l3.56,11.13V24.46h1.52v15.4h-1.78l-3.94-12.45Z"/><path class="cls-4" d="M158.86,39.86V26H156V24.46h7.39V26h-2.84V39.86Z"/><path class="cls-4" d="M164.47,28.18c0-2.35,1.17-3.87,3.52-3.87s3.54,1.52,3.54,3.87v8c0,2.33-1.17,3.87-3.54,3.87s-3.52-1.54-3.52-3.87Zm1.69,8.05c0,1.41.59,2.22,1.83,2.22s1.83-.81,1.83-2.22V28.09c0-1.39-.57-2.22-1.83-2.22s-1.83.84-1.83,2.22Z"/><path class="cls-4" d="M72.68,46.74c2.4,0,3.5,1.45,3.5,3.83v7.77c0,2.35-1.1,3.81-3.5,3.81H69.07V46.74Zm0,13.84c1.23,0,1.83-.77,1.83-2.18V50.49c0-1.41-.59-2.18-1.85-2.18H70.79V60.58Z"/><path class="cls-4" d="M83.26,53.57v1.54H79.5v5.48h4.62v1.56H77.78V46.74h6.34v1.56H79.5v5.26Z"/><path class="cls-4" d="M95.91,50.46v1.39H94.28V50.38c0-1.39-.55-2.22-1.8-2.22s-1.8.84-1.8,2.22v8.14c0,1.39.57,2.22,1.8,2.22s1.8-.84,1.8-2.22v-2h1.63v1.91c0,2.33-1.1,3.87-3.48,3.87S89,60.76,89,58.43v-8c0-2.33,1.1-3.87,3.45-3.87S95.91,48.13,95.91,50.46Z"/><path class="cls-4" d="M104.4,50.46v8c0,2.33-1.17,3.87-3.54,3.87s-3.52-1.54-3.52-3.87v-8c0-2.35,1.17-3.87,3.52-3.87S104.4,48.11,104.4,50.46ZM99,50.38v8.14c0,1.41.59,2.22,1.83,2.22s1.83-.81,1.83-2.22V50.38c0-1.39-.57-2.22-1.83-2.22S99,49,99,50.38Zm4-6.82-2,2.27H99.81l1.54-2.27Z"/><path class="cls-4" d="M109.64,46.74c2.4,0,3.5,1.45,3.5,3.83v7.77c0,2.35-1.1,3.81-3.5,3.81H106V46.74Zm0,13.84c1.23,0,1.83-.77,1.83-2.18V50.49c0-1.41-.59-2.18-1.85-2.18h-1.85V60.58Z"/><path class="cls-4" d="M116.46,46.74v15.4h-1.72V46.74Z"/><path class="cls-4" d="M125,50.46v1.32h-1.63V50.38c0-1.39-.55-2.22-1.8-2.22s-1.8.84-1.8,2.22v8.14c0,1.39.57,2.22,1.8,2.22s1.8-.84,1.8-2.22V55.44h-1.58V53.9H125v4.53c0,2.33-1.1,3.87-3.48,3.87s-3.45-1.54-3.45-3.87v-8c0-2.33,1.1-3.87,3.45-3.87S125,48.13,125,50.46Z"/><path class="cls-4" d="M126.51,50.46c0-2.35,1.17-3.87,3.52-3.87s3.54,1.52,3.54,3.87v8c0,2.33-1.17,3.87-3.54,3.87s-3.52-1.54-3.52-3.87Zm1.69,8.05c0,1.41.59,2.22,1.83,2.22s1.83-.81,1.83-2.22V50.38c0-1.39-.57-2.22-1.83-2.22s-1.83.84-1.83,2.22Z"/><path class="cls-4" d="M145.41,50.46v1.39h-1.63V50.38c0-1.39-.55-2.22-1.8-2.22s-1.8.84-1.8,2.22v8.14c0,1.39.57,2.22,1.8,2.22s1.8-.84,1.8-2.22v-2h1.63v1.91c0,2.33-1.1,3.87-3.48,3.87s-3.45-1.54-3.45-3.87v-8c0-2.33,1.1-3.87,3.45-3.87S145.41,48.13,145.41,50.46Z"/><path class="cls-4" d="M146.84,50.46c0-2.35,1.17-3.87,3.52-3.87s3.54,1.52,3.54,3.87v8c0,2.33-1.17,3.87-3.54,3.87s-3.52-1.54-3.52-3.87Zm1.69,8.05c0,1.41.59,2.22,1.83,2.22s1.83-.81,1.83-2.22V50.38c0-1.39-.57-2.22-1.83-2.22s-1.83.84-1.83,2.22Z"/><path class="cls-4" d="M157,62.15h-1.54V46.74h2.18l3.56,11.13V46.74h1.52v15.4H161L157,49.69Z"/></g></g></svg>