<svg xmlns="http://www.w3.org/2000/svg" viewBox="0 0 658.73 600"><defs><style>.cls-1{fill:#f05032;}.cls-2,.cls-6{fill:#fff;}.cls-2{fill-rule:evenodd;}.cls-3{fill:#1a1a1a;opacity:0.3;}.cls-4{fill:#29363e;}.cls-5{fill:#333;}.cls-7{fill:#c2c7cb;}.cls-10,.cls-21,.cls-22,.cls-28,.cls-30,.cls-8,.cls-9{fill:none;}.cls-8{stroke:#bec3c7;stroke-width:2.83px;}.cls-10,.cls-21,.cls-22,.cls-23,.cls-24,.cls-25,.cls-26,.cls-27,.cls-28,.cls-30,.cls-8,.cls-9{stroke-miterlimit:10;}.cls-9{stroke:#e4e8ea;stroke-width:7.07px;}.cls-10{stroke:#333;stroke-width:5.66px;}.cls-11{fill:#c6c6b0;}.cls-12{fill:#dcddc3;}.cls-13{fill:#543a1d;}.cls-14{fill:#f9ebbc;opacity:0.25;}.cls-15{fill:#da2329;}.cls-16{fill:#ead79d;}.cls-17{fill:#bf6666;}.cls-18{fill:#c6bc6a;}.cls-19{fill:#e5912f;}.cls-20{fill:#1b2d3f;}.cls-21,.cls-22,.cls-28,.cls-30{stroke:#8b8b8b;}.cls-21,.cls-22{stroke-width:0.38px;}.cls-22{stroke-dasharray:1.13 1.13;}.cls-23{fill:#bcd54b;stroke:#9ec61c;}.cls-23,.cls-24,.cls-25,.cls-26,.cls-27{stroke-width:0.95px;}.cls-24{fill:#c596c4;stroke:#a87ea8;}.cls-25{fill:#f8a35e;stroke:#d38953;}.cls-26{fill:#78cfeb;stroke:#65b0c1;}.cls-27{fill:#fbed38;stroke:#cebe29;}.cls-28{stroke-linecap:round;}.cls-28,.cls-30{stroke-width:0.7px;}.cls-29{fill:#8b8b8b;}.cls-31{fill:#e7ad47;}.cls-32{fill:#f1f1f1;opacity:0.41;}.cls-33{fill:#1e1e1e;}.cls-34{fill:#2f5288;}</style></defs><title>portada</title><g id="Capa_2" data-name="Capa 2"><g id="FONDO_MENU_-_PORTADA" data-name="FONDO MENU - PORTADA"><path class="cls-1" d="M627.52,234.48,393,0H0V600H413.33l214.2-214.2C669.13,344.19,669.13,276.1,627.52,234.48Z"/><g id="_Grupo_" data-name="&lt;Grupo&gt;"><g id="_Grupo_2" data-name="&lt;Grupo&gt;"><path id="_Trazado_" data-name="&lt;Trazado&gt;" class="cls-2" d="M580.14,262.4a9.92,9.92,0,1,1-9.87,9.92,9.91,9.91,0,0,1,9.87-9.92"/><path id="_Trazado_compuesto_" data-name="&lt;Trazado compuesto&gt;" class="cls-2" d="M544.21,294.43v0l0,.36A1.22,1.22,0,0,0,545,296a7.36,7.36,0,0,0,2.71.37,6.28,6.28,0,0,0,2.19-.31q.8-.31.8-.84c0-.54-1-1-3.14-1.32l-.55-.09-.59-.1q-5-.81-6.39-1.77a3.29,3.29,0,0,1-1-1.1,3,3,0,0,1-.35-1.43q0-1.95,2.29-3a17.12,17.12,0,0,1,6.69-1,16.46,16.46,0,0,1,6.45,1,3.12,3.12,0,0,1,2.1,2.94v.15H550.7v-.06a1.12,1.12,0,0,0-.83-1,6.56,6.56,0,0,0-2.44-.35,5.77,5.77,0,0,0-1.92.25c-.45.17-.68.41-.68.71q0,.82,3.59,1.4l1.09.17q2.56.43,3.64.74A9.53,9.53,0,0,1,555,292a3.68,3.68,0,0,1,1.35,1.21,2.89,2.89,0,0,1,.48,1.61q0,2-2.49,3.08a18.67,18.67,0,0,1-7.17,1.08q-4.62,0-6.69-1a3.48,3.48,0,0,1-2.06-3.33v-.19Zm15,4.34V285.62h15.66v2.84h-9.78v2.1h9v2.8h-9v2.55h10.15v2.87Zm18.49,0V285.62h7.44l8,8.82v-8.82h5.65v13.15h-7.72l-7.71-8.86v8.86ZM614,293.52l-2.81-4.78-3,4.78Zm-9,5.25h-5.9l9.1-13.15h6.52l8.68,13.15H616.9l-1.33-2.37h-9.12Z"/><path id="_Trazado_2" data-name="&lt;Trazado&gt;" class="cls-2" d="M551.44,345.14l-5.25-4.94,16-27.75a2.27,2.27,0,0,0-2-3.41H534V302.1h42.14Z"/><path id="_Trazado_3" data-name="&lt;Trazado&gt;" class="cls-2" d="M608.38,345.14l5.25-4.94-16-27.75a2.27,2.27,0,0,1,2-3.41h26.18V302.1H583.66Z"/><path id="_Trazado_4" data-name="&lt;Trazado&gt;" class="cls-2" d="M579.85,309.44l.06-.1,23.74,39.25-6.3,3.28-15.3-25.62a2.32,2.32,0,0,0-4,0l-15.2,25.62-6.17-3.05,23.16-39.38"/></g></g><rect class="cls-3" x="138.88" y="141.06" width="276.16" height="386.61" transform="translate(-35.92 33.35) rotate(-6.47)"/><rect class="cls-4" x="128.13" y="132.32" width="276.16" height="386.61" transform="translate(-35.01 32.08) rotate(-6.47)"/><path class="cls-5" d="M284.87,490.08c50.86-5.77,95.14-7.23,116.1-4.46L391.25,400,161,426.07l9.72,85.67C190.53,504.35,234,495.85,284.87,490.08Z"/><rect class="cls-6" x="145.77" y="159.1" width="240.49" height="329.46" transform="translate(-34.8 32.05) rotate(-6.47)"/><rect class="cls-7" x="146.28" y="235.88" width="215.62" height="2.94" transform="translate(-25.13 30.15) rotate(-6.47)"/><rect class="cls-7" x="147.06" y="242.76" width="215.62" height="2.94" transform="translate(-25.9 30.28) rotate(-6.47)"/><rect class="cls-7" x="147.84" y="249.63" width="215.62" height="2.94" transform="translate(-26.67 30.41) rotate(-6.47)"/><rect class="cls-7" x="148.88" y="261.18" width="132.74" height="2.94" transform="translate(-28.23 25.94) rotate(-6.47)"/><rect class="cls-7" x="172.4" y="444.06" width="215.62" height="2.94" transform="translate(-48.43 34.42) rotate(-6.47)"/><rect class="cls-7" x="173.18" y="450.93" width="215.62" height="2.94" transform="translate(-49.2 34.55) rotate(-6.47)"/><rect class="cls-7" x="173.96" y="457.81" width="215.62" height="2.94" transform="translate(-49.97 34.69) rotate(-6.47)"/><path class="cls-8" d="M305.47,141.09,186.63,154.57a7.07,7.07,0,0,0-6.23,7.83l2.09,18.45a7.07,7.07,0,0,0,7.83,6.23L234.93,182l4.16-6.57L259,173.18l5.53,5.47,44.61-5.06a7.07,7.07,0,0,0,6.23-7.83l-2.09-18.45A7.07,7.07,0,0,0,305.47,141.09Z"/><line class="cls-9" x1="186.63" y1="154.57" x2="305.47" y2="141.09"/><path class="cls-10" d="M181.8,174.71l.7,6.14a7.07,7.07,0,0,0,7.83,6.23l7.08-.8"/><path class="cls-10" d="M302.07,174.4l7.08-.8a7.07,7.07,0,0,0,6.23-7.83l-.7-6.14"/><circle class="cls-3" cx="460.63" cy="171" r="48.84" transform="translate(30.08 407.76) rotate(-49.17)"/><path class="cls-11" d="M498.95,106.57a5.72,5.72,0,0,1,.59,8.07l-19.48,22.55a5.72,5.72,0,0,1-8.07.59l-2.67-2.31a5.72,5.72,0,0,1-.59-8.07l19.48-22.55a5.72,5.72,0,0,1,8.07-.59Z"/><circle class="cls-12" cx="451.62" cy="158.65" r="48.84" transform="translate(36.31 396.66) rotate(-49.17)"/><circle class="cls-13" cx="451.62" cy="158.65" r="41.33" transform="translate(36.31 396.66) rotate(-49.17)"/><circle class="cls-14" cx="451.71" cy="158.54" r="30.69" transform="translate(36.42 396.69) rotate(-49.17)"/><path class="cls-3" d="M24.71,214.62a5.26,5.26,0,1,0-7.9,7l6,6.81,9.74,11.06h0l98,111.25c.5.57,11.64,9,17.59,13.43l3.58,2.69.1.07s-2.38-4.2-5.13-9c-3.6-6.31-7.84-13.68-8.23-14.13Z"/><path class="cls-15" d="M19.15,203.27a5.27,5.27,0,0,0-.47,7.43l113.7,129.12c.69.79,21.27,16.19,21.27,16.19S141,333.65,140.29,332.86L26.58,203.75A5.26,5.26,0,0,0,19.15,203.27Z"/><path class="cls-16" d="M140.29,332.86l-7.9,7c.69.79,21.27,16.19,21.27,16.19S141,333.65,140.29,332.86Z"/><path class="cls-15" d="M146.62,343.68l-4.32,3.8c5.55,4.19,11.35,8.53,11.35,8.53S150.08,349.71,146.62,343.68Z"/><path class="cls-17" d="M19.15,203.27a5.27,5.27,0,0,0-.47,7.43l6,6.81,7.9-7-6-6.81A5.26,5.26,0,0,0,19.15,203.27Z"/><rect class="cls-18" x="28.23" y="212.2" width="10.53" height="14.73" transform="translate(-136.73 76.89) rotate(-41.36)"/><path class="cls-3" d="M480.67,297.63A5.13,5.13,0,0,0,474.9,302L452.69,468.4c-.07.5.36,7,.8,13.38.42,6.14.87,12.16.9,12.61v0s1.56-4.42,3.34-9.52c2.34-6.7,5.06-14.57,5.14-15.14L485.08,303.4A5.14,5.14,0,0,0,480.67,297.63Z"/><path class="cls-19" d="M474.16,290.84a5.13,5.13,0,0,0-5.77,4.41L446.18,461.61c-.13,1,1.71,26,1.71,26S456.23,464,456.36,463l22.21-166.36A5.14,5.14,0,0,0,474.16,290.84Z"/><path class="cls-16" d="M456.36,463l-10.18-1.36c-.13,1,1.71,26,1.71,26S456.23,464,456.36,463Z"/><path class="cls-20" d="M452.46,474.56l-5.56-.74c.46,6.76,1,13.81,1,13.81S450.24,481,452.46,474.56Z"/><path class="cls-17" d="M474.16,290.84a5.13,5.13,0,0,0-5.77,4.41L467.22,304l10.18,1.36,1.17-8.77A5.14,5.14,0,0,0,474.16,290.84Z"/><rect class="cls-18" x="464.18" y="306.69" width="14.37" height="10.27" transform="translate(99.99 737.85) rotate(-82.41)"/><line x1="182.5" y1="311.19" x2="367.33" y2="289.91"/><line class="cls-21" x1="182.5" y1="311.19" x2="183.06" y2="311.13"/><line class="cls-22" x1="184.19" y1="311" x2="366.2" y2="290.04"/><line class="cls-21" x1="366.77" y1="289.97" x2="367.33" y2="289.91"/><line x1="184.84" y1="331.57" x2="369.67" y2="310.29"/><line class="cls-21" x1="184.84" y1="331.57" x2="185.41" y2="331.51"/><line class="cls-22" x1="186.53" y1="331.38" x2="368.55" y2="310.42"/><line class="cls-21" x1="369.11" y1="310.35" x2="369.67" y2="310.29"/><line x1="187.22" y1="352.25" x2="372.05" y2="330.96"/><line class="cls-21" x1="187.22" y1="352.25" x2="187.79" y2="352.18"/><line class="cls-22" x1="188.91" y1="352.05" x2="370.93" y2="331.09"/><line class="cls-21" x1="371.49" y1="331.02" x2="372.05" y2="330.96"/><line x1="191.94" y1="393.22" x2="376.77" y2="371.93"/><line class="cls-21" x1="191.94" y1="393.22" x2="192.5" y2="393.15"/><line class="cls-22" x1="193.63" y1="393.02" x2="375.65" y2="372.06"/><line class="cls-21" x1="376.21" y1="372" x2="376.77" y2="371.93"/><line x1="189.56" y1="372.51" x2="374.39" y2="351.22"/><line class="cls-21" x1="189.56" y1="372.51" x2="190.12" y2="372.44"/><line class="cls-22" x1="191.25" y1="372.31" x2="373.26" y2="351.35"/><line class="cls-21" x1="373.83" y1="351.29" x2="374.39" y2="351.22"/><line x1="194.29" y1="413.58" x2="379.12" y2="392.3"/><line class="cls-21" x1="194.29" y1="413.58" x2="194.85" y2="413.52"/><line class="cls-22" x1="195.98" y1="413.39" x2="377.99" y2="392.43"/><line class="cls-21" x1="378.56" y1="392.36" x2="379.12" y2="392.3"/><circle class="cls-23" cx="201.31" cy="309.03" r="5.32" transform="translate(-34.03 25.06) rotate(-6.57)"/><circle class="cls-24" cx="223.87" cy="326.97" r="5.32" transform="matrix(0.99, -0.11, 0.11, 0.99, -35.94, 27.76)"/><circle class="cls-25" cx="228.6" cy="368.02" r="5.32" transform="translate(-40.6 28.57) rotate(-6.57)"/><circle class="cls-26" cx="272.33" cy="383.96" r="5.32" transform="translate(-42.14 33.68) rotate(-6.57)"/><circle class="cls-26" cx="233.36" cy="409.42" r="5.32" transform="translate(-45.31 29.39) rotate(-6.57)"/><circle class="cls-26" cx="254.19" cy="407.02" r="5.32" transform="translate(-44.9 31.75) rotate(-6.57)"/><circle class="cls-26" cx="274.71" cy="404.66" r="5.32" transform="translate(-44.49 34.09) rotate(-6.57)"/><circle class="cls-26" cx="295.18" cy="402.3" r="5.32" transform="translate(-44.09 36.41) rotate(-6.57)"/><circle class="cls-26" cx="292.8" cy="381.61" r="5.32" transform="translate(-41.74 36) rotate(-6.57)"/><circle class="cls-25" cx="249.42" cy="365.62" r="5.32" transform="translate(-40.19 30.94) rotate(-6.57)"/><circle class="cls-25" cx="269.94" cy="363.26" r="5.32" transform="translate(-39.79 33.27) rotate(-6.57)"/><circle class="cls-25" cx="311.22" cy="358.51" r="5.32" transform="translate(-38.97 37.96) rotate(-6.57)"/><circle class="cls-25" cx="372.85" cy="351.41" r="5.32" transform="translate(-37.75 44.96) rotate(-6.57)"/><circle class="cls-23" cx="242.36" cy="304.3" r="5.32" transform="translate(-33.22 29.72) rotate(-6.57)"/><circle class="cls-27" cx="329.37" cy="335.88" r="5.32" transform="translate(-36.26 39.89) rotate(-6.57)"/><circle class="cls-27" cx="350.1" cy="333.49" r="5.32" transform="translate(-35.85 42.24) rotate(-6.57)"/><circle class="cls-23" cx="345.38" cy="292.44" r="5.32" transform="translate(-31.19 41.43) rotate(-6.57)"/><line class="cls-28" x1="208.11" y1="308.24" x2="234.56" y2="305.2"/><path class="cls-29" d="M230.17,309.11a.35.35,0,0,1,.05-.5l4.18-3.4-4.85-2.36a.35.35,0,1,1,.31-.63l5.34,2.6a.35.35,0,0,1,.07.59l-4.61,3.74a.35.35,0,0,1-.5-.05Z"/><line class="cls-28" x1="229.59" y1="331.53" x2="263.81" y2="358.37"/><path class="cls-29" d="M257.93,358.06a.35.35,0,0,1,.39-.32l5.36.53-1.79-5.08a.35.35,0,1,1,.66-.23l2,5.6a.35.35,0,0,1-.37.47l-5.91-.58a.35.35,0,0,1-.32-.39Z"/><line class="cls-28" x1="206.65" y1="313.26" x2="217.87" y2="322.06"/><path class="cls-29" d="M212,321.75a.35.35,0,0,1,.39-.32l5.36.53L216,316.88a.35.35,0,1,1,.66-.23l2,5.6a.35.35,0,0,1-.37.47l-5.91-.58a.35.35,0,0,1-.32-.39Z"/><line class="cls-28" x1="255.38" y1="370.29" x2="266.6" y2="379.09"/><path class="cls-29" d="M260.72,378.78a.35.35,0,0,1,.39-.32l5.36.53-1.79-5.08a.35.35,0,1,1,.66-.23l2,5.6a.35.35,0,0,1-.37.47l-5.91-.58a.35.35,0,0,1-.32-.39Z"/><line class="cls-28" x1="297.73" y1="375.85" x2="306.53" y2="364.63"/><path class="cls-29" d="M306.22,370.5a.35.35,0,0,1-.32-.39l.53-5.36-5.08,1.79a.35.35,0,1,1-.23-.66l5.6-2a.35.35,0,0,1,.47.37l-.58,5.91a.35.35,0,0,1-.39.32Z"/><line class="cls-28" x1="315.97" y1="352.85" x2="324.77" y2="341.64"/><path class="cls-29" d="M324.46,347.51a.35.35,0,0,1-.32-.39l.53-5.36-5.08,1.79a.35.35,0,1,1-.23-.66l5.6-2a.35.35,0,0,1,.47.37l-.58,5.91a.35.35,0,0,1-.39.32Z"/><line class="cls-28" x1="355.46" y1="337.55" x2="366.68" y2="346.36"/><path class="cls-29" d="M360.8,346a.35.35,0,0,1,.39-.32l5.36.53-1.79-5.08a.35.35,0,1,1,.66-.23l2,5.6a.35.35,0,0,1-.37.47l-5.91-.58a.35.35,0,0,1-.32-.39Z"/><line class="cls-28" x1="203.39" y1="318.63" x2="223.71" y2="360.65"/><path class="cls-29" d="M218.57,357.79a.35.35,0,0,1,.49-.11l4.58,2.83.63-5.35a.35.35,0,1,1,.7.08l-.69,5.9a.35.35,0,0,1-.53.26l-5.05-3.12a.35.35,0,0,1-.11-.49Z"/><line class="cls-28" x1="249.24" y1="303.51" x2="337.52" y2="293.34"/><path class="cls-29" d="M333.12,297.25a.35.35,0,0,1,.05-.5l4.18-3.4L332.51,291a.35.35,0,1,1,.31-.63l5.34,2.6a.35.35,0,0,1,.07.59l-4.61,3.74a.35.35,0,0,1-.5-.05Z"/><line class="cls-29" x1="235.65" y1="367.21" x2="242.21" y2="366.45"/><line class="cls-30" x1="235.65" y1="367.21" x2="241.58" y2="366.53"/><path class="cls-29" d="M238.28,369.46a.26.26,0,0,1,0-.37l3.14-2.55-3.63-1.77a.26.26,0,1,1,.23-.48l4,1.95a.26.26,0,0,1,.05.44l-3.46,2.81a.26.26,0,0,1-.37,0Z"/><line class="cls-29" x1="261.24" y1="405.87" x2="267.8" y2="405.12"/><line class="cls-30" x1="261.24" y1="405.87" x2="267.17" y2="405.19"/><path class="cls-29" d="M263.88,408.12a.26.26,0,0,1,0-.37l3.14-2.55-3.63-1.77a.26.26,0,1,1,.23-.48l4,1.95a.26.26,0,0,1,.05.44l-3.46,2.81a.26.26,0,0,1-.37,0Z"/><line class="cls-29" x1="240.7" y1="408.24" x2="247.26" y2="407.48"/><line class="cls-30" x1="240.7" y1="408.24" x2="246.63" y2="407.55"/><path class="cls-29" d="M243.33,410.49a.26.26,0,0,1,0-.37l3.14-2.55-3.63-1.77a.26.26,0,1,1,.23-.48l4,1.95a.26.26,0,0,1,.05.44l-3.46,2.81a.26.26,0,0,1-.37,0Z"/><line class="cls-29" x1="229.46" y1="375.49" x2="232.55" y2="402.34"/><line class="cls-30" x1="229.46" y1="375.49" x2="232.48" y2="401.71"/><path class="cls-29" d="M229.54,398.42a.26.26,0,0,1,.37,0l2.55,3.14,1.77-3.63a.26.26,0,1,1,.48.23l-1.95,4a.26.26,0,0,1-.44.05l-2.81-3.46a.26.26,0,0,1,0-.37Z"/><line class="cls-29" x1="348.87" y1="326.15" x2="345.78" y2="299.3"/><line class="cls-30" x1="348.87" y1="326.15" x2="345.85" y2="299.93"/><path class="cls-29" d="M348.79,303.23a.26.26,0,0,1-.37,0L345.87,300l-1.77,3.63a.26.26,0,1,1-.48-.23l1.95-4a.26.26,0,0,1,.44-.05l2.81,3.46a.26.26,0,0,1,0,.37Z"/><line class="cls-29" x1="281.78" y1="403.51" x2="288.34" y2="402.75"/><line class="cls-30" x1="281.78" y1="403.51" x2="287.71" y2="402.82"/><path class="cls-29" d="M284.41,405.76a.26.26,0,0,1,0-.37l3.14-2.55L284,401.07a.26.26,0,1,1,.23-.48l4,1.95a.26.26,0,0,1,.05.44l-3.46,2.81a.26.26,0,0,1-.37,0Z"/><line class="cls-29" x1="279.43" y1="383.15" x2="285.99" y2="382.39"/><line class="cls-30" x1="279.43" y1="383.15" x2="285.36" y2="382.46"/><path class="cls-29" d="M282.06,385.39a.26.26,0,0,1,0-.37l3.14-2.55-3.63-1.77a.26.26,0,1,1,.23-.48l4,1.95a.26.26,0,0,1,.05.44l-3.46,2.81a.26.26,0,0,1-.37,0Z"/><line class="cls-29" x1="336.43" y1="335.06" x2="342.99" y2="334.31"/><line class="cls-30" x1="336.43" y1="335.06" x2="342.36" y2="334.38"/><path class="cls-29" d="M339.06,337.31a.26.26,0,0,1,0-.37l3.14-2.55-3.63-1.77a.26.26,0,1,1,.23-.48l4,1.95a.26.26,0,0,1,.05.44l-3.46,2.81a.26.26,0,0,1-.37,0Z"/><line class="cls-29" x1="343.81" y1="278.84" x2="344.57" y2="285.4"/><line class="cls-30" x1="343.81" y1="278.84" x2="344.49" y2="284.77"/><path class="cls-29" d="M341.56,281.47a.26.26,0,0,1,.37,0l2.55,3.14,1.77-3.63a.26.26,0,1,1,.48.23l-1.95,4a.26.26,0,0,1-.44.05l-2.81-3.46a.26.26,0,0,1,0-.37Z"/><line class="cls-29" x1="240.79" y1="290.7" x2="241.55" y2="297.26"/><line class="cls-30" x1="240.79" y1="290.7" x2="241.47" y2="296.63"/><path class="cls-29" d="M238.54,293.34a.26.26,0,0,1,.37,0l2.55,3.14,1.77-3.63a.26.26,0,1,1,.48.23l-1.95,4a.26.26,0,0,1-.44.05l-2.81-3.46a.26.26,0,0,1,0-.37Z"/><line class="cls-29" x1="199.74" y1="295.43" x2="200.5" y2="301.99"/><line class="cls-30" x1="199.74" y1="295.43" x2="200.43" y2="301.36"/><path class="cls-29" d="M197.5,298.06a.26.26,0,0,1,.37,0l2.55,3.14,1.77-3.63a.26.26,0,1,1,.48.23l-1.95,4a.26.26,0,0,1-.44.05l-2.81-3.46a.26.26,0,0,1,0-.37Z"/><line class="cls-29" x1="256.07" y1="364.86" x2="262.63" y2="364.1"/><line class="cls-30" x1="256.07" y1="364.86" x2="262" y2="364.17"/><path class="cls-29" d="M258.7,367.11a.26.26,0,0,1,0-.37l3.14-2.55-3.63-1.77a.26.26,0,1,1,.23-.48l4,1.95a.26.26,0,0,1,.05.44l-3.46,2.81a.26.26,0,0,1-.37,0Z"/><line class="cls-29" x1="276.94" y1="362.45" x2="304.14" y2="359.32"/><line class="cls-30" x1="276.94" y1="362.45" x2="303.51" y2="359.39"/><path class="cls-29" d="M300.21,362.33a.26.26,0,0,1,0-.37l3.14-2.55-3.63-1.77a.26.26,0,1,1,.23-.48l4,1.95a.26.26,0,0,1,.05.44l-3.46,2.81a.26.26,0,0,1-.37,0Z"/><line class="cls-29" x1="318.16" y1="357.71" x2="365.93" y2="352.2"/><line class="cls-30" x1="318.16" y1="357.71" x2="365.3" y2="352.28"/><path class="cls-29" d="M362,355.21a.26.26,0,0,1,0-.37l3.14-2.55-3.63-1.77a.26.26,0,1,1,.23-.48l4,1.95a.26.26,0,0,1,.05.44l-3.46,2.81a.26.26,0,0,1-.37,0Z"/><rect class="cls-23" x="158.01" y="308.52" width="25.54" height="8.05" rx="4.03" ry="4.03" transform="translate(-34.64 21.59) rotate(-6.57)"/><rect class="cls-24" x="160.34" y="328.79" width="25.54" height="8.05" rx="4.03" ry="4.03" transform="translate(-36.94 21.99) rotate(-6.57)"/><rect class="cls-27" x="162.74" y="349.57" width="25.54" height="8.05" rx="4.03" ry="4.03" transform="translate(-39.3 22.4) rotate(-6.57)"/><rect class="cls-25" x="165.07" y="369.84" width="25.54" height="8.05" rx="4.03" ry="4.03" transform="translate(-41.6 22.8) rotate(-6.57)"/><rect class="cls-26" x="167.46" y="390.54" width="25.54" height="8.05" rx="4.03" ry="4.03" transform="translate(-43.96 23.21) rotate(-6.57)"/><rect class="cls-26" x="169.84" y="411.24" width="25.54" height="8.05" rx="4.03" ry="4.03" transform="translate(-46.31 23.62) rotate(-6.57)"/><rect class="cls-23" x="190.63" y="285.1" width="16.9" height="9.1" rx="4.55" ry="4.55" transform="translate(-31.83 24.68) rotate(-6.57)"/><rect class="cls-23" x="231.67" y="280.37" width="16.9" height="9.1" rx="4.55" ry="4.55" transform="translate(-31.02 29.34) rotate(-6.57)"/><rect class="cls-23" x="334.69" y="268.51" width="16.9" height="9.1" rx="4.55" ry="4.55" transform="translate(-28.99 41.05) rotate(-6.57)"/><path d="M195.38,291.93l-1.46-3.14.74-.09.7,1.61.21.54.09-.57.32-1.73.73-.08-.69,3.39Z"/><path d="M198,287a1,1,0,0,1,.93.41,5,5,0,0,1,.41,3.58,1,1,0,0,1-1.74.2,3.52,3.52,0,0,1-.54-1.76,3.49,3.49,0,0,1,.13-1.82A1,1,0,0,1,198,287Zm.08.72q-.21,0-.3.32a7,7,0,0,0,.3,2.62q.16.26.37.24t.3-.32a7,7,0,0,0-.3-2.61Q198.33,287.73,198.12,287.76Z"/><path d="M200.38,291.35l-.1-.86.71-.08.1.86Z"/><path d="M203.48,291l-.71.08-.37-3.26a2.45,2.45,0,0,1-.84.76l-.09-.78a2,2,0,0,0,.56-.5,1.67,1.67,0,0,0,.36-.76l.57-.07Z"/><path d="M175,418l-.43-3.76,2.11-.24.07.64-1.49.17.1.89,1.29-.15.07.64-1.29.15.18,1.6Z"/><path d="M178.81,416.68l.6.05a1.17,1.17,0,0,1-.3.65,1,1,0,0,1-.58.27.94.94,0,0,1-.8-.24,1.66,1.66,0,0,1-.44-1,1.74,1.74,0,0,1,.19-1.13.86.86,0,0,1,.66-.43.9.9,0,0,1,.79.27,2,2,0,0,1,.45,1.16v.08l-1.48.17a.82.82,0,0,0,.2.48.42.42,0,0,0,.36.14Q178.76,417.08,178.81,416.68Zm-.05-.73a.8.8,0,0,0-.19-.46.38.38,0,0,0-.32-.13.39.39,0,0,0-.3.2.75.75,0,0,0-.07.49Z"/><path d="M180.23,415.47l-.55-.06a1,1,0,0,1,.25-.63,1,1,0,0,1,.62-.25,1.25,1.25,0,0,1,.58,0,.62.62,0,0,1,.31.25,1.75,1.75,0,0,1,.16.65l.09.84a3.61,3.61,0,0,0,.09.52,1.81,1.81,0,0,0,.15.36l-.58.07-.11-.29a1.1,1.1,0,0,1-.29.31.78.78,0,0,1-.36.13.71.71,0,0,1-.56-.16.82.82,0,0,1-.27-.56.91.91,0,0,1,0-.41.69.69,0,0,1,.21-.3,1.59,1.59,0,0,1,.47-.24,2.82,2.82,0,0,0,.55-.24.88.88,0,0,0-.07-.29.25.25,0,0,0-.13-.1.53.53,0,0,0-.25,0,.4.4,0,0,0-.24.1A.52.52,0,0,0,180.23,415.47Zm.86.5-.34.15a.83.83,0,0,0-.34.2.31.31,0,0,0-.06.24.39.39,0,0,0,.12.25.3.3,0,0,0,.25.08.43.43,0,0,0,.24-.11.46.46,0,0,0,.15-.22,1.32,1.32,0,0,0,0-.43Z"/><path d="M183.11,414.3l.07.57-.4,0,.13,1.1a2.42,2.42,0,0,0,.07.41.14.14,0,0,0,.16.09.64.64,0,0,0,.23-.1l.12.55a1,1,0,0,1-.45.16.57.57,0,0,1-.37-.07.53.53,0,0,1-.22-.29,3.22,3.22,0,0,1-.11-.6l-.14-1.19-.27,0-.07-.57.27,0-.06-.54.54-.49.11,1Z"/><path d="M185.3,416.8l0-.41a.94.94,0,0,1-.28.38.78.78,0,0,1-.4.17.69.69,0,0,1-.7-.37,1.74,1.74,0,0,1-.16-.61l-.2-1.72.59-.07.14,1.25a5.09,5.09,0,0,0,.11.68.38.38,0,0,0,.14.21.33.33,0,0,0,.23.05.42.42,0,0,0,.26-.14.49.49,0,0,0,.13-.29,3.93,3.93,0,0,0,0-.72l-.13-1.15.59-.07.31,2.72Z"/><path d="M187,416.6l-.59.07-.31-2.72.55-.06,0,.39a1.19,1.19,0,0,1,.21-.39.4.4,0,0,1,.25-.12.65.65,0,0,1,.4.09l-.11.65a.45.45,0,0,0-.29-.09.3.3,0,0,0-.21.12.61.61,0,0,0-.1.35,6.18,6.18,0,0,0,.06.88Z"/><path d="M189.33,415.46l.6.05a1.17,1.17,0,0,1-.3.65,1,1,0,0,1-.58.27.94.94,0,0,1-.8-.24,1.66,1.66,0,0,1-.44-1A1.74,1.74,0,0,1,188,414a.86.86,0,0,1,.66-.43.9.9,0,0,1,.79.27,2,2,0,0,1,.45,1.16v.08l-1.48.17a.82.82,0,0,0,.2.48.42.42,0,0,0,.36.14Q189.28,415.86,189.33,415.46Zm-.05-.73a.8.8,0,0,0-.19-.46.38.38,0,0,0-.32-.13.39.39,0,0,0-.3.2.75.75,0,0,0-.07.49Z"/><path d="M172.59,397.12l-.43-3.76,2.11-.24.07.64-1.49.17.1.89,1.29-.15.07.64-1.29.15.18,1.6Z"/><path d="M176.41,395.8l.6.05a1.17,1.17,0,0,1-.3.65,1,1,0,0,1-.58.27.94.94,0,0,1-.8-.24,1.66,1.66,0,0,1-.44-1,1.74,1.74,0,0,1,.19-1.13.86.86,0,0,1,.66-.43.9.9,0,0,1,.79.27,2,2,0,0,1,.45,1.16v.08l-1.48.17a.82.82,0,0,0,.2.48.42.42,0,0,0,.36.14Q176.36,396.2,176.41,395.8Zm-.05-.73a.8.8,0,0,0-.19-.46.38.38,0,0,0-.32-.13.39.39,0,0,0-.3.2.75.75,0,0,0-.07.49Z"/><path d="M177.83,394.59l-.55-.06a1,1,0,0,1,.25-.63,1,1,0,0,1,.62-.25,1.25,1.25,0,0,1,.58,0,.62.62,0,0,1,.31.25,1.75,1.75,0,0,1,.16.65l.09.84a3.61,3.61,0,0,0,.09.52,1.81,1.81,0,0,0,.15.36l-.58.07-.11-.29a1.1,1.1,0,0,1-.29.31.78.78,0,0,1-.36.13.71.71,0,0,1-.56-.16.82.82,0,0,1-.27-.56.91.91,0,0,1,0-.41.69.69,0,0,1,.21-.3,1.59,1.59,0,0,1,.47-.24,2.82,2.82,0,0,0,.55-.24.88.88,0,0,0-.07-.29.25.25,0,0,0-.13-.1.53.53,0,0,0-.25,0,.4.4,0,0,0-.24.1A.52.52,0,0,0,177.83,394.59Zm.86.5-.34.15a.83.83,0,0,0-.34.2.31.31,0,0,0-.06.24.39.39,0,0,0,.12.25.3.3,0,0,0,.25.08.43.43,0,0,0,.24-.11.46.46,0,0,0,.15-.22,1.32,1.32,0,0,0,0-.43Z"/><path d="M180.7,393.43l.07.57-.4,0,.13,1.1a2.42,2.42,0,0,0,.07.41.14.14,0,0,0,.16.09.64.64,0,0,0,.23-.1l.12.55a1,1,0,0,1-.45.16.57.57,0,0,1-.37-.07.53.53,0,0,1-.22-.29,3.22,3.22,0,0,1-.11-.6l-.14-1.19-.27,0-.07-.57.27,0-.06-.54.54-.49.11,1Z"/><path d="M182.89,395.93l0-.41a.94.94,0,0,1-.28.38.78.78,0,0,1-.4.17.69.69,0,0,1-.7-.37,1.74,1.74,0,0,1-.16-.61l-.2-1.72.59-.07.14,1.25a5.09,5.09,0,0,0,.11.68.38.38,0,0,0,.14.21.33.33,0,0,0,.23.05.42.42,0,0,0,.26-.14.49.49,0,0,0,.13-.29,3.93,3.93,0,0,0,0-.72l-.13-1.15.59-.07.31,2.72Z"/><path d="M184.63,395.73l-.59.07-.31-2.72.55-.06,0,.39a1.19,1.19,0,0,1,.21-.39.4.4,0,0,1,.25-.12.65.65,0,0,1,.4.09l-.11.65a.45.45,0,0,0-.29-.09.3.3,0,0,0-.21.12.61.61,0,0,0-.1.35,6.18,6.18,0,0,0,.06.88Z"/><path d="M186.93,394.59l.6.05a1.17,1.17,0,0,1-.3.65,1,1,0,0,1-.58.27.94.94,0,0,1-.8-.24,1.66,1.66,0,0,1-.44-1,1.74,1.74,0,0,1,.19-1.13.86.86,0,0,1,.66-.43.9.9,0,0,1,.79.27,2,2,0,0,1,.45,1.16v.08l-1.48.17a.82.82,0,0,0,.2.48.42.42,0,0,0,.36.14Q186.88,395,186.93,394.59Zm-.05-.73a.8.8,0,0,0-.19-.46.38.38,0,0,0-.32-.13.39.39,0,0,0-.3.2.75.75,0,0,0-.07.49Z"/><path d="M169.16,372.67l1.13-.13a1.7,1.7,0,0,1,.66,0,1.1,1.1,0,0,1,.44.28,1.68,1.68,0,0,1,.36.56,3.34,3.34,0,0,1,.21.89,2.93,2.93,0,0,1,0,.86,1.71,1.71,0,0,1-.21.6,1.09,1.09,0,0,1-.37.36,1.54,1.54,0,0,1-.6.18l-1.17.13Zm.69.56.29,2.49.47-.05a1.22,1.22,0,0,0,.43-.11.53.53,0,0,0,.2-.2,1,1,0,0,0,.1-.38,3,3,0,0,0,0-.65,3,3,0,0,0-.13-.65.88.88,0,0,0-.22-.36.57.57,0,0,0-.32-.15,2.47,2.47,0,0,0-.51,0Z"/><path d="M173.9,375.06l.6.05a1.17,1.17,0,0,1-.3.65,1,1,0,0,1-.58.27.94.94,0,0,1-.8-.24,1.66,1.66,0,0,1-.44-1,1.74,1.74,0,0,1,.19-1.13.86.86,0,0,1,.66-.43.9.9,0,0,1,.79.27,2,2,0,0,1,.45,1.16v.08l-1.48.17a.82.82,0,0,0,.2.48.42.42,0,0,0,.36.14Q173.85,375.46,173.9,375.06Zm-.05-.73a.8.8,0,0,0-.19-.46.38.38,0,0,0-.32-.13.39.39,0,0,0-.3.2.75.75,0,0,0-.07.49Z"/><path d="M175.71,375.73l-1.22-2.62.62-.07.58,1.34.18.45.07-.48.27-1.44.6-.07-.58,2.82Z"/><path d="M178.68,374.51l.6.05a1.17,1.17,0,0,1-.3.65,1,1,0,0,1-.58.27.94.94,0,0,1-.8-.24,1.66,1.66,0,0,1-.44-1,1.74,1.74,0,0,1,.19-1.13.86.86,0,0,1,.66-.43.9.9,0,0,1,.79.27,2,2,0,0,1,.45,1.16v.08l-1.48.17a.82.82,0,0,0,.2.48.42.42,0,0,0,.36.14Q178.63,374.91,178.68,374.51Zm-.05-.73a.8.8,0,0,0-.19-.46.38.38,0,0,0-.32-.13.39.39,0,0,0-.3.2.75.75,0,0,0-.07.49Z"/><path d="M179.88,375.24l-.43-3.76.59-.07.43,3.76Z"/><path d="M180.78,373.72a1.66,1.66,0,0,1,.07-.75,1.18,1.18,0,0,1,.36-.54,1.05,1.05,0,0,1,.56-.23,1,1,0,0,1,.89.32,1.64,1.64,0,0,1,.42,1,1.77,1.77,0,0,1-.07.78,1.21,1.21,0,0,1-.36.56,1,1,0,0,1-.55.24,1.05,1.05,0,0,1-.87-.28A1.62,1.62,0,0,1,180.78,373.72Zm.61,0a1,1,0,0,0,.23.61.48.48,0,0,0,.41.17.47.47,0,0,0,.36-.26,1.05,1.05,0,0,0,.09-.65,1,1,0,0,0-.23-.6.48.48,0,0,0-.41-.17.47.47,0,0,0-.36.26A1,1,0,0,0,181.39,373.69Z"/><path d="M183.37,372.09l.55-.06,0,.4a.92.92,0,0,1,.26-.37.71.71,0,0,1,.38-.17.81.81,0,0,1,.7.29,1.7,1.7,0,0,1,.4,1,1.8,1.8,0,0,1-.15,1.11.81.81,0,0,1-.62.45.66.66,0,0,1-.34,0,1.13,1.13,0,0,1-.36-.27l.16,1.37-.59.07Zm.74,1.25a1.23,1.23,0,0,0,.23.66.44.44,0,0,0,.39.18.41.41,0,0,0,.32-.24,1.21,1.21,0,0,0,.06-.68,1.16,1.16,0,0,0-.22-.62.42.42,0,0,0-.37-.17.43.43,0,0,0-.33.24A1.06,1.06,0,0,0,184.11,373.33Z"/><path d="M167.52,356.34l-.43-3.76,1.31-.15a1.84,1.84,0,0,1,.73,0,.8.8,0,0,1,.39.31,1.22,1.22,0,0,1,.21.58,1.12,1.12,0,0,1-.13.73,1,1,0,0,1-.56.41,1.57,1.57,0,0,1,.37.28,4.48,4.48,0,0,1,.43.57l.46.69-.74.09-.54-.77a5.38,5.38,0,0,0-.39-.52.49.49,0,0,0-.2-.13.84.84,0,0,0-.32,0H168l.18,1.57Zm.37-2.24.46-.05a2.31,2.31,0,0,0,.53-.1.34.34,0,0,0,.17-.17.56.56,0,0,0,0-.31.52.52,0,0,0-.1-.28.37.37,0,0,0-.21-.13,2.47,2.47,0,0,0-.51,0l-.49.06Z"/><path d="M171.82,355l.6.05a1.17,1.17,0,0,1-.3.65,1,1,0,0,1-.58.27.93.93,0,0,1-.8-.24,1.66,1.66,0,0,1-.44-1,1.74,1.74,0,0,1,.19-1.13.86.86,0,0,1,.66-.43.9.9,0,0,1,.79.27,2,2,0,0,1,.45,1.16v.08l-1.48.17a.82.82,0,0,0,.2.48.42.42,0,0,0,.36.14Q171.77,355.37,171.82,355Zm-.05-.73a.8.8,0,0,0-.19-.46.38.38,0,0,0-.32-.13.39.39,0,0,0-.3.2.75.75,0,0,0-.07.49Z"/><path d="M173,355.71l-.43-3.76.59-.07.43,3.76Z"/><path d="M175.41,354.56l.6.05a1.17,1.17,0,0,1-.3.65,1,1,0,0,1-.58.27.93.93,0,0,1-.8-.24,1.66,1.66,0,0,1-.44-1,1.74,1.74,0,0,1,.19-1.13.86.86,0,0,1,.66-.43.9.9,0,0,1,.79.27,2,2,0,0,1,.45,1.16v.08l-1.48.17a.82.82,0,0,0,.2.48.42.42,0,0,0,.36.14Q175.36,355,175.41,354.56Zm-.05-.73a.8.8,0,0,0-.19-.46.38.38,0,0,0-.32-.13.39.39,0,0,0-.3.2.75.75,0,0,0-.07.49Z"/><path d="M176.83,353.35l-.55-.06a1.05,1.05,0,0,1,.25-.63,1,1,0,0,1,.62-.25,1.25,1.25,0,0,1,.58,0,.62.62,0,0,1,.31.25,1.75,1.75,0,0,1,.16.65l.09.84a3.61,3.61,0,0,0,.09.52,1.8,1.8,0,0,0,.15.36l-.58.07-.11-.29a1.1,1.1,0,0,1-.29.31.78.78,0,0,1-.36.13.71.71,0,0,1-.56-.16.82.82,0,0,1-.27-.56.91.91,0,0,1,0-.41.69.69,0,0,1,.21-.3,1.59,1.59,0,0,1,.47-.24,2.83,2.83,0,0,0,.55-.24.88.88,0,0,0-.07-.29.25.25,0,0,0-.13-.1.53.53,0,0,0-.25,0,.4.4,0,0,0-.24.1A.52.52,0,0,0,176.83,353.35Zm.86.5-.34.15a.83.83,0,0,0-.34.2.31.31,0,0,0-.06.24.39.39,0,0,0,.12.25.3.3,0,0,0,.25.08.43.43,0,0,0,.24-.11.46.46,0,0,0,.15-.22,1.32,1.32,0,0,0,0-.43Z"/><path d="M178.7,354.27l.58-.18a.45.45,0,0,0,.53.37.52.52,0,0,0,.31-.12.26.26,0,0,0,.08-.22.2.2,0,0,0-.06-.14.43.43,0,0,0-.2-.07,2.64,2.64,0,0,1-1-.26.76.76,0,0,1-.31-.57.8.8,0,0,1,.17-.64,1,1,0,0,1,.67-.31,1.11,1.11,0,0,1,.69.09.94.94,0,0,1,.38.51l-.54.19a.39.39,0,0,0-.46-.28.57.57,0,0,0-.3.1.19.19,0,0,0-.07.17.18.18,0,0,0,.1.14,2.36,2.36,0,0,0,.55.13,1.45,1.45,0,0,1,.71.26.77.77,0,0,1,.24.51.86.86,0,0,1-.2.68,1,1,0,0,1-.72.34,1.12,1.12,0,0,1-.73-.13A1,1,0,0,1,178.7,354.27Z"/><path d="M182.59,353.73l.6.05a1.17,1.17,0,0,1-.3.65,1,1,0,0,1-.58.27.93.93,0,0,1-.8-.24,1.66,1.66,0,0,1-.44-1,1.74,1.74,0,0,1,.19-1.13.86.86,0,0,1,.66-.43.9.9,0,0,1,.79.27,2,2,0,0,1,.45,1.16v.08l-1.48.17a.82.82,0,0,0,.2.48.42.42,0,0,0,.36.14Q182.54,354.13,182.59,353.73Zm-.05-.73a.8.8,0,0,0-.19-.46.38.38,0,0,0-.32-.13.39.39,0,0,0-.3.2.75.75,0,0,0-.07.49Z"/><path d="M167.16,335.24l-.43-3.76.62-.07.17,1.48,1.22-.14-.17-1.48.62-.07.43,3.76L169,335l-.19-1.64-1.22.14.19,1.64Z"/><path d="M170,333.5a1.66,1.66,0,0,1,.07-.75,1.18,1.18,0,0,1,.36-.54A1.05,1.05,0,0,1,171,332a1,1,0,0,1,.89.32,1.64,1.64,0,0,1,.42,1,1.77,1.77,0,0,1-.07.78,1.21,1.21,0,0,1-.36.56,1,1,0,0,1-.55.24,1.05,1.05,0,0,1-.87-.28A1.62,1.62,0,0,1,170,333.5Zm.61,0a1,1,0,0,0,.23.61.48.48,0,0,0,.41.17.47.47,0,0,0,.36-.26,1.05,1.05,0,0,0,.09-.65,1,1,0,0,0-.23-.6.48.48,0,0,0-.41-.17.47.47,0,0,0-.36.26A1,1,0,0,0,170.57,333.46Z"/><path d="M173.6,331.74l.07.57-.4,0,.13,1.1a2.42,2.42,0,0,0,.07.41.14.14,0,0,0,.16.09.64.64,0,0,0,.23-.1l.12.55a1,1,0,0,1-.45.16.57.57,0,0,1-.37-.07.53.53,0,0,1-.22-.29,3.22,3.22,0,0,1-.11-.6l-.14-1.19-.27,0-.07-.57.27,0-.06-.54.54-.49.11,1Z"/><path d="M173.75,331.72l.33,0,0-.2a1.5,1.5,0,0,1,0-.55.55.55,0,0,1,.2-.29.75.75,0,0,1,.38-.14,1.38,1.38,0,0,1,.5,0l0,.51a1,1,0,0,0-.28,0,.22.22,0,0,0-.17.09.5.5,0,0,0,0,.29l0,.19.44-.05.07.57-.44.05.25,2.15-.59.07-.25-2.15-.33,0Z"/><path d="M175.4,331.16l-.08-.67.59-.07.08.67Zm.36,3.09-.31-2.72.59-.07.31,2.72Z"/><path d="M176.67,334.14l.64-1.48-.92-1.24.72-.08.49.65.32-.75.69-.08-.6,1.39,1,1.33-.73.08-.55-.74-.37.85Z"/><path d="M164,315.16l-.43-3.76.93-.11.86,2.5.26-2.63.93-.11.43,3.76-.58.07-.34-3-.27,3-.6.07-1-2.89.34,3Z"/><path d="M167.8,312.8l-.55-.06a1,1,0,0,1,.25-.63,1,1,0,0,1,.62-.25,1.25,1.25,0,0,1,.58,0,.62.62,0,0,1,.31.25,1.75,1.75,0,0,1,.16.65l.09.84a3.61,3.61,0,0,0,.09.52,1.81,1.81,0,0,0,.15.36l-.58.07-.11-.29a1.1,1.1,0,0,1-.29.31.78.78,0,0,1-.36.13.71.71,0,0,1-.56-.16.82.82,0,0,1-.27-.56.91.91,0,0,1,0-.41.69.69,0,0,1,.21-.3,1.59,1.59,0,0,1,.47-.24,2.82,2.82,0,0,0,.55-.24.88.88,0,0,0-.07-.29.25.25,0,0,0-.13-.1.53.53,0,0,0-.25,0,.4.4,0,0,0-.24.1A.52.52,0,0,0,167.8,312.8Zm.86.5-.34.15a.83.83,0,0,0-.34.2.31.31,0,0,0-.06.24.39.39,0,0,0,.12.25.3.3,0,0,0,.25.08.43.43,0,0,0,.24-.11.46.46,0,0,0,.15-.22,1.32,1.32,0,0,0,0-.43Z"/><path d="M169.67,313.72l.58-.18a.45.45,0,0,0,.53.37.52.52,0,0,0,.31-.12.26.26,0,0,0,.08-.22.2.2,0,0,0-.06-.14.43.43,0,0,0-.2-.07,2.64,2.64,0,0,1-1-.26.76.76,0,0,1-.31-.57.81.81,0,0,1,.17-.64,1,1,0,0,1,.67-.31,1.11,1.11,0,0,1,.69.09.94.94,0,0,1,.38.51l-.54.19a.39.39,0,0,0-.46-.28.58.58,0,0,0-.3.1.19.19,0,0,0-.07.17.18.18,0,0,0,.1.14,2.36,2.36,0,0,0,.55.13,1.45,1.45,0,0,1,.71.26.77.77,0,0,1,.24.51.86.86,0,0,1-.2.68,1,1,0,0,1-.72.34,1.12,1.12,0,0,1-.73-.13A1,1,0,0,1,169.67,313.72Z"/><path d="M173.07,311.36l.07.57-.4,0,.13,1.1a2.42,2.42,0,0,0,.07.41.14.14,0,0,0,.16.09.64.64,0,0,0,.23-.1l.12.55a1,1,0,0,1-.45.16.57.57,0,0,1-.37-.07.53.53,0,0,1-.22-.29,3.22,3.22,0,0,1-.11-.6l-.14-1.19-.27,0-.07-.57.27,0-.06-.54.54-.49.11,1Z"/><path d="M175,313l.6.05a1.17,1.17,0,0,1-.3.65,1,1,0,0,1-.58.27.94.94,0,0,1-.8-.24,1.66,1.66,0,0,1-.44-1,1.74,1.74,0,0,1,.19-1.13.86.86,0,0,1,.66-.43.9.9,0,0,1,.79.27,2,2,0,0,1,.45,1.16v.08l-1.48.17a.82.82,0,0,0,.2.48.42.42,0,0,0,.36.14Q174.94,313.42,175,313Zm-.05-.73a.8.8,0,0,0-.19-.46.38.38,0,0,0-.32-.13.39.39,0,0,0-.3.2.75.75,0,0,0-.07.49Z"/><path d="M176.75,313.69l-.59.07-.31-2.72.55-.06,0,.39a1.19,1.19,0,0,1,.21-.39.4.4,0,0,1,.25-.12.65.65,0,0,1,.4.09l-.11.65a.45.45,0,0,0-.29-.09.3.3,0,0,0-.21.12.61.61,0,0,0-.1.35,6.18,6.18,0,0,0,.06.88Z"/><path d="M236,287.25l-1.46-3.14.74-.09.7,1.61.21.54.09-.57.32-1.73.73-.08-.69,3.39Z"/><path d="M238.69,282.36a1,1,0,0,1,.93.41,5,5,0,0,1,.41,3.58,1,1,0,0,1-1.74.2,3.52,3.52,0,0,1-.54-1.76,3.49,3.49,0,0,1,.13-1.82A1,1,0,0,1,238.69,282.36Zm.08.72q-.21,0-.3.32a7,7,0,0,0,.3,2.62q.16.26.37.24t.3-.32a7,7,0,0,0-.3-2.61Q239,283.05,238.78,283.08Z"/><path d="M241,286.67l-.1-.86.71-.08.1.86Z"/><path d="M244.62,285.45l.09.8-2.48.29a2.41,2.41,0,0,1,.14-.89,5.57,5.57,0,0,1,.67-1.17,6,6,0,0,0,.49-.79,1.09,1.09,0,0,0,.1-.57.66.66,0,0,0-.18-.43.44.44,0,0,0-.36-.11q-.47.05-.43.76h-.71a1.63,1.63,0,0,1,.27-1.06,1.14,1.14,0,0,1,.81-.42,1.05,1.05,0,0,1,.92.28,1.38,1.38,0,0,1,.39.83,1.93,1.93,0,0,1,0,.54,2.25,2.25,0,0,1-.17.55,4.75,4.75,0,0,1-.45.73q-.3.42-.37.56a1.47,1.47,0,0,0-.12.26Z"/><path d="M339.47,275.34,338,272.2l.74-.09.7,1.61.21.54.09-.57.32-1.73.73-.08-.69,3.39Z"/><path d="M342.13,270.45a1,1,0,0,1,.93.41,5,5,0,0,1,.41,3.58,1,1,0,0,1-1.74.2,3.52,3.52,0,0,1-.54-1.76,3.49,3.49,0,0,1,.13-1.82A1,1,0,0,1,342.13,270.45Zm.08.72q-.21,0-.3.32a7,7,0,0,0,.3,2.62q.16.26.37.24t.3-.32a7,7,0,0,0-.3-2.61Q342.42,271.14,342.21,271.16Z"/><path d="M344.47,274.76l-.1-.86.71-.08.1.86Z"/><path d="M345.59,273.42l.67-.18a.84.84,0,0,0,.23.47.45.45,0,0,0,.71-.11.9.9,0,0,0,.09-.57.83.83,0,0,0-.2-.5.43.43,0,0,0-.37-.15,1,1,0,0,0-.32.1v-.71a.59.59,0,0,0,.42-.2.58.58,0,0,0,.11-.45.54.54,0,0,0-.16-.35.37.37,0,0,0-.31-.1.4.4,0,0,0-.29.19.78.78,0,0,0-.1.47l-.67-.06a1.56,1.56,0,0,1,.29-.94,1,1,0,0,1,.71-.37,1,1,0,0,1,.84.27,1.23,1.23,0,0,1,.39.76,1.07,1.07,0,0,1-.07.55,1.24,1.24,0,0,1-.35.46.88.88,0,0,1,.55.31,1.22,1.22,0,0,1,.28.68,1.47,1.47,0,0,1-.25,1.06,1.15,1.15,0,0,1-.83.51,1.12,1.12,0,0,1-.86-.25A1.48,1.48,0,0,1,345.59,273.42Z"/><path class="cls-3" d="M195.38,425.89a54.11,54.11,0,0,0-4.6-12.25c-1.25-2.49-2.44-5-3.71-7.49a5.28,5.28,0,0,1,.6-6.11,1.59,1.59,0,0,0-.13-2.18c-1.17-1.5-2.37-3-3.57-4.45-.28-.35-.61-.66-.91-1-1.17-1.31-1.7-1.37-3.35-.28-2.11,1.39-4.17,2.86-6.31,4.2-3.08,1.93-6.25,3.73-9.3,5.68l-3.76,2.42c-2.19,1.42-4.38,2.86-6.57,4.29l-3.26,2.13a52.32,52.32,0,0,0-7.3,6.1c-1.54,1.45-3.12,2.86-4.63,4.35-2.07,2.06-4.1,4.22-6,6.37q-3.57,4-7,8.14a65.27,65.27,0,0,1-19.43,14.88c-3.25,1.54-6.48,3.08-9.7,4.68-2.58,1.28-5.19,2.68-7.72,4.14-1.83,1.06-3.6,2.23-5.41,3.33a52.49,52.49,0,0,0-7.79,5.46l-2.9,2.58c-2,1.74-3.91,3.48-5.86,5.23l-3.31,3c-2.69,2.45-5.24,5-7.91,7.49-1.86,1.72-3.81,3.32-5.71,5-1.47,1.3-1.55,1.83-.6,3.3.25.38.47.77.73,1.13,1.12,1.55,2.22,3.09,3.36,4.61a1.59,1.59,0,0,0,2.06.7,5.29,5.29,0,0,1,6.06,1c2.05,1.88,4.18,3.68,6.26,5.54a54.23,54.23,0,0,0,10.63,7.63c3.36,1.77,7,3,11,2.19a43.16,43.16,0,0,0,20-9.57c10.13-8.62,16.23-20.43,14.52-32.93a98.3,98.3,0,0,0-3.44-14.72c-1.82-6.08,5.28-11.72,10.82-8.29a98.13,98.13,0,0,0,13.31,7.15c11.61,4.92,24.61,2.1,35.57-5.43a43.21,43.21,0,0,0,14.46-16.84C196.44,433.4,196.21,429.61,195.38,425.89Zm-85.43,78.49a53.6,53.6,0,0,1-7.93,6.07,22.82,22.82,0,0,1-6.16,2.83c-.9.24-1.77.54-2.67.79s-1.55.31-2.32.48A14,14,0,0,1,79,512a52.15,52.15,0,0,1-14.57-16.09,21.37,21.37,0,0,1-1.64-4.14c-.79-2.48.21-4.79,1.57-7a46,46,0,0,1,7.56-9.11,89.11,89.11,0,0,1,14.19-11.28,55.32,55.32,0,0,1,15.7-7.21,15.53,15.53,0,0,1,3.5-.48,9.31,9.31,0,0,1,1.52,0,11.28,11.28,0,0,1,1.74.53c.56.17,1.13.3,1.68.49a10.91,10.91,0,0,1,2.87,2,33.29,33.29,0,0,1,5.5,10A33.77,33.77,0,0,1,121,480.07C121.52,489.09,117,498,109.95,504.38Zm81.19-66.61c-.37.7-.67,1.45-1.08,2.12s-1,1.56-1.46,2.37a22.79,22.79,0,0,1-4.33,5.2,53.69,53.69,0,0,1-7.93,6.07c-8,5.11-17.78,7.19-26.36,4.32a33.9,33.9,0,0,1-9.35-5,33.36,33.36,0,0,1-8.2-7.91,10.87,10.87,0,0,1-1.22-3.3c0-.58,0-1.17,0-1.75a11.9,11.9,0,0,1-.06-1.82,9.87,9.87,0,0,1,.37-1.47c.14-.46.3-.92.48-1.38s.35-.83.55-1.23l.09-.17c.09-.19.19-.36.28-.54.69-1.2,1.43-2.36,2.22-3.48.33-.46.68-.92,1.08-1.44.7-.91,1.44-1.81,2.2-2.69a73.06,73.06,0,0,1,5.52-5.61,88.81,88.81,0,0,1,14.58-10.76,46,46,0,0,1,10.78-4.94c2.51-.72,5-1.09,7.2.32A21.49,21.49,0,0,1,180,407.4a52,52,0,0,1,11.73,18.26A14,14,0,0,1,191.14,437.77Z"/><path class="cls-31" d="M52.85,485.51c-1.18.91-1.85,2.09-1.67,2.87l4.88-3.74C55.36,484.27,54,484.6,52.85,485.51Z"/><path class="cls-32" d="M106.74,449.37a11.2,11.2,0,0,0-1.74-.53,9.23,9.23,0,0,0-1.52,0,15.49,15.49,0,0,0-3.5.48,55.32,55.32,0,0,0-15.7,7.21,89.11,89.11,0,0,0-14.19,11.28,46,46,0,0,0-7.57,9.11c-1.36,2.24-2.36,4.55-1.57,7a21.38,21.38,0,0,0,1.64,4.14,52.15,52.15,0,0,0,14.57,16.09A14,14,0,0,0,89,506.7c.77-.17,1.57-.26,2.32-.48s1.77-.56,2.67-.79a22.83,22.83,0,0,0,6.16-2.83,53.61,53.61,0,0,0,7.93-6.07c7-6.42,11.57-15.29,11-24.32a33.77,33.77,0,0,0-2.36-10.32,33.31,33.31,0,0,0-5.5-10,10.91,10.91,0,0,0-2.87-2C107.88,449.66,107.3,449.54,106.74,449.37Z"/><path class="cls-31" d="M54.85,488.12c1.19-.91,1.85-2.1,1.67-2.88L51.65,489C52.35,489.36,53.67,489,54.85,488.12Z"/><path class="cls-32" d="M174.62,396.88c-2.2-1.41-4.69-1-7.2-.32a46,46,0,0,0-10.78,4.94,88.82,88.82,0,0,0-14.58,10.76,55.31,55.31,0,0,0-11,13.27,15.54,15.54,0,0,0-1.38,3.26,9.84,9.84,0,0,0-.37,1.47,11.91,11.91,0,0,0,.06,1.82c0,.58,0,1.17,0,1.75a10.87,10.87,0,0,0,1.22,3.3,33.38,33.38,0,0,0,8.2,7.91,33.89,33.89,0,0,0,9.35,5c8.58,2.86,18.33.79,26.36-4.32a53.69,53.69,0,0,0,7.93-6.07,22.79,22.79,0,0,0,4.33-5.2c.46-.81,1-1.57,1.46-2.37s.71-1.42,1.08-2.12a14,14,0,0,0,.63-12.12,52,52,0,0,0-11.73-18.26A21.55,21.55,0,0,0,174.62,396.88Z"/><path class="cls-31" d="M178.26,389.47c-1.19.91-1.85,2.1-1.67,2.88l4.88-3.74C180.76,388.23,179.44,388.56,178.26,389.47Z"/><path class="cls-31" d="M180.26,392.08c1.18-.91,1.85-2.09,1.67-2.87L177.05,393C177.76,393.33,179.07,393,180.26,392.08Z"/><path class="cls-33" d="M182.11,385.57c-.28-.35-.61-.66-.91-1-1.17-1.31-1.7-1.37-3.35-.28-2.11,1.39-4.17,2.86-6.31,4.2-3.08,1.93-6.25,3.73-9.3,5.68l-3.76,2.42c-2.19,1.42-4.38,2.86-6.57,4.29L148.67,403a52.27,52.27,0,0,0-7.3,6.1c-1.54,1.45-3.12,2.86-4.63,4.35-2.07,2.06-4.1,4.22-6,6.37q-3.57,4-7,8.14a65.26,65.26,0,0,1-19.43,14.88c-3.25,1.54-6.48,3.08-9.7,4.68-2.58,1.28-5.19,2.68-7.72,4.14-1.83,1.06-3.6,2.23-5.41,3.33a52.48,52.48,0,0,0-7.79,5.46l-2.9,2.58c-2,1.74-3.91,3.48-5.86,5.23l-3.31,3c-2.69,2.45-5.24,5-7.91,7.49-1.86,1.72-3.81,3.32-5.71,5-1.47,1.3-1.55,1.83-.6,3.3.25.38.47.77.73,1.13,1.12,1.55,2.22,3.09,3.36,4.61a1.59,1.59,0,0,0,2.06.7,5.29,5.29,0,0,1,6.06,1c2.05,1.88,4.18,3.68,6.26,5.54a54.23,54.23,0,0,0,10.63,7.63c3.36,1.77,7,3,11,2.19a43.14,43.14,0,0,0,20-9.57c10.13-8.62,16.23-20.43,14.52-32.93a98.31,98.31,0,0,0-3.44-14.72c-1.82-6.08,5.27-11.72,10.82-8.29a98.15,98.15,0,0,0,13.31,7.15c11.61,4.92,24.61,2.1,35.57-5.43a43.86,43.86,0,0,0,10.14-9.72,43.37,43.37,0,0,0,4.33-7.11c1.83-3.73,1.6-7.52.77-11.24a54.1,54.1,0,0,0-4.6-12.25c-1.25-2.49-2.44-5-3.71-7.49a5.28,5.28,0,0,1,.6-6.11,1.58,1.58,0,0,0-.13-2.18C184.51,388.52,183.31,387,182.11,385.57ZM54.85,488.12c-1.18.91-2.5,1.24-3.21.86l4.88-3.74C56.7,486,56,487.21,54.85,488.12Zm-3.67.25c-.18-.78.49-2,1.67-2.87s2.51-1.24,3.21-.87Zm65.61-26.49a33.77,33.77,0,0,1,2.36,10.32c.53,9-4,17.9-11,24.32a53.61,53.61,0,0,1-7.93,6.07A22.83,22.83,0,0,1,94,505.42c-.9.24-1.77.54-2.67.79s-1.55.31-2.32.48a14,14,0,0,1-11.87-2.55,52.15,52.15,0,0,1-14.57-16.09A21.38,21.38,0,0,1,61,483.93c-.79-2.48.21-4.79,1.57-7a46,46,0,0,1,7.57-9.11A89.11,89.11,0,0,1,84.28,456.5a55.32,55.32,0,0,1,15.7-7.21,15.49,15.49,0,0,1,3.5-.48,9.23,9.23,0,0,1,1.52,0,11.2,11.2,0,0,1,1.74.53c.56.17,1.13.29,1.68.49a10.91,10.91,0,0,1,2.87,2A33.31,33.31,0,0,1,116.79,461.89Zm73.13-44.09a14,14,0,0,1-.63,12.12c-.37.7-.67,1.45-1.08,2.12s-1,1.56-1.46,2.37a22.79,22.79,0,0,1-4.33,5.2,53.69,53.69,0,0,1-7.93,6.07c-8,5.11-17.78,7.19-26.36,4.32a33.89,33.89,0,0,1-9.35-5,33.38,33.38,0,0,1-8.2-7.91,10.87,10.87,0,0,1-1.22-3.3c0-.58,0-1.17,0-1.75a11.91,11.91,0,0,1-.06-1.82,9.84,9.84,0,0,1,.37-1.47c.14-.46.3-.92.48-1.38s.35-.83.55-1.23l.09-.17c.09-.19.19-.36.28-.54.69-1.2,1.43-2.36,2.22-3.48.33-.46.68-.92,1.08-1.44.7-.91,1.44-1.81,2.2-2.69a73,73,0,0,1,5.52-5.61,88.82,88.82,0,0,1,14.58-10.76,46,46,0,0,1,10.78-4.94c2.51-.72,5-1.09,7.2.32a21.55,21.55,0,0,1,3.57,2.66A52,52,0,0,1,189.92,417.8Zm-9.66-25.71c-1.19.91-2.5,1.24-3.21.87l4.88-3.74C182.11,390,181.44,391.18,180.26,392.08Zm-3.68.26c-.18-.78.48-2,1.67-2.88s2.5-1.24,3.21-.86Z"/><path class="cls-3" d="M458.34,251.78a5.27,5.27,0,0,0-7.09,2.27L372.45,407c-.29.56-2.86,9.68-4.88,16.9-1.22,4.35-2.23,8-2.41,8.69l0,.12s3.53-4.35,7.35-9.08c4.36-5.4,9.08-11.31,9.34-11.8L460.6,258.87A5.26,5.26,0,0,0,458.34,251.78Z"/><path class="cls-34" d="M452.6,245.5a5.27,5.27,0,0,0-7.09,2.27L366.71,400.71c-.48.93-7.32,25.71-7.32,25.71s16.2-20,16.68-20.88l78.79-152.94A5.27,5.27,0,0,0,452.6,245.5Z"/><path class="cls-16" d="M376.07,405.53l-9.36-4.82c-.48.93-7.32,25.71-7.32,25.71S375.59,406.46,376.07,405.53Z"/><path class="cls-34" d="M368.31,415.37l-5.11-2.63c-1.88,6.69-3.81,13.67-3.81,13.67S364,420.79,368.31,415.37Z"/><path class="cls-17" d="M452.6,245.5a5.27,5.27,0,0,0-7.09,2.27l-4.15,8.07,9.36,4.82,4.16-8.06A5.27,5.27,0,0,0,452.6,245.5Z"/><rect class="cls-18" x="435.29" y="259.53" width="14.73" height="10.53" transform="translate(4.51 536.97) rotate(-62.74)"/><path class="cls-4" d="M257.65,206.81a4.4,4.4,0,0,1,1.36,2.66c.37,3.06-1.81,5.14-5.28,5.56a8.82,8.82,0,0,1-2.21,0l-.73,1.57,2.72-.16c4.8-.27,7.62-.48,8.07,3.18.38,3.17-2.18,5.29-7,5.87-5,.6-7-.43-7.3-2.61a3.59,3.59,0,0,1,1.17-3,1.85,1.85,0,0,1-1.43-1.67,2.49,2.49,0,0,1,.6-1.78c.43-.58.92-1.17,1.51-1.86a4.43,4.43,0,0,1-2.87-3.84c-.38-3.17,1.45-5.59,5.66-6.1a9.51,9.51,0,0,1,2.57,0l5.37-.65.28,2.34ZM251,220.36a2.46,2.46,0,0,0-.54,1.55c.13,1.1,1.58,1.26,3.5,1,1.6-.19,3.76-.57,3.58-2.05-.11-.88-1.16-.81-2.49-.73Zm1.5-13a2.36,2.36,0,0,0-2.34,2.85c.16,1.35,1,2.19,2.84,2a2.34,2.34,0,0,0,2.3-2.65A2.27,2.27,0,0,0,252.52,207.35Z"/><path class="cls-4" d="M262.87,217.89l-.26-2.17,1.38-.36c.38-.1.42-.19.37-.61l-1-8.09c0-.3-.14-.49-.43-.53l-1.55-.34,0-2.27,5.7-.69,1.38,11.42c.05.44.09.49.51.5l1.43,0,.26,2.17Zm1.55-17a2.28,2.28,0,0,1-2.78-2.18,2.51,2.51,0,0,1,5-.6A2.29,2.29,0,0,1,264.42,200.92Z"/><path class="cls-4" d="M281.48,214.55a11.09,11.09,0,0,1-4.36,1.64c-3.28.4-4.67-.77-5.05-3.89l-.87-7.21c0-.16,0-.28-.25-.25l-1.93.23-.3-2.45c2.39-.57,3.21-1.9,3.15-4.94l2.62-.32.47,3.91c0,.19,0,.28.25.25l3.88-.47.33,2.75-4.1.5.8,6.58c.2,1.62.66,2.21,2.15,2a6.6,6.6,0,0,0,2.18-.71Z"/><path class="cls-1" d="M239.81,212.27,225.7,201.21a1.87,1.87,0,0,0-2.63.32l-2.3,2.93,3.72,2.91a2.22,2.22,0,0,1,3.13,2.47l3.58,2.81a2.22,2.22,0,1,1-1.17,1.41l-3.34-2.62,1,7.84a2.22,2.22,0,1,1-1.82.16l-1-7.92a2.2,2.2,0,0,1-.78-.39,2.23,2.23,0,0,1-.77-2.36l-3.66-2.87-7.59,9.68a1.87,1.87,0,0,0,.32,2.63l14.11,11.06a1.87,1.87,0,0,0,2.63-.32l11-14A1.87,1.87,0,0,0,239.81,212.27Z"/></g></g></svg>