<svg xmlns="http://www.w3.org/2000/svg" viewBox="0 0 463.04 40.02"><defs><style>.cls-1{fill:#424242;}.cls-2,.cls-5{fill:#fff;}.cls-2{stroke:#fff;stroke-miterlimit:10;stroke-width:0.25px;}.cls-3{fill:#424142;}.cls-4{fill:#f05032;}</style></defs><title>titulo3</title><g id="Capa_2" data-name="Capa 2"><g id="CONTENIDO"><rect class="cls-1" x="42.02" y="4.17" width="421.02" height="26.81"/><path class="cls-2" d="M59.51,22.59a3.28,3.28,0,0,1-1.74,1.74,3.19,3.19,0,0,1-1.27.25h-.95a3.22,3.22,0,0,1-1.28-.25,3.27,3.27,0,0,1-1.74-1.74,3.19,3.19,0,0,1-.25-1.27V14.18a3.19,3.19,0,0,1,.25-1.27,3.27,3.27,0,0,1,1.74-1.74,3.22,3.22,0,0,1,1.28-.25h.95a3.19,3.19,0,0,1,1.27.25,3.28,3.28,0,0,1,1.74,1.74,3.19,3.19,0,0,1,.25,1.27v.54l-1.2.19v-.72a2.06,2.06,0,0,0-.17-.83,2.14,2.14,0,0,0-1.13-1.13,2.06,2.06,0,0,0-.83-.17H55.6a2.06,2.06,0,0,0-.83.17,2.22,2.22,0,0,0-.68.45,2.12,2.12,0,0,0-.46.67,2.06,2.06,0,0,0-.17.83v7.14a2.06,2.06,0,0,0,.17.83,2.17,2.17,0,0,0,1.14,1.14,2.06,2.06,0,0,0,.83.17h.83a2.06,2.06,0,0,0,.83-.17,2.12,2.12,0,0,0,.67-.46,2.22,2.22,0,0,0,.46-.68,2.06,2.06,0,0,0,.17-.83V20.6l1.2.19v.53A3.19,3.19,0,0,1,59.51,22.59Z"/><path class="cls-2" d="M68.17,22.88a2.79,2.79,0,0,1-1.49,1.49,2.74,2.74,0,0,1-1.08.22h-.76a2.74,2.74,0,0,1-1.09-.22,2.81,2.81,0,0,1-.89-.6,2.78,2.78,0,0,1-.6-.89A2.73,2.73,0,0,1,62,21.79V17.51a2.73,2.73,0,0,1,.22-1.09,2.78,2.78,0,0,1,1.49-1.49,2.74,2.74,0,0,1,1.09-.22h.76a2.74,2.74,0,0,1,1.08.22,2.79,2.79,0,0,1,1.49,1.49,2.73,2.73,0,0,1,.22,1.09v4.29A2.73,2.73,0,0,1,68.17,22.88Zm-.92-5.44a1.62,1.62,0,0,0-.13-.64,1.64,1.64,0,0,0-.88-.88,1.62,1.62,0,0,0-.64-.13h-.76a1.61,1.61,0,0,0-.64.13,1.64,1.64,0,0,0-.88.88,1.61,1.61,0,0,0-.13.64v4.42a1.6,1.6,0,0,0,.13.64,1.64,1.64,0,0,0,.88.88,1.6,1.6,0,0,0,.64.13h.76a1.61,1.61,0,0,0,.64-.13,1.64,1.64,0,0,0,.88-.88,1.62,1.62,0,0,0,.13-.64Z"/><path class="cls-2" d="M75.88,24.4v-7a1.62,1.62,0,0,0-.13-.64,1.64,1.64,0,0,0-.88-.88,1.62,1.62,0,0,0-.64-.13h-.76a1.61,1.61,0,0,0-.64.13,1.64,1.64,0,0,0-.88.88,1.61,1.61,0,0,0-.13.64v7H70.67V14.9h.38l.62,1a2.85,2.85,0,0,1,1-.84,2.71,2.71,0,0,1,1.28-.31h.29a2.74,2.74,0,0,1,1.08.22,2.79,2.79,0,0,1,1.49,1.49A2.73,2.73,0,0,1,77,17.51V24.4Z"/><path class="cls-2" d="M85.43,22.88a2.79,2.79,0,0,1-1.49,1.49,2.74,2.74,0,0,1-1.08.22h-.76A2.74,2.74,0,0,1,81,24.37a2.81,2.81,0,0,1-.89-.6,2.78,2.78,0,0,1-.6-.89,2.73,2.73,0,0,1-.22-1.09V17.51a2.73,2.73,0,0,1,.22-1.09A2.78,2.78,0,0,1,81,14.93a2.74,2.74,0,0,1,1.09-.22h.76a2.74,2.74,0,0,1,1.08.22,2.79,2.79,0,0,1,1.49,1.49,2.73,2.73,0,0,1,.22,1.09v.38l-1.14.19v-.63a1.62,1.62,0,0,0-.13-.64,1.64,1.64,0,0,0-.88-.88,1.62,1.62,0,0,0-.64-.13h-.76a1.61,1.61,0,0,0-.64.13,1.64,1.64,0,0,0-.88.88,1.61,1.61,0,0,0-.13.64v4.42a1.6,1.6,0,0,0,.13.64,1.64,1.64,0,0,0,.88.88,1.6,1.6,0,0,0,.64.13h.76a1.61,1.61,0,0,0,.64-.13,1.64,1.64,0,0,0,.88-.88,1.62,1.62,0,0,0,.13-.64v-.63l1.14.19v.38A2.73,2.73,0,0,1,85.43,22.88Z"/><path class="cls-2" d="M94.05,22.88a2.79,2.79,0,0,1-1.49,1.49,2.74,2.74,0,0,1-1.08.22h-.76a2.74,2.74,0,0,1-1.09-.22,2.81,2.81,0,0,1-.89-.6,2.78,2.78,0,0,1-.6-.89,2.73,2.73,0,0,1-.22-1.09V17.51a2.73,2.73,0,0,1,.22-1.09,2.78,2.78,0,0,1,1.49-1.49,2.74,2.74,0,0,1,1.09-.22h.76a2.74,2.74,0,0,1,1.08.22,2.79,2.79,0,0,1,1.49,1.49,2.73,2.73,0,0,1,.22,1.09v2.24h-5.2v2.12a1.6,1.6,0,0,0,.13.64,1.64,1.64,0,0,0,.88.88,1.6,1.6,0,0,0,.64.13h.76a1.61,1.61,0,0,0,.64-.13A1.64,1.64,0,0,0,93,22.5a1.62,1.62,0,0,0,.13-.64v-.63l1.14.19v.38A2.73,2.73,0,0,1,94.05,22.88Zm-.92-5.44A1.62,1.62,0,0,0,93,16.8a1.64,1.64,0,0,0-.88-.88,1.62,1.62,0,0,0-.64-.13h-.76a1.61,1.61,0,0,0-.64.13,1.64,1.64,0,0,0-.88.88,1.61,1.61,0,0,0-.13.64v1.41h4.06Z"/><path class="cls-2" d="M102.68,22.88a2.79,2.79,0,0,1-1.49,1.49,2.74,2.74,0,0,1-1.08.22h-.29a2.73,2.73,0,0,1-2.12-1v4.6H96.55V14.9h.38l.62,1a2.85,2.85,0,0,1,1-.84,2.71,2.71,0,0,1,1.28-.31h.29a2.74,2.74,0,0,1,1.08.22,2.79,2.79,0,0,1,1.49,1.49,2.73,2.73,0,0,1,.22,1.09v4.29A2.73,2.73,0,0,1,102.68,22.88Zm-.92-5.44a1.62,1.62,0,0,0-.13-.64,1.64,1.64,0,0,0-.88-.88,1.62,1.62,0,0,0-.64-.13h-.76a1.61,1.61,0,0,0-.64.13,1.64,1.64,0,0,0-.88.88,1.61,1.61,0,0,0-.13.64v4.42a1.6,1.6,0,0,0,.13.64,1.64,1.64,0,0,0,.88.88,1.6,1.6,0,0,0,.64.13h.76a1.61,1.61,0,0,0,.64-.13,1.64,1.64,0,0,0,.88-.88,1.62,1.62,0,0,0,.13-.64Z"/><path class="cls-2" d="M108.64,24.4a2.48,2.48,0,0,1-1-.19,2.44,2.44,0,0,1-.8-.54,2.61,2.61,0,0,1-.54-.8,2.38,2.38,0,0,1-.2-1V16h-1.71V14.9h1.71V12.62l1.14-.19V14.9h2.41V16h-2.41v6a1.32,1.32,0,0,0,.11.53,1.38,1.38,0,0,0,.29.43,1.37,1.37,0,0,0,1,.4h1V24.4Z"/><path class="cls-2" d="M117.91,22.88a2.78,2.78,0,0,1-1.49,1.49,2.74,2.74,0,0,1-1.09.22h-.76a2.73,2.73,0,0,1-1.08-.22A2.79,2.79,0,0,1,112,22.88a2.73,2.73,0,0,1-.22-1.09V17.51a2.73,2.73,0,0,1,.22-1.09,2.79,2.79,0,0,1,1.49-1.49,2.73,2.73,0,0,1,1.08-.22h.76a2.74,2.74,0,0,1,1.09.22,2.78,2.78,0,0,1,1.49,1.49,2.73,2.73,0,0,1,.22,1.09v4.29A2.73,2.73,0,0,1,117.91,22.88ZM117,17.44a1.61,1.61,0,0,0-.13-.64,1.64,1.64,0,0,0-.88-.88,1.61,1.61,0,0,0-.64-.13h-.76a1.62,1.62,0,0,0-.64.13,1.64,1.64,0,0,0-.88.88,1.61,1.61,0,0,0-.13.64v4.42a1.6,1.6,0,0,0,.13.64,1.64,1.64,0,0,0,.88.88,1.61,1.61,0,0,0,.64.13h.76a1.6,1.6,0,0,0,.64-.13,1.64,1.64,0,0,0,.88-.88,1.6,1.6,0,0,0,.13-.64Z"/><path class="cls-2" d="M126.94,22a2.38,2.38,0,0,1-.23,1.05,2.52,2.52,0,0,1-.63.82,2.92,2.92,0,0,1-.92.53,3.2,3.2,0,0,1-1.1.19h-.76a2.84,2.84,0,0,1-1.1-.22,2.92,2.92,0,0,1-1.55-1.49,2.54,2.54,0,0,1-.24-1.09v-.38l1.14-.19v.63a1.48,1.48,0,0,0,.14.64,1.71,1.71,0,0,0,.39.52,1.83,1.83,0,0,0,.56.35,1.71,1.71,0,0,0,.66.13h.76a2.12,2.12,0,0,0,.66-.1,1.81,1.81,0,0,0,.56-.29,1.41,1.41,0,0,0,.39-.46,1.27,1.27,0,0,0,.14-.61,1.45,1.45,0,0,0-.22-.83,1.84,1.84,0,0,0-.59-.54,3.82,3.82,0,0,0-.83-.36l-1-.29q-.49-.14-1-.33a3.09,3.09,0,0,1-.83-.49,2.23,2.23,0,0,1-.59-.76,2.56,2.56,0,0,1-.22-1.13,2.46,2.46,0,0,1,.22-1.05,2.53,2.53,0,0,1,.6-.82,2.76,2.76,0,0,1,.89-.53,3,3,0,0,1,1.08-.19h.67a2.74,2.74,0,0,1,1.09.22,2.78,2.78,0,0,1,1.49,1.49,2.73,2.73,0,0,1,.22,1.09v0l-1.14.19v-.29a1.61,1.61,0,0,0-.13-.64,1.64,1.64,0,0,0-.88-.88,1.61,1.61,0,0,0-.64-.13h-.67a2,2,0,0,0-.64.1,1.58,1.58,0,0,0-.52.29,1.36,1.36,0,0,0-.48,1.07,1.35,1.35,0,0,0,.22.8,1.87,1.87,0,0,0,.59.52,4,4,0,0,0,.83.36l1,.3c.32.1.64.22,1,.35a3.22,3.22,0,0,1,.83.5,2.27,2.27,0,0,1,.59.77A2.6,2.6,0,0,1,126.94,22Z"/><path class="cls-2" d="M139.62,22.88a2.79,2.79,0,0,1-1.49,1.49,2.74,2.74,0,0,1-1.08.22h-.76a2.74,2.74,0,0,1-1.09-.22,2.81,2.81,0,0,1-.89-.6,2.78,2.78,0,0,1-.6-.89,2.73,2.73,0,0,1-.22-1.09V11.1h1.14v4.6a2.73,2.73,0,0,1,2.12-1h.29a2.74,2.74,0,0,1,1.08.22,2.79,2.79,0,0,1,1.49,1.49,2.73,2.73,0,0,1,.22,1.09v4.29A2.73,2.73,0,0,1,139.62,22.88Zm-.92-5.44a1.62,1.62,0,0,0-.13-.64,1.64,1.64,0,0,0-.88-.88,1.62,1.62,0,0,0-.64-.13h-.76a1.61,1.61,0,0,0-.64.13,1.64,1.64,0,0,0-.88.88,1.61,1.61,0,0,0-.13.64v4.42a1.6,1.6,0,0,0,.13.64,1.64,1.64,0,0,0,.88.88,1.6,1.6,0,0,0,.64.13h.76a1.61,1.61,0,0,0,.64-.13,1.64,1.64,0,0,0,.88-.88,1.62,1.62,0,0,0,.13-.64Z"/><path class="cls-2" d="M148.09,24.4l-.63-.95a3,3,0,0,1-1,.82,2.69,2.69,0,0,1-1.28.31h-.29a2.74,2.74,0,0,1-1.09-.22,2.81,2.81,0,0,1-.89-.6,2.78,2.78,0,0,1-.6-.89,2.73,2.73,0,0,1-.22-1.09V21.7a2.73,2.73,0,0,1,.22-1.09,2.78,2.78,0,0,1,1.49-1.49,2.74,2.74,0,0,1,1.09-.22h2.41V17.44a1.62,1.62,0,0,0-.13-.64,1.64,1.64,0,0,0-.88-.88,1.62,1.62,0,0,0-.64-.13H145a1.61,1.61,0,0,0-.64.13,1.64,1.64,0,0,0-.88.88,1.61,1.61,0,0,0-.13.64v.34l-1.14-.19v-.09a2.73,2.73,0,0,1,.22-1.09,2.78,2.78,0,0,1,1.49-1.49,2.74,2.74,0,0,1,1.09-.22h.67a2.74,2.74,0,0,1,1.08.22,2.79,2.79,0,0,1,1.49,1.49,2.73,2.73,0,0,1,.22,1.09V24.4Zm-.76-4.6h-2.41a1.61,1.61,0,0,0-.64.13,1.63,1.63,0,0,0-.52.36,1.71,1.71,0,0,0-.35.53,1.61,1.61,0,0,0-.13.65v.4a1.6,1.6,0,0,0,.13.64,1.64,1.64,0,0,0,.88.88,1.6,1.6,0,0,0,.64.13h.76a1.61,1.61,0,0,0,.64-.13,1.64,1.64,0,0,0,.88-.88,1.62,1.62,0,0,0,.13-.64Zm-2.5-6.42H144l1.51-2.28h1.9Z"/><path class="cls-2" d="M157.28,22a2.38,2.38,0,0,1-.23,1.05,2.53,2.53,0,0,1-.63.82,2.94,2.94,0,0,1-.92.53,3.2,3.2,0,0,1-1.1.19h-.76a2.84,2.84,0,0,1-1.1-.22A2.92,2.92,0,0,1,151,22.88a2.54,2.54,0,0,1-.24-1.09v-.38l1.14-.19v.63a1.48,1.48,0,0,0,.14.64,1.7,1.7,0,0,0,.38.52,1.86,1.86,0,0,0,.56.35,1.71,1.71,0,0,0,.66.13h.76a2.11,2.11,0,0,0,.66-.1,1.83,1.83,0,0,0,.56-.29,1.41,1.41,0,0,0,.39-.46,1.28,1.28,0,0,0,.14-.61,1.45,1.45,0,0,0-.22-.83,1.85,1.85,0,0,0-.59-.54,3.82,3.82,0,0,0-.83-.36l-1-.29q-.49-.14-1-.33a3.09,3.09,0,0,1-.83-.49,2.23,2.23,0,0,1-.59-.76,2.56,2.56,0,0,1-.22-1.13,2.46,2.46,0,0,1,.22-1.05,2.53,2.53,0,0,1,.6-.82,2.75,2.75,0,0,1,.89-.53,3,3,0,0,1,1.08-.19h.67a2.74,2.74,0,0,1,1.08.22A2.79,2.79,0,0,1,157,16.42a2.73,2.73,0,0,1,.22,1.09v0l-1.14.19v-.29a1.62,1.62,0,0,0-.13-.64,1.64,1.64,0,0,0-.88-.88,1.62,1.62,0,0,0-.64-.13h-.67a2,2,0,0,0-.64.1,1.58,1.58,0,0,0-.52.29,1.36,1.36,0,0,0-.48,1.07,1.35,1.35,0,0,0,.22.8,1.87,1.87,0,0,0,.59.52,3.94,3.94,0,0,0,.83.36l1,.3q.49.15,1,.35a3.22,3.22,0,0,1,.83.5,2.28,2.28,0,0,1,.59.77A2.6,2.6,0,0,1,157.28,22Z"/><path class="cls-2" d="M159.76,12.62V11.1h1.33v1.52Zm.09,11.78V14.9H161v9.5Z"/><path class="cls-2" d="M169.78,22.88a2.78,2.78,0,0,1-1.49,1.49,2.74,2.74,0,0,1-1.09.22h-.76a2.73,2.73,0,0,1-1.08-.22,2.79,2.79,0,0,1-1.49-1.49,2.73,2.73,0,0,1-.22-1.09V17.51a2.73,2.73,0,0,1,.22-1.09,2.79,2.79,0,0,1,1.49-1.49,2.73,2.73,0,0,1,1.08-.22h.76a2.74,2.74,0,0,1,1.09.22,2.78,2.78,0,0,1,1.49,1.49,2.73,2.73,0,0,1,.22,1.09v.38l-1.14.19v-.63a1.61,1.61,0,0,0-.13-.64,1.64,1.64,0,0,0-.88-.88,1.61,1.61,0,0,0-.64-.13h-.76a1.62,1.62,0,0,0-.64.13,1.64,1.64,0,0,0-.88.88,1.61,1.61,0,0,0-.13.64v4.42a1.6,1.6,0,0,0,.13.64,1.64,1.64,0,0,0,.88.88,1.61,1.61,0,0,0,.64.13h.76a1.6,1.6,0,0,0,.64-.13,1.64,1.64,0,0,0,.88-.88,1.6,1.6,0,0,0,.13-.64v-.63l1.14.19v.38A2.73,2.73,0,0,1,169.78,22.88Z"/><path class="cls-2" d="M178.41,22.88a2.78,2.78,0,0,1-1.49,1.49,2.74,2.74,0,0,1-1.09.22h-.76a2.73,2.73,0,0,1-1.08-.22,2.79,2.79,0,0,1-1.49-1.49,2.73,2.73,0,0,1-.22-1.09V17.51a2.73,2.73,0,0,1,.22-1.09A2.79,2.79,0,0,1,174,14.93a2.73,2.73,0,0,1,1.08-.22h.76a2.74,2.74,0,0,1,1.09.22,2.78,2.78,0,0,1,1.49,1.49,2.73,2.73,0,0,1,.22,1.09v4.29A2.73,2.73,0,0,1,178.41,22.88Zm-.92-5.44a1.61,1.61,0,0,0-.13-.64,1.64,1.64,0,0,0-.88-.88,1.61,1.61,0,0,0-.64-.13h-.76a1.62,1.62,0,0,0-.64.13,1.64,1.64,0,0,0-.88.88,1.61,1.61,0,0,0-.13.64v4.42a1.6,1.6,0,0,0,.13.64,1.64,1.64,0,0,0,.88.88,1.61,1.61,0,0,0,.64.13h.76a1.6,1.6,0,0,0,.64-.13,1.64,1.64,0,0,0,.88-.88,1.6,1.6,0,0,0,.13-.64Z"/><path class="cls-2" d="M187.45,22a2.38,2.38,0,0,1-.23,1.05,2.52,2.52,0,0,1-.63.82,2.92,2.92,0,0,1-.92.53,3.2,3.2,0,0,1-1.1.19h-.76a2.84,2.84,0,0,1-1.1-.22,2.92,2.92,0,0,1-1.55-1.49,2.54,2.54,0,0,1-.24-1.09v-.38l1.14-.19v.63a1.48,1.48,0,0,0,.14.64,1.71,1.71,0,0,0,.39.52,1.83,1.83,0,0,0,.56.35,1.71,1.71,0,0,0,.66.13h.76a2.12,2.12,0,0,0,.66-.1,1.81,1.81,0,0,0,.56-.29,1.41,1.41,0,0,0,.39-.46,1.27,1.27,0,0,0,.14-.61,1.45,1.45,0,0,0-.22-.83,1.84,1.84,0,0,0-.59-.54,3.82,3.82,0,0,0-.83-.36l-1-.29q-.49-.14-1-.33a3.09,3.09,0,0,1-.83-.49,2.23,2.23,0,0,1-.59-.76,2.56,2.56,0,0,1-.22-1.13,2.46,2.46,0,0,1,.22-1.05,2.53,2.53,0,0,1,.6-.82,2.76,2.76,0,0,1,.89-.53,3,3,0,0,1,1.08-.19h.67a2.74,2.74,0,0,1,1.09.22,2.78,2.78,0,0,1,1.49,1.49,2.73,2.73,0,0,1,.22,1.09v0l-1.14.19v-.29a1.61,1.61,0,0,0-.13-.64,1.64,1.64,0,0,0-.88-.88,1.61,1.61,0,0,0-.64-.13h-.67a2,2,0,0,0-.64.1,1.58,1.58,0,0,0-.52.29,1.36,1.36,0,0,0-.48,1.07,1.35,1.35,0,0,0,.22.8,1.87,1.87,0,0,0,.59.52,4,4,0,0,0,.83.36l1,.3c.32.1.64.22,1,.35a3.22,3.22,0,0,1,.83.5,2.27,2.27,0,0,1,.59.77A2.6,2.6,0,0,1,187.45,22Z"/><path class="cls-2" d="M200,24.4l-.63-1a2.87,2.87,0,0,1-1,.84,2.69,2.69,0,0,1-1.28.31h-.29a2.74,2.74,0,0,1-1.09-.22,2.81,2.81,0,0,1-.89-.6,2.78,2.78,0,0,1-.6-.89,2.73,2.73,0,0,1-.22-1.09V17.51a2.73,2.73,0,0,1,.22-1.09,2.78,2.78,0,0,1,1.49-1.49,2.74,2.74,0,0,1,1.09-.22h.29a2.74,2.74,0,0,1,2.13,1V11.1h1.14V24.4Zm-.76-7a1.62,1.62,0,0,0-.13-.64,1.64,1.64,0,0,0-.88-.88,1.62,1.62,0,0,0-.64-.13h-.76a1.61,1.61,0,0,0-.64.13,1.64,1.64,0,0,0-.88.88,1.61,1.61,0,0,0-.13.64v4.42a1.6,1.6,0,0,0,.13.64,1.64,1.64,0,0,0,.88.88,1.6,1.6,0,0,0,.64.13h.76a1.61,1.61,0,0,0,.64-.13,1.64,1.64,0,0,0,.88-.88,1.62,1.62,0,0,0,.13-.64Z"/><path class="cls-2" d="M208.76,22.88a2.79,2.79,0,0,1-1.49,1.49,2.74,2.74,0,0,1-1.08.22h-.76a2.74,2.74,0,0,1-1.09-.22,2.81,2.81,0,0,1-.89-.6,2.78,2.78,0,0,1-.6-.89,2.73,2.73,0,0,1-.22-1.09V17.51a2.73,2.73,0,0,1,.22-1.09,2.78,2.78,0,0,1,1.49-1.49,2.74,2.74,0,0,1,1.09-.22h.76a2.74,2.74,0,0,1,1.08.22,2.79,2.79,0,0,1,1.49,1.49,2.73,2.73,0,0,1,.22,1.09v2.24h-5.2v2.12a1.6,1.6,0,0,0,.13.64,1.64,1.64,0,0,0,.88.88,1.6,1.6,0,0,0,.64.13h.76a1.61,1.61,0,0,0,.64-.13,1.64,1.64,0,0,0,.88-.88,1.62,1.62,0,0,0,.13-.64v-.63l1.14.19v.38A2.73,2.73,0,0,1,208.76,22.88Zm-.92-5.44a1.62,1.62,0,0,0-.13-.64,1.64,1.64,0,0,0-.88-.88,1.62,1.62,0,0,0-.64-.13h-.76a1.61,1.61,0,0,0-.64.13,1.64,1.64,0,0,0-.88.88,1.61,1.61,0,0,0-.13.64v1.41h4.06Z"/><path class="cls-2" d="M221.76,22.88a2.78,2.78,0,0,1-1.49,1.49,2.74,2.74,0,0,1-1.09.22h-.76a2.73,2.73,0,0,1-1.08-.22,2.79,2.79,0,0,1-1.49-1.49,2.73,2.73,0,0,1-.22-1.09V17.51a2.73,2.73,0,0,1,.22-1.09,2.79,2.79,0,0,1,1.49-1.49,2.73,2.73,0,0,1,1.08-.22h.76a2.74,2.74,0,0,1,1.09.22,2.78,2.78,0,0,1,1.49,1.49,2.73,2.73,0,0,1,.22,1.09v.38l-1.14.19v-.63a1.61,1.61,0,0,0-.13-.64,1.64,1.64,0,0,0-.88-.88,1.61,1.61,0,0,0-.64-.13h-.76a1.62,1.62,0,0,0-.64.13,1.64,1.64,0,0,0-.88.88,1.61,1.61,0,0,0-.13.64v4.42a1.6,1.6,0,0,0,.13.64,1.64,1.64,0,0,0,.88.88,1.61,1.61,0,0,0,.64.13h.76a1.6,1.6,0,0,0,.64-.13,1.64,1.64,0,0,0,.88-.88,1.6,1.6,0,0,0,.13-.64v-.63l1.14.19v.38A2.73,2.73,0,0,1,221.76,22.88Z"/><path class="cls-2" d="M230.38,22.88a2.78,2.78,0,0,1-1.49,1.49,2.74,2.74,0,0,1-1.09.22H227a2.73,2.73,0,0,1-1.08-.22,2.79,2.79,0,0,1-1.49-1.49,2.73,2.73,0,0,1-.22-1.09V17.51a2.73,2.73,0,0,1,.22-1.09A2.79,2.79,0,0,1,226,14.93a2.73,2.73,0,0,1,1.08-.22h.76a2.74,2.74,0,0,1,1.09.22,2.78,2.78,0,0,1,1.49,1.49,2.73,2.73,0,0,1,.22,1.09v4.29A2.73,2.73,0,0,1,230.38,22.88Zm-.92-5.44a1.61,1.61,0,0,0-.13-.64,1.64,1.64,0,0,0-.88-.88,1.61,1.61,0,0,0-.64-.13H227a1.62,1.62,0,0,0-.64.13,1.64,1.64,0,0,0-.88.88,1.61,1.61,0,0,0-.13.64v4.42a1.6,1.6,0,0,0,.13.64,1.64,1.64,0,0,0,.88.88,1.61,1.61,0,0,0,.64.13h.76a1.6,1.6,0,0,0,.64-.13,1.64,1.64,0,0,0,.88-.88,1.6,1.6,0,0,0,.13-.64Z"/><path class="cls-2" d="M238.09,24.4v-7a1.61,1.61,0,0,0-.13-.64,1.64,1.64,0,0,0-.88-.88,1.61,1.61,0,0,0-.64-.13h-.76a1.62,1.62,0,0,0-.64.13,1.64,1.64,0,0,0-.88.88,1.61,1.61,0,0,0-.13.64v7h-1.14V14.9h.38l.62,1a2.86,2.86,0,0,1,1-.84,2.71,2.71,0,0,1,1.29-.31h.29a2.74,2.74,0,0,1,1.09.22A2.78,2.78,0,0,1,239,16.42a2.73,2.73,0,0,1,.22,1.09V24.4Z"/><path class="cls-2" d="M245,24.4a2.48,2.48,0,0,1-1-.19,2.44,2.44,0,0,1-.8-.54,2.62,2.62,0,0,1-.54-.8,2.4,2.4,0,0,1-.2-1V16h-1.71V14.9h1.71V12.62l1.14-.19V14.9H246V16H243.6v6a1.34,1.34,0,0,0,.11.53,1.38,1.38,0,0,0,.29.43,1.37,1.37,0,0,0,1,.4h1V24.4Z"/><path class="cls-2" d="M250.9,16a1.61,1.61,0,0,0-.64.13,1.64,1.64,0,0,0-.88.88,1.61,1.61,0,0,0-.13.65V24.4h-1.14V14.9h.38l.62,1a2.85,2.85,0,0,1,1-.84,2.71,2.71,0,0,1,1.28-.31H252V16Z"/><path class="cls-2" d="M259.69,22.88a2.79,2.79,0,0,1-1.49,1.49,2.74,2.74,0,0,1-1.08.22h-.76a2.74,2.74,0,0,1-1.09-.22,2.81,2.81,0,0,1-.89-.6,2.78,2.78,0,0,1-.6-.89,2.73,2.73,0,0,1-.22-1.09V17.51a2.73,2.73,0,0,1,.22-1.09,2.78,2.78,0,0,1,1.49-1.49,2.74,2.74,0,0,1,1.09-.22h.76a2.74,2.74,0,0,1,1.08.22,2.79,2.79,0,0,1,1.49,1.49,2.73,2.73,0,0,1,.22,1.09v4.29A2.73,2.73,0,0,1,259.69,22.88Zm-.92-5.44a1.62,1.62,0,0,0-.13-.64,1.64,1.64,0,0,0-.88-.88,1.62,1.62,0,0,0-.64-.13h-.76a1.61,1.61,0,0,0-.64.13,1.64,1.64,0,0,0-.88.88,1.61,1.61,0,0,0-.13.64v4.42a1.6,1.6,0,0,0,.13.64,1.64,1.64,0,0,0,.88.88,1.6,1.6,0,0,0,.64.13h.76a1.61,1.61,0,0,0,.64-.13,1.64,1.64,0,0,0,.88-.88,1.62,1.62,0,0,0,.13-.64Z"/><path class="cls-2" d="M262.57,24.4V11.1h1.14V24.4Z"/><path class="cls-2" d="M276.71,24.4l-.63-1a2.87,2.87,0,0,1-1,.84,2.69,2.69,0,0,1-1.28.31h-.29a2.74,2.74,0,0,1-1.09-.22,2.81,2.81,0,0,1-.89-.6,2.78,2.78,0,0,1-.6-.89,2.73,2.73,0,0,1-.22-1.09V17.51a2.73,2.73,0,0,1,.22-1.09,2.78,2.78,0,0,1,1.49-1.49,2.74,2.74,0,0,1,1.09-.22h.29a2.74,2.74,0,0,1,2.13,1V11.1h1.14V24.4Zm-.76-7a1.62,1.62,0,0,0-.13-.64,1.64,1.64,0,0,0-.88-.88,1.62,1.62,0,0,0-.64-.13h-.76a1.61,1.61,0,0,0-.64.13,1.64,1.64,0,0,0-.88.88,1.61,1.61,0,0,0-.13.64v4.42a1.6,1.6,0,0,0,.13.64,1.64,1.64,0,0,0,.88.88,1.6,1.6,0,0,0,.64.13h.76a1.61,1.61,0,0,0,.64-.13,1.64,1.64,0,0,0,.88-.88,1.62,1.62,0,0,0,.13-.64Z"/><path class="cls-2" d="M285.5,22.88A2.79,2.79,0,0,1,284,24.37a2.74,2.74,0,0,1-1.08.22h-.76a2.74,2.74,0,0,1-1.09-.22,2.81,2.81,0,0,1-.89-.6,2.78,2.78,0,0,1-.6-.89,2.73,2.73,0,0,1-.22-1.09V17.51a2.73,2.73,0,0,1,.22-1.09,2.78,2.78,0,0,1,1.49-1.49,2.74,2.74,0,0,1,1.09-.22h.76a2.74,2.74,0,0,1,1.08.22,2.79,2.79,0,0,1,1.49,1.49,2.73,2.73,0,0,1,.22,1.09v2.24h-5.2v2.12a1.6,1.6,0,0,0,.13.64,1.64,1.64,0,0,0,.88.88,1.6,1.6,0,0,0,.64.13h.76a1.61,1.61,0,0,0,.64-.13,1.64,1.64,0,0,0,.88-.88,1.62,1.62,0,0,0,.13-.64v-.63l1.14.19v.38A2.73,2.73,0,0,1,285.5,22.88Zm-.92-5.44a1.62,1.62,0,0,0-.13-.64,1.64,1.64,0,0,0-.88-.88,1.62,1.62,0,0,0-.64-.13h-.76a1.61,1.61,0,0,0-.64.13,1.64,1.64,0,0,0-.88.88,1.61,1.61,0,0,0-.13.64v1.41h4.06Z"/><path class="cls-2" d="M298.5,22.88A2.78,2.78,0,0,1,297,24.37a2.74,2.74,0,0,1-1.09.22h-.76a2.73,2.73,0,0,1-1.08-.22,2.79,2.79,0,0,1-1.49-1.49,2.73,2.73,0,0,1-.22-1.09V17.51a2.73,2.73,0,0,1,.22-1.09,2.79,2.79,0,0,1,1.49-1.49,2.73,2.73,0,0,1,1.08-.22h.76a2.74,2.74,0,0,1,1.09.22,2.78,2.78,0,0,1,1.49,1.49,2.73,2.73,0,0,1,.22,1.09v.38l-1.14.19v-.63a1.61,1.61,0,0,0-.13-.64,1.64,1.64,0,0,0-.88-.88,1.61,1.61,0,0,0-.64-.13h-.76a1.62,1.62,0,0,0-.64.13,1.64,1.64,0,0,0-.88.88,1.61,1.61,0,0,0-.13.64v4.42a1.6,1.6,0,0,0,.13.64,1.64,1.64,0,0,0,.88.88,1.61,1.61,0,0,0,.64.13h.76a1.6,1.6,0,0,0,.64-.13,1.64,1.64,0,0,0,.88-.88,1.6,1.6,0,0,0,.13-.64v-.63l1.14.19v.38A2.73,2.73,0,0,1,298.5,22.88Z"/><path class="cls-2" d="M307,24.4l-.63-.95a3,3,0,0,1-1,.82,2.69,2.69,0,0,1-1.28.31h-.29a2.73,2.73,0,0,1-1.08-.22,2.79,2.79,0,0,1-1.49-1.49,2.73,2.73,0,0,1-.22-1.09V21.7a2.73,2.73,0,0,1,.22-1.09,2.79,2.79,0,0,1,1.49-1.49,2.73,2.73,0,0,1,1.08-.22h2.41V17.44a1.61,1.61,0,0,0-.13-.64,1.64,1.64,0,0,0-.88-.88,1.61,1.61,0,0,0-.64-.13h-.67a1.62,1.62,0,0,0-.64.13,1.64,1.64,0,0,0-.88.88,1.61,1.61,0,0,0-.13.64v.34l-1.14-.19v-.09a2.73,2.73,0,0,1,.22-1.09,2.79,2.79,0,0,1,1.49-1.49,2.73,2.73,0,0,1,1.08-.22h.67a2.74,2.74,0,0,1,1.09.22,2.78,2.78,0,0,1,1.49,1.49,2.73,2.73,0,0,1,.22,1.09V24.4Zm-.76-4.6h-2.41a1.63,1.63,0,0,0-1.17.49,1.73,1.73,0,0,0-.35.53,1.61,1.61,0,0,0-.13.65v.4a1.6,1.6,0,0,0,.13.64,1.64,1.64,0,0,0,.88.88,1.61,1.61,0,0,0,.64.13h.76a1.6,1.6,0,0,0,.64-.13,1.64,1.64,0,0,0,.88-.88,1.6,1.6,0,0,0,.13-.64Z"/><path class="cls-2" d="M319.66,24.4v-7a1.61,1.61,0,0,0-.13-.64,1.64,1.64,0,0,0-.88-.88,1.61,1.61,0,0,0-.64-.13h-.57a1.62,1.62,0,0,0-.65.13,1.73,1.73,0,0,0-.53.35,1.63,1.63,0,0,0-.36.52,1.61,1.61,0,0,0-.13.64v7h-1.13v-7a1.63,1.63,0,0,0-.49-1.17,1.72,1.72,0,0,0-.53-.35,1.62,1.62,0,0,0-.64-.13h-.57a1.62,1.62,0,0,0-.64.13,1.64,1.64,0,0,0-.88.88,1.61,1.61,0,0,0-.13.64v7h-1.14V14.9H310l.62,1a2.86,2.86,0,0,1,1-.84,2.71,2.71,0,0,1,1.29-.31H313a2.76,2.76,0,0,1,2.46,1.46,2.7,2.7,0,0,1,.44-.59,2.81,2.81,0,0,1,.58-.46,2.85,2.85,0,0,1,.69-.3,2.78,2.78,0,0,1,.77-.11H318a2.74,2.74,0,0,1,1.09.22,2.78,2.78,0,0,1,1.49,1.49,2.73,2.73,0,0,1,.22,1.09V24.4Z"/><path class="cls-2" d="M329.21,22.88a2.78,2.78,0,0,1-1.49,1.49,2.74,2.74,0,0,1-1.09.22h-.76a2.73,2.73,0,0,1-1.08-.22,2.79,2.79,0,0,1-1.49-1.49,2.73,2.73,0,0,1-.22-1.09V11.1h1.14v4.6a2.74,2.74,0,0,1,2.13-1h.29a2.74,2.74,0,0,1,1.09.22,2.78,2.78,0,0,1,1.49,1.49,2.73,2.73,0,0,1,.22,1.09v4.29A2.73,2.73,0,0,1,329.21,22.88Zm-.92-5.44a1.61,1.61,0,0,0-.13-.64,1.64,1.64,0,0,0-.88-.88,1.61,1.61,0,0,0-.64-.13h-.76a1.62,1.62,0,0,0-.64.13,1.64,1.64,0,0,0-.88.88,1.61,1.61,0,0,0-.13.64v4.42a1.6,1.6,0,0,0,.13.64,1.64,1.64,0,0,0,.88.88,1.61,1.61,0,0,0,.64.13h.76a1.6,1.6,0,0,0,.64-.13,1.64,1.64,0,0,0,.88-.88,1.6,1.6,0,0,0,.13-.64Z"/><path class="cls-2" d="M332,12.62V11.1h1.33v1.52Zm.09,11.78V14.9h1.14v9.5Z"/><path class="cls-2" d="M342,22.88a2.79,2.79,0,0,1-1.49,1.49,2.74,2.74,0,0,1-1.08.22h-.76a2.74,2.74,0,0,1-1.09-.22,2.81,2.81,0,0,1-.89-.6,2.78,2.78,0,0,1-.6-.89,2.73,2.73,0,0,1-.22-1.09V17.51a2.73,2.73,0,0,1,.22-1.09,2.78,2.78,0,0,1,1.49-1.49,2.74,2.74,0,0,1,1.09-.22h.76a2.74,2.74,0,0,1,1.08.22A2.79,2.79,0,0,1,342,16.42a2.73,2.73,0,0,1,.22,1.09v4.29A2.73,2.73,0,0,1,342,22.88Zm-.92-5.44a1.62,1.62,0,0,0-.13-.64,1.64,1.64,0,0,0-.88-.88,1.62,1.62,0,0,0-.64-.13h-.76a1.61,1.61,0,0,0-.64.13,1.64,1.64,0,0,0-.88.88,1.61,1.61,0,0,0-.13.64v4.42a1.6,1.6,0,0,0,.13.64,1.64,1.64,0,0,0,.88.88,1.6,1.6,0,0,0,.64.13h.76a1.61,1.61,0,0,0,.64-.13,1.64,1.64,0,0,0,.88-.88,1.62,1.62,0,0,0,.13-.64Z"/><path class="cls-2" d="M351.05,22a2.38,2.38,0,0,1-.23,1.05,2.53,2.53,0,0,1-.63.82,2.94,2.94,0,0,1-.92.53,3.2,3.2,0,0,1-1.1.19h-.76a2.84,2.84,0,0,1-1.1-.22,2.92,2.92,0,0,1-1.55-1.49,2.54,2.54,0,0,1-.24-1.09v-.38l1.14-.19v.63a1.48,1.48,0,0,0,.14.64,1.7,1.7,0,0,0,.38.52,1.86,1.86,0,0,0,.56.35,1.71,1.71,0,0,0,.66.13h.76a2.11,2.11,0,0,0,.66-.1,1.83,1.83,0,0,0,.56-.29,1.41,1.41,0,0,0,.39-.46,1.28,1.28,0,0,0,.14-.61,1.45,1.45,0,0,0-.22-.83,1.85,1.85,0,0,0-.59-.54,3.82,3.82,0,0,0-.83-.36l-1-.29q-.49-.14-1-.33a3.09,3.09,0,0,1-.83-.49,2.23,2.23,0,0,1-.59-.76,2.56,2.56,0,0,1-.22-1.13,2.46,2.46,0,0,1,.22-1.05,2.53,2.53,0,0,1,.6-.82,2.75,2.75,0,0,1,.89-.53,3,3,0,0,1,1.08-.19h.67a2.74,2.74,0,0,1,1.08.22,2.79,2.79,0,0,1,1.49,1.49,2.73,2.73,0,0,1,.22,1.09v0l-1.14.19v-.29a1.62,1.62,0,0,0-.13-.64,1.64,1.64,0,0,0-.88-.88,1.62,1.62,0,0,0-.64-.13h-.67a2,2,0,0,0-.64.1,1.58,1.58,0,0,0-.52.29,1.36,1.36,0,0,0-.48,1.07,1.35,1.35,0,0,0,.22.8,1.87,1.87,0,0,0,.59.52,3.94,3.94,0,0,0,.83.36l1,.3q.49.15,1,.35a3.22,3.22,0,0,1,.83.5,2.28,2.28,0,0,1,.59.77A2.6,2.6,0,0,1,351.05,22Z"/><path class="cls-2" d="M363.58,24.4l-.63-1a2.87,2.87,0,0,1-1,.84,2.69,2.69,0,0,1-1.28.31h-.29a2.73,2.73,0,0,1-1.08-.22,2.79,2.79,0,0,1-1.49-1.49,2.73,2.73,0,0,1-.22-1.09V17.51a2.73,2.73,0,0,1,.22-1.09,2.79,2.79,0,0,1,1.49-1.49,2.73,2.73,0,0,1,1.08-.22h.29a2.73,2.73,0,0,1,2.12,1V11.1H364V24.4Zm-.76-7a1.61,1.61,0,0,0-.13-.64,1.64,1.64,0,0,0-.88-.88,1.61,1.61,0,0,0-.64-.13h-.76a1.62,1.62,0,0,0-.64.13,1.64,1.64,0,0,0-.88.88,1.61,1.61,0,0,0-.13.64v4.42a1.6,1.6,0,0,0,.13.64,1.64,1.64,0,0,0,.88.88,1.61,1.61,0,0,0,.64.13h.76a1.6,1.6,0,0,0,.64-.13,1.64,1.64,0,0,0,.88-.88,1.6,1.6,0,0,0,.13-.64Z"/><path class="cls-2" d="M372.37,22.88a2.78,2.78,0,0,1-1.49,1.49,2.74,2.74,0,0,1-1.09.22H369a2.73,2.73,0,0,1-1.08-.22,2.79,2.79,0,0,1-1.49-1.49,2.73,2.73,0,0,1-.22-1.09V17.51a2.73,2.73,0,0,1,.22-1.09,2.79,2.79,0,0,1,1.49-1.49,2.73,2.73,0,0,1,1.08-.22h.76a2.74,2.74,0,0,1,1.09.22,2.78,2.78,0,0,1,1.49,1.49,2.73,2.73,0,0,1,.22,1.09v2.24h-5.21v2.12a1.6,1.6,0,0,0,.13.64,1.64,1.64,0,0,0,.88.88,1.61,1.61,0,0,0,.64.13h.76a1.6,1.6,0,0,0,.64-.13,1.64,1.64,0,0,0,.88-.88,1.6,1.6,0,0,0,.13-.64v-.63l1.14.19v.38A2.73,2.73,0,0,1,372.37,22.88Zm-.92-5.44a1.61,1.61,0,0,0-.13-.64,1.64,1.64,0,0,0-.88-.88,1.61,1.61,0,0,0-.64-.13H369a1.62,1.62,0,0,0-.64.13,1.64,1.64,0,0,0-.88.88,1.61,1.61,0,0,0-.13.64v1.41h4.06Z"/><path class="cls-2" d="M375.25,24.4V11.1h1.14V24.4Z"/><path class="cls-2" d="M390,22a2.38,2.38,0,0,1-.23,1.05,2.52,2.52,0,0,1-.63.82,2.92,2.92,0,0,1-.92.53,3.2,3.2,0,0,1-1.1.19h-.76a2.84,2.84,0,0,1-1.1-.22,2.92,2.92,0,0,1-1.55-1.49,2.54,2.54,0,0,1-.24-1.09v-.38l1.14-.19v.63a1.48,1.48,0,0,0,.14.64,1.71,1.71,0,0,0,.39.52,1.83,1.83,0,0,0,.56.35,1.71,1.71,0,0,0,.66.13h.76a2.12,2.12,0,0,0,.66-.1,1.81,1.81,0,0,0,.56-.29,1.41,1.41,0,0,0,.39-.46,1.27,1.27,0,0,0,.14-.61,1.45,1.45,0,0,0-.22-.83,1.84,1.84,0,0,0-.59-.54,3.82,3.82,0,0,0-.83-.36l-1-.29q-.49-.14-1-.33a3.09,3.09,0,0,1-.83-.49,2.23,2.23,0,0,1-.59-.76,2.56,2.56,0,0,1-.22-1.13,2.46,2.46,0,0,1,.22-1.05,2.53,2.53,0,0,1,.6-.82,2.76,2.76,0,0,1,.89-.53,3,3,0,0,1,1.08-.19h.67a2.74,2.74,0,0,1,1.09.22,2.78,2.78,0,0,1,1.49,1.49,2.73,2.73,0,0,1,.22,1.09v0l-1.14.19v-.29a1.61,1.61,0,0,0-.13-.64,1.64,1.64,0,0,0-.88-.88,1.61,1.61,0,0,0-.64-.13h-.67a2,2,0,0,0-.64.1,1.58,1.58,0,0,0-.52.29,1.36,1.36,0,0,0-.48,1.07,1.35,1.35,0,0,0,.22.8,1.87,1.87,0,0,0,.59.52,4,4,0,0,0,.83.36l1,.3c.32.1.64.22,1,.35a3.22,3.22,0,0,1,.83.5,2.27,2.27,0,0,1,.59.77A2.6,2.6,0,0,1,390,22Z"/><path class="cls-2" d="M398.27,22.88a2.78,2.78,0,0,1-1.49,1.49,2.74,2.74,0,0,1-1.09.22h-.76a2.73,2.73,0,0,1-1.08-.22,2.79,2.79,0,0,1-1.49-1.49,2.73,2.73,0,0,1-.22-1.09V17.51a2.73,2.73,0,0,1,.22-1.09,2.79,2.79,0,0,1,1.49-1.49,2.73,2.73,0,0,1,1.08-.22h.76a2.74,2.74,0,0,1,1.09.22,2.78,2.78,0,0,1,1.49,1.49,2.73,2.73,0,0,1,.22,1.09v4.29A2.73,2.73,0,0,1,398.27,22.88Zm-.92-5.44a1.61,1.61,0,0,0-.13-.64,1.64,1.64,0,0,0-.88-.88,1.61,1.61,0,0,0-.64-.13h-.76a1.62,1.62,0,0,0-.64.13,1.64,1.64,0,0,0-.88.88,1.61,1.61,0,0,0-.13.64v4.42a1.6,1.6,0,0,0,.13.64,1.64,1.64,0,0,0,.88.88,1.61,1.61,0,0,0,.64.13h.76a1.6,1.6,0,0,0,.64-.13,1.64,1.64,0,0,0,.88-.88,1.6,1.6,0,0,0,.13-.64Z"/><path class="cls-2" d="M404,12.18a1.32,1.32,0,0,0-.53.11,1.37,1.37,0,0,0-.83,1.27V14.9h2.22V16h-2.22V24.4h-1.14V16h-1.72V14.9h1.72V13.61a2.48,2.48,0,0,1,.19-1,2.51,2.51,0,0,1,1.34-1.34,2.45,2.45,0,0,1,1-.19h1v1.09Z"/><path class="cls-2" d="M409.68,24.4a2.48,2.48,0,0,1-1-.19,2.44,2.44,0,0,1-.8-.54,2.62,2.62,0,0,1-.54-.8,2.4,2.4,0,0,1-.2-1V16h-1.71V14.9h1.71V12.62l1.14-.19V14.9h2.41V16h-2.41v6a1.34,1.34,0,0,0,.11.53,1.38,1.38,0,0,0,.29.43,1.37,1.37,0,0,0,1,.4h1V24.4Z"/><path class="cls-2" d="M420.82,24.4h-.62L418,17.24l0-.49,0,.49-2.23,7.16H415l-3.17-9.5H413l2.26,7.18,0,.49,0-.49,2.23-7.18h.69l2.22,7.18,0,.49,0-.49,2.26-7.18H424Z"/><path class="cls-2" d="M431.29,24.4l-.63-.95a3,3,0,0,1-1,.82,2.69,2.69,0,0,1-1.28.31h-.29a2.74,2.74,0,0,1-1.09-.22,2.81,2.81,0,0,1-.89-.6,2.78,2.78,0,0,1-.6-.89,2.73,2.73,0,0,1-.22-1.09V21.7a2.73,2.73,0,0,1,.22-1.09A2.78,2.78,0,0,1,427,19.13a2.74,2.74,0,0,1,1.09-.22h2.41V17.44a1.62,1.62,0,0,0-.13-.64,1.64,1.64,0,0,0-.88-.88,1.62,1.62,0,0,0-.64-.13h-.67a1.61,1.61,0,0,0-.64.13,1.64,1.64,0,0,0-.88.88,1.61,1.61,0,0,0-.13.64v.34l-1.14-.19v-.09a2.73,2.73,0,0,1,.22-1.09,2.78,2.78,0,0,1,1.49-1.49,2.74,2.74,0,0,1,1.09-.22h.67a2.74,2.74,0,0,1,1.08.22,2.79,2.79,0,0,1,1.49,1.49,2.73,2.73,0,0,1,.22,1.09V24.4Zm-.76-4.6h-2.41a1.61,1.61,0,0,0-.64.13,1.63,1.63,0,0,0-.52.36,1.71,1.71,0,0,0-.35.53,1.61,1.61,0,0,0-.13.65v.4a1.6,1.6,0,0,0,.13.64,1.64,1.64,0,0,0,.88.88,1.6,1.6,0,0,0,.64.13h.76a1.61,1.61,0,0,0,.64-.13,1.64,1.64,0,0,0,.88-.88,1.62,1.62,0,0,0,.13-.64Z"/><path class="cls-2" d="M436.75,16a1.61,1.61,0,0,0-.64.13,1.64,1.64,0,0,0-.88.88,1.61,1.61,0,0,0-.13.65V24.4H434V14.9h.38l.62,1a2.85,2.85,0,0,1,1-.84,2.71,2.71,0,0,1,1.28-.31h.67V16Z"/><path class="cls-2" d="M445.54,22.88A2.79,2.79,0,0,1,444,24.37a2.74,2.74,0,0,1-1.08.22h-.76a2.74,2.74,0,0,1-1.09-.22,2.81,2.81,0,0,1-.89-.6,2.78,2.78,0,0,1-.6-.89,2.73,2.73,0,0,1-.22-1.09V17.51a2.73,2.73,0,0,1,.22-1.09,2.78,2.78,0,0,1,1.49-1.49,2.74,2.74,0,0,1,1.09-.22H443a2.74,2.74,0,0,1,1.08.22,2.79,2.79,0,0,1,1.49,1.49,2.73,2.73,0,0,1,.22,1.09v2.24h-5.2v2.12a1.6,1.6,0,0,0,.13.64,1.64,1.64,0,0,0,.88.88,1.6,1.6,0,0,0,.64.13H443a1.61,1.61,0,0,0,.64-.13,1.64,1.64,0,0,0,.88-.88,1.62,1.62,0,0,0,.13-.64v-.63l1.14.19v.38A2.73,2.73,0,0,1,445.54,22.88Zm-.92-5.44a1.62,1.62,0,0,0-.13-.64,1.64,1.64,0,0,0-.88-.88,1.62,1.62,0,0,0-.64-.13h-.76a1.61,1.61,0,0,0-.64.13,1.64,1.64,0,0,0-.88.88,1.61,1.61,0,0,0-.13.64v1.41h4.06Z"/><polygon id="_Trazado_" data-name="&lt;Trazado&gt;" class="cls-1" points="40.02 40.02 19.01 40.02 19.01 38.77 38.77 38.77 38.77 1.25 17.32 1.25 17.32 0 40.02 0 40.02 40.02"/><path id="_Trazado_2" data-name="&lt;Trazado&gt;" class="cls-3" d="M18.45,14.88a4.49,4.49,0,0,0-4.51-4.51H5.19a4.48,4.48,0,0,0-4.5,4.51V27H3.51V39.4H15.64V26.95h2.81Z"/><path id="_Trazado_3" data-name="&lt;Trazado&gt;" class="cls-4" d="M5.94,36.9V24.45H3.13V14.88a2,2,0,0,1,2-2h8.82a2,2,0,0,1,2,2v9.57H13.13V36.9Z"/><path id="_Trazado_compuesto_" data-name="&lt;Trazado compuesto&gt;" class="cls-5" d="M13.94,9.76H5.13A5.15,5.15,0,0,0,0,14.88V27.58H2.81V40H16.19V27.58H19V14.88A5,5,0,0,0,13.94,9.76Zm3.88,16.57H15V38.77H4.07V26.33H1.26V14.88A3.9,3.9,0,0,1,5.13,11h8.82a3.9,3.9,0,0,1,3.88,3.88V26.33Z"/><circle id="_Trazado_4" data-name="&lt;Trazado&gt;" class="cls-3" cx="9.5" cy="4.32" r="3.69"/><path id="_Trazado_compuesto_2" data-name="&lt;Trazado compuesto&gt;" class="cls-5" d="M9.5,8.63a4.32,4.32,0,1,1,4.32-4.32A4.32,4.32,0,0,1,9.5,8.63Zm0-7.38a3.07,3.07,0,1,0,3.07,3.07A3.07,3.07,0,0,0,9.5,1.25Z"/><rect id="_Trazado_5" data-name="&lt;Trazado&gt;" class="cls-3" x="8.88" y="16.01" width="1.25" height="1.25"/><rect id="_Trazado_6" data-name="&lt;Trazado&gt;" class="cls-3" x="12.64" y="16.01" width="1.25" height="1.25"/><polygon id="_Trazado_7" data-name="&lt;Trazado&gt;" class="cls-4" points="32.9 8.38 30.77 6.19 31.65 5.32 32.9 6.57 36.02 3.51 36.9 4.38 32.9 8.38"/><polygon id="_Trazado_8" data-name="&lt;Trazado&gt;" class="cls-4" points="32.9 15.51 30.77 13.32 31.65 12.45 32.9 13.76 36.02 10.63 36.9 11.5 32.9 15.51"/><polygon id="_Trazado_9" data-name="&lt;Trazado&gt;" class="cls-4" points="32.9 29.83 30.77 27.64 31.65 26.77 32.9 28.08 36.02 24.95 36.9 25.82 32.9 29.83"/><polygon id="_Trazado_10" data-name="&lt;Trazado&gt;" class="cls-4" points="32.9 36.96 30.77 34.83 31.65 33.95 32.9 35.21 36.02 32.08 36.9 32.95 32.9 36.96"/><polygon id="_Trazado_11" data-name="&lt;Trazado&gt;" class="cls-4" points="32.9 22.7 30.77 20.51 31.65 19.64 32.9 20.89 36.02 17.76 36.9 18.7 32.9 22.7"/><rect id="_Trazado_12" data-name="&lt;Trazado&gt;" class="cls-1" x="21.52" y="5.69" width="5.75" height="1.25"/><rect id="_Trazado_13" data-name="&lt;Trazado&gt;" class="cls-1" x="21.52" y="12.82" width="5.75" height="1.25"/><rect id="_Trazado_14" data-name="&lt;Trazado&gt;" class="cls-1" x="21.52" y="19.95" width="5.75" height="1.25"/><rect id="_Trazado_15" data-name="&lt;Trazado&gt;" class="cls-1" x="21.52" y="27.14" width="5.75" height="1.25"/><rect id="_Trazado_16" data-name="&lt;Trazado&gt;" class="cls-1" x="21.52" y="34.27" width="5.75" height="1.25"/><rect id="_Rectángulo_" data-name="&lt;Rectángulo&gt;" class="cls-3" x="8.64" y="28.39" width="1.73" height="10.38"/><rect class="cls-4" x="42.02" y="32.66" width="421.02" height="2.51"/></g></g></svg>