<svg xmlns="http://www.w3.org/2000/svg" viewBox="0 0 921 43.87"><defs><style>.cls-1{fill:#424242;}.cls-2{fill:#f05032;}.cls-3{fill:#fff;}.cls-4{fill:#424142;}</style></defs><title>titulo5</title><g id="Capa_2" data-name="Capa 2"><g id="CONTENIDO"><rect class="cls-1" x="40.35" y="12.87" width="880.65" height="26.81"/><rect class="cls-2" x="40.35" y="41.35" width="880.65" height="2.51"/><path class="cls-3" d="M65.09,28.39v5.33H63.2V20.21h4.39a4,4,0,0,1,3,1.13,4.09,4.09,0,0,1,1.09,3,4.08,4.08,0,0,1-1.09,3,4,4,0,0,1-3,1.12Zm0-1.45h2.5a2,2,0,0,0,1.66-.75,3,3,0,0,0,.57-1.88,3.11,3.11,0,0,0-.56-1.9,1.94,1.94,0,0,0-1.67-.76h-2.5Z"/><path class="cls-3" d="M77.79,25.25l-.82,0a1.41,1.41,0,0,0-1,.36,2.28,2.28,0,0,0-.61,1v7.15H73.48v-10h1.73l.13,1.48a3.23,3.23,0,0,1,.85-1.23,1.8,1.8,0,0,1,1.2-.44,1.61,1.61,0,0,1,.33,0l.27.08Z"/><path class="cls-3" d="M81.34,21H79.45v-1.8h1.89Zm0,12.67H79.45v-10h1.89Z"/><path class="cls-3" d="M85.37,23.68l.1,1.36a3.11,3.11,0,0,1,1.06-1.15,2.76,2.76,0,0,1,1.5-.4,2.35,2.35,0,0,1,1.45.46,2.75,2.75,0,0,1,.92,1.4A3.43,3.43,0,0,1,91.46,24,2.55,2.55,0,0,1,93,23.49a2.38,2.38,0,0,1,2.05,1.06,5.65,5.65,0,0,1,.75,3.23v5.93H93.93V27.78a4.44,4.44,0,0,0-.39-2.19A1.28,1.28,0,0,0,92.38,25a1.42,1.42,0,0,0-1.09.48,3,3,0,0,0-.64,1.27l0,.35c0,.12,0,.24,0,.37v6.29H88.79V27.78a4.37,4.37,0,0,0-.4-2.17A1.28,1.28,0,0,0,87.23,25a1.64,1.64,0,0,0-1,.33,2.21,2.21,0,0,0-.67.92v7.5H83.63v-10Z"/><path class="cls-3" d="M101.62,33.91a3.51,3.51,0,0,1-2.94-1.37A5.67,5.67,0,0,1,97.62,29v-.44a5.89,5.89,0,0,1,1.06-3.62,3.29,3.29,0,0,1,2.76-1.42,3,3,0,0,1,2.61,1.22A5.39,5.39,0,0,1,105,28V29H99.5a5,5,0,0,0,.55,2.5,1.82,1.82,0,0,0,1.69,1,3.29,3.29,0,0,0,2.45-1l.61,1.17a4,4,0,0,1-1.32.87A4.71,4.71,0,0,1,101.62,33.91Zm-.18-9a1.48,1.48,0,0,0-1.3.76,4.51,4.51,0,0,0-.6,2h3.55v-.21a3.67,3.67,0,0,0-.4-1.84A1.34,1.34,0,0,0,101.44,24.94Z"/><path class="cls-3" d="M111,25.25l-.82,0a1.42,1.42,0,0,0-1,.36,2.3,2.3,0,0,0-.61,1v7.15h-1.89v-10h1.73l.13,1.48a3.22,3.22,0,0,1,.85-1.23,1.8,1.8,0,0,1,1.2-.44,1.59,1.59,0,0,1,.33,0l.27.08Z"/><path class="cls-3" d="M111.93,28.59A6,6,0,0,1,113,24.92a3.67,3.67,0,0,1,5.81,0,6,6,0,0,1,1.06,3.67v.25a6,6,0,0,1-1.06,3.66,3.7,3.7,0,0,1-5.82,0,6,6,0,0,1-1.06-3.66Zm1.89.25a5.85,5.85,0,0,0,.51,2.63,1.67,1.67,0,0,0,1.57,1,1.65,1.65,0,0,0,1.54-1,5.83,5.83,0,0,0,.52-2.62v-.25a5.81,5.81,0,0,0-.52-2.61,1.69,1.69,0,0,0-3.11,0,5.87,5.87,0,0,0-.51,2.61Z"/><path class="cls-3" d="M126.42,31.19a1.34,1.34,0,0,0-.39-1,5.23,5.23,0,0,0-1.49-.89,7.47,7.47,0,0,1-2.32-1.27,2.25,2.25,0,0,1-.77-1.76,2.53,2.53,0,0,1,.93-2,3.55,3.55,0,0,1,2.43-.82,3.48,3.48,0,0,1,2.5.9,2.76,2.76,0,0,1,.91,2.17l0,.06h-1.82a1.88,1.88,0,0,0-.42-1.23,1.4,1.4,0,0,0-1.14-.51,1.52,1.52,0,0,0-1.13.4,1.29,1.29,0,0,0-.4.94,1.18,1.18,0,0,0,.35.9,6.13,6.13,0,0,0,1.49.85,6.86,6.86,0,0,1,2.37,1.29,2.39,2.39,0,0,1,.79,1.84,2.51,2.51,0,0,1-1,2,3.86,3.86,0,0,1-2.52.78,3.65,3.65,0,0,1-2.66-.94,2.82,2.82,0,0,1-.92-2.2l0-.06H123a1.83,1.83,0,0,0,.55,1.41,1.93,1.93,0,0,0,1.29.43,1.68,1.68,0,0,0,1.17-.38A1.27,1.27,0,0,0,126.42,31.19Z"/><path class="cls-3" d="M141.74,29a6.36,6.36,0,0,1-.89,3.56,3,3,0,0,1-3.79,1,2.66,2.66,0,0,1-1-.86v4.81H134.2V23.68h1.6l.18,1.21a3,3,0,0,1,1-1,2.63,2.63,0,0,1,1.38-.36A2.77,2.77,0,0,1,140.85,25a7.39,7.39,0,0,1,.89,3.87Zm-1.89-.2a6.67,6.67,0,0,0-.5-2.78A1.59,1.59,0,0,0,137.86,25a1.66,1.66,0,0,0-1.07.35,2.42,2.42,0,0,0-.7.94v5.06a2.1,2.1,0,0,0,.7.87,1.82,1.82,0,0,0,1.08.31,1.59,1.59,0,0,0,1.48-.95,5.51,5.51,0,0,0,.49-2.52Z"/><path class="cls-3" d="M148.77,33.72c-.08-.3-.14-.57-.19-.81a5.09,5.09,0,0,1-.09-.71,3.68,3.68,0,0,1-1.05,1.23,2.43,2.43,0,0,1-1.49.49,2.64,2.64,0,0,1-2.06-.8,3.14,3.14,0,0,1-.72-2.18,2.73,2.73,0,0,1,1-2.24,4.27,4.27,0,0,1,2.78-.82h1.54v-1a2.26,2.26,0,0,0-.41-1.43,1.57,1.57,0,0,0-2.26-.07,1.63,1.63,0,0,0-.4,1.14h-1.8l0-.06a2.55,2.55,0,0,1,.91-2.06,3.57,3.57,0,0,1,2.52-.89,3.38,3.38,0,0,1,2.42.88,3.28,3.28,0,0,1,.93,2.5v4.66a8,8,0,0,0,.07,1.12,7,7,0,0,0,.23,1.07Zm-2.43-1.25A2.11,2.11,0,0,0,147.7,32a2.23,2.23,0,0,0,.78-1.15V29.05h-1.57a1.73,1.73,0,0,0-1.36.55,1.93,1.93,0,0,0-.49,1.33,1.73,1.73,0,0,0,.33,1.11A1.14,1.14,0,0,0,146.34,32.47Z"/><path class="cls-3" d="M157.28,31.19a1.34,1.34,0,0,0-.39-1,5.23,5.23,0,0,0-1.49-.89,7.46,7.46,0,0,1-2.32-1.27,2.25,2.25,0,0,1-.77-1.76,2.53,2.53,0,0,1,.93-2,3.55,3.55,0,0,1,2.43-.82,3.48,3.48,0,0,1,2.5.9,2.75,2.75,0,0,1,.91,2.17l0,.06h-1.82a1.88,1.88,0,0,0-.42-1.23,1.4,1.4,0,0,0-1.15-.51,1.52,1.52,0,0,0-1.13.4,1.29,1.29,0,0,0-.4.94,1.18,1.18,0,0,0,.35.9A6.09,6.09,0,0,0,156,28a6.87,6.87,0,0,1,2.37,1.29,2.4,2.4,0,0,1,.79,1.84,2.51,2.51,0,0,1-1,2,3.86,3.86,0,0,1-2.52.78A3.65,3.65,0,0,1,153,33a2.82,2.82,0,0,1-.92-2.2l0-.06h1.75a1.83,1.83,0,0,0,.55,1.41,1.93,1.93,0,0,0,1.29.43,1.68,1.68,0,0,0,1.17-.38A1.27,1.27,0,0,0,157.28,31.19Z"/><path class="cls-3" d="M160.51,28.59a6,6,0,0,1,1.06-3.67,3.67,3.67,0,0,1,5.81,0,6,6,0,0,1,1.06,3.67v.25a6,6,0,0,1-1.06,3.66,3.7,3.7,0,0,1-5.82,0,6,6,0,0,1-1.06-3.66Zm1.89.25a5.84,5.84,0,0,0,.51,2.63,1.67,1.67,0,0,0,1.57,1,1.65,1.65,0,0,0,1.54-1,5.83,5.83,0,0,0,.52-2.62v-.25A5.81,5.81,0,0,0,166,26a1.69,1.69,0,0,0-3.11,0,5.86,5.86,0,0,0-.51,2.61Z"/><path class="cls-3" d="M175,31.19a1.34,1.34,0,0,0-.39-1,5.23,5.23,0,0,0-1.49-.89,7.49,7.49,0,0,1-2.32-1.27,2.25,2.25,0,0,1-.77-1.76,2.53,2.53,0,0,1,.93-2,3.55,3.55,0,0,1,2.43-.82,3.48,3.48,0,0,1,2.5.9,2.76,2.76,0,0,1,.91,2.17l0,.06H175a1.88,1.88,0,0,0-.42-1.23,1.4,1.4,0,0,0-1.15-.51,1.52,1.52,0,0,0-1.13.4,1.29,1.29,0,0,0-.4.94,1.18,1.18,0,0,0,.35.9,6.12,6.12,0,0,0,1.49.85,6.87,6.87,0,0,1,2.37,1.29,2.4,2.4,0,0,1,.79,1.84,2.51,2.51,0,0,1-1,2,3.86,3.86,0,0,1-2.52.78,3.65,3.65,0,0,1-2.66-.94,2.82,2.82,0,0,1-.92-2.2l0-.06h1.75a1.83,1.83,0,0,0,.55,1.41,1.93,1.93,0,0,0,1.29.43,1.68,1.68,0,0,0,1.17-.38A1.27,1.27,0,0,0,175,31.19Z"/><path class="cls-3" d="M186.28,32.49a1.48,1.48,0,0,0,1.17-.54,2.15,2.15,0,0,0,.47-1.46h1.7l0,.06a3.1,3.1,0,0,1-1,2.39,3.53,3.53,0,0,1-5.26-.44,6.06,6.06,0,0,1-1-3.61v-.35a6.09,6.09,0,0,1,1-3.61,3.31,3.31,0,0,1,2.87-1.42,3.18,3.18,0,0,1,2.45,1,3.64,3.64,0,0,1,.91,2.64l0,0h-1.71a2.73,2.73,0,0,0-.45-1.63,1.39,1.39,0,0,0-1.18-.63,1.58,1.58,0,0,0-1.53,1,6.17,6.17,0,0,0-.47,2.57v.35a6.22,6.22,0,0,0,.46,2.59A1.58,1.58,0,0,0,186.28,32.49Z"/><path class="cls-3" d="M191,28.59a6,6,0,0,1,1.06-3.67,3.67,3.67,0,0,1,5.81,0,6,6,0,0,1,1.06,3.67v.25a6,6,0,0,1-1.06,3.66,3.7,3.7,0,0,1-5.82,0A6,6,0,0,1,191,28.84Zm1.89.25a5.85,5.85,0,0,0,.51,2.63,1.67,1.67,0,0,0,1.57,1,1.65,1.65,0,0,0,1.54-1,5.83,5.83,0,0,0,.52-2.62v-.25a5.81,5.81,0,0,0-.52-2.61,1.69,1.69,0,0,0-3.11,0,5.87,5.87,0,0,0-.51,2.61Z"/><path class="cls-3" d="M202.45,23.68l.11,1.49a3.39,3.39,0,0,1,1.08-1.24,2.57,2.57,0,0,1,1.48-.44,2.47,2.47,0,0,1,2.08,1,5.07,5.07,0,0,1,.75,3.06v6.18h-1.88V27.55a3.74,3.74,0,0,0-.39-2,1.34,1.34,0,0,0-1.19-.58,1.84,1.84,0,0,0-1.11.34,2.37,2.37,0,0,0-.74.93v7.49h-1.89v-10Z"/><path class="cls-3" d="M223.09,32a4.16,4.16,0,0,1-1.54,1.36,5.49,5.49,0,0,1-2.71.59,4.62,4.62,0,0,1-3.41-1.29A5,5,0,0,1,214.14,29v-4a5,5,0,0,1,1.25-3.64,5.09,5.09,0,0,1,6.49-.23A3.7,3.7,0,0,1,223,24l0,.06h-1.77a2.69,2.69,0,0,0-.62-1.89,2.31,2.31,0,0,0-1.79-.67,2.45,2.45,0,0,0-2,.89,4,4,0,0,0-.73,2.57v4a4,4,0,0,0,.76,2.63,2.53,2.53,0,0,0,2.05.91,3.32,3.32,0,0,0,1.53-.3,2,2,0,0,0,.83-.72V28.32h-2.49V26.95h4.38Z"/><path class="cls-3" d="M227.39,21H225.5v-1.8h1.89Zm0,12.67H225.5v-10h1.89Z"/><path class="cls-3" d="M232.12,21.19v2.5h1.57V25h-1.57v6a2,2,0,0,0,.24,1.11.74.74,0,0,0,.63.33l.3,0,.32-.08.2,1.3a3,3,0,0,1-.6.21,2.91,2.91,0,0,1-.68.08,2.1,2.1,0,0,1-1.69-.7,3.34,3.34,0,0,1-.6-2.21V25H228.9V23.68h1.33v-2.5Z"/><g id="_Grupo_" data-name="&lt;Grupo&gt;"><polyline id="_Trazado_" data-name="&lt;Trazado&gt;" class="cls-2" points="43.87 43.87 43.87 28.83 33.08 28.83 33.08 33.56 22.28 33.56 22.28 37.95 11.49 37.95 11.49 40.46 0.7 40.46 0.7 43.87"/><path id="SVGCleanerId_0" data-name="SVGCleanerId 0" class="cls-3" d="M36.77,13.16a1.68,1.68,0,0,0-2-.76l-4.25,1.19-2.37-3.34L24.93,8.36a5,5,0,0,0-4.87,0l-3.83,2.16a1.56,1.56,0,0,0-.49.49l-2.5,4.18a1.66,1.66,0,0,0,.49,2.23A1.62,1.62,0,0,0,15.82,17l2.09-2.79a4.73,4.73,0,0,1,2.58-1.74h0l-1.33,6.41-.76,3.76-.76,3.27L12.41,32a2.21,2.21,0,0,0-.14,2.79,2.08,2.08,0,0,0,3.2.07l6-7,1-3.34a1.55,1.55,0,0,1,1.74-1.19,1.62,1.62,0,0,1,1.39,1.81l-.63,3.62a2.19,2.19,0,0,0,1.53,2.5A2,2,0,0,0,29,29.6l.9-4.73h0A4.6,4.6,0,0,0,27,19.5l-.76-.28,1-4.59,2,2.72,6.55-1.81A1.6,1.6,0,0,0,36.77,13.16Z"/><circle id="_Trazado_2" data-name="&lt;Trazado&gt;" class="cls-3" cx="28.07" cy="3.9" r="3.2"/><path id="SVGCleanerId_1" data-name="SVGCleanerId 1" class="cls-3" d="M28.07,7.8A3.9,3.9,0,1,1,32,3.9,3.89,3.89,0,0,1,28.07,7.8Zm0-6.41a2.5,2.5,0,1,0,2.5,2.5A2.5,2.5,0,0,0,28.07,1.39Z"/><g id="_Grupo_2" data-name="&lt;Grupo&gt;"><rect id="_Trazado_3" data-name="&lt;Trazado&gt;" class="cls-3" x="31.06" y="39.69" width="1.39" height="1.39"/><rect id="_Trazado_4" data-name="&lt;Trazado&gt;" class="cls-3" x="26.67" y="39.69" width="1.39" height="1.39"/><rect id="_Trazado_5" data-name="&lt;Trazado&gt;" class="cls-3" x="35.38" y="39.69" width="1.39" height="1.39"/><rect id="_Trazado_6" data-name="&lt;Trazado&gt;" class="cls-3" x="39.7" y="39.69" width="1.39" height="1.39"/></g><g id="_Grupo_3" data-name="&lt;Grupo&gt;"><path id="SVGCleanerId_0-2" data-name="SVGCleanerId 0" class="cls-4" d="M36.77,13.16a1.68,1.68,0,0,0-2-.76l-4.25,1.19-2.37-3.34L24.93,8.36a5,5,0,0,0-4.87,0l-3.83,2.16a1.56,1.56,0,0,0-.49.49l-2.5,4.18a1.66,1.66,0,0,0,.49,2.23A1.62,1.62,0,0,0,15.82,17l2.09-2.79a4.73,4.73,0,0,1,2.58-1.74h0l-1.33,6.41-.76,3.76-.76,3.27L12.41,32a2.21,2.21,0,0,0-.14,2.79,2.08,2.08,0,0,0,3.2.07l6-7,1-3.34a1.55,1.55,0,0,1,1.74-1.19,1.62,1.62,0,0,1,1.39,1.81l-.63,3.62a2.19,2.19,0,0,0,1.53,2.5A2,2,0,0,0,29,29.6l.9-4.73h0A4.6,4.6,0,0,0,27,19.5l-.76-.28,1-4.59,2,2.72,6.55-1.81A1.6,1.6,0,0,0,36.77,13.16Z"/></g><circle id="_Trazado_7" data-name="&lt;Trazado&gt;" class="cls-4" cx="28.07" cy="3.9" r="3.2"/><g id="_Grupo_4" data-name="&lt;Grupo&gt;"><path id="SVGCleanerId_1-2" data-name="SVGCleanerId 1" class="cls-3" d="M28.07,7.8A3.9,3.9,0,1,1,32,3.9,3.89,3.89,0,0,1,28.07,7.8Zm0-6.41a2.5,2.5,0,1,0,2.5,2.5A2.5,2.5,0,0,0,28.07,1.39Z"/></g><g id="_Grupo_5" data-name="&lt;Grupo&gt;"><path id="_Trazado_compuesto_" data-name="&lt;Trazado compuesto&gt;" class="cls-3" d="M13.86,36.28a2.7,2.7,0,0,1-2.16-1,2.84,2.84,0,0,1,.14-3.62l5.08-5.92.7-3.13,1.81-8.84a4.63,4.63,0,0,0-1,1l-2.09,2.79a2.35,2.35,0,0,1-3,.55,2.07,2.07,0,0,1-1-1.39,2.37,2.37,0,0,1,.28-1.81l2.5-4.18a1.87,1.87,0,0,1,.76-.7l3.83-2.16a5.67,5.67,0,0,1,5.57,0l3.42,2,2.23,3.07,3.76-1a2.56,2.56,0,0,1,2.79,1,2.44,2.44,0,0,1,.14,2.09,2.33,2.33,0,0,1-1.53,1.39l-7,2-1.53-1.88L27,18.88l.21.07a5.19,5.19,0,0,1,3.27,6.12l-.9,4.73A2.75,2.75,0,0,1,26.83,32,1.85,1.85,0,0,1,26.2,32a2.82,2.82,0,0,1-2.09-3.27l.63-3.62a.86.86,0,0,0-.14-.7A.73.73,0,0,0,24,24a1,1,0,0,0-1,.7l-1,3.48-6.08,7A2.44,2.44,0,0,1,13.86,36.28Zm7.45-24.72L19,22.84l-.84,3.48-5.29,6.2a1.43,1.43,0,1,0,2.08,2l5.85-6.82.9-3.2a2.44,2.44,0,0,1,2.44-1.74,2.19,2.19,0,0,1,1.53.9,2.23,2.23,0,0,1,.42,1.74l-.63,3.55a1.45,1.45,0,0,0,1,1.67,1.38,1.38,0,0,0,1.67-1.11l.9-4.73a3.86,3.86,0,0,0-2.44-4.6l-1.33-.49L26.78,13l2.58,3.55,6.12-1.67a.86.86,0,0,0,.63-.55,1,1,0,0,0-.07-.9A1.06,1.06,0,0,0,34.85,13l-4.63,1.31-2.51-3.48L24.59,9.05a4.43,4.43,0,0,0-4.18,0l-3.83,2.16c-.07.07-.21.14-.21.21l-2.5,4.18a1.39,1.39,0,0,0-.14.76.91.91,0,0,0,.35.49,1,1,0,0,0,1.19-.21l2.09-2.79a6,6,0,0,1,2.93-2Z"/><polygon id="_Trazado_8" data-name="&lt;Trazado&gt;" class="cls-3" points="44.57 43.87 43.18 43.87 43.18 29.52 33.78 29.52 33.78 34.26 22.98 34.26 22.98 38.65 12.18 38.65 12.18 41.15 1.39 41.15 1.39 43.87 0 43.87 0 39.76 10.79 39.76 10.79 37.26 21.59 37.26 21.59 32.87 32.38 32.87 32.38 28.13 44.57 28.13 44.57 43.87"/></g></g></g></g></svg>