<svg xmlns="http://www.w3.org/2000/svg" viewBox="0 0 441.68 46.1"><defs><style>.cls-1,.cls-5{fill:#424242;}.cls-2{fill:#fff;}.cls-3,.cls-6{fill:#f05032;}.cls-3,.cls-4,.cls-5{fill-rule:evenodd;}.cls-4{fill:#424142;stroke:#fff;stroke-miterlimit:10;stroke-width:1.32px;}</style></defs><title>titulo6</title><g id="Capa_2" data-name="Capa 2"><g id="CONTENIDO"><polygon class="cls-1" points="46.66 8.87 46.66 30.83 34.66 30.83 35.35 35.68 441.68 35.68 441.68 8.87 46.66 8.87"/><path class="cls-2" d="M63.7,16.21v8.93a4.74,4.74,0,0,1-1.26,3.51,4.43,4.43,0,0,1-3.27,1.26A4.3,4.3,0,0,1,56,28.65a4.79,4.79,0,0,1-1.24-3.5V16.21H56.6v8.93a3.82,3.82,0,0,0,.71,2.45,2.27,2.27,0,0,0,1.86.89,2.36,2.36,0,0,0,1.92-.88,3.75,3.75,0,0,0,.73-2.46V16.21Z"/><path class="cls-2" d="M70.67,27.19a1.34,1.34,0,0,0-.39-1,5.23,5.23,0,0,0-1.49-.89,7.48,7.48,0,0,1-2.32-1.27,2.25,2.25,0,0,1-.77-1.76,2.53,2.53,0,0,1,.93-2,3.55,3.55,0,0,1,2.43-.82,3.48,3.48,0,0,1,2.5.9,2.76,2.76,0,0,1,.91,2.17l0,.06H70.62a1.88,1.88,0,0,0-.42-1.23,1.4,1.4,0,0,0-1.15-.51,1.52,1.52,0,0,0-1.13.4,1.29,1.29,0,0,0-.4.94,1.18,1.18,0,0,0,.35.9,6.11,6.11,0,0,0,1.49.85,6.87,6.87,0,0,1,2.37,1.29,2.4,2.4,0,0,1,.79,1.84,2.51,2.51,0,0,1-1,2,3.86,3.86,0,0,1-2.52.78A3.65,3.65,0,0,1,66.39,29a2.82,2.82,0,0,1-.92-2.2l0-.06h1.75a1.83,1.83,0,0,0,.55,1.41,1.93,1.93,0,0,0,1.29.43,1.68,1.68,0,0,0,1.17-.38A1.27,1.27,0,0,0,70.67,27.19Z"/><path class="cls-2" d="M73.9,24.59A6,6,0,0,1,75,20.92a3.67,3.67,0,0,1,5.81,0,6,6,0,0,1,1.06,3.67v.25a6,6,0,0,1-1.06,3.66,3.7,3.7,0,0,1-5.82,0,6,6,0,0,1-1.06-3.66Zm1.89.25a5.84,5.84,0,0,0,.51,2.63,1.67,1.67,0,0,0,1.57,1,1.65,1.65,0,0,0,1.54-1,5.83,5.83,0,0,0,.52-2.62v-.25A5.81,5.81,0,0,0,79.42,22a1.69,1.69,0,0,0-3.11,0,5.86,5.86,0,0,0-.51,2.61Z"/><path class="cls-2" d="M87.45,24.82A7.41,7.41,0,0,1,88.33,21a2.75,2.75,0,0,1,2.48-1.46,2.55,2.55,0,0,1,1.28.32,2.91,2.91,0,0,1,1,.92V15.25h1.88V29.72H93.39l-.19-1.21a3,3,0,0,1-1,1,2.66,2.66,0,0,1-1.38.36,2.78,2.78,0,0,1-2.46-1.34A6.42,6.42,0,0,1,87.45,25Zm1.87.2a5.58,5.58,0,0,0,.47,2.51,1.56,1.56,0,0,0,1.48.93,1.72,1.72,0,0,0,1.07-.33,2.41,2.41,0,0,0,.72-.95V22.32a2.67,2.67,0,0,0-.72-1A1.61,1.61,0,0,0,91.28,21,1.56,1.56,0,0,0,89.8,22a6.91,6.91,0,0,0-.48,2.79Z"/><path class="cls-2" d="M100.78,29.91a3.51,3.51,0,0,1-2.94-1.37A5.67,5.67,0,0,1,96.79,25v-.44a5.89,5.89,0,0,1,1.06-3.62,3.29,3.29,0,0,1,2.76-1.42,3,3,0,0,1,2.61,1.22,5.39,5.39,0,0,1,.9,3.27V25H98.67a5,5,0,0,0,.55,2.5,1.82,1.82,0,0,0,1.69,1,3.29,3.29,0,0,0,2.45-1l.61,1.17a4,4,0,0,1-1.32.87A4.71,4.71,0,0,1,100.78,29.91Zm-.18-9a1.48,1.48,0,0,0-1.3.76,4.5,4.5,0,0,0-.6,2h3.55v-.21a3.67,3.67,0,0,0-.4-1.84A1.34,1.34,0,0,0,100.61,20.94Z"/><path class="cls-2" d="M118.81,28a4.17,4.17,0,0,1-1.54,1.36,5.49,5.49,0,0,1-2.71.59,4.62,4.62,0,0,1-3.41-1.29A5,5,0,0,1,109.86,25v-4a5,5,0,0,1,1.25-3.64,5.09,5.09,0,0,1,6.49-.23A3.69,3.69,0,0,1,118.68,20l0,.06h-1.77a2.69,2.69,0,0,0-.62-1.89,2.32,2.32,0,0,0-1.8-.67,2.45,2.45,0,0,0-2,.89,4,4,0,0,0-.73,2.57v4a4,4,0,0,0,.76,2.63,2.54,2.54,0,0,0,2.05.91,3.32,3.32,0,0,0,1.53-.3,2,2,0,0,0,.83-.72V24.32h-2.49V22.95h4.38Z"/><path class="cls-2" d="M123.11,17h-1.89v-1.8h1.89Zm0,12.67h-1.89v-10h1.89Z"/><path class="cls-2" d="M127.84,17.19v2.5h1.57V21h-1.57v6a2,2,0,0,0,.24,1.11.74.74,0,0,0,.63.33,1.51,1.51,0,0,0,.3,0l.32-.08.19,1.3a3,3,0,0,1-.6.21,2.91,2.91,0,0,1-.68.08,2.11,2.11,0,0,1-1.69-.7,3.34,3.34,0,0,1-.6-2.21V21h-1.33V19.68h1.33v-2.5Z"/><path class="cls-2" d="M138.91,29.91A3.51,3.51,0,0,1,136,28.54,5.67,5.67,0,0,1,134.92,25v-.44A5.89,5.89,0,0,1,136,20.91a3.29,3.29,0,0,1,2.76-1.42,3,3,0,0,1,2.61,1.22,5.39,5.39,0,0,1,.9,3.27V25H136.8a5,5,0,0,0,.55,2.5,1.82,1.82,0,0,0,1.69,1,3.29,3.29,0,0,0,2.45-1l.61,1.17a4,4,0,0,1-1.32.87A4.71,4.71,0,0,1,138.91,29.91Zm-.18-9a1.48,1.48,0,0,0-1.3.76,4.5,4.5,0,0,0-.6,2h3.55v-.21a3.67,3.67,0,0,0-.4-1.84A1.34,1.34,0,0,0,138.74,20.94Z"/><path class="cls-2" d="M145.65,19.68l.11,1.49a3.39,3.39,0,0,1,1.08-1.24,2.57,2.57,0,0,1,1.48-.44,2.47,2.47,0,0,1,2.08,1,5.07,5.07,0,0,1,.75,3.06v6.18h-1.88V23.55a3.75,3.75,0,0,0-.39-2,1.34,1.34,0,0,0-1.19-.58,1.84,1.84,0,0,0-1.11.34,2.37,2.37,0,0,0-.74.93v7.49h-1.89v-10Z"/><path class="cls-2" d="M166.74,29.72h-1.89l-5.23-10-.06,0v9.95h-1.88V16.21h1.88l5.23,9.94h.06V16.21h1.89Z"/><path class="cls-2" d="M172.74,29.91a3.51,3.51,0,0,1-2.94-1.37A5.67,5.67,0,0,1,168.74,25v-.44a5.89,5.89,0,0,1,1.06-3.62,3.29,3.29,0,0,1,2.76-1.42,3,3,0,0,1,2.61,1.22,5.39,5.39,0,0,1,.9,3.27V25h-5.45a5,5,0,0,0,.55,2.5,1.82,1.82,0,0,0,1.69,1,3.29,3.29,0,0,0,2.45-1l.61,1.17a4,4,0,0,1-1.32.87A4.71,4.71,0,0,1,172.74,29.91Zm-.18-9a1.48,1.48,0,0,0-1.3.76,4.5,4.5,0,0,0-.6,2h3.55v-.21a3.67,3.67,0,0,0-.4-1.84A1.34,1.34,0,0,0,172.56,20.94Z"/><path class="cls-2" d="M180.19,17.19v2.5h1.57V21h-1.57v6a2,2,0,0,0,.24,1.11.74.74,0,0,0,.63.33,1.51,1.51,0,0,0,.3,0l.32-.08.19,1.3a3,3,0,0,1-.6.21,2.91,2.91,0,0,1-.68.08,2.11,2.11,0,0,1-1.69-.7,3.34,3.34,0,0,1-.6-2.21V21H177V19.68h1.33v-2.5Z"/><path class="cls-2" d="M191,25a6.4,6.4,0,0,1-.88,3.56,2.8,2.8,0,0,1-2.48,1.34,2.69,2.69,0,0,1-1.42-.37,2.85,2.85,0,0,1-1-1.07l-.2,1.24h-1.55V15.25h1.89v5.52a2.88,2.88,0,0,1,1-.94,2.58,2.58,0,0,1,1.32-.33,2.76,2.76,0,0,1,2.49,1.45,7.44,7.44,0,0,1,.88,3.87Zm-1.89-.2a7.08,7.08,0,0,0-.46-2.8A1.55,1.55,0,0,0,187.17,21a1.64,1.64,0,0,0-1.1.38,2.58,2.58,0,0,0-.71,1v4.75a2.25,2.25,0,0,0,.7,1,1.79,1.79,0,0,0,1.13.35,1.54,1.54,0,0,0,1.47-.92,5.73,5.73,0,0,0,.46-2.52Z"/><path class="cls-2" d="M196.44,29.91a3.51,3.51,0,0,1-2.94-1.37A5.67,5.67,0,0,1,192.44,25v-.44a5.89,5.89,0,0,1,1.06-3.62,3.29,3.29,0,0,1,2.76-1.42,3,3,0,0,1,2.61,1.22,5.39,5.39,0,0,1,.9,3.27V25h-5.45a5,5,0,0,0,.55,2.5,1.82,1.82,0,0,0,1.69,1,3.29,3.29,0,0,0,2.45-1l.61,1.17a4,4,0,0,1-1.32.87A4.71,4.71,0,0,1,196.44,29.91Zm-.18-9a1.48,1.48,0,0,0-1.3.76,4.5,4.5,0,0,0-.6,2h3.55v-.21a3.67,3.67,0,0,0-.4-1.84A1.34,1.34,0,0,0,196.27,20.94Z"/><path class="cls-2" d="M206.68,29.72q-.12-.45-.19-.81a5,5,0,0,1-.09-.71,3.69,3.69,0,0,1-1.05,1.23,2.43,2.43,0,0,1-1.49.49,2.63,2.63,0,0,1-2.06-.8,3.14,3.14,0,0,1-.72-2.18,2.73,2.73,0,0,1,1-2.24,4.27,4.27,0,0,1,2.78-.82h1.54v-1a2.25,2.25,0,0,0-.41-1.43,1.57,1.57,0,0,0-2.26-.07,1.63,1.63,0,0,0-.4,1.14h-1.8l0-.06a2.55,2.55,0,0,1,.91-2.06,3.57,3.57,0,0,1,2.52-.89,3.38,3.38,0,0,1,2.42.88,3.28,3.28,0,0,1,.93,2.5v4.66a8.2,8.2,0,0,0,.07,1.12,7.07,7.07,0,0,0,.23,1.07Zm-2.43-1.25a2.11,2.11,0,0,0,1.36-.48,2.22,2.22,0,0,0,.78-1.15V25.05h-1.57a1.73,1.73,0,0,0-1.36.55,1.93,1.93,0,0,0-.49,1.33,1.73,1.73,0,0,0,.33,1.11A1.14,1.14,0,0,0,204.25,28.47Z"/><path class="cls-2" d="M212.15,19.68l.11,1.49a3.39,3.39,0,0,1,1.08-1.24,2.57,2.57,0,0,1,1.48-.44,2.47,2.47,0,0,1,2.08,1,5.07,5.07,0,0,1,.75,3.06v6.18h-1.88V23.55a3.75,3.75,0,0,0-.39-2,1.34,1.34,0,0,0-1.19-.58,1.84,1.84,0,0,0-1.11.34,2.37,2.37,0,0,0-.74.93v7.49h-1.89v-10Z"/><path class="cls-2" d="M224.55,27.19a1.34,1.34,0,0,0-.39-1,5.23,5.23,0,0,0-1.49-.89,7.48,7.48,0,0,1-2.32-1.27,2.25,2.25,0,0,1-.77-1.76,2.53,2.53,0,0,1,.93-2,3.55,3.55,0,0,1,2.43-.82,3.48,3.48,0,0,1,2.5.9,2.76,2.76,0,0,1,.91,2.17l0,.06h-1.82a1.88,1.88,0,0,0-.42-1.23,1.4,1.4,0,0,0-1.15-.51,1.52,1.52,0,0,0-1.13.4,1.29,1.29,0,0,0-.4.94,1.18,1.18,0,0,0,.35.9,6.11,6.11,0,0,0,1.49.85,6.87,6.87,0,0,1,2.37,1.29,2.4,2.4,0,0,1,.79,1.84,2.51,2.51,0,0,1-1,2,3.86,3.86,0,0,1-2.52.78,3.65,3.65,0,0,1-2.66-.94,2.82,2.82,0,0,1-.92-2.2l0-.06h1.75a1.83,1.83,0,0,0,.55,1.41,1.93,1.93,0,0,0,1.29.43,1.68,1.68,0,0,0,1.17-.38A1.27,1.27,0,0,0,224.55,27.19Z"/><path id="_Trazado_" data-name="&lt;Trazado&gt;" class="cls-3" d="M41.85,2.84H28.38a1.91,1.91,0,0,0,.32-.94,2,2,0,0,0-4,0,1.94,1.94,0,0,0,.31.94H11.53a2,2,0,0,0-1.34.55A5.38,5.38,0,0,1,13.42,6H40.19V22.92H14.76v3.54h7.8L20.43,43.94a.82.82,0,0,0,.71,1.1l.79.16a1.13,1.13,0,0,0,1.26-.79l2.28-18h2.44l2.28,18a1.13,1.13,0,0,0,1.26.79l.79-.16a.86.86,0,0,0,.71-1.1L30.82,26.46h11a1.83,1.83,0,0,0,1.81-1.81v-20a1.83,1.83,0,0,0-1.81-1.81Z"/><path id="_Trazado_2" data-name="&lt;Trazado&gt;" class="cls-4" d="M4.76,8.58h0a4.09,4.09,0,0,1,4.1-4.17,4.13,4.13,0,1,1,0,8.27,4.07,4.07,0,0,1-4.1-4.1Z"/><path id="_Trazado_3" data-name="&lt;Trazado&gt;" class="cls-4" d="M6.1,13.78h0c.08,0,.16-.08.24-.08.47-.31,4.09-.63,5-.08.08.08.24.08.31.16a2.51,2.51,0,0,0,2,.24c2.28-.71,3-3.07,3.62-4.33a2.54,2.54,0,0,1,.79-.79l.39-.16a2.16,2.16,0,0,1,1,.16,1.66,1.66,0,0,1,.79,2.21,18.53,18.53,0,0,1-1,1.89l-.4.55c-1.26,1.81-1.73,2.83-4.17,3.62a4.45,4.45,0,0,1-1.42.24c0,8.74-.24,17.32-.24,26.06a2,2,0,0,1-2,2,2,2,0,0,1-2-2V29.93H8.77V43.47a1.89,1.89,0,0,1-1.89,2,2,2,0,0,1-2-2V28c-.08.08-.24.16-.32.23a1.76,1.76,0,0,1-.79.24,1.6,1.6,0,0,1-1.49-.87C-2.33,19,4,15,6.1,13.78Z"/><path id="_Trazado_4" data-name="&lt;Trazado&gt;" class="cls-5" d="M34.52,10.08h3.15v3.15H35.15L32,16.06v2.05H28.85v-2c-.87-.79-2-1.81-3-2.6H23.58L18,18v2.2H14.84V17.09h2.83l5.67-4.41v-2.2h3.07v2.28c.87.63,1.81,1.49,2.68,2.2h2.68c.87-.79,2-1.73,2.76-2.52Z"/><polygon class="cls-6" points="35.59 37.35 35.95 39.87 441.68 39.87 441.68 37.35 35.59 37.35"/></g></g></svg>