<svg xmlns="http://www.w3.org/2000/svg" viewBox="0 0 461.91 39.5"><defs><style>.cls-1,.cls-5{fill:#f05032;}.cls-2{fill:#424242;}.cls-3,.cls-4{fill:#fff;}.cls-4,.cls-5{stroke:#fff;stroke-miterlimit:10;}.cls-4{stroke-width:0.25px;}</style></defs><title>titulo2</title><g id="Capa_2" data-name="Capa 2"><g id="CONTENIDO"><rect class="cls-1" x="19.75" y="36.23" width="442.16" height="2.51"/><polygon class="cls-2" points="28.29 7.75 38.29 19.75 25.48 34.56 461.91 34.56 461.91 7.75 28.29 7.75"/><path class="cls-3" d="M13.76,4.72,17.6.87a3.05,3.05,0,0,1,4.21,0L38.62,17.68a3,3,0,0,1,0,4.21L21.89,38.62a3,3,0,0,1-4.21,0L.87,21.82a3,3,0,0,1,0-4.21L12.75,5.72"/><path class="cls-4" d="M58.63,28h-.38l-.7-1.07a3.29,3.29,0,0,1-1.06.91,2.84,2.84,0,0,1-1.38.34h-.7a3.22,3.22,0,0,1-1.28-.25,3.27,3.27,0,0,1-1.74-1.74,3.18,3.18,0,0,1-.26-1.27V17.75a3.18,3.18,0,0,1,.26-1.27,3.27,3.27,0,0,1,1.74-1.74,3.22,3.22,0,0,1,1.28-.25h.95a3.19,3.19,0,0,1,1.27.25,3.28,3.28,0,0,1,1.74,1.74,3.19,3.19,0,0,1,.25,1.27v.54l-1.2.19v-.72a2.06,2.06,0,0,0-.17-.83,2.14,2.14,0,0,0-1.13-1.13,2.06,2.06,0,0,0-.83-.17h-.83a2.06,2.06,0,0,0-.83.17,2.22,2.22,0,0,0-.68.45,2.12,2.12,0,0,0-.46.67,2.06,2.06,0,0,0-.17.83V24.9a2.06,2.06,0,0,0,.17.83,2.17,2.17,0,0,0,1.14,1.14,2.06,2.06,0,0,0,.83.17h.83a2.06,2.06,0,0,0,.83-.17,2.12,2.12,0,0,0,.67-.46,2.22,2.22,0,0,0,.45-.68,2.06,2.06,0,0,0,.17-.83V22.12H55.31V21h3.32Z"/><path class="cls-4" d="M67.24,26.46a2.79,2.79,0,0,1-1.49,1.49,2.74,2.74,0,0,1-1.09.22H63.9a2.74,2.74,0,0,1-1.09-.22,2.79,2.79,0,0,1-1.49-1.49,2.73,2.73,0,0,1-.22-1.09V21.08A2.73,2.73,0,0,1,61.33,20a2.79,2.79,0,0,1,1.49-1.49,2.74,2.74,0,0,1,1.09-.22h.76a2.74,2.74,0,0,1,1.09.22A2.79,2.79,0,0,1,67.24,20a2.73,2.73,0,0,1,.22,1.09v2.24h-5.2v2.12a1.6,1.6,0,0,0,.13.64,1.64,1.64,0,0,0,.88.88,1.6,1.6,0,0,0,.64.13h.76a1.61,1.61,0,0,0,.64-.13,1.64,1.64,0,0,0,.88-.88,1.61,1.61,0,0,0,.13-.64V24.8l1.14.19v.38A2.73,2.73,0,0,1,67.24,26.46ZM66.31,21a1.61,1.61,0,0,0-.13-.64,1.64,1.64,0,0,0-.88-.88,1.61,1.61,0,0,0-.64-.13H63.9a1.61,1.61,0,0,0-.64.13,1.64,1.64,0,0,0-.88.88,1.61,1.61,0,0,0-.13.64v1.41h4.06Z"/><path class="cls-4" d="M74.94,28V21a1.61,1.61,0,0,0-.13-.64,1.64,1.64,0,0,0-.88-.88,1.61,1.61,0,0,0-.64-.13h-.76a1.61,1.61,0,0,0-.64.13,1.64,1.64,0,0,0-.88.88,1.61,1.61,0,0,0-.13.64v7H69.74v-9.5h.38l.62,1a2.85,2.85,0,0,1,1-.84A2.71,2.71,0,0,1,73,18.29h.29a2.74,2.74,0,0,1,1.09.22A2.79,2.79,0,0,1,75.86,20a2.73,2.73,0,0,1,.22,1.09V28Z"/><path class="cls-4" d="M84.49,26.46A2.79,2.79,0,0,1,83,27.95a2.74,2.74,0,0,1-1.09.22h-.76a2.74,2.74,0,0,1-1.09-.22,2.79,2.79,0,0,1-1.49-1.49,2.73,2.73,0,0,1-.22-1.09V21.08A2.73,2.73,0,0,1,78.58,20a2.79,2.79,0,0,1,1.49-1.49,2.74,2.74,0,0,1,1.09-.22h.76a2.74,2.74,0,0,1,1.09.22A2.79,2.79,0,0,1,84.49,20a2.73,2.73,0,0,1,.22,1.09v2.24h-5.2v2.12a1.6,1.6,0,0,0,.13.64,1.64,1.64,0,0,0,.88.88,1.6,1.6,0,0,0,.64.13h.76a1.61,1.61,0,0,0,.64-.13,1.64,1.64,0,0,0,.88-.88,1.61,1.61,0,0,0,.13-.64V24.8l1.14.19v.38A2.73,2.73,0,0,1,84.49,26.46ZM83.57,21a1.61,1.61,0,0,0-.13-.64,1.64,1.64,0,0,0-.88-.88,1.61,1.61,0,0,0-.64-.13h-.76a1.61,1.61,0,0,0-.64.13,1.64,1.64,0,0,0-.88.88,1.61,1.61,0,0,0-.13.64v1.41h4.06Z"/><path class="cls-4" d="M89.78,19.56a1.61,1.61,0,0,0-.64.13,1.64,1.64,0,0,0-.88.88,1.61,1.61,0,0,0-.13.65V28H87v-9.5h.38l.62,1a2.85,2.85,0,0,1,1-.84,2.71,2.71,0,0,1,1.28-.31h.67v1.27Z"/><path class="cls-4" d="M98.41,28,97.78,27a3,3,0,0,1-1,.82,2.69,2.69,0,0,1-1.28.31h-.29a2.74,2.74,0,0,1-1.09-.22,2.79,2.79,0,0,1-1.49-1.49,2.73,2.73,0,0,1-.22-1.09v-.09a2.73,2.73,0,0,1,.22-1.09,2.79,2.79,0,0,1,1.49-1.49,2.74,2.74,0,0,1,1.09-.22h2.41V21a1.61,1.61,0,0,0-.13-.64,1.64,1.64,0,0,0-.88-.88,1.61,1.61,0,0,0-.64-.13h-.67a1.61,1.61,0,0,0-.64.13,1.64,1.64,0,0,0-.88.88,1.61,1.61,0,0,0-.13.64v.34l-1.14-.19v-.09A2.73,2.73,0,0,1,92.76,20a2.79,2.79,0,0,1,1.49-1.49,2.74,2.74,0,0,1,1.09-.22H96a2.74,2.74,0,0,1,1.09.22A2.79,2.79,0,0,1,98.57,20a2.73,2.73,0,0,1,.22,1.09V28Zm-.76-4.6H95.24a1.63,1.63,0,0,0-1.17.49,1.72,1.72,0,0,0-.35.53,1.61,1.61,0,0,0-.13.65v.4a1.6,1.6,0,0,0,.13.64,1.64,1.64,0,0,0,.88.88,1.6,1.6,0,0,0,.64.13H96a1.61,1.61,0,0,0,.64-.13,1.64,1.64,0,0,0,.88-.88,1.61,1.61,0,0,0,.13-.64Z"/><path class="cls-4" d="M101.46,28V14.67h1.14V28Z"/><path class="cls-4" d="M105.55,16.2V14.67h1.33V16.2ZM105.64,28v-9.5h1.14V28Z"/><path class="cls-4" d="M115.41,28l-.63-1a2.87,2.87,0,0,1-1,.84,2.69,2.69,0,0,1-1.28.31h-.29a2.74,2.74,0,0,1-1.09-.22,2.79,2.79,0,0,1-1.49-1.49,2.73,2.73,0,0,1-.22-1.09V21.08a2.73,2.73,0,0,1,.22-1.09,2.79,2.79,0,0,1,1.49-1.49,2.74,2.74,0,0,1,1.09-.22h.29a2.74,2.74,0,0,1,2.12,1v-4.6h1.14V28Zm-.76-7a1.61,1.61,0,0,0-.13-.64,1.64,1.64,0,0,0-.88-.88,1.61,1.61,0,0,0-.64-.13h-.76a1.61,1.61,0,0,0-.64.13,1.64,1.64,0,0,0-.88.88,1.61,1.61,0,0,0-.13.64v4.42a1.6,1.6,0,0,0,.13.64,1.64,1.64,0,0,0,.88.88,1.6,1.6,0,0,0,.64.13H113a1.61,1.61,0,0,0,.64-.13,1.64,1.64,0,0,0,.88-.88,1.61,1.61,0,0,0,.13-.64Z"/><path class="cls-4" d="M124,28l-.63-.95a3,3,0,0,1-1,.82,2.69,2.69,0,0,1-1.28.31h-.29a2.74,2.74,0,0,1-1.09-.22,2.79,2.79,0,0,1-1.49-1.49,2.73,2.73,0,0,1-.22-1.09v-.09a2.73,2.73,0,0,1,.22-1.09,2.79,2.79,0,0,1,1.49-1.49,2.74,2.74,0,0,1,1.09-.22h2.41V21a1.61,1.61,0,0,0-.13-.64,1.64,1.64,0,0,0-.88-.88,1.61,1.61,0,0,0-.64-.13H121a1.61,1.61,0,0,0-.64.13,1.64,1.64,0,0,0-.88.88,1.61,1.61,0,0,0-.13.64v.34l-1.14-.19v-.09a2.73,2.73,0,0,1,.22-1.09,2.79,2.79,0,0,1,1.49-1.49,2.74,2.74,0,0,1,1.09-.22h.67a2.74,2.74,0,0,1,1.09.22A2.79,2.79,0,0,1,124.2,20a2.73,2.73,0,0,1,.22,1.09V28Zm-.76-4.6h-2.41a1.63,1.63,0,0,0-1.17.49,1.72,1.72,0,0,0-.35.53,1.61,1.61,0,0,0-.13.65v.4a1.6,1.6,0,0,0,.13.64,1.64,1.64,0,0,0,.88.88,1.6,1.6,0,0,0,.64.13h.76a1.61,1.61,0,0,0,.64-.13,1.64,1.64,0,0,0,.88-.88,1.61,1.61,0,0,0,.13-.64Z"/><path class="cls-4" d="M132.66,28,132,27a2.87,2.87,0,0,1-1,.84,2.69,2.69,0,0,1-1.28.31h-.29a2.74,2.74,0,0,1-1.09-.22,2.79,2.79,0,0,1-1.49-1.49,2.73,2.73,0,0,1-.22-1.09V21.08a2.73,2.73,0,0,1,.22-1.09,2.79,2.79,0,0,1,1.49-1.49,2.74,2.74,0,0,1,1.09-.22h.29a2.74,2.74,0,0,1,2.12,1v-4.6H133V28Zm-.76-7a1.61,1.61,0,0,0-.13-.64,1.64,1.64,0,0,0-.88-.88,1.61,1.61,0,0,0-.64-.13h-.76a1.61,1.61,0,0,0-.64.13,1.64,1.64,0,0,0-.88.88,1.61,1.61,0,0,0-.13.64v4.42a1.6,1.6,0,0,0,.13.64,1.64,1.64,0,0,0,.88.88,1.6,1.6,0,0,0,.64.13h.76a1.61,1.61,0,0,0,.64-.13,1.64,1.64,0,0,0,.88-.88,1.61,1.61,0,0,0,.13-.64Z"/><path class="cls-4" d="M141.45,26.46A2.79,2.79,0,0,1,140,27.95a2.74,2.74,0,0,1-1.09.22h-.76a2.74,2.74,0,0,1-1.09-.22,2.79,2.79,0,0,1-1.49-1.49,2.73,2.73,0,0,1-.22-1.09V21.08a2.73,2.73,0,0,1,.22-1.09A2.79,2.79,0,0,1,137,18.51a2.74,2.74,0,0,1,1.09-.22h.76a2.74,2.74,0,0,1,1.09.22A2.79,2.79,0,0,1,141.45,20a2.73,2.73,0,0,1,.22,1.09v2.24h-5.2v2.12a1.6,1.6,0,0,0,.13.64,1.64,1.64,0,0,0,.88.88,1.6,1.6,0,0,0,.64.13h.76a1.61,1.61,0,0,0,.64-.13,1.64,1.64,0,0,0,.88-.88,1.61,1.61,0,0,0,.13-.64V24.8l1.14.19v.38A2.73,2.73,0,0,1,141.45,26.46ZM140.53,21a1.61,1.61,0,0,0-.13-.64,1.64,1.64,0,0,0-.88-.88,1.61,1.61,0,0,0-.64-.13h-.76a1.61,1.61,0,0,0-.64.13,1.64,1.64,0,0,0-.88.88,1.61,1.61,0,0,0-.13.64v1.41h4.06Z"/><path class="cls-4" d="M150.49,25.57a2.38,2.38,0,0,1-.23,1.05,2.53,2.53,0,0,1-.63.82,2.93,2.93,0,0,1-.92.53,3.2,3.2,0,0,1-1.1.19h-.76a2.84,2.84,0,0,1-1.1-.22,2.92,2.92,0,0,1-1.55-1.49,2.54,2.54,0,0,1-.24-1.09V25l1.14-.19v.63a1.48,1.48,0,0,0,.14.64,1.7,1.7,0,0,0,.39.52,1.85,1.85,0,0,0,.56.35,1.71,1.71,0,0,0,.66.13h.76a2.12,2.12,0,0,0,.66-.1,1.82,1.82,0,0,0,.56-.29,1.41,1.41,0,0,0,.39-.46,1.27,1.27,0,0,0,.14-.61,1.45,1.45,0,0,0-.22-.83,1.85,1.85,0,0,0-.59-.54,3.82,3.82,0,0,0-.83-.36l-1-.29q-.49-.14-1-.33a3.09,3.09,0,0,1-.83-.49,2.23,2.23,0,0,1-.59-.76,2.56,2.56,0,0,1-.22-1.13,2.46,2.46,0,0,1,.22-1.05A2.53,2.53,0,0,1,145,19a2.75,2.75,0,0,1,.89-.53,3,3,0,0,1,1.08-.19h.67a2.74,2.74,0,0,1,1.09.22A2.79,2.79,0,0,1,150.18,20a2.73,2.73,0,0,1,.22,1.09v0l-1.14.19V21a1.61,1.61,0,0,0-.13-.64,1.64,1.64,0,0,0-.88-.88,1.61,1.61,0,0,0-.64-.13h-.67a2,2,0,0,0-.64.1,1.58,1.58,0,0,0-.52.29,1.36,1.36,0,0,0-.48,1.07,1.35,1.35,0,0,0,.22.8,1.87,1.87,0,0,0,.59.52,4,4,0,0,0,.83.36l1,.3q.49.15,1,.35a3.22,3.22,0,0,1,.83.5,2.28,2.28,0,0,1,.59.77A2.6,2.6,0,0,1,150.49,25.57Z"/><path class="cls-5" d="M38.27,18,21.46,1.23a2.48,2.48,0,0,0-3.51,0L14.47,4.72l4.43,4.43a2.94,2.94,0,0,1,3.73,3.75l4.27,4.27a2.95,2.95,0,1,1-1.77,1.66l-4-4V25.32a2.94,2.94,0,1,1-2.43-.09V14.67a2.92,2.92,0,0,1-1-.64,3,3,0,0,1-.64-3.23L12.75,6.43,1.23,18a2.48,2.48,0,0,0,0,3.51L18,38.27a2.48,2.48,0,0,0,3.51,0L38.27,21.54A2.48,2.48,0,0,0,38.27,18Z"/></g></g></svg>