<svg xmlns="http://www.w3.org/2000/svg" viewBox="0 0 448.02 41.97"><defs><style>.cls-1{fill:#424242;}.cls-2{fill:#f05032;}.cls-3{fill:#fff;}.cls-4{fill:#424142;}</style></defs><title>titulo1_1</title><g id="Capa_2" data-name="Capa 2"><g id="CONTENIDO"><rect class="cls-1" x="38.35" y="8.12" width="409.67" height="26.81"/><rect class="cls-2" x="38.35" y="36.61" width="409.67" height="2.51"/><path class="cls-3" d="M63.25,29H61.37V15.46h1.88Z"/><path class="cls-3" d="M67.51,18.93l.11,1.49a3.39,3.39,0,0,1,1.08-1.24,2.57,2.57,0,0,1,1.48-.44,2.47,2.47,0,0,1,2.08,1A5.07,5.07,0,0,1,73,22.79V29H71.12V22.8a3.75,3.75,0,0,0-.39-2,1.34,1.34,0,0,0-1.19-.58,1.84,1.84,0,0,0-1.11.34,2.37,2.37,0,0,0-.74.93V29H65.79v-10Z"/><path class="cls-3" d="M77.58,16.44v2.5h1.57v1.35H77.58v6a2,2,0,0,0,.24,1.11.74.74,0,0,0,.63.33,1.51,1.51,0,0,0,.3,0l.32-.08.19,1.3a3,3,0,0,1-.6.21,2.91,2.91,0,0,1-.68.08,2.11,2.11,0,0,1-1.69-.7,3.34,3.34,0,0,1-.6-2.21v-6H74.36V18.93h1.33v-2.5Z"/><path class="cls-3" d="M85.16,20.5l-.82,0a1.41,1.41,0,0,0-1,.36,2.29,2.29,0,0,0-.61,1V29H80.85v-10h1.73l.13,1.48a3.23,3.23,0,0,1,.85-1.23,1.8,1.8,0,0,1,1.2-.44,1.61,1.61,0,0,1,.33,0l.27.08Z"/><path class="cls-3" d="M86.13,23.84a6,6,0,0,1,1.06-3.67,3.67,3.67,0,0,1,5.81,0,6,6,0,0,1,1.06,3.67v.25A6,6,0,0,1,93,27.75a3.7,3.7,0,0,1-5.82,0,6,6,0,0,1-1.06-3.66Zm1.89.25a5.84,5.84,0,0,0,.51,2.63,1.67,1.67,0,0,0,1.57,1,1.65,1.65,0,0,0,1.54-1,5.83,5.83,0,0,0,.52-2.62v-.25a5.81,5.81,0,0,0-.52-2.61,1.69,1.69,0,0,0-3.11,0A5.86,5.86,0,0,0,88,23.84Z"/><path class="cls-3" d="M95.51,24.07a7.41,7.41,0,0,1,.88-3.87,2.75,2.75,0,0,1,2.48-1.46,2.55,2.55,0,0,1,1.28.32,2.91,2.91,0,0,1,1,.92V14.5H103V29h-1.56l-.19-1.21a3,3,0,0,1-1,1,2.66,2.66,0,0,1-1.38.36,2.78,2.78,0,0,1-2.46-1.34,6.42,6.42,0,0,1-.88-3.56Zm1.87.2a5.58,5.58,0,0,0,.47,2.51,1.56,1.56,0,0,0,1.48.93,1.72,1.72,0,0,0,1.07-.33,2.41,2.41,0,0,0,.72-.95V21.57a2.67,2.67,0,0,0-.72-1,1.61,1.61,0,0,0-1.06-.37,1.56,1.56,0,0,0-1.48,1.07,6.91,6.91,0,0,0-.48,2.79Z"/><path class="cls-3" d="M110.61,27.51a3.24,3.24,0,0,1-1,1.23,2.72,2.72,0,0,1-3.63-.64,5.64,5.64,0,0,1-.78-3.31V18.93h1.89v5.87a4.88,4.88,0,0,0,.37,2.26,1.22,1.22,0,0,0,1.13.64,2.08,2.08,0,0,0,1.18-.32,2.18,2.18,0,0,0,.77-.93V18.93h1.89V29h-1.6Z"/><path class="cls-3" d="M118.05,27.74a1.48,1.48,0,0,0,1.16-.54,2.14,2.14,0,0,0,.47-1.46h1.7l0,.06a3.1,3.1,0,0,1-1,2.39,3.53,3.53,0,0,1-5.26-.44,6.06,6.06,0,0,1-1-3.61v-.35a6.09,6.09,0,0,1,1-3.61,3.31,3.31,0,0,1,2.87-1.42,3.18,3.18,0,0,1,2.44,1,3.63,3.63,0,0,1,.91,2.64l0,0h-1.71a2.73,2.73,0,0,0-.45-1.63,1.39,1.39,0,0,0-1.18-.63,1.58,1.58,0,0,0-1.53,1,6.17,6.17,0,0,0-.47,2.57v.35a6.22,6.22,0,0,0,.46,2.59A1.58,1.58,0,0,0,118.05,27.74Z"/><path class="cls-3" d="M126.65,27.74a1.48,1.48,0,0,0,1.16-.54,2.14,2.14,0,0,0,.47-1.46H130l0,.06a3.1,3.1,0,0,1-1,2.39,3.53,3.53,0,0,1-5.26-.44,6.06,6.06,0,0,1-1-3.61v-.35a6.09,6.09,0,0,1,1-3.61,3.31,3.31,0,0,1,2.87-1.42,3.18,3.18,0,0,1,2.44,1A3.63,3.63,0,0,1,130,22.4l0,0h-1.71a2.73,2.73,0,0,0-.45-1.63,1.39,1.39,0,0,0-1.18-.63,1.58,1.58,0,0,0-1.53,1,6.17,6.17,0,0,0-.47,2.57v.35a6.22,6.22,0,0,0,.46,2.59A1.58,1.58,0,0,0,126.65,27.74Z"/><path class="cls-3" d="M133.78,16.3h-1.89V14.5h1.89Zm0,12.67h-1.89v-10h1.89Z"/><path class="cls-3" d="M135.7,23.84a6,6,0,0,1,1.06-3.67,3.67,3.67,0,0,1,5.81,0,6,6,0,0,1,1.06,3.67v.25a6,6,0,0,1-1.06,3.66,3.7,3.7,0,0,1-5.82,0,6,6,0,0,1-1.06-3.66Zm1.89.25a5.84,5.84,0,0,0,.51,2.63,1.67,1.67,0,0,0,1.57,1,1.65,1.65,0,0,0,1.54-1,5.83,5.83,0,0,0,.52-2.62v-.25a5.81,5.81,0,0,0-.52-2.61,1.69,1.69,0,0,0-3.11,0,5.86,5.86,0,0,0-.51,2.61Zm2.79-9.43h2.16l0,0-2.25,2.42h-1.58Z"/><path class="cls-3" d="M147.14,18.93l.11,1.49a3.39,3.39,0,0,1,1.08-1.24,2.57,2.57,0,0,1,1.48-.44,2.47,2.47,0,0,1,2.08,1,5.07,5.07,0,0,1,.75,3.06V29h-1.88V22.8a3.75,3.75,0,0,0-.39-2,1.34,1.34,0,0,0-1.19-.58,1.84,1.84,0,0,0-1.11.34,2.37,2.37,0,0,0-.74.93V29h-1.89v-10Z"/><g id="_Grupo_" data-name="&lt;Grupo&gt;"><path id="_Trazado_" data-name="&lt;Trazado&gt;" class="cls-4" d="M35.34,6.62a20.31,20.31,0,1,0-2.49,30.81l6.62,2-2-6.62A20.25,20.25,0,0,0,35.34,6.62Z"/><path id="_Trazado_compuesto_" data-name="&lt;Trazado compuesto&gt;" class="cls-3" d="M35.8,6.16a21,21,0,0,0-29.71,0A20.9,20.9,0,0,0,0,21,20.69,20.69,0,0,0,6.16,35.8,20.94,20.94,0,0,0,21,42a20.67,20.67,0,0,0,12-3.81l7.47,2.3L38.16,33A20.82,20.82,0,0,0,35.8,6.16Zm2.69,32.32-5.77-1.77-.26.2A19.65,19.65,0,0,1,1.31,21,19.7,19.7,0,0,1,21,1.32,19.66,19.66,0,0,1,36.91,32.47l-.2.26Z"/><path id="_Trazado_compuesto_2" data-name="&lt;Trazado compuesto&gt;" class="cls-3" d="M21,38.49h0a9.2,9.2,0,0,1-1.38-.07l.13-1.31c.39,0,.85.07,1.25.07Zm1.38-.06-.13-1.31A8.71,8.71,0,0,0,23.48,37l.2,1.31A8.65,8.65,0,0,1,22.36,38.43Zm-4.14-.13A10.74,10.74,0,0,1,16.85,38l.33-1.25c.39.07.85.2,1.25.26ZM25,38l-.26-1.31A9.61,9.61,0,0,0,26,36.39l.39,1.25Zm-9.51-.39c-.46-.13-.85-.33-1.31-.46L14.75,36c.39.13.79.33,1.18.46Zm12.13-.46L27.15,36a9.73,9.73,0,0,0,1.18-.52l.59,1.18C28.52,36.79,28.13,37,27.67,37.18ZM13,36.59c-.39-.2-.79-.46-1.18-.66l.66-1.12a5.7,5.7,0,0,0,1.12.59Zm17.11-.66-.66-1.12a10.55,10.55,0,0,0,1-.72l.79,1Zm-19.4-.79a7,7,0,0,1-1-.85l.85-1,1,.79Zm21.63-.85-.85-1a11.31,11.31,0,0,0,.92-.85l1,.92-.07.07A6.18,6.18,0,0,1,32.32,34.29ZM8.59,33.37h0c-.39-.39-.66-.72-1-1l1-.85a11.4,11.4,0,0,0,.85.92Zm25.77-1-1-.85.79-1,1,.79C34.88,31.6,34.62,32,34.36,32.32Zm-27.54-1c-.26-.39-.53-.79-.79-1.12l1.12-.66a10.68,10.68,0,0,0,.72,1ZM35.93,30.1l-1.12-.66a8.43,8.43,0,0,0,.59-1.12l1.18.59A8.82,8.82,0,0,1,35.93,30.1ZM5.38,29c-.2-.39-.39-.85-.59-1.25L6,27.22a8.61,8.61,0,0,0,.53,1.18Zm31.8-1.32-1.25-.52c.13-.39.33-.79.46-1.18l1.25.39A10,10,0,0,1,37.18,27.67ZM4.33,26.43c-.13-.46-.26-.85-.39-1.31l1.25-.33A9.92,9.92,0,0,0,5.51,26ZM38,25l-1.31-.33c.07-.39.2-.85.26-1.25l1.31.2C38.23,24.13,38.1,24.59,38,25ZM3.67,23.74a9.48,9.48,0,0,1-.13-1.38l1.31-.13c.07.39.07.85.13,1.25Zm34.76-1.45-1.31-.13c0-.39.07-.85.07-1.25l1.31-.07V21A10.06,10.06,0,0,1,38.43,22.29ZM3.41,21h0a9.17,9.17,0,0,1,.07-1.38l1.31.13c0,.39-.07.85-.07,1.25Zm33.7-1.31c-.07-.39-.07-.85-.13-1.25l1.31-.2a9.48,9.48,0,0,1,.13,1.38ZM4.92,18.49l-1.31-.2a11.13,11.13,0,0,1,.26-1.38l1.25.33A9.2,9.2,0,0,1,4.92,18.49Zm31.8-1.32c-.13-.39-.2-.85-.33-1.25l1.25-.39c.13.46.26.85.39,1.31ZM5.51,16l-1.25-.39c.13-.46.33-.85.46-1.31l1.18.52A7.59,7.59,0,0,1,5.51,16Zm30.42-1.24a9.59,9.59,0,0,0-.52-1.18L36.59,13c.2.39.39.85.59,1.25ZM6.49,13.64,5.31,13c.2-.39.46-.79.66-1.18l1.12.66A11.43,11.43,0,0,0,6.49,13.64Zm28.26-1.18a10.56,10.56,0,0,0-.72-1l1-.79c.26.39.52.72.79,1.12Zm-26.95-1-1-.79a7,7,0,0,1,.85-1l1,.85C8.32,10.75,8.06,11.15,7.8,11.47Zm25.51-1a10.4,10.4,0,0,0-.85-.92L32.92,9l.46-.46h0a13.14,13.14,0,0,1,.92,1ZM9.51,9.51l-.46-.46-.46-.46a13.31,13.31,0,0,1,1-.92l.85,1A11.93,11.93,0,0,0,9.51,9.51Zm22-.86-1-.79.79-1a6.63,6.63,0,0,1,1,.85ZM11.41,7.87l-.79-1c.39-.26.72-.53,1.12-.79l.66,1.12C12.13,7.41,11.74,7.6,11.41,7.87Zm18-.73a5.78,5.78,0,0,0-1.12-.59l.59-1.18c.39.2.79.46,1.18.66ZM13.57,6.55,13,5.38c.39-.2.85-.39,1.25-.59L14.75,6ZM27.15,6c-.39-.13-.79-.33-1.18-.46l.39-1.25c.46.13.85.33,1.31.46ZM15.94,5.57l-.39-1.25,1.31-.39.33,1.31A7.08,7.08,0,0,0,15.94,5.57Zm8.78-.4c-.39-.07-.85-.2-1.25-.26l.2-1.31A10.69,10.69,0,0,1,25,3.87ZM18.42,5l-.2-1.31a9.38,9.38,0,0,1,1.38-.13l.13,1.31A7.71,7.71,0,0,0,18.42,5Zm3.81-.2c-.39,0-.85-.07-1.25-.07V3.41h0a9.32,9.32,0,0,1,1.38.07Z"/><path id="_Trazado_2" data-name="&lt;Trazado&gt;" class="cls-2" d="M30.42,30.49a13.4,13.4,0,1,1,0-19A13.38,13.38,0,0,1,30.42,30.49Z"/><g id="_Grupo_2" data-name="&lt;Grupo&gt;"><rect id="_Trazado_3" data-name="&lt;Trazado&gt;" class="cls-4" x="18.82" y="17.83" width="4.27" height="12.2"/><path id="_Trazado_4" data-name="&lt;Trazado&gt;" class="cls-4" d="M21,15.81h0a2.18,2.18,0,0,1-2.17-2.17h0A2.18,2.18,0,0,1,21,11.47h0a2.19,2.19,0,0,1,2.17,2.17h0A2.24,2.24,0,0,1,21,15.81Z"/></g><g id="_Grupo_3" data-name="&lt;Grupo&gt;"><path id="_Trazado_compuesto_3" data-name="&lt;Trazado compuesto&gt;" class="cls-3" d="M21,16.46a2.82,2.82,0,1,1,2.82-2.82A2.88,2.88,0,0,1,21,16.46Zm0-4.26a1.51,1.51,0,1,0,1.51,1.51A1.57,1.57,0,0,0,21,12.2Z"/><path id="_Trazado_compuesto_4" data-name="&lt;Trazado compuesto&gt;" class="cls-3" d="M23.74,29.38V17.18H16.92v1.31h1.25v12.2h7.54V29.38Zm-1.32,0H19.47V18.49h2.95Z"/></g></g></g></g></svg>