<svg xmlns="http://www.w3.org/2000/svg" viewBox="0 0 443.91 46.97"><defs><style>.cls-1{fill:#424242;}.cls-2{fill:#fff;}.cls-3{fill:#424142;}.cls-4{fill:#4fbf9f;}.cls-5{fill:#fdbf5e;}.cls-6{fill:#193651;}.cls-7{fill:#f05032;}</style></defs><title>titulo4</title><g id="Capa_2" data-name="Capa 2"><g id="CONTENIDO"><path class="cls-1" d="M42.36,9a23,23,0,0,1,2.25,26.81H443.91V9Z"/><path class="cls-2" d="M59.15,29.85H57.26V16.35h1.88Z"/><path class="cls-2" d="M63.41,19.82l.11,1.49a3.39,3.39,0,0,1,1.08-1.24,2.57,2.57,0,0,1,1.48-.44,2.47,2.47,0,0,1,2.08,1,5.07,5.07,0,0,1,.75,3.06v6.18H67V23.69a3.75,3.75,0,0,0-.39-2,1.34,1.34,0,0,0-1.19-.58,1.84,1.84,0,0,0-1.11.34,2.37,2.37,0,0,0-.74.93v7.49H61.68v-10Z"/><path class="cls-2" d="M75.81,27.32a1.34,1.34,0,0,0-.39-1,5.23,5.23,0,0,0-1.49-.89,7.48,7.48,0,0,1-2.32-1.27,2.25,2.25,0,0,1-.77-1.76,2.53,2.53,0,0,1,.93-2,3.55,3.55,0,0,1,2.43-.82,3.48,3.48,0,0,1,2.5.9,2.76,2.76,0,0,1,.91,2.17l0,.06H75.76a1.88,1.88,0,0,0-.42-1.23A1.4,1.4,0,0,0,74.2,21a1.52,1.52,0,0,0-1.13.4,1.29,1.29,0,0,0-.4.94,1.18,1.18,0,0,0,.35.9,6.11,6.11,0,0,0,1.49.85,6.87,6.87,0,0,1,2.37,1.29,2.4,2.4,0,0,1,.79,1.84,2.51,2.51,0,0,1-1,2,3.86,3.86,0,0,1-2.52.78,3.65,3.65,0,0,1-2.66-.94,2.82,2.82,0,0,1-.92-2.2l0-.06h1.75a1.83,1.83,0,0,0,.55,1.41,1.93,1.93,0,0,0,1.29.43,1.68,1.68,0,0,0,1.17-.38A1.27,1.27,0,0,0,75.81,27.32Z"/><path class="cls-2" d="M81.84,17.32v2.5h1.57v1.35H81.84v6a2,2,0,0,0,.24,1.11.74.74,0,0,0,.63.33,1.51,1.51,0,0,0,.3,0l.32-.08.19,1.3a3,3,0,0,1-.6.21,2.91,2.91,0,0,1-.68.08,2.11,2.11,0,0,1-1.69-.7,3.34,3.34,0,0,1-.6-2.21v-6H78.62V19.82h1.33v-2.5Z"/><path class="cls-2" d="M90.33,29.85q-.12-.45-.19-.81a5,5,0,0,1-.09-.71A3.69,3.69,0,0,1,89,29.56a2.43,2.43,0,0,1-1.49.49,2.63,2.63,0,0,1-2.06-.8,3.14,3.14,0,0,1-.72-2.18,2.73,2.73,0,0,1,1-2.24A4.27,4.27,0,0,1,88.5,24H90V23a2.25,2.25,0,0,0-.41-1.43,1.57,1.57,0,0,0-2.26-.07,1.63,1.63,0,0,0-.4,1.14h-1.8l0-.06a2.55,2.55,0,0,1,.91-2.06,3.57,3.57,0,0,1,2.52-.89,3.38,3.38,0,0,1,2.42.88,3.28,3.28,0,0,1,.93,2.5v4.66A8.2,8.2,0,0,0,92,28.78a7.07,7.07,0,0,0,.23,1.07ZM87.9,28.6a2.11,2.11,0,0,0,1.36-.48A2.22,2.22,0,0,0,90,27V25.19H88.47a1.73,1.73,0,0,0-1.36.55,1.93,1.93,0,0,0-.49,1.33A1.73,1.73,0,0,0,87,28.18,1.14,1.14,0,0,0,87.9,28.6Z"/><path class="cls-2" d="M96.1,29.85H94.21V15.38H96.1Z"/><path class="cls-2" d="M103.61,29.85q-.12-.45-.19-.81a5,5,0,0,1-.09-.71,3.69,3.69,0,0,1-1.05,1.23,2.43,2.43,0,0,1-1.49.49,2.63,2.63,0,0,1-2.06-.8A3.14,3.14,0,0,1,98,27.07a2.73,2.73,0,0,1,1-2.24,4.27,4.27,0,0,1,2.78-.82h1.54V23a2.25,2.25,0,0,0-.41-1.43,1.57,1.57,0,0,0-2.26-.07,1.63,1.63,0,0,0-.4,1.14h-1.8l0-.06a2.55,2.55,0,0,1,.91-2.06,3.57,3.57,0,0,1,2.52-.89,3.38,3.38,0,0,1,2.42.88,3.28,3.28,0,0,1,.93,2.5v4.66a8.2,8.2,0,0,0,.07,1.12,7.07,7.07,0,0,0,.23,1.07Zm-2.43-1.25a2.11,2.11,0,0,0,1.36-.48,2.22,2.22,0,0,0,.78-1.15V25.19h-1.57a1.73,1.73,0,0,0-1.36.55,1.93,1.93,0,0,0-.49,1.33,1.73,1.73,0,0,0,.33,1.11A1.14,1.14,0,0,0,101.18,28.6Z"/><path class="cls-2" d="M110.86,28.62a1.48,1.48,0,0,0,1.16-.54,2.14,2.14,0,0,0,.47-1.46h1.7l0,.06a3.1,3.1,0,0,1-1,2.39,3.53,3.53,0,0,1-5.26-.44A6.06,6.06,0,0,1,107,25v-.35a6.09,6.09,0,0,1,1-3.61,3.31,3.31,0,0,1,2.87-1.42,3.18,3.18,0,0,1,2.44,1,3.63,3.63,0,0,1,.91,2.64l0,0h-1.71A2.73,2.73,0,0,0,112,21.7a1.39,1.39,0,0,0-1.18-.63,1.58,1.58,0,0,0-1.53,1,6.17,6.17,0,0,0-.47,2.57V25a6.22,6.22,0,0,0,.46,2.59A1.58,1.58,0,0,0,110.86,28.62Z"/><path class="cls-2" d="M118,17.18h-1.89v-1.8H118Zm0,12.67h-1.89v-10H118Z"/><path class="cls-2" d="M119.91,24.72A6,6,0,0,1,121,21.06a3.67,3.67,0,0,1,5.81,0,6,6,0,0,1,1.06,3.67V25a6,6,0,0,1-1.06,3.66,3.7,3.7,0,0,1-5.82,0A6,6,0,0,1,119.91,25Zm1.89.25a5.84,5.84,0,0,0,.51,2.63,1.67,1.67,0,0,0,1.57,1,1.65,1.65,0,0,0,1.54-1,5.83,5.83,0,0,0,.52-2.62v-.25a5.81,5.81,0,0,0-.52-2.61,1.69,1.69,0,0,0-3.11,0,5.86,5.86,0,0,0-.51,2.61Zm2.79-9.43h2.16l0,0L124.53,18H123Z"/><path class="cls-2" d="M131.34,19.82l.11,1.49a3.39,3.39,0,0,1,1.08-1.24,2.57,2.57,0,0,1,1.48-.44,2.47,2.47,0,0,1,2.08,1,5.07,5.07,0,0,1,.75,3.06v6.18H135V23.69a3.75,3.75,0,0,0-.39-2,1.34,1.34,0,0,0-1.19-.58,1.84,1.84,0,0,0-1.11.34,2.37,2.37,0,0,0-.74.93v7.49h-1.89v-10Z"/><path class="cls-2" d="M142.81,25a7.41,7.41,0,0,1,.88-3.87,2.75,2.75,0,0,1,2.48-1.46,2.55,2.55,0,0,1,1.28.32,2.91,2.91,0,0,1,1,.92V15.38h1.88V29.85h-1.56l-.19-1.21a3,3,0,0,1-1,1,2.66,2.66,0,0,1-1.38.36,2.78,2.78,0,0,1-2.46-1.34,6.42,6.42,0,0,1-.88-3.56Zm1.87.2a5.58,5.58,0,0,0,.47,2.51,1.56,1.56,0,0,0,1.48.93,1.72,1.72,0,0,0,1.07-.33,2.41,2.41,0,0,0,.72-.95V22.45a2.67,2.67,0,0,0-.72-1,1.61,1.61,0,0,0-1.06-.37,1.56,1.56,0,0,0-1.48,1.07,6.91,6.91,0,0,0-.48,2.79Z"/><path class="cls-2" d="M156.14,30a3.51,3.51,0,0,1-2.94-1.37,5.67,5.67,0,0,1-1.06-3.57v-.44A5.89,5.89,0,0,1,153.2,21,3.29,3.29,0,0,1,156,19.63a3,3,0,0,1,2.61,1.22,5.39,5.39,0,0,1,.9,3.27v1.06H154a5,5,0,0,0,.55,2.5,1.82,1.82,0,0,0,1.69,1,3.29,3.29,0,0,0,2.45-1l.61,1.17a4,4,0,0,1-1.32.87A4.71,4.71,0,0,1,156.14,30Zm-.18-9a1.48,1.48,0,0,0-1.3.76,4.5,4.5,0,0,0-.6,2h3.55v-.21a3.67,3.67,0,0,0-.4-1.84A1.34,1.34,0,0,0,156,21.08Z"/><path class="cls-2" d="M174.17,28.09a4.17,4.17,0,0,1-1.54,1.36,5.49,5.49,0,0,1-2.71.59,4.62,4.62,0,0,1-3.41-1.29,5,5,0,0,1-1.29-3.67v-4a5,5,0,0,1,1.25-3.64,5.09,5.09,0,0,1,6.49-.23A3.69,3.69,0,0,1,174,20.1l0,.06h-1.77a2.69,2.69,0,0,0-.62-1.89,2.32,2.32,0,0,0-1.8-.67,2.45,2.45,0,0,0-2,.89,4,4,0,0,0-.73,2.57v4a4,4,0,0,0,.76,2.63,2.54,2.54,0,0,0,2.05.91,3.32,3.32,0,0,0,1.53-.3,2,2,0,0,0,.83-.72V24.46h-2.49V23.08h4.38Z"/><path class="cls-2" d="M178.47,17.18h-1.89v-1.8h1.89Zm0,12.67h-1.89v-10h1.89Z"/><path class="cls-2" d="M183.2,17.32v2.5h1.57v1.35H183.2v6a2,2,0,0,0,.24,1.11.74.74,0,0,0,.63.33,1.51,1.51,0,0,0,.3,0l.32-.08.19,1.3a3,3,0,0,1-.6.21,2.91,2.91,0,0,1-.68.08,2.11,2.11,0,0,1-1.69-.7,3.34,3.34,0,0,1-.6-2.21v-6H180V19.82h1.33v-2.5Z"/><path id="_Trazado_compuesto_" data-name="&lt;Trazado compuesto&gt;" class="cls-2" d="M34.36,25.3V21.71l-2.17-.55a8.09,8.09,0,0,0-.42-1.33l1.39-2.1-2.47-2.5L28.6,16.57a7.16,7.16,0,0,0-1.32-.76l-.54-2.63H23.15l-.55,2.63a9.57,9.57,0,0,0-1.33.66l-2.1-1.27L16.68,17.7,18,19.82c-.24.39-.8.87-1,1.34l-2.82.55V25.3l2.82.55a10.34,10.34,0,0,0,.75,1.33l-1.23,2.1,2.55,2.49,2.13-1.33a6.73,6.73,0,0,0,1.34.5l.56,2.36h3.59l.55-2.36a8.59,8.59,0,0,0,1.33-.52l2.1,1.34,2.5-2.49-1.33-2.1c.24-.39.15-.86.3-1.33Zm-9.45,1.76a3.53,3.53,0,1,1,3.54-3.53A3.54,3.54,0,0,1,24.91,27.06Z"/><path id="_Trazado_" data-name="&lt;Trazado&gt;" class="cls-3" d="M43.66,4.09v8.81H39.45a2.49,2.49,0,0,1-.78-.15L35.32,11a2.4,2.4,0,0,0-.7-.15H29.39a1.9,1.9,0,0,1-1.88-1.88A1.88,1.88,0,0,1,28,7.64L19.88,10.4a1.74,1.74,0,0,1-2.18-.94,1.79,1.79,0,0,1,.78-2.34l11.31-6A3.3,3.3,0,0,1,32.2.89l9.59,3.2h1.88Z"/><rect id="SVGCleanerId_2" data-name="SVGCleanerId 2" class="cls-4" x="43.66" y="3" width="5.46" height="11.23"/><rect id="SVGCleanerId_3" data-name="SVGCleanerId 3" class="cls-5" x="0.78" y="32.78" width="5.46" height="11.23"/><path id="SVGCleanerId_4" data-name="SVGCleanerId 4" class="cls-6" d="M36.8,39.1l-.94-1.25L37,36.92l1,1.17C37.66,38.39,37.27,38.78,36.8,39.1Zm2.41-2.19L38,35.82c.31-.39.7-.7,1-1.09l1.25.94A8.34,8.34,0,0,1,39.21,36.92Zm2-2.49-1.33-.86a11.32,11.32,0,0,0,.78-1.25L42,33.1A9.79,9.79,0,0,1,41.25,34.42Zm1.56-2.89-1.4-.62a9.9,9.9,0,0,0,.55-1.4l1.48.55A9,9,0,0,1,42.8,31.54Zm1.09-3-1.48-.39a8,8,0,0,0,.31-1.48l1.56.24A9.78,9.78,0,0,1,43.9,28.49Zm.55-3.2-1.56-.15A9,9,0,0,0,43,23.66h1.55A12.21,12.21,0,0,1,44.44,25.3ZM43,22.18a10.47,10.47,0,0,0-.15-1.48l1.56-.24a11.1,11.1,0,0,1,.16,1.64Z"/><path id="SVGCleanerId_5" data-name="SVGCleanerId 5" class="cls-6" d="M5.61,26.55a12.52,12.52,0,0,1-.24-1.64l1.56-.08c.08.47.08,1,.15,1.48Zm1.25-3.2H5.3a11,11,0,0,1,.08-1.64l1.56.15A10.51,10.51,0,0,1,6.86,23.35Zm.31-3-1.56-.24c.08-.55.24-1.09.31-1.56L7.41,19C7.33,19.37,7.25,19.84,7.17,20.39Zm.77-2.89L6.46,17a8.24,8.24,0,0,1,.63-1.48l1.4.62A11.07,11.07,0,0,0,7.95,17.5Zm1.17-2.73L7.79,14a14.18,14.18,0,0,1,.86-1.4l1.33.86C9.67,13.92,9.43,14.31,9.12,14.77Zm1.71-2.49-1.25-.94a15,15,0,0,1,1.09-1.25l1.17,1.09A6.79,6.79,0,0,0,10.83,12.28Zm2-2.18-1-1.17a13.51,13.51,0,0,1,1.25-1L14,9.16Z"/><g id="_Grupo_" data-name="&lt;Grupo&gt;"><rect id="SVGCleanerId_2-2" data-name="SVGCleanerId 2" class="cls-7" x="43.66" y="3" width="5.46" height="11.23"/></g><g id="_Grupo_2" data-name="&lt;Grupo&gt;"><rect id="SVGCleanerId_3-2" data-name="SVGCleanerId 3" class="cls-7" x="0.78" y="32.78" width="5.46" height="11.23"/></g><g id="_Grupo_3" data-name="&lt;Grupo&gt;"><path id="SVGCleanerId_4-2" data-name="SVGCleanerId 4" class="cls-1" d="M36.8,39.1l-.94-1.25L37,36.92l1,1.17C37.66,38.39,37.27,38.78,36.8,39.1Zm2.41-2.19L38,35.82c.31-.39.7-.7,1-1.09l1.25.94A8.34,8.34,0,0,1,39.21,36.92Zm2-2.49-1.33-.86a11.32,11.32,0,0,0,.78-1.25L42,33.1A9.79,9.79,0,0,1,41.25,34.42Zm1.56-2.89-1.4-.62a9.9,9.9,0,0,0,.55-1.4l1.48.55A9,9,0,0,1,42.8,31.54Zm1.09-3-1.48-.39a8,8,0,0,0,.31-1.48l1.56.24A9.78,9.78,0,0,1,43.9,28.49Zm.55-3.2-1.56-.15A9,9,0,0,0,43,23.66h1.55A12.21,12.21,0,0,1,44.44,25.3ZM43,22.18a10.47,10.47,0,0,0-.15-1.48l1.56-.24a11.1,11.1,0,0,1,.16,1.64Z"/></g><g id="_Grupo_4" data-name="&lt;Grupo&gt;"><path id="SVGCleanerId_5-2" data-name="SVGCleanerId 5" class="cls-1" d="M5.61,26.55a12.52,12.52,0,0,1-.24-1.64l1.56-.08c.08.47.08,1,.15,1.48Zm1.25-3.2H5.3a11,11,0,0,1,.08-1.64l1.56.15A10.51,10.51,0,0,1,6.86,23.35Zm.31-3-1.56-.24c.08-.55.24-1.09.31-1.56L7.41,19C7.33,19.37,7.25,19.84,7.17,20.39Zm.77-2.89L6.46,17a8.24,8.24,0,0,1,.63-1.48l1.4.62A11.07,11.07,0,0,0,7.95,17.5Zm1.17-2.73L7.79,14a14.18,14.18,0,0,1,.86-1.4l1.33.86C9.67,13.92,9.43,14.31,9.12,14.77Zm1.71-2.49-1.25-.94a15,15,0,0,1,1.09-1.25l1.17,1.09A6.79,6.79,0,0,0,10.83,12.28Zm2-2.18-1-1.17a13.51,13.51,0,0,1,1.25-1L14,9.16Z"/></g><path id="_Trazado_compuesto_2" data-name="&lt;Trazado compuesto&gt;" class="cls-2" d="M42.88,2.22V3.31h-1L32.43.19a3.86,3.86,0,0,0-3,.24L18.09,6.35A2.47,2.47,0,0,0,17,9.7,2.61,2.61,0,0,0,20.12,11l6.55-2.26c0,.08,1.17,2.8,2.65,2.8h5.23a.68.68,0,0,1,.39.08l3.28,1.79.08.08a2.31,2.31,0,0,0,1,.15h3.59v1.4h7V2.22Zm0,9.91H39.37a.94.94,0,0,1-.46-.08l-3.28-1.79h-.16a3.68,3.68,0,0,0-.94-.15H29.31a1.09,1.09,0,1,1,0-2.19h4.21A2.23,2.23,0,0,0,35.7,5.72H34.14a.67.67,0,0,1-.63.62H29.23a2.42,2.42,0,0,0-1.48.46L19.57,9.63a1.06,1.06,0,0,1-1.25-.55,1,1,0,0,1,.46-1.33l11.31-6a2.38,2.38,0,0,1,1.79-.15l9.74,3.28h1.25v7.25Zm5.46,1.32h-3.9V3.78h3.9Z"/><path id="_Trazado_2" data-name="&lt;Trazado&gt;" class="cls-3" d="M31.42,39.88l-11.31,6a3.3,3.3,0,0,1-2.41.24l-9.59-3.2H6.24V34.1h4.21a2.49,2.49,0,0,1,.78.15l3.35,1.79a2.41,2.41,0,0,0,.7.15H20.5a1.9,1.9,0,0,1,1.88,1.88,1.87,1.87,0,0,1-.53,1.29L30,36.61a1.74,1.74,0,0,1,2.19.94A1.8,1.8,0,0,1,31.42,39.88Z"/><path id="_Trazado_compuesto_3" data-name="&lt;Trazado compuesto&gt;" class="cls-2" d="M32.9,37.31A2.61,2.61,0,0,0,29.78,36l-6.54,2.26v-.15a2.62,2.62,0,0,0-2.65-2.65H15.36a.68.68,0,0,1-.39-.08l-3.28-1.71-.08-.08a2.3,2.3,0,0,0-1-.15H7V32H0V44.78H7V43.69H8l9.43,3.12a3,3,0,0,0,1.17.16,3.66,3.66,0,0,0,1.79-.47L31.8,40.66A2.53,2.53,0,0,0,32.9,37.31ZM1.56,33.57h3.9v9.67H1.56ZM31,39.26l-11.31,6a2.39,2.39,0,0,1-1.79.15L8.18,42.14H7V34.89h3.51A.94.94,0,0,1,11,35l3.28,1.79.08.08a3.71,3.71,0,0,0,.94.15h5.23a1.07,1.07,0,0,1,1.09,1.09,1.23,1.23,0,0,1-.31.78l-.86.31H16.31a2.23,2.23,0,0,0-2.19,2.19h1.56a.67.67,0,0,1,.62-.62h4.29a2.42,2.42,0,0,0,1.48-.46l8.18-2.82A1.06,1.06,0,0,1,31.5,38,1,1,0,0,1,31,39.26Z"/><path id="_Trazado_compuesto_4" data-name="&lt;Trazado compuesto&gt;" class="cls-3" d="M31.12,25l-.23-.47L32.68,24V22.94l-1.79-.46L31,22a5.07,5.07,0,0,0-.7-1.79l-.2-.39L31.25,18l-.77-.78L28.6,18.34l-.39-.24a7.66,7.66,0,0,0-1.79-.78L26,17.09l-.47-2.25H24.4l-.47,2.25-.47.15a5.34,5.34,0,0,0-1.79.82l-.39.25-1.87-1.16-.78.79,1.17,1.88-.24.39A7.71,7.71,0,0,0,18.78,22l-.42.46-2.44.47V24l2.44.46.25.47a5.44,5.44,0,0,0,.87,1.79l.28.39L18.61,29l.79.78,1.87-1.17.39.24a7.63,7.63,0,0,0,1.79.78l.47,0,.48,2h1.09l.47-2,.47,0a5.18,5.18,0,0,0,1.79-.75l.39-.22,1.87,1.17.78-.78L30.1,27.15l.24-.39A7.69,7.69,0,0,0,31.12,25Zm-6.22,1a2.55,2.55,0,1,1,2.55-2.55A2.55,2.55,0,0,1,24.9,25.95Z"/><path id="_Trazado_compuesto_5" data-name="&lt;Trazado compuesto&gt;" class="cls-2" d="M24.95,27.25a3.74,3.74,0,0,1-3.74-3.74,3.79,3.79,0,0,1,3.74-3.74,3.74,3.74,0,1,1,0,7.48Zm0-5.93a2.19,2.19,0,1,0,2.19,2.19A2.14,2.14,0,0,0,24.95,21.32Z"/><path class="cls-7" d="M43.49,37.49A23.11,23.11,0,0,1,41.37,40H443.91V37.49Z"/></g></g></svg>