<svg xmlns="http://www.w3.org/2000/svg" viewBox="0 0 309.27 106.56"><defs><style>.cls-1{fill:#29363e;}</style></defs><title>titulo1</title><g id="Capa_2" data-name="Capa 2"><g id="FONDO_MENU_-_PORTADA" data-name="FONDO MENU - PORTADA"><path class="cls-1" d="M4.82.43l7,37.15L18.67.43h4.39l-8,42.7h-7L0,.43Z"/><path class="cls-1" d="M41.91,19.34v4.27H31.48V38.8H44.29v4.33H26.72V.43H44.29V4.76H31.48V19.34Z"/><path class="cls-1" d="M58.19.43c6.71,0,9.52,3.42,9.52,9.76v3.48c0,4.7-1.65,7.63-5.31,8.78,3.9,1.16,5.37,4.33,5.37,8.91V38a10.7,10.7,0,0,0,.85,5.12H63.81c-.55-1.22-.79-2.32-.79-5.19V31.23c0-4.82-2.26-6.34-6.22-6.34H53.44V43.13H48.68V.43ZM57,20.56c3.78,0,6-1.22,6-5.86V10.61c0-3.84-1.4-5.86-4.94-5.86H53.44v15.8Z"/><path class="cls-1" d="M91.2,10.68v1.16H86.68v-1.4c0-3.84-1.46-6.1-4.88-6.1s-4.88,2.26-4.88,6c0,9.58,14.34,10.49,14.34,22.51,0,6.47-3.11,10.68-9.64,10.68S72,39.35,72,32.88V30.44h4.45v2.68c0,3.84,1.59,6.1,5,6.1s5-2.26,5-6.1c0-9.52-14.27-10.43-14.27-22.45C72.22,4.09,75.27,0,81.68,0S91.2,4.21,91.2,10.68Z"/><path class="cls-1" d="M100.16.43v42.7H95.4V.43Z"/><path class="cls-1" d="M104.67,10.74c0-6.53,3.23-10.74,9.76-10.74s9.82,4.21,9.82,10.74V32.82c0,6.47-3.23,10.74-9.82,10.74s-9.76-4.27-9.76-10.74Zm4.7,22.33c0,3.9,1.65,6.16,5.06,6.16s5.06-2.26,5.06-6.16V10.49c0-3.84-1.59-6.16-5.06-6.16s-5.06,2.32-5.06,6.16Z"/><path class="cls-1" d="M133,43.13h-4.27V.43h6l9.88,30.87V.43h4.21v42.7H143.9L133,8.6Z"/><path class="cls-1" d="M158.54,34.53l-1.65,8.6H152.5L160.67.43h6.89l8.17,42.7H171l-1.65-8.6Zm.61-4.09h9.52L163.84,5.8Z"/><path class="cls-1" d="M195.2,43.07h-4.58l-7.08-34v34H179.4V.43H186l7,34.1L199.83.43h6.65v42.7H202V8.78Z"/><path class="cls-1" d="M216.12.43v42.7h-4.76V.43Z"/><path class="cls-1" d="M236.19,19.34v4.27H225.76V38.8h12.81v4.33H221V.43h17.57V4.76H225.76V19.34Z"/><path class="cls-1" d="M247.17,43.13H242.9V.43h6l9.88,30.87V.43H263v42.7h-4.94L247.17,8.6Z"/><path class="cls-1" d="M274.13,43.13V4.76h-7.87V.43h20.5V4.76h-7.87V43.13Z"/><path class="cls-1" d="M289.68,10.74c0-6.53,3.23-10.74,9.76-10.74s9.82,4.21,9.82,10.74V32.82c0,6.47-3.23,10.74-9.82,10.74s-9.76-4.27-9.76-10.74Zm4.7,22.33c0,3.9,1.65,6.16,5.06,6.16s5.06-2.26,5.06-6.16V10.49c0-3.84-1.59-6.16-5.06-6.16s-5.06,2.32-5.06,6.16Z"/><path class="cls-1" d="M35.17,63.43c6.65,0,9.7,4,9.7,10.61V95.58c0,6.53-3.05,10.55-9.7,10.55h-10V63.43Zm-.06,38.37c3.42,0,5.06-2.13,5.06-6v-22c0-3.9-1.65-6-5.12-6H29.92v34Z"/><path class="cls-1" d="M64.51,82.34v4.27H54.08V101.8H66.89v4.33H49.32V63.43H66.89v4.33H54.08V82.34Z"/><path class="cls-1" d="M99.58,73.74v3.84H95.07V73.49c0-3.84-1.53-6.16-5-6.16s-5,2.32-5,6.16V96.06c0,3.84,1.59,6.16,5,6.16s5-2.32,5-6.16V90.51h4.51v5.31c0,6.47-3.05,10.74-9.64,10.74s-9.58-4.27-9.58-10.74V73.74c0-6.47,3.05-10.74,9.58-10.74S99.58,67.27,99.58,73.74Z"/><path class="cls-1" d="M123.13,73.74V95.82c0,6.47-3.23,10.74-9.82,10.74s-9.76-4.27-9.76-10.74V73.74c0-6.53,3.23-10.74,9.76-10.74S123.13,67.21,123.13,73.74Zm-14.89-.24V96.06c0,3.9,1.65,6.16,5.06,6.16s5.06-2.26,5.06-6.16V73.49c0-3.84-1.59-6.16-5.06-6.16S108.24,69.65,108.24,73.49Zm11.1-18.91-5.67,6.28h-3.29l4.27-6.28Z"/><path class="cls-1" d="M137.64,63.43c6.65,0,9.7,4,9.7,10.61V95.58c0,6.53-3.05,10.55-9.7,10.55h-10V63.43Zm-.06,38.37c3.42,0,5.06-2.13,5.06-6v-22c0-3.9-1.65-6-5.12-6H132.4v34Z"/><path class="cls-1" d="M156.55,63.43v42.7H151.8V63.43Z"/><path class="cls-1" d="M180.28,73.74V77.4h-4.51v-3.9c0-3.84-1.53-6.16-5-6.16s-5,2.32-5,6.16V96.06c0,3.84,1.59,6.16,5,6.16s5-2.32,5-6.16V87.52h-4.39V83.25h8.91V95.82c0,6.47-3.05,10.74-9.64,10.74s-9.58-4.27-9.58-10.74V73.74c0-6.47,3.05-10.74,9.58-10.74S180.28,67.27,180.28,73.74Z"/><path class="cls-1" d="M184.43,73.74c0-6.53,3.23-10.74,9.76-10.74S204,67.21,204,73.74V95.82c0,6.47-3.23,10.74-9.82,10.74s-9.76-4.27-9.76-10.74Zm4.7,22.33c0,3.9,1.65,6.16,5.06,6.16s5.06-2.26,5.06-6.16V73.49c0-3.84-1.59-6.16-5.06-6.16s-5.06,2.32-5.06,6.16Z"/><path class="cls-1" d="M236.83,73.74v3.84h-4.51V73.49c0-3.84-1.53-6.16-5-6.16s-5,2.32-5,6.16V96.06c0,3.84,1.59,6.16,5,6.16s5-2.32,5-6.16V90.51h4.51v5.31c0,6.47-3.05,10.74-9.64,10.74s-9.58-4.27-9.58-10.74V73.74c0-6.47,3.05-10.74,9.58-10.74S236.83,67.27,236.83,73.74Z"/><path class="cls-1" d="M240.79,73.74c0-6.53,3.23-10.74,9.76-10.74s9.82,4.21,9.82,10.74V95.82c0,6.47-3.23,10.74-9.82,10.74s-9.76-4.27-9.76-10.74Zm4.7,22.33c0,3.9,1.65,6.16,5.06,6.16s5.06-2.26,5.06-6.16V73.49c0-3.84-1.59-6.16-5.06-6.16s-5.06,2.32-5.06,6.16Z"/><path class="cls-1" d="M269.1,106.13h-4.27V63.43h6l9.88,30.87V63.43H285v42.7H280L269.1,71.6Z"/></g></g></svg>