<svg xmlns="http://www.w3.org/2000/svg" xmlns:xlink="http://www.w3.org/1999/xlink" viewBox="0 0 467.5 207.86"><defs><style>.cls-1{fill:navy;}.cls-1,.cls-2,.cls-3{stroke:navy;}.cls-1,.cls-2,.cls-3,.cls-7,.cls-8,.cls-9{stroke-miterlimit:10;}.cls-1,.cls-2{stroke-width:0.5px;}.cls-10,.cls-2{fill:#fff;}.cls-3{fill:#f0f0f0;stroke-width:0.47px;}.cls-4{fill:#cdcdcd;}.cls-5{fill:#353535;}.cls-6{fill:#565656;}.cls-7{fill:none;}.cls-7,.cls-8,.cls-9{stroke:#565656;}.cls-7,.cls-8{stroke-width:0.69px;}.cls-9{stroke-width:0.34px;fill:url(#Degradado_sin_nombre_6);}.cls-11{fill:#828282;}</style><linearGradient id="Degradado_sin_nombre_6" x1="11.75" y1="10.25" x2="24.75" y2="10.25" gradientUnits="userSpaceOnUse"><stop offset="0" stop-color="#999"/><stop offset="0.53" stop-color="#e6e6e6"/><stop offset="1" stop-color="#b3b3b3"/></linearGradient></defs><title>ventana</title><g id="Capa_2" data-name="Capa 2"><g id="CONTENIDO"><rect class="cls-1" x="0.25" y="0.25" width="467" height="207.36"/><rect class="cls-2" x="0.25" y="0.25" width="467" height="26"/><rect class="cls-3" x="449.75" y="26.25" width="17.5" height="181"/><rect class="cls-4" x="450.25" y="46.25" width="16.5" height="21"/><path class="cls-5" d="M38.13,15.74l.95.24A3.19,3.19,0,0,1,38,17.76a3,3,0,0,1-1.89.61,3.39,3.39,0,0,1-1.88-.47,2.93,2.93,0,0,1-1.1-1.36,4.86,4.86,0,0,1-.38-1.92,4.22,4.22,0,0,1,.43-2,2.92,2.92,0,0,1,1.21-1.26A3.54,3.54,0,0,1,36.13,11a2.94,2.94,0,0,1,1.81.55,2.84,2.84,0,0,1,1,1.54l-.93.22a2.21,2.21,0,0,0-.72-1.14,1.93,1.93,0,0,0-1.19-.36,2.31,2.31,0,0,0-1.38.4,2.08,2.08,0,0,0-.78,1.06,4.28,4.28,0,0,0-.22,1.37A4.39,4.39,0,0,0,34,16.21a2,2,0,0,0,.83,1,2.32,2.32,0,0,0,1.22.34,2,2,0,0,0,1.35-.46A2.34,2.34,0,0,0,38.13,15.74Z"/><path class="cls-5" d="M40.66,14.07v-1h1v1Zm0,4.18v-1h1v1Z"/><path class="cls-5" d="M44.88,18.37,42.81,11h.71l2.07,7.4Z"/><path class="cls-5" d="M47.89,18.25,46,11.09h1l1.09,4.69q.18.74.3,1.46.27-1.15.32-1.32L50,11.09h1.14l1,3.62a19.3,19.3,0,0,1,.56,2.53q.14-.68.36-1.56l1.12-4.6h1l-2,7.16h-.91L50.81,12.8c-.13-.46-.2-.74-.22-.84-.08.33-.14.61-.21.84l-1.52,5.45Z"/><path class="cls-5" d="M56.52,18.25V11.09h.95v7.16Z"/><path class="cls-5" d="M59.41,18.25V11.09h1l3.76,5.62V11.09H65v7.16h-1l-3.76-5.62v5.63Z"/><path class="cls-5" d="M66.92,18.25V11.09h2.47a6,6,0,0,1,1.27.1,2.43,2.43,0,0,1,1,.51,2.91,2.91,0,0,1,.85,1.22,4.8,4.8,0,0,1,.28,1.7,5,5,0,0,1-.19,1.45,3.5,3.5,0,0,1-.49,1,2.6,2.6,0,0,1-.65.65,2.67,2.67,0,0,1-.86.36,4.89,4.89,0,0,1-1.15.12Zm.95-.84h1.53a3.7,3.7,0,0,0,1.11-.13,1.59,1.59,0,0,0,.64-.37,2.26,2.26,0,0,0,.53-.91,4.44,4.44,0,0,0,.19-1.38,3.33,3.33,0,0,0-.37-1.73,1.85,1.85,0,0,0-.9-.81,3.7,3.7,0,0,0-1.23-.15h-1.5Z"/><path class="cls-5" d="M74.13,14.76a3.89,3.89,0,0,1,1-2.79,3.25,3.25,0,0,1,2.47-1,3.43,3.43,0,0,1,1.79.47,3.1,3.1,0,0,1,1.21,1.32A4.3,4.3,0,0,1,81,14.68a4.22,4.22,0,0,1-.44,1.95,3,3,0,0,1-1.25,1.3,3.55,3.55,0,0,1-1.74.44,3.39,3.39,0,0,1-1.81-.49,3.14,3.14,0,0,1-1.21-1.33A4,4,0,0,1,74.13,14.76Zm1,0a2.86,2.86,0,0,0,.7,2,2.43,2.43,0,0,0,3.51,0A3,3,0,0,0,80,14.68a3.66,3.66,0,0,0-.3-1.53,2.27,2.27,0,0,0-.86-1,2.36,2.36,0,0,0-1.28-.36,2.42,2.42,0,0,0-1.73.69A3.08,3.08,0,0,0,75.11,14.78Z"/><path class="cls-5" d="M83.73,18.25l-1.9-7.16h1l1.09,4.69q.18.74.3,1.46.27-1.15.32-1.32l1.36-4.83H87l1,3.62a19.3,19.3,0,0,1,.56,2.53q.14-.68.36-1.56l1.12-4.6h1l-2,7.16h-.91L86.65,12.8c-.13-.46-.2-.74-.22-.84-.08.33-.14.61-.21.84L84.7,18.25Z"/><path class="cls-5" d="M91.87,16l.89-.08a2,2,0,0,0,.3.88,1.62,1.62,0,0,0,.72.56,2.74,2.74,0,0,0,1.1.21,2.63,2.63,0,0,0,1-.16,1.33,1.33,0,0,0,.62-.44,1,1,0,0,0,.2-.61.93.93,0,0,0-.2-.59,1.44,1.44,0,0,0-.64-.42,12.42,12.42,0,0,0-1.27-.35,6.55,6.55,0,0,1-1.38-.45,1.93,1.93,0,0,1-.76-.67,1.63,1.63,0,0,1-.25-.89,1.82,1.82,0,0,1,.31-1,1.91,1.91,0,0,1,.9-.72A3.4,3.4,0,0,1,94.67,11a3.58,3.58,0,0,1,1.4.26A2,2,0,0,1,97,12a2.17,2.17,0,0,1,.35,1.13l-.91.07a1.47,1.47,0,0,0-.5-1,1.93,1.93,0,0,0-1.25-.35,2,2,0,0,0-1.25.31,1,1,0,0,0-.39.76.81.81,0,0,0,.28.63,3.77,3.77,0,0,0,1.43.51,9.51,9.51,0,0,1,1.58.46,2.17,2.17,0,0,1,.92.73,1.78,1.78,0,0,1,.3,1,2,2,0,0,1-.33,1.08,2.15,2.15,0,0,1-.94.79,3.29,3.29,0,0,1-1.38.28,4.12,4.12,0,0,1-1.63-.28,2.28,2.28,0,0,1-1-.85A2.42,2.42,0,0,1,91.87,16Z"/><path class="cls-5" d="M100.45,18.37,98.38,11h.71l2.07,7.4Z"/><path class="cls-5" d="M101.74,16.7l.87-.14a1.22,1.22,0,0,0,.41.8,1.42,1.42,0,0,0,.94.28,1.38,1.38,0,0,0,.9-.25.74.74,0,0,0,.29-.58.53.53,0,0,0-.26-.47,3.79,3.79,0,0,0-.9-.3,8.35,8.35,0,0,1-1.34-.42,1.28,1.28,0,0,1-.76-1.19,1.33,1.33,0,0,1,.16-.64,1.42,1.42,0,0,1,.43-.49,1.81,1.81,0,0,1,.56-.26,2.65,2.65,0,0,1,.76-.11,3,3,0,0,1,1.07.18,1.45,1.45,0,0,1,.68.48,1.86,1.86,0,0,1,.3.8l-.86.12a.94.94,0,0,0-.34-.62,1.25,1.25,0,0,0-.79-.22,1.44,1.44,0,0,0-.86.2.58.58,0,0,0-.26.47.49.49,0,0,0,.11.31.77.77,0,0,0,.34.23l.78.22a10.68,10.68,0,0,1,1.3.41,1.32,1.32,0,0,1,.58.46,1.29,1.29,0,0,1,.21.75,1.47,1.47,0,0,1-.26.83,1.65,1.65,0,0,1-.74.6,2.68,2.68,0,0,1-1.09.21,2.43,2.43,0,0,1-1.54-.42A2,2,0,0,1,101.74,16.7Z"/><path class="cls-5" d="M107.33,20.25l-.1-.83a2,2,0,0,0,.5.08,1,1,0,0,0,.47-.1.8.8,0,0,0,.29-.27,4.3,4.3,0,0,0,.27-.65l.08-.21-2-5.2h.95l1.08,3q.21.57.38,1.2a11.83,11.83,0,0,1,.36-1.18l1.11-3h.88l-2,5.27a10.44,10.44,0,0,1-.49,1.18,1.74,1.74,0,0,1-.54.64,1.27,1.27,0,0,1-.72.2A1.77,1.77,0,0,1,107.33,20.25Z"/><path class="cls-5" d="M112.3,16.7l.87-.14a1.22,1.22,0,0,0,.41.8,1.42,1.42,0,0,0,.94.28,1.38,1.38,0,0,0,.9-.25.74.74,0,0,0,.29-.58.53.53,0,0,0-.26-.47,3.79,3.79,0,0,0-.9-.3,8.35,8.35,0,0,1-1.34-.42,1.28,1.28,0,0,1-.76-1.19,1.33,1.33,0,0,1,.16-.64,1.42,1.42,0,0,1,.43-.49,1.81,1.81,0,0,1,.56-.26,2.65,2.65,0,0,1,.76-.11,3,3,0,0,1,1.07.18,1.45,1.45,0,0,1,.68.48,1.86,1.86,0,0,1,.3.8l-.86.12a.94.94,0,0,0-.34-.62,1.25,1.25,0,0,0-.79-.22,1.44,1.44,0,0,0-.86.2.58.58,0,0,0-.26.47.49.49,0,0,0,.11.31.77.77,0,0,0,.34.23l.78.22a10.68,10.68,0,0,1,1.3.41,1.32,1.32,0,0,1,.58.46,1.29,1.29,0,0,1,.21.75,1.47,1.47,0,0,1-.26.83,1.65,1.65,0,0,1-.74.6,2.68,2.68,0,0,1-1.09.21,2.43,2.43,0,0,1-1.54-.42A2,2,0,0,1,112.3,16.7Z"/><path class="cls-5" d="M119.85,17.46l.13.78a3.28,3.28,0,0,1-.66.08,1.51,1.51,0,0,1-.74-.15.84.84,0,0,1-.37-.4,3.16,3.16,0,0,1-.11-1v-3h-.64v-.68h.64V11.78l.87-.53v1.81h.88v.68H119v3a1.55,1.55,0,0,0,0,.48.37.37,0,0,0,.15.17.59.59,0,0,0,.3.06Z"/><path class="cls-5" d="M124.54,16.58l.91.11a2.22,2.22,0,0,1-.8,1.24,2.39,2.39,0,0,1-1.48.44,2.37,2.37,0,0,1-1.8-.7,2.73,2.73,0,0,1-.67-2,2.87,2.87,0,0,1,.67-2,2.28,2.28,0,0,1,1.75-.72,2.22,2.22,0,0,1,1.7.71,2.81,2.81,0,0,1,.66,2c0,.05,0,.13,0,.23h-3.87a2,2,0,0,0,.48,1.31,1.44,1.44,0,0,0,1.08.45,1.35,1.35,0,0,0,.83-.25A1.69,1.69,0,0,0,124.54,16.58Zm-2.89-1.42h2.9a1.75,1.75,0,0,0-.33-1,1.35,1.35,0,0,0-1.09-.51,1.4,1.4,0,0,0-1,.41A1.61,1.61,0,0,0,121.66,15.16Z"/><path class="cls-5" d="M126.83,18.25V13.06h.79v.73a1.84,1.84,0,0,1,.65-.61,1.82,1.82,0,0,1,.92-.23,1.71,1.71,0,0,1,.95.24,1.28,1.28,0,0,1,.52.67,1.86,1.86,0,0,1,1.6-.91,1.58,1.58,0,0,1,1.19.43,1.82,1.82,0,0,1,.42,1.32v3.56H133V15a2.41,2.41,0,0,0-.08-.76.74.74,0,0,0-.31-.37,1,1,0,0,0-.53-.14,1.23,1.23,0,0,0-.91.36,1.6,1.6,0,0,0-.36,1.17v3h-.88V14.88a1.48,1.48,0,0,0-.21-.88.81.81,0,0,0-.7-.29,1.28,1.28,0,0,0-.69.2,1.1,1.1,0,0,0-.46.57,3.21,3.21,0,0,0-.14,1.08v2.69Z"/><path class="cls-5" d="M135.2,16.36l.88-.12a1.94,1.94,0,0,0,.52,1.08,1.27,1.27,0,0,0,.89.33,1.42,1.42,0,0,0,1-.43,1.45,1.45,0,0,0,.43-1.06,1.35,1.35,0,0,0-.4-1,1.37,1.37,0,0,0-1-.39,2.51,2.51,0,0,0-.62.1l.1-.77h.14a1.81,1.81,0,0,0,1-.29,1,1,0,0,0,.45-.9,1.07,1.07,0,0,0-.33-.8,1.16,1.16,0,0,0-.84-.32,1.2,1.2,0,0,0-.85.32,1.62,1.62,0,0,0-.44,1l-.88-.16a2.26,2.26,0,0,1,.73-1.37,2.12,2.12,0,0,1,1.42-.49,2.34,2.34,0,0,1,1.08.25,1.81,1.81,0,0,1,.75.69,1.76,1.76,0,0,1,.26.92,1.51,1.51,0,0,1-.25.84,1.7,1.7,0,0,1-.74.61,1.67,1.67,0,0,1,1,.61,1.85,1.85,0,0,1,.35,1.16,2.11,2.11,0,0,1-.68,1.59,2.4,2.4,0,0,1-1.73.65,2.25,2.25,0,0,1-1.56-.56A2.17,2.17,0,0,1,135.2,16.36Z"/><path class="cls-5" d="M145.66,17.41v.84h-4.73a1.54,1.54,0,0,1,.1-.61,3.22,3.22,0,0,1,.58-1,9,9,0,0,1,1.15-1.08,9.75,9.75,0,0,0,1.58-1.52,1.82,1.82,0,0,0,.41-1.06,1.18,1.18,0,0,0-.37-.88,1.35,1.35,0,0,0-1-.36,1.37,1.37,0,0,0-1,.38,1.44,1.44,0,0,0-.39,1.05l-.9-.09a2.23,2.23,0,0,1,.7-1.54,2.38,2.38,0,0,1,1.63-.53,2.27,2.27,0,0,1,1.63.57,1.88,1.88,0,0,1,.6,1.42,2.15,2.15,0,0,1-.18.84,3.28,3.28,0,0,1-.58.87A14.36,14.36,0,0,1,143.54,16q-.79.66-1,.9a2.89,2.89,0,0,0-.37.48Z"/><path class="cls-5" d="M148.54,18.37,146.47,11h.71l2.07,7.4Z"/><path class="cls-5" d="M153.57,16.35l.86.11a2.24,2.24,0,0,1-.73,1.4,2.11,2.11,0,0,1-1.43.51,2.23,2.23,0,0,1-1.71-.7,2.83,2.83,0,0,1-.65-2,3.61,3.61,0,0,1,.28-1.47,2,2,0,0,1,.85-.95,2.53,2.53,0,0,1,1.24-.31,2.15,2.15,0,0,1,1.38.43,2,2,0,0,1,.69,1.21l-.85.13a1.41,1.41,0,0,0-.43-.79,1.12,1.12,0,0,0-.75-.26,1.36,1.36,0,0,0-1.08.48,2.26,2.26,0,0,0-.42,1.51,2.34,2.34,0,0,0,.4,1.52,1.3,1.3,0,0,0,1,.47,1.23,1.23,0,0,0,.86-.32A1.57,1.57,0,0,0,153.57,16.35Z"/><path class="cls-5" d="M155.46,18.25V13.06h.79v.73a1.84,1.84,0,0,1,.65-.61,1.82,1.82,0,0,1,.92-.23,1.71,1.71,0,0,1,.95.24,1.28,1.28,0,0,1,.52.67,1.86,1.86,0,0,1,1.6-.91,1.58,1.58,0,0,1,1.19.43,1.82,1.82,0,0,1,.42,1.32v3.56h-.87V15a2.41,2.41,0,0,0-.08-.76.74.74,0,0,0-.31-.37,1,1,0,0,0-.53-.14,1.23,1.23,0,0,0-.91.36,1.6,1.6,0,0,0-.36,1.17v3h-.88V14.88a1.48,1.48,0,0,0-.21-.88.81.81,0,0,0-.7-.29,1.28,1.28,0,0,0-.69.2,1.1,1.1,0,0,0-.46.57,3.21,3.21,0,0,0-.14,1.08v2.69Z"/><path class="cls-5" d="M167.44,18.25V17.6a1.61,1.61,0,0,1-1.45.77,2,2,0,0,1-1.14-.34,2.25,2.25,0,0,1-.81-1,3.31,3.31,0,0,1-.29-1.41,3.68,3.68,0,0,1,.26-1.41,2,2,0,0,1,.78-1,2.07,2.07,0,0,1,1.16-.34,1.73,1.73,0,0,1,1.43.71V11.09h.87v7.16Zm-2.78-2.59a2.25,2.25,0,0,0,.42,1.49,1.27,1.27,0,0,0,1,.49,1.24,1.24,0,0,0,1-.47,2.17,2.17,0,0,0,.4-1.44,2.44,2.44,0,0,0-.41-1.56,1.26,1.26,0,0,0-1-.5,1.22,1.22,0,0,0-1,.48A2.36,2.36,0,0,0,164.66,15.66Z"/><path class="cls-5" d="M170.17,18.25v-1h1v1Z"/><path class="cls-5" d="M176.52,16.58l.91.11a2.22,2.22,0,0,1-.8,1.24,2.39,2.39,0,0,1-1.48.44,2.37,2.37,0,0,1-1.8-.7,2.73,2.73,0,0,1-.67-2,2.87,2.87,0,0,1,.67-2,2.28,2.28,0,0,1,1.75-.72,2.22,2.22,0,0,1,1.7.71,2.81,2.81,0,0,1,.66,2c0,.05,0,.13,0,.23h-3.87a2,2,0,0,0,.48,1.31,1.44,1.44,0,0,0,1.08.45,1.35,1.35,0,0,0,.83-.25A1.69,1.69,0,0,0,176.52,16.58Zm-2.89-1.42h2.9a1.75,1.75,0,0,0-.33-1,1.35,1.35,0,0,0-1.09-.51,1.4,1.4,0,0,0-1,.41A1.61,1.61,0,0,0,173.64,15.16Z"/><path class="cls-5" d="M178.23,18.25l1.89-2.7-1.75-2.49h1.1l.8,1.22c.15.23.27.42.36.58l.4-.57.87-1.23h1l-1.79,2.44,1.93,2.74H182l-1.06-1.61-.28-.43-1.36,2Z"/><path class="cls-5" d="M187.65,16.58l.91.11a2.22,2.22,0,0,1-.8,1.24,2.39,2.39,0,0,1-1.48.44,2.37,2.37,0,0,1-1.8-.7,2.73,2.73,0,0,1-.67-2,2.87,2.87,0,0,1,.67-2,2.28,2.28,0,0,1,1.75-.72,2.22,2.22,0,0,1,1.7.71,2.81,2.81,0,0,1,.66,2c0,.05,0,.13,0,.23h-3.87a2,2,0,0,0,.48,1.31,1.44,1.44,0,0,0,1.08.45,1.35,1.35,0,0,0,.83-.25A1.69,1.69,0,0,0,187.65,16.58Zm-2.89-1.42h2.9a1.75,1.75,0,0,0-.33-1,1.35,1.35,0,0,0-1.09-.51,1.4,1.4,0,0,0-1,.41A1.61,1.61,0,0,0,184.76,15.16Z"/><polygon class="cls-6" points="458.25 200.89 454.41 197.05 454.41 199.61 458.25 203.45 462.09 199.61 462.09 197.05 458.25 200.89"/><polygon class="cls-6" points="458.25 35.61 462.09 39.45 462.09 36.89 458.25 33.05 454.41 36.89 454.41 39.45 458.25 35.61"/><rect class="cls-7" x="401" y="10.75" width="8" height="8"/><line class="cls-7" x1="360.25" y1="14.75" x2="368.25" y2="14.75"/><line class="cls-7" x1="449.75" y1="18.75" x2="441.75" y2="10.75"/><line class="cls-7" x1="441.75" y1="18.75" x2="449.75" y2="10.75"/><rect class="cls-8" x="11.75" y="8.75" width="13" height="12"/><rect class="cls-9" x="11.75" y="8.75" width="13" height="3"/><path class="cls-10" d="M16.43,15.94l.81.26a1.82,1.82,0,0,1-.62,1A2,2,0,0,1,14.16,17a2.16,2.16,0,0,1-.53-1.54,2.26,2.26,0,0,1,.53-1.61,1.83,1.83,0,0,1,1.4-.57,1.72,1.72,0,0,1,1.23.45,1.64,1.64,0,0,1,.42.76l-.83.2a.86.86,0,0,0-.87-.7.94.94,0,0,0-.75.33,1.61,1.61,0,0,0-.29,1.07,1.74,1.74,0,0,0,.28,1.12.92.92,0,0,0,.73.33.83.83,0,0,0,.57-.21A1.22,1.22,0,0,0,16.43,15.94Z"/><path class="cls-10" d="M18.26,15.26v-.79h.79v.79Zm0,2.21v-.79h.79v.79Z"/><path class="cls-10" d="M19.78,13.25h.58l1,4.28h-.6Z"/><path class="cls-10" d="M21.5,18.61v-.51h1v.51Z"/><circle class="cls-11" cx="21.75" cy="10.25" r="0.5"/><circle class="cls-11" cx="23.25" cy="10.25" r="0.5"/></g></g></svg>